<svg width="289" height="260" viewBox="0 0 289 260" fill="none" xmlns="http://www.w3.org/2000/svg">
<rect width="289" height="260" rx="20" fill="#FCFAF9"/>
<g clip-path="url(#clip0_500_34)">
<path d="M24.5926 39.0971V41.77C24.5926 43.1376 25.5865 44.3017 26.9333 44.5107L27.7673 44.6394V36.229L26.9333 36.3577C25.5865 36.5654 24.5926 37.7295 24.5926 39.0985V39.0971Z" fill="#16E0BD"/>
<path d="M61.5502 36.3563L60.7162 36.2275V44.638L61.5502 44.5092C62.8969 44.3016 63.8908 43.1375 63.8908 41.7685V39.0956C63.8908 37.728 62.8969 36.5639 61.5502 36.3549V36.3563Z" fill="#16E0BD"/>
<path d="M49.9887 28.7432C49.6758 27.3714 48.5495 26.4219 44.4995 26.4219C40.4495 26.4219 39.3577 27.3424 39.0255 28.6823C40.5308 28.5217 42.2594 28.4276 44.2417 28.4276C46.4611 28.4276 48.362 28.5439 49.9887 28.7432Z" fill="#16E0BD"/>
<path d="M55.4737 35.5813C53.9078 34.7314 50.7331 33.7168 44.4995 33.7168C38.2659 33.7168 35.0926 34.7314 33.5266 35.5813C32.5796 36.0962 31.991 37.0887 31.991 38.1726V44.2368C31.991 45.3206 32.5796 46.3131 33.5266 46.828C35.0926 47.6779 38.2673 48.6925 44.4995 48.6925C50.7317 48.6925 53.9078 47.6779 55.4737 46.828C56.4208 46.3131 57.0094 45.3206 57.0094 44.2368V38.1726C57.0094 37.0887 56.4208 36.0962 55.4737 35.5813ZM39.0999 40.9008C37.8827 40.9008 36.8971 41.5085 36.8971 40.2862C36.8971 39.064 37.8827 38.0743 39.0999 38.0743C40.3171 38.0743 41.3027 39.064 41.3027 40.2862C41.3027 41.5085 40.3171 40.9008 39.0999 40.9008ZM45.8022 45.6057C45.4686 45.9393 45.0095 46.147 44.5009 46.147C43.4849 46.147 42.6606 45.3192 42.6606 44.2991C42.6606 44.2271 42.6895 44.1606 42.7378 44.1122C42.786 44.0637 42.8508 44.0347 42.9239 44.0347H46.0793C46.224 44.0347 46.3425 44.1537 46.3425 44.2991C46.3425 44.8098 46.1358 45.2708 45.8036 45.6057H45.8022ZM50.6986 40.9673C50.4519 40.9327 50.1817 40.8994 49.9005 40.8994C48.6846 40.8994 47.6976 41.5071 47.6976 40.2849C47.6976 39.0626 48.6846 38.0729 49.9005 38.0729C50.1955 38.0729 50.478 38.131 50.7358 38.2376C51.5381 38.5684 52.1047 39.3602 52.1047 40.2849C52.1047 41.2095 51.5216 41.0822 50.7 40.9659L50.6986 40.9673Z" fill="#16E0BD"/>
<path d="M56.9088 31.5172C54.7735 30.3573 50.9771 29.2817 44.2417 29.2817C37.5064 29.2817 33.7114 30.3573 31.5747 31.5172C29.8943 32.4294 28.848 34.1943 28.848 36.1128V44.5232C28.848 46.4417 29.8943 48.2066 31.5747 49.1188C33.71 50.2788 37.5064 51.3543 44.2417 51.3543C50.9771 51.3543 54.7721 50.2788 56.9088 49.1188C58.5891 48.2066 59.6354 46.4417 59.6354 44.5232V36.1128C59.6354 34.1943 58.5891 32.4294 56.9088 31.5172ZM57.7634 44.3142C57.7634 45.5863 57.0714 46.7518 55.959 47.3567C54.3089 48.2523 50.9826 49.3209 44.4995 49.3209C38.0164 49.3209 34.6901 48.2523 33.0414 47.3567C31.929 46.7518 31.2369 45.5863 31.2369 44.3142V38.0964C31.2369 36.8243 31.929 35.6588 33.0414 35.0539C34.6915 34.1583 38.0178 33.0897 44.4995 33.0897C50.9812 33.0897 54.3089 34.1583 55.959 35.0539C57.0714 35.6588 57.7634 36.8243 57.7634 38.0964V44.3142Z" fill="#16E0BD"/>
<path d="M67.4998 34.2857C66.2288 31.2668 64.4078 28.5565 62.0905 26.2297C59.7719 23.9014 57.0728 22.0743 54.0677 20.798C50.955 19.4761 47.6494 18.8062 44.2417 18.8062C40.8341 18.8062 37.5284 19.4761 34.4158 20.798C31.4093 22.0743 28.7102 23.9028 26.3929 26.2297C24.0743 28.5579 22.2546 31.2682 20.9837 34.2857C19.6672 37.4113 19 40.7306 19 44.151C19 48.6234 20.1759 53.0196 22.4008 56.8649C24.5595 60.5954 27.6528 63.7347 31.3445 65.9425C35.2318 68.268 39.6913 69.4958 44.2417 69.4958C49.0251 69.4958 53.6803 68.1462 57.7055 65.5923C61.2427 63.3485 64.1969 60.2299 66.2481 56.5729C68.3655 52.8009 69.4834 48.5043 69.4834 44.1482C69.4834 40.7265 68.8162 37.4071 67.4998 34.2816V34.2857ZM65.1067 55.9306C63.243 59.2513 60.5935 62.1041 57.4271 64.2081C57.485 63.4122 57.5153 62.5886 57.5153 61.7373C57.5153 56.7237 52.2935 53.5096 44.5009 53.5096C36.7082 53.5096 31.4865 56.7237 31.4865 61.7373C31.4865 62.7146 31.5264 63.6545 31.6022 64.5597C28.2842 62.482 25.501 59.6029 23.5353 56.2047C21.4262 52.56 20.311 48.3922 20.311 44.151C20.311 40.9064 20.9437 37.7601 22.1912 34.7979C23.396 31.9367 25.1219 29.3663 27.3206 27.1598C29.518 24.952 32.0778 23.2204 34.9272 22.0092C37.8772 20.7565 41.0119 20.1211 44.2417 20.1211C47.4715 20.1211 50.6062 20.7565 53.5562 22.0092C56.4056 23.219 58.9655 24.952 61.1628 27.1598C63.3615 29.3677 65.086 31.9367 66.2922 34.7979C67.5397 37.7601 68.1725 40.9078 68.1725 44.151C68.1725 48.2815 67.1124 52.3538 65.1053 55.9292L65.1067 55.9306Z" fill="#16E0BD"/>
<path d="M79.5396 74.069H255.621C263.562 74.069 270 67.6048 270 59.6304V28.4387C270 20.4642 263.562 14 255.621 14H102.507C94.5652 14 88.1276 20.4642 88.1276 28.4387V59.6913C88.1276 65.6323 84.5408 70.8051 79.3328 73.0129C78.7814 73.2468 78.9399 74.069 79.5382 74.069H79.5396Z" fill="#D3DDDB"/>
<path d="M246.81 26.3442H111.318C109.767 26.3442 108.509 27.6072 108.509 29.1653C108.509 30.7233 109.767 31.9863 111.318 31.9863H246.81C248.361 31.9863 249.619 30.7233 249.619 29.1653C249.619 27.6072 248.361 26.3442 246.81 26.3442Z" fill="#A0B5B1"/>
<path d="M246.81 41.2134H111.318C109.767 41.2134 108.509 42.4764 108.509 44.0344C108.509 45.5924 109.767 46.8554 111.318 46.8554H246.81C248.361 46.8554 249.619 45.5924 249.619 44.0344C249.619 42.4764 248.361 41.2134 246.81 41.2134Z" fill="#A0B5B1"/>
<path d="M188.215 56.0825H111.318C109.767 56.0825 108.509 57.3455 108.509 58.9035C108.509 60.4615 109.767 61.7245 111.318 61.7245H188.215C189.767 61.7245 191.024 60.4615 191.024 58.9035C191.024 57.3455 189.767 56.0825 188.215 56.0825Z" fill="#A0B5B1"/>
<path d="M267.848 121.583C266.47 118.31 264.496 115.369 261.981 112.845C259.467 110.32 256.539 108.338 253.279 106.953C249.903 105.519 246.317 104.793 242.622 104.793C238.926 104.793 235.34 105.519 231.964 106.953C228.704 108.338 225.776 110.32 223.262 112.845C220.748 115.369 218.774 118.31 217.395 121.583C215.967 124.973 215.243 128.573 215.243 132.284C215.243 137.135 216.518 141.905 218.932 146.075C221.273 150.121 224.628 153.527 228.633 155.921C232.849 158.443 237.687 159.776 242.622 159.776C247.809 159.776 252.86 158.312 257.224 155.543C261.06 153.11 264.265 149.727 266.49 145.761C268.787 141.669 270 137.009 270 132.284C270 128.573 269.276 124.973 267.848 121.583ZM265.252 145.059C263.23 148.662 260.357 151.756 256.922 154.039C256.986 153.175 257.017 150.466 257.017 149.543C257.017 145.22 253.436 142.129 247.721 141.045C247.309 140.55 247 139.953 246.81 139.337C246.703 138.994 246.629 138.644 246.578 138.289C249.325 136.963 251.306 134.292 251.676 131.126C251.816 131.162 251.962 131.183 252.114 131.183C253.049 131.183 253.728 130.417 253.804 129.484C253.898 128.344 254.646 127.955 254.646 126.66C254.646 125.366 253.618 124.353 252.35 124.353C252.137 124.353 251.932 124.381 251.739 124.436V123.551C251.739 121.028 250.72 118.744 249.073 117.09C247.426 115.436 245.151 114.413 242.638 114.413C237.614 114.413 233.539 118.503 233.539 123.551V124.436C233.344 124.383 233.139 124.353 232.927 124.353C231.658 124.353 230.63 125.384 230.63 126.66C230.63 127.937 231.381 128.344 231.472 129.484C231.548 130.417 232.228 131.183 233.162 131.183C233.314 131.183 233.463 131.162 233.602 131.123C233.97 134.29 235.951 136.963 238.698 138.289C238.647 138.644 238.573 138.994 238.467 139.337C238.26 140.008 237.911 140.656 237.441 141.177C232.1 142.366 228.786 145.383 228.786 149.543C228.786 150.603 228.828 153.438 228.911 154.419C225.312 152.166 222.293 149.043 220.16 145.358C217.873 141.405 216.664 136.884 216.664 132.284C216.664 128.766 217.351 125.352 218.705 122.14C220.011 119.035 221.883 116.248 224.267 113.854C226.652 111.46 229.427 109.581 232.519 108.268C235.718 106.909 239.117 106.22 242.622 106.22C246.126 106.22 249.525 106.909 252.725 108.268C255.817 109.581 258.592 111.46 260.976 113.854C263.36 116.248 265.232 119.035 266.539 122.14C267.892 125.352 268.579 128.766 268.579 132.284C268.579 136.764 267.429 141.182 265.252 145.059Z" fill="#16E0BD"/>
<path d="M209.462 162.319H33.3791C25.4376 162.319 19 155.855 19 147.88V116.689C19 108.714 25.4376 102.25 33.3791 102.25H186.493C194.435 102.25 200.872 108.714 200.872 116.689V147.941C200.872 153.882 204.459 159.055 209.667 161.263C210.219 161.497 210.06 162.319 209.462 162.319Z" fill="#16E0BD"/>
<path d="M177.682 114.596H42.1905C40.6389 114.596 39.3811 115.859 39.3811 117.417C39.3811 118.975 40.6389 120.238 42.1905 120.238H177.682C179.233 120.238 180.491 118.975 180.491 117.417C180.491 115.859 179.233 114.596 177.682 114.596Z" fill="#12C0A2"/>
<path d="M177.682 129.465H42.1905C40.6389 129.465 39.3811 130.728 39.3811 132.286C39.3811 133.844 40.6389 135.107 42.1905 135.107H177.682C179.233 135.107 180.491 133.844 180.491 132.286C180.491 130.728 179.233 129.465 177.682 129.465Z" fill="#12C0A2"/>
<path d="M119.087 144.333H42.1905C40.6389 144.333 39.3811 145.596 39.3811 147.154C39.3811 148.712 40.6389 149.975 42.1905 149.975H119.087C120.639 149.975 121.897 148.712 121.897 147.154C121.897 145.596 120.639 144.333 119.087 144.333Z" fill="#12C0A2"/>
<path d="M24.5926 215.599V218.272C24.5926 219.639 25.5865 220.803 26.9333 221.012L27.7673 221.141V212.731L26.9333 212.859C25.5865 213.067 24.5926 214.231 24.5926 215.6V215.599Z" fill="#16E0BD"/>
<path d="M61.5502 212.858L60.7162 212.729V221.14L61.5502 221.011C62.8969 220.803 63.8908 219.639 63.8908 218.27V215.597C63.8908 214.23 62.8969 213.066 61.5502 212.857V212.858Z" fill="#16E0BD"/>
<path d="M49.9887 205.245C49.6758 203.873 48.5495 202.924 44.4995 202.924C40.4495 202.924 39.3577 203.844 39.0255 205.184C40.5308 205.023 42.2594 204.929 44.2417 204.929C46.4611 204.929 48.362 205.046 49.9887 205.245Z" fill="#16E0BD"/>
<path d="M55.4737 212.083C53.9078 211.233 50.7331 210.218 44.4995 210.218C38.2659 210.218 35.0926 211.233 33.5266 212.083C32.5796 212.598 31.991 213.59 31.991 214.674V220.738C31.991 221.822 32.5796 222.815 33.5266 223.329C35.0926 224.179 38.2673 225.194 44.4995 225.194C50.7317 225.194 53.9078 224.179 55.4737 223.329C56.4208 222.815 57.0094 221.822 57.0094 220.738V214.674C57.0094 213.59 56.4208 212.598 55.4737 212.083ZM39.0999 217.402C37.8827 217.402 36.8971 218.01 36.8971 216.788C36.8971 215.565 37.8827 214.576 39.0999 214.576C40.3171 214.576 41.3027 215.565 41.3027 216.788C41.3027 218.01 40.3171 217.402 39.0999 217.402ZM45.8022 222.107C45.4686 222.441 45.0095 222.648 44.5009 222.648C43.4849 222.648 42.6606 221.821 42.6606 220.801C42.6606 220.729 42.6895 220.662 42.7378 220.614C42.786 220.565 42.8508 220.536 42.9239 220.536H46.0793C46.224 220.536 46.3425 220.655 46.3425 220.801C46.3425 221.311 46.1358 221.772 45.8036 222.107H45.8022ZM50.6986 217.469C50.4519 217.434 50.1817 217.401 49.9005 217.401C48.6846 217.401 47.6976 218.009 47.6976 216.786C47.6976 215.564 48.6846 214.574 49.9005 214.574C50.1955 214.574 50.478 214.632 50.7358 214.739C51.5381 215.07 52.1047 215.862 52.1047 216.786C52.1047 217.711 51.5216 217.584 50.7 217.467L50.6986 217.469Z" fill="#16E0BD"/>
<path d="M56.9088 208.019C54.7735 206.859 50.9771 205.783 44.2417 205.783C37.5064 205.783 33.7114 206.859 31.5747 208.019C29.8943 208.931 28.848 210.696 28.848 212.614V221.025C28.848 222.943 29.8943 224.708 31.5747 225.62C33.71 226.78 37.5064 227.856 44.2417 227.856C50.9771 227.856 54.7721 226.78 56.9088 225.62C58.5891 224.708 59.6354 222.943 59.6354 221.025V212.614C59.6354 210.696 58.5891 208.931 56.9088 208.019ZM57.7634 220.816C57.7634 222.088 57.0714 223.253 55.959 223.858C54.3089 224.754 50.9826 225.822 44.4995 225.822C38.0164 225.822 34.6901 224.754 33.0414 223.858C31.929 223.253 31.2369 222.088 31.2369 220.816V214.598C31.2369 213.326 31.929 212.16 33.0414 211.555C34.6915 210.66 38.0178 209.591 44.4995 209.591C50.9812 209.591 54.3089 210.66 55.959 211.555C57.0714 212.16 57.7634 213.326 57.7634 214.598V220.816Z" fill="#16E0BD"/>
<path d="M67.4998 210.787C66.2288 207.768 64.4078 205.058 62.0905 202.731C59.7719 200.403 57.0728 198.576 54.0677 197.299C50.955 195.978 47.6494 195.308 44.2417 195.308C40.8341 195.308 37.5284 195.978 34.4158 197.299C31.4093 198.576 28.7102 200.404 26.3929 202.731C24.0743 205.059 22.2546 207.77 20.9837 210.787C19.6672 213.913 19 217.232 19 220.654C19 225.126 20.1759 229.522 22.4008 233.368C24.5595 237.098 27.6528 240.238 31.3445 242.445C35.2318 244.771 39.6913 245.999 44.2417 245.999C49.0251 245.999 53.6803 244.649 57.7055 242.095C61.2427 239.851 64.1969 236.733 66.2481 233.076C68.3655 229.304 69.4834 225.007 69.4834 220.651C69.4834 217.229 68.8162 213.91 67.4998 210.784V210.787ZM65.1067 232.432C63.243 235.753 60.5935 238.606 57.4271 240.71C57.485 239.914 57.5153 239.09 57.5153 238.239C57.5153 233.225 52.2935 230.011 44.5009 230.011C36.7082 230.011 31.4865 233.225 31.4865 238.239C31.4865 239.216 31.5264 240.156 31.6022 241.061C28.2842 238.984 25.501 236.104 23.5353 232.706C21.4262 229.062 20.311 224.894 20.311 220.652C20.311 217.408 20.9437 214.262 22.1912 211.299C23.396 208.438 25.1219 205.868 27.3206 203.661C29.518 201.454 32.0778 199.722 34.9272 198.511C37.8772 197.258 41.0119 196.623 44.2417 196.623C47.4715 196.623 50.6062 197.258 53.5562 198.511C56.4056 199.72 58.9655 201.454 61.1628 203.661C63.3615 205.869 65.086 208.438 66.2922 211.299C67.5397 214.262 68.1725 217.409 68.1725 220.652C68.1725 224.783 67.1124 228.855 65.1053 232.431L65.1067 232.432Z" fill="#16E0BD"/>
<path d="M79.5396 240.615H146.32C154.261 240.615 160.699 234.151 160.699 226.177V215.129C160.699 207.155 154.261 200.691 146.32 200.691H102.508C94.5666 200.691 88.129 207.155 88.129 215.129V226.238C88.129 232.179 84.5422 237.351 79.3342 239.559C78.7828 239.793 78.9413 240.615 79.5396 240.615Z" fill="#D3DDDB"/>
<path d="M105.959 227.176C109.279 227.176 111.97 224.474 111.97 221.14C111.97 217.806 109.279 215.103 105.959 215.103C102.638 215.103 99.9469 217.806 99.9469 221.14C99.9469 224.474 102.638 227.176 105.959 227.176Z" fill="white"/>
<path d="M124.572 227.176C127.893 227.176 130.584 224.474 130.584 221.14C130.584 217.806 127.893 215.103 124.572 215.103C121.252 215.103 118.561 217.806 118.561 221.14C118.561 224.474 121.252 227.176 124.572 227.176Z" fill="white"/>
<path d="M143.186 227.176C146.506 227.176 149.198 224.474 149.198 221.14C149.198 217.806 146.506 215.103 143.186 215.103C139.866 215.103 137.175 217.806 137.175 221.14C137.175 224.474 139.866 227.176 143.186 227.176Z" fill="white"/>
</g>
<defs>
<clipPath id="clip0_500_34">
<rect width="251" height="232" fill="white" transform="translate(19 14)"/>
</clipPath>
</defs>
</svg>
