<svg width="363" height="256" viewBox="0 0 363 256" fill="none" xmlns="http://www.w3.org/2000/svg">
<rect x="0.945312" y="0.722534" width="361.25" height="254.681" rx="18.6197" fill="white"/>
<path d="M165.34 36.9132V28.646H166.49L169.172 33.8074L171.853 28.646H173.003V36.9132H172.154V29.8749L169.574 34.7905H168.769L166.189 29.8526V36.9132H165.34ZM177.289 30.8804C177.698 30.8804 178.037 30.9511 178.305 31.0927C178.573 31.2267 178.786 31.3868 178.942 31.573C179.106 31.7592 179.225 31.9194 179.299 32.0534H179.367V30.9921H180.193V36.9132H179.367V35.8519H179.299C179.225 35.9934 179.106 36.1572 178.942 36.3434C178.786 36.5222 178.573 36.6823 178.305 36.8238C178.037 36.9579 177.698 37.0249 177.289 37.0249C176.842 37.0249 176.451 36.9392 176.116 36.7679C175.78 36.5892 175.501 36.3546 175.278 36.0641C175.054 35.7662 174.887 35.4348 174.775 35.0698C174.671 34.7049 174.618 34.3325 174.618 33.9526C174.618 33.5728 174.671 33.2004 174.775 32.8355C174.887 32.4705 175.054 32.1428 175.278 31.8523C175.501 31.5544 175.78 31.3198 176.116 31.1485C176.451 30.9698 176.842 30.8804 177.289 30.8804ZM177.411 31.6066C176.972 31.6066 176.607 31.722 176.317 31.9529C176.026 32.1838 175.81 32.478 175.669 32.8355C175.527 33.193 175.456 33.5654 175.456 33.9526C175.456 34.3399 175.527 34.7123 175.669 35.0698C175.81 35.4273 176.026 35.7215 176.317 35.9524C176.607 36.1833 176.972 36.2987 177.411 36.2987C177.843 36.2987 178.201 36.1833 178.484 35.9524C178.774 35.7215 178.99 35.4273 179.132 35.0698C179.281 34.7123 179.355 34.3399 179.355 33.9526C179.355 33.5654 179.281 33.193 179.132 32.8355C178.99 32.478 178.774 32.1838 178.484 31.9529C178.201 31.722 177.843 31.6066 177.411 31.6066ZM181.866 36.9132V30.9921H182.704V31.763H182.749C182.868 31.5246 183.05 31.3198 183.296 31.1485C183.542 30.9698 183.885 30.8804 184.324 30.8804C184.465 30.8804 184.588 30.8878 184.693 30.9027C184.804 30.9176 184.86 30.9251 184.86 30.9251V31.7295C184.86 31.7295 184.801 31.722 184.681 31.7071C184.562 31.6922 184.436 31.6848 184.302 31.6848C183.996 31.6848 183.721 31.7481 183.475 31.8747C183.237 31.9938 183.047 32.2024 182.905 32.5003C182.771 32.7908 182.704 33.1892 182.704 33.6957V36.9132H181.866ZM185.83 36.9132V36.3211L189.483 31.6848H186.031V30.9921H190.511V31.5842L186.858 36.2205H190.511V36.9132H185.83ZM194.356 37.0249C193.887 37.0249 193.473 36.9392 193.116 36.7679C192.766 36.5966 192.468 36.3658 192.222 36.0753C191.984 35.7848 191.805 35.4571 191.686 35.0922C191.567 34.7198 191.507 34.3399 191.507 33.9526C191.507 33.5579 191.567 33.1781 191.686 32.8131C191.805 32.4482 191.984 32.1205 192.222 31.83C192.468 31.5395 192.766 31.3086 193.116 31.1373C193.473 30.966 193.887 30.8804 194.356 30.8804C194.825 30.8804 195.239 30.966 195.596 31.1373C195.954 31.3086 196.251 31.5395 196.49 31.83C196.728 32.1205 196.907 32.4482 197.026 32.8131C197.153 33.1781 197.216 33.5579 197.216 33.9526C197.216 34.3399 197.153 34.7198 197.026 35.0922C196.907 35.4571 196.728 35.7848 196.49 36.0753C196.251 36.3658 195.954 36.5966 195.596 36.7679C195.239 36.9392 194.825 37.0249 194.356 37.0249ZM194.356 36.2764C194.795 36.2764 195.164 36.1647 195.462 35.9412C195.76 35.7178 195.983 35.431 196.132 35.081C196.289 34.7235 196.367 34.3474 196.367 33.9526C196.367 33.5579 196.289 33.1855 196.132 32.8355C195.983 32.478 195.76 32.1875 195.462 31.9641C195.164 31.7406 194.795 31.6289 194.356 31.6289C193.917 31.6289 193.548 31.7406 193.25 31.9641C192.952 32.1875 192.729 32.478 192.58 32.8355C192.431 33.1855 192.356 33.5579 192.356 33.9526C192.356 34.3474 192.431 34.7235 192.58 35.081C192.729 35.431 192.952 35.7178 193.25 35.9412C193.548 36.1647 193.917 36.2764 194.356 36.2764Z" fill="black"/>
<path d="M27.0053 68.9532V60.6861H29.586C30.2414 60.6861 30.8149 60.8053 31.3065 61.0436C31.798 61.2745 32.2039 61.5873 32.5242 61.982C32.8519 62.3768 33.0977 62.8199 33.2615 63.3115C33.4254 63.803 33.5073 64.3058 33.5073 64.8197C33.5073 65.3336 33.4254 65.8363 33.2615 66.3279C33.0977 66.8194 32.8519 67.2626 32.5242 67.6573C32.2039 68.0521 31.798 68.3686 31.3065 68.6069C30.8149 68.8378 30.2414 68.9532 29.586 68.9532H27.0053ZM29.5637 61.457H27.8656V68.1824H29.5637C30.0776 68.1824 30.5245 68.0893 30.9043 67.9031C31.2916 67.7095 31.6118 67.4525 31.8651 67.1322C32.1257 66.812 32.3194 66.4508 32.446 66.0486C32.5726 65.6464 32.6359 65.2368 32.6359 64.8197C32.6359 64.4026 32.5726 63.993 32.446 63.5908C32.3194 63.1886 32.1257 62.8274 31.8651 62.5071C31.6118 62.1868 31.2916 61.9336 30.9043 61.7474C30.5245 61.5538 30.0776 61.457 29.5637 61.457ZM37.6711 69.065C37.2019 69.065 36.7885 68.9793 36.431 68.808C36.081 68.6367 35.7831 68.4058 35.5373 68.1154C35.299 67.8249 35.1202 67.4972 35.001 67.1322C34.8819 66.7598 34.8223 66.38 34.8223 65.9927C34.8223 65.598 34.8819 65.2181 35.001 64.8532C35.1202 64.4882 35.299 64.1605 35.5373 63.8701C35.7831 63.5796 36.081 63.3487 36.431 63.1774C36.7885 63.0061 37.2019 62.9205 37.6711 62.9205C38.1403 62.9205 38.5537 63.0061 38.9112 63.1774C39.2687 63.3487 39.5666 63.5796 39.8049 63.8701C40.0433 64.1605 40.222 64.4882 40.3412 64.8532C40.4678 65.2181 40.5311 65.598 40.5311 65.9927C40.5311 66.38 40.4678 66.7598 40.3412 67.1322C40.222 67.4972 40.0433 67.8249 39.8049 68.1154C39.5666 68.4058 39.2687 68.6367 38.9112 68.808C38.5537 68.9793 38.1403 69.065 37.6711 69.065ZM37.6711 68.3165C38.1105 68.3165 38.4792 68.2047 38.7771 67.9813C39.075 67.7579 39.2985 67.4711 39.4474 67.1211C39.6038 66.7636 39.682 66.3875 39.682 65.9927C39.682 65.598 39.6038 65.2256 39.4474 64.8755C39.2985 64.518 39.075 64.2276 38.7771 64.0041C38.4792 63.7807 38.1105 63.669 37.6711 63.669C37.2317 63.669 36.863 63.7807 36.5651 64.0041C36.2672 64.2276 36.0437 64.518 35.8948 64.8755C35.7458 65.2256 35.6713 65.598 35.6713 65.9927C35.6713 66.3875 35.7458 66.7636 35.8948 67.1211C36.0437 67.4711 36.2672 67.7579 36.5651 67.9813C36.863 68.2047 37.2317 68.3165 37.6711 68.3165ZM42.059 68.9532V63.0322H42.8969V63.993H42.9416C43.0012 63.8663 43.098 63.7211 43.2321 63.5573C43.3661 63.386 43.5486 63.237 43.7795 63.1104C44.0104 62.9838 44.3008 62.9205 44.6509 62.9205C45.0977 62.9205 45.4739 63.0359 45.7792 63.2668C46.092 63.4902 46.3192 63.7993 46.4607 64.194H46.4719C46.6283 63.8589 46.8592 63.5647 47.1645 63.3115C47.4699 63.0508 47.8795 62.9205 48.3934 62.9205C49.0191 62.9205 49.5069 63.1364 49.8569 63.5684C50.207 64.0004 50.382 64.5702 50.382 65.2777V68.9532H49.5553V65.3112C49.5553 64.7973 49.4361 64.3951 49.1978 64.1047C48.9595 63.8068 48.628 63.6578 48.2035 63.6578C47.8311 63.6578 47.5295 63.7621 47.2986 63.9706C47.0677 64.1717 46.9001 64.4287 46.7959 64.7415C46.6916 65.0543 46.6395 65.3745 46.6395 65.7022V68.9532H45.8016V65.3112C45.8016 64.7973 45.6861 64.3951 45.4552 64.1047C45.2244 63.8068 44.8929 63.6578 44.461 63.6578C44.0886 63.6578 43.7869 63.7621 43.556 63.9706C43.3252 64.1717 43.1576 64.4324 43.0533 64.7526C42.949 65.0655 42.8969 65.382 42.8969 65.7022V68.9532H42.059Z" fill="black"/>
<circle cx="276.848" cy="96.1128" r="9.93438" fill="#ECECEC"/>
<circle cx="323.97" cy="96.1128" r="9.93438" fill="#ECECEC"/>
<circle cx="137.583" cy="120.197" r="9.93438" fill="#16E0BD"/>
<circle cx="89.4148" cy="120.197" r="9.93438" fill="#ECECEC"/>
<circle cx="137.583" cy="144.28" r="9.93438" fill="#ECECEC"/>
<circle cx="137.583" cy="168.364" r="9.93438" fill="#ECECEC"/>
<circle cx="137.583" cy="192.448" r="9.93438" fill="#ECECEC"/>
<circle cx="89.4148" cy="144.28" r="9.93438" fill="#ECECEC"/>
<circle cx="89.4148" cy="168.364" r="9.93438" fill="#ECECEC"/>
<circle cx="89.4148" cy="192.448" r="9.93438" fill="#ECECEC"/>
<circle cx="184.7" cy="120.197" r="9.93438" fill="#ECECEC"/>
<circle cx="231.821" cy="120.197" r="9.93438" fill="#ECECEC"/>
<circle cx="184.7" cy="120.197" r="9.93438" fill="#ECECEC"/>
<circle cx="231.821" cy="120.197" r="9.93438" fill="#ECECEC"/>
<circle cx="323.97" cy="120.197" r="9.93438" fill="#ECECEC"/>
<circle cx="39.1531" cy="120.197" r="9.93438" fill="#ECECEC"/>
<circle cx="276.848" cy="120.197" r="9.93438" fill="#ECECEC"/>
<circle cx="184.7" cy="144.28" r="9.93438" fill="#ECECEC"/>
<circle cx="184.7" cy="168.364" r="9.93438" fill="#ECECEC"/>
<circle cx="184.7" cy="192.448" r="9.93438" fill="#ECECEC"/>
<circle cx="231.821" cy="144.28" r="9.93438" fill="#ECECEC"/>
<circle cx="231.821" cy="168.364" r="9.93438" fill="#ECECEC"/>
<circle cx="231.821" cy="192.448" r="9.93438" fill="#ECECEC"/>
<circle cx="276.848" cy="144.28" r="9.93438" fill="#ECECEC"/>
<circle cx="276.848" cy="168.364" r="9.93438" fill="#ECECEC"/>
<circle cx="276.848" cy="192.448" r="9.93438" fill="#ECECEC"/>
<circle cx="323.97" cy="144.28" r="9.93438" fill="#ECECEC"/>
<circle cx="323.97" cy="168.364" r="9.93438" fill="#ECECEC"/>
<circle cx="323.97" cy="192.448" r="9.93438" fill="#ECECEC"/>
<circle cx="39.1531" cy="144.28" r="9.93438" fill="#ECECEC"/>
<circle cx="39.1531" cy="168.364" r="9.93438" fill="#ECECEC"/>
<circle cx="39.1531" cy="192.448" r="9.93438" fill="#ECECEC"/>
<circle cx="39.1531" cy="217.579" r="9.93438" fill="#ECECEC"/>
<path d="M33.1972 100.367V99.7524L35.1076 97.9314C35.5843 97.4846 36.0125 97.0824 36.3924 96.7249C36.7722 96.3599 37.0701 96.0024 37.2861 95.6524C37.5096 95.3023 37.6213 94.9188 37.6213 94.5017C37.6213 94.1293 37.5356 93.8165 37.3643 93.5632C37.193 93.3026 36.9696 93.1089 36.694 92.9823C36.4259 92.8482 36.1466 92.7812 35.8561 92.7812C35.4763 92.7812 35.1635 92.8557 34.9177 93.0046C34.6794 93.1536 34.4932 93.3361 34.3591 93.5521C34.2325 93.7681 34.1431 93.9803 34.091 94.1889C34.0388 94.3974 34.0128 94.565 34.0128 94.6916H33.1749C33.1749 94.5724 33.1935 94.4049 33.2307 94.1889C33.2754 93.9729 33.3536 93.742 33.4654 93.4962C33.5771 93.243 33.7298 93.0009 33.9234 92.77C34.1245 92.5392 34.3814 92.353 34.6943 92.2114C35.0145 92.0625 35.4018 91.988 35.8561 91.988C36.3179 91.988 36.7461 92.0848 37.1409 92.2785C37.5431 92.4721 37.8671 92.7551 38.1128 93.1275C38.3586 93.4925 38.4815 93.9431 38.4815 94.4793C38.4815 94.9783 38.3586 95.4364 38.1128 95.8535C37.8671 96.2631 37.5393 96.6616 37.1297 97.0488C36.7275 97.4361 36.2918 97.8532 35.8226 98.3001L34.4708 99.5737H38.6714V100.367H33.1972ZM43.0386 100.479C42.5768 100.479 42.1821 100.419 41.8543 100.3C41.5341 100.173 41.2697 100.017 41.0611 99.8306C40.8526 99.637 40.6888 99.4322 40.5696 99.2162C40.4579 99.0002 40.3722 98.7954 40.3126 98.6017C40.2605 98.4081 40.227 98.2517 40.2121 98.1325C40.2046 98.0134 40.2009 97.9538 40.2009 97.9538H41.0165C41.0165 97.9538 41.0239 98.0134 41.0388 98.1325C41.0537 98.2517 41.0947 98.4006 41.1617 98.5794C41.2287 98.7507 41.333 98.9257 41.4745 99.1045C41.616 99.2832 41.8134 99.4322 42.0666 99.5513C42.3198 99.6705 42.6438 99.7301 43.0386 99.7301C43.4929 99.7301 43.869 99.6295 44.1669 99.4284C44.4723 99.2199 44.6994 98.9555 44.8484 98.6352C45.0048 98.3075 45.083 97.9724 45.083 97.6298C45.083 97.2723 45.0048 96.9334 44.8484 96.6131C44.6994 96.2929 44.476 96.0322 44.1781 95.8311C43.8802 95.6226 43.5078 95.5183 43.0609 95.5183C42.7109 95.5183 42.4167 95.5742 42.1783 95.6859C41.9474 95.7976 41.765 95.9279 41.6309 96.0769C41.4969 96.2184 41.4 96.3487 41.3404 96.4679C41.2883 96.5796 41.2622 96.6355 41.2622 96.6355H40.4132L41.0835 92.0997H45.3735V92.8706H41.7315L41.3293 95.5518H41.3628C41.4224 95.4922 41.5192 95.3991 41.6533 95.2725C41.7948 95.1459 41.9884 95.0305 42.2342 94.9262C42.48 94.8219 42.7928 94.7698 43.1726 94.7698C43.7759 94.7698 44.2786 94.9076 44.6808 95.1832C45.0905 95.4587 45.3995 95.8162 45.6081 96.2557C45.8166 96.6876 45.9209 97.1419 45.9209 97.6186C45.9209 97.9761 45.8613 98.3262 45.7421 98.6688C45.623 99.0039 45.4442 99.3093 45.2059 99.5849C44.9676 99.853 44.6659 100.069 44.301 100.233C43.9435 100.397 43.5227 100.479 43.0386 100.479Z" fill="#D9D9D9"/>
<path d="M83.459 100.367V99.7524L85.3694 97.9314C85.846 97.4846 86.2743 97.0824 86.6541 96.7249C87.034 96.3599 87.3319 96.0024 87.5479 95.6524C87.7713 95.3023 87.883 94.9188 87.883 94.5017C87.883 94.1293 87.7974 93.8165 87.6261 93.5632C87.4548 93.3026 87.2313 93.1089 86.9558 92.9823C86.6876 92.8482 86.4083 92.7812 86.1179 92.7812C85.738 92.7812 85.4252 92.8557 85.1794 93.0046C84.9411 93.1536 84.7549 93.3361 84.6209 93.5521C84.4942 93.7681 84.4049 93.9803 84.3527 94.1889C84.3006 94.3974 84.2745 94.565 84.2745 94.6916H83.4366C83.4366 94.5724 83.4553 94.4049 83.4925 94.1889C83.5372 93.9729 83.6154 93.742 83.7271 93.4962C83.8388 93.243 83.9915 93.0009 84.1851 92.77C84.3862 92.5392 84.6432 92.353 84.956 92.2114C85.2763 92.0625 85.6636 91.988 86.1179 91.988C86.5796 91.988 87.0079 92.0848 87.4026 92.2785C87.8048 92.4721 88.1288 92.7551 88.3746 93.1275C88.6204 93.4925 88.7433 93.9431 88.7433 94.4793C88.7433 94.9783 88.6204 95.4364 88.3746 95.8535C88.1288 96.2631 87.8011 96.6616 87.3915 97.0488C86.9893 97.4361 86.5536 97.8532 86.0844 98.3001L84.7326 99.5737H88.9332V100.367H83.459ZM93.5014 100.479C92.9875 100.479 92.5406 100.382 92.1608 100.188C91.7884 99.987 91.4793 99.7152 91.2335 99.3726C90.9877 99.03 90.8015 98.6352 90.6749 98.1884C90.5558 97.7341 90.4962 97.2574 90.4962 96.7584C90.4962 96.3562 90.5371 95.9354 90.6191 95.496C90.7084 95.0491 90.8462 94.6171 91.0324 94.2C91.2261 93.783 91.4756 93.4106 91.7809 93.0829C92.0863 92.7477 92.4587 92.4833 92.8981 92.2897C93.345 92.0886 93.8626 91.988 94.451 91.988C94.8011 91.988 95.1064 92.0178 95.3671 92.0774C95.6278 92.1295 95.7581 92.1556 95.7581 92.1556V92.96C95.7581 92.96 95.6911 92.9451 95.557 92.9153C95.4304 92.8855 95.2666 92.8557 95.0655 92.8259C94.8644 92.7961 94.6558 92.7812 94.4398 92.7812C93.9706 92.7812 93.5647 92.8594 93.2221 93.0158C92.8795 93.1648 92.5928 93.3659 92.3619 93.6191C92.131 93.8723 91.9448 94.1516 91.8033 94.457C91.6618 94.7549 91.5575 95.0565 91.4905 95.3619C91.4309 95.6673 91.3974 95.9503 91.3899 96.211C91.4272 96.129 91.4942 96.0173 91.591 95.8758C91.6953 95.7343 91.8294 95.5928 91.9932 95.4513C92.1645 95.3023 92.3805 95.1794 92.6412 95.0826C92.9018 94.9858 93.2109 94.9374 93.5684 94.9374C94.1643 94.9374 94.6633 95.0714 95.0655 95.3396C95.4676 95.6077 95.7656 95.954 95.9592 96.3785C96.1603 96.7956 96.2608 97.2313 96.2608 97.6856C96.2608 98.1549 96.1603 98.6017 95.9592 99.0263C95.7581 99.4508 95.4528 99.8008 95.0431 100.076C94.6335 100.345 94.1196 100.479 93.5014 100.479ZM93.4902 99.7301C93.8552 99.7301 94.1829 99.6482 94.4734 99.4843C94.7638 99.313 94.9947 99.0747 95.166 98.7693C95.3373 98.4639 95.423 98.1102 95.423 97.708C95.423 97.3058 95.3373 96.952 95.166 96.6467C94.9947 96.3413 94.7638 96.1067 94.4734 95.9428C94.1829 95.7715 93.8552 95.6859 93.4902 95.6859C93.1253 95.6859 92.7939 95.7715 92.4959 95.9428C92.2055 96.1067 91.9746 96.3413 91.8033 96.6467C91.632 96.952 91.5463 97.3058 91.5463 97.708C91.5463 98.1176 91.632 98.4751 91.8033 98.7805C91.9746 99.0784 92.2055 99.313 92.4959 99.4843C92.7939 99.6482 93.1253 99.7301 93.4902 99.7301Z" fill="#D9D9D9"/>
<path d="M131.627 100.367V99.7524L133.537 97.9314C134.014 97.4846 134.442 97.0824 134.822 96.7249C135.202 96.3599 135.5 96.0024 135.716 95.6524C135.939 95.3023 136.051 94.9188 136.051 94.5017C136.051 94.1293 135.965 93.8165 135.794 93.5632C135.623 93.3026 135.399 93.1089 135.124 92.9823C134.856 92.8482 134.576 92.7812 134.286 92.7812C133.906 92.7812 133.593 92.8557 133.347 93.0046C133.109 93.1536 132.923 93.3361 132.789 93.5521C132.662 93.7681 132.573 93.9803 132.521 94.1889C132.469 94.3974 132.442 94.565 132.442 94.6916H131.605C131.605 94.5724 131.623 94.4049 131.66 94.1889C131.705 93.9729 131.783 93.742 131.895 93.4962C132.007 93.243 132.159 93.0009 132.353 92.77C132.554 92.5392 132.811 92.353 133.124 92.2114C133.444 92.0625 133.832 91.988 134.286 91.988C134.748 91.988 135.176 92.0848 135.571 92.2785C135.973 92.4721 136.297 92.7551 136.543 93.1275C136.788 93.4925 136.911 93.9431 136.911 94.4793C136.911 94.9783 136.788 95.4364 136.543 95.8535C136.297 96.2631 135.969 96.6616 135.559 97.0488C135.157 97.4361 134.722 97.8532 134.252 98.3001L132.901 99.5737H137.101V100.367H131.627ZM139.838 100.367C139.868 99.6519 139.965 98.9667 140.128 98.3113C140.3 97.6484 140.508 97.0302 140.754 96.4567C141.007 95.8833 141.268 95.3619 141.536 94.8927C141.812 94.4235 142.069 94.0176 142.307 93.675C142.553 93.3324 142.75 93.068 142.899 92.8818H138.363V92.0997H143.905V92.7589C143.905 92.7589 143.83 92.8482 143.681 93.027C143.532 93.1983 143.338 93.4478 143.1 93.7755C142.869 94.1032 142.62 94.4979 142.352 94.9597C142.084 95.414 141.827 95.9242 141.581 96.4903C141.342 97.0563 141.138 97.667 140.966 98.3224C140.802 98.9704 140.709 99.6519 140.687 100.367H139.838Z" fill="#D9D9D9"/>
<path d="M178.748 100.367V99.7524L180.658 97.9314C181.135 97.4846 181.563 97.0824 181.943 96.7249C182.323 96.3599 182.621 96.0024 182.837 95.6524C183.06 95.3023 183.172 94.9188 183.172 94.5017C183.172 94.1293 183.086 93.8165 182.915 93.5632C182.744 93.3026 182.52 93.1089 182.245 92.9823C181.977 92.8482 181.697 92.7812 181.407 92.7812C181.027 92.7812 180.714 92.8557 180.469 93.0046C180.23 93.1536 180.044 93.3361 179.91 93.5521C179.783 93.7681 179.694 93.9803 179.642 94.1889C179.59 94.3974 179.564 94.565 179.564 94.6916H178.726C178.726 94.5724 178.744 94.4049 178.782 94.1889C178.826 93.9729 178.904 93.742 179.016 93.4962C179.128 93.243 179.281 93.0009 179.474 92.77C179.675 92.5392 179.932 92.353 180.245 92.2114C180.565 92.0625 180.953 91.988 181.407 91.988C181.869 91.988 182.297 92.0848 182.692 92.2785C183.094 92.4721 183.418 92.7551 183.664 93.1275C183.909 93.4925 184.032 93.9431 184.032 94.4793C184.032 94.9783 183.909 95.4364 183.664 95.8535C183.418 96.2631 183.09 96.6616 182.681 97.0488C182.278 97.4361 181.843 97.8532 181.373 98.3001L180.022 99.5737H184.222V100.367H178.748ZM188.455 100.479C187.874 100.479 187.375 100.371 186.958 100.155C186.541 99.9312 186.221 99.6407 185.998 99.2832C185.774 98.9183 185.662 98.5161 185.662 98.0767C185.662 97.7341 185.722 97.4361 185.841 97.1829C185.96 96.9297 186.102 96.7211 186.266 96.5573C186.437 96.386 186.601 96.2519 186.757 96.1551C186.921 96.0583 187.048 95.995 187.137 95.9652V95.9205C187.063 95.8907 186.958 95.8348 186.824 95.7529C186.69 95.6635 186.552 95.5481 186.411 95.4066C186.269 95.2651 186.15 95.0901 186.053 94.8815C185.957 94.673 185.908 94.4309 185.908 94.1553C185.908 93.7606 186.009 93.3994 186.21 93.0717C186.411 92.744 186.701 92.4833 187.081 92.2897C187.468 92.0886 187.927 91.988 188.455 91.988C188.992 91.988 189.45 92.0886 189.829 92.2897C190.209 92.4833 190.5 92.744 190.701 93.0717C190.909 93.3994 191.014 93.7606 191.014 94.1553C191.014 94.4309 190.965 94.673 190.868 94.8815C190.772 95.0901 190.652 95.2651 190.511 95.4066C190.369 95.5481 190.232 95.6635 190.098 95.7529C189.964 95.8348 189.859 95.8907 189.785 95.9205V95.9652C189.867 95.995 189.986 96.0583 190.142 96.1551C190.306 96.2519 190.474 96.386 190.645 96.5573C190.816 96.7211 190.962 96.9297 191.081 97.1829C191.2 97.4361 191.259 97.7341 191.259 98.0767C191.259 98.5161 191.144 98.9183 190.913 99.2832C190.69 99.6407 190.369 99.9312 189.952 100.155C189.535 100.371 189.036 100.479 188.455 100.479ZM188.455 95.6189C188.835 95.6189 189.152 95.5481 189.405 95.4066C189.666 95.2576 189.859 95.0714 189.986 94.848C190.12 94.6246 190.187 94.3974 190.187 94.1665C190.187 93.9133 190.12 93.675 189.986 93.4515C189.859 93.2281 189.666 93.0456 189.405 92.9041C189.152 92.7626 188.835 92.6918 188.455 92.6918C188.075 92.6918 187.759 92.7626 187.506 92.9041C187.252 93.0456 187.059 93.2281 186.925 93.4515C186.798 93.675 186.735 93.9133 186.735 94.1665C186.735 94.3974 186.798 94.6246 186.925 94.848C187.059 95.0714 187.252 95.2576 187.506 95.4066C187.759 95.5481 188.075 95.6189 188.455 95.6189ZM188.455 99.7636C188.895 99.7636 189.26 99.678 189.55 99.5067C189.841 99.3354 190.06 99.1156 190.209 98.8475C190.358 98.5794 190.433 98.3001 190.433 98.0096C190.433 97.7266 190.358 97.4585 190.209 97.2053C190.068 96.9446 189.848 96.7323 189.55 96.5685C189.26 96.3972 188.895 96.3115 188.455 96.3115C188.016 96.3115 187.651 96.3972 187.36 96.5685C187.07 96.7323 186.85 96.9446 186.701 97.2053C186.56 97.4585 186.489 97.7266 186.489 98.0096C186.489 98.3001 186.564 98.5794 186.713 98.8475C186.861 99.1156 187.081 99.3354 187.372 99.5067C187.662 99.678 188.023 99.7636 188.455 99.7636Z" fill="#D9D9D9"/>
<path d="M224.818 100.367V99.7524L226.729 97.9314C227.205 97.4846 227.634 97.0824 228.014 96.7249C228.393 96.3599 228.691 96.0024 228.907 95.6524C229.131 95.3023 229.242 94.9188 229.242 94.5017C229.242 94.1293 229.157 93.8165 228.985 93.5632C228.814 93.3026 228.591 93.1089 228.315 92.9823C228.047 92.8482 227.768 92.7812 227.477 92.7812C227.097 92.7812 226.785 92.8557 226.539 93.0046C226.301 93.1536 226.114 93.3361 225.98 93.5521C225.854 93.7681 225.764 93.9803 225.712 94.1889C225.66 94.3974 225.634 94.565 225.634 94.6916H224.796C224.796 94.5724 224.815 94.4049 224.852 94.1889C224.897 93.9729 224.975 93.742 225.087 93.4962C225.198 93.243 225.351 93.0009 225.545 92.77C225.746 92.5392 226.003 92.353 226.315 92.2114C226.636 92.0625 227.023 91.988 227.477 91.988C227.939 91.988 228.367 92.0848 228.762 92.2785C229.164 92.4721 229.488 92.7551 229.734 93.1275C229.98 93.4925 230.103 93.9431 230.103 94.4793C230.103 94.9783 229.98 95.4364 229.734 95.8535C229.488 96.2631 229.161 96.6616 228.751 97.0488C228.349 97.4361 227.913 97.8532 227.444 98.3001L226.092 99.5737H230.293V100.367H224.818ZM234.615 91.988C235.129 91.988 235.576 92.0886 235.956 92.2897C236.336 92.4833 236.648 92.7514 236.894 93.094C237.14 93.4366 237.322 93.8351 237.442 94.2894C237.561 94.7363 237.62 95.2092 237.62 95.7082C237.62 96.1104 237.576 96.5349 237.486 96.9818C237.404 97.4212 237.27 97.8495 237.084 98.2666C236.898 98.6837 236.652 99.0598 236.347 99.3949C236.041 99.7226 235.665 99.987 235.218 100.188C234.779 100.382 234.265 100.479 233.677 100.479C233.319 100.479 233.01 100.449 232.749 100.389C232.496 100.337 232.37 100.311 232.37 100.311V99.5067C232.37 99.5067 232.433 99.5215 232.559 99.5513C232.693 99.5811 232.861 99.6109 233.062 99.6407C233.263 99.6705 233.472 99.6854 233.688 99.6854C234.157 99.6854 234.559 99.6109 234.894 99.462C235.237 99.3056 235.524 99.1007 235.755 98.8475C235.993 98.5943 236.179 98.3187 236.313 98.0208C236.455 97.7154 236.559 97.4101 236.626 97.1047C236.693 96.7993 236.73 96.5163 236.738 96.2557C236.693 96.3376 236.622 96.4493 236.525 96.5908C236.429 96.7323 236.295 96.8775 236.123 97.0265C235.952 97.168 235.736 97.2872 235.475 97.384C235.222 97.4808 234.913 97.5292 234.548 97.5292C233.952 97.5292 233.453 97.3952 233.051 97.1271C232.656 96.8589 232.358 96.5163 232.157 96.0992C231.956 95.6747 231.856 95.2353 231.856 94.781C231.856 94.3118 231.956 93.8649 232.157 93.4404C232.366 93.0158 232.675 92.6695 233.085 92.4014C233.494 92.1258 234.004 91.988 234.615 91.988ZM234.637 92.7365C234.272 92.7365 233.941 92.8222 233.643 92.9935C233.353 93.1573 233.122 93.3919 232.95 93.6973C232.779 93.9952 232.693 94.349 232.693 94.7586C232.693 95.1608 232.779 95.5146 232.95 95.8199C233.122 96.1253 233.353 96.3636 233.643 96.5349C233.941 96.6988 234.272 96.7807 234.637 96.7807C235.002 96.7807 235.33 96.6988 235.621 96.5349C235.911 96.3636 236.142 96.1253 236.313 95.8199C236.484 95.5146 236.57 95.1608 236.57 94.7586C236.57 94.349 236.484 93.9952 236.313 93.6973C236.142 93.3919 235.911 93.1573 235.621 92.9935C235.33 92.8222 235.002 92.7365 234.637 92.7365Z" fill="#D9D9D9"/>
<path d="M277.046 92.0997V100.367H276.197V93.6973L274.745 93.7085V93.2057L275.024 93.1387C275.389 93.0419 275.68 92.9227 275.896 92.7812C276.112 92.6397 276.309 92.4498 276.488 92.2114L276.566 92.0997H277.046Z" fill="black"/>
<path d="M321.154 100.367V99.7524L323.065 97.9314C323.541 97.4846 323.97 97.0824 324.349 96.7249C324.729 96.3599 325.027 96.0024 325.243 95.6524C325.467 95.3023 325.578 94.9188 325.578 94.5017C325.578 94.1293 325.493 93.8165 325.321 93.5632C325.15 93.3026 324.927 93.1089 324.651 92.9823C324.383 92.8482 324.104 92.7812 323.813 92.7812C323.433 92.7812 323.121 92.8557 322.875 93.0046C322.636 93.1536 322.45 93.3361 322.316 93.5521C322.19 93.7681 322.1 93.9803 322.048 94.1889C321.996 94.3974 321.97 94.565 321.97 94.6916H321.132C321.132 94.5724 321.151 94.4049 321.188 94.1889C321.233 93.9729 321.311 93.742 321.422 93.4962C321.534 93.243 321.687 93.0009 321.881 92.77C322.082 92.5392 322.339 92.353 322.651 92.2114C322.972 92.0625 323.359 91.988 323.813 91.988C324.275 91.988 324.703 92.0848 325.098 92.2785C325.5 92.4721 325.824 92.7551 326.07 93.1275C326.316 93.4925 326.439 93.9431 326.439 94.4793C326.439 94.9783 326.316 95.4364 326.07 95.8535C325.824 96.2631 325.496 96.6616 325.087 97.0488C324.685 97.4361 324.249 97.8532 323.78 98.3001L322.428 99.5737H326.629V100.367H321.154Z" fill="black"/>
<path d="M39.0861 124.562C38.6095 124.562 38.1589 124.469 37.7343 124.283C37.3098 124.097 36.9672 123.814 36.7065 123.434C36.4459 123.054 36.3155 122.578 36.3155 122.004H37.1422C37.1422 122.414 37.2353 122.753 37.4215 123.021C37.6077 123.289 37.8498 123.49 38.1477 123.624C38.4456 123.751 38.7584 123.814 39.0861 123.814C39.4287 123.814 39.7453 123.747 40.0357 123.613C40.3262 123.479 40.5608 123.285 40.7396 123.032C40.9183 122.771 41.0077 122.455 41.0077 122.082C41.0077 121.598 40.8513 121.218 40.5385 120.943C40.2257 120.66 39.8048 120.518 39.276 120.518H38.17V119.826H39.276C39.7155 119.826 40.0879 119.699 40.3932 119.446C40.706 119.192 40.8624 118.839 40.8624 118.384C40.8624 118.057 40.7768 117.777 40.6055 117.546C40.4416 117.308 40.2257 117.126 39.9575 116.999C39.6894 116.872 39.3989 116.809 39.0861 116.809C38.7882 116.809 38.5015 116.876 38.2259 117.01C37.9503 117.137 37.7232 117.338 37.5444 117.613C37.3657 117.882 37.2763 118.22 37.2763 118.63H36.4719C36.4719 118.057 36.5985 117.58 36.8518 117.2C37.1124 116.82 37.4439 116.537 37.8461 116.351C38.2482 116.165 38.669 116.072 39.1085 116.072C39.5479 116.072 39.965 116.161 40.3597 116.34C40.7545 116.519 41.0747 116.776 41.3205 117.111C41.5737 117.446 41.7003 117.848 41.7003 118.317C41.7003 118.749 41.5923 119.122 41.3763 119.435C41.1604 119.747 40.8662 119.978 40.4938 120.127V120.172C40.9034 120.313 41.2348 120.552 41.4881 120.887C41.7413 121.222 41.8679 121.632 41.8679 122.116C41.8679 122.622 41.7376 123.062 41.4769 123.434C41.2237 123.799 40.8848 124.078 40.4603 124.272C40.0357 124.466 39.5777 124.562 39.0861 124.562Z" fill="black"/>
<path d="M90.3757 124.451V122.451H86.3091V121.658L90.2081 116.184H91.2359V121.702H92.6771V122.462L91.2359 122.451V124.451H90.3757ZM87.2141 121.702H90.3757V117.245L87.2141 121.702Z" fill="black"/>
<path d="M136.692 124.562C136.134 124.562 135.657 124.473 135.262 124.294C134.868 124.115 134.544 123.888 134.29 123.613C134.045 123.337 133.862 123.05 133.743 122.753C133.631 122.447 133.575 122.168 133.575 121.915H135.173C135.173 121.915 135.184 121.978 135.207 122.105C135.236 122.231 135.3 122.376 135.396 122.54C135.493 122.704 135.642 122.849 135.843 122.976C136.044 123.103 136.316 123.166 136.659 123.166C137.001 123.166 137.285 123.095 137.508 122.954C137.731 122.805 137.899 122.618 138.011 122.395C138.122 122.172 138.178 121.937 138.178 121.691C138.178 121.438 138.122 121.2 138.011 120.976C137.899 120.745 137.731 120.559 137.508 120.418C137.292 120.269 137.02 120.194 136.692 120.194C136.439 120.194 136.231 120.235 136.067 120.317C135.903 120.392 135.773 120.481 135.676 120.585C135.579 120.682 135.508 120.771 135.464 120.853C135.426 120.928 135.408 120.965 135.408 120.965H133.71L134.436 116.184H139.307V117.681H135.609L135.318 119.569H135.363C135.4 119.531 135.475 119.457 135.586 119.345C135.706 119.233 135.884 119.129 136.123 119.032C136.361 118.928 136.678 118.876 137.072 118.876C137.668 118.876 138.175 119.01 138.592 119.278C139.009 119.546 139.322 119.893 139.53 120.317C139.746 120.734 139.854 121.177 139.854 121.647C139.854 122.011 139.787 122.365 139.653 122.708C139.526 123.05 139.333 123.363 139.072 123.646C138.811 123.922 138.484 124.145 138.089 124.317C137.694 124.48 137.229 124.562 136.692 124.562Z" fill="white"/>
<path d="M230.228 124.451C230.257 123.736 230.354 123.05 230.518 122.395C230.689 121.732 230.898 121.114 231.144 120.541C231.397 119.967 231.657 119.446 231.926 118.976C232.201 118.507 232.458 118.101 232.696 117.759C232.942 117.416 233.14 117.152 233.289 116.966H228.753V116.184H234.294V116.843C234.294 116.843 234.22 116.932 234.071 117.111C233.922 117.282 233.728 117.532 233.49 117.859C233.259 118.187 233.009 118.582 232.741 119.043C232.473 119.498 232.216 120.008 231.97 120.574C231.732 121.14 231.527 121.751 231.356 122.406C231.192 123.054 231.099 123.736 231.077 124.451H230.228Z" fill="black"/>
<path d="M276.714 124.562C276.134 124.562 275.635 124.454 275.217 124.238C274.8 124.015 274.48 123.724 274.257 123.367C274.033 123.002 273.922 122.6 273.922 122.16C273.922 121.818 273.981 121.52 274.1 121.267C274.219 121.013 274.361 120.805 274.525 120.641C274.696 120.47 274.86 120.336 275.016 120.239C275.18 120.142 275.307 120.079 275.396 120.049V120.004C275.322 119.974 275.217 119.919 275.083 119.837C274.949 119.747 274.812 119.632 274.67 119.49C274.529 119.349 274.409 119.174 274.313 118.965C274.216 118.757 274.167 118.515 274.167 118.239C274.167 117.844 274.268 117.483 274.469 117.155C274.67 116.828 274.961 116.567 275.34 116.373C275.728 116.172 276.186 116.072 276.714 116.072C277.251 116.072 277.709 116.172 278.089 116.373C278.468 116.567 278.759 116.828 278.96 117.155C279.169 117.483 279.273 117.844 279.273 118.239C279.273 118.515 279.224 118.757 279.128 118.965C279.031 119.174 278.912 119.349 278.77 119.49C278.629 119.632 278.491 119.747 278.357 119.837C278.223 119.919 278.118 119.974 278.044 120.004V120.049C278.126 120.079 278.245 120.142 278.401 120.239C278.565 120.336 278.733 120.47 278.904 120.641C279.075 120.805 279.221 121.013 279.34 121.267C279.459 121.52 279.519 121.818 279.519 122.16C279.519 122.6 279.403 123.002 279.172 123.367C278.949 123.724 278.629 124.015 278.212 124.238C277.794 124.454 277.295 124.562 276.714 124.562ZM276.714 119.703C277.094 119.703 277.411 119.632 277.664 119.49C277.925 119.341 278.118 119.155 278.245 118.932C278.379 118.708 278.446 118.481 278.446 118.25C278.446 117.997 278.379 117.759 278.245 117.535C278.118 117.312 277.925 117.129 277.664 116.988C277.411 116.846 277.094 116.776 276.714 116.776C276.335 116.776 276.018 116.846 275.765 116.988C275.512 117.129 275.318 117.312 275.184 117.535C275.057 117.759 274.994 117.997 274.994 118.25C274.994 118.481 275.057 118.708 275.184 118.932C275.318 119.155 275.512 119.341 275.765 119.49C276.018 119.632 276.335 119.703 276.714 119.703ZM276.714 123.847C277.154 123.847 277.519 123.762 277.809 123.59C278.1 123.419 278.32 123.199 278.468 122.931C278.617 122.663 278.692 122.384 278.692 122.093C278.692 121.81 278.617 121.542 278.468 121.289C278.327 121.028 278.107 120.816 277.809 120.652C277.519 120.481 277.154 120.395 276.714 120.395C276.275 120.395 275.91 120.481 275.62 120.652C275.329 120.816 275.109 121.028 274.961 121.289C274.819 121.542 274.748 121.81 274.748 122.093C274.748 122.384 274.823 122.663 274.972 122.931C275.121 123.199 275.34 123.419 275.631 123.59C275.921 123.762 276.283 123.847 276.714 123.847Z" fill="black"/>
<path d="M184.905 124.562C184.391 124.562 183.944 124.466 183.564 124.272C183.192 124.071 182.883 123.799 182.637 123.456C182.391 123.114 182.205 122.719 182.079 122.272C181.959 121.818 181.9 121.341 181.9 120.842C181.9 120.44 181.941 120.019 182.023 119.58C182.112 119.133 182.25 118.701 182.436 118.284C182.63 117.867 182.879 117.494 183.185 117.167C183.49 116.831 183.862 116.567 184.302 116.373C184.749 116.172 185.266 116.072 185.855 116.072C186.205 116.072 186.51 116.102 186.771 116.161C187.031 116.213 187.162 116.239 187.162 116.239V117.044C187.162 117.044 187.095 117.029 186.961 116.999C186.834 116.969 186.67 116.939 186.469 116.91C186.268 116.88 186.059 116.865 185.843 116.865C185.374 116.865 184.968 116.943 184.626 117.1C184.283 117.249 183.996 117.45 183.766 117.703C183.535 117.956 183.348 118.235 183.207 118.541C183.065 118.839 182.961 119.14 182.894 119.446C182.835 119.751 182.801 120.034 182.794 120.295C182.831 120.213 182.898 120.101 182.995 119.96C183.099 119.818 183.233 119.677 183.397 119.535C183.568 119.386 183.784 119.263 184.045 119.166C184.306 119.07 184.615 119.021 184.972 119.021C185.568 119.021 186.067 119.155 186.469 119.423C186.871 119.691 187.169 120.038 187.363 120.462C187.564 120.879 187.665 121.315 187.665 121.769C187.665 122.239 187.564 122.686 187.363 123.11C187.162 123.535 186.856 123.885 186.447 124.16C186.037 124.428 185.523 124.562 184.905 124.562ZM184.894 123.814C185.259 123.814 185.587 123.732 185.877 123.568C186.167 123.397 186.398 123.158 186.57 122.853C186.741 122.548 186.827 122.194 186.827 121.792C186.827 121.39 186.741 121.036 186.57 120.73C186.398 120.425 186.167 120.19 185.877 120.027C185.587 119.855 185.259 119.77 184.894 119.77C184.529 119.77 184.198 119.855 183.9 120.027C183.609 120.19 183.378 120.425 183.207 120.73C183.036 121.036 182.95 121.39 182.95 121.792C182.95 122.201 183.036 122.559 183.207 122.864C183.378 123.162 183.609 123.397 183.9 123.568C184.198 123.732 184.529 123.814 184.894 123.814Z" fill="black"/>
<path d="M323.925 116.072C324.439 116.072 324.886 116.172 325.266 116.373C325.645 116.567 325.958 116.835 326.204 117.178C326.45 117.52 326.632 117.919 326.751 118.373C326.871 118.82 326.93 119.293 326.93 119.792C326.93 120.194 326.886 120.619 326.796 121.066C326.714 121.505 326.58 121.933 326.394 122.35C326.208 122.767 325.962 123.144 325.657 123.479C325.351 123.806 324.975 124.071 324.528 124.272C324.089 124.466 323.575 124.562 322.987 124.562C322.629 124.562 322.32 124.533 322.059 124.473C321.806 124.421 321.679 124.395 321.679 124.395V123.59C321.679 123.59 321.743 123.605 321.869 123.635C322.003 123.665 322.171 123.695 322.372 123.724C322.573 123.754 322.782 123.769 322.998 123.769C323.467 123.769 323.869 123.695 324.204 123.546C324.547 123.389 324.834 123.185 325.064 122.931C325.303 122.678 325.489 122.402 325.623 122.105C325.765 121.799 325.869 121.494 325.936 121.188C326.003 120.883 326.04 120.6 326.048 120.339C326.003 120.421 325.932 120.533 325.835 120.675C325.739 120.816 325.604 120.961 325.433 121.11C325.262 121.252 325.046 121.371 324.785 121.468C324.532 121.565 324.223 121.613 323.858 121.613C323.262 121.613 322.763 121.479 322.361 121.211C321.966 120.943 321.668 120.6 321.467 120.183C321.266 119.758 321.166 119.319 321.166 118.865C321.166 118.396 321.266 117.949 321.467 117.524C321.676 117.1 321.985 116.753 322.394 116.485C322.804 116.21 323.314 116.072 323.925 116.072ZM323.947 116.82C323.582 116.82 323.251 116.906 322.953 117.077C322.663 117.241 322.432 117.476 322.26 117.781C322.089 118.079 322.003 118.433 322.003 118.842C322.003 119.245 322.089 119.598 322.26 119.904C322.432 120.209 322.663 120.447 322.953 120.619C323.251 120.783 323.582 120.864 323.947 120.864C324.312 120.864 324.64 120.783 324.93 120.619C325.221 120.447 325.452 120.209 325.623 119.904C325.794 119.598 325.88 119.245 325.88 118.842C325.88 118.433 325.794 118.079 325.623 117.781C325.452 117.476 325.221 117.241 324.93 117.077C324.64 116.906 324.312 116.82 323.947 116.82Z" fill="black"/>
<path d="M36.2103 140.267V148.534H35.3613V141.865L33.909 141.876V141.373L34.1882 141.306C34.5532 141.209 34.8437 141.09 35.0596 140.949C35.2756 140.807 35.473 140.617 35.6518 140.379L35.73 140.267H36.2103ZM41.14 148.635C40.641 148.635 40.2016 148.523 39.8217 148.3C39.4493 148.076 39.1328 147.767 38.8721 147.373C38.6189 146.978 38.429 146.527 38.3024 146.021C38.1757 145.507 38.1124 144.963 38.1124 144.39C38.1124 143.824 38.1757 143.287 38.3024 142.781C38.429 142.267 38.6189 141.813 38.8721 141.418C39.1328 141.023 39.4493 140.714 39.8217 140.491C40.2016 140.26 40.641 140.144 41.14 140.144C41.639 140.144 42.0747 140.26 42.4471 140.491C42.8269 140.714 43.1435 141.023 43.3967 141.418C43.6574 141.813 43.851 142.267 43.9776 142.781C44.1043 143.287 44.1676 143.824 44.1676 144.39C44.1676 144.963 44.1043 145.507 43.9776 146.021C43.851 146.527 43.6574 146.978 43.3967 147.373C43.1435 147.767 42.8269 148.076 42.4471 148.3C42.0747 148.523 41.639 148.635 41.14 148.635ZM41.14 147.842C41.7582 147.842 42.2684 147.551 42.6705 146.97C43.0802 146.382 43.285 145.522 43.285 144.39C43.285 143.272 43.0802 142.423 42.6705 141.842C42.2684 141.254 41.7582 140.96 41.14 140.96C40.5218 140.96 40.0079 141.254 39.5983 141.842C39.1961 142.423 38.995 143.272 38.995 144.39C38.995 145.514 39.1961 146.371 39.5983 146.959C40.0005 147.548 40.5144 147.842 41.14 147.842Z" fill="black"/>
<path d="M88.5658 140.267V148.534H87.7168V141.865L86.2645 141.876V141.373L86.5437 141.306C86.9087 141.209 87.1992 141.09 87.4151 140.949C87.6311 140.807 87.8285 140.617 88.0073 140.379L88.0855 140.267H88.5658ZM92.6353 140.267V148.534H91.7862V141.865L90.3339 141.876V141.373L90.6132 141.306C90.9781 141.209 91.2686 141.09 91.4846 140.949C91.7006 140.807 91.8979 140.617 92.0767 140.379L92.1549 140.267H92.6353Z" fill="black"/>
<path d="M227.832 140.267V148.534H226.982V141.865L225.53 141.876V141.373L225.809 141.306C226.174 141.209 226.465 141.09 226.681 140.949C226.897 140.807 227.094 140.617 227.273 140.379L227.351 140.267H227.832ZM233.711 148.534V146.535H229.644V145.741L233.543 140.267H234.571V145.786H236.012V146.546L234.571 146.535V148.534H233.711ZM230.549 145.786H233.711V141.329L230.549 145.786Z" fill="black"/>
<path d="M273.906 140.267V148.534H273.057V141.865L271.604 141.876V141.373L271.884 141.306C272.249 141.209 272.539 141.09 272.755 140.949C272.971 140.807 273.168 140.617 273.347 140.379L273.425 140.267H273.906ZM278.824 148.646C278.362 148.646 277.968 148.587 277.64 148.467C277.32 148.341 277.055 148.184 276.847 147.998C276.638 147.805 276.474 147.6 276.355 147.384C276.244 147.168 276.158 146.963 276.098 146.769C276.046 146.576 276.013 146.419 275.998 146.3C275.99 146.181 275.987 146.121 275.987 146.121H276.802C276.802 146.121 276.81 146.181 276.824 146.3C276.839 146.419 276.88 146.568 276.947 146.747C277.014 146.918 277.119 147.093 277.26 147.272C277.402 147.451 277.599 147.6 277.852 147.719C278.106 147.838 278.429 147.898 278.824 147.898C279.279 147.898 279.655 147.797 279.953 147.596C280.258 147.387 280.485 147.123 280.634 146.803C280.79 146.475 280.869 146.14 280.869 145.797C280.869 145.44 280.79 145.101 280.634 144.781C280.485 144.46 280.262 144.2 279.964 143.999C279.666 143.79 279.293 143.686 278.847 143.686C278.497 143.686 278.202 143.742 277.964 143.853C277.733 143.965 277.551 144.095 277.417 144.244C277.283 144.386 277.186 144.516 277.126 144.635C277.074 144.747 277.048 144.803 277.048 144.803H276.199L276.869 140.267H281.159V141.038H277.517L277.115 143.719H277.148C277.208 143.66 277.305 143.567 277.439 143.44C277.58 143.313 277.774 143.198 278.02 143.094C278.266 142.989 278.578 142.937 278.958 142.937C279.562 142.937 280.064 143.075 280.466 143.351C280.876 143.626 281.185 143.984 281.394 144.423C281.602 144.855 281.707 145.309 281.707 145.786C281.707 146.144 281.647 146.494 281.528 146.836C281.409 147.171 281.23 147.477 280.992 147.752C280.753 148.021 280.452 148.236 280.087 148.4C279.729 148.564 279.308 148.646 278.824 148.646Z" fill="black"/>
<path d="M134.64 140.267V148.534H133.791V141.865L132.339 141.876V141.373L132.618 141.306C132.983 141.209 133.273 141.09 133.489 140.949C133.705 140.807 133.903 140.617 134.081 140.379L134.16 140.267H134.64ZM136.743 148.534V147.92L138.654 146.099C139.13 145.652 139.559 145.25 139.938 144.892C140.318 144.527 140.616 144.17 140.832 143.82C141.056 143.47 141.167 143.086 141.167 142.669C141.167 142.297 141.082 141.984 140.91 141.731C140.739 141.47 140.516 141.276 140.24 141.15C139.972 141.016 139.693 140.949 139.402 140.949C139.022 140.949 138.709 141.023 138.464 141.172C138.225 141.321 138.039 141.504 137.905 141.72C137.779 141.936 137.689 142.148 137.637 142.356C137.585 142.565 137.559 142.733 137.559 142.859H136.721C136.721 142.74 136.74 142.572 136.777 142.356C136.821 142.14 136.9 141.91 137.011 141.664C137.123 141.411 137.276 141.168 137.469 140.938C137.671 140.707 137.927 140.52 138.24 140.379C138.561 140.23 138.948 140.156 139.402 140.156C139.864 140.156 140.292 140.252 140.687 140.446C141.089 140.64 141.413 140.923 141.659 141.295C141.905 141.66 142.028 142.111 142.028 142.647C142.028 143.146 141.905 143.604 141.659 144.021C141.413 144.431 141.085 144.829 140.676 145.216C140.274 145.604 139.838 146.021 139.369 146.468L138.017 147.741H142.217V148.534H136.743Z" fill="black"/>
<path d="M181.761 140.267V148.534H180.912V141.865L179.46 141.876V141.373L179.739 141.306C180.104 141.209 180.394 141.09 180.61 140.949C180.826 140.807 181.024 140.617 181.203 140.379L181.281 140.267H181.761ZM186.613 148.646C186.136 148.646 185.685 148.553 185.261 148.367C184.836 148.181 184.494 147.898 184.233 147.518C183.972 147.138 183.842 146.661 183.842 146.088H184.669C184.669 146.497 184.762 146.836 184.948 147.104C185.134 147.373 185.376 147.574 185.674 147.708C185.972 147.834 186.285 147.898 186.613 147.898C186.955 147.898 187.272 147.831 187.562 147.697C187.853 147.562 188.087 147.369 188.266 147.116C188.445 146.855 188.534 146.538 188.534 146.166C188.534 145.682 188.378 145.302 188.065 145.026C187.752 144.743 187.331 144.602 186.803 144.602H185.697V143.909H186.803C187.242 143.909 187.614 143.783 187.92 143.529C188.233 143.276 188.389 142.922 188.389 142.468C188.389 142.14 188.303 141.861 188.132 141.63C187.968 141.392 187.752 141.209 187.484 141.083C187.216 140.956 186.925 140.893 186.613 140.893C186.315 140.893 186.028 140.96 185.752 141.094C185.477 141.221 185.25 141.422 185.071 141.697C184.892 141.965 184.803 142.304 184.803 142.714H183.998C183.998 142.14 184.125 141.664 184.378 141.284C184.639 140.904 184.97 140.621 185.373 140.435C185.775 140.249 186.196 140.156 186.635 140.156C187.074 140.156 187.491 140.245 187.886 140.424C188.281 140.602 188.601 140.859 188.847 141.195C189.1 141.53 189.227 141.932 189.227 142.401C189.227 142.833 189.119 143.205 188.903 143.518C188.687 143.831 188.393 144.062 188.02 144.211V144.256C188.43 144.397 188.761 144.635 189.015 144.971C189.268 145.306 189.394 145.715 189.394 146.199C189.394 146.706 189.264 147.145 189.003 147.518C188.75 147.883 188.411 148.162 187.987 148.356C187.562 148.549 187.104 148.646 186.613 148.646Z" fill="black"/>
<path d="M321.027 140.267V148.534H320.178V141.865L318.725 141.876V141.373L319.005 141.306C319.37 141.209 319.66 141.09 319.876 140.949C320.092 140.807 320.29 140.617 320.468 140.379L320.546 140.267H321.027ZM326.146 148.646C325.633 148.646 325.186 148.549 324.806 148.356C324.433 148.155 324.124 147.883 323.879 147.54C323.633 147.198 323.447 146.803 323.32 146.356C323.201 145.902 323.141 145.425 323.141 144.926C323.141 144.524 323.182 144.103 323.264 143.663C323.353 143.217 323.491 142.785 323.677 142.368C323.871 141.95 324.121 141.578 324.426 141.25C324.731 140.915 325.104 140.651 325.543 140.457C325.99 140.256 326.508 140.156 327.096 140.156C327.446 140.156 327.751 140.185 328.012 140.245C328.273 140.297 328.403 140.323 328.403 140.323V141.127C328.403 141.127 328.336 141.113 328.202 141.083C328.075 141.053 327.912 141.023 327.71 140.993C327.509 140.964 327.301 140.949 327.085 140.949C326.616 140.949 326.21 141.027 325.867 141.183C325.525 141.332 325.238 141.533 325.007 141.787C324.776 142.04 324.59 142.319 324.448 142.625C324.307 142.922 324.203 143.224 324.135 143.529C324.076 143.835 324.042 144.118 324.035 144.378C324.072 144.297 324.139 144.185 324.236 144.043C324.34 143.902 324.474 143.76 324.638 143.619C324.81 143.47 325.026 143.347 325.286 143.25C325.547 143.153 325.856 143.105 326.213 143.105C326.809 143.105 327.308 143.239 327.71 143.507C328.113 143.775 328.411 144.122 328.604 144.546C328.805 144.963 328.906 145.399 328.906 145.853C328.906 146.322 328.805 146.769 328.604 147.194C328.403 147.618 328.098 147.968 327.688 148.244C327.279 148.512 326.765 148.646 326.146 148.646ZM326.135 147.898C326.5 147.898 326.828 147.816 327.118 147.652C327.409 147.481 327.64 147.242 327.811 146.937C327.982 146.631 328.068 146.278 328.068 145.876C328.068 145.473 327.982 145.12 327.811 144.814C327.64 144.509 327.409 144.274 327.118 144.11C326.828 143.939 326.5 143.853 326.135 143.853C325.77 143.853 325.439 143.939 325.141 144.11C324.85 144.274 324.62 144.509 324.448 144.814C324.277 145.12 324.191 145.473 324.191 145.876C324.191 146.285 324.277 146.643 324.448 146.948C324.62 147.246 324.85 147.481 325.141 147.652C325.439 147.816 325.77 147.898 326.135 147.898Z" fill="black"/>
<path d="M36.2103 164.351V172.618H35.3613V165.949L33.909 165.96V165.457L34.1882 165.39C34.5532 165.293 34.8437 165.174 35.0596 165.033C35.2756 164.891 35.473 164.701 35.6518 164.463L35.73 164.351H36.2103ZM39.5313 172.618C39.5611 171.903 39.6579 171.218 39.8217 170.563C39.993 169.9 40.2016 169.282 40.4473 168.708C40.7006 168.135 40.9613 167.613 41.2294 167.144C41.5049 166.675 41.7619 166.269 42.0002 165.926C42.246 165.584 42.4434 165.319 42.5923 165.133H38.0566V164.351H43.5978V165.01C43.5978 165.01 43.5233 165.1 43.3744 165.278C43.2254 165.45 43.0318 165.699 42.7934 166.027C42.5625 166.355 42.313 166.749 42.0449 167.211C41.7768 167.665 41.5198 168.176 41.2741 168.742C41.0357 169.308 40.8309 169.918 40.6596 170.574C40.4958 171.222 40.4027 171.903 40.3803 172.618H39.5313Z" fill="black"/>
<path d="M226.912 172.618V172.004L228.823 170.183C229.299 169.736 229.727 169.334 230.107 168.976C230.487 168.611 230.785 168.254 231.001 167.904C231.224 167.554 231.336 167.17 231.336 166.753C231.336 166.381 231.251 166.068 231.079 165.815C230.908 165.554 230.685 165.36 230.409 165.234C230.141 165.1 229.862 165.033 229.571 165.033C229.191 165.033 228.878 165.107 228.633 165.256C228.394 165.405 228.208 165.587 228.074 165.803C227.947 166.019 227.858 166.232 227.806 166.44C227.754 166.649 227.728 166.816 227.728 166.943H226.89C226.89 166.824 226.908 166.656 226.946 166.44C226.99 166.224 227.069 165.993 227.18 165.748C227.292 165.494 227.445 165.252 227.638 165.021C227.839 164.79 228.096 164.604 228.409 164.463C228.729 164.314 229.117 164.239 229.571 164.239C230.033 164.239 230.461 164.336 230.856 164.53C231.258 164.723 231.582 165.006 231.828 165.379C232.074 165.744 232.196 166.194 232.196 166.731C232.196 167.23 232.074 167.688 231.828 168.105C231.582 168.514 231.254 168.913 230.845 169.3C230.442 169.687 230.007 170.105 229.538 170.551L228.186 171.825H232.386V172.618H226.912ZM235.904 164.351V172.618H235.055V165.949L233.603 165.96V165.457L233.882 165.39C234.247 165.293 234.538 165.174 234.754 165.033C234.97 164.891 235.167 164.701 235.346 164.463L235.424 164.351H235.904Z" fill="black"/>
<path d="M269.846 172.618V172.004L271.756 170.183C272.233 169.736 272.661 169.334 273.041 168.976C273.421 168.611 273.719 168.254 273.935 167.904C274.158 167.554 274.27 167.17 274.27 166.753C274.27 166.381 274.184 166.068 274.013 165.815C273.842 165.554 273.618 165.36 273.343 165.234C273.074 165.1 272.795 165.033 272.505 165.033C272.125 165.033 271.812 165.107 271.566 165.256C271.328 165.405 271.142 165.587 271.008 165.803C270.881 166.019 270.792 166.232 270.74 166.44C270.687 166.649 270.661 166.816 270.661 166.943H269.823C269.823 166.824 269.842 166.656 269.879 166.44C269.924 166.224 270.002 165.993 270.114 165.748C270.226 165.494 270.378 165.252 270.572 165.021C270.773 164.79 271.03 164.604 271.343 164.463C271.663 164.314 272.05 164.239 272.505 164.239C272.966 164.239 273.395 164.336 273.789 164.53C274.192 164.723 274.516 165.006 274.761 165.379C275.007 165.744 275.13 166.194 275.13 166.731C275.13 167.23 275.007 167.688 274.761 168.105C274.516 168.514 274.188 168.913 273.778 169.3C273.376 169.687 272.94 170.105 272.471 170.551L271.119 171.825H275.32V172.618H269.846ZM276.872 172.618V172.004L278.782 170.183C279.259 169.736 279.687 169.334 280.067 168.976C280.447 168.611 280.745 168.254 280.961 167.904C281.184 167.554 281.296 167.17 281.296 166.753C281.296 166.381 281.21 166.068 281.039 165.815C280.868 165.554 280.644 165.36 280.369 165.234C280.1 165.1 279.821 165.033 279.531 165.033C279.151 165.033 278.838 165.107 278.592 165.256C278.354 165.405 278.168 165.587 278.034 165.803C277.907 166.019 277.818 166.232 277.766 166.44C277.713 166.649 277.687 166.816 277.687 166.943H276.849C276.849 166.824 276.868 166.656 276.905 166.44C276.95 166.224 277.028 165.993 277.14 165.748C277.252 165.494 277.404 165.252 277.598 165.021C277.799 164.79 278.056 164.604 278.369 164.463C278.689 164.314 279.076 164.239 279.531 164.239C279.992 164.239 280.421 164.336 280.815 164.53C281.218 164.723 281.542 165.006 281.787 165.379C282.033 165.744 282.156 166.194 282.156 166.731C282.156 167.23 282.033 167.688 281.787 168.105C281.542 168.514 281.214 168.913 280.804 169.3C280.402 169.687 279.966 170.105 279.497 170.551L278.145 171.825H282.346V172.618H276.872Z" fill="black"/>
<path d="M86.4721 164.351V172.618H85.623V165.949L84.1707 165.96V165.457L84.45 165.39C84.8149 165.293 85.1054 165.174 85.3214 165.033C85.5374 164.891 85.7348 164.701 85.9135 164.463L85.9917 164.351H86.4721ZM91.2565 172.73C90.6756 172.73 90.1766 172.622 89.7595 172.406C89.3424 172.182 89.0222 171.892 88.7987 171.535C88.5753 171.17 88.4636 170.767 88.4636 170.328C88.4636 169.985 88.5231 169.687 88.6423 169.434C88.7615 169.181 88.903 168.972 89.0668 168.809C89.2381 168.637 89.402 168.503 89.5584 168.406C89.7223 168.31 89.8489 168.246 89.9382 168.216V168.172C89.8638 168.142 89.7595 168.086 89.6254 168.004C89.4914 167.915 89.3536 167.799 89.2121 167.658C89.0706 167.516 88.9514 167.341 88.8546 167.133C88.7578 166.924 88.7093 166.682 88.7093 166.407C88.7093 166.012 88.8099 165.651 89.011 165.323C89.2121 164.995 89.5025 164.735 89.8824 164.541C90.2697 164.34 90.7277 164.239 91.2565 164.239C91.7928 164.239 92.2508 164.34 92.6307 164.541C93.0105 164.735 93.301 164.995 93.5021 165.323C93.7106 165.651 93.8149 166.012 93.8149 166.407C93.8149 166.682 93.7665 166.924 93.6696 167.133C93.5728 167.341 93.4536 167.516 93.3121 167.658C93.1706 167.799 93.0328 167.915 92.8988 168.004C92.7647 168.086 92.6604 168.142 92.586 168.172V168.216C92.6679 168.246 92.7871 168.31 92.9435 168.406C93.1073 168.503 93.2749 168.637 93.4462 168.809C93.6175 168.972 93.7627 169.181 93.8819 169.434C94.0011 169.687 94.0606 169.985 94.0606 170.328C94.0606 170.767 93.9452 171.17 93.7143 171.535C93.4909 171.892 93.1706 172.182 92.7535 172.406C92.3365 172.622 91.8375 172.73 91.2565 172.73ZM91.2565 167.87C91.6364 167.87 91.9529 167.799 92.2061 167.658C92.4668 167.509 92.6604 167.323 92.7871 167.099C92.9211 166.876 92.9882 166.649 92.9882 166.418C92.9882 166.165 92.9211 165.926 92.7871 165.703C92.6604 165.479 92.4668 165.297 92.2061 165.155C91.9529 165.014 91.6364 164.943 91.2565 164.943C90.8767 164.943 90.5601 165.014 90.3069 165.155C90.0537 165.297 89.86 165.479 89.726 165.703C89.5994 165.926 89.5361 166.165 89.5361 166.418C89.5361 166.649 89.5994 166.876 89.726 167.099C89.86 167.323 90.0537 167.509 90.3069 167.658C90.5601 167.799 90.8767 167.87 91.2565 167.87ZM91.2565 172.015C91.6959 172.015 92.0609 171.929 92.3514 171.758C92.6418 171.587 92.8615 171.367 93.0105 171.099C93.1595 170.831 93.2339 170.551 93.2339 170.261C93.2339 169.978 93.1595 169.71 93.0105 169.457C92.869 169.196 92.6493 168.984 92.3514 168.82C92.0609 168.648 91.6959 168.563 91.2565 168.563C90.8171 168.563 90.4521 168.648 90.1617 168.82C89.8712 168.984 89.6515 169.196 89.5025 169.457C89.361 169.71 89.2903 169.978 89.2903 170.261C89.2903 170.551 89.3648 170.831 89.5137 171.099C89.6627 171.367 89.8824 171.587 90.1729 171.758C90.4633 171.929 90.8245 172.015 91.2565 172.015Z" fill="black"/>
<path d="M133.593 164.351V172.618H132.744V165.949L131.292 165.96V165.457L131.571 165.39C131.936 165.293 132.226 165.174 132.442 165.033C132.658 164.891 132.856 164.701 133.035 164.463L133.113 164.351H133.593ZM138.467 164.239C138.981 164.239 139.428 164.34 139.808 164.541C140.187 164.735 140.5 165.003 140.746 165.345C140.992 165.688 141.174 166.086 141.293 166.541C141.413 166.988 141.472 167.461 141.472 167.96C141.472 168.362 141.428 168.786 141.338 169.233C141.256 169.673 141.122 170.101 140.936 170.518C140.75 170.935 140.504 171.311 140.199 171.646C139.893 171.974 139.517 172.238 139.07 172.439C138.631 172.633 138.117 172.73 137.529 172.73C137.171 172.73 136.862 172.7 136.601 172.641C136.348 172.588 136.221 172.562 136.221 172.562V171.758C136.221 171.758 136.285 171.773 136.411 171.803C136.545 171.832 136.713 171.862 136.914 171.892C137.115 171.922 137.324 171.937 137.54 171.937C138.009 171.937 138.411 171.862 138.746 171.713C139.089 171.557 139.376 171.352 139.606 171.099C139.845 170.846 140.031 170.57 140.165 170.272C140.307 169.967 140.411 169.661 140.478 169.356C140.545 169.051 140.582 168.768 140.59 168.507C140.545 168.589 140.474 168.701 140.377 168.842C140.281 168.984 140.146 169.129 139.975 169.278C139.804 169.419 139.588 169.538 139.327 169.635C139.074 169.732 138.765 169.781 138.4 169.781C137.804 169.781 137.305 169.646 136.903 169.378C136.508 169.11 136.21 168.768 136.009 168.351C135.808 167.926 135.708 167.487 135.708 167.032C135.708 166.563 135.808 166.116 136.009 165.692C136.218 165.267 136.527 164.921 136.936 164.653C137.346 164.377 137.856 164.239 138.467 164.239ZM138.489 164.988C138.124 164.988 137.793 165.073 137.495 165.245C137.205 165.409 136.974 165.643 136.802 165.949C136.631 166.247 136.545 166.6 136.545 167.01C136.545 167.412 136.631 167.766 136.802 168.071C136.974 168.377 137.205 168.615 137.495 168.786C137.793 168.95 138.124 169.032 138.489 169.032C138.854 169.032 139.182 168.95 139.472 168.786C139.763 168.615 139.994 168.377 140.165 168.071C140.336 167.766 140.422 167.412 140.422 167.01C140.422 166.6 140.336 166.247 140.165 165.949C139.994 165.643 139.763 165.409 139.472 165.245C139.182 165.073 138.854 164.988 138.489 164.988Z" fill="black"/>
<path d="M178.748 172.618V172.004L180.658 170.183C181.135 169.736 181.563 169.334 181.943 168.976C182.323 168.611 182.621 168.254 182.837 167.904C183.06 167.554 183.172 167.17 183.172 166.753C183.172 166.381 183.086 166.068 182.915 165.815C182.744 165.554 182.52 165.36 182.245 165.234C181.977 165.1 181.697 165.033 181.407 165.033C181.027 165.033 180.714 165.107 180.469 165.256C180.23 165.405 180.044 165.587 179.91 165.803C179.783 166.019 179.694 166.232 179.642 166.44C179.59 166.649 179.564 166.816 179.564 166.943H178.726C178.726 166.824 178.744 166.656 178.782 166.44C178.826 166.224 178.904 165.993 179.016 165.748C179.128 165.494 179.281 165.252 179.474 165.021C179.675 164.79 179.932 164.604 180.245 164.463C180.565 164.314 180.953 164.239 181.407 164.239C181.869 164.239 182.297 164.336 182.692 164.53C183.094 164.723 183.418 165.006 183.664 165.379C183.909 165.744 184.032 166.194 184.032 166.731C184.032 167.23 183.909 167.688 183.664 168.105C183.418 168.514 183.09 168.913 182.681 169.3C182.278 169.687 181.843 170.105 181.373 170.551L180.022 171.825H184.222V172.618H178.748ZM188.601 172.719C188.102 172.719 187.662 172.607 187.282 172.384C186.91 172.16 186.593 171.851 186.333 171.456C186.079 171.062 185.89 170.611 185.763 170.105C185.636 169.591 185.573 169.047 185.573 168.473C185.573 167.907 185.636 167.371 185.763 166.865C185.89 166.351 186.079 165.896 186.333 165.502C186.593 165.107 186.91 164.798 187.282 164.574C187.662 164.344 188.102 164.228 188.601 164.228C189.1 164.228 189.535 164.344 189.908 164.574C190.287 164.798 190.604 165.107 190.857 165.502C191.118 165.896 191.312 166.351 191.438 166.865C191.565 167.371 191.628 167.907 191.628 168.473C191.628 169.047 191.565 169.591 191.438 170.105C191.312 170.611 191.118 171.062 190.857 171.456C190.604 171.851 190.287 172.16 189.908 172.384C189.535 172.607 189.1 172.719 188.601 172.719ZM188.601 171.926C189.219 171.926 189.729 171.635 190.131 171.054C190.541 170.466 190.746 169.606 190.746 168.473C190.746 167.356 190.541 166.507 190.131 165.926C189.729 165.338 189.219 165.044 188.601 165.044C187.982 165.044 187.468 165.338 187.059 165.926C186.657 166.507 186.456 167.356 186.456 168.473C186.456 169.598 186.657 170.455 187.059 171.043C187.461 171.631 187.975 171.926 188.601 171.926Z" fill="black"/>
<path d="M318.014 172.618V172.004L319.924 170.183C320.401 169.736 320.829 169.334 321.209 168.976C321.589 168.611 321.887 168.254 322.103 167.904C322.326 167.554 322.438 167.17 322.438 166.753C322.438 166.381 322.352 166.068 322.181 165.815C322.01 165.554 321.786 165.36 321.511 165.234C321.242 165.1 320.963 165.033 320.673 165.033C320.293 165.033 319.98 165.107 319.734 165.256C319.496 165.405 319.31 165.587 319.176 165.803C319.049 166.019 318.96 166.232 318.907 166.44C318.855 166.649 318.829 166.816 318.829 166.943H317.991C317.991 166.824 318.01 166.656 318.047 166.44C318.092 166.224 318.17 165.993 318.282 165.748C318.394 165.494 318.546 165.252 318.74 165.021C318.941 164.79 319.198 164.604 319.511 164.463C319.831 164.314 320.218 164.239 320.673 164.239C321.134 164.239 321.563 164.336 321.957 164.53C322.36 164.723 322.684 165.006 322.929 165.379C323.175 165.744 323.298 166.194 323.298 166.731C323.298 167.23 323.175 167.688 322.929 168.105C322.684 168.514 322.356 168.913 321.946 169.3C321.544 169.687 321.108 170.105 320.639 170.551L319.287 171.825H323.488V172.618H318.014ZM327.788 172.73C327.311 172.73 326.861 172.637 326.436 172.451C326.012 172.264 325.669 171.981 325.408 171.602C325.148 171.222 325.017 170.745 325.017 170.172H325.844C325.844 170.581 325.937 170.92 326.123 171.188C326.31 171.456 326.552 171.657 326.85 171.791C327.148 171.918 327.46 171.981 327.788 171.981C328.131 171.981 328.447 171.914 328.738 171.78C329.028 171.646 329.263 171.453 329.441 171.199C329.62 170.939 329.71 170.622 329.71 170.25C329.71 169.766 329.553 169.386 329.24 169.11C328.928 168.827 328.507 168.686 327.978 168.686H326.872V167.993H327.978C328.417 167.993 328.79 167.866 329.095 167.613C329.408 167.36 329.564 167.006 329.564 166.552C329.564 166.224 329.479 165.945 329.307 165.714C329.144 165.476 328.928 165.293 328.659 165.167C328.391 165.04 328.101 164.977 327.788 164.977C327.49 164.977 327.203 165.044 326.928 165.178C326.652 165.304 326.425 165.505 326.246 165.781C326.068 166.049 325.978 166.388 325.978 166.798H325.174C325.174 166.224 325.3 165.748 325.554 165.368C325.814 164.988 326.146 164.705 326.548 164.519C326.95 164.332 327.371 164.239 327.81 164.239C328.25 164.239 328.667 164.329 329.062 164.507C329.456 164.686 329.777 164.943 330.022 165.278C330.276 165.613 330.402 166.016 330.402 166.485C330.402 166.917 330.294 167.289 330.078 167.602C329.862 167.915 329.568 168.146 329.196 168.295V168.339C329.605 168.481 329.937 168.719 330.19 169.054C330.443 169.39 330.57 169.799 330.57 170.283C330.57 170.79 330.439 171.229 330.179 171.602C329.926 171.966 329.587 172.246 329.162 172.439C328.738 172.633 328.28 172.73 327.788 172.73Z" fill="black"/>
<path d="M224.818 196.702V196.087L226.729 194.266C227.205 193.82 227.634 193.417 228.014 193.06C228.393 192.695 228.691 192.337 228.907 191.987C229.131 191.637 229.242 191.254 229.242 190.837C229.242 190.464 229.157 190.152 228.985 189.898C228.814 189.638 228.591 189.444 228.315 189.317C228.047 189.183 227.768 189.116 227.477 189.116C227.097 189.116 226.785 189.191 226.539 189.34C226.301 189.489 226.114 189.671 225.98 189.887C225.854 190.103 225.764 190.315 225.712 190.524C225.66 190.732 225.634 190.9 225.634 191.027H224.796C224.796 190.907 224.815 190.74 224.852 190.524C224.897 190.308 224.975 190.077 225.087 189.831C225.198 189.578 225.351 189.336 225.545 189.105C225.746 188.874 226.003 188.688 226.315 188.547C226.636 188.398 227.023 188.323 227.477 188.323C227.939 188.323 228.367 188.42 228.762 188.614C229.164 188.807 229.488 189.09 229.734 189.463C229.98 189.828 230.103 190.278 230.103 190.814C230.103 191.313 229.98 191.771 229.734 192.189C229.488 192.598 229.161 192.997 228.751 193.384C228.349 193.771 227.913 194.188 227.444 194.635L226.092 195.909H230.293V196.702H224.818ZM234.526 196.814C233.945 196.814 233.446 196.706 233.029 196.49C232.612 196.266 232.291 195.976 232.068 195.618C231.844 195.253 231.733 194.851 231.733 194.412C231.733 194.069 231.792 193.771 231.911 193.518C232.031 193.265 232.172 193.056 232.336 192.892C232.507 192.721 232.671 192.587 232.828 192.49C232.991 192.393 233.118 192.33 233.207 192.3V192.256C233.133 192.226 233.029 192.17 232.895 192.088C232.761 191.999 232.623 191.883 232.481 191.742C232.34 191.6 232.221 191.425 232.124 191.217C232.027 191.008 231.978 190.766 231.978 190.49C231.978 190.096 232.079 189.734 232.28 189.407C232.481 189.079 232.772 188.818 233.152 188.625C233.539 188.424 233.997 188.323 234.526 188.323C235.062 188.323 235.52 188.424 235.9 188.625C236.28 188.818 236.57 189.079 236.771 189.407C236.98 189.734 237.084 190.096 237.084 190.49C237.084 190.766 237.036 191.008 236.939 191.217C236.842 191.425 236.723 191.6 236.581 191.742C236.44 191.883 236.302 191.999 236.168 192.088C236.034 192.17 235.93 192.226 235.855 192.256V192.3C235.937 192.33 236.056 192.393 236.213 192.49C236.376 192.587 236.544 192.721 236.715 192.892C236.887 193.056 237.032 193.265 237.151 193.518C237.27 193.771 237.33 194.069 237.33 194.412C237.33 194.851 237.214 195.253 236.983 195.618C236.76 195.976 236.44 196.266 236.023 196.49C235.606 196.706 235.107 196.814 234.526 196.814ZM234.526 191.954C234.906 191.954 235.222 191.883 235.475 191.742C235.736 191.593 235.93 191.407 236.056 191.183C236.19 190.96 236.257 190.732 236.257 190.502C236.257 190.248 236.19 190.01 236.056 189.787C235.93 189.563 235.736 189.381 235.475 189.239C235.222 189.098 234.906 189.027 234.526 189.027C234.146 189.027 233.829 189.098 233.576 189.239C233.323 189.381 233.129 189.563 232.995 189.787C232.869 190.01 232.805 190.248 232.805 190.502C232.805 190.732 232.869 190.96 232.995 191.183C233.129 191.407 233.323 191.593 233.576 191.742C233.829 191.883 234.146 191.954 234.526 191.954ZM234.526 196.099C234.965 196.099 235.33 196.013 235.621 195.842C235.911 195.67 236.131 195.451 236.28 195.183C236.429 194.914 236.503 194.635 236.503 194.345C236.503 194.062 236.429 193.794 236.28 193.54C236.138 193.28 235.918 193.067 235.621 192.904C235.33 192.732 234.965 192.647 234.526 192.647C234.086 192.647 233.721 192.732 233.431 192.904C233.14 193.067 232.921 193.28 232.772 193.54C232.63 193.794 232.559 194.062 232.559 194.345C232.559 194.635 232.634 194.914 232.783 195.183C232.932 195.451 233.152 195.67 233.442 195.842C233.732 196.013 234.094 196.099 234.526 196.099Z" fill="black"/>
<path d="M33.1972 196.702V196.087L35.1076 194.266C35.5843 193.82 36.0125 193.417 36.3924 193.06C36.7722 192.695 37.0701 192.337 37.2861 191.987C37.5096 191.637 37.6213 191.254 37.6213 190.837C37.6213 190.464 37.5356 190.152 37.3643 189.898C37.193 189.638 36.9696 189.444 36.694 189.317C36.4259 189.183 36.1466 189.116 35.8561 189.116C35.4763 189.116 35.1635 189.191 34.9177 189.34C34.6794 189.489 34.4932 189.671 34.3591 189.887C34.2325 190.103 34.1431 190.315 34.091 190.524C34.0388 190.732 34.0128 190.9 34.0128 191.027H33.1749C33.1749 190.907 33.1935 190.74 33.2307 190.524C33.2754 190.308 33.3536 190.077 33.4654 189.831C33.5771 189.578 33.7298 189.336 33.9234 189.105C34.1245 188.874 34.3814 188.688 34.6943 188.547C35.0145 188.398 35.4018 188.323 35.8561 188.323C36.3179 188.323 36.7461 188.42 37.1409 188.614C37.5431 188.807 37.8671 189.09 38.1128 189.463C38.3586 189.828 38.4815 190.278 38.4815 190.814C38.4815 191.313 38.3586 191.771 38.1128 192.189C37.8671 192.598 37.5393 192.997 37.1297 193.384C36.7275 193.771 36.2918 194.188 35.8226 194.635L34.4708 195.909H38.6714V196.702H33.1972ZM43.7811 196.702V194.702H39.7146V193.909L43.6136 188.435H44.6414V193.954H46.0825V194.713L44.6414 194.702V196.702H43.7811ZM40.6195 193.954H43.7811V189.496L40.6195 193.954Z" fill="black"/>
<path d="M269.846 196.702V196.087L271.756 194.266C272.233 193.82 272.661 193.417 273.041 193.06C273.421 192.695 273.719 192.337 273.935 191.987C274.158 191.637 274.27 191.254 274.27 190.837C274.27 190.464 274.184 190.152 274.013 189.898C273.842 189.638 273.618 189.444 273.343 189.317C273.074 189.183 272.795 189.116 272.505 189.116C272.125 189.116 271.812 189.191 271.566 189.34C271.328 189.489 271.142 189.671 271.008 189.887C270.881 190.103 270.792 190.315 270.74 190.524C270.687 190.732 270.661 190.9 270.661 191.027H269.823C269.823 190.907 269.842 190.74 269.879 190.524C269.924 190.308 270.002 190.077 270.114 189.831C270.226 189.578 270.378 189.336 270.572 189.105C270.773 188.874 271.03 188.688 271.343 188.547C271.663 188.398 272.05 188.323 272.505 188.323C272.966 188.323 273.395 188.42 273.789 188.614C274.192 188.807 274.516 189.09 274.761 189.463C275.007 189.828 275.13 190.278 275.13 190.814C275.13 191.313 275.007 191.771 274.761 192.189C274.516 192.598 274.188 192.997 273.778 193.384C273.376 193.771 272.94 194.188 272.471 194.635L271.119 195.909H275.32V196.702H269.846ZM279.642 188.323C280.156 188.323 280.603 188.424 280.983 188.625C281.363 188.818 281.676 189.086 281.921 189.429C282.167 189.772 282.35 190.17 282.469 190.624C282.588 191.071 282.648 191.544 282.648 192.043C282.648 192.445 282.603 192.87 282.514 193.317C282.432 193.756 282.298 194.185 282.111 194.602C281.925 195.019 281.679 195.395 281.374 195.73C281.069 196.058 280.693 196.322 280.246 196.523C279.806 196.717 279.292 196.814 278.704 196.814C278.346 196.814 278.037 196.784 277.777 196.724C277.523 196.672 277.397 196.646 277.397 196.646V195.842C277.397 195.842 277.46 195.857 277.587 195.886C277.721 195.916 277.888 195.946 278.09 195.976C278.291 196.006 278.499 196.02 278.715 196.02C279.184 196.02 279.587 195.946 279.922 195.797C280.264 195.641 280.551 195.436 280.782 195.183C281.02 194.929 281.206 194.654 281.341 194.356C281.482 194.051 281.586 193.745 281.653 193.44C281.72 193.134 281.758 192.851 281.765 192.591C281.72 192.673 281.65 192.784 281.553 192.926C281.456 193.067 281.322 193.213 281.151 193.362C280.979 193.503 280.763 193.622 280.503 193.719C280.249 193.816 279.94 193.864 279.575 193.864C278.98 193.864 278.481 193.73 278.078 193.462C277.684 193.194 277.386 192.851 277.185 192.434C276.984 192.01 276.883 191.57 276.883 191.116C276.883 190.647 276.984 190.2 277.185 189.775C277.393 189.351 277.702 189.005 278.112 188.736C278.521 188.461 279.032 188.323 279.642 188.323ZM279.665 189.072C279.3 189.072 278.968 189.157 278.67 189.329C278.38 189.492 278.149 189.727 277.978 190.032C277.807 190.33 277.721 190.684 277.721 191.094C277.721 191.496 277.807 191.85 277.978 192.155C278.149 192.46 278.38 192.699 278.67 192.87C278.968 193.034 279.3 193.116 279.665 193.116C280.03 193.116 280.357 193.034 280.648 192.87C280.938 192.699 281.169 192.46 281.341 192.155C281.512 191.85 281.597 191.496 281.597 191.094C281.597 190.684 281.512 190.33 281.341 190.032C281.169 189.727 280.938 189.492 280.648 189.329C280.357 189.157 280.03 189.072 279.665 189.072Z" fill="black"/>
<path d="M83.459 196.702V196.087L85.3694 194.266C85.846 193.82 86.2743 193.417 86.6541 193.06C87.034 192.695 87.3319 192.337 87.5479 191.987C87.7713 191.637 87.883 191.254 87.883 190.837C87.883 190.464 87.7974 190.152 87.6261 189.898C87.4548 189.638 87.2313 189.444 86.9558 189.317C86.6876 189.183 86.4083 189.116 86.1179 189.116C85.738 189.116 85.4252 189.191 85.1794 189.34C84.9411 189.489 84.7549 189.671 84.6209 189.887C84.4942 190.103 84.4049 190.315 84.3527 190.524C84.3006 190.732 84.2745 190.9 84.2745 191.027H83.4366C83.4366 190.907 83.4553 190.74 83.4925 190.524C83.5372 190.308 83.6154 190.077 83.7271 189.831C83.8388 189.578 83.9915 189.336 84.1851 189.105C84.3862 188.874 84.6432 188.688 84.956 188.547C85.2763 188.398 85.6636 188.323 86.1179 188.323C86.5796 188.323 87.0079 188.42 87.4026 188.614C87.8048 188.807 88.1288 189.09 88.3746 189.463C88.6204 189.828 88.7433 190.278 88.7433 190.814C88.7433 191.313 88.6204 191.771 88.3746 192.189C88.1288 192.598 87.8011 192.997 87.3915 193.384C86.9893 193.771 86.5536 194.188 86.0844 194.635L84.7326 195.909H88.9332V196.702H83.459ZM93.3003 196.814C92.8385 196.814 92.4438 196.754 92.1161 196.635C91.7958 196.508 91.5314 196.352 91.3229 196.166C91.1144 195.972 90.9505 195.767 90.8313 195.551C90.7196 195.335 90.634 195.13 90.5744 194.937C90.5223 194.743 90.4887 194.587 90.4738 194.468C90.4664 194.348 90.4627 194.289 90.4627 194.289H91.2782C91.2782 194.289 91.2857 194.348 91.3006 194.468C91.3155 194.587 91.3564 194.736 91.4234 194.914C91.4905 195.086 91.5947 195.261 91.7363 195.44C91.8778 195.618 92.0751 195.767 92.3284 195.886C92.5816 196.006 92.9056 196.065 93.3003 196.065C93.7546 196.065 94.1308 195.965 94.4287 195.764C94.734 195.555 94.9612 195.291 95.1101 194.97C95.2666 194.643 95.3448 194.307 95.3448 193.965C95.3448 193.607 95.2666 193.268 95.1101 192.948C94.9612 192.628 94.7378 192.367 94.4398 192.166C94.1419 191.958 93.7695 191.853 93.3227 191.853C92.9726 191.853 92.6784 191.909 92.4401 192.021C92.2092 192.133 92.0267 192.263 91.8927 192.412C91.7586 192.553 91.6618 192.684 91.6022 192.803C91.5501 192.915 91.524 192.971 91.524 192.971H90.6749L91.3452 188.435H95.6352V189.206H91.9932L91.591 191.887H91.6245C91.6841 191.827 91.7809 191.734 91.915 191.608C92.0565 191.481 92.2502 191.366 92.4959 191.261C92.7417 191.157 93.0545 191.105 93.4344 191.105C94.0377 191.105 94.5404 191.243 94.9426 191.518C95.3522 191.794 95.6613 192.151 95.8698 192.591C96.0784 193.023 96.1826 193.477 96.1826 193.954C96.1826 194.311 96.1231 194.661 96.0039 195.004C95.8847 195.339 95.706 195.644 95.4676 195.92C95.2293 196.188 94.9277 196.404 94.5627 196.568C94.2052 196.732 93.7844 196.814 93.3003 196.814Z" fill="black"/>
<path d="M130.58 196.702V196.087L132.49 194.266C132.967 193.82 133.395 193.417 133.775 193.06C134.155 192.695 134.453 192.337 134.669 191.987C134.892 191.637 135.004 191.254 135.004 190.837C135.004 190.464 134.918 190.152 134.747 189.898C134.576 189.638 134.352 189.444 134.077 189.317C133.809 189.183 133.529 189.116 133.239 189.116C132.859 189.116 132.546 189.191 132.301 189.34C132.062 189.489 131.876 189.671 131.742 189.887C131.615 190.103 131.526 190.315 131.474 190.524C131.422 190.732 131.396 190.9 131.396 191.027H130.558C130.558 190.907 130.576 190.74 130.614 190.524C130.658 190.308 130.736 190.077 130.848 189.831C130.96 189.578 131.113 189.336 131.306 189.105C131.507 188.874 131.764 188.688 132.077 188.547C132.397 188.398 132.785 188.323 133.239 188.323C133.701 188.323 134.129 188.42 134.524 188.614C134.926 188.807 135.25 189.09 135.496 189.463C135.741 189.828 135.864 190.278 135.864 190.814C135.864 191.313 135.741 191.771 135.496 192.189C135.25 192.598 134.922 192.997 134.513 193.384C134.11 193.771 133.675 194.188 133.205 194.635L131.854 195.909H136.054V196.702H130.58ZM140.622 196.814C140.109 196.814 139.662 196.717 139.282 196.523C138.909 196.322 138.6 196.05 138.355 195.708C138.109 195.365 137.923 194.97 137.796 194.523C137.677 194.069 137.617 193.592 137.617 193.093C137.617 192.691 137.658 192.27 137.74 191.831C137.83 191.384 137.967 190.952 138.154 190.535C138.347 190.118 138.597 189.746 138.902 189.418C139.207 189.083 139.58 188.818 140.019 188.625C140.466 188.424 140.984 188.323 141.572 188.323C141.922 188.323 142.228 188.353 142.488 188.412C142.749 188.465 142.879 188.491 142.879 188.491V189.295C142.879 189.295 142.812 189.28 142.678 189.25C142.551 189.221 142.388 189.191 142.187 189.161C141.985 189.131 141.777 189.116 141.561 189.116C141.092 189.116 140.686 189.194 140.343 189.351C140.001 189.5 139.714 189.701 139.483 189.954C139.252 190.207 139.066 190.487 138.924 190.792C138.783 191.09 138.679 191.392 138.612 191.697C138.552 192.002 138.518 192.285 138.511 192.546C138.548 192.464 138.615 192.352 138.712 192.211C138.816 192.069 138.95 191.928 139.114 191.786C139.286 191.637 139.502 191.514 139.762 191.418C140.023 191.321 140.332 191.272 140.69 191.272C141.285 191.272 141.784 191.407 142.187 191.675C142.589 191.943 142.887 192.289 143.08 192.714C143.281 193.131 143.382 193.566 143.382 194.021C143.382 194.49 143.281 194.937 143.08 195.361C142.879 195.786 142.574 196.136 142.164 196.411C141.755 196.68 141.241 196.814 140.622 196.814ZM140.611 196.065C140.976 196.065 141.304 195.983 141.594 195.819C141.885 195.648 142.116 195.41 142.287 195.104C142.458 194.799 142.544 194.445 142.544 194.043C142.544 193.641 142.458 193.287 142.287 192.982C142.116 192.676 141.885 192.442 141.594 192.278C141.304 192.107 140.976 192.021 140.611 192.021C140.246 192.021 139.915 192.107 139.617 192.278C139.327 192.442 139.096 192.676 138.924 192.982C138.753 193.287 138.667 193.641 138.667 194.043C138.667 194.453 138.753 194.81 138.924 195.116C139.096 195.413 139.327 195.648 139.617 195.819C139.915 195.983 140.246 196.065 140.611 196.065Z" fill="black"/>
<path d="M178.748 196.702V196.087L180.658 194.266C181.135 193.82 181.563 193.417 181.943 193.06C182.323 192.695 182.621 192.337 182.837 191.987C183.06 191.637 183.172 191.254 183.172 190.837C183.172 190.464 183.086 190.152 182.915 189.898C182.744 189.638 182.52 189.444 182.245 189.317C181.977 189.183 181.697 189.116 181.407 189.116C181.027 189.116 180.714 189.191 180.469 189.34C180.23 189.489 180.044 189.671 179.91 189.887C179.783 190.103 179.694 190.315 179.642 190.524C179.59 190.732 179.564 190.9 179.564 191.027H178.726C178.726 190.907 178.744 190.74 178.782 190.524C178.826 190.308 178.904 190.077 179.016 189.831C179.128 189.578 179.281 189.336 179.474 189.105C179.675 188.874 179.932 188.688 180.245 188.547C180.565 188.398 180.953 188.323 181.407 188.323C181.869 188.323 182.297 188.42 182.692 188.614C183.094 188.807 183.418 189.09 183.664 189.463C183.909 189.828 184.032 190.278 184.032 190.814C184.032 191.313 183.909 191.771 183.664 192.189C183.418 192.598 183.09 192.997 182.681 193.384C182.278 193.771 181.843 194.188 181.373 194.635L180.022 195.909H184.222V196.702H178.748ZM186.959 196.702C186.989 195.987 187.086 195.302 187.25 194.646C187.421 193.983 187.629 193.365 187.875 192.792C188.128 192.218 188.389 191.697 188.657 191.228C188.933 190.759 189.19 190.353 189.428 190.01C189.674 189.667 189.871 189.403 190.02 189.217H185.484V188.435H191.026V189.094C191.026 189.094 190.951 189.183 190.802 189.362C190.653 189.533 190.46 189.783 190.221 190.111C189.99 190.438 189.741 190.833 189.473 191.295C189.205 191.749 188.948 192.259 188.702 192.825C188.464 193.391 188.259 194.002 188.087 194.658C187.924 195.305 187.83 195.987 187.808 196.702H186.959Z" fill="black"/>
<path d="M231.739 221.833V219.833H227.672V219.04L231.571 213.566H232.599V219.085H234.04V219.844L232.599 219.833V221.833H231.739ZM228.577 219.085H231.739V214.627L228.577 219.085Z" fill="#D9D9D9"/>
<path d="M275.802 221.945C275.34 221.945 274.945 221.885 274.617 221.766C274.297 221.639 274.033 221.483 273.824 221.297C273.616 221.103 273.452 220.898 273.333 220.682C273.221 220.466 273.135 220.261 273.076 220.068C273.024 219.874 272.99 219.718 272.975 219.598C272.968 219.479 272.964 219.42 272.964 219.42H273.78C273.78 219.42 273.787 219.479 273.802 219.598C273.817 219.718 273.858 219.867 273.925 220.045C273.992 220.217 274.096 220.392 274.238 220.57C274.379 220.749 274.577 220.898 274.83 221.017C275.083 221.136 275.407 221.196 275.802 221.196C276.256 221.196 276.632 221.095 276.93 220.894C277.235 220.686 277.463 220.421 277.612 220.101C277.768 219.774 277.846 219.438 277.846 219.096C277.846 218.738 277.768 218.399 277.612 218.079C277.463 217.759 277.239 217.498 276.941 217.297C276.643 217.089 276.271 216.984 275.824 216.984C275.474 216.984 275.18 217.04 274.941 217.152C274.711 217.264 274.528 217.394 274.394 217.543C274.26 217.684 274.163 217.815 274.104 217.934C274.051 218.046 274.025 218.101 274.025 218.101H273.176L273.847 213.566H278.137V214.337H274.495L274.092 217.018H274.126C274.185 216.958 274.282 216.865 274.416 216.738C274.558 216.612 274.752 216.496 274.997 216.392C275.243 216.288 275.556 216.236 275.936 216.236C276.539 216.236 277.042 216.374 277.444 216.649C277.854 216.925 278.163 217.282 278.371 217.722C278.58 218.154 278.684 218.608 278.684 219.085C278.684 219.442 278.624 219.792 278.505 220.135C278.386 220.47 278.207 220.775 277.969 221.051C277.731 221.319 277.429 221.535 277.064 221.699C276.707 221.863 276.286 221.945 275.802 221.945Z" fill="#D9D9D9"/>
<path d="M320.762 196.814C320.285 196.814 319.835 196.721 319.41 196.534C318.986 196.348 318.643 196.065 318.382 195.685C318.122 195.305 317.991 194.829 317.991 194.255H318.818C318.818 194.665 318.911 195.004 319.097 195.272C319.284 195.54 319.526 195.741 319.824 195.875C320.121 196.002 320.434 196.065 320.762 196.065C321.105 196.065 321.421 195.998 321.712 195.864C322.002 195.73 322.237 195.536 322.415 195.283C322.594 195.022 322.684 194.706 322.684 194.334C322.684 193.849 322.527 193.47 322.214 193.194C321.902 192.911 321.481 192.769 320.952 192.769H319.846V192.077H320.952C321.391 192.077 321.764 191.95 322.069 191.697C322.382 191.444 322.538 191.09 322.538 190.636C322.538 190.308 322.453 190.029 322.281 189.798C322.118 189.559 321.902 189.377 321.633 189.25C321.365 189.124 321.075 189.06 320.762 189.06C320.464 189.06 320.177 189.127 319.902 189.262C319.626 189.388 319.399 189.589 319.22 189.865C319.042 190.133 318.952 190.472 318.952 190.881H318.148C318.148 190.308 318.274 189.831 318.528 189.451C318.788 189.072 319.12 188.789 319.522 188.602C319.924 188.416 320.345 188.323 320.784 188.323C321.224 188.323 321.641 188.412 322.036 188.591C322.43 188.77 322.751 189.027 322.996 189.362C323.25 189.697 323.376 190.099 323.376 190.569C323.376 191.001 323.268 191.373 323.052 191.686C322.836 191.999 322.542 192.229 322.17 192.378V192.423C322.579 192.565 322.911 192.803 323.164 193.138C323.417 193.473 323.544 193.883 323.544 194.367C323.544 194.873 323.413 195.313 323.153 195.685C322.9 196.05 322.561 196.33 322.136 196.523C321.712 196.717 321.254 196.814 320.762 196.814ZM327.964 196.802C327.465 196.802 327.026 196.691 326.646 196.467C326.274 196.244 325.957 195.935 325.697 195.54C325.443 195.145 325.253 194.695 325.127 194.188C325 193.674 324.937 193.131 324.937 192.557C324.937 191.991 325 191.455 325.127 190.948C325.253 190.435 325.443 189.98 325.697 189.585C325.957 189.191 326.274 188.882 326.646 188.658C327.026 188.427 327.465 188.312 327.964 188.312C328.463 188.312 328.899 188.427 329.272 188.658C329.651 188.882 329.968 189.191 330.221 189.585C330.482 189.98 330.675 190.435 330.802 190.948C330.929 191.455 330.992 191.991 330.992 192.557C330.992 193.131 330.929 193.674 330.802 194.188C330.675 194.695 330.482 195.145 330.221 195.54C329.968 195.935 329.651 196.244 329.272 196.467C328.899 196.691 328.463 196.802 327.964 196.802ZM327.964 196.009C328.583 196.009 329.093 195.719 329.495 195.138C329.905 194.55 330.109 193.689 330.109 192.557C330.109 191.44 329.905 190.591 329.495 190.01C329.093 189.422 328.583 189.127 327.964 189.127C327.346 189.127 326.832 189.422 326.423 190.01C326.021 190.591 325.819 191.44 325.819 192.557C325.819 193.682 326.021 194.538 326.423 195.127C326.825 195.715 327.339 196.009 327.964 196.009Z" fill="black"/>
<path d="M36.9924 221.945C36.5157 221.945 36.0651 221.851 35.6406 221.665C35.2161 221.479 34.8735 221.196 34.6128 220.816C34.3521 220.436 34.2218 219.96 34.2218 219.386H35.0485C35.0485 219.796 35.1416 220.135 35.3278 220.403C35.514 220.671 35.756 220.872 36.0539 221.006C36.3519 221.133 36.6647 221.196 36.9924 221.196C37.335 221.196 37.6515 221.129 37.942 220.995C38.2324 220.861 38.4671 220.667 38.6458 220.414C38.8246 220.153 38.9139 219.837 38.9139 219.464C38.9139 218.98 38.7575 218.6 38.4447 218.325C38.1319 218.042 37.7111 217.9 37.1823 217.9H36.0763V217.208H37.1823C37.6217 217.208 37.9941 217.081 38.2995 216.828C38.6123 216.575 38.7687 216.221 38.7687 215.767C38.7687 215.439 38.683 215.16 38.5117 214.929C38.3479 214.69 38.1319 214.508 37.8638 214.381C37.5957 214.255 37.3052 214.191 36.9924 214.191C36.6945 214.191 36.4077 214.258 36.1321 214.392C35.8566 214.519 35.6294 214.72 35.4507 214.996C35.2719 215.264 35.1825 215.603 35.1825 216.012H34.3782C34.3782 215.439 34.5048 214.962 34.758 214.582C35.0187 214.202 35.3501 213.919 35.7523 213.733C36.1545 213.547 36.5753 213.454 37.0147 213.454C37.4541 213.454 37.8712 213.543 38.266 213.722C38.6607 213.901 38.981 214.158 39.2267 214.493C39.48 214.828 39.6066 215.23 39.6066 215.7C39.6066 216.131 39.4986 216.504 39.2826 216.817C39.0666 217.13 38.7724 217.36 38.4 217.509V217.554C38.8097 217.696 39.1411 217.934 39.3943 218.269C39.6475 218.604 39.7742 219.014 39.7742 219.498C39.7742 220.004 39.6438 220.444 39.3831 220.816C39.1299 221.181 38.791 221.46 38.3665 221.654C37.942 221.848 37.4839 221.945 36.9924 221.945ZM43.4437 213.566V221.833H42.5946V215.163L41.1423 215.174V214.672L41.4216 214.605C41.7865 214.508 42.077 214.389 42.293 214.247C42.509 214.106 42.7063 213.916 42.8851 213.677L42.9633 213.566H43.4437Z" fill="black"/>
<path d="M90.6596 213.566V221.833H89.8105V215.163L88.3582 215.174V214.672L88.6375 214.605C89.0024 214.508 89.2929 214.389 89.5089 214.247C89.7249 214.106 89.9223 213.916 90.101 213.677L90.1792 213.566H90.6596Z" fill="#D9D9D9"/>
<path d="M134.768 221.833V221.218L136.678 219.397C137.155 218.951 137.583 218.548 137.963 218.191C138.343 217.826 138.64 217.468 138.856 217.118C139.08 216.768 139.192 216.385 139.192 215.968C139.192 215.595 139.106 215.282 138.935 215.029C138.763 214.769 138.54 214.575 138.264 214.448C137.996 214.314 137.717 214.247 137.426 214.247C137.047 214.247 136.734 214.322 136.488 214.471C136.25 214.62 136.064 214.802 135.929 215.018C135.803 215.234 135.713 215.446 135.661 215.655C135.609 215.863 135.583 216.031 135.583 216.158H134.745C134.745 216.038 134.764 215.871 134.801 215.655C134.846 215.439 134.924 215.208 135.036 214.962C135.147 214.709 135.3 214.467 135.494 214.236C135.695 214.005 135.952 213.819 136.265 213.677C136.585 213.528 136.972 213.454 137.426 213.454C137.888 213.454 138.316 213.551 138.711 213.744C139.113 213.938 139.437 214.221 139.683 214.593C139.929 214.958 140.052 215.409 140.052 215.945C140.052 216.444 139.929 216.902 139.683 217.319C139.437 217.729 139.11 218.128 138.7 218.515C138.298 218.902 137.862 219.319 137.393 219.766L136.041 221.04H140.242V221.833H134.768Z" fill="#D9D9D9"/>
<path d="M184.637 221.945C184.16 221.945 183.71 221.851 183.285 221.665C182.861 221.479 182.518 221.196 182.257 220.816C181.997 220.436 181.866 219.96 181.866 219.386H182.693C182.693 219.796 182.786 220.135 182.972 220.403C183.159 220.671 183.401 220.872 183.699 221.006C183.996 221.133 184.309 221.196 184.637 221.196C184.98 221.196 185.296 221.129 185.587 220.995C185.877 220.861 186.112 220.667 186.29 220.414C186.469 220.153 186.558 219.837 186.558 219.464C186.558 218.98 186.402 218.6 186.089 218.325C185.776 218.042 185.356 217.9 184.827 217.9H183.721V217.208H184.827C185.266 217.208 185.639 217.081 185.944 216.828C186.257 216.575 186.413 216.221 186.413 215.767C186.413 215.439 186.328 215.16 186.156 214.929C185.992 214.69 185.776 214.508 185.508 214.381C185.24 214.255 184.95 214.191 184.637 214.191C184.339 214.191 184.052 214.258 183.777 214.392C183.501 214.519 183.274 214.72 183.095 214.996C182.916 215.264 182.827 215.603 182.827 216.012H182.023C182.023 215.439 182.149 214.962 182.403 214.582C182.663 214.202 182.995 213.919 183.397 213.733C183.799 213.547 184.22 213.454 184.659 213.454C185.099 213.454 185.516 213.543 185.911 213.722C186.305 213.901 186.626 214.158 186.871 214.493C187.125 214.828 187.251 215.23 187.251 215.7C187.251 216.131 187.143 216.504 186.927 216.817C186.711 217.13 186.417 217.36 186.045 217.509V217.554C186.454 217.696 186.786 217.934 187.039 218.269C187.292 218.604 187.419 219.014 187.419 219.498C187.419 220.004 187.288 220.444 187.028 220.816C186.774 221.181 186.436 221.46 186.011 221.654C185.587 221.848 185.128 221.945 184.637 221.945Z" fill="#D9D9D9"/>
<path d="M324.171 221.945C323.657 221.945 323.21 221.848 322.83 221.654C322.458 221.453 322.149 221.181 321.903 220.839C321.657 220.496 321.471 220.101 321.344 219.654C321.225 219.2 321.166 218.723 321.166 218.224C321.166 217.822 321.206 217.401 321.288 216.962C321.378 216.515 321.516 216.083 321.702 215.666C321.895 215.249 322.145 214.877 322.45 214.549C322.756 214.214 323.128 213.949 323.567 213.756C324.014 213.555 324.532 213.454 325.12 213.454C325.47 213.454 325.776 213.484 326.036 213.543C326.297 213.595 326.427 213.622 326.427 213.622V214.426C326.427 214.426 326.36 214.411 326.226 214.381C326.1 214.351 325.936 214.322 325.735 214.292C325.534 214.262 325.325 214.247 325.109 214.247C324.64 214.247 324.234 214.325 323.891 214.482C323.549 214.631 323.262 214.832 323.031 215.085C322.8 215.338 322.614 215.618 322.473 215.923C322.331 216.221 322.227 216.522 322.16 216.828C322.1 217.133 322.067 217.416 322.059 217.677C322.097 217.595 322.164 217.483 322.26 217.342C322.365 217.2 322.499 217.059 322.663 216.917C322.834 216.768 323.05 216.645 323.311 216.549C323.571 216.452 323.88 216.403 324.238 216.403C324.834 216.403 325.333 216.537 325.735 216.806C326.137 217.074 326.435 217.42 326.629 217.844C326.83 218.262 326.93 218.697 326.93 219.152C326.93 219.621 326.83 220.068 326.629 220.492C326.427 220.917 326.122 221.267 325.712 221.542C325.303 221.81 324.789 221.945 324.171 221.945ZM324.16 221.196C324.525 221.196 324.852 221.114 325.143 220.95C325.433 220.779 325.664 220.541 325.835 220.235C326.007 219.93 326.092 219.576 326.092 219.174C326.092 218.772 326.007 218.418 325.835 218.113C325.664 217.807 325.433 217.573 325.143 217.409C324.852 217.237 324.525 217.152 324.16 217.152C323.795 217.152 323.463 217.237 323.165 217.409C322.875 217.573 322.644 217.807 322.473 218.113C322.301 218.418 322.216 218.772 322.216 219.174C322.216 219.584 322.301 219.941 322.473 220.246C322.644 220.544 322.875 220.779 323.165 220.95C323.463 221.114 323.795 221.196 324.16 221.196Z" fill="#D9D9D9"/>
<path d="M80.4077 68.9532V60.6861H81.2679V68.1824H85.5914V68.9532H80.4077ZM88.8625 69.065C88.2741 69.065 87.8049 68.875 87.4549 68.4952C87.1048 68.1154 86.9298 67.5866 86.9298 66.9088V63.0322H87.7677V66.8753C87.7677 67.3371 87.8831 67.6946 88.114 67.9478C88.3449 68.201 88.6614 68.3276 89.0636 68.3276C89.4583 68.3276 89.7749 68.2234 90.0132 68.0148C90.2515 67.7988 90.4228 67.5307 90.5271 67.2104C90.6388 66.8827 90.6947 66.5439 90.6947 66.1938V63.0322H91.5326V68.9532H90.6947V67.9813H90.6388C90.5867 68.0856 90.4936 68.2271 90.3595 68.4058C90.2255 68.5771 90.0393 68.7298 89.8009 68.8639C89.5626 68.9979 89.2498 69.065 88.8625 69.065ZM93.203 68.9532V63.0322H94.0409V64.0153H94.0968C94.1489 63.9036 94.242 63.7621 94.3761 63.5908C94.5101 63.412 94.6963 63.2556 94.9347 63.1216C95.173 62.9875 95.4746 62.9205 95.8396 62.9205C96.279 62.9205 96.6514 63.021 96.9568 63.2221C97.2621 63.4232 97.493 63.695 97.6494 64.0376C97.8133 64.3802 97.8952 64.7675 97.8952 65.1995V68.9532H97.0685V65.2442C97.0685 64.7899 96.9456 64.4138 96.6998 64.1158C96.4615 63.8105 96.1077 63.6578 95.6385 63.6578C95.2661 63.6578 94.9607 63.7546 94.7224 63.9483C94.4915 64.1419 94.3202 64.3914 94.2085 64.6968C94.0968 65.0021 94.0409 65.315 94.0409 65.6352V68.9532H93.203Z" fill="black"/>
<path d="M127.529 68.9532V60.6861H128.679L131.361 65.8475L134.042 60.6861H135.193V68.9532H134.344V61.915L131.763 66.8306H130.959L128.378 61.8927V68.9532H127.529ZM139.478 62.9205C139.887 62.9205 140.226 62.9912 140.494 63.1327C140.763 63.2668 140.975 63.4269 141.131 63.6131C141.295 63.7993 141.414 63.9594 141.489 64.0935H141.556V63.0322H142.382V68.9532H141.556V67.8919H141.489C141.414 68.0334 141.295 68.1973 141.131 68.3835C140.975 68.5622 140.763 68.7224 140.494 68.8639C140.226 68.9979 139.887 69.065 139.478 69.065C139.031 69.065 138.64 68.9793 138.305 68.808C137.97 68.6293 137.69 68.3947 137.467 68.1042C137.243 67.8063 137.076 67.4748 136.964 67.1099C136.86 66.7449 136.808 66.3726 136.808 65.9927C136.808 65.6129 136.86 65.2405 136.964 64.8755C137.076 64.5106 137.243 64.1829 137.467 63.8924C137.69 63.5945 137.97 63.3599 138.305 63.1886C138.64 63.0098 139.031 62.9205 139.478 62.9205ZM139.601 63.6466C139.161 63.6466 138.796 63.7621 138.506 63.993C138.215 64.2238 137.999 64.518 137.858 64.8755C137.716 65.233 137.646 65.6054 137.646 65.9927C137.646 66.38 137.716 66.7524 137.858 67.1099C137.999 67.4674 138.215 67.7616 138.506 67.9925C138.796 68.2234 139.161 68.3388 139.601 68.3388C140.033 68.3388 140.39 68.2234 140.673 67.9925C140.964 67.7616 141.18 67.4674 141.321 67.1099C141.47 66.7524 141.545 66.38 141.545 65.9927C141.545 65.6054 141.47 65.233 141.321 64.8755C141.18 64.518 140.964 64.2238 140.673 63.993C140.39 63.7621 140.033 63.6466 139.601 63.6466ZM144.055 68.9532V63.0322H144.893V63.803H144.938C145.057 63.5647 145.24 63.3599 145.485 63.1886C145.731 63.0098 146.074 62.9205 146.513 62.9205C146.655 62.9205 146.778 62.9279 146.882 62.9428C146.994 62.9577 147.049 62.9651 147.049 62.9651V63.7695C147.049 63.7695 146.99 63.7621 146.871 63.7472C146.751 63.7323 146.625 63.7248 146.491 63.7248C146.185 63.7248 145.91 63.7881 145.664 63.9148C145.426 64.0339 145.236 64.2425 145.094 64.5404C144.96 64.8308 144.893 65.2293 144.893 65.7358V68.9532H144.055Z" fill="black"/>
<path d="M175.693 68.9532V60.6861H176.844L179.525 65.8475L182.206 60.6861H183.357V68.9532H182.508V61.915L179.927 66.8306H179.123L176.542 61.8927V68.9532H175.693ZM185.664 61.8927C185.493 61.8927 185.352 61.8331 185.24 61.7139C185.128 61.5947 185.072 61.457 185.072 61.3005C185.072 61.1367 185.128 60.9989 185.24 60.8872C185.352 60.768 185.493 60.7084 185.664 60.7084C185.828 60.7084 185.966 60.768 186.078 60.8872C186.197 60.9989 186.257 61.1367 186.257 61.3005C186.257 61.4644 186.197 61.6059 186.078 61.7251C185.966 61.8368 185.828 61.8927 185.664 61.8927ZM185.251 68.9532V63.0322H186.089V68.9532H185.251ZM190.502 69.065C190.026 69.065 189.612 68.9793 189.262 68.808C188.912 68.6293 188.626 68.3909 188.402 68.093C188.179 67.7951 188.011 67.4637 187.899 67.0987C187.795 66.7338 187.743 66.3651 187.743 65.9927C187.743 65.6203 187.795 65.2516 187.899 64.8867C188.011 64.5218 188.179 64.1903 188.402 63.8924C188.626 63.5945 188.905 63.3599 189.24 63.1886C189.583 63.0098 189.989 62.9205 190.458 62.9205C190.949 62.9205 191.385 63.0359 191.765 63.2668C192.152 63.4977 192.454 63.8403 192.67 64.2946C192.893 64.7415 193.005 65.3038 193.005 65.9815V66.2273H188.592C188.607 66.6072 188.689 66.9572 188.838 67.2775C188.994 67.5977 189.21 67.8547 189.486 68.0483C189.769 68.242 190.108 68.3388 190.502 68.3388C190.83 68.3388 191.102 68.2829 191.318 68.1712C191.534 68.0521 191.698 67.918 191.81 67.769C191.929 67.6126 192.011 67.4786 192.055 67.3668C192.107 67.2551 192.133 67.1993 192.133 67.1993H192.927C192.927 67.1993 192.908 67.2626 192.871 67.3892C192.834 67.5084 192.767 67.661 192.67 67.8472C192.573 68.0334 192.431 68.2196 192.245 68.4058C192.066 68.592 191.836 68.7484 191.553 68.875C191.27 69.0017 190.919 69.065 190.502 69.065ZM188.603 65.557H192.167C192.145 65.1027 192.052 64.7377 191.888 64.4622C191.731 64.1792 191.526 63.9743 191.273 63.8477C191.02 63.7211 190.748 63.6578 190.458 63.6578C189.929 63.6578 189.501 63.8328 189.173 64.1829C188.845 64.5255 188.655 64.9835 188.603 65.557Z" fill="black"/>
<path d="M223.272 69.065C223.026 69.065 222.803 69.0501 222.602 69.0203C222.401 68.9979 222.3 68.9868 222.3 68.9868V68.2159C222.3 68.2159 222.397 68.2271 222.591 68.2494C222.784 68.2718 222.982 68.2829 223.183 68.2829C223.779 68.2829 224.244 68.1303 224.579 67.8249C224.922 67.5195 225.093 67.0242 225.093 66.339V60.6861H225.953V66.339C225.953 67.1955 225.722 67.8659 225.261 68.35C224.806 68.8266 224.143 69.065 223.272 69.065ZM229.654 69.065C229.066 69.065 228.597 68.875 228.247 68.4952C227.896 68.1154 227.721 67.5866 227.721 66.9088V63.0322H228.559V66.8753C228.559 67.3371 228.675 67.6946 228.906 67.9478C229.137 68.201 229.453 68.3276 229.855 68.3276C230.25 68.3276 230.567 68.2234 230.805 68.0148C231.043 67.7988 231.214 67.5307 231.319 67.2104C231.43 66.8827 231.486 66.5439 231.486 66.1938V63.0322H232.324V68.9532H231.486V67.9813H231.43C231.378 68.0856 231.285 68.2271 231.151 68.4058C231.017 68.5771 230.831 68.7298 230.593 68.8639C230.354 68.9979 230.041 69.065 229.654 69.065ZM236.609 69.065C236.132 69.065 235.719 68.9793 235.369 68.808C235.019 68.6293 234.732 68.3909 234.509 68.093C234.285 67.7951 234.118 67.4637 234.006 67.0987C233.902 66.7338 233.849 66.3651 233.849 65.9927C233.849 65.6203 233.902 65.2516 234.006 64.8867C234.118 64.5218 234.285 64.1903 234.509 63.8924C234.732 63.5945 235.011 63.3599 235.346 63.1886C235.689 63.0098 236.095 62.9205 236.564 62.9205C237.056 62.9205 237.491 63.0359 237.871 63.2668C238.259 63.4977 238.56 63.8403 238.776 64.2946C239 64.7415 239.111 65.3038 239.111 65.9815V66.2273H234.698C234.713 66.6072 234.795 66.9572 234.944 67.2775C235.101 67.5977 235.317 67.8547 235.592 68.0483C235.875 68.242 236.214 68.3388 236.609 68.3388C236.937 68.3388 237.208 68.2829 237.424 68.1712C237.64 68.0521 237.804 67.918 237.916 67.769C238.035 67.6126 238.117 67.4786 238.162 67.3668C238.214 67.2551 238.24 67.1993 238.24 67.1993H239.033C239.033 67.1993 239.015 67.2626 238.977 67.3892C238.94 67.5084 238.873 67.661 238.776 67.8472C238.679 68.0334 238.538 68.2196 238.352 68.4058C238.173 68.592 237.942 68.7484 237.659 68.875C237.376 69.0017 237.026 69.065 236.609 69.065ZM234.71 65.557H238.273C238.251 65.1027 238.158 64.7377 237.994 64.4622C237.838 64.1792 237.633 63.9743 237.38 63.8477C237.127 63.7211 236.855 63.6578 236.564 63.6578C236.035 63.6578 235.607 63.8328 235.279 64.1829C234.952 64.5255 234.762 64.9835 234.71 65.557Z" fill="black"/>
<path d="M271.313 68.9532L268.374 60.6861H269.279L271.849 67.959L274.407 60.6861H275.323L272.374 68.9532H271.313ZM277.114 61.8927C276.943 61.8927 276.801 61.8331 276.69 61.7139C276.578 61.5947 276.522 61.457 276.522 61.3005C276.522 61.1367 276.578 60.9989 276.69 60.8872C276.801 60.768 276.943 60.7084 277.114 60.7084C277.278 60.7084 277.416 60.768 277.528 60.8872C277.647 60.9989 277.706 61.1367 277.706 61.3005C277.706 61.4644 277.647 61.6059 277.528 61.7251C277.416 61.8368 277.278 61.8927 277.114 61.8927ZM276.701 68.9532V63.0322H277.539V68.9532H276.701ZM281.952 69.065C281.475 69.065 281.062 68.9793 280.712 68.808C280.362 68.6293 280.075 68.3909 279.852 68.093C279.628 67.7951 279.461 67.4637 279.349 67.0987C279.245 66.7338 279.193 66.3651 279.193 65.9927C279.193 65.6203 279.245 65.2516 279.349 64.8867C279.461 64.5218 279.628 64.1903 279.852 63.8924C280.075 63.5945 280.355 63.3599 280.69 63.1886C281.032 63.0098 281.438 62.9205 281.907 62.9205C282.399 62.9205 282.835 63.0359 283.215 63.2668C283.602 63.4977 283.903 63.8403 284.119 64.2946C284.343 64.7415 284.455 65.3038 284.455 65.9815V66.2273H280.042C280.057 66.6072 280.139 66.9572 280.288 67.2775C280.444 67.5977 280.66 67.8547 280.935 68.0483C281.218 68.242 281.557 68.3388 281.952 68.3388C282.28 68.3388 282.552 68.2829 282.768 68.1712C282.984 68.0521 283.147 67.918 283.259 67.769C283.378 67.6126 283.46 67.4786 283.505 67.3668C283.557 67.2551 283.583 67.1993 283.583 67.1993H284.376C284.376 67.1993 284.358 67.2626 284.321 67.3892C284.283 67.5084 284.216 67.661 284.119 67.8472C284.023 68.0334 283.881 68.2196 283.695 68.4058C283.516 68.592 283.285 68.7484 283.002 68.875C282.719 69.0017 282.369 69.065 281.952 69.065ZM280.053 65.557H283.617C283.594 65.1027 283.501 64.7377 283.337 64.4622C283.181 64.1792 282.976 63.9743 282.723 63.8477C282.47 63.7211 282.198 63.6578 281.907 63.6578C281.379 63.6578 280.95 63.8328 280.623 64.1829C280.295 64.5255 280.105 64.9835 280.053 65.557Z" fill="black"/>
<path d="M316.608 69.065C316.124 69.065 315.711 69.0054 315.368 68.8862C315.033 68.7596 314.753 68.5995 314.53 68.4058C314.314 68.2122 314.139 68.0074 314.005 67.7914C313.878 67.5754 313.785 67.3706 313.726 67.1769C313.666 66.9833 313.629 66.8269 313.614 66.7077C313.599 66.5811 313.592 66.5178 313.592 66.5178H314.463C314.463 66.5178 314.47 66.5774 314.485 66.6965C314.508 66.8157 314.552 66.9647 314.619 67.1434C314.694 67.3147 314.809 67.4897 314.966 67.6685C315.122 67.8398 315.334 67.985 315.603 68.1042C315.871 68.2159 316.213 68.2718 316.63 68.2718C317.196 68.2718 317.654 68.1265 318.004 67.8361C318.355 67.5456 318.53 67.1695 318.53 66.7077C318.53 66.2757 318.388 65.948 318.105 65.7246C317.829 65.5012 317.464 65.3336 317.01 65.2219L315.949 64.9649C315.547 64.8606 315.185 64.7228 314.865 64.5515C314.545 64.3728 314.292 64.1456 314.105 63.8701C313.919 63.587 313.826 63.2407 313.826 62.8311C313.826 62.3619 313.942 61.9597 314.173 61.6245C314.403 61.2894 314.716 61.0324 315.111 60.8537C315.506 60.6675 315.956 60.5744 316.463 60.5744C316.969 60.5744 317.386 60.6526 317.714 60.809C318.042 60.9654 318.302 61.159 318.496 61.3899C318.69 61.6134 318.831 61.8405 318.921 62.0714C319.017 62.3023 319.077 62.4959 319.099 62.6523C319.129 62.8087 319.144 62.8869 319.144 62.8869H318.295C318.295 62.8869 318.287 62.8348 318.273 62.7305C318.258 62.6263 318.217 62.4997 318.15 62.3507C318.09 62.1943 317.993 62.0416 317.859 61.8927C317.725 61.7362 317.543 61.6059 317.312 61.5016C317.081 61.3974 316.79 61.3452 316.44 61.3452C315.859 61.3452 315.42 61.4905 315.122 61.7809C314.824 62.064 314.675 62.3954 314.675 62.7752C314.675 63.1253 314.794 63.4046 315.033 63.6131C315.279 63.8217 315.617 63.9781 316.049 64.0823L317.178 64.3616C317.602 64.4659 317.978 64.6149 318.306 64.8085C318.641 65.0021 318.906 65.2516 319.099 65.557C319.293 65.8624 319.39 66.231 319.39 66.663C319.39 67.095 319.278 67.4935 319.055 67.8584C318.839 68.2234 318.522 68.5175 318.105 68.741C317.695 68.957 317.196 69.065 316.608 69.065ZM323.333 62.9205C323.743 62.9205 324.082 62.9912 324.35 63.1327C324.618 63.2668 324.83 63.4269 324.987 63.6131C325.151 63.7993 325.27 63.9594 325.344 64.0935H325.411V63.0322H326.238V68.9532H325.411V67.8919H325.344C325.27 68.0334 325.151 68.1973 324.987 68.3835C324.83 68.5622 324.618 68.7224 324.35 68.8639C324.082 68.9979 323.743 69.065 323.333 69.065C322.887 69.065 322.496 68.9793 322.16 68.808C321.825 68.6293 321.546 68.3947 321.322 68.1042C321.099 67.8063 320.931 67.4748 320.82 67.1099C320.715 66.7449 320.663 66.3726 320.663 65.9927C320.663 65.6129 320.715 65.2405 320.82 64.8755C320.931 64.5106 321.099 64.1829 321.322 63.8924C321.546 63.5945 321.825 63.3599 322.16 63.1886C322.496 63.0098 322.887 62.9205 323.333 62.9205ZM323.456 63.6466C323.017 63.6466 322.652 63.7621 322.361 63.993C322.071 64.2238 321.855 64.518 321.714 64.8755C321.572 65.233 321.501 65.6054 321.501 65.9927C321.501 66.38 321.572 66.7524 321.714 67.1099C321.855 67.4674 322.071 67.7616 322.361 67.9925C322.652 68.2234 323.017 68.3388 323.456 68.3388C323.888 68.3388 324.246 68.2234 324.529 67.9925C324.819 67.7616 325.035 67.4674 325.177 67.1099C325.326 66.7524 325.4 66.38 325.4 65.9927C325.4 65.6054 325.326 65.233 325.177 64.8755C325.035 64.518 324.819 64.2238 324.529 63.993C324.246 63.7621 323.888 63.6466 323.456 63.6466ZM330.916 69.065C330.507 69.065 330.168 68.9979 329.9 68.8639C329.631 68.7224 329.415 68.5585 329.252 68.3723C329.095 68.1861 328.976 68.026 328.894 67.8919H328.838V68.9532H328V60.4627H328.838V64.0935H328.894C328.976 63.952 329.095 63.7919 329.252 63.6131C329.415 63.4269 329.631 63.2668 329.9 63.1327C330.168 62.9912 330.507 62.9205 330.916 62.9205C331.363 62.9205 331.754 63.0098 332.089 63.1886C332.424 63.3599 332.7 63.5945 332.916 63.8924C333.139 64.1829 333.307 64.5106 333.419 64.8755C333.53 65.2405 333.586 65.6129 333.586 65.9927C333.586 66.3726 333.53 66.7449 333.419 67.1099C333.307 67.4748 333.139 67.8063 332.916 68.1042C332.7 68.3947 332.424 68.6293 332.089 68.808C331.754 68.9793 331.363 69.065 330.916 69.065ZM330.793 68.3388C331.233 68.3388 331.594 68.2234 331.877 67.9925C332.167 67.7616 332.383 67.4674 332.525 67.1099C332.674 66.7524 332.748 66.38 332.748 65.9927C332.748 65.6054 332.674 65.233 332.525 64.8755C332.383 64.518 332.167 64.2238 331.877 63.993C331.594 63.7621 331.233 63.6466 330.793 63.6466C330.361 63.6466 330 63.7621 329.71 63.993C329.419 64.2238 329.203 64.518 329.062 64.8755C328.92 65.233 328.849 65.6054 328.849 65.9927C328.849 66.38 328.92 66.7524 329.062 67.1099C329.203 67.4674 329.419 67.7616 329.71 67.9925C330 68.2234 330.361 68.3388 330.793 68.3388Z" fill="black"/>
<path d="M139.164 32.2517L152.515 24.5436L152.515 39.9598L139.164 32.2517Z" fill="#D9D9D9"/>
<path d="M223.98 32.2517L210.63 39.9597L210.63 24.5436L223.98 32.2517Z" fill="#D9D9D9"/>
</svg>
