<svg width="393" height="211" viewBox="0 0 393 211" fill="none" xmlns="http://www.w3.org/2000/svg">
<g filter="url(#filter0_d_1075_1216)">
<rect x="2" width="389" height="207" rx="20" fill="#FCFAF9"/>
</g>
<path d="M185.996 20V11.12H187.232L190.112 16.664L192.992 11.12H194.228V20H193.316V12.44L190.544 17.72H189.68L186.908 12.416V20H185.996ZM198.927 20.12C198.415 20.12 197.971 20.028 197.595 19.844C197.219 19.652 196.911 19.396 196.671 19.076C196.431 18.756 196.251 18.4 196.131 18.008C196.019 17.616 195.963 17.22 195.963 16.82C195.963 16.42 196.019 16.024 196.131 15.632C196.251 15.24 196.431 14.884 196.671 14.564C196.911 14.244 197.211 13.992 197.571 13.808C197.939 13.616 198.375 13.52 198.879 13.52C199.407 13.52 199.875 13.644 200.283 13.892C200.699 14.14 201.023 14.508 201.255 14.996C201.495 15.476 201.615 16.08 201.615 16.808V17.072H196.875C196.891 17.48 196.979 17.856 197.139 18.2C197.307 18.544 197.539 18.82 197.835 19.028C198.139 19.236 198.503 19.34 198.927 19.34C199.279 19.34 199.571 19.28 199.803 19.16C200.035 19.032 200.211 18.888 200.331 18.728C200.459 18.56 200.547 18.416 200.595 18.296C200.651 18.176 200.679 18.116 200.679 18.116H201.531C201.531 18.116 201.511 18.184 201.471 18.32C201.431 18.448 201.359 18.612 201.255 18.812C201.151 19.012 200.999 19.212 200.799 19.412C200.607 19.612 200.359 19.78 200.055 19.916C199.751 20.052 199.375 20.12 198.927 20.12ZM196.887 16.352H200.715C200.691 15.864 200.591 15.472 200.415 15.176C200.247 14.872 200.027 14.652 199.755 14.516C199.483 14.38 199.191 14.312 198.879 14.312C198.311 14.312 197.851 14.5 197.499 14.876C197.147 15.244 196.943 15.736 196.887 16.352ZM205.416 20.12C204.936 20.12 204.54 20.052 204.228 19.916C203.924 19.78 203.68 19.612 203.496 19.412C203.32 19.212 203.192 19.012 203.112 18.812C203.032 18.612 202.98 18.444 202.956 18.308C202.932 18.172 202.92 18.104 202.92 18.104H203.844C203.844 18.104 203.856 18.168 203.88 18.296C203.904 18.416 203.964 18.56 204.06 18.728C204.164 18.888 204.324 19.032 204.54 19.16C204.756 19.28 205.052 19.34 205.428 19.34C205.836 19.34 206.16 19.236 206.4 19.028C206.64 18.82 206.76 18.564 206.76 18.26C206.76 17.972 206.66 17.748 206.46 17.588C206.268 17.428 206.008 17.312 205.68 17.24L204.84 17.048C204.52 16.968 204.228 16.86 203.964 16.724C203.7 16.588 203.488 16.408 203.328 16.184C203.168 15.952 203.088 15.668 203.088 15.332C203.088 14.796 203.284 14.36 203.676 14.024C204.068 13.688 204.58 13.52 205.212 13.52C205.636 13.52 205.984 13.584 206.256 13.712C206.536 13.832 206.756 13.984 206.916 14.168C207.084 14.352 207.204 14.536 207.276 14.72C207.356 14.896 207.408 15.048 207.432 15.176C207.456 15.296 207.468 15.356 207.468 15.356H206.592C206.592 15.356 206.576 15.304 206.544 15.2C206.52 15.088 206.464 14.964 206.376 14.828C206.296 14.684 206.16 14.56 205.968 14.456C205.784 14.344 205.532 14.288 205.212 14.288C204.796 14.288 204.484 14.388 204.276 14.588C204.076 14.788 203.976 15.016 203.976 15.272C203.976 15.52 204.064 15.716 204.24 15.86C204.424 16.004 204.672 16.112 204.984 16.184L205.836 16.388C206.372 16.516 206.808 16.728 207.144 17.024C207.48 17.312 207.648 17.712 207.648 18.224C207.648 18.568 207.556 18.884 207.372 19.172C207.196 19.46 206.94 19.692 206.604 19.868C206.276 20.036 205.88 20.12 205.416 20.12Z" fill="black"/>
<path d="M30.996 60V51.12H33.768C34.472 51.12 35.088 51.248 35.616 51.504C36.144 51.752 36.58 52.088 36.924 52.512C37.276 52.936 37.54 53.412 37.716 53.94C37.892 54.468 37.98 55.008 37.98 55.56C37.98 56.112 37.892 56.652 37.716 57.18C37.54 57.708 37.276 58.184 36.924 58.608C36.58 59.032 36.144 59.372 35.616 59.628C35.088 59.876 34.472 60 33.768 60H30.996ZM33.744 51.948H31.92V59.172H33.744C34.296 59.172 34.776 59.072 35.184 58.872C35.6 58.664 35.944 58.388 36.216 58.044C36.496 57.7 36.704 57.312 36.84 56.88C36.976 56.448 37.044 56.008 37.044 55.56C37.044 55.112 36.976 54.672 36.84 54.24C36.704 53.808 36.496 53.42 36.216 53.076C35.944 52.732 35.6 52.46 35.184 52.26C34.776 52.052 34.296 51.948 33.744 51.948ZM42.4524 60.12C41.9484 60.12 41.5044 60.028 41.1204 59.844C40.7444 59.66 40.4244 59.412 40.1604 59.1C39.9044 58.788 39.7124 58.436 39.5844 58.044C39.4564 57.644 39.3924 57.236 39.3924 56.82C39.3924 56.396 39.4564 55.988 39.5844 55.596C39.7124 55.204 39.9044 54.852 40.1604 54.54C40.4244 54.228 40.7444 53.98 41.1204 53.796C41.5044 53.612 41.9484 53.52 42.4524 53.52C42.9564 53.52 43.4004 53.612 43.7844 53.796C44.1684 53.98 44.4884 54.228 44.7444 54.54C45.0004 54.852 45.1924 55.204 45.3204 55.596C45.4564 55.988 45.5244 56.396 45.5244 56.82C45.5244 57.236 45.4564 57.644 45.3204 58.044C45.1924 58.436 45.0004 58.788 44.7444 59.1C44.4884 59.412 44.1684 59.66 43.7844 59.844C43.4004 60.028 42.9564 60.12 42.4524 60.12ZM42.4524 59.316C42.9244 59.316 43.3204 59.196 43.6404 58.956C43.9604 58.716 44.2004 58.408 44.3604 58.032C44.5284 57.648 44.6124 57.244 44.6124 56.82C44.6124 56.396 44.5284 55.996 44.3604 55.62C44.2004 55.236 43.9604 54.924 43.6404 54.684C43.3204 54.444 42.9244 54.324 42.4524 54.324C41.9804 54.324 41.5844 54.444 41.2644 54.684C40.9444 54.924 40.7044 55.236 40.5444 55.62C40.3844 55.996 40.3044 56.396 40.3044 56.82C40.3044 57.244 40.3844 57.648 40.5444 58.032C40.7044 58.408 40.9444 58.716 41.2644 58.956C41.5844 59.196 41.9804 59.316 42.4524 59.316ZM47.1656 60V53.64H48.0656V54.672H48.1136C48.1776 54.536 48.2816 54.38 48.4256 54.204C48.5696 54.02 48.7656 53.86 49.0136 53.724C49.2616 53.588 49.5736 53.52 49.9496 53.52C50.4296 53.52 50.8336 53.644 51.1616 53.892C51.4976 54.132 51.7416 54.464 51.8936 54.888H51.9056C52.0736 54.528 52.3216 54.212 52.6496 53.94C52.9776 53.66 53.4176 53.52 53.9696 53.52C54.6416 53.52 55.1656 53.752 55.5416 54.216C55.9176 54.68 56.1056 55.292 56.1056 56.052V60H55.2176V56.088C55.2176 55.536 55.0896 55.104 54.8336 54.792C54.5776 54.472 54.2216 54.312 53.7656 54.312C53.3656 54.312 53.0416 54.424 52.7936 54.648C52.5456 54.864 52.3656 55.14 52.2536 55.476C52.1416 55.812 52.0856 56.156 52.0856 56.508V60H51.1856V56.088C51.1856 55.536 51.0616 55.104 50.8136 54.792C50.5656 54.472 50.2096 54.312 49.7456 54.312C49.3456 54.312 49.0216 54.424 48.7736 54.648C48.5256 54.864 48.3456 55.144 48.2336 55.488C48.1216 55.824 48.0656 56.164 48.0656 56.508V60H47.1656Z" fill="black"/>
<path d="M77.996 60V51.12H78.92V59.172H83.564V60H77.996ZM87.0776 60.12C86.4456 60.12 85.9416 59.916 85.5656 59.508C85.1896 59.1 85.0016 58.532 85.0016 57.804V53.64H85.9016V57.768C85.9016 58.264 86.0256 58.648 86.2736 58.92C86.5216 59.192 86.8616 59.328 87.2936 59.328C87.7176 59.328 88.0576 59.216 88.3136 58.992C88.5696 58.76 88.7536 58.472 88.8656 58.128C88.9856 57.776 89.0456 57.412 89.0456 57.036V53.64H89.9456V60H89.0456V58.956H88.9856C88.9296 59.068 88.8296 59.22 88.6856 59.412C88.5416 59.596 88.3416 59.76 88.0856 59.904C87.8296 60.048 87.4936 60.12 87.0776 60.12ZM91.7398 60V53.64H92.6398V54.696H92.6998C92.7558 54.576 92.8558 54.424 92.9998 54.24C93.1438 54.048 93.3438 53.88 93.5998 53.736C93.8558 53.592 94.1798 53.52 94.5718 53.52C95.0438 53.52 95.4438 53.628 95.7718 53.844C96.0998 54.06 96.3478 54.352 96.5158 54.72C96.6918 55.088 96.7798 55.504 96.7798 55.968V60H95.8918V56.016C95.8918 55.528 95.7598 55.124 95.4958 54.804C95.2398 54.476 94.8598 54.312 94.3558 54.312C93.9558 54.312 93.6278 54.416 93.3718 54.624C93.1238 54.832 92.9398 55.1 92.8198 55.428C92.6998 55.756 92.6398 56.092 92.6398 56.436V60H91.7398Z" fill="black"/>
<path d="M133.996 60V51.12H135.232L138.112 56.664L140.992 51.12H142.228V60H141.316V52.44L138.544 57.72H137.68L134.908 52.416V60H133.996ZM146.831 53.52C147.271 53.52 147.635 53.596 147.923 53.748C148.211 53.892 148.439 54.064 148.607 54.264C148.783 54.464 148.911 54.636 148.991 54.78H149.063V53.64H149.951V60H149.063V58.86H148.991C148.911 59.012 148.783 59.188 148.607 59.388C148.439 59.58 148.211 59.752 147.923 59.904C147.635 60.048 147.271 60.12 146.831 60.12C146.351 60.12 145.931 60.028 145.571 59.844C145.211 59.652 144.911 59.4 144.671 59.088C144.431 58.768 144.251 58.412 144.131 58.02C144.019 57.628 143.963 57.228 143.963 56.82C143.963 56.412 144.019 56.012 144.131 55.62C144.251 55.228 144.431 54.876 144.671 54.564C144.911 54.244 145.211 53.992 145.571 53.808C145.931 53.616 146.351 53.52 146.831 53.52ZM146.963 54.3C146.491 54.3 146.099 54.424 145.787 54.672C145.475 54.92 145.243 55.236 145.091 55.62C144.939 56.004 144.863 56.404 144.863 56.82C144.863 57.236 144.939 57.636 145.091 58.02C145.243 58.404 145.475 58.72 145.787 58.968C146.099 59.216 146.491 59.34 146.963 59.34C147.427 59.34 147.811 59.216 148.115 58.968C148.427 58.72 148.659 58.404 148.811 58.02C148.971 57.636 149.051 57.236 149.051 56.82C149.051 56.404 148.971 56.004 148.811 55.62C148.659 55.236 148.427 54.92 148.115 54.672C147.811 54.424 147.427 54.3 146.963 54.3ZM151.748 60V53.64H152.648V54.468H152.696C152.824 54.212 153.02 53.992 153.284 53.808C153.548 53.616 153.916 53.52 154.388 53.52C154.54 53.52 154.672 53.528 154.784 53.544C154.904 53.56 154.964 53.568 154.964 53.568V54.432C154.964 54.432 154.9 54.424 154.772 54.408C154.644 54.392 154.508 54.384 154.364 54.384C154.036 54.384 153.74 54.452 153.476 54.588C153.22 54.716 153.016 54.94 152.864 55.26C152.72 55.572 152.648 56 152.648 56.544V60H151.748Z" fill="black"/>
<path d="M186.996 60V51.12H188.232L191.112 56.664L193.992 51.12H195.228V60H194.316V52.44L191.544 57.72H190.68L187.908 52.416V60H186.996ZM197.707 52.416C197.523 52.416 197.371 52.352 197.251 52.224C197.131 52.096 197.071 51.948 197.071 51.78C197.071 51.604 197.131 51.456 197.251 51.336C197.371 51.208 197.523 51.144 197.707 51.144C197.883 51.144 198.031 51.208 198.151 51.336C198.279 51.456 198.343 51.604 198.343 51.78C198.343 51.956 198.279 52.108 198.151 52.236C198.031 52.356 197.883 52.416 197.707 52.416ZM197.263 60V53.64H198.163V60H197.263ZM202.903 60.12C202.391 60.12 201.947 60.028 201.571 59.844C201.195 59.652 200.887 59.396 200.647 59.076C200.407 58.756 200.227 58.4 200.107 58.008C199.995 57.616 199.939 57.22 199.939 56.82C199.939 56.42 199.995 56.024 200.107 55.632C200.227 55.24 200.407 54.884 200.647 54.564C200.887 54.244 201.187 53.992 201.547 53.808C201.915 53.616 202.351 53.52 202.855 53.52C203.383 53.52 203.851 53.644 204.259 53.892C204.675 54.14 204.999 54.508 205.231 54.996C205.471 55.476 205.591 56.08 205.591 56.808V57.072H200.851C200.867 57.48 200.955 57.856 201.115 58.2C201.283 58.544 201.515 58.82 201.811 59.028C202.115 59.236 202.479 59.34 202.903 59.34C203.255 59.34 203.547 59.28 203.779 59.16C204.011 59.032 204.187 58.888 204.307 58.728C204.435 58.56 204.523 58.416 204.571 58.296C204.627 58.176 204.655 58.116 204.655 58.116H205.507C205.507 58.116 205.487 58.184 205.447 58.32C205.407 58.448 205.335 58.612 205.231 58.812C205.127 59.012 204.975 59.212 204.775 59.412C204.583 59.612 204.335 59.78 204.031 59.916C203.727 60.052 203.351 60.12 202.903 60.12ZM200.863 56.352H204.691C204.667 55.864 204.567 55.472 204.391 55.176C204.223 54.872 204.003 54.652 203.731 54.516C203.459 54.38 203.167 54.312 202.855 54.312C202.287 54.312 201.827 54.5 201.475 54.876C201.123 55.244 200.919 55.736 200.863 56.352Z" fill="black"/>
<path d="M241.488 60.12C241.224 60.12 240.984 60.104 240.768 60.072C240.552 60.048 240.444 60.036 240.444 60.036V59.208C240.444 59.208 240.548 59.22 240.756 59.244C240.964 59.268 241.176 59.28 241.392 59.28C242.032 59.28 242.532 59.116 242.892 58.788C243.26 58.46 243.444 57.928 243.444 57.192V51.12H244.368V57.192C244.368 58.112 244.12 58.832 243.624 59.352C243.136 59.864 242.424 60.12 241.488 60.12ZM248.343 60.12C247.711 60.12 247.207 59.916 246.831 59.508C246.455 59.1 246.267 58.532 246.267 57.804V53.64H247.167V57.768C247.167 58.264 247.291 58.648 247.539 58.92C247.787 59.192 248.127 59.328 248.559 59.328C248.983 59.328 249.323 59.216 249.579 58.992C249.835 58.76 250.019 58.472 250.131 58.128C250.251 57.776 250.311 57.412 250.311 57.036V53.64H251.211V60H250.311V58.956H250.251C250.195 59.068 250.095 59.22 249.951 59.412C249.807 59.596 249.607 59.76 249.351 59.904C249.095 60.048 248.759 60.12 248.343 60.12ZM255.813 60.12C255.301 60.12 254.857 60.028 254.481 59.844C254.105 59.652 253.797 59.396 253.557 59.076C253.317 58.756 253.137 58.4 253.017 58.008C252.905 57.616 252.849 57.22 252.849 56.82C252.849 56.42 252.905 56.024 253.017 55.632C253.137 55.24 253.317 54.884 253.557 54.564C253.797 54.244 254.097 53.992 254.457 53.808C254.825 53.616 255.261 53.52 255.765 53.52C256.293 53.52 256.761 53.644 257.169 53.892C257.585 54.14 257.909 54.508 258.141 54.996C258.381 55.476 258.501 56.08 258.501 56.808V57.072H253.761C253.777 57.48 253.865 57.856 254.025 58.2C254.193 58.544 254.425 58.82 254.721 59.028C255.025 59.236 255.389 59.34 255.813 59.34C256.165 59.34 256.457 59.28 256.689 59.16C256.921 59.032 257.097 58.888 257.217 58.728C257.345 58.56 257.433 58.416 257.481 58.296C257.537 58.176 257.565 58.116 257.565 58.116H258.417C258.417 58.116 258.397 58.184 258.357 58.32C258.317 58.448 258.245 58.612 258.141 58.812C258.037 59.012 257.885 59.212 257.685 59.412C257.493 59.612 257.245 59.78 256.941 59.916C256.637 60.052 256.261 60.12 255.813 60.12ZM253.773 56.352H257.601C257.577 55.864 257.477 55.472 257.301 55.176C257.133 54.872 256.913 54.652 256.641 54.516C256.369 54.38 256.077 54.312 255.765 54.312C255.197 54.312 254.737 54.5 254.385 54.876C254.033 55.244 253.829 55.736 253.773 56.352Z" fill="black"/>
<path d="M296.6 60L293.444 51.12H294.416L297.176 58.932L299.924 51.12H300.908L297.74 60H296.6ZM302.832 52.416C302.648 52.416 302.496 52.352 302.376 52.224C302.256 52.096 302.196 51.948 302.196 51.78C302.196 51.604 302.256 51.456 302.376 51.336C302.496 51.208 302.648 51.144 302.832 51.144C303.008 51.144 303.156 51.208 303.276 51.336C303.404 51.456 303.468 51.604 303.468 51.78C303.468 51.956 303.404 52.108 303.276 52.236C303.156 52.356 303.008 52.416 302.832 52.416ZM302.388 60V53.64H303.288V60H302.388ZM308.028 60.12C307.516 60.12 307.072 60.028 306.696 59.844C306.32 59.652 306.012 59.396 305.772 59.076C305.532 58.756 305.352 58.4 305.232 58.008C305.12 57.616 305.064 57.22 305.064 56.82C305.064 56.42 305.12 56.024 305.232 55.632C305.352 55.24 305.532 54.884 305.772 54.564C306.012 54.244 306.312 53.992 306.672 53.808C307.04 53.616 307.476 53.52 307.98 53.52C308.508 53.52 308.976 53.644 309.384 53.892C309.8 54.14 310.124 54.508 310.356 54.996C310.596 55.476 310.716 56.08 310.716 56.808V57.072H305.976C305.992 57.48 306.08 57.856 306.24 58.2C306.408 58.544 306.64 58.82 306.936 59.028C307.24 59.236 307.604 59.34 308.028 59.34C308.38 59.34 308.672 59.28 308.904 59.16C309.136 59.032 309.312 58.888 309.432 58.728C309.56 58.56 309.648 58.416 309.696 58.296C309.752 58.176 309.78 58.116 309.78 58.116H310.632C310.632 58.116 310.612 58.184 310.572 58.32C310.532 58.448 310.46 58.612 310.356 58.812C310.252 59.012 310.1 59.212 309.9 59.412C309.708 59.612 309.46 59.78 309.156 59.916C308.852 60.052 308.476 60.12 308.028 60.12ZM305.988 56.352H309.816C309.792 55.864 309.692 55.472 309.516 55.176C309.348 54.872 309.128 54.652 308.856 54.516C308.584 54.38 308.292 54.312 307.98 54.312C307.412 54.312 306.952 54.5 306.6 54.876C306.248 55.244 306.044 55.736 305.988 56.352Z" fill="black"/>
<path d="M347.888 60.12C347.368 60.12 346.924 60.056 346.556 59.928C346.196 59.792 345.896 59.62 345.656 59.412C345.424 59.204 345.236 58.984 345.092 58.752C344.956 58.52 344.856 58.3 344.792 58.092C344.728 57.884 344.688 57.716 344.672 57.588C344.656 57.452 344.648 57.384 344.648 57.384H345.584C345.584 57.384 345.592 57.448 345.608 57.576C345.632 57.704 345.68 57.864 345.752 58.056C345.832 58.24 345.956 58.428 346.124 58.62C346.292 58.804 346.52 58.96 346.808 59.088C347.096 59.208 347.464 59.268 347.912 59.268C348.52 59.268 349.012 59.112 349.388 58.8C349.764 58.488 349.952 58.084 349.952 57.588C349.952 57.124 349.8 56.772 349.496 56.532C349.2 56.292 348.808 56.112 348.32 55.992L347.18 55.716C346.748 55.604 346.36 55.456 346.016 55.272C345.672 55.08 345.4 54.836 345.2 54.54C345 54.236 344.9 53.864 344.9 53.424C344.9 52.92 345.024 52.488 345.272 52.128C345.52 51.768 345.856 51.492 346.28 51.3C346.704 51.1 347.188 51 347.732 51C348.276 51 348.724 51.084 349.076 51.252C349.428 51.42 349.708 51.628 349.916 51.876C350.124 52.116 350.276 52.36 350.372 52.608C350.476 52.856 350.54 53.064 350.564 53.232C350.596 53.4 350.612 53.484 350.612 53.484H349.7C349.7 53.484 349.692 53.428 349.676 53.316C349.66 53.204 349.616 53.068 349.544 52.908C349.48 52.74 349.376 52.576 349.232 52.416C349.088 52.248 348.892 52.108 348.644 51.996C348.396 51.884 348.084 51.828 347.708 51.828C347.084 51.828 346.612 51.984 346.292 52.296C345.972 52.6 345.812 52.956 345.812 53.364C345.812 53.74 345.94 54.04 346.196 54.264C346.46 54.488 346.824 54.656 347.288 54.768L348.5 55.068C348.956 55.18 349.36 55.34 349.712 55.548C350.072 55.756 350.356 56.024 350.564 56.352C350.772 56.68 350.876 57.076 350.876 57.54C350.876 58.004 350.756 58.432 350.516 58.824C350.284 59.216 349.944 59.532 349.496 59.772C349.056 60.004 348.52 60.12 347.888 60.12ZM355.112 53.52C355.552 53.52 355.916 53.596 356.204 53.748C356.492 53.892 356.72 54.064 356.888 54.264C357.064 54.464 357.192 54.636 357.272 54.78H357.344V53.64H358.232V60H357.344V58.86H357.272C357.192 59.012 357.064 59.188 356.888 59.388C356.72 59.58 356.492 59.752 356.204 59.904C355.916 60.048 355.552 60.12 355.112 60.12C354.632 60.12 354.212 60.028 353.852 59.844C353.492 59.652 353.192 59.4 352.952 59.088C352.712 58.768 352.532 58.412 352.412 58.02C352.3 57.628 352.244 57.228 352.244 56.82C352.244 56.412 352.3 56.012 352.412 55.62C352.532 55.228 352.712 54.876 352.952 54.564C353.192 54.244 353.492 53.992 353.852 53.808C354.212 53.616 354.632 53.52 355.112 53.52ZM355.244 54.3C354.772 54.3 354.38 54.424 354.068 54.672C353.756 54.92 353.524 55.236 353.372 55.62C353.22 56.004 353.144 56.404 353.144 56.82C353.144 57.236 353.22 57.636 353.372 58.02C353.524 58.404 353.756 58.72 354.068 58.968C354.38 59.216 354.772 59.34 355.244 59.34C355.708 59.34 356.092 59.216 356.396 58.968C356.708 58.72 356.94 58.404 357.092 58.02C357.252 57.636 357.332 57.236 357.332 56.82C357.332 56.404 357.252 56.004 357.092 55.62C356.94 55.236 356.708 54.92 356.396 54.672C356.092 54.424 355.708 54.3 355.244 54.3ZM363.257 60.12C362.817 60.12 362.453 60.048 362.165 59.904C361.877 59.752 361.645 59.576 361.469 59.376C361.301 59.176 361.173 59.004 361.085 58.86H361.025V60H360.125V50.88H361.025V54.78H361.085C361.173 54.628 361.301 54.456 361.469 54.264C361.645 54.064 361.877 53.892 362.165 53.748C362.453 53.596 362.817 53.52 363.257 53.52C363.737 53.52 364.157 53.616 364.517 53.808C364.877 53.992 365.173 54.244 365.405 54.564C365.645 54.876 365.825 55.228 365.945 55.62C366.065 56.012 366.125 56.412 366.125 56.82C366.125 57.228 366.065 57.628 365.945 58.02C365.825 58.412 365.645 58.768 365.405 59.088C365.173 59.4 364.877 59.652 364.517 59.844C364.157 60.028 363.737 60.12 363.257 60.12ZM363.125 59.34C363.597 59.34 363.985 59.216 364.289 58.968C364.601 58.72 364.833 58.404 364.985 58.02C365.145 57.636 365.225 57.236 365.225 56.82C365.225 56.404 365.145 56.004 364.985 55.62C364.833 55.236 364.601 54.92 364.289 54.672C363.985 54.424 363.597 54.3 363.125 54.3C362.661 54.3 362.273 54.424 361.961 54.672C361.649 54.92 361.417 55.236 361.265 55.62C361.113 56.004 361.037 56.404 361.037 56.82C361.037 57.236 361.113 57.636 361.265 58.02C361.417 58.404 361.649 58.72 361.961 58.968C362.273 59.216 362.661 59.34 363.125 59.34Z" fill="black"/>
<circle cx="38" cy="80" r="8" fill="#D9D9D9"/>
<circle cx="38" cy="111" r="8" fill="#D9D9D9"/>
<circle cx="38" cy="142" r="8" fill="#D9D9D9"/>
<circle cx="38" cy="173" r="8" fill="#D9D9D9"/>
<circle cx="91" cy="80" r="8" fill="#043381"/>
<circle cx="91" cy="111" r="8" fill="#D9D9D9"/>
<circle cx="91" cy="142" r="8" fill="#D9D9D9"/>
<circle cx="91" cy="173" r="8" fill="#D9D9D9"/>
<circle cx="144" cy="80" r="8" fill="#D9D9D9"/>
<circle cx="144" cy="111" r="8" fill="#043381"/>
<circle cx="144" cy="142" r="8" fill="#D9D9D9"/>
<circle cx="144" cy="173" r="8" fill="#D9D9D9"/>
<circle cx="197" cy="80" r="8" fill="#D9D9D9"/>
<circle cx="197" cy="111" r="8" fill="#D9D9D9"/>
<circle cx="197" cy="142" r="8" fill="#D9D9D9"/>
<circle cx="197" cy="173" r="8" fill="#D9D9D9"/>
<circle cx="250" cy="80" r="8" fill="#D9D9D9"/>
<circle cx="250" cy="111" r="8" fill="#D9D9D9"/>
<circle cx="250" cy="142" r="8" fill="#043381"/>
<circle cx="250" cy="173" r="8" fill="#D9D9D9"/>
<circle cx="303" cy="80" r="8" fill="#D9D9D9"/>
<circle cx="303" cy="111" r="8" fill="#D9D9D9"/>
<circle cx="303" cy="142" r="8" fill="#D9D9D9"/>
<circle cx="303" cy="173" r="8" fill="#D9D9D9"/>
<circle cx="356" cy="80" r="8" fill="#D9D9D9"/>
<circle cx="356" cy="111" r="8" fill="#043381"/>
<circle cx="356" cy="142" r="8" fill="#D9D9D9"/>
<circle cx="356" cy="173" r="8" fill="#D9D9D9"/>
<defs>
<filter id="filter0_d_1075_1216" x="0" y="0" width="393" height="211" filterUnits="userSpaceOnUse" color-interpolation-filters="sRGB">
<feFlood flood-opacity="0" result="BackgroundImageFix"/>
<feColorMatrix in="SourceAlpha" type="matrix" values="0 0 0 0 0 0 0 0 0 0 0 0 0 0 0 0 0 0 127 0" result="hardAlpha"/>
<feOffset dy="2"/>
<feGaussianBlur stdDeviation="1"/>
<feComposite in2="hardAlpha" operator="out"/>
<feColorMatrix type="matrix" values="0 0 0 0 0 0 0 0 0 0 0 0 0 0 0 0 0 0 0.25 0"/>
<feBlend mode="normal" in2="BackgroundImageFix" result="effect1_dropShadow_1075_1216"/>
<feBlend mode="normal" in="SourceGraphic" in2="effect1_dropShadow_1075_1216" result="shape"/>
</filter>
</defs>
</svg>
