<svg width="515" height="208" viewBox="0 0 515 208" fill="none" xmlns="http://www.w3.org/2000/svg">
<g filter="url(#filter0_d_738_33)">
<rect x="4" y="4" width="505" height="198" rx="10" fill="white"/>
</g>
<path d="M20.008 25V14.64H23.732C24.572 14.64 25.3047 14.7893 25.93 15.088C26.5647 15.3773 27.092 15.7693 27.512 16.264C27.932 16.7587 28.2447 17.314 28.45 17.93C28.6647 18.546 28.772 19.176 28.772 19.82C28.772 20.464 28.6647 21.094 28.45 21.71C28.2447 22.326 27.932 22.8813 27.512 23.376C27.092 23.8707 26.5647 24.2673 25.93 24.566C25.3047 24.8553 24.572 25 23.732 25H20.008ZM23.648 16.306H21.912V23.32H23.648C24.376 23.32 24.978 23.152 25.454 22.816C25.93 22.4707 26.2847 22.032 26.518 21.5C26.7513 20.9587 26.868 20.394 26.868 19.806C26.868 19.2273 26.7513 18.672 26.518 18.14C26.2847 17.5987 25.93 17.16 25.454 16.824C24.978 16.4787 24.376 16.306 23.648 16.306ZM31.3923 16.432C31.0656 16.432 30.795 16.3247 30.5803 16.11C30.375 15.8953 30.2723 15.6387 30.2723 15.34C30.2723 15.0413 30.375 14.7847 30.5803 14.57C30.795 14.3553 31.0656 14.248 31.3923 14.248C31.719 14.248 31.9896 14.3553 32.2043 14.57C32.419 14.7847 32.5263 15.0413 32.5263 15.34C32.5263 15.6387 32.419 15.8953 32.2043 16.11C31.9896 16.3247 31.719 16.432 31.3923 16.432ZM30.4683 25V17.58H32.3303V25H30.4683ZM37.2605 25.14C36.6538 25.14 36.1545 25.0607 35.7625 24.902C35.3705 24.734 35.0578 24.5287 34.8245 24.286C34.6005 24.034 34.4325 23.7867 34.3205 23.544C34.2085 23.3013 34.1338 23.1007 34.0965 22.942C34.0685 22.774 34.0545 22.69 34.0545 22.69H35.8185C35.8185 22.69 35.8325 22.7413 35.8605 22.844C35.8978 22.9467 35.9632 23.068 36.0565 23.208C36.1592 23.3387 36.3132 23.4553 36.5185 23.558C36.7238 23.6607 36.9945 23.712 37.3305 23.712C37.7318 23.712 38.0212 23.628 38.1985 23.46C38.3758 23.2827 38.4645 23.0867 38.4645 22.872C38.4645 22.6667 38.3852 22.5033 38.2265 22.382C38.0772 22.2513 37.8532 22.1533 37.5545 22.088L36.5325 21.878C36.1218 21.794 35.7392 21.6727 35.3845 21.514C35.0298 21.346 34.7405 21.122 34.5165 20.842C34.2925 20.5527 34.1805 20.184 34.1805 19.736C34.1805 19.0733 34.4325 18.5273 34.9365 18.098C35.4405 17.6593 36.1265 17.44 36.9945 17.44C37.5452 17.44 37.9978 17.5147 38.3525 17.664C38.7165 17.8133 39.0058 18 39.2205 18.224C39.4445 18.448 39.6078 18.672 39.7105 18.896C39.8225 19.12 39.8925 19.3113 39.9205 19.47C39.9578 19.6193 39.9765 19.694 39.9765 19.694H38.2685C38.2685 19.694 38.2545 19.652 38.2265 19.568C38.1985 19.4747 38.1378 19.372 38.0445 19.26C37.9605 19.148 37.8298 19.05 37.6525 18.966C37.4845 18.8727 37.2558 18.826 36.9665 18.826C36.5745 18.826 36.2945 18.91 36.1265 19.078C35.9678 19.246 35.8885 19.4233 35.8885 19.61C35.8885 19.8153 35.9772 19.974 36.1545 20.086C36.3318 20.198 36.5605 20.282 36.8405 20.338L37.8065 20.548C38.4972 20.688 39.0618 20.9307 39.5005 21.276C39.9485 21.6213 40.1725 22.1207 40.1725 22.774C40.1725 23.2127 40.0558 23.614 39.8225 23.978C39.5985 24.3327 39.2672 24.6173 38.8285 24.832C38.3992 25.0373 37.8765 25.14 37.2605 25.14ZM44.8566 25.14C44.3526 25.14 43.9372 25.0653 43.6106 24.916C43.2839 24.7667 43.0272 24.5707 42.8406 24.328C42.6632 24.0853 42.5372 23.8193 42.4626 23.53C42.3879 23.2407 42.3506 22.956 42.3506 22.676V19.078H41.0766V17.58H42.3506V15.732H44.2126V17.58H45.8786V19.078H44.2126V22.634C44.2126 23.2967 44.5859 23.628 45.3326 23.628C45.5099 23.628 45.6732 23.6187 45.8226 23.6C45.9812 23.572 46.0606 23.558 46.0606 23.558V25.014C46.0606 25.014 45.9392 25.0327 45.6966 25.07C45.4632 25.1167 45.1832 25.14 44.8566 25.14ZM47.5809 25V17.58H49.4289V18.602H49.4989C49.6296 18.3127 49.8442 18.0467 50.1429 17.804C50.4416 17.5613 50.8896 17.44 51.4869 17.44C51.6736 17.44 51.8276 17.454 51.9489 17.482C52.0702 17.5007 52.1309 17.51 52.1309 17.51V19.316C52.1309 19.316 52.0609 19.3067 51.9209 19.288C51.7902 19.2693 51.6269 19.26 51.4309 19.26C50.7776 19.26 50.2829 19.442 49.9469 19.806C49.6109 20.17 49.4429 20.758 49.4429 21.57V25H47.5809ZM54.7439 16.432C54.4172 16.432 54.1465 16.3247 53.9319 16.11C53.7265 15.8953 53.6239 15.6387 53.6239 15.34C53.6239 15.0413 53.7265 14.7847 53.9319 14.57C54.1465 14.3553 54.4172 14.248 54.7439 14.248C55.0705 14.248 55.3412 14.3553 55.5559 14.57C55.7705 14.7847 55.8779 15.0413 55.8779 15.34C55.8779 15.6387 55.7705 15.8953 55.5559 16.11C55.3412 16.3247 55.0705 16.432 54.7439 16.432ZM53.8199 25V17.58H55.6819V25H53.8199ZM61.97 25.14C61.494 25.14 61.102 25.0653 60.794 24.916C60.486 24.7573 60.2434 24.5847 60.066 24.398C59.898 24.2113 59.7814 24.0667 59.716 23.964H59.618V25H57.756V14.36H59.618V18.616H59.716C59.7814 18.504 59.898 18.3547 60.066 18.168C60.2434 17.9813 60.486 17.8133 60.794 17.664C61.102 17.5147 61.494 17.44 61.97 17.44C62.53 17.44 63.0154 17.552 63.426 17.776C63.8367 17.9907 64.1774 18.2847 64.448 18.658C64.7187 19.022 64.9194 19.4327 65.05 19.89C65.19 20.3473 65.26 20.814 65.26 21.29C65.26 21.766 65.19 22.2327 65.05 22.69C64.9194 23.1473 64.7187 23.5627 64.448 23.936C64.1774 24.3 63.8367 24.594 63.426 24.818C63.0154 25.0327 62.53 25.14 61.97 25.14ZM61.48 23.614C61.9094 23.614 62.264 23.502 62.544 23.278C62.824 23.0447 63.034 22.7507 63.174 22.396C63.314 22.0413 63.384 21.6727 63.384 21.29C63.384 20.9073 63.314 20.5387 63.174 20.184C63.034 19.8293 62.824 19.54 62.544 19.316C62.264 19.0827 61.9094 18.966 61.48 18.966C61.06 18.966 60.71 19.0827 60.43 19.316C60.15 19.54 59.94 19.8293 59.8 20.184C59.66 20.5387 59.59 20.9073 59.59 21.29C59.59 21.6727 59.66 22.0413 59.8 22.396C59.94 22.7507 60.15 23.0447 60.43 23.278C60.71 23.502 61.06 23.614 61.48 23.614ZM69.2376 25.14C68.4629 25.14 67.8749 24.902 67.4736 24.426C67.0816 23.95 66.8856 23.3387 66.8856 22.592V17.58H68.7336V22.284C68.7336 22.6853 68.8409 23.0073 69.0556 23.25C69.2702 23.4833 69.5736 23.6 69.9656 23.6C70.3109 23.6 70.5909 23.5113 70.8056 23.334C71.0202 23.1567 71.1742 22.928 71.2676 22.648C71.3702 22.368 71.4216 22.0787 71.4216 21.78V17.58H73.2836V25H71.4216V23.936H71.3376C71.2442 24.104 71.1089 24.2813 70.9316 24.468C70.7636 24.6547 70.5396 24.8133 70.2596 24.944C69.9889 25.0747 69.6482 25.14 69.2376 25.14ZM78.7023 25.14C78.0677 25.14 77.5123 25.0327 77.0363 24.818C76.5603 24.594 76.1637 24.3 75.8463 23.936C75.529 23.5627 75.291 23.1473 75.1323 22.69C74.983 22.2327 74.9083 21.766 74.9083 21.29C74.9083 20.814 74.983 20.3473 75.1323 19.89C75.291 19.4327 75.5243 19.022 75.8323 18.658C76.1497 18.2847 76.5463 17.9907 77.0223 17.776C77.4983 17.552 78.0583 17.44 78.7023 17.44C79.337 17.44 79.8643 17.5333 80.2843 17.72C80.7043 17.9067 81.0357 18.14 81.2783 18.42C81.5303 18.7 81.717 18.98 81.8383 19.26C81.9597 19.5307 82.039 19.7593 82.0763 19.946C82.1137 20.1327 82.1323 20.226 82.1323 20.226H80.3823C80.3823 20.226 80.3637 20.1653 80.3263 20.044C80.289 19.9133 80.2143 19.764 80.1023 19.596C79.9903 19.428 79.8223 19.2787 79.5983 19.148C79.3837 19.0173 79.0943 18.952 78.7303 18.952C78.301 18.952 77.937 19.064 77.6383 19.288C77.349 19.5027 77.1297 19.7873 76.9803 20.142C76.831 20.4967 76.7563 20.8793 76.7563 21.29C76.7563 21.7007 76.831 22.0833 76.9803 22.438C77.1297 22.7927 77.349 23.082 77.6383 23.306C77.937 23.5207 78.301 23.628 78.7303 23.628C79.0943 23.628 79.3837 23.5627 79.5983 23.432C79.8223 23.3013 79.9903 23.152 80.1023 22.984C80.2143 22.816 80.289 22.6713 80.3263 22.55C80.3637 22.4193 80.3823 22.354 80.3823 22.354H82.1323C82.1323 22.354 82.1137 22.4473 82.0763 22.634C82.039 22.8207 81.9597 23.054 81.8383 23.334C81.717 23.6047 81.5303 23.88 81.2783 24.16C81.0357 24.44 80.7043 24.6733 80.2843 24.86C79.8643 25.0467 79.337 25.14 78.7023 25.14ZM84.8767 16.432C84.55 16.432 84.2793 16.3247 84.0647 16.11C83.8593 15.8953 83.7567 15.6387 83.7567 15.34C83.7567 15.0413 83.8593 14.7847 84.0647 14.57C84.2793 14.3553 84.55 14.248 84.8767 14.248C85.2033 14.248 85.474 14.3553 85.6887 14.57C85.9033 14.7847 86.0107 15.0413 86.0107 15.34C86.0107 15.6387 85.9033 15.8953 85.6887 16.11C85.474 16.3247 85.2033 16.432 84.8767 16.432ZM83.9527 25V17.58H85.8147V25H83.9527ZM92.1869 16.516L90.7589 16.502L91.9069 13.982H93.6849L92.1869 16.516ZM91.4729 25.14C90.6515 25.14 89.9562 24.958 89.3869 24.594C88.8269 24.23 88.3975 23.7587 88.0989 23.18C87.8095 22.592 87.6649 21.962 87.6649 21.29C87.6649 20.618 87.8095 19.9927 88.0989 19.414C88.3975 18.826 88.8269 18.35 89.3869 17.986C89.9562 17.622 90.6515 17.44 91.4729 17.44C92.2942 17.44 92.9849 17.622 93.5449 17.986C94.1142 18.35 94.5435 18.826 94.8329 19.414C95.1315 19.9927 95.2809 20.618 95.2809 21.29C95.2809 21.962 95.1315 22.592 94.8329 23.18C94.5435 23.7587 94.1142 24.23 93.5449 24.594C92.9849 24.958 92.2942 25.14 91.4729 25.14ZM91.4729 23.586C91.8835 23.586 92.2335 23.4787 92.5229 23.264C92.8122 23.0493 93.0315 22.7693 93.1809 22.424C93.3302 22.0693 93.4049 21.6913 93.4049 21.29C93.4049 20.8793 93.3302 20.5013 93.1809 20.156C93.0315 19.8107 92.8122 19.5307 92.5229 19.316C92.2335 19.1013 91.8835 18.994 91.4729 18.994C91.0622 18.994 90.7122 19.1013 90.4229 19.316C90.1335 19.5307 89.9142 19.8107 89.7649 20.156C89.6155 20.5013 89.5409 20.8793 89.5409 21.29C89.5409 21.6913 89.6155 22.0693 89.7649 22.424C89.9142 22.7693 90.1335 23.0493 90.4229 23.264C90.7122 23.4787 91.0622 23.586 91.4729 23.586ZM96.8817 25V17.58H98.7437V18.644H98.8277C98.9023 18.5133 99.019 18.3547 99.1777 18.168C99.3363 17.972 99.5557 17.804 99.8357 17.664C100.116 17.5147 100.47 17.44 100.9 17.44C101.469 17.44 101.936 17.5707 102.3 17.832C102.673 18.084 102.948 18.42 103.126 18.84C103.312 19.26 103.406 19.7127 103.406 20.198V25H101.544V20.45C101.544 20.0487 101.432 19.7033 101.208 19.414C100.984 19.1247 100.648 18.98 100.2 18.98C99.8543 18.98 99.5743 19.0687 99.3597 19.246C99.145 19.414 98.9863 19.6333 98.8837 19.904C98.7903 20.1747 98.7437 20.4593 98.7437 20.758V25H96.8817ZM111.544 25.14C110.993 25.14 110.513 25.0327 110.102 24.818C109.691 24.594 109.346 24.3 109.066 23.936C108.795 23.5627 108.59 23.1473 108.45 22.69C108.319 22.2327 108.254 21.766 108.254 21.29C108.254 20.814 108.319 20.3473 108.45 19.89C108.59 19.4327 108.795 19.022 109.066 18.658C109.346 18.2847 109.691 17.9907 110.102 17.776C110.513 17.552 110.993 17.44 111.544 17.44C112.02 17.44 112.412 17.5193 112.72 17.678C113.028 17.8273 113.271 17.9953 113.448 18.182C113.625 18.3593 113.747 18.504 113.812 18.616H113.896V14.36H115.758V25H113.896V23.964H113.812C113.747 24.076 113.625 24.2253 113.448 24.412C113.271 24.5987 113.028 24.7667 112.72 24.916C112.412 25.0653 112.02 25.14 111.544 25.14ZM112.034 23.614C112.454 23.614 112.804 23.502 113.084 23.278C113.364 23.0447 113.574 22.7507 113.714 22.396C113.854 22.0413 113.924 21.6727 113.924 21.29C113.924 20.9073 113.854 20.5387 113.714 20.184C113.574 19.8293 113.364 19.54 113.084 19.316C112.804 19.0827 112.454 18.966 112.034 18.966C111.614 18.966 111.259 19.0827 110.97 19.316C110.69 19.54 110.48 19.8293 110.34 20.184C110.2 20.5387 110.13 20.9073 110.13 21.29C110.13 21.6727 110.2 22.0413 110.34 22.396C110.48 22.7507 110.69 23.0447 110.97 23.278C111.259 23.502 111.614 23.614 112.034 23.614ZM121.165 25.14C120.53 25.14 119.98 25.0327 119.513 24.818C119.056 24.594 118.673 24.3 118.365 23.936C118.066 23.5627 117.842 23.1473 117.693 22.69C117.544 22.2327 117.469 21.766 117.469 21.29C117.469 20.814 117.539 20.352 117.679 19.904C117.828 19.4467 118.048 19.0313 118.337 18.658C118.636 18.2847 119.014 17.9907 119.471 17.776C119.928 17.552 120.47 17.44 121.095 17.44C121.767 17.44 122.36 17.5893 122.873 17.888C123.386 18.1867 123.788 18.6253 124.077 19.204C124.366 19.7733 124.511 20.4827 124.511 21.332V21.808H119.345C119.373 22.312 119.546 22.7507 119.863 23.124C120.18 23.488 120.614 23.67 121.165 23.67C121.482 23.67 121.744 23.6187 121.949 23.516C122.154 23.4133 122.313 23.2967 122.425 23.166C122.537 23.026 122.616 22.9093 122.663 22.816C122.71 22.7133 122.733 22.662 122.733 22.662H124.455C124.455 22.662 124.432 22.746 124.385 22.914C124.338 23.0727 124.25 23.278 124.119 23.53C123.998 23.7727 123.816 24.02 123.573 24.272C123.33 24.5147 123.013 24.72 122.621 24.888C122.229 25.056 121.744 25.14 121.165 25.14ZM119.345 20.59H122.719C122.691 20.0113 122.518 19.582 122.201 19.302C121.884 19.022 121.51 18.882 121.081 18.882C120.605 18.882 120.208 19.036 119.891 19.344C119.574 19.6427 119.392 20.058 119.345 20.59ZM132.712 25.14C132.208 25.14 131.793 25.0653 131.466 24.916C131.139 24.7667 130.883 24.5707 130.696 24.328C130.519 24.0853 130.393 23.8193 130.318 23.53C130.243 23.2407 130.206 22.956 130.206 22.676V19.078H128.932V17.58H130.206V15.732H132.068V17.58H133.734V19.078H132.068V22.634C132.068 23.2967 132.441 23.628 133.188 23.628C133.365 23.628 133.529 23.6187 133.678 23.6C133.837 23.572 133.916 23.558 133.916 23.558V25.014C133.916 25.014 133.795 25.0327 133.552 25.07C133.319 25.1167 133.039 25.14 132.712 25.14ZM137.788 25.14C137.014 25.14 136.426 24.902 136.024 24.426C135.632 23.95 135.436 23.3387 135.436 22.592V17.58H137.284V22.284C137.284 22.6853 137.392 23.0073 137.606 23.25C137.821 23.4833 138.124 23.6 138.516 23.6C138.862 23.6 139.142 23.5113 139.356 23.334C139.571 23.1567 139.725 22.928 139.818 22.648C139.921 22.368 139.972 22.0787 139.972 21.78V17.58H141.834V25H139.972V23.936H139.888C139.795 24.104 139.66 24.2813 139.482 24.468C139.314 24.6547 139.09 24.8133 138.81 24.944C138.54 25.0747 138.199 25.14 137.788 25.14ZM143.571 25V17.58H145.419V18.602H145.489C145.62 18.3127 145.834 18.0467 146.133 17.804C146.432 17.5613 146.88 17.44 147.477 17.44C147.664 17.44 147.818 17.454 147.939 17.482C148.06 17.5007 148.121 17.51 148.121 17.51V19.316C148.121 19.316 148.051 19.3067 147.911 19.288C147.78 19.2693 147.617 19.26 147.421 19.26C146.768 19.26 146.273 19.442 145.937 19.806C145.601 20.17 145.433 20.758 145.433 21.57V25H143.571ZM149.395 25V17.58H151.257V18.644H151.341C151.416 18.5133 151.533 18.3547 151.691 18.168C151.85 17.972 152.069 17.804 152.349 17.664C152.629 17.5147 152.984 17.44 153.413 17.44C153.983 17.44 154.449 17.5707 154.813 17.832C155.187 18.084 155.462 18.42 155.639 18.84C155.826 19.26 155.919 19.7127 155.919 20.198V25H154.057V20.45C154.057 20.0487 153.945 19.7033 153.721 19.414C153.497 19.1247 153.161 18.98 152.713 18.98C152.368 18.98 152.088 19.0687 151.873 19.246C151.659 19.414 151.5 19.6333 151.397 19.904C151.304 20.1747 151.257 20.4593 151.257 20.758V25H149.395ZM161.294 25.14C160.482 25.14 159.792 24.958 159.222 24.594C158.653 24.23 158.219 23.7587 157.92 23.18C157.631 22.592 157.486 21.962 157.486 21.29C157.486 20.618 157.631 19.9927 157.92 19.414C158.219 18.826 158.653 18.35 159.222 17.986C159.792 17.622 160.482 17.44 161.294 17.44C162.116 17.44 162.806 17.622 163.366 17.986C163.936 18.35 164.365 18.826 164.654 19.414C164.953 19.9927 165.102 20.618 165.102 21.29C165.102 21.962 164.953 22.592 164.654 23.18C164.365 23.7587 163.936 24.23 163.366 24.594C162.806 24.958 162.116 25.14 161.294 25.14ZM161.294 23.586C161.714 23.586 162.064 23.4787 162.344 23.264C162.634 23.0493 162.853 22.7693 163.002 22.424C163.152 22.0693 163.226 21.6913 163.226 21.29C163.226 20.8793 163.152 20.5013 163.002 20.156C162.853 19.8107 162.634 19.5307 162.344 19.316C162.064 19.1013 161.714 18.994 161.294 18.994C160.884 18.994 160.534 19.1013 160.244 19.316C159.955 19.5307 159.736 19.8107 159.586 20.156C159.437 20.5013 159.362 20.8793 159.362 21.29C159.362 21.6913 159.437 22.0693 159.586 22.424C159.736 22.7693 159.955 23.0493 160.244 23.264C160.534 23.4787 160.884 23.586 161.294 23.586ZM169.727 25.14C169.121 25.14 168.621 25.0607 168.229 24.902C167.837 24.734 167.525 24.5287 167.291 24.286C167.067 24.034 166.899 23.7867 166.787 23.544C166.675 23.3013 166.601 23.1007 166.563 22.942C166.535 22.774 166.521 22.69 166.521 22.69H168.285C168.285 22.69 168.299 22.7413 168.327 22.844C168.365 22.9467 168.43 23.068 168.523 23.208C168.626 23.3387 168.78 23.4553 168.985 23.558C169.191 23.6607 169.461 23.712 169.797 23.712C170.199 23.712 170.488 23.628 170.665 23.46C170.843 23.2827 170.931 23.0867 170.931 22.872C170.931 22.6667 170.852 22.5033 170.693 22.382C170.544 22.2513 170.32 22.1533 170.021 22.088L168.999 21.878C168.589 21.794 168.206 21.6727 167.851 21.514C167.497 21.346 167.207 21.122 166.983 20.842C166.759 20.5527 166.647 20.184 166.647 19.736C166.647 19.0733 166.899 18.5273 167.403 18.098C167.907 17.6593 168.593 17.44 169.461 17.44C170.012 17.44 170.465 17.5147 170.819 17.664C171.183 17.8133 171.473 18 171.687 18.224C171.911 18.448 172.075 18.672 172.177 18.896C172.289 19.12 172.359 19.3113 172.387 19.47C172.425 19.6193 172.443 19.694 172.443 19.694H170.735C170.735 19.694 170.721 19.652 170.693 19.568C170.665 19.4747 170.605 19.372 170.511 19.26C170.427 19.148 170.297 19.05 170.119 18.966C169.951 18.8727 169.723 18.826 169.433 18.826C169.041 18.826 168.761 18.91 168.593 19.078C168.435 19.246 168.355 19.4233 168.355 19.61C168.355 19.8153 168.444 19.974 168.621 20.086C168.799 20.198 169.027 20.282 169.307 20.338L170.273 20.548C170.964 20.688 171.529 20.9307 171.967 21.276C172.415 21.6213 172.639 22.1207 172.639 22.774C172.639 23.2127 172.523 23.614 172.289 23.978C172.065 24.3327 171.734 24.6173 171.295 24.832C170.866 25.0373 170.343 25.14 169.727 25.14ZM177.481 27.744V17.58H179.343V18.616H179.441C179.506 18.504 179.623 18.3547 179.791 18.168C179.968 17.9813 180.211 17.8133 180.519 17.664C180.827 17.5147 181.219 17.44 181.695 17.44C182.255 17.44 182.74 17.552 183.151 17.776C183.561 17.9907 183.902 18.2847 184.173 18.658C184.443 19.022 184.644 19.4327 184.775 19.89C184.915 20.3473 184.985 20.814 184.985 21.29C184.985 21.766 184.915 22.2327 184.775 22.69C184.644 23.1473 184.443 23.5627 184.173 23.936C183.902 24.3 183.561 24.594 183.151 24.818C182.74 25.0327 182.255 25.14 181.695 25.14C181.219 25.14 180.827 25.0653 180.519 24.916C180.211 24.7573 179.968 24.5847 179.791 24.398C179.623 24.2113 179.506 24.0667 179.441 23.964H179.343V27.744H177.481ZM179.315 21.29C179.315 21.6727 179.385 22.0413 179.525 22.396C179.665 22.7507 179.875 23.0447 180.155 23.278C180.435 23.502 180.785 23.614 181.205 23.614C181.634 23.614 181.989 23.502 182.269 23.278C182.549 23.0447 182.759 22.7507 182.899 22.396C183.039 22.0413 183.109 21.6727 183.109 21.29C183.109 20.9073 183.039 20.5387 182.899 20.184C182.759 19.8293 182.549 19.54 182.269 19.316C181.989 19.0827 181.634 18.966 181.205 18.966C180.785 18.966 180.435 19.0827 180.155 19.316C179.875 19.54 179.665 19.8293 179.525 20.184C179.385 20.5387 179.315 20.9073 179.315 21.29ZM190.238 25.14C189.426 25.14 188.735 24.958 188.166 24.594C187.596 24.23 187.162 23.7587 186.864 23.18C186.574 22.592 186.43 21.962 186.43 21.29C186.43 20.618 186.574 19.9927 186.864 19.414C187.162 18.826 187.596 18.35 188.166 17.986C188.735 17.622 189.426 17.44 190.238 17.44C191.059 17.44 191.75 17.622 192.31 17.986C192.879 18.35 193.308 18.826 193.598 19.414C193.896 19.9927 194.046 20.618 194.046 21.29C194.046 21.962 193.896 22.592 193.598 23.18C193.308 23.7587 192.879 24.23 192.31 24.594C191.75 24.958 191.059 25.14 190.238 25.14ZM190.238 23.586C190.658 23.586 191.008 23.4787 191.288 23.264C191.577 23.0493 191.796 22.7693 191.946 22.424C192.095 22.0693 192.17 21.6913 192.17 21.29C192.17 20.8793 192.095 20.5013 191.946 20.156C191.796 19.8107 191.577 19.5307 191.288 19.316C191.008 19.1013 190.658 18.994 190.238 18.994C189.827 18.994 189.477 19.1013 189.188 19.316C188.898 19.5307 188.679 19.8107 188.53 20.156C188.38 20.5013 188.306 20.8793 188.306 21.29C188.306 21.6913 188.38 22.0693 188.53 22.424C188.679 22.7693 188.898 23.0493 189.188 23.264C189.477 23.4787 189.827 23.586 190.238 23.586ZM195.675 25V17.58H197.523V18.602H197.593C197.723 18.3127 197.938 18.0467 198.237 17.804C198.535 17.5613 198.983 17.44 199.581 17.44C199.767 17.44 199.921 17.454 200.043 17.482C200.164 17.5007 200.225 17.51 200.225 17.51V19.316C200.225 19.316 200.155 19.3067 200.015 19.288C199.884 19.2693 199.721 19.26 199.525 19.26C198.871 19.26 198.377 19.442 198.041 19.806C197.705 20.17 197.537 20.758 197.537 21.57V25H195.675ZM207.903 25.14C207.353 25.14 206.872 25.0327 206.461 24.818C206.051 24.594 205.705 24.3 205.425 23.936C205.155 23.5627 204.949 23.1473 204.809 22.69C204.679 22.2327 204.613 21.766 204.613 21.29C204.613 20.814 204.679 20.3473 204.809 19.89C204.949 19.4327 205.155 19.022 205.425 18.658C205.705 18.2847 206.051 17.9907 206.461 17.776C206.872 17.552 207.353 17.44 207.903 17.44C208.379 17.44 208.771 17.5193 209.079 17.678C209.387 17.8273 209.63 17.9953 209.807 18.182C209.985 18.3593 210.106 18.504 210.171 18.616H210.255V14.36H212.117V25H210.255V23.964H210.171C210.106 24.076 209.985 24.2253 209.807 24.412C209.63 24.5987 209.387 24.7667 209.079 24.916C208.771 25.0653 208.379 25.14 207.903 25.14ZM208.393 23.614C208.813 23.614 209.163 23.502 209.443 23.278C209.723 23.0447 209.933 22.7507 210.073 22.396C210.213 22.0413 210.283 21.6727 210.283 21.29C210.283 20.9073 210.213 20.5387 210.073 20.184C209.933 19.8293 209.723 19.54 209.443 19.316C209.163 19.0827 208.813 18.966 208.393 18.966C207.973 18.966 207.619 19.0827 207.329 19.316C207.049 19.54 206.839 19.8293 206.699 20.184C206.559 20.5387 206.489 20.9073 206.489 21.29C206.489 21.6727 206.559 22.0413 206.699 22.396C206.839 22.7507 207.049 23.0447 207.329 23.278C207.619 23.502 207.973 23.614 208.393 23.614ZM216.347 25.14C215.572 25.14 214.984 24.902 214.583 24.426C214.191 23.95 213.995 23.3387 213.995 22.592V17.58H215.843V22.284C215.843 22.6853 215.95 23.0073 216.165 23.25C216.38 23.4833 216.683 23.6 217.075 23.6C217.42 23.6 217.7 23.5113 217.915 23.334C218.13 23.1567 218.284 22.928 218.377 22.648C218.48 22.368 218.531 22.0787 218.531 21.78V17.58H220.393V25H218.531V23.936H218.447C218.354 24.104 218.218 24.2813 218.041 24.468C217.873 24.6547 217.649 24.8133 217.369 24.944C217.098 25.0747 216.758 25.14 216.347 25.14ZM222.13 25V17.58H223.978V18.602H224.048C224.178 18.3127 224.393 18.0467 224.692 17.804C224.99 17.5613 225.438 17.44 226.036 17.44C226.222 17.44 226.376 17.454 226.498 17.482C226.619 17.5007 226.68 17.51 226.68 17.51V19.316C226.68 19.316 226.61 19.3067 226.47 19.288C226.339 19.2693 226.176 19.26 225.98 19.26C225.326 19.26 224.832 19.442 224.496 19.806C224.16 20.17 223.992 20.758 223.992 21.57V25H222.13ZM230.735 17.44C231.211 17.44 231.603 17.5193 231.911 17.678C232.219 17.8273 232.462 17.9953 232.639 18.182C232.817 18.3593 232.938 18.504 233.003 18.616H233.087V17.58H234.949V25H233.087V23.964H233.003C232.938 24.076 232.817 24.2253 232.639 24.412C232.462 24.5987 232.219 24.7667 231.911 24.916C231.603 25.0653 231.211 25.14 230.735 25.14C230.185 25.14 229.704 25.0327 229.293 24.818C228.883 24.594 228.537 24.3 228.257 23.936C227.987 23.5627 227.781 23.1473 227.641 22.69C227.511 22.2327 227.445 21.766 227.445 21.29C227.445 20.814 227.511 20.3473 227.641 19.89C227.781 19.4327 227.987 19.022 228.257 18.658C228.537 18.2847 228.883 17.9907 229.293 17.776C229.704 17.552 230.185 17.44 230.735 17.44ZM231.225 18.966C230.805 18.966 230.451 19.0827 230.161 19.316C229.881 19.54 229.671 19.8293 229.531 20.184C229.391 20.5387 229.321 20.9073 229.321 21.29C229.321 21.6727 229.391 22.0413 229.531 22.396C229.671 22.7507 229.881 23.0447 230.161 23.278C230.451 23.502 230.805 23.614 231.225 23.614C231.645 23.614 231.995 23.502 232.275 23.278C232.555 23.0447 232.765 22.7507 232.905 22.396C233.045 22.0413 233.115 21.6727 233.115 21.29C233.115 20.9073 233.045 20.5387 232.905 20.184C232.765 19.8293 232.555 19.54 232.275 19.316C231.995 19.0827 231.645 18.966 231.225 18.966ZM240.427 25.14C239.792 25.14 239.237 25.0327 238.761 24.818C238.285 24.594 237.888 24.3 237.571 23.936C237.254 23.5627 237.016 23.1473 236.857 22.69C236.708 22.2327 236.633 21.766 236.633 21.29C236.633 20.814 236.708 20.3473 236.857 19.89C237.016 19.4327 237.249 19.022 237.557 18.658C237.874 18.2847 238.271 17.9907 238.747 17.776C239.223 17.552 239.783 17.44 240.427 17.44C241.062 17.44 241.589 17.5333 242.009 17.72C242.429 17.9067 242.76 18.14 243.003 18.42C243.255 18.7 243.442 18.98 243.563 19.26C243.684 19.5307 243.764 19.7593 243.801 19.946C243.838 20.1327 243.857 20.226 243.857 20.226H242.107C242.107 20.226 242.088 20.1653 242.051 20.044C242.014 19.9133 241.939 19.764 241.827 19.596C241.715 19.428 241.547 19.2787 241.323 19.148C241.108 19.0173 240.819 18.952 240.455 18.952C240.026 18.952 239.662 19.064 239.363 19.288C239.074 19.5027 238.854 19.7873 238.705 20.142C238.556 20.4967 238.481 20.8793 238.481 21.29C238.481 21.7007 238.556 22.0833 238.705 22.438C238.854 22.7927 239.074 23.082 239.363 23.306C239.662 23.5207 240.026 23.628 240.455 23.628C240.819 23.628 241.108 23.5627 241.323 23.432C241.547 23.3013 241.715 23.152 241.827 22.984C241.939 22.816 242.014 22.6713 242.051 22.55C242.088 22.4193 242.107 22.354 242.107 22.354H243.857C243.857 22.354 243.838 22.4473 243.801 22.634C243.764 22.8207 243.684 23.054 243.563 23.334C243.442 23.6047 243.255 23.88 243.003 24.16C242.76 24.44 242.429 24.6733 242.009 24.86C241.589 25.0467 241.062 25.14 240.427 25.14ZM246.601 16.432C246.275 16.432 246.004 16.3247 245.789 16.11C245.584 15.8953 245.481 15.6387 245.481 15.34C245.481 15.0413 245.584 14.7847 245.789 14.57C246.004 14.3553 246.275 14.248 246.601 14.248C246.928 14.248 247.199 14.3553 247.413 14.57C247.628 14.7847 247.735 15.0413 247.735 15.34C247.735 15.6387 247.628 15.8953 247.413 16.11C247.199 16.3247 246.928 16.432 246.601 16.432ZM245.677 25V17.58H247.539V25H245.677ZM253.911 16.516L252.483 16.502L253.631 13.982H255.409L253.911 16.516ZM253.197 25.14C252.376 25.14 251.681 24.958 251.111 24.594C250.551 24.23 250.122 23.7587 249.823 23.18C249.534 22.592 249.389 21.962 249.389 21.29C249.389 20.618 249.534 19.9927 249.823 19.414C250.122 18.826 250.551 18.35 251.111 17.986C251.681 17.622 252.376 17.44 253.197 17.44C254.019 17.44 254.709 17.622 255.269 17.986C255.839 18.35 256.268 18.826 256.557 19.414C256.856 19.9927 257.005 20.618 257.005 21.29C257.005 21.962 256.856 22.592 256.557 23.18C256.268 23.7587 255.839 24.23 255.269 24.594C254.709 24.958 254.019 25.14 253.197 25.14ZM253.197 23.586C253.608 23.586 253.958 23.4787 254.247 23.264C254.537 23.0493 254.756 22.7693 254.905 22.424C255.055 22.0693 255.129 21.6913 255.129 21.29C255.129 20.8793 255.055 20.5013 254.905 20.156C254.756 19.8107 254.537 19.5307 254.247 19.316C253.958 19.1013 253.608 18.994 253.197 18.994C252.787 18.994 252.437 19.1013 252.147 19.316C251.858 19.5307 251.639 19.8107 251.489 20.156C251.34 20.5013 251.265 20.8793 251.265 21.29C251.265 21.6913 251.34 22.0693 251.489 22.424C251.639 22.7693 251.858 23.0493 252.147 23.264C252.437 23.4787 252.787 23.586 253.197 23.586ZM258.606 25V17.58H260.468V18.644H260.552C260.627 18.5133 260.744 18.3547 260.902 18.168C261.061 17.972 261.28 17.804 261.56 17.664C261.84 17.5147 262.195 17.44 262.624 17.44C263.194 17.44 263.66 17.5707 264.024 17.832C264.398 18.084 264.673 18.42 264.85 18.84C265.037 19.26 265.13 19.7127 265.13 20.198V25H263.268V20.45C263.268 20.0487 263.156 19.7033 262.932 19.414C262.708 19.1247 262.372 18.98 261.924 18.98C261.579 18.98 261.299 19.0687 261.084 19.246C260.87 19.414 260.711 19.6333 260.608 19.904C260.515 20.1747 260.468 20.4593 260.468 20.758V25H258.606Z" fill="#414141"/>
<path d="M204.324 193L201.264 184.12H202.968L205.392 191.344L207.816 184.12H209.52L206.448 193H204.324ZM213.045 193.12C212.349 193.12 211.757 192.964 211.269 192.652C210.781 192.34 210.409 191.936 210.153 191.44C209.905 190.936 209.781 190.396 209.781 189.82C209.781 189.244 209.905 188.708 210.153 188.212C210.409 187.708 210.781 187.3 211.269 186.988C211.757 186.676 212.349 186.52 213.045 186.52C213.749 186.52 214.341 186.676 214.821 186.988C215.309 187.3 215.677 187.708 215.925 188.212C216.181 188.708 216.309 189.244 216.309 189.82C216.309 190.396 216.181 190.936 215.925 191.44C215.677 191.936 215.309 192.34 214.821 192.652C214.341 192.964 213.749 193.12 213.045 193.12ZM213.045 191.788C213.405 191.788 213.705 191.696 213.945 191.512C214.193 191.328 214.381 191.088 214.509 190.792C214.637 190.488 214.701 190.164 214.701 189.82C214.701 189.468 214.637 189.144 214.509 188.848C214.381 188.552 214.193 188.312 213.945 188.128C213.705 187.944 213.405 187.852 213.045 187.852C212.693 187.852 212.393 187.944 212.145 188.128C211.897 188.312 211.709 188.552 211.581 188.848C211.453 189.144 211.389 189.468 211.389 189.82C211.389 190.164 211.453 190.488 211.581 190.792C211.709 191.088 211.897 191.328 212.145 191.512C212.393 191.696 212.693 191.788 213.045 191.788ZM217.778 193L217.79 183.88H219.374V193H217.778ZM223.002 193.12C222.338 193.12 221.834 192.916 221.49 192.508C221.154 192.1 220.986 191.576 220.986 190.936V186.64H222.57V190.672C222.57 191.016 222.662 191.292 222.846 191.5C223.03 191.7 223.29 191.8 223.626 191.8C223.922 191.8 224.162 191.724 224.346 191.572C224.53 191.42 224.662 191.224 224.742 190.984C224.83 190.744 224.874 190.496 224.874 190.24V186.64H226.47V193H224.874V192.088H224.802C224.722 192.232 224.606 192.384 224.454 192.544C224.31 192.704 224.118 192.84 223.878 192.952C223.646 193.064 223.354 193.12 223.002 193.12ZM227.959 193V186.64H229.555V187.528H229.615C229.695 187.384 229.807 187.236 229.951 187.084C230.095 186.924 230.279 186.792 230.503 186.688C230.735 186.576 231.019 186.52 231.355 186.52C231.827 186.52 232.215 186.632 232.519 186.856C232.823 187.08 233.047 187.368 233.191 187.72H233.215C233.375 187.416 233.611 187.14 233.923 186.892C234.243 186.644 234.667 186.52 235.195 186.52C235.643 186.52 236.015 186.624 236.311 186.832C236.615 187.032 236.839 187.304 236.983 187.648C237.135 187.992 237.211 188.364 237.211 188.764V193H235.615V189.1C235.615 188.732 235.523 188.432 235.339 188.2C235.163 187.96 234.899 187.84 234.547 187.84C234.267 187.84 234.039 187.916 233.863 188.068C233.695 188.212 233.571 188.396 233.491 188.62C233.419 188.844 233.383 189.072 233.383 189.304V193H231.787V189.1C231.787 188.732 231.699 188.432 231.523 188.2C231.347 187.96 231.079 187.84 230.719 187.84C230.439 187.84 230.211 187.916 230.035 188.068C229.867 188.212 229.743 188.4 229.663 188.632C229.591 188.856 229.555 189.08 229.555 189.304V193H227.959ZM241.718 193.12C241.174 193.12 240.702 193.028 240.302 192.844C239.91 192.652 239.582 192.4 239.318 192.088C239.062 191.768 238.87 191.412 238.742 191.02C238.614 190.628 238.55 190.228 238.55 189.82C238.55 189.412 238.61 189.016 238.73 188.632C238.858 188.24 239.046 187.884 239.294 187.564C239.55 187.244 239.874 186.992 240.266 186.808C240.658 186.616 241.122 186.52 241.658 186.52C242.234 186.52 242.742 186.648 243.182 186.904C243.622 187.16 243.966 187.536 244.214 188.032C244.462 188.52 244.586 189.128 244.586 189.856V190.264H240.158C240.182 190.696 240.33 191.072 240.602 191.392C240.874 191.704 241.246 191.86 241.718 191.86C241.99 191.86 242.214 191.816 242.39 191.728C242.566 191.64 242.702 191.54 242.798 191.428C242.894 191.308 242.962 191.208 243.002 191.128C243.042 191.04 243.062 190.996 243.062 190.996H244.538C244.538 190.996 244.518 191.068 244.478 191.212C244.438 191.348 244.362 191.524 244.25 191.74C244.146 191.948 243.99 192.16 243.782 192.376C243.574 192.584 243.302 192.76 242.966 192.904C242.63 193.048 242.214 193.12 241.718 193.12ZM240.158 189.22H243.05C243.026 188.724 242.878 188.356 242.606 188.116C242.334 187.876 242.014 187.756 241.646 187.756C241.238 187.756 240.898 187.888 240.626 188.152C240.354 188.408 240.198 188.764 240.158 189.22ZM245.935 193V186.64H247.531V187.552H247.603C247.667 187.44 247.767 187.304 247.903 187.144C248.039 186.976 248.227 186.832 248.467 186.712C248.707 186.584 249.011 186.52 249.379 186.52C249.867 186.52 250.267 186.632 250.579 186.856C250.899 187.072 251.135 187.36 251.287 187.72C251.447 188.08 251.527 188.468 251.527 188.884V193H249.931V189.1C249.931 188.756 249.835 188.46 249.643 188.212C249.451 187.964 249.163 187.84 248.779 187.84C248.483 187.84 248.243 187.916 248.059 188.068C247.875 188.212 247.739 188.4 247.651 188.632C247.571 188.864 247.531 189.108 247.531 189.364V193H245.935ZM258.503 193.12C258.031 193.12 257.619 193.028 257.267 192.844C256.915 192.652 256.619 192.4 256.379 192.088C256.147 191.768 255.971 191.412 255.851 191.02C255.739 190.628 255.683 190.228 255.683 189.82C255.683 189.412 255.739 189.012 255.851 188.62C255.971 188.228 256.147 187.876 256.379 187.564C256.619 187.244 256.915 186.992 257.267 186.808C257.619 186.616 258.031 186.52 258.503 186.52C258.911 186.52 259.247 186.588 259.511 186.724C259.775 186.852 259.983 186.996 260.135 187.156C260.287 187.308 260.391 187.432 260.447 187.528H260.519V183.88H262.115V193H260.519V192.112H260.447C260.391 192.208 260.287 192.336 260.135 192.496C259.983 192.656 259.775 192.8 259.511 192.928C259.247 193.056 258.911 193.12 258.503 193.12ZM258.923 191.812C259.283 191.812 259.583 191.716 259.823 191.524C260.063 191.324 260.243 191.072 260.363 190.768C260.483 190.464 260.543 190.148 260.543 189.82C260.543 189.492 260.483 189.176 260.363 188.872C260.243 188.568 260.063 188.32 259.823 188.128C259.583 187.928 259.283 187.828 258.923 187.828C258.563 187.828 258.259 187.928 258.011 188.128C257.771 188.32 257.591 188.568 257.471 188.872C257.351 189.176 257.291 189.492 257.291 189.82C257.291 190.148 257.351 190.464 257.471 190.768C257.591 191.072 257.771 191.324 258.011 191.524C258.259 191.716 258.563 191.812 258.923 191.812ZM266.75 193.12C266.206 193.12 265.734 193.028 265.334 192.844C264.942 192.652 264.614 192.4 264.35 192.088C264.094 191.768 263.902 191.412 263.774 191.02C263.646 190.628 263.582 190.228 263.582 189.82C263.582 189.412 263.642 189.016 263.762 188.632C263.89 188.24 264.078 187.884 264.326 187.564C264.582 187.244 264.906 186.992 265.298 186.808C265.69 186.616 266.154 186.52 266.69 186.52C267.266 186.52 267.774 186.648 268.214 186.904C268.654 187.16 268.998 187.536 269.246 188.032C269.494 188.52 269.618 189.128 269.618 189.856V190.264H265.19C265.214 190.696 265.362 191.072 265.634 191.392C265.906 191.704 266.278 191.86 266.75 191.86C267.022 191.86 267.246 191.816 267.422 191.728C267.598 191.64 267.734 191.54 267.83 191.428C267.926 191.308 267.994 191.208 268.034 191.128C268.074 191.04 268.094 190.996 268.094 190.996H269.57C269.57 190.996 269.55 191.068 269.51 191.212C269.47 191.348 269.394 191.524 269.282 191.74C269.178 191.948 269.022 192.16 268.814 192.376C268.606 192.584 268.334 192.76 267.998 192.904C267.662 193.048 267.246 193.12 266.75 193.12ZM265.19 189.22H268.082C268.058 188.724 267.91 188.356 267.638 188.116C267.366 187.876 267.046 187.756 266.678 187.756C266.27 187.756 265.93 187.888 265.658 188.152C265.386 188.408 265.23 188.764 265.19 189.22ZM276.647 193.12C276.215 193.12 275.859 193.056 275.579 192.928C275.299 192.8 275.079 192.632 274.919 192.424C274.767 192.216 274.659 191.988 274.595 191.74C274.531 191.492 274.499 191.248 274.499 191.008V187.924H273.407V186.64H274.499V185.056H276.095V186.64H277.523V187.924H276.095V190.972C276.095 191.54 276.415 191.824 277.055 191.824C277.207 191.824 277.347 191.816 277.475 191.8C277.611 191.776 277.679 191.764 277.679 191.764V193.012C277.679 193.012 277.575 193.028 277.367 193.06C277.167 193.1 276.927 193.12 276.647 193.12ZM280.998 193.12C280.334 193.12 279.83 192.916 279.486 192.508C279.15 192.1 278.982 191.576 278.982 190.936V186.64H280.566V190.672C280.566 191.016 280.658 191.292 280.842 191.5C281.026 191.7 281.286 191.8 281.622 191.8C281.918 191.8 282.158 191.724 282.342 191.572C282.526 191.42 282.658 191.224 282.738 190.984C282.826 190.744 282.87 190.496 282.87 190.24V186.64H284.466V193H282.87V192.088H282.798C282.718 192.232 282.602 192.384 282.45 192.544C282.306 192.704 282.114 192.84 281.874 192.952C281.642 193.064 281.35 193.12 280.998 193.12ZM285.955 193V186.64H287.539V187.516H287.599C287.711 187.268 287.895 187.04 288.151 186.832C288.407 186.624 288.791 186.52 289.303 186.52C289.463 186.52 289.595 186.532 289.699 186.556C289.803 186.572 289.855 186.58 289.855 186.58V188.128C289.855 188.128 289.795 188.12 289.675 188.104C289.563 188.088 289.423 188.08 289.255 188.08C288.695 188.08 288.271 188.236 287.983 188.548C287.695 188.86 287.551 189.364 287.551 190.06V193H285.955ZM290.947 193V186.64H292.543V187.552H292.615C292.679 187.44 292.779 187.304 292.915 187.144C293.051 186.976 293.239 186.832 293.479 186.712C293.719 186.584 294.023 186.52 294.391 186.52C294.879 186.52 295.279 186.632 295.591 186.856C295.911 187.072 296.147 187.36 296.299 187.72C296.459 188.08 296.539 188.468 296.539 188.884V193H294.943V189.1C294.943 188.756 294.847 188.46 294.655 188.212C294.463 187.964 294.175 187.84 293.791 187.84C293.495 187.84 293.255 187.916 293.071 188.068C292.887 188.212 292.751 188.4 292.663 188.632C292.583 188.864 292.543 189.108 292.543 189.364V193H290.947ZM301.146 193.12C300.45 193.12 299.858 192.964 299.37 192.652C298.882 192.34 298.51 191.936 298.254 191.44C298.006 190.936 297.882 190.396 297.882 189.82C297.882 189.244 298.006 188.708 298.254 188.212C298.51 187.708 298.882 187.3 299.37 186.988C299.858 186.676 300.45 186.52 301.146 186.52C301.85 186.52 302.442 186.676 302.922 186.988C303.41 187.3 303.778 187.708 304.026 188.212C304.282 188.708 304.41 189.244 304.41 189.82C304.41 190.396 304.282 190.936 304.026 191.44C303.778 191.936 303.41 192.34 302.922 192.652C302.442 192.964 301.85 193.12 301.146 193.12ZM301.146 191.788C301.506 191.788 301.806 191.696 302.046 191.512C302.294 191.328 302.482 191.088 302.61 190.792C302.738 190.488 302.802 190.164 302.802 189.82C302.802 189.468 302.738 189.144 302.61 188.848C302.482 188.552 302.294 188.312 302.046 188.128C301.806 187.944 301.506 187.852 301.146 187.852C300.794 187.852 300.494 187.944 300.246 188.128C299.998 188.312 299.81 188.552 299.682 188.848C299.554 189.144 299.49 189.468 299.49 189.82C299.49 190.164 299.554 190.488 299.682 190.792C299.81 191.088 299.998 191.328 300.246 191.512C300.494 191.696 300.794 191.788 301.146 191.788ZM308.375 193.12C307.855 193.12 307.427 193.052 307.091 192.916C306.755 192.772 306.487 192.596 306.287 192.388C306.095 192.172 305.951 191.96 305.854 191.752C305.759 191.544 305.695 191.372 305.663 191.236C305.639 191.092 305.627 191.02 305.627 191.02H307.139C307.139 191.02 307.151 191.064 307.175 191.152C307.207 191.24 307.263 191.344 307.343 191.464C307.431 191.576 307.563 191.676 307.739 191.764C307.915 191.852 308.147 191.896 308.435 191.896C308.779 191.896 309.027 191.824 309.179 191.68C309.331 191.528 309.407 191.36 309.407 191.176C309.407 191 309.339 190.86 309.203 190.756C309.075 190.644 308.883 190.56 308.627 190.504L307.751 190.324C307.399 190.252 307.071 190.148 306.767 190.012C306.463 189.868 306.215 189.676 306.023 189.436C305.831 189.188 305.735 188.872 305.735 188.488C305.735 187.92 305.951 187.452 306.383 187.084C306.815 186.708 307.403 186.52 308.146 186.52C308.619 186.52 309.007 186.584 309.311 186.712C309.623 186.84 309.871 187 310.055 187.192C310.247 187.384 310.387 187.576 310.475 187.768C310.571 187.96 310.631 188.124 310.655 188.26C310.687 188.388 310.703 188.452 310.703 188.452H309.239C309.239 188.452 309.227 188.416 309.203 188.344C309.179 188.264 309.127 188.176 309.047 188.08C308.975 187.984 308.863 187.9 308.711 187.828C308.567 187.748 308.371 187.708 308.123 187.708C307.787 187.708 307.547 187.78 307.403 187.924C307.267 188.068 307.199 188.22 307.199 188.38C307.199 188.556 307.275 188.692 307.427 188.788C307.579 188.884 307.775 188.956 308.015 189.004L308.843 189.184C309.435 189.304 309.919 189.512 310.295 189.808C310.679 190.104 310.871 190.532 310.871 191.092C310.871 191.468 310.771 191.812 310.571 192.124C310.379 192.428 310.095 192.672 309.719 192.856C309.351 193.032 308.903 193.12 308.375 193.12Z" fill="#414141"/>
<path d="M19.804 166.12V175H18.196V168.472H16.504V167.5L16.78 167.416C17.252 167.28 17.636 167.124 17.932 166.948C18.228 166.772 18.508 166.532 18.772 166.228L18.88 166.12H19.804Z" fill="#8B8B8B"/>
<path d="M134.792 175V173.872L136.46 172.396C137.068 171.876 137.592 171.428 138.032 171.052C138.472 170.668 138.812 170.308 139.052 169.972C139.292 169.636 139.412 169.268 139.412 168.868C139.412 168.564 139.336 168.304 139.184 168.088C139.04 167.872 138.852 167.708 138.62 167.596C138.388 167.484 138.148 167.428 137.9 167.428C137.556 167.428 137.276 167.496 137.06 167.632C136.852 167.768 136.692 167.932 136.58 168.124C136.476 168.316 136.404 168.504 136.364 168.688C136.324 168.864 136.304 168.996 136.304 169.084H134.744C134.744 168.908 134.772 168.692 134.828 168.436C134.892 168.172 134.996 167.9 135.14 167.62C135.284 167.34 135.476 167.076 135.716 166.828C135.956 166.58 136.26 166.38 136.628 166.228C136.996 166.076 137.432 166 137.936 166C138.496 166 139.008 166.112 139.472 166.336C139.944 166.56 140.32 166.88 140.6 167.296C140.888 167.712 141.032 168.212 141.032 168.796C141.032 169.332 140.896 169.82 140.624 170.26C140.36 170.7 139.996 171.132 139.532 171.556C139.068 171.972 138.54 172.42 137.948 172.9L137.204 173.572H141.188V175H134.792Z" fill="#8B8B8B"/>
<path d="M255.02 175.12C254.412 175.12 253.9 175.028 253.484 174.844C253.068 174.66 252.732 174.424 252.476 174.136C252.228 173.848 252.048 173.54 251.936 173.212C251.824 172.884 251.768 172.58 251.768 172.3H253.304C253.304 172.54 253.364 172.776 253.484 173.008C253.612 173.232 253.804 173.416 254.06 173.56C254.316 173.696 254.632 173.764 255.008 173.764C255.472 173.764 255.86 173.644 256.172 173.404C256.492 173.156 256.652 172.816 256.652 172.384C256.652 172 256.516 171.688 256.244 171.448C255.98 171.208 255.612 171.088 255.14 171.088H253.94V169.828H255.152C255.552 169.828 255.88 169.716 256.136 169.492C256.392 169.268 256.52 168.98 256.52 168.628C256.52 168.244 256.372 167.936 256.076 167.704C255.788 167.464 255.432 167.344 255.008 167.344C254.664 167.344 254.376 167.42 254.144 167.572C253.912 167.716 253.736 167.904 253.616 168.136C253.496 168.368 253.436 168.608 253.436 168.856H251.936C251.936 168.568 251.988 168.26 252.092 167.932C252.204 167.604 252.38 167.296 252.62 167.008C252.868 166.712 253.188 166.472 253.58 166.288C253.98 166.096 254.464 166 255.032 166C255.56 166 256.056 166.1 256.52 166.3C256.992 166.492 257.372 166.776 257.66 167.152C257.956 167.52 258.104 167.96 258.104 168.472C258.104 168.816 258.036 169.12 257.9 169.384C257.772 169.648 257.604 169.864 257.396 170.032C257.196 170.2 256.984 170.324 256.76 170.404V170.476C257.176 170.62 257.532 170.856 257.828 171.184C258.124 171.512 258.272 171.94 258.272 172.468C258.272 173.028 258.12 173.508 257.816 173.908C257.52 174.3 257.124 174.6 256.628 174.808C256.132 175.016 255.596 175.12 255.02 175.12Z" fill="#8B8B8B"/>
<path d="M372.872 175V173.104L368.564 173.092V171.664L372.488 166.12H374.492V171.724H375.932V173.104H374.492V175H372.872ZM370.172 171.724H372.872V167.908L370.172 171.724Z" fill="#8B8B8B"/>
<path d="M490.032 175.12C489.504 175.12 489.052 175.048 488.676 174.904C488.3 174.76 487.988 174.572 487.74 174.34C487.492 174.108 487.296 173.864 487.152 173.608C487.008 173.352 486.904 173.108 486.84 172.876C486.784 172.644 486.752 172.456 486.744 172.312H488.268C488.268 172.312 488.276 172.364 488.292 172.468C488.308 172.564 488.344 172.684 488.4 172.828C488.464 172.972 488.556 173.12 488.676 173.272C488.804 173.416 488.976 173.536 489.192 173.632C489.408 173.728 489.68 173.776 490.008 173.776C490.408 173.776 490.736 173.692 490.992 173.524C491.256 173.356 491.452 173.14 491.58 172.876C491.708 172.612 491.772 172.332 491.772 172.036C491.772 171.74 491.708 171.46 491.58 171.196C491.452 170.924 491.26 170.7 491.004 170.524C490.748 170.348 490.428 170.26 490.044 170.26C489.748 170.26 489.5 170.308 489.3 170.404C489.108 170.5 488.956 170.608 488.844 170.728C488.732 170.848 488.652 170.956 488.604 171.052C488.556 171.148 488.532 171.196 488.532 171.196H486.924L487.68 166.12H492.756V167.548H488.808L488.484 169.744H488.532C488.588 169.68 488.684 169.588 488.82 169.468C488.956 169.348 489.148 169.24 489.396 169.144C489.644 169.048 489.968 169 490.368 169C491.016 169 491.56 169.144 492 169.432C492.448 169.72 492.788 170.096 493.02 170.56C493.252 171.016 493.368 171.5 493.368 172.012C493.368 172.396 493.296 172.772 493.152 173.14C493.016 173.508 492.808 173.844 492.528 174.148C492.256 174.444 491.912 174.68 491.496 174.856C491.08 175.032 490.592 175.12 490.032 175.12Z" fill="#8B8B8B"/>
<path d="M397.732 24.126C397.088 24.126 396.519 23.986 396.024 23.706C395.529 23.4167 395.114 23.0293 394.778 22.544C394.451 22.0493 394.199 21.48 394.022 20.836C393.854 20.192 393.77 19.5153 393.77 18.806C393.77 18.0873 393.854 17.4107 394.022 16.776C394.199 16.132 394.451 15.5627 394.778 15.068C395.114 14.5733 395.529 14.186 396.024 13.906C396.519 13.626 397.088 13.486 397.732 13.486C398.376 13.486 398.945 13.626 399.44 13.906C399.935 14.186 400.345 14.5733 400.672 15.068C401.008 15.5627 401.26 16.132 401.428 16.776C401.605 17.4107 401.694 18.0873 401.694 18.806C401.694 19.5153 401.605 20.192 401.428 20.836C401.26 21.48 401.008 22.0493 400.672 22.544C400.345 23.0293 399.935 23.4167 399.44 23.706C398.945 23.986 398.376 24.126 397.732 24.126ZM397.732 22.866C398.469 22.866 399.076 22.5253 399.552 21.844C400.037 21.1533 400.28 20.1407 400.28 18.806C400.28 17.4713 400.037 16.4633 399.552 15.782C399.076 15.1007 398.469 14.76 397.732 14.76C396.995 14.76 396.383 15.1007 395.898 15.782C395.422 16.4633 395.184 17.4713 395.184 18.806C395.184 20.1313 395.422 21.1393 395.898 21.83C396.383 22.5207 396.995 22.866 397.732 22.866ZM406.311 13.64V24H404.967V15.964L403.021 15.978V15.194L403.371 15.082C403.866 14.9233 404.262 14.7507 404.561 14.564C404.869 14.3773 405.154 14.1207 405.415 13.794L405.541 13.64H406.311ZM412.922 24V17.672H411.704V16.58H412.922V15.67C412.922 15.278 412.992 14.8953 413.132 14.522C413.272 14.1393 413.506 13.8267 413.832 13.584C414.159 13.3413 414.602 13.22 415.162 13.22C415.433 13.22 415.648 13.2433 415.806 13.29C415.974 13.3273 416.058 13.346 416.058 13.346V14.396C416.058 14.396 415.984 14.382 415.834 14.354C415.694 14.3167 415.531 14.298 415.344 14.298C414.915 14.298 414.626 14.4287 414.476 14.69C414.327 14.9513 414.252 15.278 414.252 15.67V16.58H415.974V17.672H414.252V24H412.922ZM420.405 24.14C419.798 24.14 419.271 24.0327 418.823 23.818C418.384 23.594 418.02 23.2953 417.731 22.922C417.451 22.5487 417.241 22.138 417.101 21.69C416.961 21.2327 416.891 20.766 416.891 20.29C416.891 19.8233 416.956 19.3613 417.087 18.904C417.227 18.4467 417.437 18.0313 417.717 17.658C418.006 17.2847 418.365 16.9907 418.795 16.776C419.233 16.552 419.751 16.44 420.349 16.44C420.983 16.44 421.543 16.5847 422.029 16.874C422.514 17.1633 422.897 17.5927 423.177 18.162C423.457 18.7313 423.597 19.4453 423.597 20.304V20.696H418.235C418.263 21.116 418.361 21.5033 418.529 21.858C418.706 22.2033 418.953 22.4833 419.271 22.698C419.588 22.9033 419.966 23.006 420.405 23.006C420.787 23.006 421.095 22.9453 421.329 22.824C421.571 22.6933 421.763 22.544 421.903 22.376C422.043 22.208 422.136 22.0633 422.183 21.942C422.239 21.8113 422.267 21.746 422.267 21.746H423.513C423.513 21.746 423.489 21.83 423.443 21.998C423.396 22.1567 423.312 22.3527 423.191 22.586C423.069 22.8193 422.892 23.0573 422.659 23.3C422.425 23.5333 422.127 23.734 421.763 23.902C421.399 24.0607 420.946 24.14 420.405 24.14ZM418.249 19.66H422.295C422.276 19.1747 422.173 18.7827 421.987 18.484C421.8 18.176 421.562 17.9473 421.273 17.798C420.983 17.6487 420.675 17.574 420.349 17.574C419.761 17.574 419.28 17.7653 418.907 18.148C418.533 18.5213 418.314 19.0253 418.249 19.66ZM429.36 24.14C428.893 24.14 428.501 24.0653 428.184 23.916C427.866 23.7667 427.61 23.5893 427.414 23.384C427.227 23.1787 427.078 22.992 426.966 22.824H426.882V24H425.552V13.36H426.882V17.756H426.966C427.078 17.5787 427.227 17.3873 427.414 17.182C427.61 16.9767 427.866 16.804 428.184 16.664C428.501 16.5147 428.893 16.44 429.36 16.44C429.92 16.44 430.41 16.552 430.83 16.776C431.25 16.9907 431.6 17.2847 431.88 17.658C432.16 18.022 432.37 18.4327 432.51 18.89C432.65 19.3473 432.72 19.814 432.72 20.29C432.72 20.766 432.65 21.2327 432.51 21.69C432.37 22.1473 432.16 22.5627 431.88 22.936C431.6 23.3 431.25 23.594 430.83 23.818C430.41 24.0327 429.92 24.14 429.36 24.14ZM429.136 23.006C429.64 23.006 430.055 22.8753 430.382 22.614C430.718 22.3433 430.965 22.0027 431.124 21.592C431.292 21.172 431.376 20.738 431.376 20.29C431.376 19.8327 431.292 19.3987 431.124 18.988C430.965 18.5773 430.718 18.2413 430.382 17.98C430.055 17.7093 429.64 17.574 429.136 17.574C428.641 17.574 428.226 17.7093 427.89 17.98C427.563 18.2413 427.316 18.5773 427.148 18.988C426.989 19.3987 426.91 19.8327 426.91 20.29C426.91 20.738 426.989 21.172 427.148 21.592C427.316 22.0027 427.563 22.3433 427.89 22.614C428.226 22.8753 428.641 23.006 429.136 23.006ZM438.443 20.178V19.058H443.651V20.178H438.443ZM453.267 24.126C452.623 24.126 452.054 23.986 451.559 23.706C451.064 23.4167 450.649 23.0293 450.313 22.544C449.986 22.0493 449.734 21.48 449.557 20.836C449.389 20.192 449.305 19.5153 449.305 18.806C449.305 18.0873 449.389 17.4107 449.557 16.776C449.734 16.132 449.986 15.5627 450.313 15.068C450.649 14.5733 451.064 14.186 451.559 13.906C452.054 13.626 452.623 13.486 453.267 13.486C453.911 13.486 454.48 13.626 454.975 13.906C455.47 14.186 455.88 14.5733 456.207 15.068C456.543 15.5627 456.795 16.132 456.963 16.776C457.14 17.4107 457.229 18.0873 457.229 18.806C457.229 19.5153 457.14 20.192 456.963 20.836C456.795 21.48 456.543 22.0493 456.207 22.544C455.88 23.0293 455.47 23.4167 454.975 23.706C454.48 23.986 453.911 24.126 453.267 24.126ZM453.267 22.866C454.004 22.866 454.611 22.5253 455.087 21.844C455.572 21.1533 455.815 20.1407 455.815 18.806C455.815 17.4713 455.572 16.4633 455.087 15.782C454.611 15.1007 454.004 14.76 453.267 14.76C452.53 14.76 451.918 15.1007 451.433 15.782C450.957 16.4633 450.719 17.4713 450.719 18.806C450.719 20.1313 450.957 21.1393 451.433 21.83C451.918 22.5207 452.53 22.866 453.267 22.866ZM461.846 13.64V24H460.502V15.964L458.556 15.978V15.194L458.906 15.082C459.401 14.9233 459.797 14.7507 460.096 14.564C460.404 14.3773 460.689 14.1207 460.95 13.794L461.076 13.64H461.846ZM467.589 24V16.58H468.919V17.658H468.975C469.05 17.518 469.167 17.3547 469.325 17.168C469.484 16.972 469.699 16.804 469.969 16.664C470.249 16.5147 470.599 16.44 471.019 16.44C471.57 16.44 472.032 16.5753 472.405 16.846C472.788 17.1073 473.073 17.462 473.259 17.91H473.273C473.479 17.4993 473.768 17.154 474.141 16.874C474.524 16.5847 475.019 16.44 475.625 16.44C476.428 16.44 477.044 16.7153 477.473 17.266C477.912 17.8073 478.131 18.5073 478.131 19.366V24H476.801V19.436C476.801 18.8853 476.671 18.442 476.409 18.106C476.148 17.7607 475.77 17.588 475.275 17.588C474.846 17.588 474.501 17.7047 474.239 17.938C473.987 18.1713 473.805 18.4607 473.693 18.806C473.581 19.1513 473.525 19.4967 473.525 19.842V24H472.195V19.436C472.195 18.8853 472.065 18.442 471.803 18.106C471.551 17.7607 471.173 17.588 470.669 17.588C470.24 17.588 469.895 17.7047 469.633 17.938C469.381 18.1713 469.199 18.4653 469.087 18.82C468.975 19.1653 468.919 19.506 468.919 19.842V24H467.589ZM483.305 16.44C483.772 16.44 484.164 16.5147 484.481 16.664C484.799 16.8133 485.055 16.9907 485.251 17.196C485.447 17.392 485.597 17.5787 485.699 17.756H485.783V16.58H487.113V24H485.783V22.824H485.699C485.597 23.0013 485.447 23.1927 485.251 23.398C485.055 23.6033 484.799 23.7807 484.481 23.93C484.164 24.07 483.772 24.14 483.305 24.14C482.745 24.14 482.255 24.0327 481.835 23.818C481.415 23.594 481.065 23.3 480.785 22.936C480.505 22.5627 480.295 22.1473 480.155 21.69C480.015 21.2327 479.945 20.766 479.945 20.29C479.945 19.814 480.015 19.3473 480.155 18.89C480.295 18.4327 480.505 18.022 480.785 17.658C481.065 17.2847 481.415 16.9907 481.835 16.776C482.255 16.552 482.745 16.44 483.305 16.44ZM483.529 17.574C483.035 17.574 482.619 17.7093 482.283 17.98C481.947 18.2413 481.695 18.5773 481.527 18.988C481.369 19.3987 481.289 19.8327 481.289 20.29C481.289 20.738 481.369 21.172 481.527 21.592C481.695 22.0027 481.947 22.3433 482.283 22.614C482.619 22.8753 483.035 23.006 483.529 23.006C484.024 23.006 484.435 22.8753 484.761 22.614C485.097 22.3433 485.345 22.0027 485.503 21.592C485.671 21.172 485.755 20.738 485.755 20.29C485.755 19.8327 485.671 19.3987 485.503 18.988C485.345 18.5773 485.097 18.2413 484.761 17.98C484.435 17.7093 484.024 17.574 483.529 17.574ZM489.068 24V16.58H490.398V17.504H490.454C490.613 17.224 490.846 16.9767 491.154 16.762C491.462 16.5473 491.896 16.44 492.456 16.44C492.615 16.44 492.759 16.4493 492.89 16.468C493.021 16.4773 493.086 16.482 493.086 16.482V17.756C493.086 17.756 493.011 17.7513 492.862 17.742C492.722 17.7233 492.573 17.714 492.414 17.714C491.77 17.714 491.271 17.9007 490.916 18.274C490.571 18.638 490.398 19.2353 490.398 20.066V24H489.068Z" fill="#8B8B8B"/>
<line x1="19.5" y1="43" x2="19.5" y2="163" stroke="#D9D9D9"/>
<line x1="137.5" y1="43" x2="137.5" y2="163" stroke="#D9D9D9"/>
<line x1="255.5" y1="43" x2="255.5" y2="163" stroke="#D9D9D9"/>
<line x1="373.5" y1="43" x2="373.5" y2="163" stroke="#D9D9D9"/>
<line x1="491.5" y1="43" x2="491.5" y2="163" stroke="#D9D9D9"/>
<circle cx="276" cy="20" r="5.57143" stroke="#8B8B8B" stroke-width="0.857143"/>
<defs>
<filter id="filter0_d_738_33" x="0" y="0" width="515" height="208" filterUnits="userSpaceOnUse" color-interpolation-filters="sRGB">
<feFlood flood-opacity="0" result="BackgroundImageFix"/>
<feColorMatrix in="SourceAlpha" type="matrix" values="0 0 0 0 0 0 0 0 0 0 0 0 0 0 0 0 0 0 127 0" result="hardAlpha"/>
<feMorphology radius="1" operator="dilate" in="SourceAlpha" result="effect1_dropShadow_738_33"/>
<feOffset dx="1" dy="1"/>
<feGaussianBlur stdDeviation="2"/>
<feComposite in2="hardAlpha" operator="out"/>
<feColorMatrix type="matrix" values="0 0 0 0 0 0 0 0 0 0 0 0 0 0 0 0 0 0 0.15 0"/>
<feBlend mode="normal" in2="BackgroundImageFix" result="effect1_dropShadow_738_33"/>
<feBlend mode="normal" in="SourceGraphic" in2="effect1_dropShadow_738_33" result="shape"/>
</filter>
</defs>
</svg>
