<svg width="133" height="49" viewBox="0 0 133 49" fill="none" xmlns="http://www.w3.org/2000/svg">
<g clip-path="url(#clip0_1052_146)">
<path d="M123.744 10.2919C124.739 10.2919 125.563 10.4502 126.207 10.7667C126.85 11.0832 127.343 11.4238 127.684 11.7882C128.026 12.1527 128.235 12.4021 128.313 12.5364H128.547V10.5749H133V25.8451H128.547V23.8836H128.313C128.235 24.0179 128.026 24.2673 127.684 24.6317C127.343 24.9962 126.85 25.3367 126.207 25.6533C125.563 25.9698 124.744 26.1281 123.744 26.1281C122.593 26.1281 121.588 25.9027 120.74 25.4518C119.891 25.001 119.184 24.3967 118.613 23.639C118.048 22.8812 117.623 22.0323 117.341 21.0876C117.058 20.1475 116.916 19.1836 116.916 18.2052C116.916 17.2268 117.058 16.2676 117.341 15.3228C117.623 14.3828 118.048 13.534 118.613 12.7714C119.179 12.0137 119.886 11.4094 120.74 10.9538C121.588 10.5029 122.588 10.2775 123.744 10.2775V10.2919ZM125.031 13.8361C124.232 13.8361 123.563 14.0519 123.022 14.4836C122.486 14.9152 122.086 15.4667 121.822 16.1382C121.559 16.8096 121.427 17.5002 121.427 18.2148C121.427 18.9294 121.559 19.6152 121.822 20.2914C122.086 20.9629 122.486 21.5144 123.022 21.946C123.559 22.3777 124.227 22.5935 125.031 22.5935C125.836 22.5935 126.499 22.3777 127.041 21.946C127.577 21.5144 127.977 20.9629 128.24 20.2914C128.504 19.62 128.635 18.9294 128.635 18.2148C128.635 17.5002 128.504 16.8144 128.24 16.1382C127.977 15.4667 127.577 14.9152 127.041 14.4836C126.504 14.0519 125.836 13.8361 125.031 13.8361Z" fill="#16E0BD"/>
<path d="M0 25.8547V4.53204H8.20277C9.95842 4.53204 11.5092 4.83419 12.8455 5.43847C14.1817 6.04276 15.2936 6.85327 16.1715 7.87481C17.0493 8.89154 17.7125 10.0378 18.1661 11.3039C18.6147 12.57 18.8391 13.8697 18.8391 15.1934C18.8391 16.5171 18.6147 17.8168 18.1661 19.0829C17.7174 20.349 17.0542 21.4952 16.1715 22.512C15.2936 23.5287 14.1817 24.344 12.8455 24.9483C11.5092 25.5526 9.95842 25.8547 8.20277 25.8547H0ZM7.99795 8.42154H4.51104V21.9077H7.99795C9.42197 21.9077 10.6022 21.5816 11.5287 20.9293C12.4553 20.2771 13.1478 19.433 13.6111 18.3923C14.0696 17.3564 14.2988 16.2773 14.2988 15.1646C14.2988 14.052 14.0696 12.9777 13.6111 11.9513C13.1527 10.925 12.4602 10.0761 11.5287 9.4143C10.6022 8.75246 9.42197 8.42154 7.99795 8.42154Z" fill="#043381"/>
<path d="M28.2415 26.1426C26.5005 26.1426 25.0277 25.7733 23.8183 25.0347C22.6088 24.2961 21.6822 23.3274 21.0483 22.1236C20.4143 20.9246 20.0973 19.6201 20.0973 18.2197C20.0973 16.8193 20.4143 15.5148 21.0483 14.3158C21.6822 13.1168 22.604 12.1432 23.8183 11.4047C25.0277 10.6661 26.5054 10.2968 28.2415 10.2968C29.9777 10.2968 31.4554 10.6661 32.6648 11.4047C33.8742 12.1432 34.8008 13.1168 35.4348 14.3158C36.0688 15.5148 36.3858 16.8193 36.3858 18.2197C36.3858 19.6201 36.0688 20.9246 35.4348 22.1236C34.8008 23.3226 33.8791 24.2961 32.6648 25.0347C31.4554 25.7733 29.9777 26.1426 28.2415 26.1426ZM28.2415 22.5696C29.0218 22.5696 29.6802 22.3682 30.2166 21.9653C30.7531 21.5625 31.1676 21.0301 31.4602 20.3683C31.7528 19.7064 31.8991 18.9918 31.8991 18.2197C31.8991 17.4475 31.7528 16.7138 31.4602 16.0567C31.1676 15.4045 30.7531 14.8769 30.2166 14.4741C29.6802 14.0712 29.0218 13.8698 28.2415 13.8698C27.4613 13.8698 26.798 14.0712 26.2469 14.4741C25.7007 14.8769 25.2862 15.4045 25.0033 16.0567C24.7205 16.709 24.5791 17.4284 24.5791 18.2197C24.5791 19.011 24.7205 19.7016 25.0033 20.3683C25.2862 21.0301 25.7007 21.5625 26.2469 21.9653C26.7931 22.3682 27.4564 22.5696 28.2415 22.5696Z" fill="#043381"/>
<path d="M45.9102 26.1425C44.5447 26.1425 43.3499 25.9171 42.3355 25.4663C41.3211 25.0155 40.4774 24.416 39.8142 23.6678C39.151 22.9197 38.6535 22.0708 38.3219 21.1164C37.9903 20.1668 37.8245 19.198 37.8245 18.2197C37.8245 17.2413 37.9903 16.2821 38.3219 15.3373C38.6535 14.3973 39.151 13.5484 39.8142 12.7859C40.4774 12.0281 41.3162 11.4238 42.3355 10.9682C43.3499 10.5174 44.5447 10.292 45.9102 10.292C47.2757 10.292 48.4412 10.4886 49.3386 10.8819C50.2359 11.2752 50.9528 11.7643 51.4941 12.3494C52.0306 12.9345 52.4256 13.5197 52.6792 14.1048C52.9328 14.6899 53.1279 15.3757 53.2644 16.167H49.1045C48.9679 15.6874 48.7973 15.2894 48.5924 14.9728C48.3876 14.6563 48.0804 14.3781 47.6707 14.1383C47.2611 13.8985 46.7149 13.7786 46.0321 13.7786C45.1933 13.7786 44.4959 13.9849 43.9351 14.3973C43.3791 14.8098 42.9646 15.3517 42.6915 16.0231C42.4184 16.6946 42.2819 17.4235 42.2819 18.2149C42.2819 19.0062 42.4184 19.7304 42.6915 20.4066C42.9646 21.078 43.3791 21.62 43.9351 22.0324C44.491 22.4449 45.1884 22.6511 46.0321 22.6511C46.7149 22.6511 47.2611 22.5312 47.6707 22.2914C48.0804 22.0516 48.3876 21.7734 48.5924 21.4569C48.7973 21.1404 48.9679 20.7423 49.1045 20.2627H53.2644C53.1279 21.0493 52.9328 21.7351 52.6792 22.325C52.4256 22.9101 52.0306 23.4952 51.4941 24.0803C50.9577 24.6654 50.2408 25.1546 49.3386 25.5478C48.4412 25.9411 47.2952 26.1377 45.9102 26.1377V26.1425Z" fill="#043381"/>
<path d="M62.2865 26.1425C61.077 26.1425 60.1065 25.9651 59.3848 25.6102C58.663 25.2553 58.1168 24.8045 57.7462 24.2577C57.3755 23.711 57.1317 23.1307 57.0147 22.5168C56.8976 21.9029 56.8391 21.337 56.8391 20.8191V14.076H54.2007V10.5893H56.8391V6.81494H61.2916V10.5893H64.603V14.076H61.2916V20.704C61.2916 21.337 61.4623 21.8262 61.8037 22.1715C62.145 22.5168 62.7156 22.6895 63.5154 22.6895C63.8666 22.6895 64.3347 22.6319 64.9199 22.5168V25.8884C63.8666 26.061 62.9839 26.1473 62.2816 26.1473L62.2865 26.1425Z" fill="#043381"/>
<path d="M74.1858 26.1426C72.4448 26.1426 70.972 25.7733 69.7626 25.0347C68.5531 24.2961 67.6265 23.3274 66.9925 22.1236C66.3586 20.9246 66.0416 19.6201 66.0416 18.2197C66.0416 16.8193 66.3586 15.5148 66.9925 14.3158C67.6265 13.1168 68.5482 12.1432 69.7626 11.4047C70.972 10.6661 72.4497 10.2968 74.1858 10.2968C75.922 10.2968 77.3996 10.6661 78.6091 11.4047C79.8185 12.1432 80.7451 13.1168 81.3791 14.3158C82.0131 15.5148 82.3301 16.8193 82.3301 18.2197C82.3301 19.6201 82.0131 20.9246 81.3791 22.1236C80.7451 23.3226 79.8234 24.2961 78.6091 25.0347C77.3996 25.7733 75.922 26.1426 74.1858 26.1426ZM74.1858 22.5696C74.9661 22.5696 75.6245 22.3682 76.1658 21.9653C76.7022 21.5625 77.1168 21.0301 77.4094 20.3683C77.702 19.7064 77.8483 18.9918 77.8483 18.2197C77.8483 17.4475 77.702 16.7138 77.4094 16.0567C77.1168 15.4045 76.7022 14.8769 76.1658 14.4741C75.6293 14.0712 74.971 13.8698 74.1858 13.8698C73.4006 13.8698 72.7423 14.0712 72.1912 14.4741C71.645 14.8769 71.2305 15.4045 70.9476 16.0567C70.6648 16.709 70.5233 17.4284 70.5233 18.2197C70.5233 19.011 70.6648 19.7016 70.9476 20.3683C71.2305 21.0301 71.645 21.5625 72.1912 21.9653C72.7374 22.3682 73.4006 22.5696 74.1858 22.5696Z" fill="#043381"/>
<path d="M84.115 25.8548V10.5845H88.5382V12.8051H88.6846C88.8601 12.4022 89.104 12.0089 89.4161 11.6253C89.7282 11.2416 90.1573 10.925 90.7035 10.6757C91.2497 10.4263 91.952 10.3016 92.8152 10.3016C93.2444 10.3016 93.7125 10.3495 94.2197 10.4455V14.7666C93.654 14.6515 93.1468 14.5939 92.6982 14.5939C91.3131 14.5939 90.2744 14.9632 89.5916 15.7018C88.9089 16.4404 88.5675 17.6489 88.5675 19.3179V25.8596H84.115V25.8548Z" fill="#043381"/>
<path d="M113.542 4.12438C114.7 4.12438 115.639 3.20108 115.639 2.06213C115.639 0.923178 114.7 -0.00012207 113.542 -0.00012207C112.383 -0.00012207 111.445 0.923178 111.445 2.06213C111.445 3.20108 112.383 4.12438 113.542 4.12438Z" fill="#16E0BD"/>
<path d="M103.5 4.12438C104.658 4.12438 105.597 3.20108 105.597 2.06213C105.597 0.923178 104.658 -0.00012207 103.5 -0.00012207C102.342 -0.00012207 101.403 0.923178 101.403 2.06213C101.403 3.20108 102.342 4.12438 103.5 4.12438Z" fill="#16E0BD"/>
<path d="M115.765 27.7923C114.522 27.7923 113.512 26.7995 113.512 25.5766C113.512 24.3536 114.522 23.3608 115.765 23.3608C117.009 23.3608 118.018 24.3536 118.018 25.5766C118.018 26.7995 117.009 27.7923 115.765 27.7923ZM115.765 24.3152C115.058 24.3152 114.483 24.8812 114.483 25.5766C114.483 26.272 115.058 26.8379 115.765 26.8379C116.473 26.8379 117.048 26.272 117.048 25.5766C117.048 24.8812 116.473 24.3152 115.765 24.3152Z" fill="#16E0BD"/>
<path d="M115.644 27.7779L115.161 28.2862C113.771 29.749 112.405 30.4876 111.103 30.4876C110.391 30.4876 109.708 30.267 109.074 29.8353C107.943 29.0728 107.27 27.7683 107.27 26.3487V15.8312C107.27 15.8312 107.251 15.8312 107.241 15.8264C107.616 15.8936 108.718 16.047 109.86 15.836V26.3487C109.86 26.929 110.113 27.4517 110.542 27.7395C110.781 27.9026 111.508 28.3917 113.269 26.5453L113.751 26.0369L115.639 27.7779H115.644Z" fill="#16E0BD"/>
<path d="M117.438 8.22011C117.438 12.6851 114.458 16.4259 110.489 17.3563C110.469 17.3611 110.44 17.3659 110.42 17.3707C110.303 17.3995 110.186 17.4235 110.069 17.4427C108.743 17.6921 107.46 17.5098 107.026 17.4331C107.016 17.4331 107.012 17.4331 107.007 17.4331C106.963 17.4235 106.924 17.4187 106.88 17.4043C102.793 16.5698 99.6964 12.7714 99.6964 8.21531C99.6964 6.44561 100.165 4.71908 101.057 3.22754L101.472 2.53213L104.066 4.02846L103.651 4.72387C103.032 5.75979 102.705 6.96837 102.705 8.21531C102.705 11.7499 105.334 14.6227 108.567 14.6227C111.801 14.6227 114.429 11.7499 114.429 8.21531C114.429 6.91082 114.073 5.65908 113.4 4.58959L112.966 3.90377L115.522 2.34509L115.956 3.03091C116.931 4.5704 117.438 6.35928 117.438 8.21531V8.22011Z" fill="#16E0BD"/>
<path d="M106.88 17.9462C106.919 17.9558 106.963 17.9654 107.007 17.975C106.919 17.9606 106.875 17.9462 106.875 17.9462H106.885H106.88Z" fill="#16E0BD"/>
<path d="M1.49719 48.808V34.4826H6.91044C7.94919 34.4826 8.82214 34.6792 9.53903 35.0725C10.2559 35.4658 10.7972 35.9837 11.163 36.6216C11.5288 37.2594 11.7141 37.9549 11.7141 38.703C11.7141 39.6047 11.4556 40.4248 10.9387 41.1633C10.4217 41.8971 9.66095 42.4151 8.66608 42.7124L12.1676 48.808H9.5878L6.28133 42.9618H3.79904V48.808H1.49719ZM6.87142 36.4585H3.79904V41.0674H6.87142C7.70048 41.0674 8.31983 40.8324 8.73923 40.3624C9.15864 39.8924 9.36834 39.3601 9.36834 38.7654C9.36834 38.1707 9.15864 37.6383 8.73923 37.1683C8.31983 36.6983 7.6956 36.4633 6.87142 36.4633V36.4585Z" fill="#04A2FD"/>
<path d="M18.6635 48.9999C17.7857 48.9999 17.0249 48.8464 16.3909 48.5443C15.7521 48.2421 15.2303 47.8345 14.8157 47.3261C14.4012 46.8177 14.094 46.247 13.8891 45.6139C13.6843 44.9809 13.5819 44.3382 13.5819 43.6764C13.5819 43.0145 13.6794 42.3911 13.8794 41.758C14.0745 41.125 14.3768 40.5494 14.7865 40.0363C15.1913 39.5183 15.7131 39.1107 16.3422 38.8085C16.9713 38.5064 17.7126 38.3529 18.566 38.3529C19.4828 38.3529 20.2973 38.5543 20.9995 38.962C21.7018 39.3696 22.2529 39.9691 22.6528 40.7605C23.0526 41.5518 23.2526 42.5398 23.2526 43.7148V44.3142H15.8496C15.9033 45.1008 16.1715 45.777 16.6543 46.3477C17.142 46.9136 17.8101 47.2014 18.6635 47.2014C19.1512 47.2014 19.5511 47.1199 19.8632 46.9616C20.1802 46.7985 20.4192 46.6163 20.5899 46.4101C20.7606 46.2038 20.9166 45.9449 21.0629 45.6379H23.1502C23.0185 46.0887 22.8625 46.482 22.6869 46.8177C22.5113 47.1534 22.2577 47.4891 21.931 47.8249C21.6042 48.1606 21.1702 48.4435 20.6338 48.6689C20.0973 48.8944 19.4389 49.0095 18.6635 49.0095V48.9999ZM15.8642 42.77H21.0824C21.0288 41.8683 20.7557 41.2017 20.2631 40.7748C19.7706 40.348 19.1951 40.137 18.5416 40.137C17.8052 40.137 17.1956 40.372 16.7128 40.842C16.2251 41.312 15.9472 41.9546 15.8642 42.77Z" fill="#04A2FD"/>
<path d="M30.6312 48.9999C29.7534 48.9999 28.9828 48.8464 28.3293 48.5443C27.671 48.2421 27.1296 47.8345 26.6956 47.3261C26.2616 46.8177 25.9397 46.247 25.7202 45.6139C25.5057 44.9809 25.3935 44.3382 25.3935 43.6764C25.3935 43.0145 25.5008 42.3719 25.7202 41.7388C25.9348 41.1058 26.2616 40.5351 26.6956 40.0267C27.1296 39.5183 27.671 39.1107 28.3293 38.8085C28.9877 38.5064 29.7534 38.3529 30.6312 38.3529C31.509 38.3529 32.2161 38.4776 32.7867 38.7318C33.3573 38.9812 33.8157 39.2977 34.1571 39.6718C34.4985 40.0459 34.7521 40.4199 34.9228 40.794C35.0934 41.1681 35.2251 41.6141 35.3178 42.1321H33.1915C33.0744 41.7436 32.9281 41.4223 32.7575 41.1633C32.5868 40.9043 32.3332 40.6789 32.0016 40.4871C31.6651 40.2953 31.2164 40.1945 30.6507 40.1945C29.9826 40.1945 29.4217 40.3576 28.9779 40.6885C28.5293 41.0194 28.1928 41.4463 27.9636 41.9738C27.7344 42.5014 27.6173 43.0721 27.6173 43.6764C27.6173 44.2807 27.7344 44.8514 27.9636 45.3789C28.1928 45.9065 28.5293 46.3381 28.9779 46.6642C29.4217 46.9952 29.9826 47.1582 30.6507 47.1582C31.2164 47.1582 31.6651 47.0623 32.0016 46.8657C32.3381 46.6738 32.5868 46.4484 32.7575 46.1895C32.9281 45.9305 33.0744 45.6091 33.1915 45.2207H35.3178C35.2251 45.7386 35.0934 46.1799 34.9228 46.5587C34.7521 46.9328 34.4985 47.3069 34.1571 47.681C33.8157 48.0551 33.3622 48.3668 32.7867 48.621C32.2161 48.8704 31.4992 48.9999 30.6312 48.9999Z" fill="#04A2FD"/>
<path d="M42.5988 48.9999C41.721 48.9999 40.9602 48.8464 40.3262 48.5443C39.6874 48.2421 39.1656 47.8345 38.751 47.3261C38.3365 46.8177 38.0293 46.247 37.8244 45.6139C37.6196 44.9809 37.5172 44.3382 37.5172 43.6764C37.5172 43.0145 37.6147 42.3911 37.8147 41.758C38.0098 41.125 38.3121 40.5494 38.7218 40.0363C39.1266 39.5183 39.6484 39.1107 40.2775 38.8085C40.9066 38.5064 41.6479 38.3529 42.5013 38.3529C43.4181 38.3529 44.2326 38.5543 44.9348 38.962C45.6371 39.3696 46.1882 39.9691 46.5881 40.7605C46.9879 41.5518 47.1879 42.5398 47.1879 43.7148V44.3142H39.7849C39.8386 45.1008 40.1068 45.777 40.5896 46.3477C41.0773 46.9136 41.7454 47.2014 42.5988 47.2014C43.0865 47.2014 43.4864 47.1199 43.7985 46.9616C44.1155 46.7985 44.3545 46.6163 44.5252 46.4101C44.6959 46.2038 44.8519 45.9449 44.9982 45.6379H47.0855C46.9538 46.0887 46.7978 46.482 46.6222 46.8177C46.4466 47.1534 46.193 47.4891 45.8663 47.8249C45.5395 48.1606 45.1055 48.4435 44.5691 48.6689C44.0326 48.8944 43.3742 49.0095 42.5988 49.0095V48.9999ZM39.8044 42.77H45.0226C44.969 41.8683 44.6959 41.2017 44.2033 40.7748C43.7107 40.348 43.1353 40.137 42.4818 40.137C41.7454 40.137 41.1358 40.372 40.653 40.842C40.1653 41.312 39.8873 41.9546 39.8044 42.77Z" fill="#04A2FD"/>
<path d="M53.9763 48.9999C53.1473 48.9999 52.4889 48.8512 51.9866 48.5539C51.4892 48.2565 51.1283 47.8585 50.9137 47.3645C50.6991 46.8657 50.587 46.3286 50.587 45.7483V40.3289H48.7582V38.5496H50.587V35.9933H52.8303V38.5496H55.2736V40.3289H52.8303V45.7099C52.8303 46.6787 53.3765 47.1631 54.464 47.1631C54.742 47.1631 55.1126 47.1247 55.5857 47.048V48.8464C54.942 48.9519 54.4055 48.9999 53.9715 48.9999H53.9763Z" fill="#04A2FD"/>
<path d="M62.0865 38.3529C62.7449 38.3529 63.2911 38.4584 63.73 38.6646C64.1689 38.8708 64.52 39.1106 64.7834 39.3792C65.0467 39.6478 65.2369 39.8828 65.3539 40.0746H65.471V38.5447H67.7143V48.8032H65.471V47.2733H65.3539C65.2369 47.4651 65.0467 47.7001 64.7834 47.9687C64.52 48.2421 64.1689 48.4771 63.73 48.6833C63.2911 48.8895 62.74 48.995 62.0865 48.995C61.3013 48.995 60.6137 48.8416 60.0285 48.5394C59.4433 48.2373 58.9556 47.8296 58.5606 47.3213C58.1656 46.8129 57.8729 46.2422 57.6827 45.6091C57.4926 44.9761 57.395 44.3334 57.395 43.6716C57.395 43.0097 57.4877 42.3671 57.6827 41.734C57.8729 41.1009 58.1656 40.5302 58.5606 40.0219C58.9556 39.5135 59.4433 39.1058 60.0285 38.8037C60.6137 38.5016 61.2965 38.3481 62.0865 38.3481V38.3529ZM62.5791 40.1945C61.9353 40.1945 61.3989 40.3672 60.9648 40.7077C60.5308 41.0482 60.2089 41.4846 59.9895 42.0122C59.7749 42.5397 59.6627 43.0961 59.6627 43.6764C59.6627 44.2567 59.77 44.813 59.9895 45.3405C60.2089 45.8681 60.5308 46.3045 60.9648 46.645C61.3989 46.9856 61.9353 47.1582 62.5791 47.1582C63.2228 47.1582 63.7544 46.9856 64.1835 46.645C64.6078 46.3045 64.9297 45.8681 65.1491 45.3405C65.3637 44.813 65.4759 44.2567 65.4759 43.6764C65.4759 43.0961 65.3686 42.5397 65.1491 42.0122C64.9345 41.4846 64.6127 41.0482 64.1835 40.7077C63.7592 40.3672 63.2228 40.1945 62.5791 40.1945Z" fill="#04A2FD"/>
<path d="M74.3322 48.9999C73.5031 48.9999 72.8252 48.8848 72.2937 48.6594C71.7621 48.434 71.3378 48.1558 71.0257 47.8249C70.7087 47.494 70.4795 47.163 70.3283 46.8273C70.1771 46.4916 70.065 46.0983 69.9821 45.6475H72.1669C72.2595 45.9689 72.3766 46.2374 72.5229 46.4436C72.6692 46.6499 72.8886 46.8321 73.191 46.9952C73.4933 47.1582 73.8932 47.235 74.3907 47.235C74.9954 47.235 75.4441 47.1007 75.7367 46.8273C76.0293 46.554 76.1805 46.247 76.1805 45.8969C76.1805 45.5468 76.0537 45.2974 75.805 45.1056C75.5562 44.9137 75.2002 44.7651 74.7418 44.6596L73.3227 44.3478C72.7716 44.2183 72.2546 44.0409 71.7767 43.8155C71.2988 43.5901 70.9086 43.2879 70.616 42.9043C70.3186 42.5254 70.1723 42.0314 70.1723 41.4223C70.1723 40.5303 70.5136 39.7965 71.1964 39.2162C71.8791 38.6359 72.796 38.3433 73.9518 38.3433C74.6979 38.3433 75.3221 38.4488 75.8098 38.6551C76.3024 38.8613 76.6925 39.1155 76.9803 39.4176C77.268 39.7198 77.4874 40.0267 77.6289 40.3288C77.7752 40.631 77.8922 40.9859 77.9849 41.3839H75.8781C75.8001 41.125 75.6928 40.9091 75.5611 40.7365C75.4294 40.5638 75.2344 40.4056 74.9808 40.2713C74.7272 40.137 74.3809 40.0699 73.9469 40.0699C73.3568 40.0699 72.9276 40.1993 72.6692 40.4583C72.4058 40.7173 72.2741 40.9955 72.2741 41.2928C72.2741 41.5902 72.4009 41.8444 72.6594 42.017C72.9179 42.1897 73.2544 42.3239 73.6738 42.4151L75.0734 42.7268C76.0049 42.933 76.7706 43.2735 77.3753 43.7435C77.98 44.2135 78.2824 44.8946 78.2824 45.7866C78.2824 46.3813 78.1263 46.9184 77.8191 47.4028C77.5118 47.8872 77.0632 48.2757 76.4682 48.5634C75.8781 48.856 75.1612 48.9999 74.3224 48.9999H74.3322Z" fill="#04A2FD"/>
</g>
<defs>
<clipPath id="clip0_1052_146">
<rect width="133" height="49" fill="white"/>
</clipPath>
</defs>
</svg>
