<svg width="114" height="26" viewBox="0 0 114 26" fill="none" xmlns="http://www.w3.org/2000/svg">
<g clip-path="url(#clip0_664_243)">
<path d="M105.395 8.65759C106.243 8.65759 106.942 8.79061 107.492 9.05665C108.04 9.3227 108.461 9.61129 108.753 9.91792C109.043 10.2245 109.222 10.4342 109.29 10.547H109.489V8.89883H113.281V21.7412H109.489V20.093H109.29C109.222 20.2058 109.043 20.4155 108.753 20.7221C108.463 21.0287 108.043 21.3151 107.492 21.5834C106.944 21.8494 106.245 21.9824 105.395 21.9824C104.413 21.9824 103.561 21.793 102.839 21.412C102.114 21.0332 101.513 20.5237 101.03 19.8856C100.547 19.2476 100.184 18.5328 99.9451 17.7415C99.7036 16.9501 99.5828 16.1429 99.5828 15.3177C99.5828 14.4926 99.7036 13.6854 99.9451 12.894C100.187 12.1027 100.549 11.3879 101.03 10.7499C101.513 10.1118 102.114 9.60227 102.839 9.2235C103.563 8.84472 104.415 8.65308 105.395 8.65308V8.65759ZM106.494 11.6359C105.811 11.6359 105.242 11.8186 104.785 12.1816C104.327 12.5446 103.986 13.009 103.76 13.5749C103.535 14.1408 103.424 14.7225 103.424 15.32C103.424 15.9175 103.535 16.4992 103.76 17.0651C103.986 17.631 104.325 18.0954 104.785 18.4584C105.242 18.8214 105.811 19.0041 106.494 19.0041C107.176 19.0041 107.745 18.8214 108.203 18.4584C108.66 18.0954 109.002 17.631 109.227 17.0651C109.452 16.4992 109.564 15.9175 109.564 15.32C109.564 14.7225 109.452 14.1408 109.227 13.5749C109.002 13.009 108.66 12.5446 108.203 12.1816C107.745 11.8186 107.176 11.6359 106.494 11.6359Z" fill="white"/>
<path d="M0 21.7413V3.8103H6.98748C8.4853 3.8103 9.80198 4.06508 10.9422 4.57237C12.0824 5.08191 13.0252 5.76281 13.7753 6.61957C14.523 7.47632 15.0896 8.43679 15.4728 9.50323C15.8559 10.5697 16.0464 11.6587 16.0464 12.7747C16.0464 13.8907 15.8559 14.9797 15.4728 16.0462C15.0896 17.1126 14.5253 18.0731 13.7753 18.9298C13.0275 19.7866 12.0824 20.4675 10.9422 20.977C9.80198 21.4866 8.48297 21.7391 6.98748 21.7391H0V21.7413ZM6.81332 7.08176H3.84323V18.4203H6.81332C8.02782 18.4203 9.03101 18.1452 9.82056 17.5973C10.6101 17.0495 11.2023 16.337 11.5924 15.4645C11.9825 14.5919 12.1799 13.6878 12.1799 12.7499C12.1799 11.812 11.9848 10.9124 11.5924 10.0489C11.2023 9.18533 10.6101 8.47287 9.82056 7.91598C9.03101 7.35908 8.02782 7.07951 6.81332 7.07951V7.08176Z" fill="white"/>
<path d="M24.0557 21.9823C22.5742 21.9823 21.3179 21.6712 20.2868 21.0489C19.2557 20.4266 18.4685 19.6104 17.9274 18.6026C17.3864 17.5925 17.117 16.4991 17.117 15.3199C17.117 14.1407 17.3864 13.0472 17.9274 12.0372C18.4685 11.0271 19.2534 10.2132 20.2868 9.59089C21.3179 8.96861 22.5742 8.65747 24.0557 8.65747C25.5373 8.65747 26.7913 8.96861 27.8246 9.59089C28.8557 10.2132 29.6429 11.0293 30.184 12.0372C30.7251 13.0472 30.9944 14.1407 30.9944 15.3199C30.9944 16.4991 30.7227 17.5925 30.184 18.6026C29.6429 19.6127 28.858 20.4289 27.8246 21.0489C26.7936 21.6712 25.5373 21.9823 24.0557 21.9823ZM24.0557 18.9769C24.7199 18.9769 25.2818 18.8078 25.7393 18.4673C26.1968 18.1292 26.5498 17.6805 26.8006 17.1236C27.0514 16.5667 27.1744 15.9647 27.1744 15.3176C27.1744 14.6706 27.049 14.0505 26.8006 13.5004C26.5521 12.9525 26.1968 12.5061 25.7393 12.1679C25.2818 11.8297 24.7199 11.6584 24.0557 11.6584C23.3916 11.6584 22.825 11.8275 22.3582 12.1679C21.8914 12.5061 21.5385 12.9525 21.297 13.5004C21.0554 14.0505 20.9347 14.6548 20.9347 15.3176C20.9347 15.9805 21.0554 16.5644 21.297 17.1236C21.5385 17.6805 21.8914 18.1292 22.3582 18.4673C22.8226 18.8055 23.3892 18.9769 24.0557 18.9769Z" fill="white"/>
<path d="M39.1034 21.9822C37.9377 21.9822 36.9229 21.7928 36.0591 21.4118C35.1929 21.033 34.4776 20.5279 33.9133 19.8966C33.3467 19.2676 32.9241 18.5529 32.6408 17.7525C32.3575 16.9521 32.2158 16.1404 32.2158 15.3175C32.2158 14.4946 32.3575 13.6852 32.6408 12.8938C32.9241 12.1024 33.3467 11.3877 33.9133 10.7496C34.4776 10.1116 35.1952 9.60203 36.0591 9.22325C36.9229 8.84447 37.94 8.65283 39.1034 8.65283C40.2669 8.65283 41.2584 8.81967 42.0224 9.14885C42.7864 9.48028 43.3995 9.89288 43.857 10.3844C44.3145 10.8781 44.6512 11.3697 44.8671 11.8634C45.0831 12.3572 45.2503 12.9344 45.3664 13.595H41.8227C41.7066 13.1914 41.5603 12.8555 41.3862 12.5894C41.212 12.3234 40.9496 12.0889 40.5989 11.886C40.2506 11.683 39.7839 11.5838 39.201 11.5838C38.4857 11.5838 37.8913 11.7575 37.4175 12.1047C36.9438 12.4519 36.5908 12.9096 36.3563 13.4732C36.1241 14.0391 36.008 14.6524 36.008 15.3152C36.008 15.9781 36.1241 16.5914 36.3563 17.1573C36.5885 17.7232 36.9438 18.1786 37.4175 18.5258C37.8913 18.873 38.4857 19.0467 39.201 19.0467C39.7839 19.0467 40.2483 18.9452 40.5989 18.7445C40.9473 18.5416 41.2097 18.3094 41.3862 18.0411C41.5603 17.775 41.7066 17.4391 41.8227 17.0355H45.3664C45.2503 17.6984 45.0831 18.2756 44.8671 18.7671C44.6512 19.2608 44.3145 19.7524 43.857 20.2439C43.3995 20.7376 42.7888 21.148 42.0224 21.4794C41.2561 21.8108 40.2831 21.9754 39.1034 21.9754V21.9822Z" fill="white"/>
<path d="M53.0529 21.9822C52.0219 21.9822 51.1975 21.8334 50.5821 21.5336C49.9667 21.2337 49.5 20.8549 49.1841 20.395C48.8683 19.935 48.6593 19.4458 48.5595 18.9295C48.4596 18.4132 48.4108 17.9352 48.4108 17.5V11.8296H46.1653V8.89863H48.4108V5.72412H52.203V8.89863H55.0221V11.8296H52.203V17.4031C52.203 17.9352 52.3493 18.3478 52.6396 18.6386C52.9298 18.9295 53.4175 19.0738 54.1002 19.0738C54.3998 19.0738 54.7992 19.0264 55.2985 18.9295V21.7635C54.3998 21.9078 53.652 21.9822 53.0529 21.9822Z" fill="white"/>
<path d="M63.1848 21.9823C61.7032 21.9823 60.4469 21.6712 59.4159 21.0489C58.3848 20.4266 57.5976 19.6104 57.0589 18.6026C56.5178 17.5925 56.2484 16.4991 56.2484 15.3199C56.2484 14.1407 56.5178 13.0472 57.0589 12.0372C57.5999 11.0271 58.3848 10.2132 59.4159 9.59089C60.4469 8.96861 61.7032 8.65747 63.1848 8.65747C64.6664 8.65747 65.9204 8.96861 66.9537 9.59089C67.9848 10.2132 68.772 11.0293 69.3131 12.0372C69.8542 13.0472 70.1235 14.1407 70.1235 15.3199C70.1235 16.4991 69.8518 17.5925 69.3131 18.6026C68.772 19.6127 67.9871 20.4289 66.9537 21.0489C65.9227 21.6712 64.6664 21.9823 63.1848 21.9823ZM63.1848 18.9769C63.849 18.9769 64.4109 18.8078 64.8684 18.4673C65.3259 18.1292 65.6788 17.6805 65.9296 17.1236C66.1804 16.5667 66.3035 15.9647 66.3035 15.3176C66.3035 14.6706 66.1781 14.0505 65.9296 13.5004C65.6812 12.9525 65.3259 12.5061 64.8684 12.1679C64.4109 11.8297 63.849 11.6584 63.1848 11.6584C62.5207 11.6584 61.954 11.8275 61.4873 12.1679C61.0205 12.5061 60.6675 12.9525 60.426 13.5004C60.1845 14.0505 60.0638 14.6548 60.0638 15.3176C60.0638 15.9805 60.1845 16.5644 60.426 17.1236C60.6675 17.6805 61.0205 18.1292 61.4873 18.4673C61.9517 18.8055 62.5183 18.9769 63.1848 18.9769Z" fill="white"/>
<path d="M71.6444 21.7409V8.89859H75.4133V10.7632H75.5387C75.6874 10.425 75.8964 10.0935 76.1634 9.76887C76.4305 9.44646 76.795 9.18041 77.2618 8.96848C77.7262 8.7588 78.3254 8.65283 79.0592 8.65283C79.4261 8.65283 79.8232 8.69341 80.2574 8.77458V12.409C79.7744 12.3121 79.3425 12.2647 78.9593 12.2647C77.7773 12.2647 76.8972 12.5759 76.3143 13.1982C75.7315 13.8204 75.4412 14.8328 75.4412 16.2396V21.7387H71.6491L71.6444 21.7409Z" fill="white"/>
<path d="M98.6028 19.6468C97.5462 19.6468 96.6846 20.481 96.6846 21.5091C96.6846 21.6895 96.7125 21.8654 96.7613 22.0299L96.4803 22.323C94.9778 23.8765 94.3601 23.4639 94.1558 23.3263C93.7912 23.0828 93.5752 22.6454 93.5752 22.1562V14.7002C93.6333 14.6911 93.6913 14.6821 93.7494 14.6708C93.8492 14.6506 93.9491 14.6303 94.0466 14.6077C94.0652 14.6032 94.0861 14.5987 94.1047 14.5942C97.4858 13.8118 100.024 10.6644 100.024 6.91042C100.024 5.35022 99.5874 3.84188 98.7607 2.54998L98.4588 2.07876C98.482 1.96829 98.4936 1.85105 98.4936 1.73381C98.4936 0.775591 97.6948 0 96.7079 0C95.7209 0 94.9221 0.775591 94.9221 1.73381C94.9221 2.55674 95.5119 3.24215 96.3038 3.42252L96.5871 3.86217C97.163 4.76177 97.4649 5.81468 97.4649 6.91268C97.4649 9.88202 95.224 12.299 92.4699 12.299C89.7157 12.299 87.4748 9.88202 87.4748 6.91268C87.4748 5.86653 87.7535 4.85195 88.2806 3.97941L88.6266 3.40674C89.3837 3.20608 89.941 2.5342 89.941 1.73606C89.941 0.777845 89.1422 0.00225462 88.1552 0.00225462C87.1683 0.00225462 86.3695 0.777845 86.3695 1.73606C86.3695 1.87585 86.388 2.01113 86.4205 2.14189L86.0745 2.71908C85.3152 3.97265 84.9158 5.42463 84.9158 6.91268C84.9158 10.741 87.5538 13.9381 91.0347 14.6393C91.0696 14.6483 91.1044 14.6551 91.1416 14.6618C91.1462 14.6618 91.1532 14.6618 91.1601 14.6641C91.2159 14.6731 91.2879 14.6844 91.3715 14.6956V22.1562C91.3715 23.3489 91.945 24.4469 92.9064 25.0895C93.4475 25.4525 94.0281 25.6373 94.6341 25.6373C95.7418 25.6373 96.9029 25.0151 98.0873 23.7863L98.4936 23.3669C98.5308 23.3669 98.5656 23.3714 98.6028 23.3714C99.6594 23.3714 100.521 22.5372 100.521 21.5091C100.521 20.481 99.6617 19.6468 98.6028 19.6468ZM98.6028 22.571C97.999 22.571 97.509 22.0953 97.509 21.5091C97.509 20.9229 97.999 20.4472 98.6028 20.4472C99.2065 20.4472 99.6965 20.9229 99.6965 21.5091C99.6965 22.0953 99.2065 22.571 98.6028 22.571Z" fill="white"/>
<path d="M91.0276 15.0901C91.0276 15.0901 91.0671 15.0991 91.1414 15.1126C91.1043 15.1059 91.0694 15.0991 91.0346 15.0901H91.0276Z" fill="white"/>
</g>
<defs>
<clipPath id="clip0_664_243">
<rect width="113.281" height="25.6373" fill="white"/>
</clipPath>
</defs>
</svg>
