<svg width="1440" height="682" viewBox="0 0 1440 682" fill="none" xmlns="http://www.w3.org/2000/svg">
<g clip-path="url(#clip0_664_675)">
<g opacity="0.1">
<path d="M78.9901 561.36C119.224 561.36 151.84 528.744 151.84 488.51C151.84 448.276 119.224 415.66 78.9901 415.66C38.7562 415.66 6.14014 448.276 6.14014 488.51C6.14014 528.744 38.7562 561.36 78.9901 561.36Z" fill="#16E0BD"/>
<path d="M214.24 705.98C214.24 863.7 110.74 995.87 -27.13 1028.72C-27.89 1028.91 -28.74 1029.1 -29.5 1029.29C-33.49 1030.24 -37.57 1031.09 -41.66 1031.85V1031.95C-87.71 1040.59 -132.25 1034.23 -147.34 1031.57C-147.63 1031.47 -147.91 1031.47 -148.1 1031.47C-149.62 1031.18 -151.04 1030.9 -152.47 1030.52C-294.42 1001.1 -402 866.83 -402 705.98C-402 643.5 -385.67 582.54 -354.71 529.84L-340.37 505.25L-250.26 558.14L-264.69 582.73C-286.15 619.38 -297.54 662.02 -297.54 705.98C-297.54 830.75 -206.2 932.25 -93.87 932.25C18.46 932.25 109.81 830.75 109.81 705.98C109.81 659.93 97.47 615.68 74.01 577.89L58.91 553.68L147.69 498.61L162.69 522.82C196.49 577.13 214.25 640.47 214.25 705.98H214.24Z" fill="#16E0BD"/>
</g>
<g opacity="0.1">
<path d="M1597.11 170.22L1580.35 188.13C1532.03 239.72 1484.61 265.88 1439.48 265.88C1414.79 265.88 1391.08 258.11 1369 242.91C1329.76 215.93 1306.37 169.82 1306.37 119.7V-251.73C1306.04 -251.81 1305.64 -251.89 1305.31 -251.98C1318.31 -249.69 1356.66 -244.21 1396.31 -251.65V119.7C1396.31 140.22 1405.14 158.62 1420.02 168.84C1428.36 174.56 1453.54 191.9 1514.78 126.65L1531.54 108.74L1597.11 170.22Z" fill="#16E0BD"/>
</g>
<g opacity="0.1">
<path d="M964.38 132C967.539 132 970.1 129.439 970.1 126.28C970.1 123.121 967.539 120.56 964.38 120.56C961.221 120.56 958.66 123.121 958.66 126.28C958.66 129.439 961.221 132 964.38 132Z" fill="#16E0BD"/>
<path d="M937.01 132C940.169 132 942.73 129.439 942.73 126.28C942.73 123.121 940.169 120.56 937.01 120.56C933.851 120.56 931.29 123.121 931.29 126.28C931.29 129.439 933.851 132 937.01 132Z" fill="#16E0BD"/>
<path d="M970.44 197.59C967.06 197.59 964.3 194.84 964.3 191.45C964.3 188.06 967.05 185.32 970.44 185.32C973.83 185.32 976.57 188.07 976.57 191.45C976.57 194.83 973.82 197.59 970.44 197.59ZM970.44 187.96C968.51 187.96 966.94 189.53 966.94 191.46C966.94 193.39 968.51 194.96 970.44 194.96C972.37 194.96 973.94 193.39 973.94 191.46C973.94 189.53 972.37 187.96 970.44 187.96Z" fill="#16E0BD"/>
<path d="M970.11 197.56L968.8 198.96C965.01 203.01 961.29 205.06 957.75 205.06C955.81 205.06 953.95 204.45 952.22 203.26C949.14 201.14 947.31 197.52 947.31 193.59V164.45C947.31 164.45 947.25 164.44 947.23 164.43C948.25 164.61 951.26 165.04 954.37 164.46V193.6C954.37 195.21 955.06 196.65 956.23 197.46C956.88 197.91 958.86 199.27 963.66 194.15L964.97 192.75L970.11 197.57V197.56Z" fill="#16E0BD"/>
<path d="M974.99 143.35C974.99 155.72 966.87 166.1 956.05 168.67C955.99 168.68 955.92 168.7 955.86 168.71C955.55 168.78 955.23 168.85 954.91 168.91C951.3 169.6 947.8 169.1 946.62 168.89C946.6 168.89 946.58 168.89 946.56 168.89C946.44 168.87 946.33 168.85 946.22 168.82C935.08 166.51 926.64 155.98 926.64 143.36C926.64 138.46 927.92 133.67 930.35 129.54L931.47 127.61L938.54 131.76L937.41 133.69C935.73 136.57 934.83 139.91 934.83 143.36C934.83 153.15 942 161.11 950.81 161.11C959.62 161.11 966.79 153.15 966.79 143.36C966.79 139.75 965.82 136.27 963.98 133.31L962.8 131.41L969.77 127.09L970.95 128.99C973.6 133.25 975 138.22 975 143.36L974.99 143.35Z" fill="#16E0BD"/>
</g>
<path d="M151.85 2.21991C98.77 2.21991 55.5701 -40.9701 55.5701 -94.0601C55.5701 -147.15 98.76 -190.33 151.85 -190.33C204.94 -190.33 248.12 -147.15 248.12 -94.0601C248.12 -40.9701 204.94 2.21991 151.85 2.21991ZM151.85 -148.99C121.56 -148.99 96.9101 -124.35 96.9101 -94.0601C96.9101 -63.7701 121.56 -39.1201 151.85 -39.1201C182.14 -39.1201 206.78 -63.7701 206.78 -94.0601C206.78 -124.35 182.14 -148.99 151.85 -148.99Z" fill="#16E0BD"/>
<path d="M1424.7 730.3C1410.08 730.3 1398.18 718.4 1398.18 703.78C1398.18 689.16 1410.08 677.27 1424.7 677.27C1439.32 677.27 1451.21 689.16 1451.21 703.78C1451.21 718.4 1439.32 730.3 1424.7 730.3ZM1424.7 688.65C1416.36 688.65 1409.57 695.44 1409.57 703.78C1409.57 712.12 1416.36 718.91 1424.7 718.91C1433.04 718.91 1439.83 712.12 1439.83 703.78C1439.83 695.44 1433.04 688.65 1424.7 688.65Z" stroke="#16E0BD" stroke-miterlimit="10"/>
<g opacity="0.2">
<path d="M1242.53 195.18C1233.56 195.18 1226.26 187.88 1226.26 178.91C1226.26 169.94 1233.56 162.65 1242.53 162.65C1251.5 162.65 1258.79 169.94 1258.79 178.91C1258.79 187.88 1251.5 195.18 1242.53 195.18ZM1242.53 169.63C1237.41 169.63 1233.25 173.79 1233.25 178.91C1233.25 184.03 1237.41 188.19 1242.53 188.19C1247.65 188.19 1251.81 184.03 1251.81 178.91C1251.81 173.79 1247.65 169.63 1242.53 169.63Z" stroke="#043381" stroke-miterlimit="10"/>
</g>
<g opacity="0.2">
<path d="M1119.91 254.7H1109.66C1106.33 254.7 1103.76 252.31 1103.76 249.23C1103.76 246.15 1106.67 243.85 1109.66 243.85H1119.91V232.83C1119.91 230.01 1122.47 227.36 1125.81 227.36C1129.15 227.36 1131.71 229.75 1131.71 232.83V243.85H1141.96C1144.95 243.85 1147.86 246.16 1147.86 249.23C1147.86 252.3 1145.3 254.7 1141.96 254.7H1131.71V265.72C1131.71 268.8 1129.15 271.1 1125.81 271.1C1122.47 271.1 1119.91 268.45 1119.91 265.72V254.7Z" fill="#16E0BD"/>
</g>
</g>
<defs>
<clipPath id="clip0_664_675">
<rect width="2244.11" height="2303.54" fill="white" transform="translate(-402 -811)"/>
</clipPath>
</defs>
</svg>
