<svg width="1440" height="1339" viewBox="0 0 1440 1339" fill="none" xmlns="http://www.w3.org/2000/svg">
<g opacity="0.6" clip-path="url(#clip0_664_357)">
<g opacity="0.1">
<path d="M288.011 638.05C318.292 638.05 342.84 613.498 342.84 583.212C342.84 552.926 318.292 528.374 288.011 528.374C257.729 528.374 233.181 552.926 233.181 583.212C233.181 613.498 257.729 638.05 288.011 638.05Z" fill="#16E0BD"/>
<path d="M25.476 638.05C55.7576 638.05 80.3056 613.498 80.3056 583.212C80.3056 552.926 55.7576 528.374 25.476 528.374C-4.80553 528.374 -29.3536 552.926 -29.3536 583.212C-29.3536 613.498 -4.80553 638.05 25.476 638.05Z" fill="#16E0BD"/>
<path d="M346.152 1267.35C313.698 1267.35 287.296 1240.94 287.296 1208.48C287.296 1176.02 313.698 1149.62 346.152 1149.62C378.606 1149.62 405.001 1176.02 405.001 1208.48C405.001 1240.94 378.606 1267.35 346.152 1267.35ZM346.152 1174.9C327.637 1174.9 312.569 1189.96 312.569 1208.48C312.569 1227 327.637 1242.07 346.152 1242.07C364.667 1242.07 379.727 1227 379.727 1208.48C379.727 1189.96 364.667 1174.9 346.152 1174.9Z" fill="#16E0BD"/>
<path d="M342.991 1266.99L330.377 1280.47C294.009 1319.31 258.319 1339 224.353 1339C205.77 1339 187.925 1333.15 171.307 1321.71C141.773 1301.4 124.169 1266.69 124.169 1228.96V949.367C123.921 949.306 123.62 949.246 123.371 949.178C133.156 950.902 162.019 955.027 191.861 949.427V1228.96C191.861 1244.41 198.507 1258.26 209.706 1265.95C215.983 1270.26 234.935 1283.31 281.026 1234.19L293.641 1220.71L342.991 1266.99Z" fill="#16E0BD"/>
<path d="M389.805 746.913C389.805 865.638 311.907 965.129 208.141 989.857C207.569 990 206.929 990.143 206.357 990.286C203.354 991.002 200.283 991.641 197.205 992.213V992.289C162.546 998.793 129.024 994.005 117.666 992.003C117.448 991.927 117.237 991.927 117.094 991.927C115.95 991.709 114.882 991.498 113.805 991.212C6.96867 969.066 -74 867.994 -74 746.913C-74 699.881 -61.7094 653.993 -38.4078 614.323L-27.615 595.813L40.2051 635.626L29.3446 654.136C13.193 681.725 4.62044 713.822 4.62044 746.913C4.62044 840.835 73.3663 917.239 157.91 917.239C242.454 917.239 311.207 840.835 311.207 746.913C311.207 712.249 301.919 678.94 284.263 650.493L272.898 632.269L339.717 590.815L351.006 609.039C376.446 649.921 389.812 697.6 389.812 746.913H389.805Z" fill="#16E0BD"/>
</g>
<g opacity="0.1">
<path d="M1433.76 343.964C1401.31 343.964 1374.91 317.557 1374.91 285.099C1374.91 252.64 1401.31 226.241 1433.76 226.241C1466.22 226.241 1492.61 252.64 1492.61 285.099C1492.61 317.557 1466.22 343.964 1433.76 343.964ZM1433.76 251.526C1415.25 251.526 1400.18 266.588 1400.18 285.106C1400.18 303.624 1415.25 318.694 1433.76 318.694C1452.28 318.694 1467.34 303.624 1467.34 285.106C1467.34 266.588 1452.28 251.526 1433.76 251.526Z" fill="#16E0BD"/>
<path d="M1430.6 343.618L1417.99 357.099C1381.62 395.934 1345.93 415.626 1311.97 415.626C1293.38 415.626 1275.54 409.777 1258.92 398.335C1229.39 378.026 1211.78 343.316 1211.78 305.588V25.9929C1211.53 25.9327 1211.23 25.8724 1210.98 25.8047C1220.77 27.5285 1249.63 31.6536 1279.47 26.0531V305.588C1279.47 321.035 1286.12 334.886 1297.32 342.579C1303.6 346.885 1322.55 359.937 1368.64 310.82L1381.25 297.338L1430.6 343.618Z" fill="#16E0BD"/>
<path d="M1477.42 -176.46C1477.42 -57.736 1399.52 41.7556 1295.75 66.4835C1295.18 66.6266 1294.54 66.7696 1293.97 66.9126C1290.97 67.6277 1287.9 68.2676 1284.82 68.8397V68.9149C1250.16 75.4187 1216.64 70.6312 1205.28 68.6289C1205.06 68.5536 1204.85 68.5536 1204.71 68.5536C1203.56 68.3353 1202.49 68.1245 1201.42 67.8385C1094.57 45.6774 1013.61 -55.3874 1013.61 -176.468C1013.61 -223.5 1025.9 -269.388 1049.21 -309.058L1060 -327.568L1127.82 -287.755L1116.96 -269.245C1100.81 -241.657 1092.23 -209.559 1092.23 -176.468C1092.23 -82.5468 1160.98 -6.14221 1245.52 -6.14221C1330.07 -6.14221 1398.82 -82.5468 1398.82 -176.468C1398.82 -211.132 1389.53 -244.442 1371.88 -272.888L1360.51 -291.112L1427.33 -332.567L1438.62 -314.342C1464.06 -273.46 1477.43 -225.781 1477.43 -176.468L1477.42 -176.46Z" fill="#16E0BD"/>
</g>
<g opacity="0.1">
<path d="M954.388 314.847C956.766 314.847 958.693 312.92 958.693 310.542C958.693 308.164 956.766 306.236 954.388 306.236C952.01 306.236 950.083 308.164 950.083 310.542C950.083 312.92 952.01 314.847 954.388 314.847Z" fill="#16E0BD"/>
<path d="M933.788 314.847C936.166 314.847 938.093 312.92 938.093 310.542C938.093 308.164 936.166 306.236 933.788 306.236C931.411 306.236 929.483 308.164 929.483 310.542C929.483 312.92 931.411 314.847 933.788 314.847Z" fill="#16E0BD"/>
<path d="M958.949 364.22C956.405 364.22 954.328 362.15 954.328 359.599C954.328 357.047 956.397 354.984 958.949 354.984C961.5 354.984 963.563 357.054 963.563 359.599C963.563 362.143 961.493 364.22 958.949 364.22ZM958.949 356.971C957.496 356.971 956.315 358.153 956.315 359.606C956.315 361.059 957.496 362.241 958.949 362.241C960.401 362.241 961.583 361.059 961.583 359.606C961.583 358.153 960.401 356.971 958.949 356.971Z" fill="#16E0BD"/>
<path d="M958.701 364.198L957.715 365.252C954.862 368.301 952.062 369.844 949.398 369.844C947.938 369.844 946.538 369.385 945.236 368.489C942.918 366.893 941.54 364.168 941.54 361.21V339.274C941.54 339.274 941.495 339.267 941.48 339.259C942.248 339.395 944.513 339.718 946.854 339.282V361.217C946.854 362.429 947.373 363.513 948.254 364.123C948.743 364.462 950.233 365.485 953.846 361.631L954.832 360.577L958.701 364.206V364.198Z" fill="#16E0BD"/>
<path d="M962.373 323.391C962.373 332.703 956.262 340.516 948.118 342.451C948.073 342.458 948.021 342.473 947.975 342.481C947.742 342.534 947.501 342.586 947.26 342.632C944.543 343.151 941.909 342.775 941.021 342.616C941.006 342.616 940.991 342.616 940.976 342.616C940.886 342.601 940.803 342.586 940.72 342.564C932.336 340.825 925.983 332.898 925.983 323.399C925.983 319.71 926.947 316.104 928.776 312.996L929.619 311.543L934.94 314.667L934.089 316.12C932.825 318.287 932.147 320.802 932.147 323.399C932.147 330.768 937.544 336.76 944.175 336.76C950.805 336.76 956.202 330.768 956.202 323.399C956.202 320.681 955.472 318.062 954.087 315.833L953.199 314.403L958.445 311.151L959.333 312.582C961.327 315.788 962.381 319.529 962.381 323.399L962.373 323.391Z" fill="#16E0BD"/>
</g>
<g opacity="0.1">
<path d="M659.272 818.756C661.649 818.756 663.577 816.829 663.577 814.451C663.577 812.073 661.649 810.145 659.272 810.145C656.894 810.145 654.966 812.073 654.966 814.451C654.966 816.829 656.894 818.756 659.272 818.756Z" fill="#043381"/>
<path d="M638.672 818.756C641.049 818.756 642.977 816.829 642.977 814.451C642.977 812.073 641.049 810.145 638.672 810.145C636.294 810.145 634.367 812.073 634.367 814.451C634.367 816.829 636.294 818.756 638.672 818.756Z" fill="#043381"/>
<path d="M663.833 868.13C661.289 868.13 659.211 866.059 659.211 863.508C659.211 860.956 661.281 858.893 663.833 858.893C666.384 858.893 668.446 860.963 668.446 863.508C668.446 866.052 666.376 868.13 663.833 868.13ZM663.833 860.88C662.38 860.88 661.198 862.062 661.198 863.515C661.198 864.968 662.38 866.15 663.833 866.15C665.285 866.15 666.467 864.968 666.467 863.515C666.467 862.062 665.285 860.88 663.833 860.88Z" fill="#043381"/>
<path d="M663.584 868.099L662.598 869.153C659.746 872.202 656.946 873.745 654.282 873.745C652.821 873.745 651.421 873.286 650.119 872.39C647.801 870.794 646.424 868.069 646.424 865.111V843.176C646.424 843.176 646.379 843.168 646.364 843.161C647.131 843.296 649.397 843.62 651.738 843.183V865.119C651.738 866.33 652.257 867.414 653.138 868.024C653.627 868.363 655.117 869.387 658.73 865.533L659.716 864.479L663.584 868.107V868.099Z" fill="#043381"/>
<path d="M667.257 827.3C667.257 836.612 661.146 844.425 653.002 846.36C652.957 846.367 652.904 846.382 652.859 846.39C652.626 846.443 652.385 846.495 652.144 846.54C649.427 847.06 646.793 846.684 645.905 846.525C645.89 846.525 645.875 846.525 645.86 846.525C645.769 846.51 645.686 846.495 645.604 846.473C637.219 844.734 630.867 836.807 630.867 827.308C630.867 823.619 631.83 820.013 633.659 816.905L634.502 815.452L639.823 818.576L638.973 820.028C637.708 822.196 637.031 824.711 637.031 827.308C637.031 834.677 642.427 840.669 649.058 840.669C655.689 840.669 661.085 834.677 661.085 827.308C661.085 824.59 660.355 821.971 658.97 819.742L658.082 818.312L663.328 815.06L664.216 816.491C666.211 819.697 667.265 823.438 667.265 827.308L667.257 827.3Z" fill="#043381"/>
</g>
<g opacity="0.2">
<path d="M142.12 507.477C117.012 507.477 96.5776 487.04 96.5776 461.928C96.5776 436.816 117.012 416.386 142.12 416.386C167.228 416.386 187.654 436.816 187.654 461.928C187.654 487.04 167.228 507.477 142.12 507.477ZM142.12 435.943C127.789 435.943 116.131 447.596 116.131 461.928C116.131 476.261 127.789 487.921 142.12 487.921C156.45 487.921 168.101 476.261 168.101 461.928C168.101 447.596 156.45 435.943 142.12 435.943Z" stroke="#043381" stroke-miterlimit="10"/>
</g>
<path d="M441.029 958.821C415.921 958.821 395.487 938.384 395.487 913.272C395.487 888.16 415.921 867.73 441.029 867.73C466.137 867.73 486.564 888.16 486.564 913.272C486.564 938.384 466.137 958.821 441.029 958.821ZM441.029 887.287C426.699 887.287 415.041 898.94 415.041 913.272C415.041 927.605 426.699 939.265 441.029 939.265C455.36 939.265 467.01 927.605 467.01 913.272C467.01 898.94 455.36 887.287 441.029 887.287Z" stroke="#16E0BD" stroke-miterlimit="10"/>
<path d="M1300.84 765.22C1289.84 765.22 1280.88 756.263 1280.88 745.257C1280.88 734.252 1289.84 725.302 1300.84 725.302C1311.85 725.302 1320.79 734.252 1320.79 745.257C1320.79 756.263 1311.85 765.22 1300.84 765.22ZM1300.84 733.868C1294.56 733.868 1289.45 738.979 1289.45 745.257C1289.45 751.535 1294.56 756.647 1300.84 756.647C1307.12 756.647 1312.23 751.535 1312.23 745.257C1312.23 738.979 1307.12 733.868 1300.84 733.868Z" stroke="#16E0BD" stroke-miterlimit="10"/>
<g opacity="0.2">
<path d="M1163.73 362.407C1156.98 362.407 1151.49 356.911 1151.49 350.159C1151.49 343.407 1156.98 337.919 1163.73 337.919C1170.49 337.919 1175.97 343.407 1175.97 350.159C1175.97 356.911 1170.49 362.407 1163.73 362.407ZM1163.73 343.174C1159.88 343.174 1156.75 346.305 1156.75 350.159C1156.75 354.013 1159.88 357.145 1163.73 357.145C1167.59 357.145 1170.72 354.013 1170.72 350.159C1170.72 346.305 1167.59 343.174 1163.73 343.174Z" stroke="#043381" stroke-miterlimit="10"/>
</g>
<g opacity="0.2">
<path d="M1071.45 407.21H1063.73C1061.22 407.21 1059.29 405.411 1059.29 403.093C1059.29 400.774 1061.48 399.043 1063.73 399.043H1071.45V390.748C1071.45 388.625 1073.37 386.63 1075.89 386.63C1078.4 386.63 1080.33 388.429 1080.33 390.748V399.043H1088.04C1090.29 399.043 1092.48 400.782 1092.48 403.093C1092.48 405.404 1090.55 407.21 1088.04 407.21H1080.33V415.506C1080.33 417.824 1078.4 419.556 1075.89 419.556C1073.37 419.556 1071.45 417.561 1071.45 415.506V407.21Z" fill="#16E0BD"/>
</g>
<path d="M157.565 718.346H147.682C144.469 718.346 142 716.043 142 713.077C142 710.111 144.8 707.891 147.682 707.891H157.565V697.269C157.565 694.552 160.033 692 163.247 692C166.461 692 168.929 694.303 168.929 697.269V707.891H178.811C181.694 707.891 184.494 710.111 184.494 713.077C184.494 716.043 182.025 718.346 178.811 718.346H168.929V728.968C168.929 731.934 166.461 734.154 163.247 734.154C160.033 734.154 157.565 731.602 157.565 728.968V718.346Z" stroke="#043381" stroke-opacity="0.2" stroke-miterlimit="10"/>
<g opacity="0.2">
<path d="M563.867 820.352H560.044C558.802 820.352 557.846 819.456 557.846 818.312C557.846 817.168 558.93 816.302 560.044 816.302H563.867V812.192C563.867 811.138 564.823 810.152 566.065 810.152C567.307 810.152 568.263 811.048 568.263 812.192V816.302H572.086C573.2 816.302 574.284 817.16 574.284 818.312C574.284 819.464 573.328 820.352 572.086 820.352H568.263V824.462C568.263 825.606 567.307 826.472 566.065 826.472C564.823 826.472 563.867 825.486 563.867 824.462V820.352Z" fill="#16E0BD"/>
</g>
</g>
<defs>
<clipPath id="clip0_664_357">
<rect width="1689" height="1734" fill="white" transform="translate(-74 -395)"/>
</clipPath>
</defs>
</svg>
