<svg width="189" height="47" viewBox="0 0 189 47" fill="none" xmlns="http://www.w3.org/2000/svg">
<g clip-path="url(#clip0_664_232)">
<path d="M62.6026 21.7499H52.3056V10.3433H47.5886V36.8407H52.3056V25.5257H62.6026V36.8407H67.3195V10.3433H62.6026V21.7499Z" fill="#FCFAF9"/>
<path d="M85.8104 18.7015C84.3151 17.8644 82.5402 17.4429 80.4917 17.4429C78.4433 17.4429 76.7413 17.8583 75.2034 18.6892C73.6655 19.5201 72.4681 20.681 71.6049 22.1656C70.7418 23.6503 70.3102 25.3793 70.3102 27.3588C70.3102 29.3383 70.7357 31.0002 71.5867 32.497C72.4377 33.9939 73.6291 35.1608 75.1548 35.9978C76.6805 36.8349 78.4615 37.2564 80.4978 37.2564C81.9992 37.2564 83.3365 37.0731 84.5096 36.7066C85.6828 36.34 86.6797 35.8512 87.5064 35.2341C88.327 34.6171 88.9713 33.9267 89.4272 33.1691C89.8831 32.4054 90.1505 31.6294 90.2235 30.823H85.543C85.5065 31.1346 85.391 31.4462 85.1965 31.7577C85.002 32.0693 84.7102 32.3626 84.3212 32.6314C83.9322 32.9002 83.4337 33.1141 82.8259 33.2668C82.218 33.4196 81.4947 33.499 80.6619 33.499C79.4341 33.499 78.3946 33.2485 77.5436 32.7536C76.6926 32.2587 76.0422 31.5378 75.6046 30.5969C75.3554 30.0654 75.1852 29.4727 75.0758 28.8251H90.418C90.4423 28.6968 90.4605 28.483 90.4727 28.1958C90.4848 27.9087 90.4909 27.6399 90.4909 27.3894C90.4909 25.4159 90.0836 23.6808 89.2752 22.1901C88.4668 20.6993 87.3118 19.5324 85.8165 18.6953L85.8104 18.7015ZM75.6228 23.9619C76.0787 23.0515 76.7291 22.355 77.568 21.8662C78.4068 21.3836 79.3976 21.1392 80.5464 21.1392C81.6953 21.1392 82.6557 21.3653 83.4033 21.8113C84.1571 22.2634 84.7163 22.8499 85.081 23.5708C85.3849 24.1696 85.5551 24.7989 85.6098 25.4648H75.1001C75.2156 24.915 75.3858 24.414 75.6167 23.9557L75.6228 23.9619Z" fill="#FCFAF9"/>
<path d="M112.039 36.3033C111.875 36.0406 111.729 35.7168 111.608 35.3319C111.511 34.9836 111.45 34.5926 111.419 34.1527C111.389 33.7128 111.377 33.2668 111.377 32.8147V24.1207C111.377 22.6361 110.963 21.3958 110.143 20.3999C109.322 19.4041 108.228 18.6648 106.873 18.1699C105.517 17.6812 104.016 17.4307 102.387 17.4307C100.636 17.4307 99.0678 17.6995 97.688 18.2371C96.3081 18.7748 95.2201 19.5629 94.4238 20.6016C93.6336 21.6402 93.2324 22.9049 93.2324 24.4018H97.8764C97.8764 23.302 98.2593 22.4956 99.0313 21.9823C99.7972 21.4752 100.903 21.2186 102.344 21.2186C103.785 21.2186 104.776 21.4447 105.523 21.9029C106.271 22.3611 106.648 23.0027 106.648 23.8458V23.8824C106.648 24.3284 106.216 24.6461 105.353 24.8417C104.49 25.0372 102.97 25.2449 100.806 25.4587C99.3413 25.5931 98.004 25.8864 96.8005 26.3507C95.5969 26.809 94.6426 27.4627 93.9314 28.3119C93.2202 29.1551 92.8677 30.2303 92.8677 31.5378C92.8677 32.7353 93.1716 33.7617 93.7795 34.611C94.3873 35.4602 95.2261 36.1139 96.302 36.5599C97.3719 37.012 98.618 37.232 100.04 37.232C101.232 37.232 102.332 37.0793 103.347 36.786C104.362 36.4866 105.231 36.0651 105.967 35.5213C106.295 35.2769 106.581 35.0081 106.836 34.727C106.891 34.9959 106.952 35.2525 107.031 35.4907C107.152 35.8146 107.286 36.1017 107.432 36.3461C107.578 36.5905 107.699 36.7554 107.778 36.841H112.422C112.325 36.7432 112.197 36.566 112.027 36.3033H112.039ZM105.924 31.4645C105.414 32.1671 104.739 32.6864 103.906 33.0163C103.074 33.3524 102.168 33.5173 101.189 33.5173C99.9856 33.5173 99.086 33.3218 98.4903 32.9247C97.8946 32.5276 97.5968 31.9349 97.5968 31.1468C97.5968 30.3587 97.9493 29.7477 98.6605 29.3872C99.3717 29.0268 100.429 28.7824 101.834 28.648C102.928 28.538 104.016 28.3913 105.086 28.2081C105.669 28.1042 106.204 27.9881 106.696 27.8598V28.7579C106.696 29.8577 106.441 30.7619 105.93 31.4584L105.924 31.4645Z" fill="#FCFAF9"/>
<path d="M119.777 8.76685V36.8467H115.146V8.76685H119.777Z" fill="#FCFAF9"/>
<path d="M133.114 37.201C132.433 37.201 131.746 37.1338 131.041 37.0055C130.336 36.8711 129.691 36.6267 129.108 36.2663C128.524 35.9058 128.056 35.3804 127.698 34.6839C127.339 33.9874 127.163 33.0709 127.163 31.9345V21.5359H122.677V17.7663H124.5C125.12 17.7663 125.607 17.7419 125.965 17.6869C126.324 17.6319 126.585 17.5036 126.749 17.302C126.914 17.1004 127.029 16.7765 127.078 16.3428C127.126 15.909 127.157 15.298 127.157 14.5221V11.4856H131.874V17.7724H137.521V21.5421H131.874V30.5049C131.874 31.3908 131.983 32.1056 132.196 32.6433C132.409 33.1809 132.919 33.4497 133.715 33.4497C134.098 33.4497 134.457 33.4131 134.797 33.3398C135.138 33.2664 135.393 33.1931 135.557 33.1259V36.8284C135.332 36.9139 135.004 36.9933 134.573 37.0789C134.141 37.1644 133.655 37.2072 133.108 37.2072L133.114 37.201Z" fill="#FCFAF9"/>
<path d="M156.863 19.5015C155.647 18.1329 153.89 17.4425 151.592 17.4425C150.018 17.4425 148.626 17.7786 147.41 18.4506C146.553 18.9211 145.842 19.5259 145.246 20.2469V8.76685H140.548V36.8467H145.246V26.1915C145.246 25.2812 145.429 24.4808 145.8 23.7843C146.17 23.0878 146.699 22.5502 147.398 22.1592C148.097 21.7682 148.936 21.5726 149.927 21.5726C151.404 21.5726 152.45 21.9942 153.063 22.8373C153.677 23.6805 153.981 24.8963 153.981 26.4726V36.8406H158.68V25.2201C158.68 22.7762 158.072 20.87 156.856 19.4954L156.863 19.5015Z" fill="#FCFAF9"/>
<path d="M164.175 14.2412C163.415 14.2412 162.747 14.0335 162.181 13.6242C161.616 13.2087 161.33 12.6344 161.33 11.889C161.33 11.1437 161.616 10.5877 162.181 10.1845C162.747 9.7751 163.409 9.57349 164.175 9.57349C164.941 9.57349 165.579 9.7751 166.138 10.1845C166.698 10.5938 166.977 11.162 166.977 11.889C166.977 12.6161 166.698 13.2087 166.138 13.6242C165.579 14.0396 164.923 14.2412 164.175 14.2412ZM161.835 36.8408V17.7604H166.485V36.8408H161.835Z" fill="#FCFAF9"/>
<path d="M188.605 36.3031C188.441 36.0404 188.295 35.7166 188.173 35.3316C188.076 34.9834 188.015 34.5924 187.985 34.1525C187.954 33.7126 187.942 33.2666 187.942 32.8145V24.1205C187.942 22.6358 187.529 21.3956 186.708 20.3997C185.888 19.4038 184.793 18.6646 183.438 18.1697C182.082 17.6809 180.581 17.4304 178.952 17.4304C177.201 17.4304 175.633 17.6992 174.253 18.2369C172.873 18.7745 171.785 19.5627 170.989 20.6013C170.199 21.64 169.798 22.9047 169.798 24.4015H174.442C174.442 23.3018 174.825 22.4953 175.597 21.9821C176.363 21.475 177.469 21.2184 178.909 21.2184C180.35 21.2184 181.341 21.4444 182.088 21.9027C182.836 22.3609 183.213 23.0024 183.213 23.8455V23.8822C183.213 24.3282 182.781 24.6459 181.918 24.8414C181.055 25.0369 179.536 25.2446 177.372 25.4585C175.907 25.5929 174.569 25.8862 173.366 26.3505C172.162 26.8087 171.208 27.4624 170.497 28.3117C169.786 29.1548 169.433 30.2301 169.433 31.5376C169.433 32.7351 169.737 33.7615 170.345 34.6107C170.953 35.46 171.791 36.1137 172.867 36.5597C173.937 37.0118 175.183 37.2317 176.606 37.2317C177.797 37.2317 178.897 37.079 179.912 36.7857C180.928 36.4864 181.797 36.0648 182.532 35.521C182.86 35.2767 183.146 35.0078 183.401 34.7268C183.456 34.9956 183.517 35.2522 183.596 35.4905C183.718 35.8143 183.851 36.1015 183.997 36.3458C184.143 36.5902 184.265 36.7552 184.344 36.8407H188.988C188.89 36.743 188.763 36.5658 188.593 36.3031H188.605ZM182.496 31.4643C181.985 32.1669 181.31 32.6862 180.478 33.0161C179.645 33.3521 178.739 33.5171 177.761 33.5171C176.557 33.5171 175.657 33.3216 175.062 32.9245C174.466 32.5273 174.168 31.9347 174.168 31.1466C174.168 30.3584 174.521 29.7474 175.232 29.387C175.943 29.0265 177.001 28.7821 178.405 28.6477C179.499 28.5377 180.587 28.3911 181.657 28.2078C182.24 28.104 182.775 27.9879 183.268 27.8596V28.7577C183.268 29.8574 183.012 30.7616 182.502 31.4581L182.496 31.4643Z" fill="#FCFAF9"/>
<path d="M35.5289 23.6011V6.43916C35.5289 3.1033 32.83 0.390625 29.5112 0.390625C26.1923 0.390625 23.4934 3.1033 23.4934 6.43916V17.5465H12.0415V6.43916C12.0415 3.1033 9.3365 0.390625 6.01763 0.390625C2.69875 0.390625 -0.00012207 3.1033 -0.00012207 6.43916V40.757C-0.00012207 44.0928 2.69875 46.8055 6.01763 46.8055C9.3365 46.8055 12.0354 44.0928 12.0354 40.757V29.6497H23.4873V40.757C23.4873 44.0928 26.1862 46.8055 29.5051 46.8055C32.824 46.8055 35.5228 44.0928 35.5228 40.757V23.6011H35.5289ZM32.8969 23.6011C32.8969 25.4768 31.3773 27.0042 29.5112 27.0042H26.1193V20.192H29.5112C31.3773 20.192 32.8969 21.7194 32.8969 23.595V23.6011ZM26.1193 6.43916C26.1193 4.56351 27.639 3.02999 29.5112 3.02999C31.3833 3.02999 32.8969 4.5574 32.8969 6.43916V18.6034C31.9304 17.9375 30.7633 17.5465 29.5112 17.5465H26.1193V6.43916ZM6.01763 3.0361C7.88373 3.0361 9.40337 4.56351 9.40337 6.44527V17.5526H6.01763C4.75937 17.5526 3.59837 17.9436 2.63188 18.6034V6.43916C2.63188 4.56351 4.15152 3.02999 6.01763 3.02999V3.0361ZM9.40945 20.192V27.0042H6.0237C4.15759 27.0042 2.63796 25.4768 2.63796 23.595C2.63796 21.7133 4.15759 20.192 6.0237 20.192H9.40945ZM9.40945 40.7631C9.40945 42.6388 7.88981 44.1662 6.0237 44.1662C4.15759 44.1662 2.63796 42.6388 2.63796 40.7631V28.5988C3.60445 29.2648 4.77153 29.6497 6.0237 29.6497H9.40945V40.757V40.7631ZM12.0415 27.0042V20.192H23.4934V27.0042H12.0415ZM29.5051 44.1662C27.639 44.1662 26.1133 42.6388 26.1133 40.7631V29.6558H29.5051C30.7633 29.6558 31.9304 29.2648 32.8908 28.6049V40.7692C32.8908 42.6449 31.3712 44.1723 29.5051 44.1723V44.1662Z" fill="#FCFAF9"/>
</g>
<defs>
<clipPath id="clip0_664_232">
<rect width="189" height="46.421" fill="white" transform="translate(0 0.390625)"/>
</clipPath>
</defs>
</svg>
