<svg width="515" height="208" viewBox="0 0 515 208" fill="none" xmlns="http://www.w3.org/2000/svg">
<g filter="url(#filter0_d_738_84)">
<rect x="4" y="4" width="505" height="198" rx="10" fill="white"/>
</g>
<path d="M29 156.676L20.12 159.736L20.12 158.032L27.344 155.608L20.12 153.184L20.12 151.48L29 154.552L29 156.676ZM29.12 147.955C29.12 148.651 28.964 149.243 28.652 149.731C28.34 150.219 27.936 150.591 27.44 150.847C26.936 151.095 26.396 151.219 25.82 151.219C25.244 151.219 24.708 151.095 24.212 150.847C23.708 150.591 23.3 150.219 22.988 149.731C22.676 149.243 22.52 148.651 22.52 147.955C22.52 147.251 22.676 146.659 22.988 146.179C23.3 145.691 23.708 145.323 24.212 145.075C24.708 144.819 25.244 144.691 25.82 144.691C26.396 144.691 26.936 144.819 27.44 145.075C27.936 145.323 28.34 145.691 28.652 146.179C28.964 146.659 29.12 147.251 29.12 147.955ZM27.788 147.955C27.788 147.595 27.696 147.295 27.512 147.055C27.328 146.807 27.088 146.619 26.792 146.491C26.488 146.363 26.164 146.299 25.82 146.299C25.468 146.299 25.144 146.363 24.848 146.491C24.552 146.619 24.312 146.807 24.128 147.055C23.944 147.295 23.852 147.595 23.852 147.955C23.852 148.307 23.944 148.607 24.128 148.855C24.312 149.103 24.552 149.291 24.848 149.419C25.144 149.547 25.468 149.611 25.82 149.611C26.164 149.611 26.488 149.547 26.792 149.419C27.088 149.291 27.328 149.103 27.512 148.855C27.696 148.607 27.788 148.307 27.788 147.955ZM29 143.222L19.88 143.21L19.88 141.626L29 141.626L29 143.222ZM29.12 137.998C29.12 138.662 28.916 139.166 28.508 139.51C28.1 139.846 27.576 140.014 26.936 140.014L22.64 140.014L22.64 138.43L26.672 138.43C27.016 138.43 27.292 138.338 27.5 138.154C27.7 137.97 27.8 137.71 27.8 137.374C27.8 137.078 27.724 136.838 27.572 136.654C27.42 136.47 27.224 136.338 26.984 136.258C26.744 136.17 26.496 136.126 26.24 136.126L22.64 136.126L22.64 134.53L29 134.53L29 136.126L28.088 136.126L28.088 136.198C28.232 136.278 28.384 136.394 28.544 136.546C28.704 136.69 28.84 136.882 28.952 137.122C29.064 137.354 29.12 137.646 29.12 137.998ZM29 133.041L22.64 133.041L22.64 131.445L23.528 131.445L23.528 131.385C23.384 131.305 23.236 131.193 23.084 131.049C22.924 130.905 22.792 130.721 22.688 130.497C22.576 130.265 22.52 129.981 22.52 129.645C22.52 129.173 22.632 128.785 22.856 128.481C23.08 128.177 23.368 127.953 23.72 127.809L23.72 127.785C23.416 127.625 23.14 127.389 22.892 127.077C22.644 126.757 22.52 126.333 22.52 125.805C22.52 125.357 22.624 124.985 22.832 124.689C23.032 124.385 23.304 124.161 23.648 124.017C23.992 123.865 24.364 123.789 24.764 123.789L29 123.789L29 125.385L25.1 125.385C24.732 125.385 24.432 125.477 24.2 125.661C23.96 125.837 23.84 126.101 23.84 126.453C23.84 126.733 23.916 126.961 24.068 127.137C24.212 127.305 24.396 127.429 24.62 127.509C24.844 127.581 25.072 127.617 25.304 127.617L29 127.617L29 129.213L25.1 129.213C24.732 129.213 24.432 129.301 24.2 129.477C23.96 129.653 23.84 129.921 23.84 130.281C23.84 130.561 23.916 130.789 24.068 130.965C24.212 131.133 24.4 131.257 24.632 131.337C24.856 131.409 25.08 131.445 25.304 131.445L29 131.445L29 133.041ZM29.12 119.282C29.12 119.826 29.028 120.298 28.844 120.698C28.652 121.09 28.4 121.418 28.088 121.682C27.768 121.938 27.412 122.13 27.02 122.258C26.628 122.386 26.228 122.45 25.82 122.45C25.412 122.45 25.016 122.39 24.632 122.27C24.24 122.142 23.884 121.954 23.564 121.706C23.244 121.45 22.992 121.126 22.808 120.734C22.616 120.342 22.52 119.878 22.52 119.342C22.52 118.766 22.648 118.258 22.904 117.818C23.16 117.378 23.536 117.034 24.032 116.786C24.52 116.538 25.128 116.414 25.856 116.414L26.264 116.414L26.264 120.842C26.696 120.818 27.072 120.67 27.392 120.398C27.704 120.126 27.86 119.754 27.86 119.282C27.86 119.01 27.816 118.786 27.728 118.61C27.64 118.434 27.54 118.298 27.428 118.202C27.308 118.106 27.208 118.038 27.128 117.998C27.04 117.958 26.996 117.938 26.996 117.938L26.996 116.462C26.996 116.462 27.068 116.482 27.212 116.522C27.348 116.562 27.524 116.638 27.74 116.75C27.948 116.854 28.16 117.01 28.376 117.218C28.584 117.426 28.76 117.698 28.904 118.034C29.048 118.37 29.12 118.786 29.12 119.282ZM25.22 120.842L25.22 117.95C24.724 117.974 24.356 118.122 24.116 118.394C23.876 118.666 23.756 118.986 23.756 119.354C23.756 119.762 23.888 120.102 24.152 120.374C24.408 120.646 24.764 120.802 25.22 120.842ZM29 115.065L22.64 115.065L22.64 113.469L23.552 113.469L23.552 113.397C23.44 113.333 23.304 113.233 23.144 113.097C22.976 112.961 22.832 112.773 22.712 112.533C22.584 112.293 22.52 111.989 22.52 111.621C22.52 111.133 22.632 110.733 22.856 110.421C23.072 110.101 23.36 109.865 23.72 109.713C24.08 109.553 24.468 109.473 24.884 109.473L29 109.473L29 111.069L25.1 111.069C24.756 111.069 24.46 111.165 24.212 111.357C23.964 111.549 23.84 111.837 23.84 112.221C23.84 112.517 23.916 112.757 24.068 112.941C24.212 113.125 24.4 113.261 24.632 113.349C24.864 113.429 25.108 113.469 25.364 113.469L29 113.469L29 115.065ZM29.12 102.497C29.12 102.969 29.028 103.381 28.844 103.733C28.652 104.085 28.4 104.381 28.088 104.621C27.768 104.853 27.412 105.029 27.02 105.149C26.628 105.261 26.228 105.317 25.82 105.317C25.412 105.317 25.012 105.261 24.62 105.149C24.228 105.029 23.876 104.853 23.564 104.621C23.244 104.381 22.992 104.085 22.808 103.733C22.616 103.381 22.52 102.969 22.52 102.497C22.52 102.089 22.588 101.753 22.724 101.489C22.852 101.225 22.996 101.017 23.156 100.865C23.308 100.713 23.432 100.609 23.528 100.553L23.528 100.481L19.88 100.481L19.88 98.8848L29 98.8848L29 100.481L28.112 100.481L28.112 100.553C28.208 100.609 28.336 100.713 28.496 100.865C28.656 101.017 28.8 101.225 28.928 101.489C29.056 101.753 29.12 102.089 29.12 102.497ZM27.812 102.077C27.812 101.717 27.716 101.417 27.524 101.177C27.324 100.937 27.072 100.757 26.768 100.637C26.464 100.517 26.148 100.457 25.82 100.457C25.492 100.457 25.176 100.517 24.872 100.637C24.568 100.757 24.32 100.937 24.128 101.177C23.928 101.417 23.828 101.717 23.828 102.077C23.828 102.437 23.928 102.741 24.128 102.989C24.32 103.229 24.568 103.409 24.872 103.529C25.176 103.649 25.492 103.709 25.82 103.709C26.148 103.709 26.464 103.649 26.768 103.529C27.072 103.409 27.324 103.229 27.524 102.989C27.716 102.741 27.812 102.437 27.812 102.077ZM29.12 94.2504C29.12 94.7944 29.028 95.2664 28.844 95.6664C28.652 96.0584 28.4 96.3864 28.088 96.6504C27.768 96.9064 27.412 97.0984 27.02 97.2264C26.628 97.3544 26.228 97.4184 25.82 97.4184C25.412 97.4184 25.016 97.3584 24.632 97.2384C24.24 97.1104 23.884 96.9224 23.564 96.6744C23.244 96.4184 22.992 96.0944 22.808 95.7024C22.616 95.3104 22.52 94.8464 22.52 94.3104C22.52 93.7344 22.648 93.2264 22.904 92.7864C23.16 92.3464 23.536 92.0024 24.032 91.7544C24.52 91.5064 25.128 91.3824 25.856 91.3824L26.264 91.3824L26.264 95.8104C26.696 95.7864 27.072 95.6384 27.392 95.3664C27.704 95.0944 27.86 94.7224 27.86 94.2504C27.86 93.9784 27.816 93.7544 27.728 93.5784C27.64 93.4024 27.54 93.2664 27.428 93.1704C27.308 93.0744 27.208 93.0064 27.128 92.9664C27.04 92.9264 26.996 92.9064 26.996 92.9064L26.996 91.4304C26.996 91.4304 27.068 91.4504 27.212 91.4904C27.348 91.5304 27.524 91.6064 27.74 91.7184C27.948 91.8224 28.16 91.9784 28.376 92.1864C28.584 92.3944 28.76 92.6664 28.904 93.0024C29.048 93.3384 29.12 93.7544 29.12 94.2504ZM25.22 95.8104L25.22 92.9184C24.724 92.9424 24.356 93.0904 24.116 93.3624C23.876 93.6344 23.756 93.9544 23.756 94.3224C23.756 94.7304 23.888 95.0704 24.152 95.3424C24.408 95.6144 24.764 95.7704 25.22 95.8104ZM29.12 84.3528C29.12 84.7848 29.056 85.1408 28.928 85.4208C28.8 85.7008 28.632 85.9208 28.424 86.0808C28.216 86.2328 27.988 86.3408 27.74 86.4048C27.492 86.4688 27.248 86.5008 27.008 86.5008L23.924 86.5008L23.924 87.5928L22.64 87.5928L22.64 86.5008L21.056 86.5008L21.056 84.9048L22.64 84.9048L22.64 83.4768L23.924 83.4768L23.924 84.9048L26.972 84.9048C27.54 84.9048 27.824 84.5848 27.824 83.9448C27.824 83.7928 27.816 83.6528 27.8 83.5248C27.776 83.3888 27.764 83.3208 27.764 83.3208L29.012 83.3208C29.012 83.3208 29.028 83.4248 29.06 83.6328C29.1 83.8328 29.12 84.0728 29.12 84.3528ZM29.12 80.0017C29.12 80.6657 28.916 81.1697 28.508 81.5137C28.1 81.8497 27.576 82.0177 26.936 82.0177L22.64 82.0177L22.64 80.4337L26.672 80.4337C27.016 80.4337 27.292 80.3417 27.5 80.1577C27.7 79.9737 27.8 79.7137 27.8 79.3777C27.8 79.0817 27.724 78.8417 27.572 78.6577C27.42 78.4737 27.224 78.3417 26.984 78.2617C26.744 78.1737 26.496 78.1297 26.24 78.1297L22.64 78.1297L22.64 76.5337L29 76.5337L29 78.1297L28.088 78.1297L28.088 78.2017C28.232 78.2817 28.384 78.3977 28.544 78.5497C28.704 78.6937 28.84 78.8857 28.952 79.1257C29.064 79.3577 29.12 79.6497 29.12 80.0017ZM29 75.0451L22.64 75.0451L22.64 73.4611L23.516 73.4611L23.516 73.4011C23.268 73.2891 23.04 73.1051 22.832 72.8491C22.624 72.5931 22.52 72.2091 22.52 71.6971C22.52 71.5371 22.532 71.4051 22.556 71.3011C22.572 71.1971 22.58 71.1451 22.58 71.1451L24.128 71.1451C24.128 71.1451 24.12 71.2051 24.104 71.3251C24.088 71.4371 24.08 71.5771 24.08 71.7451C24.08 72.3051 24.236 72.7291 24.548 73.0171C24.86 73.3051 25.364 73.4491 26.06 73.4491L29 73.4491L29 75.0451ZM29 70.0529L22.64 70.0529L22.64 68.4569L23.552 68.4569L23.552 68.3849C23.44 68.3209 23.304 68.2209 23.144 68.0849C22.976 67.9489 22.832 67.7609 22.712 67.5209C22.584 67.2809 22.52 66.9769 22.52 66.6089C22.52 66.1209 22.632 65.7209 22.856 65.4089C23.072 65.0889 23.36 64.8529 23.72 64.7009C24.08 64.5409 24.468 64.4609 24.884 64.4609L29 64.4609L29 66.0569L25.1 66.0569C24.756 66.0569 24.46 66.1529 24.212 66.3449C23.964 66.5369 23.84 66.8249 23.84 67.2089C23.84 67.5049 23.916 67.7449 24.068 67.9289C24.212 68.1129 24.4 68.2489 24.632 68.3369C24.864 68.4169 25.108 68.4569 25.364 68.4569L29 68.4569L29 70.0529ZM29.12 59.8536C29.12 60.5496 28.964 61.1416 28.652 61.6296C28.34 62.1176 27.936 62.4896 27.44 62.7456C26.936 62.9936 26.396 63.1176 25.82 63.1176C25.244 63.1176 24.708 62.9936 24.212 62.7456C23.708 62.4896 23.3 62.1176 22.988 61.6296C22.676 61.1416 22.52 60.5496 22.52 59.8536C22.52 59.1496 22.676 58.5576 22.988 58.0776C23.3 57.5896 23.708 57.2216 24.212 56.9736C24.708 56.7176 25.244 56.5896 25.82 56.5896C26.396 56.5896 26.936 56.7176 27.44 56.9736C27.936 57.2216 28.34 57.5896 28.652 58.0776C28.964 58.5576 29.12 59.1496 29.12 59.8536ZM27.788 59.8536C27.788 59.4936 27.696 59.1936 27.512 58.9536C27.328 58.7056 27.088 58.5176 26.792 58.3896C26.488 58.2616 26.164 58.1976 25.82 58.1976C25.468 58.1976 25.144 58.2616 24.848 58.3896C24.552 58.5176 24.312 58.7056 24.128 58.9536C23.944 59.1936 23.852 59.4936 23.852 59.8536C23.852 60.2056 23.944 60.5056 24.128 60.7536C24.312 61.0016 24.552 61.1896 24.848 61.3176C25.144 61.4456 25.468 61.5096 25.82 61.5096C26.164 61.5096 26.488 61.4456 26.792 61.3176C27.088 61.1896 27.328 61.0016 27.512 60.7536C27.696 60.5056 27.788 60.2056 27.788 59.8536ZM29.12 52.6255C29.12 53.1455 29.052 53.5735 28.916 53.9095C28.772 54.2455 28.596 54.5135 28.388 54.7135C28.172 54.9055 27.96 55.0495 27.752 55.1455C27.544 55.2415 27.372 55.3055 27.236 55.3375C27.092 55.3615 27.02 55.3735 27.02 55.3735L27.02 53.8615C27.02 53.8615 27.064 53.8495 27.152 53.8255C27.24 53.7935 27.344 53.7375 27.464 53.6575C27.576 53.5695 27.676 53.4375 27.764 53.2615C27.852 53.0855 27.896 52.8535 27.896 52.5655C27.896 52.2215 27.824 51.9735 27.68 51.8215C27.528 51.6695 27.36 51.5935 27.176 51.5935C27 51.5935 26.86 51.6615 26.756 51.7975C26.644 51.9255 26.56 52.1175 26.504 52.3735L26.324 53.2495C26.252 53.6015 26.148 53.9295 26.012 54.2335C25.868 54.5375 25.676 54.7855 25.436 54.9775C25.188 55.1695 24.872 55.2655 24.488 55.2655C23.92 55.2655 23.452 55.0495 23.084 54.6175C22.708 54.1855 22.52 53.5975 22.52 52.8535C22.52 52.3815 22.584 51.9935 22.712 51.6895C22.84 51.3775 23 51.1295 23.192 50.9455C23.384 50.7535 23.576 50.6135 23.768 50.5255C23.96 50.4295 24.124 50.3695 24.26 50.3455C24.388 50.3135 24.452 50.2975 24.452 50.2975L24.452 51.7615C24.452 51.7615 24.416 51.7735 24.344 51.7975C24.264 51.8215 24.176 51.8735 24.08 51.9535C23.984 52.0255 23.9 52.1375 23.828 52.2895C23.748 52.4335 23.708 52.6295 23.708 52.8775C23.708 53.2135 23.78 53.4535 23.924 53.5975C24.068 53.7335 24.22 53.8015 24.38 53.8015C24.556 53.8015 24.692 53.7255 24.788 53.5735C24.884 53.4215 24.956 53.2255 25.004 52.9855L25.184 52.1575C25.304 51.5655 25.512 51.0815 25.808 50.7055C26.104 50.3215 26.532 50.1295 27.092 50.1295C27.468 50.1295 27.812 50.2295 28.124 50.4295C28.428 50.6215 28.672 50.9055 28.856 51.2815C29.032 51.6495 29.12 52.0975 29.12 52.6255Z" fill="#414141"/>
<path d="M20.008 25V14.64H21.912V18.896H26.238V14.64H28.142V25H26.238V20.548H21.912V25H20.008ZM33.6538 25.14C32.8418 25.14 32.1512 24.958 31.5818 24.594C31.0125 24.23 30.5785 23.7587 30.2798 23.18C29.9905 22.592 29.8458 21.962 29.8458 21.29C29.8458 20.618 29.9905 19.9927 30.2798 19.414C30.5785 18.826 31.0125 18.35 31.5818 17.986C32.1512 17.622 32.8418 17.44 33.6538 17.44C34.4752 17.44 35.1658 17.622 35.7258 17.986C36.2952 18.35 36.7245 18.826 37.0138 19.414C37.3125 19.9927 37.4618 20.618 37.4618 21.29C37.4618 21.962 37.3125 22.592 37.0138 23.18C36.7245 23.7587 36.2952 24.23 35.7258 24.594C35.1658 24.958 34.4752 25.14 33.6538 25.14ZM33.6538 23.586C34.0738 23.586 34.4238 23.4787 34.7038 23.264C34.9932 23.0493 35.2125 22.7693 35.3618 22.424C35.5112 22.0693 35.5858 21.6913 35.5858 21.29C35.5858 20.8793 35.5112 20.5013 35.3618 20.156C35.2125 19.8107 34.9932 19.5307 34.7038 19.316C34.4238 19.1013 34.0738 18.994 33.6538 18.994C33.2432 18.994 32.8932 19.1013 32.6038 19.316C32.3145 19.5307 32.0952 19.8107 31.9458 20.156C31.7965 20.5013 31.7218 20.8793 31.7218 21.29C31.7218 21.6913 31.7965 22.0693 31.9458 22.424C32.0952 22.7693 32.3145 23.0493 32.6038 23.264C32.8932 23.4787 33.2432 23.586 33.6538 23.586ZM39.0907 25V17.58H40.9387V18.602H41.0087C41.1393 18.3127 41.354 18.0467 41.6527 17.804C41.9513 17.5613 42.3993 17.44 42.9967 17.44C43.1833 17.44 43.3373 17.454 43.4587 17.482C43.58 17.5007 43.6407 17.51 43.6407 17.51V19.316C43.6407 19.316 43.5707 19.3067 43.4307 19.288C43.3 19.2693 43.1367 19.26 42.9407 19.26C42.2873 19.26 41.7927 19.442 41.4567 19.806C41.1207 20.17 40.9527 20.758 40.9527 21.57V25H39.0907ZM47.6964 17.44C48.1724 17.44 48.5644 17.5193 48.8724 17.678C49.1804 17.8273 49.4231 17.9953 49.6004 18.182C49.7777 18.3593 49.8991 18.504 49.9644 18.616H50.0484V17.58H51.9104V25H50.0484V23.964H49.9644C49.8991 24.076 49.7777 24.2253 49.6004 24.412C49.4231 24.5987 49.1804 24.7667 48.8724 24.916C48.5644 25.0653 48.1724 25.14 47.6964 25.14C47.1457 25.14 46.6651 25.0327 46.2544 24.818C45.8437 24.594 45.4984 24.3 45.2184 23.936C44.9477 23.5627 44.7424 23.1473 44.6024 22.69C44.4717 22.2327 44.4064 21.766 44.4064 21.29C44.4064 20.814 44.4717 20.3473 44.6024 19.89C44.7424 19.4327 44.9477 19.022 45.2184 18.658C45.4984 18.2847 45.8437 17.9907 46.2544 17.776C46.6651 17.552 47.1457 17.44 47.6964 17.44ZM48.1864 18.966C47.7664 18.966 47.4117 19.0827 47.1224 19.316C46.8424 19.54 46.6324 19.8293 46.4924 20.184C46.3524 20.5387 46.2824 20.9073 46.2824 21.29C46.2824 21.6727 46.3524 22.0413 46.4924 22.396C46.6324 22.7507 46.8424 23.0447 47.1224 23.278C47.4117 23.502 47.7664 23.614 48.1864 23.614C48.6064 23.614 48.9564 23.502 49.2364 23.278C49.5164 23.0447 49.7264 22.7507 49.8664 22.396C50.0064 22.0413 50.0764 21.6727 50.0764 21.29C50.0764 20.9073 50.0064 20.5387 49.8664 20.184C49.7264 19.8293 49.5164 19.54 49.2364 19.316C48.9564 19.0827 48.6064 18.966 48.1864 18.966ZM53.6512 25V17.58H55.4992V18.602H55.5692C55.6999 18.3127 55.9145 18.0467 56.2132 17.804C56.5119 17.5613 56.9599 17.44 57.5572 17.44C57.7439 17.44 57.8979 17.454 58.0192 17.482C58.1405 17.5007 58.2012 17.51 58.2012 17.51V19.316C58.2012 19.316 58.1312 19.3067 57.9912 19.288C57.8605 19.2693 57.6972 19.26 57.5012 19.26C56.8479 19.26 56.3532 19.442 56.0172 19.806C55.6812 20.17 55.5132 20.758 55.5132 21.57V25H53.6512ZM60.8142 16.432C60.4875 16.432 60.2168 16.3247 60.0022 16.11C59.7968 15.8953 59.6942 15.6387 59.6942 15.34C59.6942 15.0413 59.7968 14.7847 60.0022 14.57C60.2168 14.3553 60.4875 14.248 60.8142 14.248C61.1408 14.248 61.4115 14.3553 61.6262 14.57C61.8408 14.7847 61.9482 15.0413 61.9482 15.34C61.9482 15.6387 61.8408 15.8953 61.6262 16.11C61.4115 16.3247 61.1408 16.432 60.8142 16.432ZM59.8902 25V17.58H61.7522V25H59.8902ZM67.3824 25.14C66.5704 25.14 65.8797 24.958 65.3104 24.594C64.741 24.23 64.307 23.7587 64.0084 23.18C63.719 22.592 63.5744 21.962 63.5744 21.29C63.5744 20.618 63.719 19.9927 64.0084 19.414C64.307 18.826 64.741 18.35 65.3104 17.986C65.8797 17.622 66.5704 17.44 67.3824 17.44C68.2037 17.44 68.8944 17.622 69.4544 17.986C70.0237 18.35 70.453 18.826 70.7424 19.414C71.041 19.9927 71.1904 20.618 71.1904 21.29C71.1904 21.962 71.041 22.592 70.7424 23.18C70.453 23.7587 70.0237 24.23 69.4544 24.594C68.8944 24.958 68.2037 25.14 67.3824 25.14ZM67.3824 23.586C67.8024 23.586 68.1524 23.4787 68.4324 23.264C68.7217 23.0493 68.941 22.7693 69.0904 22.424C69.2397 22.0693 69.3144 21.6913 69.3144 21.29C69.3144 20.8793 69.2397 20.5013 69.0904 20.156C68.941 19.8107 68.7217 19.5307 68.4324 19.316C68.1524 19.1013 67.8024 18.994 67.3824 18.994C66.9717 18.994 66.6217 19.1013 66.3324 19.316C66.043 19.5307 65.8237 19.8107 65.6744 20.156C65.525 20.5013 65.4504 20.8793 65.4504 21.29C65.4504 21.6913 65.525 22.0693 65.6744 22.424C65.8237 22.7693 66.043 23.0493 66.3324 23.264C66.6217 23.4787 66.9717 23.586 67.3824 23.586ZM75.8152 25.14C75.2085 25.14 74.7092 25.0607 74.3172 24.902C73.9252 24.734 73.6125 24.5287 73.3792 24.286C73.1552 24.034 72.9872 23.7867 72.8752 23.544C72.7632 23.3013 72.6885 23.1007 72.6512 22.942C72.6232 22.774 72.6092 22.69 72.6092 22.69H74.3732C74.3732 22.69 74.3872 22.7413 74.4152 22.844C74.4525 22.9467 74.5178 23.068 74.6112 23.208C74.7138 23.3387 74.8678 23.4553 75.0732 23.558C75.2785 23.6607 75.5492 23.712 75.8852 23.712C76.2865 23.712 76.5758 23.628 76.7532 23.46C76.9305 23.2827 77.0192 23.0867 77.0192 22.872C77.0192 22.6667 76.9398 22.5033 76.7812 22.382C76.6318 22.2513 76.4078 22.1533 76.1092 22.088L75.0872 21.878C74.6765 21.794 74.2938 21.6727 73.9392 21.514C73.5845 21.346 73.2952 21.122 73.0712 20.842C72.8472 20.5527 72.7352 20.184 72.7352 19.736C72.7352 19.0733 72.9872 18.5273 73.4912 18.098C73.9952 17.6593 74.6812 17.44 75.5492 17.44C76.0998 17.44 76.5525 17.5147 76.9072 17.664C77.2712 17.8133 77.5605 18 77.7752 18.224C77.9992 18.448 78.1625 18.672 78.2652 18.896C78.3772 19.12 78.4472 19.3113 78.4752 19.47C78.5125 19.6193 78.5312 19.694 78.5312 19.694H76.8232C76.8232 19.694 76.8092 19.652 76.7812 19.568C76.7532 19.4747 76.6925 19.372 76.5992 19.26C76.5152 19.148 76.3845 19.05 76.2072 18.966C76.0392 18.8727 75.8105 18.826 75.5212 18.826C75.1292 18.826 74.8492 18.91 74.6812 19.078C74.5225 19.246 74.4432 19.4233 74.4432 19.61C74.4432 19.8153 74.5318 19.974 74.7092 20.086C74.8865 20.198 75.1152 20.282 75.3952 20.338L76.3612 20.548C77.0518 20.688 77.6165 20.9307 78.0552 21.276C78.5032 21.6213 78.7272 22.1207 78.7272 22.774C78.7272 23.2127 78.6105 23.614 78.3772 23.978C78.1532 24.3327 77.8218 24.6173 77.3832 24.832C76.9538 25.0373 76.4312 25.14 75.8152 25.14ZM83.5685 27.744V17.58H85.4305V18.616H85.5285C85.5939 18.504 85.7105 18.3547 85.8785 18.168C86.0559 17.9813 86.2985 17.8133 86.6065 17.664C86.9145 17.5147 87.3065 17.44 87.7825 17.44C88.3425 17.44 88.8279 17.552 89.2385 17.776C89.6492 17.9907 89.9899 18.2847 90.2605 18.658C90.5312 19.022 90.7319 19.4327 90.8625 19.89C91.0025 20.3473 91.0725 20.814 91.0725 21.29C91.0725 21.766 91.0025 22.2327 90.8625 22.69C90.7319 23.1473 90.5312 23.5627 90.2605 23.936C89.9899 24.3 89.6492 24.594 89.2385 24.818C88.8279 25.0327 88.3425 25.14 87.7825 25.14C87.3065 25.14 86.9145 25.0653 86.6065 24.916C86.2985 24.7573 86.0559 24.5847 85.8785 24.398C85.7105 24.2113 85.5939 24.0667 85.5285 23.964H85.4305V27.744H83.5685ZM85.4025 21.29C85.4025 21.6727 85.4725 22.0413 85.6125 22.396C85.7525 22.7507 85.9625 23.0447 86.2425 23.278C86.5225 23.502 86.8725 23.614 87.2925 23.614C87.7219 23.614 88.0765 23.502 88.3565 23.278C88.6365 23.0447 88.8465 22.7507 88.9865 22.396C89.1265 22.0413 89.1965 21.6727 89.1965 21.29C89.1965 20.9073 89.1265 20.5387 88.9865 20.184C88.8465 19.8293 88.6365 19.54 88.3565 19.316C88.0765 19.0827 87.7219 18.966 87.2925 18.966C86.8725 18.966 86.5225 19.0827 86.2425 19.316C85.9625 19.54 85.7525 19.8293 85.6125 20.184C85.4725 20.5387 85.4025 20.9073 85.4025 21.29ZM96.3257 25.14C95.5137 25.14 94.8231 24.958 94.2537 24.594C93.6844 24.23 93.2504 23.7587 92.9517 23.18C92.6624 22.592 92.5177 21.962 92.5177 21.29C92.5177 20.618 92.6624 19.9927 92.9517 19.414C93.2504 18.826 93.6844 18.35 94.2537 17.986C94.8231 17.622 95.5137 17.44 96.3257 17.44C97.1471 17.44 97.8377 17.622 98.3977 17.986C98.9671 18.35 99.3964 18.826 99.6857 19.414C99.9844 19.9927 100.134 20.618 100.134 21.29C100.134 21.962 99.9844 22.592 99.6857 23.18C99.3964 23.7587 98.9671 24.23 98.3977 24.594C97.8377 24.958 97.1471 25.14 96.3257 25.14ZM96.3257 23.586C96.7457 23.586 97.0957 23.4787 97.3757 23.264C97.6651 23.0493 97.8844 22.7693 98.0337 22.424C98.1831 22.0693 98.2577 21.6913 98.2577 21.29C98.2577 20.8793 98.1831 20.5013 98.0337 20.156C97.8844 19.8107 97.6651 19.5307 97.3757 19.316C97.0957 19.1013 96.7457 18.994 96.3257 18.994C95.9151 18.994 95.5651 19.1013 95.2757 19.316C94.9864 19.5307 94.7671 19.8107 94.6177 20.156C94.4684 20.5013 94.3937 20.8793 94.3937 21.29C94.3937 21.6913 94.4684 22.0693 94.6177 22.424C94.7671 22.7693 94.9864 23.0493 95.2757 23.264C95.5651 23.4787 95.9151 23.586 96.3257 23.586ZM101.848 27.744V17.58H103.71V18.616H103.808C103.873 18.504 103.99 18.3547 104.158 18.168C104.335 17.9813 104.578 17.8133 104.886 17.664C105.194 17.5147 105.586 17.44 106.062 17.44C106.622 17.44 107.107 17.552 107.518 17.776C107.929 17.9907 108.269 18.2847 108.54 18.658C108.811 19.022 109.011 19.4327 109.142 19.89C109.282 20.3473 109.352 20.814 109.352 21.29C109.352 21.766 109.282 22.2327 109.142 22.69C109.011 23.1473 108.811 23.5627 108.54 23.936C108.269 24.3 107.929 24.594 107.518 24.818C107.107 25.0327 106.622 25.14 106.062 25.14C105.586 25.14 105.194 25.0653 104.886 24.916C104.578 24.7573 104.335 24.5847 104.158 24.398C103.99 24.2113 103.873 24.0667 103.808 23.964H103.71V27.744H101.848ZM103.682 21.29C103.682 21.6727 103.752 22.0413 103.892 22.396C104.032 22.7507 104.242 23.0447 104.522 23.278C104.802 23.502 105.152 23.614 105.572 23.614C106.001 23.614 106.356 23.502 106.636 23.278C106.916 23.0447 107.126 22.7507 107.266 22.396C107.406 22.0413 107.476 21.6727 107.476 21.29C107.476 20.9073 107.406 20.5387 107.266 20.184C107.126 19.8293 106.916 19.54 106.636 19.316C106.356 19.0827 106.001 18.966 105.572 18.966C105.152 18.966 104.802 19.0827 104.522 19.316C104.242 19.54 104.032 19.8293 103.892 20.184C103.752 20.5387 103.682 20.9073 103.682 21.29ZM113.329 25.14C112.555 25.14 111.967 24.902 111.565 24.426C111.173 23.95 110.977 23.3387 110.977 22.592V17.58H112.825V22.284C112.825 22.6853 112.933 23.0073 113.147 23.25C113.362 23.4833 113.665 23.6 114.057 23.6C114.403 23.6 114.683 23.5113 114.897 23.334C115.112 23.1567 115.266 22.928 115.359 22.648C115.462 22.368 115.513 22.0787 115.513 21.78V17.58H117.375V25H115.513V23.936H115.429C115.336 24.104 115.201 24.2813 115.023 24.468C114.855 24.6547 114.631 24.8133 114.351 24.944C114.081 25.0747 113.74 25.14 113.329 25.14ZM119.252 25L119.266 14.36H121.114V25H119.252ZM126.118 17.44C126.594 17.44 126.986 17.5193 127.294 17.678C127.602 17.8273 127.845 17.9953 128.022 18.182C128.2 18.3593 128.321 18.504 128.386 18.616H128.47V17.58H130.332V25H128.47V23.964H128.386C128.321 24.076 128.2 24.2253 128.022 24.412C127.845 24.5987 127.602 24.7667 127.294 24.916C126.986 25.0653 126.594 25.14 126.118 25.14C125.568 25.14 125.087 25.0327 124.676 24.818C124.266 24.594 123.92 24.3 123.64 23.936C123.37 23.5627 123.164 23.1473 123.024 22.69C122.894 22.2327 122.828 21.766 122.828 21.29C122.828 20.814 122.894 20.3473 123.024 19.89C123.164 19.4327 123.37 19.022 123.64 18.658C123.92 18.2847 124.266 17.9907 124.676 17.776C125.087 17.552 125.568 17.44 126.118 17.44ZM126.608 18.966C126.188 18.966 125.834 19.0827 125.544 19.316C125.264 19.54 125.054 19.8293 124.914 20.184C124.774 20.5387 124.704 20.9073 124.704 21.29C124.704 21.6727 124.774 22.0413 124.914 22.396C125.054 22.7507 125.264 23.0447 125.544 23.278C125.834 23.502 126.188 23.614 126.608 23.614C127.028 23.614 127.378 23.502 127.658 23.278C127.938 23.0447 128.148 22.7507 128.288 22.396C128.428 22.0413 128.498 21.6727 128.498 21.29C128.498 20.9073 128.428 20.5387 128.288 20.184C128.148 19.8293 127.938 19.54 127.658 19.316C127.378 19.0827 127.028 18.966 126.608 18.966ZM132.073 25V17.58H133.921V18.602H133.991C134.122 18.3127 134.336 18.0467 134.635 17.804C134.934 17.5613 135.382 17.44 135.979 17.44C136.166 17.44 136.32 17.454 136.441 17.482C136.562 17.5007 136.623 17.51 136.623 17.51V19.316C136.623 19.316 136.553 19.3067 136.413 19.288C136.282 19.2693 136.119 19.26 135.923 19.26C135.27 19.26 134.775 19.442 134.439 19.806C134.103 20.17 133.935 20.758 133.935 21.57V25H132.073ZM141.085 25.14C140.45 25.14 139.899 25.0327 139.433 24.818C138.975 24.594 138.593 24.3 138.285 23.936C137.986 23.5627 137.762 23.1473 137.613 22.69C137.463 22.2327 137.389 21.766 137.389 21.29C137.389 20.814 137.459 20.352 137.599 19.904C137.748 19.4467 137.967 19.0313 138.257 18.658C138.555 18.2847 138.933 17.9907 139.391 17.776C139.848 17.552 140.389 17.44 141.015 17.44C141.687 17.44 142.279 17.5893 142.793 17.888C143.306 18.1867 143.707 18.6253 143.997 19.204C144.286 19.7733 144.431 20.4827 144.431 21.332V21.808H139.265C139.293 22.312 139.465 22.7507 139.783 23.124C140.1 23.488 140.534 23.67 141.085 23.67C141.402 23.67 141.663 23.6187 141.869 23.516C142.074 23.4133 142.233 23.2967 142.345 23.166C142.457 23.026 142.536 22.9093 142.583 22.816C142.629 22.7133 142.653 22.662 142.653 22.662H144.375C144.375 22.662 144.351 22.746 144.305 22.914C144.258 23.0727 144.169 23.278 144.039 23.53C143.917 23.7727 143.735 24.02 143.493 24.272C143.25 24.5147 142.933 24.72 142.541 24.888C142.149 25.056 141.663 25.14 141.085 25.14ZM139.265 20.59H142.639C142.611 20.0113 142.438 19.582 142.121 19.302C141.803 19.022 141.43 18.882 141.001 18.882C140.525 18.882 140.128 19.036 139.811 19.344C139.493 19.6427 139.311 20.058 139.265 20.59ZM149.055 25.14C148.449 25.14 147.949 25.0607 147.557 24.902C147.165 24.734 146.853 24.5287 146.619 24.286C146.395 24.034 146.227 23.7867 146.115 23.544C146.003 23.3013 145.929 23.1007 145.891 22.942C145.863 22.774 145.849 22.69 145.849 22.69H147.613C147.613 22.69 147.627 22.7413 147.655 22.844C147.693 22.9467 147.758 23.068 147.851 23.208C147.954 23.3387 148.108 23.4553 148.313 23.558C148.519 23.6607 148.789 23.712 149.125 23.712C149.527 23.712 149.816 23.628 149.993 23.46C150.171 23.2827 150.259 23.0867 150.259 22.872C150.259 22.6667 150.18 22.5033 150.021 22.382C149.872 22.2513 149.648 22.1533 149.349 22.088L148.327 21.878C147.917 21.794 147.534 21.6727 147.179 21.514C146.825 21.346 146.535 21.122 146.311 20.842C146.087 20.5527 145.975 20.184 145.975 19.736C145.975 19.0733 146.227 18.5273 146.731 18.098C147.235 17.6593 147.921 17.44 148.789 17.44C149.34 17.44 149.793 17.5147 150.147 17.664C150.511 17.8133 150.801 18 151.015 18.224C151.239 18.448 151.403 18.672 151.505 18.896C151.617 19.12 151.687 19.3113 151.715 19.47C151.753 19.6193 151.771 19.694 151.771 19.694H150.063C150.063 19.694 150.049 19.652 150.021 19.568C149.993 19.4747 149.933 19.372 149.839 19.26C149.755 19.148 149.625 19.05 149.447 18.966C149.279 18.8727 149.051 18.826 148.761 18.826C148.369 18.826 148.089 18.91 147.921 19.078C147.763 19.246 147.683 19.4233 147.683 19.61C147.683 19.8153 147.772 19.974 147.949 20.086C148.127 20.198 148.355 20.282 148.635 20.338L149.601 20.548C150.292 20.688 150.857 20.9307 151.295 21.276C151.743 21.6213 151.967 22.1207 151.967 22.774C151.967 23.2127 151.851 23.614 151.617 23.978C151.393 24.3327 151.062 24.6173 150.623 24.832C150.194 25.0373 149.671 25.14 149.055 25.14Z" fill="#414141"/>
<path d="M44.3 141.12V150H43.148V143.112L41.48 143.124V142.452L41.78 142.356C42.204 142.22 42.544 142.072 42.8 141.912C43.064 141.752 43.308 141.532 43.532 141.252L43.64 141.12H44.3Z" fill="#8B8B8B"/>
<path d="M81.96 193V184.12H83.136V191.968H87.708V193H81.96ZM91.041 193.12C90.409 193.12 89.905 192.924 89.529 192.532C89.153 192.14 88.965 191.596 88.965 190.9V186.64H90.105V190.84C90.105 191.256 90.217 191.576 90.441 191.8C90.673 192.024 90.977 192.136 91.353 192.136C91.737 192.136 92.045 192.036 92.277 191.836C92.509 191.636 92.677 191.38 92.781 191.068C92.885 190.756 92.937 190.436 92.937 190.108V186.64H94.077V193H92.937V192.088H92.865C92.817 192.184 92.725 192.316 92.589 192.484C92.453 192.644 92.261 192.792 92.013 192.928C91.765 193.056 91.441 193.12 91.041 193.12ZM95.7619 193V186.64H96.9019V187.564H96.9739C97.0299 187.468 97.1219 187.336 97.2499 187.168C97.3859 187 97.5779 186.852 97.8259 186.724C98.0739 186.588 98.3859 186.52 98.7619 186.52C99.2259 186.52 99.6219 186.628 99.9499 186.844C100.278 187.052 100.526 187.336 100.694 187.696C100.87 188.056 100.958 188.46 100.958 188.908V193H99.8179V188.98C99.8179 188.556 99.6979 188.204 99.4579 187.924C99.2259 187.644 98.8859 187.504 98.4379 187.504C98.0779 187.504 97.7859 187.596 97.5619 187.78C97.3379 187.956 97.1699 188.192 97.0579 188.488C96.9539 188.776 96.9019 189.084 96.9019 189.412V193H95.7619Z" fill="#8B8B8B"/>
<path d="M143.96 193V184.12H145.508L148.124 189.4L150.728 184.12H152.276V193H151.124V185.848L148.676 190.72H147.56L145.112 185.824V193H143.96ZM156.83 186.52C157.23 186.52 157.566 186.584 157.838 186.712C158.11 186.84 158.33 186.992 158.498 187.168C158.666 187.336 158.794 187.496 158.882 187.648H158.954V186.64H160.094V193H158.954V191.992H158.882C158.794 192.144 158.666 192.308 158.498 192.484C158.33 192.66 158.11 192.812 157.838 192.94C157.566 193.06 157.23 193.12 156.83 193.12C156.35 193.12 155.93 193.028 155.57 192.844C155.21 192.652 154.91 192.4 154.67 192.088C154.43 191.768 154.25 191.412 154.13 191.02C154.01 190.628 153.95 190.228 153.95 189.82C153.95 189.412 154.01 189.012 154.13 188.62C154.25 188.228 154.43 187.876 154.67 187.564C154.91 187.244 155.21 186.992 155.57 186.808C155.93 186.616 156.35 186.52 156.83 186.52ZM157.022 187.492C156.598 187.492 156.242 187.608 155.954 187.84C155.666 188.064 155.45 188.352 155.306 188.704C155.17 189.056 155.102 189.428 155.102 189.82C155.102 190.204 155.17 190.576 155.306 190.936C155.45 191.288 155.666 191.58 155.954 191.812C156.242 192.036 156.598 192.148 157.022 192.148C157.446 192.148 157.798 192.036 158.078 191.812C158.366 191.58 158.578 191.288 158.714 190.936C158.858 190.576 158.93 190.204 158.93 189.82C158.93 189.428 158.858 189.056 158.714 188.704C158.578 188.352 158.366 188.064 158.078 187.84C157.798 187.608 157.446 187.492 157.022 187.492ZM161.77 193V186.64H162.91V187.432H162.958C163.094 187.192 163.294 186.98 163.558 186.796C163.822 186.612 164.194 186.52 164.674 186.52C164.81 186.52 164.934 186.528 165.046 186.544C165.158 186.552 165.214 186.556 165.214 186.556V187.648C165.214 187.648 165.15 187.644 165.022 187.636C164.902 187.62 164.774 187.612 164.638 187.612C164.086 187.612 163.658 187.772 163.354 188.092C163.058 188.404 162.91 188.916 162.91 189.628V193H161.77Z" fill="#8B8B8B"/>
<path d="M207.96 193V184.12H209.508L212.124 189.4L214.728 184.12H216.276V193H215.124V185.848L212.676 190.72H211.56L209.112 185.824V193H207.96ZM218.814 185.428C218.598 185.428 218.418 185.356 218.274 185.212C218.138 185.068 218.07 184.896 218.07 184.696C218.07 184.488 218.138 184.312 218.274 184.168C218.418 184.024 218.598 183.952 218.814 183.952C219.022 183.952 219.198 184.024 219.342 184.168C219.486 184.312 219.558 184.488 219.558 184.696C219.558 184.896 219.486 185.068 219.342 185.212C219.198 185.356 219.022 185.428 218.814 185.428ZM218.25 193V186.64H219.39V193H218.25ZM224.127 193.12C223.607 193.12 223.155 193.028 222.771 192.844C222.395 192.652 222.083 192.396 221.835 192.076C221.595 191.756 221.415 191.404 221.295 191.02C221.175 190.628 221.115 190.228 221.115 189.82C221.115 189.42 221.171 189.024 221.283 188.632C221.403 188.24 221.583 187.884 221.823 187.564C222.071 187.244 222.379 186.992 222.747 186.808C223.123 186.616 223.567 186.52 224.079 186.52C224.623 186.52 225.103 186.644 225.519 186.892C225.935 187.14 226.263 187.508 226.503 187.996C226.743 188.484 226.863 189.096 226.863 189.832V190.168H222.267C222.291 190.528 222.375 190.86 222.519 191.164C222.671 191.46 222.883 191.7 223.155 191.884C223.427 192.06 223.751 192.148 224.127 192.148C224.455 192.148 224.719 192.096 224.919 191.992C225.127 191.88 225.291 191.752 225.411 191.608C225.531 191.464 225.611 191.34 225.651 191.236C225.699 191.124 225.723 191.068 225.723 191.068H226.791C226.791 191.068 226.771 191.14 226.731 191.284C226.691 191.42 226.619 191.588 226.515 191.788C226.411 191.988 226.259 192.192 226.059 192.4C225.859 192.6 225.603 192.772 225.291 192.916C224.979 193.052 224.591 193.12 224.127 193.12ZM222.279 189.28H225.747C225.731 188.864 225.643 188.528 225.483 188.272C225.323 188.008 225.119 187.812 224.871 187.684C224.623 187.556 224.359 187.492 224.079 187.492C223.575 187.492 223.163 187.656 222.843 187.984C222.523 188.304 222.335 188.736 222.279 189.28Z" fill="#8B8B8B"/>
<path d="M270.572 193.12C270.3 193.12 270.048 193.104 269.816 193.072C269.592 193.048 269.48 193.036 269.48 193.036V191.992C269.48 191.992 269.528 191.996 269.624 192.004C269.728 192.012 269.852 192.024 269.996 192.04C270.148 192.048 270.292 192.052 270.428 192.052C271.044 192.052 271.532 191.9 271.892 191.596C272.26 191.292 272.444 190.768 272.444 190.024V184.12H273.62V190.024C273.62 190.968 273.36 191.72 272.84 192.28C272.328 192.84 271.572 193.12 270.572 193.12ZM277.494 193.12C276.862 193.12 276.358 192.924 275.982 192.532C275.606 192.14 275.418 191.596 275.418 190.9V186.64H276.558V190.84C276.558 191.256 276.67 191.576 276.894 191.8C277.126 192.024 277.43 192.136 277.806 192.136C278.19 192.136 278.498 192.036 278.73 191.836C278.962 191.636 279.13 191.38 279.234 191.068C279.338 190.756 279.39 190.436 279.39 190.108V186.64H280.53V193H279.39V192.088H279.318C279.27 192.184 279.178 192.316 279.042 192.484C278.906 192.644 278.714 192.792 278.466 192.928C278.218 193.056 277.894 193.12 277.494 193.12ZM285.107 193.12C284.587 193.12 284.135 193.028 283.751 192.844C283.375 192.652 283.063 192.396 282.815 192.076C282.575 191.756 282.395 191.404 282.275 191.02C282.155 190.628 282.095 190.228 282.095 189.82C282.095 189.42 282.151 189.024 282.263 188.632C282.383 188.24 282.563 187.884 282.803 187.564C283.051 187.244 283.359 186.992 283.727 186.808C284.103 186.616 284.547 186.52 285.059 186.52C285.603 186.52 286.083 186.644 286.499 186.892C286.915 187.14 287.243 187.508 287.483 187.996C287.723 188.484 287.843 189.096 287.843 189.832V190.168H283.247C283.271 190.528 283.355 190.86 283.499 191.164C283.651 191.46 283.863 191.7 284.135 191.884C284.407 192.06 284.731 192.148 285.107 192.148C285.435 192.148 285.699 192.096 285.899 191.992C286.107 191.88 286.271 191.752 286.391 191.608C286.511 191.464 286.591 191.34 286.631 191.236C286.679 191.124 286.703 191.068 286.703 191.068H287.771C287.771 191.068 287.751 191.14 287.711 191.284C287.671 191.42 287.599 191.588 287.495 191.788C287.391 191.988 287.239 192.192 287.039 192.4C286.839 192.6 286.583 192.772 286.271 192.916C285.959 193.052 285.571 193.12 285.107 193.12ZM283.259 189.28H286.727C286.711 188.864 286.623 188.528 286.463 188.272C286.303 188.008 286.099 187.812 285.851 187.684C285.603 187.556 285.339 187.492 285.059 187.492C284.555 187.492 284.143 187.656 283.823 187.984C283.503 188.304 283.315 188.736 283.259 189.28Z" fill="#8B8B8B"/>
<path d="M333.492 193L330.36 184.12H331.608L334.236 191.656L336.864 184.12H338.112L334.968 193H333.492ZM340.057 185.428C339.841 185.428 339.661 185.356 339.517 185.212C339.381 185.068 339.313 184.896 339.313 184.696C339.313 184.488 339.381 184.312 339.517 184.168C339.661 184.024 339.841 183.952 340.057 183.952C340.265 183.952 340.441 184.024 340.585 184.168C340.729 184.312 340.801 184.488 340.801 184.696C340.801 184.896 340.729 185.068 340.585 185.212C340.441 185.356 340.265 185.428 340.057 185.428ZM339.493 193V186.64H340.633V193H339.493ZM345.369 193.12C344.849 193.12 344.397 193.028 344.013 192.844C343.637 192.652 343.325 192.396 343.077 192.076C342.837 191.756 342.657 191.404 342.537 191.02C342.417 190.628 342.357 190.228 342.357 189.82C342.357 189.42 342.413 189.024 342.525 188.632C342.645 188.24 342.825 187.884 343.065 187.564C343.313 187.244 343.621 186.992 343.989 186.808C344.365 186.616 344.809 186.52 345.321 186.52C345.865 186.52 346.345 186.644 346.761 186.892C347.177 187.14 347.505 187.508 347.745 187.996C347.985 188.484 348.105 189.096 348.105 189.832V190.168H343.509C343.533 190.528 343.617 190.86 343.761 191.164C343.913 191.46 344.125 191.7 344.397 191.884C344.669 192.06 344.993 192.148 345.369 192.148C345.697 192.148 345.961 192.096 346.161 191.992C346.369 191.88 346.533 191.752 346.653 191.608C346.773 191.464 346.853 191.34 346.893 191.236C346.941 191.124 346.965 191.068 346.965 191.068H348.033C348.033 191.068 348.013 191.14 347.973 191.284C347.933 191.42 347.861 191.588 347.757 191.788C347.653 191.988 347.501 192.192 347.301 192.4C347.101 192.6 346.845 192.772 346.533 192.916C346.221 193.052 345.833 193.12 345.369 193.12ZM343.521 189.28H346.989C346.973 188.864 346.885 188.528 346.725 188.272C346.565 188.008 346.361 187.812 346.113 187.684C345.865 187.556 345.601 187.492 345.321 187.492C344.817 187.492 344.405 187.656 344.085 187.984C343.765 188.304 343.577 188.736 343.521 189.28Z" fill="#8B8B8B"/>
<path d="M393.936 193.12C393.424 193.12 392.984 193.056 392.616 192.928C392.256 192.792 391.956 192.62 391.716 192.412C391.476 192.196 391.284 191.972 391.14 191.74C390.996 191.508 390.888 191.288 390.816 191.08C390.744 190.864 390.696 190.692 390.672 190.564C390.656 190.428 390.648 190.36 390.648 190.36H391.848C391.848 190.36 391.86 190.416 391.884 190.528C391.908 190.64 391.956 190.78 392.028 190.948C392.108 191.116 392.224 191.288 392.376 191.464C392.528 191.632 392.732 191.772 392.988 191.884C393.244 191.996 393.568 192.052 393.96 192.052C394.552 192.052 395.02 191.912 395.364 191.632C395.708 191.344 395.88 190.972 395.88 190.516C395.88 190.124 395.748 189.82 395.484 189.604C395.228 189.388 394.86 189.22 394.38 189.1L393.204 188.812C392.788 188.708 392.4 188.564 392.04 188.38C391.688 188.188 391.404 187.94 391.188 187.636C390.98 187.324 390.876 186.936 390.876 186.472C390.876 185.952 391.004 185.508 391.26 185.14C391.516 184.772 391.864 184.492 392.304 184.3C392.744 184.1 393.244 184 393.804 184C394.348 184 394.8 184.084 395.16 184.252C395.52 184.42 395.808 184.628 396.024 184.876C396.24 185.116 396.4 185.36 396.504 185.608C396.608 185.848 396.676 186.052 396.708 186.22C396.74 186.388 396.756 186.472 396.756 186.472H395.604C395.604 186.472 395.588 186.4 395.556 186.256C395.524 186.112 395.448 185.948 395.328 185.764C395.208 185.572 395.024 185.404 394.776 185.26C394.528 185.116 394.192 185.044 393.768 185.044C393.192 185.044 392.756 185.18 392.46 185.452C392.172 185.724 392.028 186.036 392.028 186.388C392.028 186.708 392.144 186.968 392.376 187.168C392.608 187.36 392.928 187.508 393.336 187.612L394.608 187.924C395.064 188.036 395.476 188.2 395.844 188.416C396.212 188.624 396.504 188.896 396.72 189.232C396.936 189.56 397.044 189.964 397.044 190.444C397.044 190.924 396.924 191.368 396.684 191.776C396.452 192.184 396.104 192.512 395.64 192.76C395.184 193 394.616 193.12 393.936 193.12ZM401.217 186.52C401.617 186.52 401.953 186.584 402.225 186.712C402.497 186.84 402.717 186.992 402.885 187.168C403.053 187.336 403.181 187.496 403.269 187.648H403.341V186.64H404.481V193H403.341V191.992H403.269C403.181 192.144 403.053 192.308 402.885 192.484C402.717 192.66 402.497 192.812 402.225 192.94C401.953 193.06 401.617 193.12 401.217 193.12C400.737 193.12 400.317 193.028 399.957 192.844C399.597 192.652 399.297 192.4 399.057 192.088C398.817 191.768 398.637 191.412 398.517 191.02C398.397 190.628 398.337 190.228 398.337 189.82C398.337 189.412 398.397 189.012 398.517 188.62C398.637 188.228 398.817 187.876 399.057 187.564C399.297 187.244 399.597 186.992 399.957 186.808C400.317 186.616 400.737 186.52 401.217 186.52ZM401.409 187.492C400.985 187.492 400.629 187.608 400.341 187.84C400.053 188.064 399.837 188.352 399.693 188.704C399.557 189.056 399.489 189.428 399.489 189.82C399.489 190.204 399.557 190.576 399.693 190.936C399.837 191.288 400.053 191.58 400.341 191.812C400.629 192.036 400.985 192.148 401.409 192.148C401.833 192.148 402.185 192.036 402.465 191.812C402.753 191.58 402.965 191.288 403.101 190.936C403.245 190.576 403.317 190.204 403.317 189.82C403.317 189.428 403.245 189.056 403.101 188.704C402.965 188.352 402.753 188.064 402.465 187.84C402.185 187.608 401.833 187.492 401.409 187.492ZM409.54 193.12C409.14 193.12 408.804 193.056 408.532 192.928C408.26 192.8 408.04 192.648 407.872 192.472C407.712 192.296 407.584 192.136 407.488 191.992H407.416V193H406.276V183.88H407.416V187.648H407.488C407.584 187.496 407.712 187.332 407.872 187.156C408.04 186.98 408.26 186.832 408.532 186.712C408.804 186.584 409.14 186.52 409.54 186.52C410.02 186.52 410.44 186.616 410.8 186.808C411.16 186.992 411.46 187.244 411.7 187.564C411.94 187.876 412.12 188.228 412.24 188.62C412.36 189.012 412.42 189.412 412.42 189.82C412.42 190.228 412.36 190.628 412.24 191.02C412.12 191.412 411.94 191.768 411.7 192.088C411.46 192.4 411.16 192.652 410.8 192.844C410.44 193.028 410.02 193.12 409.54 193.12ZM409.348 192.148C409.78 192.148 410.136 192.036 410.416 191.812C410.704 191.58 410.916 191.288 411.052 190.936C411.196 190.576 411.268 190.204 411.268 189.82C411.268 189.428 411.196 189.056 411.052 188.704C410.916 188.352 410.704 188.064 410.416 187.84C410.136 187.608 409.78 187.492 409.348 187.492C408.924 187.492 408.568 187.608 408.28 187.84C408 188.064 407.788 188.352 407.644 188.704C407.508 189.056 407.44 189.428 407.44 189.82C407.44 190.204 407.508 190.576 407.644 190.936C407.788 191.288 408 191.58 408.28 191.812C408.568 192.036 408.924 192.148 409.348 192.148Z" fill="#8B8B8B"/>
<path d="M455.96 193V184.12H458.84C459.552 184.12 460.172 184.248 460.7 184.504C461.228 184.752 461.668 185.088 462.02 185.512C462.372 185.936 462.636 186.412 462.812 186.94C462.988 187.468 463.076 188.008 463.076 188.56C463.076 189.112 462.988 189.652 462.812 190.18C462.636 190.708 462.372 191.184 462.02 191.608C461.668 192.032 461.228 192.372 460.7 192.628C460.172 192.876 459.552 193 458.84 193H455.96ZM458.792 185.152H457.136V191.968H458.792C459.312 191.968 459.764 191.872 460.148 191.68C460.54 191.488 460.864 191.232 461.12 190.912C461.384 190.584 461.58 190.216 461.708 189.808C461.836 189.4 461.9 188.984 461.9 188.56C461.9 188.136 461.836 187.72 461.708 187.312C461.58 186.904 461.384 186.54 461.12 186.22C460.864 185.892 460.54 185.632 460.148 185.44C459.764 185.248 459.312 185.152 458.792 185.152ZM467.582 193.12C466.902 193.12 466.33 192.964 465.866 192.652C465.402 192.332 465.05 191.92 464.81 191.416C464.57 190.912 464.45 190.38 464.45 189.82C464.45 189.252 464.57 188.72 464.81 188.224C465.05 187.72 465.402 187.312 465.866 187C466.33 186.68 466.902 186.52 467.582 186.52C468.262 186.52 468.834 186.68 469.298 187C469.762 187.312 470.114 187.72 470.354 188.224C470.594 188.72 470.714 189.252 470.714 189.82C470.714 190.38 470.594 190.912 470.354 191.416C470.114 191.92 469.762 192.332 469.298 192.652C468.834 192.964 468.262 193.12 467.582 193.12ZM467.582 192.124C468.014 192.124 468.374 192.016 468.662 191.8C468.958 191.576 469.178 191.288 469.322 190.936C469.474 190.584 469.55 190.212 469.55 189.82C469.55 189.42 469.474 189.048 469.322 188.704C469.178 188.352 468.958 188.068 468.662 187.852C468.374 187.628 468.014 187.516 467.582 187.516C467.158 187.516 466.798 187.628 466.502 187.852C466.206 188.068 465.982 188.352 465.83 188.704C465.686 189.048 465.614 189.42 465.614 189.82C465.614 190.212 465.686 190.584 465.83 190.936C465.982 191.288 466.206 191.576 466.502 191.8C466.798 192.016 467.158 192.124 467.582 192.124ZM472.27 193V186.64H473.41V187.564H473.458C473.522 187.444 473.622 187.304 473.758 187.144C473.894 186.976 474.078 186.832 474.31 186.712C474.55 186.584 474.85 186.52 475.21 186.52C475.682 186.52 476.078 186.636 476.398 186.868C476.726 187.092 476.97 187.396 477.13 187.78H477.142C477.318 187.428 477.566 187.132 477.886 186.892C478.214 186.644 478.638 186.52 479.158 186.52C479.846 186.52 480.374 186.756 480.742 187.228C481.118 187.692 481.306 188.292 481.306 189.028V193H480.166V189.088C480.166 188.616 480.054 188.236 479.83 187.948C479.606 187.652 479.282 187.504 478.858 187.504C478.49 187.504 478.194 187.604 477.97 187.804C477.754 188.004 477.598 188.252 477.502 188.548C477.406 188.844 477.358 189.14 477.358 189.436V193H476.218V189.088C476.218 188.616 476.106 188.236 475.882 187.948C475.666 187.652 475.342 187.504 474.91 187.504C474.542 187.504 474.246 187.604 474.022 187.804C473.806 188.004 473.65 188.256 473.554 188.56C473.458 188.856 473.41 189.148 473.41 189.436V193H472.27Z" fill="#8B8B8B"/>
<path d="M39.972 125V124.172L41.916 122.372C42.46 121.868 42.936 121.428 43.344 121.052C43.76 120.668 44.084 120.296 44.316 119.936C44.548 119.576 44.664 119.18 44.664 118.748C44.664 118.388 44.576 118.084 44.4 117.836C44.232 117.588 44.012 117.4 43.74 117.272C43.476 117.136 43.2 117.068 42.912 117.068C42.536 117.068 42.228 117.132 41.988 117.26C41.748 117.388 41.564 117.548 41.436 117.74C41.308 117.924 41.216 118.112 41.16 118.304C41.104 118.488 41.072 118.644 41.064 118.772C41.056 118.9 41.052 118.964 41.052 118.964H39.924C39.924 118.964 39.928 118.892 39.936 118.748C39.944 118.604 39.972 118.42 40.02 118.196C40.076 117.972 40.164 117.736 40.284 117.488C40.404 117.232 40.572 116.992 40.788 116.768C41.012 116.544 41.296 116.36 41.64 116.216C41.992 116.072 42.42 116 42.924 116C43.436 116 43.912 116.108 44.352 116.324C44.8 116.532 45.16 116.84 45.432 117.248C45.704 117.648 45.84 118.14 45.84 118.724C45.84 119.26 45.704 119.748 45.432 120.188C45.168 120.62 44.816 121.044 44.376 121.46C43.936 121.876 43.456 122.324 42.936 122.804L41.712 123.932H46.032V125H39.972Z" fill="#8B8B8B"/>
<path d="M42.9 100.12C42.38 100.12 41.884 100.02 41.412 99.82C40.948 99.62 40.568 99.316 40.272 98.908C39.984 98.492 39.84 97.968 39.84 97.336H40.956C40.956 97.744 41.048 98.08 41.232 98.344C41.424 98.608 41.668 98.804 41.964 98.932C42.268 99.06 42.58 99.124 42.9 99.124C43.244 99.124 43.56 99.06 43.848 98.932C44.136 98.796 44.368 98.6 44.544 98.344C44.72 98.088 44.808 97.78 44.808 97.42C44.808 96.948 44.652 96.576 44.34 96.304C44.028 96.024 43.612 95.884 43.092 95.884H41.892V94.96H43.092C43.524 94.96 43.892 94.832 44.196 94.576C44.508 94.32 44.664 93.972 44.664 93.532C44.664 93.212 44.58 92.94 44.412 92.716C44.252 92.484 44.036 92.304 43.764 92.176C43.5 92.048 43.212 91.984 42.9 91.984C42.604 91.984 42.316 92.052 42.036 92.188C41.764 92.316 41.54 92.512 41.364 92.776C41.188 93.04 41.1 93.376 41.1 93.784H40.008C40.008 93.16 40.148 92.644 40.428 92.236C40.716 91.82 41.08 91.512 41.52 91.312C41.968 91.104 42.436 91 42.924 91C43.42 91 43.884 91.1 44.316 91.3C44.756 91.492 45.112 91.772 45.384 92.14C45.656 92.5 45.792 92.932 45.792 93.436C45.792 93.916 45.672 94.324 45.432 94.66C45.192 94.988 44.888 95.224 44.52 95.368V95.428C44.944 95.572 45.292 95.816 45.564 96.16C45.836 96.504 45.972 96.936 45.972 97.456C45.972 98.008 45.828 98.484 45.54 98.884C45.252 99.284 44.876 99.592 44.412 99.808C43.948 100.016 43.444 100.12 42.9 100.12Z" fill="#8B8B8B"/>
<path d="M44.004 75V72.936L39.66 72.924V71.856L43.74 66.12H45.18V71.916H46.728V72.936H45.18V75H44.004ZM40.872 71.916H44.004V67.5L40.872 71.916Z" fill="#8B8B8B"/>
<path d="M42.9 50.12C42.396 50.12 41.964 50.056 41.604 49.928C41.252 49.792 40.96 49.62 40.728 49.412C40.504 49.204 40.324 48.984 40.188 48.752C40.06 48.52 39.964 48.3 39.9 48.092C39.844 47.884 39.808 47.716 39.792 47.588C39.776 47.452 39.768 47.384 39.768 47.384H40.872C40.872 47.384 40.88 47.444 40.896 47.564C40.912 47.676 40.952 47.82 41.016 47.996C41.088 48.164 41.196 48.336 41.34 48.512C41.484 48.68 41.68 48.824 41.928 48.944C42.184 49.056 42.508 49.112 42.9 49.112C43.364 49.112 43.748 49.012 44.052 48.812C44.356 48.612 44.584 48.356 44.736 48.044C44.888 47.732 44.964 47.404 44.964 47.06C44.964 46.708 44.888 46.372 44.736 46.052C44.584 45.724 44.356 45.46 44.052 45.26C43.756 45.052 43.388 44.948 42.948 44.948C42.604 44.948 42.316 45.004 42.084 45.116C41.852 45.228 41.668 45.356 41.532 45.5C41.404 45.644 41.312 45.772 41.256 45.884C41.2 45.996 41.172 46.052 41.172 46.052H40.02L40.716 41.12H45.492V42.164H41.592L41.232 44.708H41.268C41.364 44.604 41.484 44.496 41.628 44.384C41.78 44.264 41.976 44.164 42.216 44.084C42.456 43.996 42.756 43.952 43.116 43.952C43.772 43.952 44.32 44.104 44.76 44.408C45.2 44.704 45.532 45.088 45.756 45.56C45.988 46.024 46.104 46.516 46.104 47.036C46.104 47.42 46.036 47.796 45.9 48.164C45.772 48.532 45.576 48.864 45.312 49.16C45.048 49.448 44.716 49.68 44.316 49.856C43.916 50.032 43.444 50.12 42.9 50.12Z" fill="#8B8B8B"/>
<path d="M397.732 24.126C397.088 24.126 396.519 23.986 396.024 23.706C395.529 23.4167 395.114 23.0293 394.778 22.544C394.451 22.0493 394.199 21.48 394.022 20.836C393.854 20.192 393.77 19.5153 393.77 18.806C393.77 18.0873 393.854 17.4107 394.022 16.776C394.199 16.132 394.451 15.5627 394.778 15.068C395.114 14.5733 395.529 14.186 396.024 13.906C396.519 13.626 397.088 13.486 397.732 13.486C398.376 13.486 398.945 13.626 399.44 13.906C399.935 14.186 400.345 14.5733 400.672 15.068C401.008 15.5627 401.26 16.132 401.428 16.776C401.605 17.4107 401.694 18.0873 401.694 18.806C401.694 19.5153 401.605 20.192 401.428 20.836C401.26 21.48 401.008 22.0493 400.672 22.544C400.345 23.0293 399.935 23.4167 399.44 23.706C398.945 23.986 398.376 24.126 397.732 24.126ZM397.732 22.866C398.469 22.866 399.076 22.5253 399.552 21.844C400.037 21.1533 400.28 20.1407 400.28 18.806C400.28 17.4713 400.037 16.4633 399.552 15.782C399.076 15.1007 398.469 14.76 397.732 14.76C396.995 14.76 396.383 15.1007 395.898 15.782C395.422 16.4633 395.184 17.4713 395.184 18.806C395.184 20.1313 395.422 21.1393 395.898 21.83C396.383 22.5207 396.995 22.866 397.732 22.866ZM406.311 13.64V24H404.967V15.964L403.021 15.978V15.194L403.371 15.082C403.866 14.9233 404.262 14.7507 404.561 14.564C404.869 14.3773 405.154 14.1207 405.415 13.794L405.541 13.64H406.311ZM412.922 24V17.672H411.704V16.58H412.922V15.67C412.922 15.278 412.992 14.8953 413.132 14.522C413.272 14.1393 413.506 13.8267 413.832 13.584C414.159 13.3413 414.602 13.22 415.162 13.22C415.433 13.22 415.648 13.2433 415.806 13.29C415.974 13.3273 416.058 13.346 416.058 13.346V14.396C416.058 14.396 415.984 14.382 415.834 14.354C415.694 14.3167 415.531 14.298 415.344 14.298C414.915 14.298 414.626 14.4287 414.476 14.69C414.327 14.9513 414.252 15.278 414.252 15.67V16.58H415.974V17.672H414.252V24H412.922ZM420.405 24.14C419.798 24.14 419.271 24.0327 418.823 23.818C418.384 23.594 418.02 23.2953 417.731 22.922C417.451 22.5487 417.241 22.138 417.101 21.69C416.961 21.2327 416.891 20.766 416.891 20.29C416.891 19.8233 416.956 19.3613 417.087 18.904C417.227 18.4467 417.437 18.0313 417.717 17.658C418.006 17.2847 418.365 16.9907 418.795 16.776C419.233 16.552 419.751 16.44 420.349 16.44C420.983 16.44 421.543 16.5847 422.029 16.874C422.514 17.1633 422.897 17.5927 423.177 18.162C423.457 18.7313 423.597 19.4453 423.597 20.304V20.696H418.235C418.263 21.116 418.361 21.5033 418.529 21.858C418.706 22.2033 418.953 22.4833 419.271 22.698C419.588 22.9033 419.966 23.006 420.405 23.006C420.787 23.006 421.095 22.9453 421.329 22.824C421.571 22.6933 421.763 22.544 421.903 22.376C422.043 22.208 422.136 22.0633 422.183 21.942C422.239 21.8113 422.267 21.746 422.267 21.746H423.513C423.513 21.746 423.489 21.83 423.443 21.998C423.396 22.1567 423.312 22.3527 423.191 22.586C423.069 22.8193 422.892 23.0573 422.659 23.3C422.425 23.5333 422.127 23.734 421.763 23.902C421.399 24.0607 420.946 24.14 420.405 24.14ZM418.249 19.66H422.295C422.276 19.1747 422.173 18.7827 421.987 18.484C421.8 18.176 421.562 17.9473 421.273 17.798C420.983 17.6487 420.675 17.574 420.349 17.574C419.761 17.574 419.28 17.7653 418.907 18.148C418.533 18.5213 418.314 19.0253 418.249 19.66ZM429.36 24.14C428.893 24.14 428.501 24.0653 428.184 23.916C427.866 23.7667 427.61 23.5893 427.414 23.384C427.227 23.1787 427.078 22.992 426.966 22.824H426.882V24H425.552V13.36H426.882V17.756H426.966C427.078 17.5787 427.227 17.3873 427.414 17.182C427.61 16.9767 427.866 16.804 428.184 16.664C428.501 16.5147 428.893 16.44 429.36 16.44C429.92 16.44 430.41 16.552 430.83 16.776C431.25 16.9907 431.6 17.2847 431.88 17.658C432.16 18.022 432.37 18.4327 432.51 18.89C432.65 19.3473 432.72 19.814 432.72 20.29C432.72 20.766 432.65 21.2327 432.51 21.69C432.37 22.1473 432.16 22.5627 431.88 22.936C431.6 23.3 431.25 23.594 430.83 23.818C430.41 24.0327 429.92 24.14 429.36 24.14ZM429.136 23.006C429.64 23.006 430.055 22.8753 430.382 22.614C430.718 22.3433 430.965 22.0027 431.124 21.592C431.292 21.172 431.376 20.738 431.376 20.29C431.376 19.8327 431.292 19.3987 431.124 18.988C430.965 18.5773 430.718 18.2413 430.382 17.98C430.055 17.7093 429.64 17.574 429.136 17.574C428.641 17.574 428.226 17.7093 427.89 17.98C427.563 18.2413 427.316 18.5773 427.148 18.988C426.989 19.3987 426.91 19.8327 426.91 20.29C426.91 20.738 426.989 21.172 427.148 21.592C427.316 22.0027 427.563 22.3433 427.89 22.614C428.226 22.8753 428.641 23.006 429.136 23.006ZM438.443 20.178V19.058H443.651V20.178H438.443ZM453.267 24.126C452.623 24.126 452.054 23.986 451.559 23.706C451.064 23.4167 450.649 23.0293 450.313 22.544C449.986 22.0493 449.734 21.48 449.557 20.836C449.389 20.192 449.305 19.5153 449.305 18.806C449.305 18.0873 449.389 17.4107 449.557 16.776C449.734 16.132 449.986 15.5627 450.313 15.068C450.649 14.5733 451.064 14.186 451.559 13.906C452.054 13.626 452.623 13.486 453.267 13.486C453.911 13.486 454.48 13.626 454.975 13.906C455.47 14.186 455.88 14.5733 456.207 15.068C456.543 15.5627 456.795 16.132 456.963 16.776C457.14 17.4107 457.229 18.0873 457.229 18.806C457.229 19.5153 457.14 20.192 456.963 20.836C456.795 21.48 456.543 22.0493 456.207 22.544C455.88 23.0293 455.47 23.4167 454.975 23.706C454.48 23.986 453.911 24.126 453.267 24.126ZM453.267 22.866C454.004 22.866 454.611 22.5253 455.087 21.844C455.572 21.1533 455.815 20.1407 455.815 18.806C455.815 17.4713 455.572 16.4633 455.087 15.782C454.611 15.1007 454.004 14.76 453.267 14.76C452.53 14.76 451.918 15.1007 451.433 15.782C450.957 16.4633 450.719 17.4713 450.719 18.806C450.719 20.1313 450.957 21.1393 451.433 21.83C451.918 22.5207 452.53 22.866 453.267 22.866ZM461.846 13.64V24H460.502V15.964L458.556 15.978V15.194L458.906 15.082C459.401 14.9233 459.797 14.7507 460.096 14.564C460.404 14.3773 460.689 14.1207 460.95 13.794L461.076 13.64H461.846ZM467.589 24V16.58H468.919V17.658H468.975C469.05 17.518 469.167 17.3547 469.325 17.168C469.484 16.972 469.699 16.804 469.969 16.664C470.249 16.5147 470.599 16.44 471.019 16.44C471.57 16.44 472.032 16.5753 472.405 16.846C472.788 17.1073 473.073 17.462 473.259 17.91H473.273C473.479 17.4993 473.768 17.154 474.141 16.874C474.524 16.5847 475.019 16.44 475.625 16.44C476.428 16.44 477.044 16.7153 477.473 17.266C477.912 17.8073 478.131 18.5073 478.131 19.366V24H476.801V19.436C476.801 18.8853 476.671 18.442 476.409 18.106C476.148 17.7607 475.77 17.588 475.275 17.588C474.846 17.588 474.501 17.7047 474.239 17.938C473.987 18.1713 473.805 18.4607 473.693 18.806C473.581 19.1513 473.525 19.4967 473.525 19.842V24H472.195V19.436C472.195 18.8853 472.065 18.442 471.803 18.106C471.551 17.7607 471.173 17.588 470.669 17.588C470.24 17.588 469.895 17.7047 469.633 17.938C469.381 18.1713 469.199 18.4653 469.087 18.82C468.975 19.1653 468.919 19.506 468.919 19.842V24H467.589ZM483.305 16.44C483.772 16.44 484.164 16.5147 484.481 16.664C484.799 16.8133 485.055 16.9907 485.251 17.196C485.447 17.392 485.597 17.5787 485.699 17.756H485.783V16.58H487.113V24H485.783V22.824H485.699C485.597 23.0013 485.447 23.1927 485.251 23.398C485.055 23.6033 484.799 23.7807 484.481 23.93C484.164 24.07 483.772 24.14 483.305 24.14C482.745 24.14 482.255 24.0327 481.835 23.818C481.415 23.594 481.065 23.3 480.785 22.936C480.505 22.5627 480.295 22.1473 480.155 21.69C480.015 21.2327 479.945 20.766 479.945 20.29C479.945 19.814 480.015 19.3473 480.155 18.89C480.295 18.4327 480.505 18.022 480.785 17.658C481.065 17.2847 481.415 16.9907 481.835 16.776C482.255 16.552 482.745 16.44 483.305 16.44ZM483.529 17.574C483.035 17.574 482.619 17.7093 482.283 17.98C481.947 18.2413 481.695 18.5773 481.527 18.988C481.369 19.3987 481.289 19.8327 481.289 20.29C481.289 20.738 481.369 21.172 481.527 21.592C481.695 22.0027 481.947 22.3433 482.283 22.614C482.619 22.8753 483.035 23.006 483.529 23.006C484.024 23.006 484.435 22.8753 484.761 22.614C485.097 22.3433 485.345 22.0027 485.503 21.592C485.671 21.172 485.755 20.738 485.755 20.29C485.755 19.8327 485.671 19.3987 485.503 18.988C485.345 18.5773 485.097 18.2413 484.761 17.98C484.435 17.7093 484.024 17.574 483.529 17.574ZM489.068 24V16.58H490.398V17.504H490.454C490.613 17.224 490.846 16.9767 491.154 16.762C491.462 16.5473 491.896 16.44 492.456 16.44C492.615 16.44 492.759 16.4493 492.89 16.468C493.021 16.4773 493.086 16.482 493.086 16.482V17.756C493.086 17.756 493.011 17.7513 492.862 17.742C492.722 17.7233 492.573 17.714 492.414 17.714C491.77 17.714 491.271 17.9007 490.916 18.274C490.571 18.638 490.398 19.2353 490.398 20.066V24H489.068Z" fill="#8B8B8B"/>
<circle cx="162" cy="20" r="5.57143" stroke="#8B8B8B" stroke-width="0.857143"/>
<line x1="495" y1="179.5" x2="39" y2="179.5" stroke="#D9D9D9"/>
<line x1="495" y1="155.5" x2="39" y2="155.5" stroke="#D9D9D9"/>
<line x1="495" y1="131.5" x2="39" y2="131.5" stroke="#D9D9D9"/>
<line x1="495" y1="107.5" x2="39" y2="107.5" stroke="#D9D9D9"/>
<line x1="495" y1="83.5" x2="39" y2="83.5" stroke="#D9D9D9"/>
<line x1="495" y1="59.5" x2="39" y2="59.5" stroke="#D9D9D9"/>
<defs>
<filter id="filter0_d_738_84" x="0" y="0" width="515" height="208" filterUnits="userSpaceOnUse" color-interpolation-filters="sRGB">
<feFlood flood-opacity="0" result="BackgroundImageFix"/>
<feColorMatrix in="SourceAlpha" type="matrix" values="0 0 0 0 0 0 0 0 0 0 0 0 0 0 0 0 0 0 127 0" result="hardAlpha"/>
<feMorphology radius="1" operator="dilate" in="SourceAlpha" result="effect1_dropShadow_738_84"/>
<feOffset dx="1" dy="1"/>
<feGaussianBlur stdDeviation="2"/>
<feComposite in2="hardAlpha" operator="out"/>
<feColorMatrix type="matrix" values="0 0 0 0 0 0 0 0 0 0 0 0 0 0 0 0 0 0 0.15 0"/>
<feBlend mode="normal" in2="BackgroundImageFix" result="effect1_dropShadow_738_84"/>
<feBlend mode="normal" in="SourceGraphic" in2="effect1_dropShadow_738_84" result="shape"/>
</filter>
</defs>
</svg>
