<svg width="400" height="108" viewBox="0 0 400 108" fill="none" xmlns="http://www.w3.org/2000/svg">
<path d="M167.15 28.8385V79.1358H158.116V54.5877L162.188 57.6578H134.336L138.409 54.6583V79.1422H129.374V28.8385H138.409V53.6307L134.336 50.4963H162.188L158.116 53.5986V28.845H167.15V28.8385Z" fill="#029AF2"/>
<path d="M177.822 63.9265V57.5486H203.245L202.22 59.2571V58.3707C202.22 56.8035 201.866 55.3327 201.157 53.9518C200.448 52.5773 199.378 51.4598 197.941 50.6119C196.504 49.7577 194.68 49.3338 192.47 49.3338C190.259 49.3338 188.384 49.7962 186.773 50.7147C185.162 51.6332 183.925 52.9627 183.042 54.6904C182.166 56.4182 181.727 58.4863 181.727 60.8949C181.727 63.3035 182.146 65.5065 182.99 67.2856C183.835 69.0712 185.072 70.4328 186.702 71.377C188.333 72.3211 190.324 72.79 192.67 72.79C194.268 72.79 195.647 72.6423 196.807 72.3468C197.973 72.0514 198.921 71.6467 199.662 71.1393C200.403 70.6255 200.963 70.0796 201.337 69.4822C201.711 68.8913 201.936 68.3004 202.007 67.7095H210.971C210.836 69.2317 210.327 70.7154 209.45 72.1606C208.574 73.6057 207.343 74.9095 205.771 76.0849C204.198 77.2539 202.284 78.1852 200.042 78.8788C197.793 79.5725 195.234 79.9193 192.36 79.9193C188.462 79.9193 185.053 79.1229 182.133 77.53C179.214 75.9372 176.939 73.7213 175.309 70.8824C173.678 68.0435 172.86 64.7871 172.86 61.1325C172.86 57.4779 173.685 54.0995 175.341 51.2799C176.997 48.4603 179.291 46.2637 182.236 44.6837C185.181 43.1036 188.552 42.3136 192.36 42.3136C196.169 42.3136 199.675 43.1101 202.536 44.7029C205.397 46.2958 207.607 48.5052 209.154 51.3377C210.707 54.1702 211.48 57.4587 211.48 61.2096C211.48 61.6849 211.467 62.1987 211.448 62.7447C211.422 63.2906 211.39 63.6888 211.345 63.9393H177.816L177.822 63.9265Z" fill="#029AF2"/>
<path d="M229.788 79.8872C227.075 79.8872 224.691 79.4633 222.635 78.6091C220.58 77.7549 218.975 76.5217 217.809 74.9095C216.642 73.2974 216.062 71.3513 216.062 69.0776C216.062 66.5984 216.739 64.5623 218.099 62.9566C219.458 61.3509 221.288 60.1177 223.589 59.2378C225.89 58.3643 228.448 57.7991 231.251 57.5486C235.401 57.1375 238.301 56.7458 239.957 56.3732C241.614 56.0007 242.438 55.3905 242.438 54.5491V54.4785C242.438 52.8856 241.723 51.6589 240.286 50.7982C238.849 49.9375 236.819 49.5008 234.196 49.5008C231.438 49.5008 229.318 49.9825 227.849 50.9524C226.379 51.9158 225.645 53.4444 225.645 55.5383H216.752C216.752 52.6994 217.512 50.2908 219.027 48.3254C220.541 46.36 222.622 44.8635 225.271 43.8423C227.92 42.821 230.916 42.3072 234.267 42.3072C237.393 42.3072 240.254 42.7761 242.857 43.7074C245.454 44.6387 247.542 46.0517 249.121 47.9336C250.7 49.8155 251.48 52.1727 251.48 54.9923V71.499C251.48 72.3661 251.505 73.2075 251.563 74.0425C251.621 74.871 251.737 75.6161 251.924 76.2776C252.15 77.0034 252.427 77.62 252.743 78.121C253.065 78.6219 253.31 78.9624 253.497 79.1422H244.604C244.443 78.9816 244.223 78.6733 243.934 78.2045C243.65 77.742 243.392 77.1961 243.167 76.5859C242.941 75.9051 242.767 75.1729 242.651 74.3893C242.535 73.6057 242.477 72.7322 242.477 71.7816L244.256 73.0084C243.573 74.3957 242.529 75.6032 241.124 76.6373C239.719 77.6714 238.05 78.4742 236.11 79.0394C234.17 79.6046 232.063 79.8937 229.782 79.8937L229.788 79.8872ZM231.979 72.8285C233.848 72.8285 235.582 72.5074 237.18 71.8715C238.778 71.2357 240.067 70.253 241.046 68.9235C242.026 67.5939 242.516 65.8855 242.516 63.7916V58.9488L244.707 61.4023C243.244 61.9483 241.491 62.3979 239.435 62.7511C237.38 63.1044 235.305 63.3805 233.21 63.5861C230.517 63.8366 228.493 64.299 227.14 64.9863C225.78 65.6671 225.103 66.7847 225.103 68.3261C225.103 69.8676 225.671 70.9531 226.811 71.7045C227.952 72.456 229.672 72.8285 231.979 72.8285Z" fill="#029AF2"/>
<path d="M267.565 25.8391V79.1358H258.704V25.8391H267.565Z" fill="#029AF2"/>
<path d="M293.084 79.8166C291.782 79.8166 290.461 79.6945 289.114 79.444C287.767 79.1936 286.536 78.7311 285.422 78.0439C284.307 77.3631 283.404 76.3611 282.721 75.0444C282.038 73.7277 281.697 71.9871 281.697 69.8291V50.0853H273.107V42.9238H276.599C277.785 42.9238 278.72 42.8724 279.403 42.7697C280.086 42.6669 280.588 42.4228 280.911 42.0374C281.233 41.6521 281.439 41.0419 281.542 40.2134C281.645 39.3848 281.697 38.2287 281.697 36.7515V30.9902H290.732V42.9238H301.545V50.0853H290.732V67.0994C290.732 68.7821 290.938 70.1374 291.35 71.1586C291.763 72.1798 292.729 72.6936 294.257 72.6936C294.985 72.6936 295.674 72.623 296.325 72.4881C296.976 72.3532 297.459 72.2184 297.782 72.0771V79.1036C297.35 79.2642 296.718 79.4248 295.9 79.5789C295.081 79.7395 294.141 79.8166 293.097 79.8166H293.084Z" fill="#029AF2"/>
<path d="M307.248 79.1358V25.8391H316.244V79.1358H307.248ZM332.974 79.1358V59.4626C332.974 56.4632 332.387 54.1574 331.214 52.5581C330.041 50.9524 328.037 50.1559 325.208 50.1559C323.314 50.1559 321.703 50.5285 320.369 51.2671C319.035 52.0057 318.016 53.0334 317.308 54.3501C316.599 55.6667 316.244 57.1889 316.244 58.9167L312.958 57.1761C312.958 54.2922 313.615 51.7231 314.923 49.488C316.231 47.2464 318.055 45.493 320.382 44.2212C322.708 42.9495 325.376 42.3137 328.385 42.3137C332.787 42.3137 336.151 43.6175 338.477 46.2187C340.803 48.82 341.97 52.4425 341.97 57.0798V79.1422H332.974V79.1358Z" fill="#029AF2"/>
<path d="M352.48 36.2376C351.017 36.2376 349.748 35.8459 348.665 35.0623C347.583 34.2787 347.041 33.1804 347.041 31.7738C347.041 30.3672 347.583 29.3074 348.665 28.5367C349.748 27.7659 351.017 27.3806 352.48 27.3806C353.943 27.3806 355.174 27.7659 356.244 28.5367C357.313 29.3074 357.855 30.3929 357.855 31.7738C357.855 33.1547 357.32 34.2787 356.244 35.0623C355.174 35.8459 353.917 36.2376 352.48 36.2376ZM347.995 79.1358V42.9238H356.888V79.1358H347.995Z" fill="#029AF2"/>
<path d="M376.292 79.8872C373.579 79.8872 371.194 79.4633 369.139 78.6091C367.083 77.7549 365.478 76.5217 364.312 74.9095C363.145 73.2974 362.565 71.3513 362.565 69.0776C362.565 66.5984 363.242 64.5623 364.602 62.9566C365.962 61.3509 367.792 60.1177 370.092 59.2378C372.393 58.3643 374.951 57.7991 377.754 57.5486C381.905 57.1375 384.804 56.7458 386.461 56.3732C388.117 56.0007 388.942 55.3905 388.942 54.5491V54.4785C388.942 52.8856 388.226 51.6589 386.789 50.7982C385.352 49.9375 383.322 49.5008 380.7 49.5008C377.941 49.5008 375.821 49.9825 374.352 50.9524C372.883 51.9158 372.148 53.4444 372.148 55.5383H363.255C363.255 52.6994 364.015 50.2908 365.53 48.3254C367.044 46.36 369.126 44.8635 371.774 43.8423C374.423 42.821 377.419 42.3072 380.77 42.3072C383.896 42.3072 386.757 42.7761 389.361 43.7074C391.958 44.6387 394.045 46.0517 395.624 47.9336C397.203 49.8155 397.983 52.1727 397.983 54.9923V71.499C397.983 72.3661 398.009 73.2075 398.067 74.0425C398.125 74.871 398.241 75.6161 398.428 76.2776C398.653 77.0034 398.93 77.62 399.246 78.121C399.568 78.6219 399.813 78.9624 400 79.1422H391.107C390.946 78.9816 390.727 78.6733 390.437 78.2045C390.153 77.742 389.895 77.1961 389.67 76.5859C389.444 75.9051 389.27 75.1729 389.154 74.3893C389.038 73.6057 388.98 72.7322 388.98 71.7816L390.759 73.0084C390.076 74.3957 389.032 75.6032 387.627 76.6373C386.222 77.6714 384.553 78.4742 382.613 79.0394C380.674 79.6046 378.566 79.8937 376.285 79.8937L376.292 79.8872ZM378.476 72.8285C380.345 72.8285 382.079 72.5074 383.677 71.8715C385.275 71.2357 386.564 70.253 387.543 68.9235C388.523 67.5939 389.013 65.8855 389.013 63.7916V58.9488L391.204 61.4023C389.741 61.9483 387.988 62.3979 385.932 62.7511C383.877 63.1044 381.801 63.3805 379.707 63.5861C377.013 63.8366 374.99 64.299 373.637 64.9863C372.277 65.6671 371.6 66.7847 371.6 68.3261C371.6 69.8676 372.167 70.9531 373.308 71.7045C374.449 72.456 376.169 72.8285 378.476 72.8285Z" fill="#029AF2"/>
<mask id="mask0_1049_58" style="mask-type:luminance" maskUnits="userSpaceOnUse" x="38" y="9" width="24" height="90">
<path d="M43.3182 86.5734V21.4266C43.3182 17.8619 46.2245 14.9588 49.8075 14.9588C53.3905 14.9588 56.2969 17.8619 56.2969 21.4266V86.5734C56.2969 90.1381 53.3841 93.0412 49.8075 93.0412C46.231 93.0412 43.3182 90.1381 43.3182 86.5734ZM38.2788 21.4266V86.5734C38.2788 92.9064 43.4471 98.0575 49.8011 98.0575C56.1551 98.0575 61.3234 92.9064 61.3234 86.5734V21.4266C61.3234 15.0937 56.1551 9.94257 49.8011 9.94257C43.4471 9.94257 38.2788 15.0937 38.2788 21.4266Z" fill="white"/>
</mask>
<g mask="url(#mask0_1049_58)">
<path d="M44.0462 0.000483437L0.00305176 76.0321L55.5662 108.005L99.6093 31.9734L44.0462 0.000483437Z" fill="url(#paint0_linear_1049_58)"/>
</g>
<mask id="mask1_1049_58" style="mask-type:luminance" maskUnits="userSpaceOnUse" x="83" y="9" width="24" height="90">
<path d="M88.2796 86.5734V21.4266C88.2796 17.8619 91.1924 14.9588 94.7689 14.9588C98.3455 14.9588 101.258 17.8619 101.258 21.4266V86.5734C101.258 90.1381 98.3455 93.0412 94.7689 93.0412C91.1924 93.0412 88.2796 90.1381 88.2796 86.5734ZM83.2402 21.4266V86.5734C83.2402 92.9064 88.4085 98.0575 94.7625 98.0575C101.116 98.0575 106.285 92.9064 106.285 86.5734V21.4266C106.285 15.0937 101.116 9.94257 94.7625 9.94257C88.4085 9.94257 83.2402 15.0937 83.2402 21.4266Z" fill="white"/>
</mask>
<g mask="url(#mask1_1049_58)">
<path d="M89.0043 -0.00119503L44.9612 76.0304L100.524 108.003L144.567 31.9717L89.0043 -0.00119503Z" fill="url(#paint1_linear_1049_58)"/>
</g>
<mask id="mask2_1049_58" style="mask-type:luminance" maskUnits="userSpaceOnUse" x="38" y="42" width="69" height="24">
<path d="M43.3182 54.0032C43.3182 50.4385 46.2245 47.5354 49.8075 47.5354H94.7689C98.3455 47.5354 101.258 50.4321 101.258 54.0032C101.258 57.5743 98.3455 60.471 94.7689 60.471H49.8075C46.231 60.471 43.3182 57.5679 43.3182 54.0032ZM49.8011 42.5192C43.4471 42.5192 38.2788 47.6703 38.2788 54.0032C38.2788 60.3361 43.4471 65.4872 49.8011 65.4872H94.7625C101.117 65.4872 106.285 60.3361 106.285 54.0032C106.285 47.6703 101.117 42.5192 94.7625 42.5192H49.8011Z" fill="white"/>
</mask>
<g mask="url(#mask2_1049_58)">
<path d="M55.2792 13.1707L28.3004 59.7442L89.2826 94.8353L116.261 48.2619L55.2792 13.1707Z" fill="url(#paint2_linear_1049_58)"/>
</g>
<mask id="mask3_1049_58" style="mask-type:luminance" maskUnits="userSpaceOnUse" x="38" y="9" width="24" height="90">
<path d="M43.3182 86.5734V21.4266C43.3182 17.8619 46.2245 14.9588 49.8075 14.9588C53.3905 14.9588 56.2969 17.8619 56.2969 21.4266V86.5734C56.2969 90.1381 53.3841 93.0412 49.8075 93.0412C46.231 93.0412 43.3182 90.1381 43.3182 86.5734ZM38.2788 21.4266V86.5734C38.2788 92.9064 43.4471 98.0575 49.8011 98.0575C56.1551 98.0575 61.3234 92.9064 61.3234 86.5734V21.4266C61.3234 15.0937 56.1551 9.94257 49.8011 9.94257C43.4471 9.94257 38.2788 15.0937 38.2788 21.4266Z" fill="white"/>
</mask>
<g mask="url(#mask3_1049_58)">
<path d="M44.0462 0.000483437L0.00305176 76.0321L55.5662 108.005L99.6093 31.9734L44.0462 0.000483437Z" fill="url(#paint3_linear_1049_58)"/>
</g>
<mask id="mask4_1049_58" style="mask-type:luminance" maskUnits="userSpaceOnUse" x="83" y="9" width="24" height="90">
<path d="M88.2796 86.5734V21.4266C88.2796 17.8619 91.1924 14.9588 94.7689 14.9588C98.3455 14.9588 101.258 17.8619 101.258 21.4266V86.5734C101.258 90.1381 98.3455 93.0412 94.7689 93.0412C91.1924 93.0412 88.2796 90.1381 88.2796 86.5734ZM83.2402 21.4266V86.5734C83.2402 92.9064 88.4085 98.0575 94.7625 98.0575C101.116 98.0575 106.285 92.9064 106.285 86.5734V21.4266C106.285 15.0937 101.116 9.94257 94.7625 9.94257C88.4085 9.94257 83.2402 15.0937 83.2402 21.4266Z" fill="white"/>
</mask>
<g mask="url(#mask4_1049_58)">
<path d="M89.0043 -0.00119503L44.9612 76.0304L100.524 108.003L144.567 31.9717L89.0043 -0.00119503Z" fill="url(#paint4_linear_1049_58)"/>
</g>
<mask id="mask5_1049_58" style="mask-type:luminance" maskUnits="userSpaceOnUse" x="38" y="42" width="69" height="24">
<path d="M49.8011 42.5192C43.4471 42.5192 38.2788 47.6703 38.2788 54.0032C38.2788 60.3361 43.4471 65.4872 49.8011 65.4872H56.2904V60.471H49.8011C46.2245 60.471 43.3118 57.5679 43.3118 54.0032C43.3118 50.4385 46.2181 47.5354 49.8011 47.5354H83.2402V42.5192H49.8011ZM88.2796 42.5192V47.5354H94.769C98.3455 47.5354 101.258 50.4321 101.258 54.0032C101.258 57.5743 98.3455 60.471 94.769 60.471H61.3298V65.4872H94.769C101.123 65.4872 106.291 60.3361 106.291 54.0032C106.291 47.6703 101.123 42.5192 94.769 42.5192H88.2796Z" fill="white"/>
</mask>
<g mask="url(#mask5_1049_58)">
<path d="M55.2792 13.1707L28.3004 59.7442L89.2826 94.8353L116.261 48.2619L55.2792 13.1707Z" fill="url(#paint5_linear_1049_58)"/>
</g>
<defs>
<linearGradient id="paint0_linear_1049_58" x1="70.014" y1="19.8723" x2="30.3902" y2="88.7314" gradientUnits="userSpaceOnUse">
<stop stop-color="#00F09E"/>
<stop offset="0.16" stop-color="#00F09E"/>
<stop offset="0.31" stop-color="#00EAA4"/>
<stop offset="0.52" stop-color="#01DAB8"/>
<stop offset="0.76" stop-color="#02C0D8"/>
<stop offset="1" stop-color="#04A2FD"/>
</linearGradient>
<linearGradient id="paint1_linear_1049_58" x1="74.6307" y1="88.1446" x2="114.255" y2="19.2855" gradientUnits="userSpaceOnUse">
<stop stop-color="#00F09E"/>
<stop offset="0.14" stop-color="#00E8A6"/>
<stop offset="0.35" stop-color="#01D5BD"/>
<stop offset="0.62" stop-color="#02B6E3"/>
<stop offset="0.78" stop-color="#04A2FD"/>
<stop offset="1" stop-color="#04A2FD"/>
</linearGradient>
<linearGradient id="paint2_linear_1049_58" x1="60.4109" y1="73.382" x2="83.0586" y2="34.0244" gradientUnits="userSpaceOnUse">
<stop stop-color="#00F09E"/>
<stop offset="0.16" stop-color="#00F09E"/>
<stop offset="0.24" stop-color="#00EAA4"/>
<stop offset="0.36" stop-color="#01DAB8"/>
<stop offset="0.49" stop-color="#02C0D8"/>
<stop offset="0.62" stop-color="#04A2FD"/>
<stop offset="1" stop-color="#04A2FD"/>
</linearGradient>
<linearGradient id="paint3_linear_1049_58" x1="70.014" y1="19.8723" x2="30.3902" y2="88.7314" gradientUnits="userSpaceOnUse">
<stop stop-color="#00F09E"/>
<stop offset="0.16" stop-color="#00F09E"/>
<stop offset="0.31" stop-color="#00EAA4"/>
<stop offset="0.52" stop-color="#01DAB8"/>
<stop offset="0.76" stop-color="#02C0D8"/>
<stop offset="1" stop-color="#04A2FD"/>
</linearGradient>
<linearGradient id="paint4_linear_1049_58" x1="74.6307" y1="88.1446" x2="114.255" y2="19.2855" gradientUnits="userSpaceOnUse">
<stop stop-color="#00F09E"/>
<stop offset="0.14" stop-color="#00E8A6"/>
<stop offset="0.35" stop-color="#01D5BD"/>
<stop offset="0.62" stop-color="#02B6E3"/>
<stop offset="0.78" stop-color="#04A2FD"/>
<stop offset="1" stop-color="#04A2FD"/>
</linearGradient>
<linearGradient id="paint5_linear_1049_58" x1="60.4109" y1="73.382" x2="83.0586" y2="34.0244" gradientUnits="userSpaceOnUse">
<stop stop-color="#00F09E"/>
<stop offset="0.16" stop-color="#00F09E"/>
<stop offset="0.24" stop-color="#00EAA4"/>
<stop offset="0.36" stop-color="#01DAB8"/>
<stop offset="0.49" stop-color="#02C0D8"/>
<stop offset="0.62" stop-color="#04A2FD"/>
<stop offset="1" stop-color="#04A2FD"/>
</linearGradient>
</defs>
</svg>
