<svg width="313" height="437" viewBox="0 0 313 437" fill="none" xmlns="http://www.w3.org/2000/svg">
<g clip-path="url(#clip0_664_581)">
<g style="mix-blend-mode:multiply">
<path d="M84.6514 437C131.403 437 169.303 430.934 169.303 423.451C169.303 415.969 131.403 409.903 84.6514 409.903C37.8997 409.903 0 415.969 0 423.451C0 430.934 37.8997 437 84.6514 437Z" fill="#B8D0DE"/>
</g>
<g style="mix-blend-mode:multiply">
<path d="M256.05 432.129C287.502 432.129 313 427.154 313 421.016C313 414.878 287.502 409.903 256.05 409.903C224.597 409.903 199.099 414.878 199.099 421.016C199.099 427.154 224.597 432.129 256.05 432.129Z" fill="#B8D0DE"/>
</g>
<path d="M221.094 147.108C213.724 158.645 190.636 152.477 184.731 146.966C177.443 140.175 182.354 133.683 182.354 133.683L204.416 131.073C204.416 131.073 228.473 135.562 221.102 147.099L221.094 147.108Z" fill="#D1E3EE"/>
<path d="M245.988 412.28C240.911 414.823 226.725 423.368 223.065 423.884C219.405 424.399 214.643 424.864 212.391 423.884C211.132 423.335 210.66 418.29 215.264 416.619L220.713 414.25L232.953 403.344L245.913 404.325C245.913 404.325 249.706 410.418 245.98 412.288L245.988 412.28Z" fill="#454F56"/>
<path d="M247.304 55.7908C247.304 64.4104 248.671 72.3984 256.878 72.3984C265.084 72.3984 273.73 68.6995 277.018 60.7282C282.964 46.3316 270.161 23.1492 269.018 18.4113C267.031 10.2073 247.313 47.1712 247.313 55.7908H247.304Z" fill="#0D3857"/>
<path d="M225.069 60.7283C228.937 68.4253 242.385 70.9688 249.772 67.3863C257.159 63.8037 262.26 59.0575 258.526 51.294C255.66 45.3426 250.957 45.4756 246.576 39.7402C239.802 30.8629 236.067 20.4479 232.978 16.6825C227.628 10.1658 217.823 46.3317 225.069 60.72V60.7283Z" fill="#0D3857"/>
<path d="M226.063 156.592C226.063 156.592 218.013 170.971 214.096 210.554C210.171 250.194 228.837 402.073 229.226 403.344C231.777 407.766 247.296 407.243 249.863 404.309C250.112 402.472 246.998 229.846 251.735 229.73H257.052C257.052 229.73 239.727 178.71 226.063 156.583V156.592Z" fill="#258EC7"/>
<path d="M267.345 412.28C272.422 414.823 286.608 423.368 290.268 423.884C293.928 424.399 298.69 424.864 300.942 423.884C302.201 423.335 302.673 418.29 298.069 416.619L292.62 414.25L280.38 403.344L267.42 404.325C267.42 404.325 263.627 410.418 267.353 412.288L267.345 412.28Z" fill="#454F56"/>
<path d="M226.063 156.592H278.335C278.335 156.592 290.409 168.204 298.019 211.767C305.63 255.331 284.487 402.081 284.09 403.353C281.548 407.775 266.02 407.251 263.453 404.317C263.205 402.48 258.484 229.854 253.747 229.738H248.431C248.431 229.738 225.798 185.027 226.055 156.592H226.063Z" fill="#258EC7"/>
<path d="M226.063 167.065C221.583 161.163 219.645 112.671 219.239 99.5624C218.833 86.4542 222.759 71.1184 226.063 68.5001C229.367 65.8818 243.719 60.72 243.719 60.72H261.656C261.656 60.72 276.148 63.0806 281.142 68.1925C286.135 73.2962 286.889 81.7413 286.889 100.618C286.889 119.495 282.583 161.953 278.334 167.065C274.086 172.177 230.543 172.966 226.063 167.065Z" fill="#9AC7E0"/>
<path d="M249.275 230.727C243.338 230.727 238.485 229.796 238.427 229.78C238.112 229.721 237.897 229.406 237.963 229.09C238.021 228.774 238.336 228.558 238.651 228.624C238.733 228.641 247.321 230.287 255.536 229.14C255.859 229.098 256.157 229.322 256.199 229.647C256.24 229.971 256.016 230.27 255.693 230.312C253.524 230.611 251.329 230.727 249.267 230.727H249.275Z" fill="#006AA5"/>
<path d="M247.081 115.189C247.503 90.7931 261.656 60.7283 261.656 60.7283C261.656 60.7283 276.148 63.0889 281.142 68.2008C286.136 73.3045 286.889 81.7496 286.889 100.626C286.889 113.352 288.272 121.074 286.889 131.09C285.506 141.139 285.059 154.331 288.421 162.526C294.4 177.073 307.791 207.753 305.257 275.579C305.033 281.556 256.414 288.945 254.327 286.061C252.24 283.177 246.518 147.906 247.081 115.197V115.189Z" fill="#D1E3EE"/>
<path d="M248.091 122.529C247.768 122.529 247.503 122.263 247.503 121.938C247.503 121.739 247.52 116.959 248.928 110.451C250.228 104.433 253.027 95.7886 258.948 88.7649C260.049 87.4599 258.186 81.6165 256.513 77.876L256.232 77.2526L256.894 77.0698C259.776 76.2718 264.082 74.7174 264.637 73.7699C265.126 72.9387 263.809 67.4194 262.302 62.7896C262.202 62.482 262.368 62.1496 262.675 62.0498C262.981 61.9501 263.312 62.1163 263.412 62.4239C264.182 64.8011 266.633 72.6976 265.639 74.3766C264.761 75.8645 259.859 77.4272 257.847 78.0257C258.915 80.511 261.623 87.4183 259.834 89.5379C248.803 102.638 248.663 121.756 248.663 121.947C248.663 122.271 248.398 122.537 248.075 122.537L248.091 122.529Z" fill="#A8CBDE"/>
<path d="M228.845 110.726C230.8 72.8972 243.694 60.7283 243.694 60.7283C243.694 60.7283 229.202 63.0889 224.208 68.2008C219.214 73.3045 218.461 81.7496 218.461 100.626C218.461 114.266 216.448 137.416 215.662 169.143C214.991 196.481 206.519 239.397 209.136 276.627C209.558 282.586 222.651 286.501 224.73 283.617C226.817 280.733 227.231 141.763 228.837 110.734L228.845 110.726Z" fill="#D1E3EE"/>
<path d="M220.63 145.536C226.055 142.129 226.063 106.411 226.063 106.411C226.063 106.411 232.382 64.3439 225.98 66.7378C213.227 71.5173 203.695 129.752 203.952 136.834C204.217 143.907 215.206 148.944 220.63 145.536Z" fill="#D1E3EE"/>
<path d="M216.399 148.662C216.399 148.662 216.382 148.662 216.374 148.662C216.051 148.645 215.802 148.371 215.811 148.047C215.918 145.744 218.428 91.5495 220.051 82.7803C220.109 82.4644 220.415 82.2483 220.738 82.3065C221.061 82.3647 221.268 82.6722 221.21 82.9964C219.595 91.6825 217.012 147.54 216.987 148.105C216.97 148.421 216.713 148.67 216.399 148.67V148.662Z" fill="#A8CBDE"/>
<path d="M227.421 116.278C227.098 116.278 226.833 116.012 226.841 115.679C226.932 105.904 226.667 89.7956 225.583 88.183C224.738 86.9279 225.641 84.7917 228.415 81.4752C229.814 79.8044 231.297 78.3166 232.017 77.6183C231.115 76.6874 229.019 74.4681 228.257 73.188C227.852 72.4981 227.893 71.376 233.541 66.6963C236.39 64.3356 239.388 62.1412 239.421 62.1163C239.686 61.9251 240.05 61.9833 240.241 62.2493C240.431 62.5153 240.373 62.881 240.108 63.0722C240.083 63.0888 237.342 65.092 234.634 67.3197C229.847 71.2513 229.351 72.415 229.301 72.6477C230.228 74.1605 233.235 77.1861 233.268 77.2111L233.698 77.6433L233.251 78.0589C229.4 81.6747 225.74 86.3211 226.552 87.5181C228.199 89.9618 228.034 113.061 228.009 115.688C228.009 116.012 227.744 116.27 227.421 116.27V116.278Z" fill="#A8CBDE"/>
<path d="M276.364 233.329C275.867 233.329 275.362 233.304 274.856 233.254C271.072 232.888 267.925 231.06 265.755 227.976C263.801 225.183 262.815 202.948 262.708 200.421L262.683 199.831L279.56 199.233C279.883 199.216 280.156 199.474 280.165 199.798C280.173 200.122 279.925 200.396 279.602 200.405L263.908 200.962C264.339 210.753 265.407 225.432 266.716 227.294C268.703 230.129 271.486 231.733 274.972 232.074C279.27 232.489 283.56 230.752 284.653 229.705C290.284 224.302 286.359 204.311 286.318 204.104C286.251 203.788 286.458 203.472 286.781 203.405C287.096 203.339 287.411 203.547 287.477 203.871C287.651 204.719 291.568 224.701 285.473 230.553C284.405 231.575 280.695 233.321 276.372 233.321L276.364 233.329Z" fill="#A8CBDE"/>
<path d="M303.22 202.998C300.578 211.227 295.941 215.591 295.336 216.397C294.814 217.104 293.365 216.638 293.771 215.765C294.392 214.436 297.166 208.95 297.166 208.95C297.166 208.95 293.026 215.807 292.09 217.262C291.154 218.716 288.91 217.528 289.829 215.998C290.955 214.128 295.03 207.229 295.03 207.229C295.03 207.229 289.067 215.192 288.198 216.356C287.328 217.519 284.496 216.164 285.887 214.236C287.27 212.316 292.612 204.594 292.612 204.594C292.612 204.594 287.063 210.72 285.887 212.042C284.711 213.355 282.368 211.817 283.9 209.723C285.432 207.628 290.45 200.97 290.45 200.97L291.982 196.731C291.982 196.731 290.202 197.969 288.545 199.374C287.055 200.646 284.628 197.953 286.848 195.974C289.059 194.004 292.156 192.442 293.672 186.648C299.154 165.668 289.415 129.411 289.415 129.411L308.528 120.368C308.528 120.368 314.814 166.899 303.22 203.015V202.998Z" fill="#F7BA98"/>
<path d="M291.634 185.393C291.634 182.883 291.477 150.491 289.547 136.892C285.63 109.362 274.509 100.817 274.509 100.817C274.509 100.817 270.898 63.1221 277.299 65.516C285.051 68.4003 302.433 85.5398 309.721 118.547C316.702 150.183 310.872 186.756 307.568 189.591C304.263 192.433 291.626 187.912 291.634 185.401V185.393Z" fill="#D1E3EE"/>
<path d="M285.051 118.846C284.753 118.846 284.504 118.622 284.471 118.323C284.454 118.173 282.748 103.569 280.363 99.5707C280.198 99.2881 280.289 98.9307 280.562 98.7644C280.844 98.5982 281.2 98.6896 281.366 98.9639C283.883 103.186 285.564 117.583 285.63 118.19C285.672 118.514 285.44 118.805 285.117 118.846C285.092 118.846 285.067 118.846 285.051 118.846Z" fill="#A8CBDE"/>
<path d="M291.833 184.595C291.585 184.595 291.361 184.437 291.278 184.196C289.879 180.032 290.549 169.542 290.583 169.101C290.607 168.777 290.889 168.528 291.204 168.553C291.527 168.578 291.775 168.852 291.75 169.176C291.75 169.284 291.063 179.874 292.388 183.822C292.496 184.13 292.33 184.462 292.015 184.57C291.949 184.595 291.891 184.603 291.825 184.603L291.833 184.595Z" fill="#A8CBDE"/>
<path d="M259.776 42.2422C260.323 36.0912 243.727 46.3317 243.727 46.3317V60.7283C243.727 60.7283 234.733 68.9905 241.135 72.3984C247.536 75.8064 260.936 60.7283 260.936 60.7283C260.936 60.7283 259.23 48.3931 259.776 42.2422Z" fill="#F7BA98"/>
<path d="M234.609 52.5159C237.723 54.4942 243.189 54.8017 246.518 54.17C253.068 52.9232 259.461 45.1098 259.461 45.1098C259.461 45.1098 259.412 41.1533 262.053 34.462C264.795 27.4882 266.534 30.1148 265.954 21.9689C265.217 11.7118 243.967 5.86011 243.967 5.86011L233.168 7.59734C233.168 7.59734 229.93 16.7074 229.897 24.82C229.864 32.9326 226.278 47.2377 234.601 52.5242L234.609 52.5159Z" fill="#F7BA98"/>
<path d="M268.761 17.2809C265.333 5.14525 256.339 1.15545 245.151 0.0831868C233.963 -0.989073 225.301 8.99375 225.077 12.4266C224.854 15.8595 229.93 23.5648 229.93 23.5648C229.93 23.5648 228.804 13.9727 237.201 12.435C243.859 23.5482 256.447 26.3411 256.447 26.3411C256.447 26.3411 257.805 30.5304 257.838 32.3674C257.888 35.3098 261.557 37.5957 262.426 35.0438C263.296 32.4837 270.442 23.2074 268.77 17.2726L268.761 17.2809Z" fill="#0D3857"/>
<path d="M257.83 32.3756C254.849 32.8245 259.561 36.6564 261.797 36.2823C263.403 36.008 265.142 33.8386 265.142 30.8047C265.142 27.4715 263.014 26.1083 261.416 26.3743C258.625 26.8398 259.867 32.0598 257.83 32.3673V32.3756Z" fill="#F7BA98"/>
<path d="M246.518 28.7433C246.518 29.7324 246.874 30.5304 247.305 30.5304C247.735 30.5304 248.091 29.7324 248.091 28.7433C248.091 27.7541 247.735 26.9562 247.305 26.9562C246.874 26.9562 246.518 27.7541 246.518 28.7433Z" fill="#392E39"/>
<path d="M250.46 24.928C248.646 23.4651 245.267 23.4568 245.267 23.1825C245.267 22.9082 244.994 21.8608 245.243 21.6863C245.491 21.5117 249.532 22.717 250.708 24.2132C251.023 24.6121 250.957 25.3187 250.46 24.928Z" fill="#0D3857"/>
<path d="M234.609 28.7433C234.609 29.7324 234.261 30.5304 233.823 30.5304C233.384 30.5304 233.036 29.7324 233.036 28.7433C233.036 27.7541 233.392 26.9562 233.823 26.9562C234.253 26.9562 234.609 27.7541 234.609 28.7433Z" fill="#392E39"/>
<path d="M231.28 24.6703C233.094 23.2157 235.851 23.4567 235.851 23.1824C235.851 22.9081 236.125 21.8608 235.876 21.6863C235.628 21.5117 232.158 22.5258 230.982 24.022C230.667 24.4209 230.792 25.0693 231.289 24.6703H231.28Z" fill="#0D3857"/>
<path d="M238.212 34.2958C238.112 34.2958 238.013 34.2625 237.922 34.2044C237.69 34.0464 237.64 33.7306 237.798 33.4978C237.814 33.4729 239.677 30.705 239.164 26.2996C239.131 26.0253 239.33 25.7676 239.611 25.7343C239.884 25.7011 240.141 25.9006 240.174 26.1832C240.737 30.9959 238.717 33.955 238.634 34.0797C238.535 34.221 238.377 34.2958 238.22 34.2958H238.212Z" fill="#E9A37C"/>
<path d="M243.503 54.6272C243.031 54.6272 242.733 54.6022 242.684 54.5939C242.402 54.569 242.203 54.3196 242.228 54.037C242.253 53.7544 242.51 53.5549 242.783 53.5798C242.824 53.5798 247.296 53.9705 249.954 51.3605C250.153 51.161 250.476 51.1693 250.667 51.3605C250.865 51.56 250.857 51.8842 250.667 52.0753C248.381 54.3362 245.044 54.6188 243.512 54.6188L243.503 54.6272Z" fill="#E9A37C"/>
<path d="M230.228 33.6141C230.286 34.4287 231.595 34.994 233.143 34.8776C234.692 34.7612 235.901 34.0131 235.843 33.1985C235.785 32.384 234.477 31.8187 232.928 31.9351C231.38 32.0515 230.17 32.7996 230.228 33.6141Z" fill="#F3A28D"/>
<path d="M243.288 34.2791C243.114 35.21 244.423 36.2407 246.203 36.5732C247.984 36.9057 249.574 36.4153 249.747 35.4843C249.921 34.5534 248.613 33.5227 246.832 33.1902C245.052 32.8577 243.462 33.3481 243.288 34.2791Z" fill="#F3A28D"/>
<path d="M233.789 42.2255C233.789 43.2479 235.76 46.3982 237.723 46.4148C239.686 46.4315 242.195 43.8713 242.203 42.8489C242.212 41.8266 239.876 40.2805 237.922 40.2639C235.967 40.2473 233.806 41.1948 233.798 42.2172L233.789 42.2255Z" fill="#F3A28D"/>
<path d="M242.634 41.5854C242.634 41.5854 242.286 44.9518 238.021 45.1347C233.756 45.3176 233.632 41.3361 233.632 41.3361L242.634 41.5854Z" fill="white"/>
<path d="M239.76 35.3348C239.611 35.3348 239.462 35.2683 239.363 35.1353C239.015 34.6782 238.617 34.4205 238.187 34.3623C237.466 34.2709 236.837 34.7613 236.829 34.7613C236.613 34.9358 236.29 34.8943 236.116 34.6782C235.943 34.462 235.976 34.1462 236.199 33.9716C236.241 33.9384 237.152 33.2152 238.303 33.3565C239.015 33.4397 239.644 33.8386 240.166 34.5202C240.34 34.7447 240.29 35.0605 240.075 35.2351C239.984 35.3016 239.876 35.3431 239.768 35.3431L239.76 35.3348Z" fill="#E9A37C"/>
<path d="M273.49 104.641H257.052V108.764H273.49V104.641Z" fill="#A8CBDE"/>
<path d="M165.523 107.819L162.63 111.678L214.39 150.77L217.283 146.911L165.523 107.819Z" fill="#454F56"/>
<path d="M183.687 141.605C180.234 137.407 182.594 135.471 182.354 133.692C182.114 131.913 180.897 125.945 182.222 124.839C184.085 123.293 187.778 123.102 187.778 123.102C187.778 123.102 190.056 120.293 192.126 120.018C193.898 119.786 194.271 122.612 194.271 122.612C194.271 122.612 195.869 121.473 197.095 122.67C198.321 123.867 197.352 125.313 197.352 125.313C197.352 125.313 199.364 124.349 200.407 126.02C201.111 127.15 199.248 128.763 199.248 128.763C199.248 128.763 200.896 128.164 201.451 129.694C201.923 130.982 198.801 134.008 195.977 136.51C194.478 137.84 193.062 140.292 193.062 140.292C193.062 140.292 195.364 143.575 193.103 146.326C191.174 148.678 185.7 144.04 183.704 141.605H183.687Z" fill="#F7BA98"/>
<path d="M208.879 135.379C208.697 135.379 208.507 135.288 208.399 135.13C207.016 133.127 205.616 131.88 204.258 131.423C203.952 131.314 203.786 130.982 203.886 130.674C203.993 130.367 204.325 130.201 204.631 130.3C206.238 130.841 207.828 132.245 209.368 134.456C209.55 134.722 209.484 135.088 209.219 135.279C209.119 135.354 209.003 135.387 208.888 135.387L208.879 135.379Z" fill="#A8CBDE"/>
<path d="M50.0687 415.605C44.9923 418.148 30.8064 426.693 27.1461 427.2C23.4858 427.715 18.724 428.189 16.4715 427.2C15.2127 426.651 14.7407 421.614 19.3451 419.935L24.7942 417.566L37.034 406.661L49.9942 407.642C49.9942 407.642 53.787 413.726 50.0605 415.605H50.0687Z" fill="#454F56"/>
<path d="M107.491 204.428H40.3548C29.7961 249.255 32.9265 405.389 33.3157 406.661C35.8663 411.075 51.3855 410.551 53.9527 407.625C54.2011 405.788 76.1631 243.877 80.8918 243.76H86.2084C86.2084 243.76 107.748 232.855 107.491 204.428Z" fill="#283270"/>
<path d="M113.744 415.605C118.82 418.148 133.006 426.693 136.666 427.2C140.327 427.715 145.088 428.189 147.341 427.2C148.6 426.651 149.072 421.614 144.467 419.935L139.018 417.566L126.778 406.661L113.818 407.642C113.818 407.642 110.025 413.726 113.752 415.605H113.744Z" fill="#454F56"/>
<path d="M56.3211 204.428H123.458C134.016 249.255 130.886 405.389 130.497 406.661C127.946 411.075 112.427 410.551 109.86 407.625C109.611 405.788 87.6493 243.877 82.9207 243.76H77.6041C77.6041 243.76 56.0644 232.855 56.3211 204.428Z" fill="#283270"/>
<path d="M38.0195 210.229C48.7769 215.516 120.029 212.773 125.255 206.348C130.48 199.922 124.004 114.998 124.004 114.998C124.004 114.998 121.313 75.8396 118.009 73.2129C114.704 70.5946 91.5333 64.0364 91.5333 64.0364H71.4097C71.4097 64.0364 50.4663 69.3644 45.4727 74.4764C40.479 79.58 41.0008 118.655 41.0008 118.655C41.0008 118.655 33.6884 208.085 38.0361 210.229H38.0195Z" fill="#F5F5F5"/>
<path d="M66.4574 65.757C59.3935 67.7352 48.7106 71.1515 45.4643 74.4763C40.4707 79.58 40.9924 118.655 40.9924 118.655C40.9924 118.655 38.4335 149.983 37.241 176C36.4212 193.938 27.0633 322.7 28.8438 323.581C32.6366 325.452 46.4995 329.816 59.8075 329.874C59.8075 329.874 70.9459 154.538 70.0515 130.982C69.1571 107.425 66.4657 65.7653 66.4657 65.7653L66.4574 65.757Z" fill="#D1E3EE"/>
<path d="M84.1794 244.658C82.3575 244.658 80.5771 244.567 78.9456 244.342C78.6227 244.301 78.3991 244.002 78.4405 243.677C78.4819 243.353 78.78 243.129 79.103 243.17C87.3263 244.317 100.137 241.84 100.262 241.816C100.576 241.749 100.891 241.965 100.949 242.281C101.015 242.597 100.8 242.913 100.485 242.971C100.055 243.054 91.7734 244.658 84.1711 244.658H84.1794Z" fill="#29225C"/>
<path d="M126.431 229.53C126.356 229.53 126.282 229.514 126.215 229.489C120.609 227.236 113.711 220.528 111.367 212.058C111.284 211.742 111.466 211.418 111.773 211.335C112.087 211.252 112.41 211.435 112.493 211.742C114.729 219.838 121.304 226.247 126.638 228.391C126.936 228.516 127.085 228.857 126.969 229.156C126.878 229.389 126.654 229.53 126.422 229.53H126.431Z" fill="#29225C"/>
<path d="M36.6365 235.299C36.4046 235.299 36.1811 235.157 36.09 234.925C35.9657 234.625 36.1148 234.276 36.4212 234.16C38.8062 233.204 43.3609 230.752 47.0461 225.116C47.7417 223.986 49.4891 209.939 50.4746 200.97L37.5143 198.393C37.1997 198.327 36.9926 198.019 37.0506 197.703C37.1086 197.387 37.4232 197.179 37.7379 197.238L51.7499 200.022L51.6919 200.563C51.2696 204.486 49.0916 224.136 48.0233 225.765C44.1559 231.675 39.3694 234.251 36.8518 235.257C36.7773 235.282 36.7028 235.299 36.6365 235.299Z" fill="#A8CBDE"/>
<path d="M87.9806 89.6044H81.9601L79.8732 80.0704L83.9973 74.7922L89.4381 80.0704L87.9806 89.6044Z" fill="#4B9DCE"/>
<path d="M99.0526 66.0895L90.9452 83.6529L83.9972 74.7922L91.5249 64.0447L99.0526 66.0895Z" fill="#F5F5F5"/>
<path d="M66.0269 66.0895L78.8629 84.7584L83.9973 74.7922L71.4014 64.0447L66.0269 66.0895Z" fill="#F5F5F5"/>
<path d="M98.2659 163.923C97.4046 168.445 88.8169 183.323 86.9453 183.057C85.0655 182.791 78.0181 167.854 77.0326 163.923C76.0554 159.991 81.96 89.6044 81.96 89.6044L84.7839 85.8058L87.9805 89.6044C87.9805 89.6044 99.1271 159.401 98.2659 163.923Z" fill="#4B9DCE"/>
<path d="M68.6106 136.792C68.3621 136.792 68.1385 136.634 68.0557 136.393C67.9812 136.16 60.2133 112.97 59.054 109.869C57.9277 106.852 62.0104 98.3653 63.1532 96.0961C61.8365 95.1735 57.9277 92.2892 56.7269 89.8786C55.2943 87.0027 59.8821 70.8356 60.4121 68.9987C60.5032 68.6828 60.8262 68.5083 61.1409 68.5997C61.4555 68.6911 61.6294 69.0153 61.5384 69.3312C59.5922 76.0889 56.8511 87.4931 57.7786 89.355C59.0622 91.9317 64.1884 95.3896 64.2381 95.4228L64.677 95.7137L64.4368 96.1792C62.9462 99.0718 59.2693 107.085 60.1554 109.462C61.323 112.579 69.0992 135.786 69.1737 136.027C69.2731 136.335 69.1075 136.667 68.8011 136.775C68.7348 136.8 68.6768 136.809 68.6106 136.809V136.792Z" fill="#A8CBDE"/>
<path d="M99.0444 65.757C106.108 67.7352 116.791 71.1515 120.037 74.4763C125.031 79.58 124.518 118.655 124.518 118.655C124.518 118.655 127.077 149.983 128.269 176C129.089 193.938 138.447 322.7 136.666 323.581C132.865 325.452 119.011 329.816 105.703 329.874C105.703 329.874 94.5642 154.538 95.4586 130.982C96.353 107.425 99.0444 65.7653 99.0444 65.7653V65.757Z" fill="#D1E3EE"/>
<path d="M128.865 235.299C128.791 235.299 128.716 235.282 128.65 235.257C126.141 234.251 121.346 231.675 117.479 225.765C116.41 224.136 114.232 204.478 113.81 200.563L113.752 200.022L127.764 197.238C128.087 197.171 128.393 197.379 128.451 197.703C128.518 198.019 128.31 198.335 127.988 198.393L115.027 200.97C116.013 209.939 117.752 223.994 118.456 225.116C122.141 230.752 126.696 233.204 129.081 234.16C129.379 234.285 129.528 234.626 129.412 234.925C129.321 235.158 129.097 235.299 128.865 235.299Z" fill="#A8CBDE"/>
<path d="M96.8912 136.792C96.8332 136.792 96.7669 136.784 96.7007 136.759C96.3943 136.659 96.2286 136.318 96.328 136.011C96.4026 135.778 104.179 112.571 105.346 109.445C106.232 107.068 102.556 99.047 101.065 96.1627L100.825 95.6972L101.264 95.4063C101.313 95.3731 106.439 91.9235 107.723 89.3385C108.651 87.4849 105.909 76.0724 103.963 69.3146C103.872 68.9988 104.054 68.6746 104.361 68.5832C104.676 68.4917 104.999 68.6746 105.09 68.9822C105.62 70.8191 110.207 86.9862 108.775 89.8621C107.574 92.281 103.665 95.1569 102.349 96.0796C103.491 98.3571 107.574 106.844 106.448 109.853C105.288 112.953 97.5205 136.144 97.446 136.377C97.3632 136.626 97.1313 136.776 96.8912 136.776V136.792Z" fill="#A8CBDE"/>
<path d="M118.762 159.268C119.118 160.997 118.116 162.676 116.534 163.008L87.2849 169.085C85.7031 169.409 84.1214 168.27 83.7653 166.541L75.0286 124.158C74.6725 122.429 75.6745 120.75 77.2562 120.426L106.506 114.349C108.088 114.017 109.669 115.164 110.025 116.893L118.762 159.276V159.268Z" fill="#454F56"/>
<path d="M84.9412 155.993C76.3701 155.145 71.1363 151.513 70.2337 151.097C69.4304 150.732 69.5794 149.219 70.5152 149.427C71.9479 149.751 77.869 151.313 77.869 151.313C77.869 151.313 70.3165 148.703 68.7016 148.088C67.095 147.482 67.7741 145.021 69.4552 145.603C71.5173 146.309 79.0947 148.853 79.0947 148.853C79.0947 148.853 70.0763 144.68 68.7679 144.082C67.4511 143.475 68.1716 140.408 70.3413 141.364C72.511 142.32 81.1567 145.919 81.1567 145.919C81.1567 145.919 74.0099 141.771 72.4779 140.898C70.9458 140.026 71.9479 137.399 74.3163 138.463C76.6848 139.519 84.2291 143.035 84.2291 143.035L88.6844 143.641C88.6844 143.641 87.1027 142.153 85.3884 140.824C83.8398 139.627 85.9433 136.676 88.3366 138.438C90.7216 140.192 92.8996 142.902 98.8621 143.159C108.477 143.575 130.083 138.529 130.083 138.529L138.985 152.103C138.985 152.103 101.413 157.622 84.9412 155.985V155.993Z" fill="#F7BA98"/>
<path d="M101.388 164.322C100.394 160.532 96.767 148.354 98.8456 143.168C99.4998 141.538 128.857 134.44 128.857 134.44L116.145 111.956C116.145 111.956 105.587 68.7161 118 73.2213C129.727 77.4688 167.183 132.628 161.311 147.49C155.432 162.344 102.382 168.12 101.388 164.33V164.322Z" fill="#D1E3EE"/>
<path d="M103.284 166.134C102.97 166.134 102.705 165.876 102.696 165.56C102.688 165.236 102.945 164.962 103.268 164.954C109.951 164.779 122.836 163.324 127.449 162.219C127.764 162.144 128.079 162.335 128.161 162.659C128.236 162.975 128.045 163.291 127.722 163.374C122.961 164.521 110.183 165.968 103.301 166.142C103.301 166.142 103.293 166.142 103.284 166.142V166.134Z" fill="#A8CBDE"/>
<path d="M115.433 138.488C115.168 138.488 114.936 138.313 114.862 138.047C114.779 137.731 114.969 137.407 115.284 137.332L127.946 134.074C126.273 131.24 120.12 119.935 117.503 102.779C117.454 102.455 117.677 102.156 117.992 102.106C118.315 102.056 118.613 102.28 118.663 102.596C121.644 122.18 129.271 133.999 129.346 134.116L129.801 134.806L115.574 138.471C115.524 138.488 115.474 138.488 115.425 138.488H115.433Z" fill="#A8CBDE"/>
<path d="M78.9291 85.8972L68.2793 70.4035C68.0971 70.1375 68.1634 69.7718 68.4284 69.5806C68.6934 69.3977 69.0578 69.4642 69.2482 69.7302L78.7883 83.6031L83.8896 73.7034L90.8045 82.5308L96.5848 70.0128C96.7256 69.7136 97.0734 69.5889 97.3632 69.7219C97.6614 69.8632 97.7856 70.2123 97.6531 70.5032L91.0695 84.7585L84.0966 75.8645L78.9291 85.8889V85.8972Z" fill="#A8CBDE"/>
<path d="M91.5249 64.0447L83.9972 74.7923L71.4014 64.0447L72.4034 56.78L90.9287 56.5555L91.5249 64.0447Z" fill="#F7BA98"/>
<path d="M95.0942 32.9824C95.0859 31.0042 94.5393 27.9453 94.2246 26.0003C93.5621 21.8027 94.2578 22.7336 91.6906 15.8096L80.8338 14.4963L69.977 15.8096C67.4098 22.7253 68.1054 21.8027 67.4429 26.0003C67.1365 27.9453 66.5899 31.0042 66.5734 32.9824C66.5237 41.095 60.8096 55.1259 72.6684 60.6866C75.5752 62.0498 79.0616 62.2743 80.8338 62.2826C82.606 62.2659 86.0924 62.0498 88.9991 60.6866C100.858 55.1259 95.1439 41.095 95.0942 32.9824Z" fill="#F7BA98"/>
<path d="M64.1883 19.3755C62.5238 9.08514 68.9832 10.307 80.1712 9.22645C91.3593 8.15419 98.9946 13.2827 98.9946 18.7937C98.9946 23.3154 94.4234 28.6102 94.4234 28.6102L94.0755 23.4568C94.0755 23.4568 91.2682 26.1748 86.6969 26.7816C80.163 27.646 72.9831 24.3711 70.5235 24.8199C64.0476 25.9753 68.8755 35.9249 68.8755 35.9249C68.8755 35.9249 67.5174 40.1142 67.4843 41.9512C67.4346 44.8936 64.3043 41.8847 64.3043 41.8847C64.3043 41.8847 59.6999 30.0732 60.1719 25.4766C60.6936 20.3647 64.1883 19.3672 64.1883 19.3672V19.3755Z" fill="#F18E54"/>
<path d="M67.4843 41.9595C70.4655 42.4084 65.7535 46.2402 63.5175 45.8662C61.9109 45.5919 60.1719 43.4224 60.1719 40.3885C60.1719 37.0554 62.3002 35.6922 63.8985 35.9582C66.6893 36.432 65.4471 41.6436 67.4843 41.9512V41.9595Z" fill="#F7BA98"/>
<path d="M91.0032 24.9862C91.5829 23.9971 93.0983 21.2957 93.6863 20.1735C94.4482 18.7106 97.2721 21.2541 98.1996 19.8992C99.2762 20.6141 100.841 22.1934 101.173 25.485C101.645 30.0815 97.0402 41.893 97.0402 41.893C97.0402 41.893 93.9182 44.902 93.8602 41.9595C93.8271 40.1226 92.469 35.9333 92.469 35.9333C92.469 35.9333 96.1045 27.7625 91.0032 24.9862Z" fill="#F18E54"/>
<path d="M93.8602 41.9595C90.8789 42.4084 95.591 46.2402 97.8269 45.8662C99.4335 45.5919 101.173 43.4224 101.173 40.3885C101.173 37.0554 99.0443 35.6922 97.446 35.9582C94.6552 36.432 95.8974 41.6436 93.8602 41.9512V41.9595Z" fill="#F7BA98"/>
<path d="M75.1859 38.7676C75.1859 39.7567 74.8298 40.5547 74.3991 40.5547C73.9685 40.5547 73.6124 39.7567 73.6124 38.7676C73.6124 37.7784 73.9685 36.9805 74.3991 36.9805C74.8298 36.9805 75.1859 37.7784 75.1859 38.7676Z" fill="#392E39"/>
<path d="M71.2358 34.9524C73.0494 33.4894 76.4282 33.4811 76.4282 33.2068C76.4282 32.9408 76.7014 31.8852 76.453 31.7023C76.2046 31.5278 71.9728 32.4587 70.7969 33.9632C70.4822 34.3622 70.7472 35.343 71.2441 34.9524H71.2358Z" fill="#F18E54"/>
<path d="M87.0944 38.7676C87.0944 39.7567 87.4505 40.5547 87.8811 40.5547C88.3117 40.5547 88.6678 39.7567 88.6678 38.7676C88.6678 37.7784 88.3117 36.9805 87.8811 36.9805C87.4505 36.9805 87.0944 37.7784 87.0944 38.7676Z" fill="#392E39"/>
<path d="M90.4235 34.6947C88.6099 33.2401 85.8522 33.4812 85.8522 33.2069C85.8522 32.9326 85.5789 31.8853 85.8273 31.7024C86.0758 31.5278 89.6864 32.2011 90.8624 33.7056C91.1771 34.1046 90.9121 35.0854 90.4152 34.6864L90.4235 34.6947Z" fill="#F18E54"/>
<path d="M81.5045 53.6795C80.2789 53.6795 79.103 53.4302 78.2748 52.8566C78.0429 52.6987 77.985 52.3829 78.1423 52.1501C78.2997 51.9174 78.6144 51.8592 78.8462 52.0171C80.0305 52.84 82.6556 52.865 84.5769 52.0836C85.521 51.7013 86.1255 51.1776 86.2332 50.6456C86.2911 50.3713 86.5561 50.1968 86.8294 50.2467C87.1027 50.3048 87.2849 50.5708 87.2269 50.8451C87.053 51.7262 86.2497 52.5075 84.9661 53.0312C83.9724 53.4385 82.7136 53.6795 81.5045 53.6795Z" fill="#D49676"/>
<path d="M82.0594 62.7979C80.7593 62.7979 79.3183 62.5651 77.9768 61.842C77.7283 61.709 77.6372 61.4014 77.7697 61.1521C77.9022 60.9027 78.2086 60.8113 78.4571 60.9443C81.7282 62.7147 85.9185 61.0939 85.9599 61.0773C86.2166 60.9775 86.5148 61.1022 86.6141 61.3599C86.7135 61.6175 86.5893 61.9168 86.3326 62.0165C86.2084 62.0664 84.3533 62.7895 82.0594 62.7895V62.7979Z" fill="#E9A37C"/>
<path d="M84.7343 26.9395C84.5438 26.9395 84.3533 26.9395 84.1546 26.9312C83.9393 26.9229 83.7736 26.74 83.7819 26.5239C83.7902 26.3078 83.9724 26.1332 84.1877 26.1499C91.6988 26.4574 96.4771 20.0155 96.5186 19.9574C96.6428 19.7828 96.8912 19.7412 97.0651 19.8742C97.239 19.9989 97.2804 20.2483 97.1479 20.4228C96.9492 20.6971 92.3117 26.9561 84.726 26.9561L84.7343 26.9395Z" fill="#E47746"/>
<path d="M81.6205 45.9492C81.3472 45.9492 81.1236 45.7331 81.1153 45.4588C81.1153 45.2593 80.9414 40.5131 81.165 38.4933C81.1982 38.2107 81.4466 38.0195 81.7199 38.0444C82.0014 38.0777 82.2002 38.327 82.1671 38.6013C81.9517 40.5464 82.1257 45.3674 82.1257 45.4172C82.1339 45.6999 81.9186 45.9326 81.6371 45.9409H81.6205V45.9492Z" fill="#E9A37C"/>
<path d="M79.8815 46.8386C79.7241 46.8386 79.5668 46.7638 79.4674 46.6225C79.3018 46.3981 79.3597 46.0822 79.5833 45.916C79.6744 45.8495 81.8772 44.2951 83.724 45.783C83.9393 45.9575 83.9807 46.2817 83.7985 46.4978C83.6246 46.7139 83.3016 46.7555 83.0863 46.5726C81.8441 45.5752 80.2375 46.6973 80.1713 46.7389C80.0802 46.8054 79.9808 46.8303 79.8815 46.8303V46.8386Z" fill="#E9A37C"/>
<path d="M23.3616 213.737C25.1421 222.191 29.3158 227.012 29.8293 227.876C30.2765 228.633 31.7671 228.325 31.4524 227.411C30.9721 226.023 28.7776 220.279 28.7776 220.279C28.7776 220.279 32.1977 227.527 32.9762 229.065C33.7546 230.602 36.1148 229.655 35.3529 228.034C34.4254 226.056 31.0798 218.774 31.0798 218.774C31.0798 218.774 36.1976 227.311 36.9429 228.558C37.6882 229.805 40.6447 228.749 39.4604 226.688C38.2762 224.634 33.7546 216.397 33.7546 216.397C33.7546 216.397 38.6489 223.072 39.684 224.501C40.7192 225.931 43.2036 224.643 41.8951 222.398C40.5867 220.154 36.2721 213.014 36.2721 213.014L35.179 208.642C35.179 208.642 36.827 210.055 38.3342 211.626C39.684 213.039 42.3755 210.62 40.3714 208.426C38.3756 206.24 35.4523 204.361 34.5413 198.443C31.2371 177.014 40.5701 143.334 40.5701 143.334L26.5499 130.982C26.5499 130.982 15.5358 176.624 23.3699 213.737H23.3616Z" fill="#F7BA98"/>
<path d="M34.2432 196.091C35.4605 194.561 37.1913 166.682 41.2574 151.455C45.042 137.299 47.8079 134.456 48.0564 132.054C48.5781 127.075 51.3689 93.9266 45.456 74.4763C34.4254 83.844 22.4754 112.155 19.3534 138.529C16.4798 162.784 17.9621 200.937 20.5376 202.308C23.1131 203.688 31.883 199.033 34.2349 196.082L34.2432 196.091Z" fill="#D1E3EE"/>
<path d="M37.3817 172.493C37.3817 172.493 37.3238 172.493 37.2906 172.493C36.9677 172.443 36.7524 172.144 36.802 171.819C38.3175 162.003 40.305 153.342 42.2263 144.971C45.3898 131.198 48.3793 118.181 48.5366 102.679C48.5366 102.355 48.8016 102.098 49.1246 102.098C49.4476 102.098 49.7126 102.364 49.7043 102.696C49.547 118.323 46.5491 131.398 43.3691 145.237C41.4479 153.591 39.4686 162.236 37.9614 172.002C37.92 172.293 37.6633 172.501 37.3817 172.501V172.493Z" fill="#A8CBDE"/>
</g>
<defs>
<clipPath id="clip0_664_581">
<rect width="313" height="437" fill="white"/>
</clipPath>
</defs>
</svg>
