<svg width="610" height="170" viewBox="0 0 610 170" fill="none" xmlns="http://www.w3.org/2000/svg">
<rect width="610" height="170" rx="20" fill="#F4F4F4"/>
<path d="M20.36 32V17.2H26.46C27.6733 17.2 28.68 17.44 29.48 17.92C30.2933 18.4 30.9 19.02 31.3 19.78C31.7133 20.5267 31.92 21.3067 31.92 22.12C31.92 22.96 31.7133 23.76 31.3 24.52C30.9 25.2667 30.2933 25.88 29.48 26.36C28.68 26.84 27.6733 27.08 26.46 27.08H23.44V32H20.36ZM26.46 19.9H23.44V24.4H26.46C26.98 24.4 27.4133 24.2933 27.76 24.08C28.1067 23.8533 28.3667 23.5733 28.54 23.24C28.7267 22.8933 28.82 22.5267 28.82 22.14C28.82 21.7667 28.7267 21.4067 28.54 21.06C28.3667 20.7133 28.1067 20.4333 27.76 20.22C27.4133 20.0067 26.98 19.9 26.46 19.9ZM33.9342 32V17.2H39.9342C41.0276 17.2 41.9609 17.3933 42.7342 17.78C43.5209 18.1667 44.1209 18.7 44.5342 19.38C44.9609 20.06 45.1742 20.8467 45.1742 21.74C45.1742 22.7133 44.9276 23.5667 44.4342 24.3C43.9409 25.02 43.2409 25.5467 42.3342 25.88L45.5542 32H42.1342L39.1942 26.3H37.0142V32H33.9342ZM39.8942 19.86H37.0142V23.78H39.8942C40.5742 23.78 41.1076 23.5933 41.4942 23.22C41.8809 22.8467 42.0742 22.3867 42.0742 21.84C42.0742 21.28 41.8809 20.8133 41.4942 20.44C41.1076 20.0533 40.5742 19.86 39.8942 19.86ZM48.1725 32V17.2H58.3725V19.88H51.2525V23.2H57.4525V25.78H51.2525V29.32H58.4725V32H48.1725ZM66.4464 32.2C65.4864 32.2 64.6664 32.0867 63.9864 31.86C63.3197 31.62 62.7597 31.32 62.3064 30.96C61.8664 30.5867 61.5131 30.2 61.2464 29.8C60.9797 29.3867 60.7797 29 60.6464 28.64C60.5264 28.2667 60.4464 27.9667 60.4064 27.74C60.3797 27.5 60.3664 27.38 60.3664 27.38H63.4864C63.4864 27.38 63.5131 27.4933 63.5664 27.72C63.6331 27.9467 63.7664 28.2133 63.9664 28.52C64.1664 28.8133 64.4731 29.0733 64.8864 29.3C65.2997 29.5133 65.8597 29.62 66.5664 29.62C67.4331 29.62 68.0731 29.44 68.4864 29.08C68.8997 28.7067 69.1064 28.2667 69.1064 27.76C69.1064 27.3067 68.9464 26.9467 68.6264 26.68C68.3197 26.4133 67.8397 26.2133 67.1864 26.08L65.2064 25.7C64.4064 25.5533 63.6597 25.32 62.9664 25C62.2864 24.68 61.7331 24.24 61.3064 23.68C60.8797 23.1067 60.6664 22.3733 60.6664 21.48C60.6664 20.5733 60.8931 19.7867 61.3464 19.12C61.7997 18.44 62.4331 17.92 63.2464 17.56C64.0731 17.1867 65.0397 17 66.1464 17C67.1864 17 68.0464 17.1533 68.7264 17.46C69.4197 17.7533 69.9664 18.12 70.3664 18.56C70.7797 18.9867 71.0797 19.42 71.2664 19.86C71.4664 20.3 71.5931 20.6667 71.6464 20.96C71.7131 21.2533 71.7464 21.4 71.7464 21.4H68.7064C68.7064 21.4 68.6797 21.3067 68.6264 21.12C68.5864 20.9333 68.4797 20.72 68.3064 20.48C68.1331 20.24 67.8664 20.0267 67.5064 19.84C67.1597 19.6533 66.6797 19.56 66.0664 19.56C65.2264 19.56 64.6197 19.7467 64.2464 20.12C63.8731 20.48 63.6864 20.8733 63.6864 21.3C63.6864 21.74 63.8731 22.08 64.2464 22.32C64.6197 22.56 65.1064 22.74 65.7064 22.86L67.8064 23.28C68.6064 23.4267 69.3397 23.6733 70.0064 24.02C70.6731 24.3667 71.1997 24.8333 71.5864 25.42C71.9864 25.9933 72.1864 26.7067 72.1864 27.56C72.1864 28.44 71.9664 29.2333 71.5264 29.94C71.0864 30.6333 70.4397 31.1867 69.5864 31.6C68.7331 32 67.6864 32.2 66.4464 32.2ZM74.2467 32V17.2H84.4467V19.88H77.3267V23.2H83.5267V25.78H77.3267V29.32H84.5467V32H74.2467ZM87.0788 32V17.2H89.8988L96.2787 26.64V17.2H99.3388V32H96.4788L90.1388 22.82V32H87.0788ZM106.019 32V19.88H101.479V17.2H113.639V19.88H109.099V32H106.019ZM115.77 32V17.2H118.85V32H115.77ZM127.091 32.2C126.131 32.2 125.311 32.0867 124.631 31.86C123.964 31.62 123.404 31.32 122.951 30.96C122.511 30.5867 122.158 30.2 121.891 29.8C121.624 29.3867 121.424 29 121.291 28.64C121.171 28.2667 121.091 27.9667 121.051 27.74C121.024 27.5 121.011 27.38 121.011 27.38H124.131C124.131 27.38 124.158 27.4933 124.211 27.72C124.278 27.9467 124.411 28.2133 124.611 28.52C124.811 28.8133 125.118 29.0733 125.531 29.3C125.944 29.5133 126.504 29.62 127.211 29.62C128.078 29.62 128.718 29.44 129.131 29.08C129.544 28.7067 129.751 28.2667 129.751 27.76C129.751 27.3067 129.591 26.9467 129.271 26.68C128.964 26.4133 128.484 26.2133 127.831 26.08L125.851 25.7C125.051 25.5533 124.304 25.32 123.611 25C122.931 24.68 122.378 24.24 121.951 23.68C121.524 23.1067 121.311 22.3733 121.311 21.48C121.311 20.5733 121.538 19.7867 121.991 19.12C122.444 18.44 123.078 17.92 123.891 17.56C124.718 17.1867 125.684 17 126.791 17C127.831 17 128.691 17.1533 129.371 17.46C130.064 17.7533 130.611 18.12 131.011 18.56C131.424 18.9867 131.724 19.42 131.911 19.86C132.111 20.3 132.238 20.6667 132.291 20.96C132.358 21.2533 132.391 21.4 132.391 21.4H129.351C129.351 21.4 129.324 21.3067 129.271 21.12C129.231 20.9333 129.124 20.72 128.951 20.48C128.778 20.24 128.511 20.0267 128.151 19.84C127.804 19.6533 127.324 19.56 126.711 19.56C125.871 19.56 125.264 19.7467 124.891 20.12C124.518 20.48 124.331 20.8733 124.331 21.3C124.331 21.74 124.518 22.08 124.891 22.32C125.264 22.56 125.751 22.74 126.351 22.86L128.451 23.28C129.251 23.4267 129.984 23.6733 130.651 24.02C131.318 24.3667 131.844 24.8333 132.231 25.42C132.631 25.9933 132.831 26.7067 132.831 27.56C132.831 28.44 132.611 29.2333 132.171 29.94C131.731 30.6333 131.084 31.1867 130.231 31.6C129.378 32 128.331 32.2 127.091 32.2ZM134.891 32V17.2H139.051L142.431 24.82L145.911 17.2H149.931V32H146.891V21.92L143.851 28.54H140.991L137.931 21.88V32H134.891ZM159.565 32.2C158.338 32.2 157.258 31.9867 156.325 31.56C155.392 31.12 154.605 30.54 153.965 29.82C153.338 29.0867 152.865 28.2667 152.545 27.36C152.238 26.4533 152.085 25.5267 152.085 24.58C152.085 23.6333 152.238 22.7133 152.545 21.82C152.865 20.9133 153.338 20.1 153.965 19.38C154.605 18.66 155.392 18.0867 156.325 17.66C157.258 17.22 158.338 17 159.565 17C160.805 17 161.892 17.22 162.825 17.66C163.758 18.0867 164.538 18.66 165.165 19.38C165.792 20.1 166.258 20.9133 166.565 21.82C166.885 22.7133 167.045 23.6333 167.045 24.58C167.045 25.5267 166.885 26.4533 166.565 27.36C166.258 28.2667 165.792 29.0867 165.165 29.82C164.538 30.54 163.758 31.12 162.825 31.56C161.892 31.9867 160.805 32.2 159.565 32.2ZM159.565 29.42C160.498 29.42 161.285 29.1867 161.925 28.72C162.565 28.2533 163.045 27.6533 163.365 26.92C163.685 26.1733 163.845 25.3933 163.845 24.58C163.845 23.7667 163.685 22.9933 163.365 22.26C163.045 21.5267 162.565 20.9267 161.925 20.46C161.285 19.9933 160.498 19.76 159.565 19.76C158.632 19.76 157.845 19.9933 157.205 20.46C156.578 20.9267 156.105 21.5267 155.785 22.26C155.465 22.9933 155.305 23.7667 155.305 24.58C155.305 25.3933 155.465 26.1733 155.785 26.92C156.105 27.6533 156.578 28.2533 157.205 28.72C157.845 29.1867 158.632 29.42 159.565 29.42Z" fill="#043381"/>
<path d="M10.3333 54.837C10.3333 56.3098 11.5272 57.5037 13 57.5037C14.4728 57.5037 15.6667 56.3098 15.6667 54.837C15.6667 53.3642 14.4728 52.1703 13 52.1703C11.5272 52.1703 10.3333 53.3642 10.3333 54.837ZM90.4858 107.502L90.2047 107.915L90.4404 108.075L90.6984 107.954L90.4858 107.502ZM202.593 54.837L202.921 54.4594L202.675 54.2461L202.38 54.3844L202.593 54.837ZM308.765 147L308.437 147.378L308.758 147.656L309.085 147.384L308.765 147ZM386.251 82.4232L386.574 82.0418L386.253 81.77L385.93 82.0391L386.251 82.4232ZM462.417 147L462.094 147.381L462.403 147.643L462.723 147.396L462.417 147ZM589.333 47C589.333 48.4728 590.527 49.6667 592 49.6667C593.473 49.6667 594.667 48.4728 594.667 47C594.667 45.5272 593.473 44.3333 592 44.3333C590.527 44.3333 589.333 45.5272 589.333 47ZM12.7189 55.2505L90.2047 107.915L90.7668 107.088L13.2811 54.4235L12.7189 55.2505ZM90.6984 107.954L202.805 55.2895L202.38 54.3844L90.2732 107.049L90.6984 107.954ZM202.265 55.2146L308.437 147.378L309.093 146.622L202.921 54.4594L202.265 55.2146ZM309.085 147.384L386.571 82.8073L385.93 82.0391L308.445 146.616L309.085 147.384ZM385.927 82.8046L462.094 147.381L462.741 146.619L386.574 82.0418L385.927 82.8046ZM462.723 147.396L592.305 47.3958L591.695 46.6042L462.112 146.604L462.723 147.396Z" fill="#043381"/>
</svg>
