<svg width="515" height="208" viewBox="0 0 515 208" fill="none" xmlns="http://www.w3.org/2000/svg">
<g filter="url(#filter0_d_739_101)">
<rect x="4" y="4" width="505" height="198" rx="10" fill="white"/>
</g>
<path d="M20.008 25V14.64H24.096C24.9267 14.64 25.6173 14.808 26.168 15.144C26.7187 15.4707 27.1293 15.9 27.4 16.432C27.68 16.9547 27.82 17.5007 27.82 18.07C27.82 18.6393 27.68 19.19 27.4 19.722C27.1293 20.2447 26.7187 20.674 26.168 21.01C25.6173 21.346 24.9267 21.514 24.096 21.514H21.912V25H20.008ZM24.082 16.292H21.912V19.862H24.082C24.4927 19.862 24.8333 19.778 25.104 19.61C25.3747 19.4327 25.5753 19.2087 25.706 18.938C25.846 18.658 25.916 18.3733 25.916 18.084C25.916 17.7853 25.846 17.5007 25.706 17.23C25.5753 16.9593 25.3747 16.7353 25.104 16.558C24.8333 16.3807 24.4927 16.292 24.082 16.292ZM29.2059 25V17.58H31.0539V18.602H31.1239C31.2546 18.3127 31.4692 18.0467 31.7679 17.804C32.0666 17.5613 32.5146 17.44 33.1119 17.44C33.2986 17.44 33.4526 17.454 33.5739 17.482C33.6952 17.5007 33.7559 17.51 33.7559 17.51V19.316C33.7559 19.316 33.6859 19.3067 33.5459 19.288C33.4152 19.2693 33.2519 19.26 33.0559 19.26C32.4026 19.26 31.9079 19.442 31.5719 19.806C31.2359 20.17 31.0679 20.758 31.0679 21.57V25H29.2059ZM38.3296 25.14C37.5176 25.14 36.827 24.958 36.2576 24.594C35.6883 24.23 35.2543 23.7587 34.9556 23.18C34.6663 22.592 34.5216 21.962 34.5216 21.29C34.5216 20.618 34.6663 19.9927 34.9556 19.414C35.2543 18.826 35.6883 18.35 36.2576 17.986C36.827 17.622 37.5176 17.44 38.3296 17.44C39.151 17.44 39.8416 17.622 40.4016 17.986C40.971 18.35 41.4003 18.826 41.6896 19.414C41.9883 19.9927 42.1376 20.618 42.1376 21.29C42.1376 21.962 41.9883 22.592 41.6896 23.18C41.4003 23.7587 40.971 24.23 40.4016 24.594C39.8416 24.958 39.151 25.14 38.3296 25.14ZM38.3296 23.586C38.7496 23.586 39.0996 23.4787 39.3796 23.264C39.669 23.0493 39.8883 22.7693 40.0376 22.424C40.187 22.0693 40.2616 21.6913 40.2616 21.29C40.2616 20.8793 40.187 20.5013 40.0376 20.156C39.8883 19.8107 39.669 19.5307 39.3796 19.316C39.0996 19.1013 38.7496 18.994 38.3296 18.994C37.919 18.994 37.569 19.1013 37.2796 19.316C36.9903 19.5307 36.771 19.8107 36.6216 20.156C36.4723 20.5013 36.3976 20.8793 36.3976 21.29C36.3976 21.6913 36.4723 22.0693 36.6216 22.424C36.771 22.7693 36.9903 23.0493 37.2796 23.264C37.569 23.4787 37.919 23.586 38.3296 23.586ZM44.5251 25V19.078H43.3351V17.58H44.5251V16.894C44.5251 16.614 44.5624 16.32 44.6371 16.012C44.7117 15.6947 44.8377 15.4007 45.0151 15.13C45.2017 14.8593 45.4584 14.64 45.7851 14.472C46.1211 14.304 46.5411 14.22 47.0451 14.22C47.3251 14.22 47.5537 14.2433 47.7311 14.29C47.9177 14.3273 48.0111 14.346 48.0111 14.346V15.704C48.0111 15.704 47.9504 15.6947 47.8291 15.676C47.7077 15.648 47.5771 15.634 47.4371 15.634C47.0357 15.634 46.7604 15.7507 46.6111 15.984C46.4617 16.2173 46.3871 16.5207 46.3871 16.894V17.58H47.9691V19.078H46.3871V25H44.5251ZM52.5458 25.14C51.9111 25.14 51.3604 25.0327 50.8938 24.818C50.4364 24.594 50.0538 24.3 49.7458 23.936C49.4471 23.5627 49.2231 23.1473 49.0738 22.69C48.9244 22.2327 48.8498 21.766 48.8498 21.29C48.8498 20.814 48.9198 20.352 49.0598 19.904C49.2091 19.4467 49.4284 19.0313 49.7178 18.658C50.0164 18.2847 50.3944 17.9907 50.8518 17.776C51.3091 17.552 51.8504 17.44 52.4758 17.44C53.1478 17.44 53.7404 17.5893 54.2538 17.888C54.7671 18.1867 55.1684 18.6253 55.4578 19.204C55.7471 19.7733 55.8918 20.4827 55.8918 21.332V21.808H50.7258C50.7538 22.312 50.9264 22.7507 51.2438 23.124C51.5611 23.488 51.9951 23.67 52.5458 23.67C52.8631 23.67 53.1244 23.6187 53.3298 23.516C53.5351 23.4133 53.6938 23.2967 53.8058 23.166C53.9178 23.026 53.9971 22.9093 54.0438 22.816C54.0904 22.7133 54.1138 22.662 54.1138 22.662H55.8358C55.8358 22.662 55.8124 22.746 55.7658 22.914C55.7191 23.0727 55.6304 23.278 55.4998 23.53C55.3784 23.7727 55.1964 24.02 54.9538 24.272C54.7111 24.5147 54.3938 24.72 54.0018 24.888C53.6098 25.056 53.1244 25.14 52.5458 25.14ZM50.7258 20.59H54.0998C54.0718 20.0113 53.8991 19.582 53.5818 19.302C53.2644 19.022 52.8911 18.882 52.4618 18.882C51.9858 18.882 51.5891 19.036 51.2718 19.344C50.9544 19.6427 50.7724 20.058 50.7258 20.59ZM60.5163 25.14C59.9097 25.14 59.4103 25.0607 59.0183 24.902C58.6263 24.734 58.3137 24.5287 58.0803 24.286C57.8563 24.034 57.6883 23.7867 57.5763 23.544C57.4643 23.3013 57.3897 23.1007 57.3523 22.942C57.3243 22.774 57.3103 22.69 57.3103 22.69H59.0743C59.0743 22.69 59.0883 22.7413 59.1163 22.844C59.1537 22.9467 59.219 23.068 59.3123 23.208C59.415 23.3387 59.569 23.4553 59.7743 23.558C59.9797 23.6607 60.2503 23.712 60.5863 23.712C60.9877 23.712 61.277 23.628 61.4543 23.46C61.6317 23.2827 61.7203 23.0867 61.7203 22.872C61.7203 22.6667 61.641 22.5033 61.4823 22.382C61.333 22.2513 61.109 22.1533 60.8103 22.088L59.7883 21.878C59.3777 21.794 58.995 21.6727 58.6403 21.514C58.2857 21.346 57.9963 21.122 57.7723 20.842C57.5483 20.5527 57.4363 20.184 57.4363 19.736C57.4363 19.0733 57.6883 18.5273 58.1923 18.098C58.6963 17.6593 59.3823 17.44 60.2503 17.44C60.801 17.44 61.2537 17.5147 61.6083 17.664C61.9723 17.8133 62.2617 18 62.4763 18.224C62.7003 18.448 62.8637 18.672 62.9663 18.896C63.0783 19.12 63.1483 19.3113 63.1763 19.47C63.2137 19.6193 63.2323 19.694 63.2323 19.694H61.5243C61.5243 19.694 61.5103 19.652 61.4823 19.568C61.4543 19.4747 61.3937 19.372 61.3003 19.26C61.2163 19.148 61.0857 19.05 60.9083 18.966C60.7403 18.8727 60.5117 18.826 60.2223 18.826C59.8303 18.826 59.5503 18.91 59.3823 19.078C59.2237 19.246 59.1443 19.4233 59.1443 19.61C59.1443 19.8153 59.233 19.974 59.4103 20.086C59.5877 20.198 59.8163 20.282 60.0963 20.338L61.0623 20.548C61.753 20.688 62.3177 20.9307 62.7563 21.276C63.2043 21.6213 63.4283 22.1207 63.4283 22.774C63.4283 23.2127 63.3117 23.614 63.0783 23.978C62.8543 24.3327 62.523 24.6173 62.0843 24.832C61.655 25.0373 61.1323 25.14 60.5163 25.14ZM66.0232 16.432C65.6965 16.432 65.4258 16.3247 65.2112 16.11C65.0058 15.8953 64.9032 15.6387 64.9032 15.34C64.9032 15.0413 65.0058 14.7847 65.2112 14.57C65.4258 14.3553 65.6965 14.248 66.0232 14.248C66.3498 14.248 66.6205 14.3553 66.8352 14.57C67.0498 14.7847 67.1572 15.0413 67.1572 15.34C67.1572 15.6387 67.0498 15.8953 66.8352 16.11C66.6205 16.3247 66.3498 16.432 66.0232 16.432ZM65.0992 25V17.58H66.9612V25H65.0992ZM72.5913 25.14C71.7793 25.14 71.0887 24.958 70.5193 24.594C69.95 24.23 69.516 23.7587 69.2173 23.18C68.928 22.592 68.7833 21.962 68.7833 21.29C68.7833 20.618 68.928 19.9927 69.2173 19.414C69.516 18.826 69.95 18.35 70.5193 17.986C71.0887 17.622 71.7793 17.44 72.5913 17.44C73.4127 17.44 74.1033 17.622 74.6633 17.986C75.2327 18.35 75.662 18.826 75.9513 19.414C76.25 19.9927 76.3993 20.618 76.3993 21.29C76.3993 21.962 76.25 22.592 75.9513 23.18C75.662 23.7587 75.2327 24.23 74.6633 24.594C74.1033 24.958 73.4127 25.14 72.5913 25.14ZM72.5913 23.586C73.0113 23.586 73.3613 23.4787 73.6413 23.264C73.9307 23.0493 74.15 22.7693 74.2993 22.424C74.4487 22.0693 74.5233 21.6913 74.5233 21.29C74.5233 20.8793 74.4487 20.5013 74.2993 20.156C74.15 19.8107 73.9307 19.5307 73.6413 19.316C73.3613 19.1013 73.0113 18.994 72.5913 18.994C72.1807 18.994 71.8307 19.1013 71.5413 19.316C71.252 19.5307 71.0327 19.8107 70.8833 20.156C70.734 20.5013 70.6593 20.8793 70.6593 21.29C70.6593 21.6913 70.734 22.0693 70.8833 22.424C71.0327 22.7693 71.252 23.0493 71.5413 23.264C71.8307 23.4787 72.1807 23.586 72.5913 23.586ZM77.9735 25V17.58H79.8355V18.644H79.9195C79.9941 18.5133 80.1108 18.3547 80.2695 18.168C80.4281 17.972 80.6475 17.804 80.9275 17.664C81.2075 17.5147 81.5621 17.44 81.9915 17.44C82.5608 17.44 83.0275 17.5707 83.3915 17.832C83.7648 18.084 84.0401 18.42 84.2175 18.84C84.4041 19.26 84.4975 19.7127 84.4975 20.198V25H82.6355V20.45C82.6355 20.0487 82.5235 19.7033 82.2995 19.414C82.0755 19.1247 81.7395 18.98 81.2915 18.98C80.9461 18.98 80.6661 19.0687 80.4515 19.246C80.2368 19.414 80.0781 19.6333 79.9755 19.904C79.8821 20.1747 79.8355 20.4593 79.8355 20.758V25H77.9735ZM89.3546 17.44C89.8306 17.44 90.2226 17.5193 90.5306 17.678C90.8386 17.8273 91.0813 17.9953 91.2586 18.182C91.4359 18.3593 91.5573 18.504 91.6226 18.616H91.7066V17.58H93.5686V25H91.7066V23.964H91.6226C91.5573 24.076 91.4359 24.2253 91.2586 24.412C91.0813 24.5987 90.8386 24.7667 90.5306 24.916C90.2226 25.0653 89.8306 25.14 89.3546 25.14C88.8039 25.14 88.3233 25.0327 87.9126 24.818C87.5019 24.594 87.1566 24.3 86.8766 23.936C86.6059 23.5627 86.4006 23.1473 86.2606 22.69C86.1299 22.2327 86.0646 21.766 86.0646 21.29C86.0646 20.814 86.1299 20.3473 86.2606 19.89C86.4006 19.4327 86.6059 19.022 86.8766 18.658C87.1566 18.2847 87.5019 17.9907 87.9126 17.776C88.3233 17.552 88.8039 17.44 89.3546 17.44ZM89.8446 18.966C89.4246 18.966 89.0699 19.0827 88.7806 19.316C88.5006 19.54 88.2906 19.8293 88.1506 20.184C88.0106 20.5387 87.9406 20.9073 87.9406 21.29C87.9406 21.6727 88.0106 22.0413 88.1506 22.396C88.2906 22.7507 88.5006 23.0447 88.7806 23.278C89.0699 23.502 89.4246 23.614 89.8446 23.614C90.2646 23.614 90.6146 23.502 90.8946 23.278C91.1746 23.0447 91.3846 22.7507 91.5246 22.396C91.6646 22.0413 91.7346 21.6727 91.7346 21.29C91.7346 20.9073 91.6646 20.5387 91.5246 20.184C91.3846 19.8293 91.1746 19.54 90.8946 19.316C90.6146 19.0827 90.2646 18.966 89.8446 18.966ZM95.4768 25L95.4908 14.36H97.3388V25H95.4768ZM102.749 25.14C102.114 25.14 101.564 25.0327 101.097 24.818C100.64 24.594 100.257 24.3 99.9489 23.936C99.6502 23.5627 99.4262 23.1473 99.2769 22.69C99.1275 22.2327 99.0529 21.766 99.0529 21.29C99.0529 20.814 99.1229 20.352 99.2629 19.904C99.4122 19.4467 99.6315 19.0313 99.9209 18.658C100.22 18.2847 100.598 17.9907 101.055 17.776C101.512 17.552 102.054 17.44 102.679 17.44C103.351 17.44 103.944 17.5893 104.457 17.888C104.97 18.1867 105.372 18.6253 105.661 19.204C105.95 19.7733 106.095 20.4827 106.095 21.332V21.808H100.929C100.957 22.312 101.13 22.7507 101.447 23.124C101.764 23.488 102.198 23.67 102.749 23.67C103.066 23.67 103.328 23.6187 103.533 23.516C103.738 23.4133 103.897 23.2967 104.009 23.166C104.121 23.026 104.2 22.9093 104.247 22.816C104.294 22.7133 104.317 22.662 104.317 22.662H106.039C106.039 22.662 106.016 22.746 105.969 22.914C105.922 23.0727 105.834 23.278 105.703 23.53C105.582 23.7727 105.4 24.02 105.157 24.272C104.914 24.5147 104.597 24.72 104.205 24.888C103.813 25.056 103.328 25.14 102.749 25.14ZM100.929 20.59H104.303C104.275 20.0113 104.102 19.582 103.785 19.302C103.468 19.022 103.094 18.882 102.665 18.882C102.189 18.882 101.792 19.036 101.475 19.344C101.158 19.6427 100.976 20.058 100.929 20.59ZM110.719 25.14C110.113 25.14 109.613 25.0607 109.221 24.902C108.829 24.734 108.517 24.5287 108.283 24.286C108.059 24.034 107.891 23.7867 107.779 23.544C107.667 23.3013 107.593 23.1007 107.555 22.942C107.527 22.774 107.513 22.69 107.513 22.69H109.277C109.277 22.69 109.291 22.7413 109.319 22.844C109.357 22.9467 109.422 23.068 109.515 23.208C109.618 23.3387 109.772 23.4553 109.977 23.558C110.183 23.6607 110.453 23.712 110.789 23.712C111.191 23.712 111.48 23.628 111.657 23.46C111.835 23.2827 111.923 23.0867 111.923 22.872C111.923 22.6667 111.844 22.5033 111.685 22.382C111.536 22.2513 111.312 22.1533 111.013 22.088L109.991 21.878C109.581 21.794 109.198 21.6727 108.843 21.514C108.489 21.346 108.199 21.122 107.975 20.842C107.751 20.5527 107.639 20.184 107.639 19.736C107.639 19.0733 107.891 18.5273 108.395 18.098C108.899 17.6593 109.585 17.44 110.453 17.44C111.004 17.44 111.457 17.5147 111.811 17.664C112.175 17.8133 112.465 18 112.679 18.224C112.903 18.448 113.067 18.672 113.169 18.896C113.281 19.12 113.351 19.3113 113.379 19.47C113.417 19.6193 113.435 19.694 113.435 19.694H111.727C111.727 19.694 111.713 19.652 111.685 19.568C111.657 19.4747 111.597 19.372 111.503 19.26C111.419 19.148 111.289 19.05 111.111 18.966C110.943 18.8727 110.715 18.826 110.425 18.826C110.033 18.826 109.753 18.91 109.585 19.078C109.427 19.246 109.347 19.4233 109.347 19.61C109.347 19.8153 109.436 19.974 109.613 20.086C109.791 20.198 110.019 20.282 110.299 20.338L111.265 20.548C111.956 20.688 112.521 20.9307 112.959 21.276C113.407 21.6213 113.631 22.1207 113.631 22.774C113.631 23.2127 113.515 23.614 113.281 23.978C113.057 24.3327 112.726 24.6173 112.287 24.832C111.858 25.0373 111.335 25.14 110.719 25.14ZM122.015 25.14C121.38 25.14 120.825 25.0327 120.349 24.818C119.873 24.594 119.476 24.3 119.159 23.936C118.842 23.5627 118.604 23.1473 118.445 22.69C118.296 22.2327 118.221 21.766 118.221 21.29C118.221 20.814 118.296 20.3473 118.445 19.89C118.604 19.4327 118.837 19.022 119.145 18.658C119.462 18.2847 119.859 17.9907 120.335 17.776C120.811 17.552 121.371 17.44 122.015 17.44C122.65 17.44 123.177 17.5333 123.597 17.72C124.017 17.9067 124.348 18.14 124.591 18.42C124.843 18.7 125.03 18.98 125.151 19.26C125.272 19.5307 125.352 19.7593 125.389 19.946C125.426 20.1327 125.445 20.226 125.445 20.226H123.695C123.695 20.226 123.676 20.1653 123.639 20.044C123.602 19.9133 123.527 19.764 123.415 19.596C123.303 19.428 123.135 19.2787 122.911 19.148C122.696 19.0173 122.407 18.952 122.043 18.952C121.614 18.952 121.25 19.064 120.951 19.288C120.662 19.5027 120.442 19.7873 120.293 20.142C120.144 20.4967 120.069 20.8793 120.069 21.29C120.069 21.7007 120.144 22.0833 120.293 22.438C120.442 22.7927 120.662 23.082 120.951 23.306C121.25 23.5207 121.614 23.628 122.043 23.628C122.407 23.628 122.696 23.5627 122.911 23.432C123.135 23.3013 123.303 23.152 123.415 22.984C123.527 22.816 123.602 22.6713 123.639 22.55C123.676 22.4193 123.695 22.354 123.695 22.354H125.445C125.445 22.354 125.426 22.4473 125.389 22.634C125.352 22.8207 125.272 23.054 125.151 23.334C125.03 23.6047 124.843 23.88 124.591 24.16C124.348 24.44 124.017 24.6733 123.597 24.86C123.177 25.0467 122.65 25.14 122.015 25.14ZM130.71 25.14C129.898 25.14 129.208 24.958 128.638 24.594C128.069 24.23 127.635 23.7587 127.336 23.18C127.047 22.592 126.902 21.962 126.902 21.29C126.902 20.618 127.047 19.9927 127.336 19.414C127.635 18.826 128.069 18.35 128.638 17.986C129.208 17.622 129.898 17.44 130.71 17.44C131.532 17.44 132.222 17.622 132.782 17.986C133.352 18.35 133.781 18.826 134.07 19.414C134.369 19.9927 134.518 20.618 134.518 21.29C134.518 21.962 134.369 22.592 134.07 23.18C133.781 23.7587 133.352 24.23 132.782 24.594C132.222 24.958 131.532 25.14 130.71 25.14ZM130.71 23.586C131.13 23.586 131.48 23.4787 131.76 23.264C132.05 23.0493 132.269 22.7693 132.418 22.424C132.568 22.0693 132.642 21.6913 132.642 21.29C132.642 20.8793 132.568 20.5013 132.418 20.156C132.269 19.8107 132.05 19.5307 131.76 19.316C131.48 19.1013 131.13 18.994 130.71 18.994C130.3 18.994 129.95 19.1013 129.66 19.316C129.371 19.5307 129.152 19.8107 129.002 20.156C128.853 20.5013 128.778 20.8793 128.778 21.29C128.778 21.6913 128.853 22.0693 129.002 22.424C129.152 22.7693 129.371 23.0493 129.66 23.264C129.95 23.4787 130.3 23.586 130.71 23.586ZM136.093 25V17.58H137.955V18.644H138.039C138.113 18.5133 138.23 18.3547 138.389 18.168C138.547 17.972 138.767 17.804 139.047 17.664C139.327 17.5147 139.681 17.44 140.111 17.44C140.68 17.44 141.147 17.5707 141.511 17.832C141.884 18.084 142.159 18.42 142.337 18.84C142.523 19.26 142.617 19.7127 142.617 20.198V25H140.755V20.45C140.755 20.0487 140.643 19.7033 140.419 19.414C140.195 19.1247 139.859 18.98 139.411 18.98C139.065 18.98 138.785 19.0687 138.571 19.246C138.356 19.414 138.197 19.6333 138.095 19.904C138.001 20.1747 137.955 20.4593 137.955 20.758V25H136.093ZM147.577 25V17.58H149.439V18.616H149.509C149.602 18.448 149.733 18.2753 149.901 18.098C150.069 17.9113 150.284 17.7573 150.545 17.636C150.816 17.5053 151.147 17.44 151.539 17.44C152.09 17.44 152.542 17.5707 152.897 17.832C153.252 18.0933 153.513 18.4293 153.681 18.84H153.709C153.896 18.4853 154.171 18.1633 154.535 17.874C154.908 17.5847 155.403 17.44 156.019 17.44C156.542 17.44 156.976 17.5613 157.321 17.804C157.676 18.0373 157.937 18.3547 158.105 18.756C158.282 19.1573 158.371 19.5913 158.371 20.058V25H156.509V20.45C156.509 20.0207 156.402 19.6707 156.187 19.4C155.982 19.12 155.674 18.98 155.263 18.98C154.936 18.98 154.67 19.0687 154.465 19.246C154.269 19.414 154.124 19.6287 154.031 19.89C153.947 20.1513 153.905 20.4173 153.905 20.688V25H152.043V20.45C152.043 20.0207 151.94 19.6707 151.735 19.4C151.53 19.12 151.217 18.98 150.797 18.98C150.47 18.98 150.204 19.0687 149.999 19.246C149.803 19.414 149.658 19.6333 149.565 19.904C149.481 20.1653 149.439 20.4267 149.439 20.688V25H147.577ZM164.512 16.516L163.098 16.502L164.246 13.996H166.024L164.512 16.516ZM163.266 17.44C163.742 17.44 164.134 17.5193 164.442 17.678C164.75 17.8273 164.992 17.9953 165.17 18.182C165.347 18.3593 165.468 18.504 165.534 18.616H165.618V17.58H167.48V25H165.618V23.964H165.534C165.468 24.076 165.347 24.2253 165.17 24.412C164.992 24.5987 164.75 24.7667 164.442 24.916C164.134 25.0653 163.742 25.14 163.266 25.14C162.715 25.14 162.234 25.0327 161.824 24.818C161.413 24.594 161.068 24.3 160.788 23.936C160.517 23.5627 160.312 23.1473 160.172 22.69C160.041 22.2327 159.976 21.766 159.976 21.29C159.976 20.814 160.041 20.3473 160.172 19.89C160.312 19.4327 160.517 19.022 160.788 18.658C161.068 18.2847 161.413 17.9907 161.824 17.776C162.234 17.552 162.715 17.44 163.266 17.44ZM163.756 18.966C163.336 18.966 162.981 19.0827 162.692 19.316C162.412 19.54 162.202 19.8293 162.062 20.184C161.922 20.5387 161.852 20.9073 161.852 21.29C161.852 21.6727 161.922 22.0413 162.062 22.396C162.202 22.7507 162.412 23.0447 162.692 23.278C162.981 23.502 163.336 23.614 163.756 23.614C164.176 23.614 164.526 23.502 164.806 23.278C165.086 23.0447 165.296 22.7507 165.436 22.396C165.576 22.0413 165.646 21.6727 165.646 21.29C165.646 20.9073 165.576 20.5387 165.436 20.184C165.296 19.8293 165.086 19.54 164.806 19.316C164.526 19.0827 164.176 18.966 163.756 18.966ZM172.284 25.14C171.677 25.14 171.178 25.0607 170.786 24.902C170.394 24.734 170.081 24.5287 169.848 24.286C169.624 24.034 169.456 23.7867 169.344 23.544C169.232 23.3013 169.157 23.1007 169.12 22.942C169.092 22.774 169.078 22.69 169.078 22.69H170.842C170.842 22.69 170.856 22.7413 170.884 22.844C170.921 22.9467 170.987 23.068 171.08 23.208C171.183 23.3387 171.337 23.4553 171.542 23.558C171.747 23.6607 172.018 23.712 172.354 23.712C172.755 23.712 173.045 23.628 173.222 23.46C173.399 23.2827 173.488 23.0867 173.488 22.872C173.488 22.6667 173.409 22.5033 173.25 22.382C173.101 22.2513 172.877 22.1533 172.578 22.088L171.556 21.878C171.145 21.794 170.763 21.6727 170.408 21.514C170.053 21.346 169.764 21.122 169.54 20.842C169.316 20.5527 169.204 20.184 169.204 19.736C169.204 19.0733 169.456 18.5273 169.96 18.098C170.464 17.6593 171.15 17.44 172.018 17.44C172.569 17.44 173.021 17.5147 173.376 17.664C173.74 17.8133 174.029 18 174.244 18.224C174.468 18.448 174.631 18.672 174.734 18.896C174.846 19.12 174.916 19.3113 174.944 19.47C174.981 19.6193 175 19.694 175 19.694H173.292C173.292 19.694 173.278 19.652 173.25 19.568C173.222 19.4747 173.161 19.372 173.068 19.26C172.984 19.148 172.853 19.05 172.676 18.966C172.508 18.8727 172.279 18.826 171.99 18.826C171.598 18.826 171.318 18.91 171.15 19.078C170.991 19.246 170.912 19.4233 170.912 19.61C170.912 19.8153 171.001 19.974 171.178 20.086C171.355 20.198 171.584 20.282 171.864 20.338L172.83 20.548C173.521 20.688 174.085 20.9307 174.524 21.276C174.972 21.6213 175.196 22.1207 175.196 22.774C175.196 23.2127 175.079 23.614 174.846 23.978C174.622 24.3327 174.291 24.6173 173.852 24.832C173.423 25.0373 172.9 25.14 172.284 25.14ZM183.243 25.14C182.739 25.14 182.324 25.0653 181.997 24.916C181.671 24.7667 181.414 24.5707 181.227 24.328C181.05 24.0853 180.924 23.8193 180.849 23.53C180.775 23.2407 180.737 22.956 180.737 22.676V19.078H179.463V17.58H180.737V15.732H182.599V17.58H184.265V19.078H182.599V22.634C182.599 23.2967 182.973 23.628 183.719 23.628C183.897 23.628 184.06 23.6187 184.209 23.6C184.368 23.572 184.447 23.558 184.447 23.558V25.014C184.447 25.014 184.326 25.0327 184.083 25.07C183.85 25.1167 183.57 25.14 183.243 25.14ZM188.32 25.14C187.545 25.14 186.957 24.902 186.556 24.426C186.164 23.95 185.968 23.3387 185.968 22.592V17.58H187.816V22.284C187.816 22.6853 187.923 23.0073 188.138 23.25C188.352 23.4833 188.656 23.6 189.048 23.6C189.393 23.6 189.673 23.5113 189.888 23.334C190.102 23.1567 190.256 22.928 190.35 22.648C190.452 22.368 190.504 22.0787 190.504 21.78V17.58H192.366V25H190.504V23.936H190.42C190.326 24.104 190.191 24.2813 190.014 24.468C189.846 24.6547 189.622 24.8133 189.342 24.944C189.071 25.0747 188.73 25.14 188.32 25.14ZM194.102 25V17.58H195.95V18.602H196.02C196.151 18.3127 196.366 18.0467 196.664 17.804C196.963 17.5613 197.411 17.44 198.008 17.44C198.195 17.44 198.349 17.454 198.47 17.482C198.592 17.5007 198.652 17.51 198.652 17.51V19.316C198.652 19.316 198.582 19.3067 198.442 19.288C198.312 19.2693 198.148 19.26 197.952 19.26C197.299 19.26 196.804 19.442 196.468 19.806C196.132 20.17 195.964 20.758 195.964 21.57V25H194.102ZM199.927 25V17.58H201.789V18.644H201.873C201.947 18.5133 202.064 18.3547 202.223 18.168C202.381 17.972 202.601 17.804 202.881 17.664C203.161 17.5147 203.515 17.44 203.945 17.44C204.514 17.44 204.981 17.5707 205.345 17.832C205.718 18.084 205.993 18.42 206.171 18.84C206.357 19.26 206.451 19.7127 206.451 20.198V25H204.589V20.45C204.589 20.0487 204.477 19.7033 204.253 19.414C204.029 19.1247 203.693 18.98 203.245 18.98C202.899 18.98 202.619 19.0687 202.405 19.246C202.19 19.414 202.031 19.6333 201.929 19.904C201.835 20.1747 201.789 20.4593 201.789 20.758V25H199.927ZM211.826 25.14C211.014 25.14 210.323 24.958 209.754 24.594C209.184 24.23 208.75 23.7587 208.452 23.18C208.162 22.592 208.018 21.962 208.018 21.29C208.018 20.618 208.162 19.9927 208.452 19.414C208.75 18.826 209.184 18.35 209.754 17.986C210.323 17.622 211.014 17.44 211.826 17.44C212.647 17.44 213.338 17.622 213.898 17.986C214.467 18.35 214.896 18.826 215.186 19.414C215.484 19.9927 215.634 20.618 215.634 21.29C215.634 21.962 215.484 22.592 215.186 23.18C214.896 23.7587 214.467 24.23 213.898 24.594C213.338 24.958 212.647 25.14 211.826 25.14ZM211.826 23.586C212.246 23.586 212.596 23.4787 212.876 23.264C213.165 23.0493 213.384 22.7693 213.534 22.424C213.683 22.0693 213.758 21.6913 213.758 21.29C213.758 20.8793 213.683 20.5013 213.534 20.156C213.384 19.8107 213.165 19.5307 212.876 19.316C212.596 19.1013 212.246 18.994 211.826 18.994C211.415 18.994 211.065 19.1013 210.776 19.316C210.486 19.5307 210.267 19.8107 210.118 20.156C209.968 20.5013 209.894 20.8793 209.894 21.29C209.894 21.6913 209.968 22.0693 210.118 22.424C210.267 22.7693 210.486 23.0493 210.776 23.264C211.065 23.4787 211.415 23.586 211.826 23.586ZM220.259 25.14C219.652 25.14 219.153 25.0607 218.761 24.902C218.369 24.734 218.056 24.5287 217.823 24.286C217.599 24.034 217.431 23.7867 217.319 23.544C217.207 23.3013 217.132 23.1007 217.095 22.942C217.067 22.774 217.053 22.69 217.053 22.69H218.817C218.817 22.69 218.831 22.7413 218.859 22.844C218.896 22.9467 218.961 23.068 219.055 23.208C219.157 23.3387 219.311 23.4553 219.517 23.558C219.722 23.6607 219.993 23.712 220.329 23.712C220.73 23.712 221.019 23.628 221.197 23.46C221.374 23.2827 221.463 23.0867 221.463 22.872C221.463 22.6667 221.383 22.5033 221.225 22.382C221.075 22.2513 220.851 22.1533 220.553 22.088L219.531 21.878C219.12 21.794 218.737 21.6727 218.383 21.514C218.028 21.346 217.739 21.122 217.515 20.842C217.291 20.5527 217.179 20.184 217.179 19.736C217.179 19.0733 217.431 18.5273 217.935 18.098C218.439 17.6593 219.125 17.44 219.993 17.44C220.543 17.44 220.996 17.5147 221.351 17.664C221.715 17.8133 222.004 18 222.219 18.224C222.443 18.448 222.606 18.672 222.709 18.896C222.821 19.12 222.891 19.3113 222.919 19.47C222.956 19.6193 222.975 19.694 222.975 19.694H221.267C221.267 19.694 221.253 19.652 221.225 19.568C221.197 19.4747 221.136 19.372 221.043 19.26C220.959 19.148 220.828 19.05 220.651 18.966C220.483 18.8727 220.254 18.826 219.965 18.826C219.573 18.826 219.293 18.91 219.125 19.078C218.966 19.246 218.887 19.4233 218.887 19.61C218.887 19.8153 218.975 19.974 219.153 20.086C219.33 20.198 219.559 20.282 219.839 20.338L220.805 20.548C221.495 20.688 222.06 20.9307 222.499 21.276C222.947 21.6213 223.171 22.1207 223.171 22.774C223.171 23.2127 223.054 23.614 222.821 23.978C222.597 24.3327 222.265 24.6173 221.827 24.832C221.397 25.0373 220.875 25.14 220.259 25.14Z" fill="#414141"/>
<path d="M22.804 169.12V178H21.196V171.472H19.504V170.5L19.78 170.416C20.252 170.28 20.636 170.124 20.932 169.948C21.228 169.772 21.508 169.532 21.772 169.228L21.88 169.12H22.804Z" fill="#8B8B8B"/>
<path d="M137.792 178V176.872L139.46 175.396C140.068 174.876 140.592 174.428 141.032 174.052C141.472 173.668 141.812 173.308 142.052 172.972C142.292 172.636 142.412 172.268 142.412 171.868C142.412 171.564 142.336 171.304 142.184 171.088C142.04 170.872 141.852 170.708 141.62 170.596C141.388 170.484 141.148 170.428 140.9 170.428C140.556 170.428 140.276 170.496 140.06 170.632C139.852 170.768 139.692 170.932 139.58 171.124C139.476 171.316 139.404 171.504 139.364 171.688C139.324 171.864 139.304 171.996 139.304 172.084H137.744C137.744 171.908 137.772 171.692 137.828 171.436C137.892 171.172 137.996 170.9 138.14 170.62C138.284 170.34 138.476 170.076 138.716 169.828C138.956 169.58 139.26 169.38 139.628 169.228C139.996 169.076 140.432 169 140.936 169C141.496 169 142.008 169.112 142.472 169.336C142.944 169.56 143.32 169.88 143.6 170.296C143.888 170.712 144.032 171.212 144.032 171.796C144.032 172.332 143.896 172.82 143.624 173.26C143.36 173.7 142.996 174.132 142.532 174.556C142.068 174.972 141.54 175.42 140.948 175.9L140.204 176.572H144.188V178H137.792Z" fill="#8B8B8B"/>
<path d="M258.02 178.12C257.412 178.12 256.9 178.028 256.484 177.844C256.068 177.66 255.732 177.424 255.476 177.136C255.228 176.848 255.048 176.54 254.936 176.212C254.824 175.884 254.768 175.58 254.768 175.3H256.304C256.304 175.54 256.364 175.776 256.484 176.008C256.612 176.232 256.804 176.416 257.06 176.56C257.316 176.696 257.632 176.764 258.008 176.764C258.472 176.764 258.86 176.644 259.172 176.404C259.492 176.156 259.652 175.816 259.652 175.384C259.652 175 259.516 174.688 259.244 174.448C258.98 174.208 258.612 174.088 258.14 174.088H256.94V172.828H258.152C258.552 172.828 258.88 172.716 259.136 172.492C259.392 172.268 259.52 171.98 259.52 171.628C259.52 171.244 259.372 170.936 259.076 170.704C258.788 170.464 258.432 170.344 258.008 170.344C257.664 170.344 257.376 170.42 257.144 170.572C256.912 170.716 256.736 170.904 256.616 171.136C256.496 171.368 256.436 171.608 256.436 171.856H254.936C254.936 171.568 254.988 171.26 255.092 170.932C255.204 170.604 255.38 170.296 255.62 170.008C255.868 169.712 256.188 169.472 256.58 169.288C256.98 169.096 257.464 169 258.032 169C258.56 169 259.056 169.1 259.52 169.3C259.992 169.492 260.372 169.776 260.66 170.152C260.956 170.52 261.104 170.96 261.104 171.472C261.104 171.816 261.036 172.12 260.9 172.384C260.772 172.648 260.604 172.864 260.396 173.032C260.196 173.2 259.984 173.324 259.76 173.404V173.476C260.176 173.62 260.532 173.856 260.828 174.184C261.124 174.512 261.272 174.94 261.272 175.468C261.272 176.028 261.12 176.508 260.816 176.908C260.52 177.3 260.124 177.6 259.628 177.808C259.132 178.016 258.596 178.12 258.02 178.12Z" fill="#8B8B8B"/>
<path d="M375.872 178V176.104L371.564 176.092V174.664L375.488 169.12H377.492V174.724H378.932V176.104H377.492V178H375.872ZM373.172 174.724H375.872V170.908L373.172 174.724Z" fill="#8B8B8B"/>
<path d="M493.032 178.12C492.504 178.12 492.052 178.048 491.676 177.904C491.3 177.76 490.988 177.572 490.74 177.34C490.492 177.108 490.296 176.864 490.152 176.608C490.008 176.352 489.904 176.108 489.84 175.876C489.784 175.644 489.752 175.456 489.744 175.312H491.268C491.268 175.312 491.276 175.364 491.292 175.468C491.308 175.564 491.344 175.684 491.4 175.828C491.464 175.972 491.556 176.12 491.676 176.272C491.804 176.416 491.976 176.536 492.192 176.632C492.408 176.728 492.68 176.776 493.008 176.776C493.408 176.776 493.736 176.692 493.992 176.524C494.256 176.356 494.452 176.14 494.58 175.876C494.708 175.612 494.772 175.332 494.772 175.036C494.772 174.74 494.708 174.46 494.58 174.196C494.452 173.924 494.26 173.7 494.004 173.524C493.748 173.348 493.428 173.26 493.044 173.26C492.748 173.26 492.5 173.308 492.3 173.404C492.108 173.5 491.956 173.608 491.844 173.728C491.732 173.848 491.652 173.956 491.604 174.052C491.556 174.148 491.532 174.196 491.532 174.196H489.924L490.68 169.12H495.756V170.548H491.808L491.484 172.744H491.532C491.588 172.68 491.684 172.588 491.82 172.468C491.956 172.348 492.148 172.24 492.396 172.144C492.644 172.048 492.968 172 493.368 172C494.016 172 494.56 172.144 495 172.432C495.448 172.72 495.788 173.096 496.02 173.56C496.252 174.016 496.368 174.5 496.368 175.012C496.368 175.396 496.296 175.772 496.152 176.14C496.016 176.508 495.808 176.844 495.528 177.148C495.256 177.444 494.912 177.68 494.496 177.856C494.08 178.032 493.592 178.12 493.032 178.12Z" fill="#8B8B8B"/>
<path d="M397.732 24.126C397.088 24.126 396.519 23.986 396.024 23.706C395.529 23.4167 395.114 23.0293 394.778 22.544C394.451 22.0493 394.199 21.48 394.022 20.836C393.854 20.192 393.77 19.5153 393.77 18.806C393.77 18.0873 393.854 17.4107 394.022 16.776C394.199 16.132 394.451 15.5627 394.778 15.068C395.114 14.5733 395.529 14.186 396.024 13.906C396.519 13.626 397.088 13.486 397.732 13.486C398.376 13.486 398.945 13.626 399.44 13.906C399.935 14.186 400.345 14.5733 400.672 15.068C401.008 15.5627 401.26 16.132 401.428 16.776C401.605 17.4107 401.694 18.0873 401.694 18.806C401.694 19.5153 401.605 20.192 401.428 20.836C401.26 21.48 401.008 22.0493 400.672 22.544C400.345 23.0293 399.935 23.4167 399.44 23.706C398.945 23.986 398.376 24.126 397.732 24.126ZM397.732 22.866C398.469 22.866 399.076 22.5253 399.552 21.844C400.037 21.1533 400.28 20.1407 400.28 18.806C400.28 17.4713 400.037 16.4633 399.552 15.782C399.076 15.1007 398.469 14.76 397.732 14.76C396.995 14.76 396.383 15.1007 395.898 15.782C395.422 16.4633 395.184 17.4713 395.184 18.806C395.184 20.1313 395.422 21.1393 395.898 21.83C396.383 22.5207 396.995 22.866 397.732 22.866ZM406.311 13.64V24H404.967V15.964L403.021 15.978V15.194L403.371 15.082C403.866 14.9233 404.262 14.7507 404.561 14.564C404.869 14.3773 405.154 14.1207 405.415 13.794L405.541 13.64H406.311ZM412.922 24V17.672H411.704V16.58H412.922V15.67C412.922 15.278 412.992 14.8953 413.132 14.522C413.272 14.1393 413.506 13.8267 413.832 13.584C414.159 13.3413 414.602 13.22 415.162 13.22C415.433 13.22 415.648 13.2433 415.806 13.29C415.974 13.3273 416.058 13.346 416.058 13.346V14.396C416.058 14.396 415.984 14.382 415.834 14.354C415.694 14.3167 415.531 14.298 415.344 14.298C414.915 14.298 414.626 14.4287 414.476 14.69C414.327 14.9513 414.252 15.278 414.252 15.67V16.58H415.974V17.672H414.252V24H412.922ZM420.405 24.14C419.798 24.14 419.271 24.0327 418.823 23.818C418.384 23.594 418.02 23.2953 417.731 22.922C417.451 22.5487 417.241 22.138 417.101 21.69C416.961 21.2327 416.891 20.766 416.891 20.29C416.891 19.8233 416.956 19.3613 417.087 18.904C417.227 18.4467 417.437 18.0313 417.717 17.658C418.006 17.2847 418.365 16.9907 418.795 16.776C419.233 16.552 419.751 16.44 420.349 16.44C420.983 16.44 421.543 16.5847 422.029 16.874C422.514 17.1633 422.897 17.5927 423.177 18.162C423.457 18.7313 423.597 19.4453 423.597 20.304V20.696H418.235C418.263 21.116 418.361 21.5033 418.529 21.858C418.706 22.2033 418.953 22.4833 419.271 22.698C419.588 22.9033 419.966 23.006 420.405 23.006C420.787 23.006 421.095 22.9453 421.329 22.824C421.571 22.6933 421.763 22.544 421.903 22.376C422.043 22.208 422.136 22.0633 422.183 21.942C422.239 21.8113 422.267 21.746 422.267 21.746H423.513C423.513 21.746 423.489 21.83 423.443 21.998C423.396 22.1567 423.312 22.3527 423.191 22.586C423.069 22.8193 422.892 23.0573 422.659 23.3C422.425 23.5333 422.127 23.734 421.763 23.902C421.399 24.0607 420.946 24.14 420.405 24.14ZM418.249 19.66H422.295C422.276 19.1747 422.173 18.7827 421.987 18.484C421.8 18.176 421.562 17.9473 421.273 17.798C420.983 17.6487 420.675 17.574 420.349 17.574C419.761 17.574 419.28 17.7653 418.907 18.148C418.533 18.5213 418.314 19.0253 418.249 19.66ZM429.36 24.14C428.893 24.14 428.501 24.0653 428.184 23.916C427.866 23.7667 427.61 23.5893 427.414 23.384C427.227 23.1787 427.078 22.992 426.966 22.824H426.882V24H425.552V13.36H426.882V17.756H426.966C427.078 17.5787 427.227 17.3873 427.414 17.182C427.61 16.9767 427.866 16.804 428.184 16.664C428.501 16.5147 428.893 16.44 429.36 16.44C429.92 16.44 430.41 16.552 430.83 16.776C431.25 16.9907 431.6 17.2847 431.88 17.658C432.16 18.022 432.37 18.4327 432.51 18.89C432.65 19.3473 432.72 19.814 432.72 20.29C432.72 20.766 432.65 21.2327 432.51 21.69C432.37 22.1473 432.16 22.5627 431.88 22.936C431.6 23.3 431.25 23.594 430.83 23.818C430.41 24.0327 429.92 24.14 429.36 24.14ZM429.136 23.006C429.64 23.006 430.055 22.8753 430.382 22.614C430.718 22.3433 430.965 22.0027 431.124 21.592C431.292 21.172 431.376 20.738 431.376 20.29C431.376 19.8327 431.292 19.3987 431.124 18.988C430.965 18.5773 430.718 18.2413 430.382 17.98C430.055 17.7093 429.64 17.574 429.136 17.574C428.641 17.574 428.226 17.7093 427.89 17.98C427.563 18.2413 427.316 18.5773 427.148 18.988C426.989 19.3987 426.91 19.8327 426.91 20.29C426.91 20.738 426.989 21.172 427.148 21.592C427.316 22.0027 427.563 22.3433 427.89 22.614C428.226 22.8753 428.641 23.006 429.136 23.006ZM438.443 20.178V19.058H443.651V20.178H438.443ZM453.267 24.126C452.623 24.126 452.054 23.986 451.559 23.706C451.064 23.4167 450.649 23.0293 450.313 22.544C449.986 22.0493 449.734 21.48 449.557 20.836C449.389 20.192 449.305 19.5153 449.305 18.806C449.305 18.0873 449.389 17.4107 449.557 16.776C449.734 16.132 449.986 15.5627 450.313 15.068C450.649 14.5733 451.064 14.186 451.559 13.906C452.054 13.626 452.623 13.486 453.267 13.486C453.911 13.486 454.48 13.626 454.975 13.906C455.47 14.186 455.88 14.5733 456.207 15.068C456.543 15.5627 456.795 16.132 456.963 16.776C457.14 17.4107 457.229 18.0873 457.229 18.806C457.229 19.5153 457.14 20.192 456.963 20.836C456.795 21.48 456.543 22.0493 456.207 22.544C455.88 23.0293 455.47 23.4167 454.975 23.706C454.48 23.986 453.911 24.126 453.267 24.126ZM453.267 22.866C454.004 22.866 454.611 22.5253 455.087 21.844C455.572 21.1533 455.815 20.1407 455.815 18.806C455.815 17.4713 455.572 16.4633 455.087 15.782C454.611 15.1007 454.004 14.76 453.267 14.76C452.53 14.76 451.918 15.1007 451.433 15.782C450.957 16.4633 450.719 17.4713 450.719 18.806C450.719 20.1313 450.957 21.1393 451.433 21.83C451.918 22.5207 452.53 22.866 453.267 22.866ZM461.846 13.64V24H460.502V15.964L458.556 15.978V15.194L458.906 15.082C459.401 14.9233 459.797 14.7507 460.096 14.564C460.404 14.3773 460.689 14.1207 460.95 13.794L461.076 13.64H461.846ZM467.589 24V16.58H468.919V17.658H468.975C469.05 17.518 469.167 17.3547 469.325 17.168C469.484 16.972 469.699 16.804 469.969 16.664C470.249 16.5147 470.599 16.44 471.019 16.44C471.57 16.44 472.032 16.5753 472.405 16.846C472.788 17.1073 473.073 17.462 473.259 17.91H473.273C473.479 17.4993 473.768 17.154 474.141 16.874C474.524 16.5847 475.019 16.44 475.625 16.44C476.428 16.44 477.044 16.7153 477.473 17.266C477.912 17.8073 478.131 18.5073 478.131 19.366V24H476.801V19.436C476.801 18.8853 476.671 18.442 476.409 18.106C476.148 17.7607 475.77 17.588 475.275 17.588C474.846 17.588 474.501 17.7047 474.239 17.938C473.987 18.1713 473.805 18.4607 473.693 18.806C473.581 19.1513 473.525 19.4967 473.525 19.842V24H472.195V19.436C472.195 18.8853 472.065 18.442 471.803 18.106C471.551 17.7607 471.173 17.588 470.669 17.588C470.24 17.588 469.895 17.7047 469.633 17.938C469.381 18.1713 469.199 18.4653 469.087 18.82C468.975 19.1653 468.919 19.506 468.919 19.842V24H467.589ZM483.305 16.44C483.772 16.44 484.164 16.5147 484.481 16.664C484.799 16.8133 485.055 16.9907 485.251 17.196C485.447 17.392 485.597 17.5787 485.699 17.756H485.783V16.58H487.113V24H485.783V22.824H485.699C485.597 23.0013 485.447 23.1927 485.251 23.398C485.055 23.6033 484.799 23.7807 484.481 23.93C484.164 24.07 483.772 24.14 483.305 24.14C482.745 24.14 482.255 24.0327 481.835 23.818C481.415 23.594 481.065 23.3 480.785 22.936C480.505 22.5627 480.295 22.1473 480.155 21.69C480.015 21.2327 479.945 20.766 479.945 20.29C479.945 19.814 480.015 19.3473 480.155 18.89C480.295 18.4327 480.505 18.022 480.785 17.658C481.065 17.2847 481.415 16.9907 481.835 16.776C482.255 16.552 482.745 16.44 483.305 16.44ZM483.529 17.574C483.035 17.574 482.619 17.7093 482.283 17.98C481.947 18.2413 481.695 18.5773 481.527 18.988C481.369 19.3987 481.289 19.8327 481.289 20.29C481.289 20.738 481.369 21.172 481.527 21.592C481.695 22.0027 481.947 22.3433 482.283 22.614C482.619 22.8753 483.035 23.006 483.529 23.006C484.024 23.006 484.435 22.8753 484.761 22.614C485.097 22.3433 485.345 22.0027 485.503 21.592C485.671 21.172 485.755 20.738 485.755 20.29C485.755 19.8327 485.671 19.3987 485.503 18.988C485.345 18.5773 485.097 18.2413 484.761 17.98C484.435 17.7093 484.024 17.574 483.529 17.574ZM489.068 24V16.58H490.398V17.504H490.454C490.613 17.224 490.846 16.9767 491.154 16.762C491.462 16.5473 491.896 16.44 492.456 16.44C492.615 16.44 492.759 16.4493 492.89 16.468C493.021 16.4773 493.086 16.482 493.086 16.482V17.756C493.086 17.756 493.011 17.7513 492.862 17.742C492.722 17.7233 492.573 17.714 492.414 17.714C491.77 17.714 491.271 17.9007 490.916 18.274C490.571 18.638 490.398 19.2353 490.398 20.066V24H489.068Z" fill="#8B8B8B"/>
<line x1="22.5" y1="46" x2="22.5" y2="166" stroke="#D9D9D9"/>
<line x1="140.5" y1="46" x2="140.5" y2="166" stroke="#D9D9D9"/>
<line x1="258.5" y1="46" x2="258.5" y2="166" stroke="#D9D9D9"/>
<line x1="376.5" y1="46" x2="376.5" y2="166" stroke="#D9D9D9"/>
<line x1="494.5" y1="46" x2="494.5" y2="166" stroke="#D9D9D9"/>
<defs>
<filter id="filter0_d_739_101" x="0" y="0" width="515" height="208" filterUnits="userSpaceOnUse" color-interpolation-filters="sRGB">
<feFlood flood-opacity="0" result="BackgroundImageFix"/>
<feColorMatrix in="SourceAlpha" type="matrix" values="0 0 0 0 0 0 0 0 0 0 0 0 0 0 0 0 0 0 127 0" result="hardAlpha"/>
<feMorphology radius="1" operator="dilate" in="SourceAlpha" result="effect1_dropShadow_739_101"/>
<feOffset dx="1" dy="1"/>
<feGaussianBlur stdDeviation="2"/>
<feComposite in2="hardAlpha" operator="out"/>
<feColorMatrix type="matrix" values="0 0 0 0 0 0 0 0 0 0 0 0 0 0 0 0 0 0 0.15 0"/>
<feBlend mode="normal" in2="BackgroundImageFix" result="effect1_dropShadow_739_101"/>
<feBlend mode="normal" in="SourceGraphic" in2="effect1_dropShadow_739_101" result="shape"/>
</filter>
</defs>
</svg>
