<svg width="515" height="208" viewBox="0 0 515 208" fill="none" xmlns="http://www.w3.org/2000/svg">
<g filter="url(#filter0_d_738_60)">
<rect x="4" y="4" width="505" height="198" rx="10" fill="white"/>
</g>
<path d="M22.766 25V16.292H19.574V14.64H27.862V16.292H24.67V25H22.766ZM30.5325 25.14C29.7578 25.14 29.1698 24.902 28.7685 24.426C28.3765 23.95 28.1805 23.3387 28.1805 22.592V17.58H30.0285V22.284C30.0285 22.6853 30.1358 23.0073 30.3505 23.25C30.5652 23.4833 30.8685 23.6 31.2605 23.6C31.6058 23.6 31.8858 23.5113 32.1005 23.334C32.3152 23.1567 32.4692 22.928 32.5625 22.648C32.6652 22.368 32.7165 22.0787 32.7165 21.78V17.58H34.5785V25H32.7165V23.936H32.6325C32.5392 24.104 32.4038 24.2813 32.2265 24.468C32.0585 24.6547 31.8345 24.8133 31.5545 24.944C31.2838 25.0747 30.9432 25.14 30.5325 25.14ZM36.3153 25V17.58H38.1633V18.602H38.2333C38.3639 18.3127 38.5786 18.0467 38.8773 17.804C39.1759 17.5613 39.6239 17.44 40.2213 17.44C40.4079 17.44 40.5619 17.454 40.6833 17.482C40.8046 17.5007 40.8653 17.51 40.8653 17.51V19.316C40.8653 19.316 40.7953 19.3067 40.6553 19.288C40.5246 19.2693 40.3613 19.26 40.1653 19.26C39.5119 19.26 39.0173 19.442 38.6813 19.806C38.3453 20.17 38.1773 20.758 38.1773 21.57V25H36.3153ZM42.1395 25V17.58H44.0015V18.644H44.0855C44.1602 18.5133 44.2768 18.3547 44.4355 18.168C44.5942 17.972 44.8135 17.804 45.0935 17.664C45.3735 17.5147 45.7282 17.44 46.1575 17.44C46.7268 17.44 47.1935 17.5707 47.5575 17.832C47.9308 18.084 48.2062 18.42 48.3835 18.84C48.5702 19.26 48.6635 19.7127 48.6635 20.198V25H46.8015V20.45C46.8015 20.0487 46.6895 19.7033 46.4655 19.414C46.2415 19.1247 45.9055 18.98 45.4575 18.98C45.1122 18.98 44.8322 19.0687 44.6175 19.246C44.4028 19.414 44.2442 19.6333 44.1415 19.904C44.0482 20.1747 44.0015 20.4593 44.0015 20.758V25H42.1395ZM54.0386 25.14C53.2266 25.14 52.5359 24.958 51.9666 24.594C51.3973 24.23 50.9633 23.7587 50.6646 23.18C50.3753 22.592 50.2306 21.962 50.2306 21.29C50.2306 20.618 50.3753 19.9927 50.6646 19.414C50.9633 18.826 51.3973 18.35 51.9666 17.986C52.5359 17.622 53.2266 17.44 54.0386 17.44C54.8599 17.44 55.5506 17.622 56.1106 17.986C56.6799 18.35 57.1093 18.826 57.3986 19.414C57.6973 19.9927 57.8466 20.618 57.8466 21.29C57.8466 21.962 57.6973 22.592 57.3986 23.18C57.1093 23.7587 56.6799 24.23 56.1106 24.594C55.5506 24.958 54.8599 25.14 54.0386 25.14ZM54.0386 23.586C54.4586 23.586 54.8086 23.4787 55.0886 23.264C55.3779 23.0493 55.5973 22.7693 55.7466 22.424C55.8959 22.0693 55.9706 21.6913 55.9706 21.29C55.9706 20.8793 55.8959 20.5013 55.7466 20.156C55.5973 19.8107 55.3779 19.5307 55.0886 19.316C54.8086 19.1013 54.4586 18.994 54.0386 18.994C53.6279 18.994 53.2779 19.1013 52.9886 19.316C52.6993 19.5307 52.4799 19.8107 52.3306 20.156C52.1813 20.5013 52.1066 20.8793 52.1066 21.29C52.1066 21.6913 52.1813 22.0693 52.3306 22.424C52.4799 22.7693 52.6993 23.0493 52.9886 23.264C53.2779 23.4787 53.6279 23.586 54.0386 23.586ZM62.4714 25.14C61.8648 25.14 61.3654 25.0607 60.9734 24.902C60.5814 24.734 60.2688 24.5287 60.0354 24.286C59.8114 24.034 59.6434 23.7867 59.5314 23.544C59.4194 23.3013 59.3448 23.1007 59.3074 22.942C59.2794 22.774 59.2654 22.69 59.2654 22.69H61.0294C61.0294 22.69 61.0434 22.7413 61.0714 22.844C61.1088 22.9467 61.1741 23.068 61.2674 23.208C61.3701 23.3387 61.5241 23.4553 61.7294 23.558C61.9348 23.6607 62.2054 23.712 62.5414 23.712C62.9428 23.712 63.2321 23.628 63.4094 23.46C63.5868 23.2827 63.6754 23.0867 63.6754 22.872C63.6754 22.6667 63.5961 22.5033 63.4374 22.382C63.2881 22.2513 63.0641 22.1533 62.7654 22.088L61.7434 21.878C61.3328 21.794 60.9501 21.6727 60.5954 21.514C60.2408 21.346 59.9514 21.122 59.7274 20.842C59.5034 20.5527 59.3914 20.184 59.3914 19.736C59.3914 19.0733 59.6434 18.5273 60.1474 18.098C60.6514 17.6593 61.3374 17.44 62.2054 17.44C62.7561 17.44 63.2088 17.5147 63.5634 17.664C63.9274 17.8133 64.2168 18 64.4314 18.224C64.6554 18.448 64.8188 18.672 64.9214 18.896C65.0334 19.12 65.1034 19.3113 65.1314 19.47C65.1688 19.6193 65.1874 19.694 65.1874 19.694H63.4794C63.4794 19.694 63.4654 19.652 63.4374 19.568C63.4094 19.4747 63.3488 19.372 63.2554 19.26C63.1714 19.148 63.0408 19.05 62.8634 18.966C62.6954 18.8727 62.4668 18.826 62.1774 18.826C61.7854 18.826 61.5054 18.91 61.3374 19.078C61.1788 19.246 61.0994 19.4233 61.0994 19.61C61.0994 19.8153 61.1881 19.974 61.3654 20.086C61.5428 20.198 61.7714 20.282 62.0514 20.338L63.0174 20.548C63.7081 20.688 64.2728 20.9307 64.7114 21.276C65.1594 21.6213 65.3834 22.1207 65.3834 22.774C65.3834 23.2127 65.2668 23.614 65.0334 23.978C64.8094 24.3327 64.4781 24.6173 64.0394 24.832C63.6101 25.0373 63.0874 25.14 62.4714 25.14ZM70.2248 27.744V17.58H72.0868V18.616H72.1848C72.2501 18.504 72.3668 18.3547 72.5348 18.168C72.7121 17.9813 72.9548 17.8133 73.2628 17.664C73.5708 17.5147 73.9628 17.44 74.4388 17.44C74.9988 17.44 75.4841 17.552 75.8948 17.776C76.3055 17.9907 76.6461 18.2847 76.9168 18.658C77.1875 19.022 77.3881 19.4327 77.5188 19.89C77.6588 20.3473 77.7288 20.814 77.7288 21.29C77.7288 21.766 77.6588 22.2327 77.5188 22.69C77.3881 23.1473 77.1875 23.5627 76.9168 23.936C76.6461 24.3 76.3055 24.594 75.8948 24.818C75.4841 25.0327 74.9988 25.14 74.4388 25.14C73.9628 25.14 73.5708 25.0653 73.2628 24.916C72.9548 24.7573 72.7121 24.5847 72.5348 24.398C72.3668 24.2113 72.2501 24.0667 72.1848 23.964H72.0868V27.744H70.2248ZM72.0588 21.29C72.0588 21.6727 72.1288 22.0413 72.2688 22.396C72.4088 22.7507 72.6188 23.0447 72.8988 23.278C73.1788 23.502 73.5288 23.614 73.9488 23.614C74.3781 23.614 74.7328 23.502 75.0128 23.278C75.2928 23.0447 75.5028 22.7507 75.6428 22.396C75.7828 22.0413 75.8528 21.6727 75.8528 21.29C75.8528 20.9073 75.7828 20.5387 75.6428 20.184C75.5028 19.8293 75.2928 19.54 75.0128 19.316C74.7328 19.0827 74.3781 18.966 73.9488 18.966C73.5288 18.966 73.1788 19.0827 72.8988 19.316C72.6188 19.54 72.4088 19.8293 72.2688 20.184C72.1288 20.5387 72.0588 20.9073 72.0588 21.29ZM82.982 25.14C82.17 25.14 81.4793 24.958 80.91 24.594C80.3406 24.23 79.9066 23.7587 79.608 23.18C79.3186 22.592 79.174 21.962 79.174 21.29C79.174 20.618 79.3186 19.9927 79.608 19.414C79.9066 18.826 80.3406 18.35 80.91 17.986C81.4793 17.622 82.17 17.44 82.982 17.44C83.8033 17.44 84.494 17.622 85.054 17.986C85.6233 18.35 86.0526 18.826 86.342 19.414C86.6406 19.9927 86.79 20.618 86.79 21.29C86.79 21.962 86.6406 22.592 86.342 23.18C86.0526 23.7587 85.6233 24.23 85.054 24.594C84.494 24.958 83.8033 25.14 82.982 25.14ZM82.982 23.586C83.402 23.586 83.752 23.4787 84.032 23.264C84.3213 23.0493 84.5406 22.7693 84.69 22.424C84.8393 22.0693 84.914 21.6913 84.914 21.29C84.914 20.8793 84.8393 20.5013 84.69 20.156C84.5406 19.8107 84.3213 19.5307 84.032 19.316C83.752 19.1013 83.402 18.994 82.982 18.994C82.5713 18.994 82.2213 19.1013 81.932 19.316C81.6426 19.5307 81.4233 19.8107 81.274 20.156C81.1246 20.5013 81.05 20.8793 81.05 21.29C81.05 21.6913 81.1246 22.0693 81.274 22.424C81.4233 22.7693 81.6426 23.0493 81.932 23.264C82.2213 23.4787 82.5713 23.586 82.982 23.586ZM88.5041 27.744V17.58H90.3661V18.616H90.4641C90.5294 18.504 90.6461 18.3547 90.8141 18.168C90.9914 17.9813 91.2341 17.8133 91.5421 17.664C91.8501 17.5147 92.2421 17.44 92.7181 17.44C93.2781 17.44 93.7634 17.552 94.1741 17.776C94.5848 17.9907 94.9254 18.2847 95.1961 18.658C95.4668 19.022 95.6674 19.4327 95.7981 19.89C95.9381 20.3473 96.0081 20.814 96.0081 21.29C96.0081 21.766 95.9381 22.2327 95.7981 22.69C95.6674 23.1473 95.4668 23.5627 95.1961 23.936C94.9254 24.3 94.5848 24.594 94.1741 24.818C93.7634 25.0327 93.2781 25.14 92.7181 25.14C92.2421 25.14 91.8501 25.0653 91.5421 24.916C91.2341 24.7573 90.9914 24.5847 90.8141 24.398C90.6461 24.2113 90.5294 24.0667 90.4641 23.964H90.3661V27.744H88.5041ZM90.3381 21.29C90.3381 21.6727 90.4081 22.0413 90.5481 22.396C90.6881 22.7507 90.8981 23.0447 91.1781 23.278C91.4581 23.502 91.8081 23.614 92.2281 23.614C92.6574 23.614 93.0121 23.502 93.2921 23.278C93.5721 23.0447 93.7821 22.7507 93.9221 22.396C94.0621 22.0413 94.1321 21.6727 94.1321 21.29C94.1321 20.9073 94.0621 20.5387 93.9221 20.184C93.7821 19.8293 93.5721 19.54 93.2921 19.316C93.0121 19.0827 92.6574 18.966 92.2281 18.966C91.8081 18.966 91.4581 19.0827 91.1781 19.316C90.8981 19.54 90.6881 19.8293 90.5481 20.184C90.4081 20.5387 90.3381 20.9073 90.3381 21.29ZM99.9856 25.14C99.211 25.14 98.623 24.902 98.2216 24.426C97.8296 23.95 97.6336 23.3387 97.6336 22.592V17.58H99.4816V22.284C99.4816 22.6853 99.589 23.0073 99.8036 23.25C100.018 23.4833 100.322 23.6 100.714 23.6C101.059 23.6 101.339 23.5113 101.554 23.334C101.768 23.1567 101.922 22.928 102.016 22.648C102.118 22.368 102.17 22.0787 102.17 21.78V17.58H104.032V25H102.17V23.936H102.086C101.992 24.104 101.857 24.2813 101.68 24.468C101.512 24.6547 101.288 24.8133 101.008 24.944C100.737 25.0747 100.396 25.14 99.9856 25.14ZM105.908 25L105.922 14.36H107.77V25H105.908ZM112.775 17.44C113.251 17.44 113.643 17.5193 113.951 17.678C114.259 17.8273 114.501 17.9953 114.679 18.182C114.856 18.3593 114.977 18.504 115.043 18.616H115.127V17.58H116.989V25H115.127V23.964H115.043C114.977 24.076 114.856 24.2253 114.679 24.412C114.501 24.5987 114.259 24.7667 113.951 24.916C113.643 25.0653 113.251 25.14 112.775 25.14C112.224 25.14 111.743 25.0327 111.333 24.818C110.922 24.594 110.577 24.3 110.297 23.936C110.026 23.5627 109.821 23.1473 109.681 22.69C109.55 22.2327 109.485 21.766 109.485 21.29C109.485 20.814 109.55 20.3473 109.681 19.89C109.821 19.4327 110.026 19.022 110.297 18.658C110.577 18.2847 110.922 17.9907 111.333 17.776C111.743 17.552 112.224 17.44 112.775 17.44ZM113.265 18.966C112.845 18.966 112.49 19.0827 112.201 19.316C111.921 19.54 111.711 19.8293 111.571 20.184C111.431 20.5387 111.361 20.9073 111.361 21.29C111.361 21.6727 111.431 22.0413 111.571 22.396C111.711 22.7507 111.921 23.0447 112.201 23.278C112.49 23.502 112.845 23.614 113.265 23.614C113.685 23.614 114.035 23.502 114.315 23.278C114.595 23.0447 114.805 22.7507 114.945 22.396C115.085 22.0413 115.155 21.6727 115.155 21.29C115.155 20.9073 115.085 20.5387 114.945 20.184C114.805 19.8293 114.595 19.54 114.315 19.316C114.035 19.0827 113.685 18.966 113.265 18.966ZM118.729 25V17.58H120.577V18.602H120.647C120.778 18.3127 120.993 18.0467 121.291 17.804C121.59 17.5613 122.038 17.44 122.635 17.44C122.822 17.44 122.976 17.454 123.097 17.482C123.219 17.5007 123.279 17.51 123.279 17.51V19.316C123.279 19.316 123.209 19.3067 123.069 19.288C122.939 19.2693 122.775 19.26 122.579 19.26C121.926 19.26 121.431 19.442 121.095 19.806C120.759 20.17 120.591 20.758 120.591 21.57V25H118.729ZM127.741 25.14C127.106 25.14 126.556 25.0327 126.089 24.818C125.632 24.594 125.249 24.3 124.941 23.936C124.642 23.5627 124.418 23.1473 124.269 22.69C124.12 22.2327 124.045 21.766 124.045 21.29C124.045 20.814 124.115 20.352 124.255 19.904C124.404 19.4467 124.624 19.0313 124.913 18.658C125.212 18.2847 125.59 17.9907 126.047 17.776C126.504 17.552 127.046 17.44 127.671 17.44C128.343 17.44 128.936 17.5893 129.449 17.888C129.962 18.1867 130.364 18.6253 130.653 19.204C130.942 19.7733 131.087 20.4827 131.087 21.332V21.808H125.921C125.949 22.312 126.122 22.7507 126.439 23.124C126.756 23.488 127.19 23.67 127.741 23.67C128.058 23.67 128.32 23.6187 128.525 23.516C128.73 23.4133 128.889 23.2967 129.001 23.166C129.113 23.026 129.192 22.9093 129.239 22.816C129.286 22.7133 129.309 22.662 129.309 22.662H131.031C131.031 22.662 131.008 22.746 130.961 22.914C130.914 23.0727 130.826 23.278 130.695 23.53C130.574 23.7727 130.392 24.02 130.149 24.272C129.906 24.5147 129.589 24.72 129.197 24.888C128.805 25.056 128.32 25.14 127.741 25.14ZM125.921 20.59H129.295C129.267 20.0113 129.094 19.582 128.777 19.302C128.46 19.022 128.086 18.882 127.657 18.882C127.181 18.882 126.784 19.036 126.467 19.344C126.15 19.6427 125.968 20.058 125.921 20.59ZM135.712 25.14C135.105 25.14 134.606 25.0607 134.214 24.902C133.822 24.734 133.509 24.5287 133.276 24.286C133.052 24.034 132.884 23.7867 132.772 23.544C132.66 23.3013 132.585 23.1007 132.548 22.942C132.52 22.774 132.506 22.69 132.506 22.69H134.27C134.27 22.69 134.284 22.7413 134.312 22.844C134.349 22.9467 134.414 23.068 134.508 23.208C134.61 23.3387 134.764 23.4553 134.97 23.558C135.175 23.6607 135.446 23.712 135.782 23.712C136.183 23.712 136.472 23.628 136.65 23.46C136.827 23.2827 136.916 23.0867 136.916 22.872C136.916 22.6667 136.836 22.5033 136.678 22.382C136.528 22.2513 136.304 22.1533 136.006 22.088L134.984 21.878C134.573 21.794 134.19 21.6727 133.836 21.514C133.481 21.346 133.192 21.122 132.968 20.842C132.744 20.5527 132.632 20.184 132.632 19.736C132.632 19.0733 132.884 18.5273 133.388 18.098C133.892 17.6593 134.578 17.44 135.446 17.44C135.996 17.44 136.449 17.5147 136.804 17.664C137.168 17.8133 137.457 18 137.672 18.224C137.896 18.448 138.059 18.672 138.162 18.896C138.274 19.12 138.344 19.3113 138.372 19.47C138.409 19.6193 138.428 19.694 138.428 19.694H136.72C136.72 19.694 136.706 19.652 136.678 19.568C136.65 19.4747 136.589 19.372 136.496 19.26C136.412 19.148 136.281 19.05 136.104 18.966C135.936 18.8727 135.707 18.826 135.418 18.826C135.026 18.826 134.746 18.91 134.578 19.078C134.419 19.246 134.34 19.4233 134.34 19.61C134.34 19.8153 134.428 19.974 134.606 20.086C134.783 20.198 135.012 20.282 135.292 20.338L136.258 20.548C136.948 20.688 137.513 20.9307 137.952 21.276C138.4 21.6213 138.624 22.1207 138.624 22.774C138.624 23.2127 138.507 23.614 138.274 23.978C138.05 24.3327 137.718 24.6173 137.28 24.832C136.85 25.0373 136.328 25.14 135.712 25.14Z" fill="#414141"/>
<path d="M148.95 18.3914C148.773 18.3914 148.627 18.3314 148.513 18.2114C148.398 18.0914 148.341 17.9514 148.341 17.7914C148.341 17.6257 148.398 17.4857 148.513 17.3714C148.627 17.2514 148.773 17.1914 148.95 17.1914C149.127 17.1914 149.273 17.2514 149.387 17.3714C149.507 17.4857 149.567 17.6257 149.567 17.7914C149.567 17.9572 149.507 18.1 149.387 18.22C149.273 18.3343 149.127 18.3914 148.95 18.3914ZM148.47 23.7143V19.1714H149.447V23.7143H148.47Z" fill="#8B8B8B"/>
<path d="M397.732 24.126C397.088 24.126 396.519 23.986 396.024 23.706C395.529 23.4167 395.114 23.0293 394.778 22.544C394.451 22.0493 394.199 21.48 394.022 20.836C393.854 20.192 393.77 19.5153 393.77 18.806C393.77 18.0873 393.854 17.4107 394.022 16.776C394.199 16.132 394.451 15.5627 394.778 15.068C395.114 14.5733 395.529 14.186 396.024 13.906C396.519 13.626 397.088 13.486 397.732 13.486C398.376 13.486 398.945 13.626 399.44 13.906C399.935 14.186 400.345 14.5733 400.672 15.068C401.008 15.5627 401.26 16.132 401.428 16.776C401.605 17.4107 401.694 18.0873 401.694 18.806C401.694 19.5153 401.605 20.192 401.428 20.836C401.26 21.48 401.008 22.0493 400.672 22.544C400.345 23.0293 399.935 23.4167 399.44 23.706C398.945 23.986 398.376 24.126 397.732 24.126ZM397.732 22.866C398.469 22.866 399.076 22.5253 399.552 21.844C400.037 21.1533 400.28 20.1407 400.28 18.806C400.28 17.4713 400.037 16.4633 399.552 15.782C399.076 15.1007 398.469 14.76 397.732 14.76C396.995 14.76 396.383 15.1007 395.898 15.782C395.422 16.4633 395.184 17.4713 395.184 18.806C395.184 20.1313 395.422 21.1393 395.898 21.83C396.383 22.5207 396.995 22.866 397.732 22.866ZM406.311 13.64V24H404.967V15.964L403.021 15.978V15.194L403.371 15.082C403.866 14.9233 404.262 14.7507 404.561 14.564C404.869 14.3773 405.154 14.1207 405.415 13.794L405.541 13.64H406.311ZM412.922 24V17.672H411.704V16.58H412.922V15.67C412.922 15.278 412.992 14.8953 413.132 14.522C413.272 14.1393 413.506 13.8267 413.832 13.584C414.159 13.3413 414.602 13.22 415.162 13.22C415.433 13.22 415.648 13.2433 415.806 13.29C415.974 13.3273 416.058 13.346 416.058 13.346V14.396C416.058 14.396 415.984 14.382 415.834 14.354C415.694 14.3167 415.531 14.298 415.344 14.298C414.915 14.298 414.626 14.4287 414.476 14.69C414.327 14.9513 414.252 15.278 414.252 15.67V16.58H415.974V17.672H414.252V24H412.922ZM420.405 24.14C419.798 24.14 419.271 24.0327 418.823 23.818C418.384 23.594 418.02 23.2953 417.731 22.922C417.451 22.5487 417.241 22.138 417.101 21.69C416.961 21.2327 416.891 20.766 416.891 20.29C416.891 19.8233 416.956 19.3613 417.087 18.904C417.227 18.4467 417.437 18.0313 417.717 17.658C418.006 17.2847 418.365 16.9907 418.795 16.776C419.233 16.552 419.751 16.44 420.349 16.44C420.983 16.44 421.543 16.5847 422.029 16.874C422.514 17.1633 422.897 17.5927 423.177 18.162C423.457 18.7313 423.597 19.4453 423.597 20.304V20.696H418.235C418.263 21.116 418.361 21.5033 418.529 21.858C418.706 22.2033 418.953 22.4833 419.271 22.698C419.588 22.9033 419.966 23.006 420.405 23.006C420.787 23.006 421.095 22.9453 421.329 22.824C421.571 22.6933 421.763 22.544 421.903 22.376C422.043 22.208 422.136 22.0633 422.183 21.942C422.239 21.8113 422.267 21.746 422.267 21.746H423.513C423.513 21.746 423.489 21.83 423.443 21.998C423.396 22.1567 423.312 22.3527 423.191 22.586C423.069 22.8193 422.892 23.0573 422.659 23.3C422.425 23.5333 422.127 23.734 421.763 23.902C421.399 24.0607 420.946 24.14 420.405 24.14ZM418.249 19.66H422.295C422.276 19.1747 422.173 18.7827 421.987 18.484C421.8 18.176 421.562 17.9473 421.273 17.798C420.983 17.6487 420.675 17.574 420.349 17.574C419.761 17.574 419.28 17.7653 418.907 18.148C418.533 18.5213 418.314 19.0253 418.249 19.66ZM429.36 24.14C428.893 24.14 428.501 24.0653 428.184 23.916C427.866 23.7667 427.61 23.5893 427.414 23.384C427.227 23.1787 427.078 22.992 426.966 22.824H426.882V24H425.552V13.36H426.882V17.756H426.966C427.078 17.5787 427.227 17.3873 427.414 17.182C427.61 16.9767 427.866 16.804 428.184 16.664C428.501 16.5147 428.893 16.44 429.36 16.44C429.92 16.44 430.41 16.552 430.83 16.776C431.25 16.9907 431.6 17.2847 431.88 17.658C432.16 18.022 432.37 18.4327 432.51 18.89C432.65 19.3473 432.72 19.814 432.72 20.29C432.72 20.766 432.65 21.2327 432.51 21.69C432.37 22.1473 432.16 22.5627 431.88 22.936C431.6 23.3 431.25 23.594 430.83 23.818C430.41 24.0327 429.92 24.14 429.36 24.14ZM429.136 23.006C429.64 23.006 430.055 22.8753 430.382 22.614C430.718 22.3433 430.965 22.0027 431.124 21.592C431.292 21.172 431.376 20.738 431.376 20.29C431.376 19.8327 431.292 19.3987 431.124 18.988C430.965 18.5773 430.718 18.2413 430.382 17.98C430.055 17.7093 429.64 17.574 429.136 17.574C428.641 17.574 428.226 17.7093 427.89 17.98C427.563 18.2413 427.316 18.5773 427.148 18.988C426.989 19.3987 426.91 19.8327 426.91 20.29C426.91 20.738 426.989 21.172 427.148 21.592C427.316 22.0027 427.563 22.3433 427.89 22.614C428.226 22.8753 428.641 23.006 429.136 23.006ZM438.443 20.178V19.058H443.651V20.178H438.443ZM453.267 24.126C452.623 24.126 452.054 23.986 451.559 23.706C451.064 23.4167 450.649 23.0293 450.313 22.544C449.986 22.0493 449.734 21.48 449.557 20.836C449.389 20.192 449.305 19.5153 449.305 18.806C449.305 18.0873 449.389 17.4107 449.557 16.776C449.734 16.132 449.986 15.5627 450.313 15.068C450.649 14.5733 451.064 14.186 451.559 13.906C452.054 13.626 452.623 13.486 453.267 13.486C453.911 13.486 454.48 13.626 454.975 13.906C455.47 14.186 455.88 14.5733 456.207 15.068C456.543 15.5627 456.795 16.132 456.963 16.776C457.14 17.4107 457.229 18.0873 457.229 18.806C457.229 19.5153 457.14 20.192 456.963 20.836C456.795 21.48 456.543 22.0493 456.207 22.544C455.88 23.0293 455.47 23.4167 454.975 23.706C454.48 23.986 453.911 24.126 453.267 24.126ZM453.267 22.866C454.004 22.866 454.611 22.5253 455.087 21.844C455.572 21.1533 455.815 20.1407 455.815 18.806C455.815 17.4713 455.572 16.4633 455.087 15.782C454.611 15.1007 454.004 14.76 453.267 14.76C452.53 14.76 451.918 15.1007 451.433 15.782C450.957 16.4633 450.719 17.4713 450.719 18.806C450.719 20.1313 450.957 21.1393 451.433 21.83C451.918 22.5207 452.53 22.866 453.267 22.866ZM461.846 13.64V24H460.502V15.964L458.556 15.978V15.194L458.906 15.082C459.401 14.9233 459.797 14.7507 460.096 14.564C460.404 14.3773 460.689 14.1207 460.95 13.794L461.076 13.64H461.846ZM467.589 24V16.58H468.919V17.658H468.975C469.05 17.518 469.167 17.3547 469.325 17.168C469.484 16.972 469.699 16.804 469.969 16.664C470.249 16.5147 470.599 16.44 471.019 16.44C471.57 16.44 472.032 16.5753 472.405 16.846C472.788 17.1073 473.073 17.462 473.259 17.91H473.273C473.479 17.4993 473.768 17.154 474.141 16.874C474.524 16.5847 475.019 16.44 475.625 16.44C476.428 16.44 477.044 16.7153 477.473 17.266C477.912 17.8073 478.131 18.5073 478.131 19.366V24H476.801V19.436C476.801 18.8853 476.671 18.442 476.409 18.106C476.148 17.7607 475.77 17.588 475.275 17.588C474.846 17.588 474.501 17.7047 474.239 17.938C473.987 18.1713 473.805 18.4607 473.693 18.806C473.581 19.1513 473.525 19.4967 473.525 19.842V24H472.195V19.436C472.195 18.8853 472.065 18.442 471.803 18.106C471.551 17.7607 471.173 17.588 470.669 17.588C470.24 17.588 469.895 17.7047 469.633 17.938C469.381 18.1713 469.199 18.4653 469.087 18.82C468.975 19.1653 468.919 19.506 468.919 19.842V24H467.589ZM483.305 16.44C483.772 16.44 484.164 16.5147 484.481 16.664C484.799 16.8133 485.055 16.9907 485.251 17.196C485.447 17.392 485.597 17.5787 485.699 17.756H485.783V16.58H487.113V24H485.783V22.824H485.699C485.597 23.0013 485.447 23.1927 485.251 23.398C485.055 23.6033 484.799 23.7807 484.481 23.93C484.164 24.07 483.772 24.14 483.305 24.14C482.745 24.14 482.255 24.0327 481.835 23.818C481.415 23.594 481.065 23.3 480.785 22.936C480.505 22.5627 480.295 22.1473 480.155 21.69C480.015 21.2327 479.945 20.766 479.945 20.29C479.945 19.814 480.015 19.3473 480.155 18.89C480.295 18.4327 480.505 18.022 480.785 17.658C481.065 17.2847 481.415 16.9907 481.835 16.776C482.255 16.552 482.745 16.44 483.305 16.44ZM483.529 17.574C483.035 17.574 482.619 17.7093 482.283 17.98C481.947 18.2413 481.695 18.5773 481.527 18.988C481.369 19.3987 481.289 19.8327 481.289 20.29C481.289 20.738 481.369 21.172 481.527 21.592C481.695 22.0027 481.947 22.3433 482.283 22.614C482.619 22.8753 483.035 23.006 483.529 23.006C484.024 23.006 484.435 22.8753 484.761 22.614C485.097 22.3433 485.345 22.0027 485.503 21.592C485.671 21.172 485.755 20.738 485.755 20.29C485.755 19.8327 485.671 19.3987 485.503 18.988C485.345 18.5773 485.097 18.2413 484.761 17.98C484.435 17.7093 484.024 17.574 483.529 17.574ZM489.068 24V16.58H490.398V17.504H490.454C490.613 17.224 490.846 16.9767 491.154 16.762C491.462 16.5473 491.896 16.44 492.456 16.44C492.615 16.44 492.759 16.4493 492.89 16.468C493.021 16.4773 493.086 16.482 493.086 16.482V17.756C493.086 17.756 493.011 17.7513 492.862 17.742C492.722 17.7233 492.573 17.714 492.414 17.714C491.77 17.714 491.271 17.9007 490.916 18.274C490.571 18.638 490.398 19.2353 490.398 20.066V24H489.068Z" fill="#8B8B8B"/>
<circle cx="149" cy="20" r="5.57143" stroke="#8B8B8B" stroke-width="0.857143"/>
<defs>
<filter id="filter0_d_738_60" x="0" y="0" width="515" height="208" filterUnits="userSpaceOnUse" color-interpolation-filters="sRGB">
<feFlood flood-opacity="0" result="BackgroundImageFix"/>
<feColorMatrix in="SourceAlpha" type="matrix" values="0 0 0 0 0 0 0 0 0 0 0 0 0 0 0 0 0 0 127 0" result="hardAlpha"/>
<feMorphology radius="1" operator="dilate" in="SourceAlpha" result="effect1_dropShadow_738_60"/>
<feOffset dx="1" dy="1"/>
<feGaussianBlur stdDeviation="2"/>
<feComposite in2="hardAlpha" operator="out"/>
<feColorMatrix type="matrix" values="0 0 0 0 0 0 0 0 0 0 0 0 0 0 0 0 0 0 0.15 0"/>
<feBlend mode="normal" in2="BackgroundImageFix" result="effect1_dropShadow_738_60"/>
<feBlend mode="normal" in="SourceGraphic" in2="effect1_dropShadow_738_60" result="shape"/>
</filter>
</defs>
</svg>
