<svg width="515" height="208" viewBox="0 0 515 208" fill="none" xmlns="http://www.w3.org/2000/svg">
<g filter="url(#filter0_d_738_16)">
<rect x="4" y="4" width="505" height="198" rx="10" fill="white"/>
</g>
<path d="M46.3333 79.5047C46.3333 80.9775 47.5272 82.1714 49 82.1714C50.4728 82.1714 51.6667 80.9775 51.6667 79.5047C51.6667 78.0319 50.4728 76.838 49 76.838C47.5272 76.838 46.3333 78.0319 46.3333 79.5047ZM108.018 123.216L107.72 123.618L107.969 123.803L108.245 123.661L108.018 123.216ZM193.405 79.5047L193.748 79.1415L193.492 78.8986L193.177 79.0596L193.405 79.5047ZM274.272 156L273.928 156.363L274.265 156.682L274.608 156.37L274.272 156ZM333.289 102.401L333.629 102.034L333.292 101.723L332.953 102.031L333.289 102.401ZM391.302 156L390.963 156.367L391.287 156.666L391.624 156.383L391.302 156ZM487.333 73C487.333 74.4728 488.527 75.6667 490 75.6667C491.473 75.6667 492.667 74.4728 492.667 73C492.667 71.5272 491.473 70.3333 490 70.3333C488.527 70.3333 487.333 71.5272 487.333 73ZM48.7024 79.9065L107.72 123.618L108.315 122.815L49.2976 79.1029L48.7024 79.9065ZM108.245 123.661L193.633 79.9498L193.177 79.0596L107.79 122.771L108.245 123.661ZM193.061 79.8679L273.928 156.363L274.615 155.637L193.748 79.1415L193.061 79.8679ZM274.608 156.37L333.625 102.771L332.953 102.031L273.935 155.63L274.608 156.37ZM332.95 102.769L390.963 156.367L391.642 155.633L333.629 102.034L332.95 102.769ZM391.624 156.383L490.322 73.3827L489.678 72.6173L390.981 155.617L391.624 156.383Z" fill="#414141"/>
<path d="M22.766 25V16.292H19.574V14.64H27.862V16.292H24.67V25H22.766ZM31.5184 25.14C30.8837 25.14 30.3331 25.0327 29.8664 24.818C29.4091 24.594 29.0264 24.3 28.7184 23.936C28.4197 23.5627 28.1957 23.1473 28.0464 22.69C27.8971 22.2327 27.8224 21.766 27.8224 21.29C27.8224 20.814 27.8924 20.352 28.0324 19.904C28.1817 19.4467 28.4011 19.0313 28.6904 18.658C28.9891 18.2847 29.3671 17.9907 29.8244 17.776C30.2817 17.552 30.8231 17.44 31.4484 17.44C32.1204 17.44 32.7131 17.5893 33.2264 17.888C33.7397 18.1867 34.1411 18.6253 34.4304 19.204C34.7197 19.7733 34.8644 20.4827 34.8644 21.332V21.808H29.6984C29.7264 22.312 29.8991 22.7507 30.2164 23.124C30.5337 23.488 30.9677 23.67 31.5184 23.67C31.8357 23.67 32.0971 23.6187 32.3024 23.516C32.5077 23.4133 32.6664 23.2967 32.7784 23.166C32.8904 23.026 32.9697 22.9093 33.0164 22.816C33.0631 22.7133 33.0864 22.662 33.0864 22.662H34.8084C34.8084 22.662 34.7851 22.746 34.7384 22.914C34.6917 23.0727 34.6031 23.278 34.4724 23.53C34.3511 23.7727 34.1691 24.02 33.9264 24.272C33.6837 24.5147 33.3664 24.72 32.9744 24.888C32.5824 25.056 32.0971 25.14 31.5184 25.14ZM29.6984 20.59H33.0724C33.0444 20.0113 32.8717 19.582 32.5544 19.302C32.2371 19.022 31.8637 18.882 31.4344 18.882C30.9584 18.882 30.5617 19.036 30.2444 19.344C29.9271 19.6427 29.7451 20.058 29.6984 20.59ZM36.4383 25V17.58H38.3003V18.644H38.3843C38.459 18.5133 38.5756 18.3547 38.7343 18.168C38.893 17.972 39.1123 17.804 39.3923 17.664C39.6723 17.5147 40.027 17.44 40.4563 17.44C41.0256 17.44 41.4923 17.5707 41.8563 17.832C42.2296 18.084 42.505 18.42 42.6823 18.84C42.869 19.26 42.9623 19.7127 42.9623 20.198V25H41.1003V20.45C41.1003 20.0487 40.9883 19.7033 40.7643 19.414C40.5403 19.1247 40.2043 18.98 39.7563 18.98C39.411 18.98 39.131 19.0687 38.9163 19.246C38.7016 19.414 38.543 19.6333 38.4403 19.904C38.347 20.1747 38.3003 20.4593 38.3003 20.758V25H36.4383ZM47.8194 25.14C47.2688 25.14 46.7881 25.0327 46.3774 24.818C45.9668 24.594 45.6214 24.3 45.3414 23.936C45.0708 23.5627 44.8654 23.1473 44.7254 22.69C44.5948 22.2327 44.5294 21.766 44.5294 21.29C44.5294 20.814 44.5948 20.3473 44.7254 19.89C44.8654 19.4327 45.0708 19.022 45.3414 18.658C45.6214 18.2847 45.9668 17.9907 46.3774 17.776C46.7881 17.552 47.2688 17.44 47.8194 17.44C48.2954 17.44 48.6874 17.5193 48.9954 17.678C49.3034 17.8273 49.5461 17.9953 49.7234 18.182C49.9008 18.3593 50.0221 18.504 50.0874 18.616H50.1714V14.36H52.0334V25H50.1714V23.964H50.0874C50.0221 24.076 49.9008 24.2253 49.7234 24.412C49.5461 24.5987 49.3034 24.7667 48.9954 24.916C48.6874 25.0653 48.2954 25.14 47.8194 25.14ZM48.3094 23.614C48.7294 23.614 49.0794 23.502 49.3594 23.278C49.6394 23.0447 49.8494 22.7507 49.9894 22.396C50.1294 22.0413 50.1994 21.6727 50.1994 21.29C50.1994 20.9073 50.1294 20.5387 49.9894 20.184C49.8494 19.8293 49.6394 19.54 49.3594 19.316C49.0794 19.0827 48.7294 18.966 48.3094 18.966C47.8894 18.966 47.5348 19.0827 47.2454 19.316C46.9654 19.54 46.7554 19.8293 46.6154 20.184C46.4754 20.5387 46.4054 20.9073 46.4054 21.29C46.4054 21.6727 46.4754 22.0413 46.6154 22.396C46.7554 22.7507 46.9654 23.0447 47.2454 23.278C47.5348 23.502 47.8894 23.614 48.3094 23.614ZM57.4403 25.14C56.8056 25.14 56.2549 25.0327 55.7883 24.818C55.3309 24.594 54.9483 24.3 54.6403 23.936C54.3416 23.5627 54.1176 23.1473 53.9683 22.69C53.8189 22.2327 53.7443 21.766 53.7443 21.29C53.7443 20.814 53.8143 20.352 53.9543 19.904C54.1036 19.4467 54.3229 19.0313 54.6123 18.658C54.9109 18.2847 55.2889 17.9907 55.7463 17.776C56.2036 17.552 56.7449 17.44 57.3703 17.44C58.0423 17.44 58.6349 17.5893 59.1483 17.888C59.6616 18.1867 60.0629 18.6253 60.3523 19.204C60.6416 19.7733 60.7863 20.4827 60.7863 21.332V21.808H55.6203C55.6483 22.312 55.8209 22.7507 56.1383 23.124C56.4556 23.488 56.8896 23.67 57.4403 23.67C57.7576 23.67 58.0189 23.6187 58.2243 23.516C58.4296 23.4133 58.5883 23.2967 58.7003 23.166C58.8123 23.026 58.8916 22.9093 58.9383 22.816C58.9849 22.7133 59.0083 22.662 59.0083 22.662H60.7303C60.7303 22.662 60.7069 22.746 60.6603 22.914C60.6136 23.0727 60.5249 23.278 60.3943 23.53C60.2729 23.7727 60.0909 24.02 59.8483 24.272C59.6056 24.5147 59.2883 24.72 58.8963 24.888C58.5043 25.056 58.0189 25.14 57.4403 25.14ZM55.6203 20.59H58.9943C58.9663 20.0113 58.7936 19.582 58.4763 19.302C58.1589 19.022 57.7856 18.882 57.3563 18.882C56.8803 18.882 56.4836 19.036 56.1663 19.344C55.8489 19.6427 55.6669 20.058 55.6203 20.59ZM62.3602 25V17.58H64.2222V18.644H64.3062C64.3809 18.5133 64.4975 18.3547 64.6562 18.168C64.8149 17.972 65.0342 17.804 65.3142 17.664C65.5942 17.5147 65.9489 17.44 66.3782 17.44C66.9475 17.44 67.4142 17.5707 67.7782 17.832C68.1515 18.084 68.4269 18.42 68.6042 18.84C68.7909 19.26 68.8842 19.7127 68.8842 20.198V25H67.0222V20.45C67.0222 20.0487 66.9102 19.7033 66.6862 19.414C66.4622 19.1247 66.1262 18.98 65.6782 18.98C65.3329 18.98 65.0529 19.0687 64.8382 19.246C64.6235 19.414 64.4649 19.6333 64.3622 19.904C64.2689 20.1747 64.2222 20.4593 64.2222 20.758V25H62.3602ZM74.2453 25.14C73.6106 25.14 73.0553 25.0327 72.5793 24.818C72.1033 24.594 71.7066 24.3 71.3893 23.936C71.072 23.5627 70.834 23.1473 70.6753 22.69C70.526 22.2327 70.4513 21.766 70.4513 21.29C70.4513 20.814 70.526 20.3473 70.6753 19.89C70.834 19.4327 71.0673 19.022 71.3753 18.658C71.6926 18.2847 72.0893 17.9907 72.5653 17.776C73.0413 17.552 73.6013 17.44 74.2453 17.44C74.88 17.44 75.4073 17.5333 75.8273 17.72C76.2473 17.9067 76.5786 18.14 76.8213 18.42C77.0733 18.7 77.26 18.98 77.3813 19.26C77.5026 19.5307 77.582 19.7593 77.6193 19.946C77.6566 20.1327 77.6753 20.226 77.6753 20.226H75.9253C75.9253 20.226 75.9066 20.1653 75.8693 20.044C75.832 19.9133 75.7573 19.764 75.6453 19.596C75.5333 19.428 75.3653 19.2787 75.1413 19.148C74.9266 19.0173 74.6373 18.952 74.2733 18.952C73.844 18.952 73.48 19.064 73.1813 19.288C72.892 19.5027 72.6726 19.7873 72.5233 20.142C72.374 20.4967 72.2993 20.8793 72.2993 21.29C72.2993 21.7007 72.374 22.0833 72.5233 22.438C72.6726 22.7927 72.892 23.082 73.1813 23.306C73.48 23.5207 73.844 23.628 74.2733 23.628C74.6373 23.628 74.9266 23.5627 75.1413 23.432C75.3653 23.3013 75.5333 23.152 75.6453 22.984C75.7573 22.816 75.832 22.6713 75.8693 22.55C75.9066 22.4193 75.9253 22.354 75.9253 22.354H77.6753C77.6753 22.354 77.6566 22.4473 77.6193 22.634C77.582 22.8207 77.5026 23.054 77.3813 23.334C77.26 23.6047 77.0733 23.88 76.8213 24.16C76.5786 24.44 76.2473 24.6733 75.8273 24.86C75.4073 25.0467 74.88 25.14 74.2453 25.14ZM80.4196 16.432C80.093 16.432 79.8223 16.3247 79.6076 16.11C79.4023 15.8953 79.2996 15.6387 79.2996 15.34C79.2996 15.0413 79.4023 14.7847 79.6076 14.57C79.8223 14.3553 80.093 14.248 80.4196 14.248C80.7463 14.248 81.017 14.3553 81.2316 14.57C81.4463 14.7847 81.5536 15.0413 81.5536 15.34C81.5536 15.6387 81.4463 15.8953 81.2316 16.11C81.017 16.3247 80.7463 16.432 80.4196 16.432ZM79.4956 25V17.58H81.3576V25H79.4956ZM86.4698 17.44C86.9458 17.44 87.3378 17.5193 87.6458 17.678C87.9538 17.8273 88.1965 17.9953 88.3738 18.182C88.5512 18.3593 88.6725 18.504 88.7378 18.616H88.8218V17.58H90.6838V25H88.8218V23.964H88.7378C88.6725 24.076 88.5512 24.2253 88.3738 24.412C88.1965 24.5987 87.9538 24.7667 87.6458 24.916C87.3378 25.0653 86.9458 25.14 86.4698 25.14C85.9192 25.14 85.4385 25.0327 85.0278 24.818C84.6172 24.594 84.2718 24.3 83.9918 23.936C83.7212 23.5627 83.5158 23.1473 83.3758 22.69C83.2452 22.2327 83.1798 21.766 83.1798 21.29C83.1798 20.814 83.2452 20.3473 83.3758 19.89C83.5158 19.4327 83.7212 19.022 83.9918 18.658C84.2718 18.2847 84.6172 17.9907 85.0278 17.776C85.4385 17.552 85.9192 17.44 86.4698 17.44ZM86.9598 18.966C86.5398 18.966 86.1852 19.0827 85.8958 19.316C85.6158 19.54 85.4058 19.8293 85.2658 20.184C85.1258 20.5387 85.0558 20.9073 85.0558 21.29C85.0558 21.6727 85.1258 22.0413 85.2658 22.396C85.4058 22.7507 85.6158 23.0447 85.8958 23.278C86.1852 23.502 86.5398 23.614 86.9598 23.614C87.3798 23.614 87.7298 23.502 88.0098 23.278C88.2898 23.0447 88.4998 22.7507 88.6398 22.396C88.7798 22.0413 88.8498 21.6727 88.8498 21.29C88.8498 20.9073 88.7798 20.5387 88.6398 20.184C88.4998 19.8293 88.2898 19.54 88.0098 19.316C87.7298 19.0827 87.3798 18.966 86.9598 18.966ZM98.8292 25.14C98.2785 25.14 97.7979 25.0327 97.3872 24.818C96.9765 24.594 96.6312 24.3 96.3512 23.936C96.0805 23.5627 95.8752 23.1473 95.7352 22.69C95.6045 22.2327 95.5392 21.766 95.5392 21.29C95.5392 20.814 95.6045 20.3473 95.7352 19.89C95.8752 19.4327 96.0805 19.022 96.3512 18.658C96.6312 18.2847 96.9765 17.9907 97.3872 17.776C97.7979 17.552 98.2785 17.44 98.8292 17.44C99.3052 17.44 99.6972 17.5193 100.005 17.678C100.313 17.8273 100.556 17.9953 100.733 18.182C100.911 18.3593 101.032 18.504 101.097 18.616H101.181V14.36H103.043V25H101.181V23.964H101.097C101.032 24.076 100.911 24.2253 100.733 24.412C100.556 24.5987 100.313 24.7667 100.005 24.916C99.6972 25.0653 99.3052 25.14 98.8292 25.14ZM99.3192 23.614C99.7392 23.614 100.089 23.502 100.369 23.278C100.649 23.0447 100.859 22.7507 100.999 22.396C101.139 22.0413 101.209 21.6727 101.209 21.29C101.209 20.9073 101.139 20.5387 100.999 20.184C100.859 19.8293 100.649 19.54 100.369 19.316C100.089 19.0827 99.7392 18.966 99.3192 18.966C98.8992 18.966 98.5445 19.0827 98.2552 19.316C97.9752 19.54 97.7652 19.8293 97.6252 20.184C97.4852 20.5387 97.4152 20.9073 97.4152 21.29C97.4152 21.6727 97.4852 22.0413 97.6252 22.396C97.7652 22.7507 97.9752 23.0447 98.2552 23.278C98.5445 23.502 98.8992 23.614 99.3192 23.614ZM108.45 25.14C107.815 25.14 107.265 25.0327 106.798 24.818C106.341 24.594 105.958 24.3 105.65 23.936C105.351 23.5627 105.127 23.1473 104.978 22.69C104.829 22.2327 104.754 21.766 104.754 21.29C104.754 20.814 104.824 20.352 104.964 19.904C105.113 19.4467 105.333 19.0313 105.622 18.658C105.921 18.2847 106.299 17.9907 106.756 17.776C107.213 17.552 107.755 17.44 108.38 17.44C109.052 17.44 109.645 17.5893 110.158 17.888C110.671 18.1867 111.073 18.6253 111.362 19.204C111.651 19.7733 111.796 20.4827 111.796 21.332V21.808H106.63C106.658 22.312 106.831 22.7507 107.148 23.124C107.465 23.488 107.899 23.67 108.45 23.67C108.767 23.67 109.029 23.6187 109.234 23.516C109.439 23.4133 109.598 23.2967 109.71 23.166C109.822 23.026 109.901 22.9093 109.948 22.816C109.995 22.7133 110.018 22.662 110.018 22.662H111.74C111.74 22.662 111.717 22.746 111.67 22.914C111.623 23.0727 111.535 23.278 111.404 23.53C111.283 23.7727 111.101 24.02 110.858 24.272C110.615 24.5147 110.298 24.72 109.906 24.888C109.514 25.056 109.029 25.14 108.45 25.14ZM106.63 20.59H110.004C109.976 20.0113 109.803 19.582 109.486 19.302C109.169 19.022 108.795 18.882 108.366 18.882C107.89 18.882 107.493 19.036 107.176 19.344C106.859 19.6427 106.677 20.058 106.63 20.59ZM119.997 25.14C119.493 25.14 119.078 25.0653 118.751 24.916C118.425 24.7667 118.168 24.5707 117.981 24.328C117.804 24.0853 117.678 23.8193 117.603 23.53C117.529 23.2407 117.491 22.956 117.491 22.676V19.078H116.217V17.58H117.491V15.732H119.353V17.58H121.019V19.078H119.353V22.634C119.353 23.2967 119.727 23.628 120.473 23.628C120.651 23.628 120.814 23.6187 120.963 23.6C121.122 23.572 121.201 23.558 121.201 23.558V25.014C121.201 25.014 121.08 25.0327 120.837 25.07C120.604 25.1167 120.324 25.14 119.997 25.14ZM125.074 25.14C124.299 25.14 123.711 24.902 123.31 24.426C122.918 23.95 122.722 23.3387 122.722 22.592V17.58H124.57V22.284C124.57 22.6853 124.677 23.0073 124.892 23.25C125.106 23.4833 125.41 23.6 125.802 23.6C126.147 23.6 126.427 23.5113 126.642 23.334C126.856 23.1567 127.01 22.928 127.104 22.648C127.206 22.368 127.258 22.0787 127.258 21.78V17.58H129.12V25H127.258V23.936H127.174C127.08 24.104 126.945 24.2813 126.768 24.468C126.6 24.6547 126.376 24.8133 126.096 24.944C125.825 25.0747 125.484 25.14 125.074 25.14ZM130.856 25V17.58H132.704V18.602H132.774C132.905 18.3127 133.12 18.0467 133.418 17.804C133.717 17.5613 134.165 17.44 134.762 17.44C134.949 17.44 135.103 17.454 135.224 17.482C135.346 17.5007 135.406 17.51 135.406 17.51V19.316C135.406 19.316 135.336 19.3067 135.196 19.288C135.066 19.2693 134.902 19.26 134.706 19.26C134.053 19.26 133.558 19.442 133.222 19.806C132.886 20.17 132.718 20.758 132.718 21.57V25H130.856ZM136.681 25V17.58H138.543V18.644H138.627C138.701 18.5133 138.818 18.3547 138.977 18.168C139.135 17.972 139.355 17.804 139.635 17.664C139.915 17.5147 140.269 17.44 140.699 17.44C141.268 17.44 141.735 17.5707 142.099 17.832C142.472 18.084 142.747 18.42 142.925 18.84C143.111 19.26 143.204 19.7127 143.204 20.198V25H141.343V20.45C141.343 20.0487 141.231 19.7033 141.007 19.414C140.783 19.1247 140.447 18.98 139.999 18.98C139.653 18.98 139.373 19.0687 139.159 19.246C138.944 19.414 138.785 19.6333 138.683 19.904C138.589 20.1747 138.543 20.4593 138.543 20.758V25H136.681ZM148.58 25.14C147.768 25.14 147.077 24.958 146.508 24.594C145.938 24.23 145.504 23.7587 145.206 23.18C144.916 22.592 144.772 21.962 144.772 21.29C144.772 20.618 144.916 19.9927 145.206 19.414C145.504 18.826 145.938 18.35 146.508 17.986C147.077 17.622 147.768 17.44 148.58 17.44C149.401 17.44 150.092 17.622 150.652 17.986C151.221 18.35 151.65 18.826 151.94 19.414C152.238 19.9927 152.388 20.618 152.388 21.29C152.388 21.962 152.238 22.592 151.94 23.18C151.65 23.7587 151.221 24.23 150.652 24.594C150.092 24.958 149.401 25.14 148.58 25.14ZM148.58 23.586C149 23.586 149.35 23.4787 149.63 23.264C149.919 23.0493 150.138 22.7693 150.288 22.424C150.437 22.0693 150.512 21.6913 150.512 21.29C150.512 20.8793 150.437 20.5013 150.288 20.156C150.138 19.8107 149.919 19.5307 149.63 19.316C149.35 19.1013 149 18.994 148.58 18.994C148.169 18.994 147.819 19.1013 147.53 19.316C147.24 19.5307 147.021 19.8107 146.872 20.156C146.722 20.5013 146.648 20.8793 146.648 21.29C146.648 21.6913 146.722 22.0693 146.872 22.424C147.021 22.7693 147.24 23.0493 147.53 23.264C147.819 23.4787 148.169 23.586 148.58 23.586ZM157.012 25.14C156.406 25.14 155.906 25.0607 155.514 24.902C155.122 24.734 154.81 24.5287 154.576 24.286C154.352 24.034 154.184 23.7867 154.072 23.544C153.96 23.3013 153.886 23.1007 153.848 22.942C153.82 22.774 153.806 22.69 153.806 22.69H155.57C155.57 22.69 155.584 22.7413 155.612 22.844C155.65 22.9467 155.715 23.068 155.808 23.208C155.911 23.3387 156.065 23.4553 156.27 23.558C156.476 23.6607 156.746 23.712 157.082 23.712C157.484 23.712 157.773 23.628 157.95 23.46C158.128 23.2827 158.216 23.0867 158.216 22.872C158.216 22.6667 158.137 22.5033 157.978 22.382C157.829 22.2513 157.605 22.1533 157.306 22.088L156.284 21.878C155.874 21.794 155.491 21.6727 155.136 21.514C154.782 21.346 154.492 21.122 154.268 20.842C154.044 20.5527 153.932 20.184 153.932 19.736C153.932 19.0733 154.184 18.5273 154.688 18.098C155.192 17.6593 155.878 17.44 156.746 17.44C157.297 17.44 157.75 17.5147 158.104 17.664C158.468 17.8133 158.758 18 158.972 18.224C159.196 18.448 159.36 18.672 159.462 18.896C159.574 19.12 159.644 19.3113 159.672 19.47C159.71 19.6193 159.728 19.694 159.728 19.694H158.02C158.02 19.694 158.006 19.652 157.978 19.568C157.95 19.4747 157.89 19.372 157.796 19.26C157.712 19.148 157.582 19.05 157.404 18.966C157.236 18.8727 157.008 18.826 156.718 18.826C156.326 18.826 156.046 18.91 155.878 19.078C155.72 19.246 155.64 19.4233 155.64 19.61C155.64 19.8153 155.729 19.974 155.906 20.086C156.084 20.198 156.312 20.282 156.592 20.338L157.558 20.548C158.249 20.688 158.814 20.9307 159.252 21.276C159.7 21.6213 159.924 22.1207 159.924 22.774C159.924 23.2127 159.808 23.614 159.574 23.978C159.35 24.3327 159.019 24.6173 158.58 24.832C158.151 25.0373 157.628 25.14 157.012 25.14ZM168.308 25.14C167.673 25.14 167.118 25.0327 166.642 24.818C166.166 24.594 165.769 24.3 165.452 23.936C165.134 23.5627 164.896 23.1473 164.738 22.69C164.588 22.2327 164.514 21.766 164.514 21.29C164.514 20.814 164.588 20.3473 164.738 19.89C164.896 19.4327 165.13 19.022 165.438 18.658C165.755 18.2847 166.152 17.9907 166.628 17.776C167.104 17.552 167.664 17.44 168.308 17.44C168.942 17.44 169.47 17.5333 169.89 17.72C170.31 17.9067 170.641 18.14 170.884 18.42C171.136 18.7 171.322 18.98 171.444 19.26C171.565 19.5307 171.644 19.7593 171.682 19.946C171.719 20.1327 171.738 20.226 171.738 20.226H169.988C169.988 20.226 169.969 20.1653 169.932 20.044C169.894 19.9133 169.82 19.764 169.708 19.596C169.596 19.428 169.428 19.2787 169.204 19.148C168.989 19.0173 168.7 18.952 168.336 18.952C167.906 18.952 167.542 19.064 167.244 19.288C166.954 19.5027 166.735 19.7873 166.586 20.142C166.436 20.4967 166.362 20.8793 166.362 21.29C166.362 21.7007 166.436 22.0833 166.586 22.438C166.735 22.7927 166.954 23.082 167.244 23.306C167.542 23.5207 167.906 23.628 168.336 23.628C168.7 23.628 168.989 23.5627 169.204 23.432C169.428 23.3013 169.596 23.152 169.708 22.984C169.82 22.816 169.894 22.6713 169.932 22.55C169.969 22.4193 169.988 22.354 169.988 22.354H171.738C171.738 22.354 171.719 22.4473 171.682 22.634C171.644 22.8207 171.565 23.054 171.444 23.334C171.322 23.6047 171.136 23.88 170.884 24.16C170.641 24.44 170.31 24.6733 169.89 24.86C169.47 25.0467 168.942 25.14 168.308 25.14ZM177.003 25.14C176.191 25.14 175.501 24.958 174.931 24.594C174.362 24.23 173.928 23.7587 173.629 23.18C173.34 22.592 173.195 21.962 173.195 21.29C173.195 20.618 173.34 19.9927 173.629 19.414C173.928 18.826 174.362 18.35 174.931 17.986C175.501 17.622 176.191 17.44 177.003 17.44C177.825 17.44 178.515 17.622 179.075 17.986C179.645 18.35 180.074 18.826 180.363 19.414C180.662 19.9927 180.811 20.618 180.811 21.29C180.811 21.962 180.662 22.592 180.363 23.18C180.074 23.7587 179.645 24.23 179.075 24.594C178.515 24.958 177.825 25.14 177.003 25.14ZM177.003 23.586C177.423 23.586 177.773 23.4787 178.053 23.264C178.343 23.0493 178.562 22.7693 178.711 22.424C178.861 22.0693 178.935 21.6913 178.935 21.29C178.935 20.8793 178.861 20.5013 178.711 20.156C178.562 19.8107 178.343 19.5307 178.053 19.316C177.773 19.1013 177.423 18.994 177.003 18.994C176.593 18.994 176.243 19.1013 175.953 19.316C175.664 19.5307 175.445 19.8107 175.295 20.156C175.146 20.5013 175.071 20.8793 175.071 21.29C175.071 21.6913 175.146 22.0693 175.295 22.424C175.445 22.7693 175.664 23.0493 175.953 23.264C176.243 23.4787 176.593 23.586 177.003 23.586ZM182.386 25V17.58H184.248V18.616H184.318C184.411 18.448 184.542 18.2753 184.71 18.098C184.878 17.9113 185.092 17.7573 185.354 17.636C185.624 17.5053 185.956 17.44 186.348 17.44C186.898 17.44 187.351 17.5707 187.706 17.832C188.06 18.0933 188.322 18.4293 188.49 18.84H188.518C188.704 18.4853 188.98 18.1633 189.344 17.874C189.717 17.5847 190.212 17.44 190.828 17.44C191.35 17.44 191.784 17.5613 192.13 17.804C192.484 18.0373 192.746 18.3547 192.914 18.756C193.091 19.1573 193.18 19.5913 193.18 20.058V25H191.318V20.45C191.318 20.0207 191.21 19.6707 190.996 19.4C190.79 19.12 190.482 18.98 190.072 18.98C189.745 18.98 189.479 19.0687 189.274 19.246C189.078 19.414 188.933 19.6287 188.84 19.89C188.756 20.1513 188.714 20.4173 188.714 20.688V25H186.852V20.45C186.852 20.0207 186.749 19.6707 186.544 19.4C186.338 19.12 186.026 18.98 185.606 18.98C185.279 18.98 185.013 19.0687 184.808 19.246C184.612 19.414 184.467 19.6333 184.374 19.904C184.29 20.1653 184.248 20.4267 184.248 20.688V25H182.386ZM195.049 27.744V17.58H196.911V18.616H197.009C197.074 18.504 197.191 18.3547 197.359 18.168C197.536 17.9813 197.779 17.8133 198.087 17.664C198.395 17.5147 198.787 17.44 199.263 17.44C199.823 17.44 200.308 17.552 200.719 17.776C201.13 17.9907 201.47 18.2847 201.741 18.658C202.012 19.022 202.212 19.4327 202.343 19.89C202.483 20.3473 202.553 20.814 202.553 21.29C202.553 21.766 202.483 22.2327 202.343 22.69C202.212 23.1473 202.012 23.5627 201.741 23.936C201.47 24.3 201.13 24.594 200.719 24.818C200.308 25.0327 199.823 25.14 199.263 25.14C198.787 25.14 198.395 25.0653 198.087 24.916C197.779 24.7573 197.536 24.5847 197.359 24.398C197.191 24.2113 197.074 24.0667 197.009 23.964H196.911V27.744H195.049ZM196.883 21.29C196.883 21.6727 196.953 22.0413 197.093 22.396C197.233 22.7507 197.443 23.0447 197.723 23.278C198.003 23.502 198.353 23.614 198.773 23.614C199.202 23.614 199.557 23.502 199.837 23.278C200.117 23.0447 200.327 22.7507 200.467 22.396C200.607 22.0413 200.677 21.6727 200.677 21.29C200.677 20.9073 200.607 20.5387 200.467 20.184C200.327 19.8293 200.117 19.54 199.837 19.316C199.557 19.0827 199.202 18.966 198.773 18.966C198.353 18.966 198.003 19.0827 197.723 19.316C197.443 19.54 197.233 19.8293 197.093 20.184C196.953 20.5387 196.883 20.9073 196.883 21.29ZM204.264 25L204.278 14.36H206.126V25H204.264ZM211.536 25.14C210.901 25.14 210.351 25.0327 209.884 24.818C209.427 24.594 209.044 24.3 208.736 23.936C208.437 23.5627 208.213 23.1473 208.064 22.69C207.915 22.2327 207.84 21.766 207.84 21.29C207.84 20.814 207.91 20.352 208.05 19.904C208.199 19.4467 208.419 19.0313 208.708 18.658C209.007 18.2847 209.385 17.9907 209.842 17.776C210.299 17.552 210.841 17.44 211.466 17.44C212.138 17.44 212.731 17.5893 213.244 17.888C213.757 18.1867 214.159 18.6253 214.448 19.204C214.737 19.7733 214.882 20.4827 214.882 21.332V21.808H209.716C209.744 22.312 209.917 22.7507 210.234 23.124C210.551 23.488 210.985 23.67 211.536 23.67C211.853 23.67 212.115 23.6187 212.32 23.516C212.525 23.4133 212.684 23.2967 212.796 23.166C212.908 23.026 212.987 22.9093 213.034 22.816C213.081 22.7133 213.104 22.662 213.104 22.662H214.826C214.826 22.662 214.803 22.746 214.756 22.914C214.709 23.0727 214.621 23.278 214.49 23.53C214.369 23.7727 214.187 24.02 213.944 24.272C213.701 24.5147 213.384 24.72 212.992 24.888C212.6 25.056 212.115 25.14 211.536 25.14ZM209.716 20.59H213.09C213.062 20.0113 212.889 19.582 212.572 19.302C212.255 19.022 211.881 18.882 211.452 18.882C210.976 18.882 210.579 19.036 210.262 19.344C209.945 19.6427 209.763 20.058 209.716 20.59ZM219.72 25.14C219.216 25.14 218.801 25.0653 218.474 24.916C218.147 24.7667 217.891 24.5707 217.704 24.328C217.527 24.0853 217.401 23.8193 217.326 23.53C217.251 23.2407 217.214 22.956 217.214 22.676V19.078H215.94V17.58H217.214V15.732H219.076V17.58H220.742V19.078H219.076V22.634C219.076 23.2967 219.449 23.628 220.196 23.628C220.373 23.628 220.537 23.6187 220.686 23.6C220.845 23.572 220.924 23.558 220.924 23.558V25.014C220.924 25.014 220.803 25.0327 220.56 25.07C220.327 25.1167 220.047 25.14 219.72 25.14ZM225.458 17.44C225.934 17.44 226.326 17.5193 226.634 17.678C226.942 17.8273 227.185 17.9953 227.362 18.182C227.539 18.3593 227.661 18.504 227.726 18.616H227.81V17.58H229.672V25H227.81V23.964H227.726C227.661 24.076 227.539 24.2253 227.362 24.412C227.185 24.5987 226.942 24.7667 226.634 24.916C226.326 25.0653 225.934 25.14 225.458 25.14C224.907 25.14 224.427 25.0327 224.016 24.818C223.605 24.594 223.26 24.3 222.98 23.936C222.709 23.5627 222.504 23.1473 222.364 22.69C222.233 22.2327 222.168 21.766 222.168 21.29C222.168 20.814 222.233 20.3473 222.364 19.89C222.504 19.4327 222.709 19.022 222.98 18.658C223.26 18.2847 223.605 17.9907 224.016 17.776C224.427 17.552 224.907 17.44 225.458 17.44ZM225.948 18.966C225.528 18.966 225.173 19.0827 224.884 19.316C224.604 19.54 224.394 19.8293 224.254 20.184C224.114 20.5387 224.044 20.9073 224.044 21.29C224.044 21.6727 224.114 22.0413 224.254 22.396C224.394 22.7507 224.604 23.0447 224.884 23.278C225.173 23.502 225.528 23.614 225.948 23.614C226.368 23.614 226.718 23.502 226.998 23.278C227.278 23.0447 227.488 22.7507 227.628 22.396C227.768 22.0413 227.838 21.6727 227.838 21.29C227.838 20.9073 227.768 20.5387 227.628 20.184C227.488 19.8293 227.278 19.54 226.998 19.316C226.718 19.0827 226.368 18.966 225.948 18.966ZM234.646 25.14C234.095 25.14 233.614 25.0327 233.204 24.818C232.793 24.594 232.448 24.3 232.168 23.936C231.897 23.5627 231.692 23.1473 231.552 22.69C231.421 22.2327 231.356 21.766 231.356 21.29C231.356 20.814 231.421 20.3473 231.552 19.89C231.692 19.4327 231.897 19.022 232.168 18.658C232.448 18.2847 232.793 17.9907 233.204 17.776C233.614 17.552 234.095 17.44 234.646 17.44C235.122 17.44 235.514 17.5193 235.822 17.678C236.13 17.8273 236.372 17.9953 236.55 18.182C236.727 18.3593 236.848 18.504 236.914 18.616H236.998V14.36H238.86V25H236.998V23.964H236.914C236.848 24.076 236.727 24.2253 236.55 24.412C236.372 24.5987 236.13 24.7667 235.822 24.916C235.514 25.0653 235.122 25.14 234.646 25.14ZM235.136 23.614C235.556 23.614 235.906 23.502 236.186 23.278C236.466 23.0447 236.676 22.7507 236.816 22.396C236.956 22.0413 237.026 21.6727 237.026 21.29C237.026 20.9073 236.956 20.5387 236.816 20.184C236.676 19.8293 236.466 19.54 236.186 19.316C235.906 19.0827 235.556 18.966 235.136 18.966C234.716 18.966 234.361 19.0827 234.072 19.316C233.792 19.54 233.582 19.8293 233.442 20.184C233.302 20.5387 233.232 20.9073 233.232 21.29C233.232 21.6727 233.302 22.0413 233.442 22.396C233.582 22.7507 233.792 23.0447 234.072 23.278C234.361 23.502 234.716 23.614 235.136 23.614ZM244.378 25.14C243.566 25.14 242.876 24.958 242.306 24.594C241.737 24.23 241.303 23.7587 241.004 23.18C240.715 22.592 240.57 21.962 240.57 21.29C240.57 20.618 240.715 19.9927 241.004 19.414C241.303 18.826 241.737 18.35 242.306 17.986C242.876 17.622 243.566 17.44 244.378 17.44C245.2 17.44 245.89 17.622 246.45 17.986C247.02 18.35 247.449 18.826 247.738 19.414C248.037 19.9927 248.186 20.618 248.186 21.29C248.186 21.962 248.037 22.592 247.738 23.18C247.449 23.7587 247.02 24.23 246.45 24.594C245.89 24.958 245.2 25.14 244.378 25.14ZM244.378 23.586C244.798 23.586 245.148 23.4787 245.428 23.264C245.718 23.0493 245.937 22.7693 246.086 22.424C246.236 22.0693 246.31 21.6913 246.31 21.29C246.31 20.8793 246.236 20.5013 246.086 20.156C245.937 19.8107 245.718 19.5307 245.428 19.316C245.148 19.1013 244.798 18.994 244.378 18.994C243.968 18.994 243.618 19.1013 243.328 19.316C243.039 19.5307 242.82 19.8107 242.67 20.156C242.521 20.5013 242.446 20.8793 242.446 21.29C242.446 21.6913 242.521 22.0693 242.67 22.424C242.82 22.7693 243.039 23.0493 243.328 23.264C243.618 23.4787 243.968 23.586 244.378 23.586ZM252.811 25.14C252.205 25.14 251.705 25.0607 251.313 24.902C250.921 24.734 250.609 24.5287 250.375 24.286C250.151 24.034 249.983 23.7867 249.871 23.544C249.759 23.3013 249.685 23.1007 249.647 22.942C249.619 22.774 249.605 22.69 249.605 22.69H251.369C251.369 22.69 251.383 22.7413 251.411 22.844C251.449 22.9467 251.514 23.068 251.607 23.208C251.71 23.3387 251.864 23.4553 252.069 23.558C252.275 23.6607 252.545 23.712 252.881 23.712C253.283 23.712 253.572 23.628 253.749 23.46C253.927 23.2827 254.015 23.0867 254.015 22.872C254.015 22.6667 253.936 22.5033 253.777 22.382C253.628 22.2513 253.404 22.1533 253.105 22.088L252.083 21.878C251.673 21.794 251.29 21.6727 250.935 21.514C250.581 21.346 250.291 21.122 250.067 20.842C249.843 20.5527 249.731 20.184 249.731 19.736C249.731 19.0733 249.983 18.5273 250.487 18.098C250.991 17.6593 251.677 17.44 252.545 17.44C253.096 17.44 253.549 17.5147 253.903 17.664C254.267 17.8133 254.557 18 254.771 18.224C254.995 18.448 255.159 18.672 255.261 18.896C255.373 19.12 255.443 19.3113 255.471 19.47C255.509 19.6193 255.527 19.694 255.527 19.694H253.819C253.819 19.694 253.805 19.652 253.777 19.568C253.749 19.4747 253.689 19.372 253.595 19.26C253.511 19.148 253.381 19.05 253.203 18.966C253.035 18.8727 252.807 18.826 252.517 18.826C252.125 18.826 251.845 18.91 251.677 19.078C251.519 19.246 251.439 19.4233 251.439 19.61C251.439 19.8153 251.528 19.974 251.705 20.086C251.883 20.198 252.111 20.282 252.391 20.338L253.357 20.548C254.048 20.688 254.613 20.9307 255.051 21.276C255.499 21.6213 255.723 22.1207 255.723 22.774C255.723 23.2127 255.607 23.614 255.373 23.978C255.149 24.3327 254.818 24.6173 254.379 24.832C253.95 25.0373 253.427 25.14 252.811 25.14Z" fill="#414141"/>
<path d="M29 159.676L20.12 162.736L20.12 161.032L27.344 158.608L20.12 156.184L20.12 154.48L29 157.552L29 159.676ZM29.12 150.955C29.12 151.651 28.964 152.243 28.652 152.731C28.34 153.219 27.936 153.591 27.44 153.847C26.936 154.095 26.396 154.219 25.82 154.219C25.244 154.219 24.708 154.095 24.212 153.847C23.708 153.591 23.3 153.219 22.988 152.731C22.676 152.243 22.52 151.651 22.52 150.955C22.52 150.251 22.676 149.659 22.988 149.179C23.3 148.691 23.708 148.323 24.212 148.075C24.708 147.819 25.244 147.691 25.82 147.691C26.396 147.691 26.936 147.819 27.44 148.075C27.936 148.323 28.34 148.691 28.652 149.179C28.964 149.659 29.12 150.251 29.12 150.955ZM27.788 150.955C27.788 150.595 27.696 150.295 27.512 150.055C27.328 149.807 27.088 149.619 26.792 149.491C26.488 149.363 26.164 149.299 25.82 149.299C25.468 149.299 25.144 149.363 24.848 149.491C24.552 149.619 24.312 149.807 24.128 150.055C23.944 150.295 23.852 150.595 23.852 150.955C23.852 151.307 23.944 151.607 24.128 151.855C24.312 152.103 24.552 152.291 24.848 152.419C25.144 152.547 25.468 152.611 25.82 152.611C26.164 152.611 26.488 152.547 26.792 152.419C27.088 152.291 27.328 152.103 27.512 151.855C27.696 151.607 27.788 151.307 27.788 150.955ZM29 146.222L19.88 146.21L19.88 144.626L29 144.626L29 146.222ZM29.12 140.998C29.12 141.662 28.916 142.166 28.508 142.51C28.1 142.846 27.576 143.014 26.936 143.014L22.64 143.014L22.64 141.43L26.672 141.43C27.016 141.43 27.292 141.338 27.5 141.154C27.7 140.97 27.8 140.71 27.8 140.374C27.8 140.078 27.724 139.838 27.572 139.654C27.42 139.47 27.224 139.338 26.984 139.258C26.744 139.17 26.496 139.126 26.24 139.126L22.64 139.126L22.64 137.53L29 137.53L29 139.126L28.088 139.126L28.088 139.198C28.232 139.278 28.384 139.394 28.544 139.546C28.704 139.69 28.84 139.882 28.952 140.122C29.064 140.354 29.12 140.646 29.12 140.998ZM29 136.041L22.64 136.041L22.64 134.445L23.528 134.445L23.528 134.385C23.384 134.305 23.236 134.193 23.084 134.049C22.924 133.905 22.792 133.721 22.688 133.497C22.576 133.265 22.52 132.981 22.52 132.645C22.52 132.173 22.632 131.785 22.856 131.481C23.08 131.177 23.368 130.953 23.72 130.809L23.72 130.785C23.416 130.625 23.14 130.389 22.892 130.077C22.644 129.757 22.52 129.333 22.52 128.805C22.52 128.357 22.624 127.985 22.832 127.689C23.032 127.385 23.304 127.161 23.648 127.017C23.992 126.865 24.364 126.789 24.764 126.789L29 126.789L29 128.385L25.1 128.385C24.732 128.385 24.432 128.477 24.2 128.661C23.96 128.837 23.84 129.101 23.84 129.453C23.84 129.733 23.916 129.961 24.068 130.137C24.212 130.305 24.396 130.429 24.62 130.509C24.844 130.581 25.072 130.617 25.304 130.617L29 130.617L29 132.213L25.1 132.213C24.732 132.213 24.432 132.301 24.2 132.477C23.96 132.653 23.84 132.921 23.84 133.281C23.84 133.561 23.916 133.789 24.068 133.965C24.212 134.133 24.4 134.257 24.632 134.337C24.856 134.409 25.08 134.445 25.304 134.445L29 134.445L29 136.041ZM29.12 122.282C29.12 122.826 29.028 123.298 28.844 123.698C28.652 124.09 28.4 124.418 28.088 124.682C27.768 124.938 27.412 125.13 27.02 125.258C26.628 125.386 26.228 125.45 25.82 125.45C25.412 125.45 25.016 125.39 24.632 125.27C24.24 125.142 23.884 124.954 23.564 124.706C23.244 124.45 22.992 124.126 22.808 123.734C22.616 123.342 22.52 122.878 22.52 122.342C22.52 121.766 22.648 121.258 22.904 120.818C23.16 120.378 23.536 120.034 24.032 119.786C24.52 119.538 25.128 119.414 25.856 119.414L26.264 119.414L26.264 123.842C26.696 123.818 27.072 123.67 27.392 123.398C27.704 123.126 27.86 122.754 27.86 122.282C27.86 122.01 27.816 121.786 27.728 121.61C27.64 121.434 27.54 121.298 27.428 121.202C27.308 121.106 27.208 121.038 27.128 120.998C27.04 120.958 26.996 120.938 26.996 120.938L26.996 119.462C26.996 119.462 27.068 119.482 27.212 119.522C27.348 119.562 27.524 119.638 27.74 119.75C27.948 119.854 28.16 120.01 28.376 120.218C28.584 120.426 28.76 120.698 28.904 121.034C29.048 121.37 29.12 121.786 29.12 122.282ZM25.22 123.842L25.22 120.95C24.724 120.974 24.356 121.122 24.116 121.394C23.876 121.666 23.756 121.986 23.756 122.354C23.756 122.762 23.888 123.102 24.152 123.374C24.408 123.646 24.764 123.802 25.22 123.842ZM29 118.065L22.64 118.065L22.64 116.469L23.552 116.469L23.552 116.397C23.44 116.333 23.304 116.233 23.144 116.097C22.976 115.961 22.832 115.773 22.712 115.533C22.584 115.293 22.52 114.989 22.52 114.621C22.52 114.133 22.632 113.733 22.856 113.421C23.072 113.101 23.36 112.865 23.72 112.713C24.08 112.553 24.468 112.473 24.884 112.473L29 112.473L29 114.069L25.1 114.069C24.756 114.069 24.46 114.165 24.212 114.357C23.964 114.549 23.84 114.837 23.84 115.221C23.84 115.517 23.916 115.757 24.068 115.941C24.212 116.125 24.4 116.261 24.632 116.349C24.864 116.429 25.108 116.469 25.364 116.469L29 116.469L29 118.065ZM29.12 105.497C29.12 105.969 29.028 106.381 28.844 106.733C28.652 107.085 28.4 107.381 28.088 107.621C27.768 107.853 27.412 108.029 27.02 108.149C26.628 108.261 26.228 108.317 25.82 108.317C25.412 108.317 25.012 108.261 24.62 108.149C24.228 108.029 23.876 107.853 23.564 107.621C23.244 107.381 22.992 107.085 22.808 106.733C22.616 106.381 22.52 105.969 22.52 105.497C22.52 105.089 22.588 104.753 22.724 104.489C22.852 104.225 22.996 104.017 23.156 103.865C23.308 103.713 23.432 103.609 23.528 103.553L23.528 103.481L19.88 103.481L19.88 101.885L29 101.885L29 103.481L28.112 103.481L28.112 103.553C28.208 103.609 28.336 103.713 28.496 103.865C28.656 104.017 28.8 104.225 28.928 104.489C29.056 104.753 29.12 105.089 29.12 105.497ZM27.812 105.077C27.812 104.717 27.716 104.417 27.524 104.177C27.324 103.937 27.072 103.757 26.768 103.637C26.464 103.517 26.148 103.457 25.82 103.457C25.492 103.457 25.176 103.517 24.872 103.637C24.568 103.757 24.32 103.937 24.128 104.177C23.928 104.417 23.828 104.717 23.828 105.077C23.828 105.437 23.928 105.741 24.128 105.989C24.32 106.229 24.568 106.409 24.872 106.529C25.176 106.649 25.492 106.709 25.82 106.709C26.148 106.709 26.464 106.649 26.768 106.529C27.072 106.409 27.324 106.229 27.524 105.989C27.716 105.741 27.812 105.437 27.812 105.077ZM29.12 97.2504C29.12 97.7944 29.028 98.2664 28.844 98.6664C28.652 99.0584 28.4 99.3864 28.088 99.6504C27.768 99.9064 27.412 100.098 27.02 100.226C26.628 100.354 26.228 100.418 25.82 100.418C25.412 100.418 25.016 100.358 24.632 100.238C24.24 100.11 23.884 99.9224 23.564 99.6744C23.244 99.4184 22.992 99.0944 22.808 98.7024C22.616 98.3104 22.52 97.8464 22.52 97.3104C22.52 96.7344 22.648 96.2264 22.904 95.7864C23.16 95.3464 23.536 95.0024 24.032 94.7544C24.52 94.5064 25.128 94.3824 25.856 94.3824L26.264 94.3824L26.264 98.8104C26.696 98.7864 27.072 98.6384 27.392 98.3664C27.704 98.0944 27.86 97.7224 27.86 97.2504C27.86 96.9784 27.816 96.7544 27.728 96.5784C27.64 96.4024 27.54 96.2664 27.428 96.1704C27.308 96.0744 27.208 96.0064 27.128 95.9664C27.04 95.9264 26.996 95.9064 26.996 95.9064L26.996 94.4304C26.996 94.4304 27.068 94.4504 27.212 94.4904C27.348 94.5304 27.524 94.6064 27.74 94.7184C27.948 94.8224 28.16 94.9784 28.376 95.1864C28.584 95.3944 28.76 95.6664 28.904 96.0024C29.048 96.3384 29.12 96.7544 29.12 97.2504ZM25.22 98.8104L25.22 95.9184C24.724 95.9424 24.356 96.0904 24.116 96.3624C23.876 96.6344 23.756 96.9544 23.756 97.3224C23.756 97.7304 23.888 98.0704 24.152 98.3424C24.408 98.6144 24.764 98.7704 25.22 98.8104ZM29.12 87.3528C29.12 87.7848 29.056 88.1408 28.928 88.4208C28.8 88.7008 28.632 88.9208 28.424 89.0808C28.216 89.2328 27.988 89.3408 27.74 89.4048C27.492 89.4688 27.248 89.5008 27.008 89.5008L23.924 89.5008L23.924 90.5928L22.64 90.5928L22.64 89.5008L21.056 89.5008L21.056 87.9048L22.64 87.9048L22.64 86.4768L23.924 86.4768L23.924 87.9048L26.972 87.9048C27.54 87.9048 27.824 87.5848 27.824 86.9448C27.824 86.7928 27.816 86.6528 27.8 86.5248C27.776 86.3888 27.764 86.3208 27.764 86.3208L29.012 86.3208C29.012 86.3208 29.028 86.4248 29.06 86.6328C29.1 86.8328 29.12 87.0728 29.12 87.3528ZM29.12 83.0017C29.12 83.6657 28.916 84.1697 28.508 84.5137C28.1 84.8497 27.576 85.0177 26.936 85.0177L22.64 85.0177L22.64 83.4337L26.672 83.4337C27.016 83.4337 27.292 83.3417 27.5 83.1577C27.7 82.9737 27.8 82.7137 27.8 82.3777C27.8 82.0817 27.724 81.8417 27.572 81.6577C27.42 81.4737 27.224 81.3417 26.984 81.2617C26.744 81.1737 26.496 81.1297 26.24 81.1297L22.64 81.1297L22.64 79.5337L29 79.5337L29 81.1297L28.088 81.1297L28.088 81.2017C28.232 81.2817 28.384 81.3977 28.544 81.5497C28.704 81.6937 28.84 81.8857 28.952 82.1257C29.064 82.3577 29.12 82.6497 29.12 83.0017ZM29 78.0451L22.64 78.0451L22.64 76.4611L23.516 76.4611L23.516 76.4011C23.268 76.2891 23.04 76.1051 22.832 75.8491C22.624 75.5931 22.52 75.2091 22.52 74.6971C22.52 74.5371 22.532 74.4051 22.556 74.3011C22.572 74.1971 22.58 74.1451 22.58 74.1451L24.128 74.1451C24.128 74.1451 24.12 74.2051 24.104 74.3251C24.088 74.4371 24.08 74.5771 24.08 74.7451C24.08 75.3051 24.236 75.7291 24.548 76.0171C24.86 76.3051 25.364 76.4491 26.06 76.4491L29 76.4491L29 78.0451ZM29 73.0529L22.64 73.0529L22.64 71.4569L23.552 71.4569L23.552 71.3849C23.44 71.3209 23.304 71.2209 23.144 71.0849C22.976 70.9489 22.832 70.7609 22.712 70.5209C22.584 70.2809 22.52 69.9769 22.52 69.6089C22.52 69.1209 22.632 68.7209 22.856 68.4089C23.072 68.0889 23.36 67.8529 23.72 67.7009C24.08 67.5409 24.468 67.4609 24.884 67.4609L29 67.4609L29 69.0569L25.1 69.0569C24.756 69.0569 24.46 69.1529 24.212 69.3449C23.964 69.5369 23.84 69.8249 23.84 70.2089C23.84 70.5049 23.916 70.7449 24.068 70.9289C24.212 71.1129 24.4 71.2489 24.632 71.3369C24.864 71.4169 25.108 71.4569 25.364 71.4569L29 71.4569L29 73.0529ZM29.12 62.8536C29.12 63.5496 28.964 64.1416 28.652 64.6296C28.34 65.1176 27.936 65.4896 27.44 65.7456C26.936 65.9936 26.396 66.1176 25.82 66.1176C25.244 66.1176 24.708 65.9936 24.212 65.7456C23.708 65.4896 23.3 65.1176 22.988 64.6296C22.676 64.1416 22.52 63.5496 22.52 62.8536C22.52 62.1496 22.676 61.5576 22.988 61.0776C23.3 60.5896 23.708 60.2216 24.212 59.9736C24.708 59.7176 25.244 59.5896 25.82 59.5896C26.396 59.5896 26.936 59.7176 27.44 59.9736C27.936 60.2216 28.34 60.5896 28.652 61.0776C28.964 61.5576 29.12 62.1496 29.12 62.8536ZM27.788 62.8536C27.788 62.4936 27.696 62.1936 27.512 61.9536C27.328 61.7056 27.088 61.5176 26.792 61.3896C26.488 61.2616 26.164 61.1976 25.82 61.1976C25.468 61.1976 25.144 61.2616 24.848 61.3896C24.552 61.5176 24.312 61.7056 24.128 61.9536C23.944 62.1936 23.852 62.4936 23.852 62.8536C23.852 63.2056 23.944 63.5056 24.128 63.7536C24.312 64.0016 24.552 64.1896 24.848 64.3176C25.144 64.4456 25.468 64.5096 25.82 64.5096C26.164 64.5096 26.488 64.4456 26.792 64.3176C27.088 64.1896 27.328 64.0016 27.512 63.7536C27.696 63.5056 27.788 63.2056 27.788 62.8536ZM29.12 55.6255C29.12 56.1455 29.052 56.5735 28.916 56.9095C28.772 57.2455 28.596 57.5135 28.388 57.7135C28.172 57.9055 27.96 58.0495 27.752 58.1455C27.544 58.2415 27.372 58.3055 27.236 58.3375C27.092 58.3615 27.02 58.3735 27.02 58.3735L27.02 56.8615C27.02 56.8615 27.064 56.8495 27.152 56.8255C27.24 56.7935 27.344 56.7375 27.464 56.6575C27.576 56.5695 27.676 56.4375 27.764 56.2615C27.852 56.0855 27.896 55.8535 27.896 55.5655C27.896 55.2215 27.824 54.9735 27.68 54.8215C27.528 54.6695 27.36 54.5935 27.176 54.5935C27 54.5935 26.86 54.6615 26.756 54.7975C26.644 54.9255 26.56 55.1175 26.504 55.3735L26.324 56.2495C26.252 56.6015 26.148 56.9295 26.012 57.2335C25.868 57.5375 25.676 57.7855 25.436 57.9775C25.188 58.1695 24.872 58.2655 24.488 58.2655C23.92 58.2655 23.452 58.0495 23.084 57.6175C22.708 57.1855 22.52 56.5975 22.52 55.8535C22.52 55.3815 22.584 54.9935 22.712 54.6895C22.84 54.3775 23 54.1295 23.192 53.9455C23.384 53.7535 23.576 53.6135 23.768 53.5255C23.96 53.4295 24.124 53.3695 24.26 53.3455C24.388 53.3135 24.452 53.2975 24.452 53.2975L24.452 54.7615C24.452 54.7615 24.416 54.7735 24.344 54.7975C24.264 54.8215 24.176 54.8735 24.08 54.9535C23.984 55.0255 23.9 55.1375 23.828 55.2895C23.748 55.4335 23.708 55.6295 23.708 55.8775C23.708 56.2135 23.78 56.4535 23.924 56.5975C24.068 56.7335 24.22 56.8015 24.38 56.8015C24.556 56.8015 24.692 56.7255 24.788 56.5735C24.884 56.4215 24.956 56.2255 25.004 55.9855L25.184 55.1575C25.304 54.5655 25.512 54.0815 25.808 53.7055C26.104 53.3215 26.532 53.1295 27.092 53.1295C27.468 53.1295 27.812 53.2295 28.124 53.4295C28.428 53.6215 28.672 53.9055 28.856 54.2815C29.032 54.6495 29.12 55.0975 29.12 55.6255Z" fill="#414141"/>
<path d="M397.732 24.126C397.088 24.126 396.519 23.986 396.024 23.706C395.529 23.4167 395.114 23.0293 394.778 22.544C394.451 22.0493 394.199 21.48 394.022 20.836C393.854 20.192 393.77 19.5153 393.77 18.806C393.77 18.0873 393.854 17.4107 394.022 16.776C394.199 16.132 394.451 15.5627 394.778 15.068C395.114 14.5733 395.529 14.186 396.024 13.906C396.519 13.626 397.088 13.486 397.732 13.486C398.376 13.486 398.945 13.626 399.44 13.906C399.935 14.186 400.345 14.5733 400.672 15.068C401.008 15.5627 401.26 16.132 401.428 16.776C401.605 17.4107 401.694 18.0873 401.694 18.806C401.694 19.5153 401.605 20.192 401.428 20.836C401.26 21.48 401.008 22.0493 400.672 22.544C400.345 23.0293 399.935 23.4167 399.44 23.706C398.945 23.986 398.376 24.126 397.732 24.126ZM397.732 22.866C398.469 22.866 399.076 22.5253 399.552 21.844C400.037 21.1533 400.28 20.1407 400.28 18.806C400.28 17.4713 400.037 16.4633 399.552 15.782C399.076 15.1007 398.469 14.76 397.732 14.76C396.995 14.76 396.383 15.1007 395.898 15.782C395.422 16.4633 395.184 17.4713 395.184 18.806C395.184 20.1313 395.422 21.1393 395.898 21.83C396.383 22.5207 396.995 22.866 397.732 22.866ZM406.311 13.64V24H404.967V15.964L403.021 15.978V15.194L403.371 15.082C403.866 14.9233 404.262 14.7507 404.561 14.564C404.869 14.3773 405.154 14.1207 405.415 13.794L405.541 13.64H406.311ZM412.922 24V17.672H411.704V16.58H412.922V15.67C412.922 15.278 412.992 14.8953 413.132 14.522C413.272 14.1393 413.506 13.8267 413.832 13.584C414.159 13.3413 414.602 13.22 415.162 13.22C415.433 13.22 415.648 13.2433 415.806 13.29C415.974 13.3273 416.058 13.346 416.058 13.346V14.396C416.058 14.396 415.984 14.382 415.834 14.354C415.694 14.3167 415.531 14.298 415.344 14.298C414.915 14.298 414.626 14.4287 414.476 14.69C414.327 14.9513 414.252 15.278 414.252 15.67V16.58H415.974V17.672H414.252V24H412.922ZM420.405 24.14C419.798 24.14 419.271 24.0327 418.823 23.818C418.384 23.594 418.02 23.2953 417.731 22.922C417.451 22.5487 417.241 22.138 417.101 21.69C416.961 21.2327 416.891 20.766 416.891 20.29C416.891 19.8233 416.956 19.3613 417.087 18.904C417.227 18.4467 417.437 18.0313 417.717 17.658C418.006 17.2847 418.365 16.9907 418.795 16.776C419.233 16.552 419.751 16.44 420.349 16.44C420.983 16.44 421.543 16.5847 422.029 16.874C422.514 17.1633 422.897 17.5927 423.177 18.162C423.457 18.7313 423.597 19.4453 423.597 20.304V20.696H418.235C418.263 21.116 418.361 21.5033 418.529 21.858C418.706 22.2033 418.953 22.4833 419.271 22.698C419.588 22.9033 419.966 23.006 420.405 23.006C420.787 23.006 421.095 22.9453 421.329 22.824C421.571 22.6933 421.763 22.544 421.903 22.376C422.043 22.208 422.136 22.0633 422.183 21.942C422.239 21.8113 422.267 21.746 422.267 21.746H423.513C423.513 21.746 423.489 21.83 423.443 21.998C423.396 22.1567 423.312 22.3527 423.191 22.586C423.069 22.8193 422.892 23.0573 422.659 23.3C422.425 23.5333 422.127 23.734 421.763 23.902C421.399 24.0607 420.946 24.14 420.405 24.14ZM418.249 19.66H422.295C422.276 19.1747 422.173 18.7827 421.987 18.484C421.8 18.176 421.562 17.9473 421.273 17.798C420.983 17.6487 420.675 17.574 420.349 17.574C419.761 17.574 419.28 17.7653 418.907 18.148C418.533 18.5213 418.314 19.0253 418.249 19.66ZM429.36 24.14C428.893 24.14 428.501 24.0653 428.184 23.916C427.866 23.7667 427.61 23.5893 427.414 23.384C427.227 23.1787 427.078 22.992 426.966 22.824H426.882V24H425.552V13.36H426.882V17.756H426.966C427.078 17.5787 427.227 17.3873 427.414 17.182C427.61 16.9767 427.866 16.804 428.184 16.664C428.501 16.5147 428.893 16.44 429.36 16.44C429.92 16.44 430.41 16.552 430.83 16.776C431.25 16.9907 431.6 17.2847 431.88 17.658C432.16 18.022 432.37 18.4327 432.51 18.89C432.65 19.3473 432.72 19.814 432.72 20.29C432.72 20.766 432.65 21.2327 432.51 21.69C432.37 22.1473 432.16 22.5627 431.88 22.936C431.6 23.3 431.25 23.594 430.83 23.818C430.41 24.0327 429.92 24.14 429.36 24.14ZM429.136 23.006C429.64 23.006 430.055 22.8753 430.382 22.614C430.718 22.3433 430.965 22.0027 431.124 21.592C431.292 21.172 431.376 20.738 431.376 20.29C431.376 19.8327 431.292 19.3987 431.124 18.988C430.965 18.5773 430.718 18.2413 430.382 17.98C430.055 17.7093 429.64 17.574 429.136 17.574C428.641 17.574 428.226 17.7093 427.89 17.98C427.563 18.2413 427.316 18.5773 427.148 18.988C426.989 19.3987 426.91 19.8327 426.91 20.29C426.91 20.738 426.989 21.172 427.148 21.592C427.316 22.0027 427.563 22.3433 427.89 22.614C428.226 22.8753 428.641 23.006 429.136 23.006ZM438.443 20.178V19.058H443.651V20.178H438.443ZM453.267 24.126C452.623 24.126 452.054 23.986 451.559 23.706C451.064 23.4167 450.649 23.0293 450.313 22.544C449.986 22.0493 449.734 21.48 449.557 20.836C449.389 20.192 449.305 19.5153 449.305 18.806C449.305 18.0873 449.389 17.4107 449.557 16.776C449.734 16.132 449.986 15.5627 450.313 15.068C450.649 14.5733 451.064 14.186 451.559 13.906C452.054 13.626 452.623 13.486 453.267 13.486C453.911 13.486 454.48 13.626 454.975 13.906C455.47 14.186 455.88 14.5733 456.207 15.068C456.543 15.5627 456.795 16.132 456.963 16.776C457.14 17.4107 457.229 18.0873 457.229 18.806C457.229 19.5153 457.14 20.192 456.963 20.836C456.795 21.48 456.543 22.0493 456.207 22.544C455.88 23.0293 455.47 23.4167 454.975 23.706C454.48 23.986 453.911 24.126 453.267 24.126ZM453.267 22.866C454.004 22.866 454.611 22.5253 455.087 21.844C455.572 21.1533 455.815 20.1407 455.815 18.806C455.815 17.4713 455.572 16.4633 455.087 15.782C454.611 15.1007 454.004 14.76 453.267 14.76C452.53 14.76 451.918 15.1007 451.433 15.782C450.957 16.4633 450.719 17.4713 450.719 18.806C450.719 20.1313 450.957 21.1393 451.433 21.83C451.918 22.5207 452.53 22.866 453.267 22.866ZM461.846 13.64V24H460.502V15.964L458.556 15.978V15.194L458.906 15.082C459.401 14.9233 459.797 14.7507 460.096 14.564C460.404 14.3773 460.689 14.1207 460.95 13.794L461.076 13.64H461.846ZM467.589 24V16.58H468.919V17.658H468.975C469.05 17.518 469.167 17.3547 469.325 17.168C469.484 16.972 469.699 16.804 469.969 16.664C470.249 16.5147 470.599 16.44 471.019 16.44C471.57 16.44 472.032 16.5753 472.405 16.846C472.788 17.1073 473.073 17.462 473.259 17.91H473.273C473.479 17.4993 473.768 17.154 474.141 16.874C474.524 16.5847 475.019 16.44 475.625 16.44C476.428 16.44 477.044 16.7153 477.473 17.266C477.912 17.8073 478.131 18.5073 478.131 19.366V24H476.801V19.436C476.801 18.8853 476.671 18.442 476.409 18.106C476.148 17.7607 475.77 17.588 475.275 17.588C474.846 17.588 474.501 17.7047 474.239 17.938C473.987 18.1713 473.805 18.4607 473.693 18.806C473.581 19.1513 473.525 19.4967 473.525 19.842V24H472.195V19.436C472.195 18.8853 472.065 18.442 471.803 18.106C471.551 17.7607 471.173 17.588 470.669 17.588C470.24 17.588 469.895 17.7047 469.633 17.938C469.381 18.1713 469.199 18.4653 469.087 18.82C468.975 19.1653 468.919 19.506 468.919 19.842V24H467.589ZM483.305 16.44C483.772 16.44 484.164 16.5147 484.481 16.664C484.799 16.8133 485.055 16.9907 485.251 17.196C485.447 17.392 485.597 17.5787 485.699 17.756H485.783V16.58H487.113V24H485.783V22.824H485.699C485.597 23.0013 485.447 23.1927 485.251 23.398C485.055 23.6033 484.799 23.7807 484.481 23.93C484.164 24.07 483.772 24.14 483.305 24.14C482.745 24.14 482.255 24.0327 481.835 23.818C481.415 23.594 481.065 23.3 480.785 22.936C480.505 22.5627 480.295 22.1473 480.155 21.69C480.015 21.2327 479.945 20.766 479.945 20.29C479.945 19.814 480.015 19.3473 480.155 18.89C480.295 18.4327 480.505 18.022 480.785 17.658C481.065 17.2847 481.415 16.9907 481.835 16.776C482.255 16.552 482.745 16.44 483.305 16.44ZM483.529 17.574C483.035 17.574 482.619 17.7093 482.283 17.98C481.947 18.2413 481.695 18.5773 481.527 18.988C481.369 19.3987 481.289 19.8327 481.289 20.29C481.289 20.738 481.369 21.172 481.527 21.592C481.695 22.0027 481.947 22.3433 482.283 22.614C482.619 22.8753 483.035 23.006 483.529 23.006C484.024 23.006 484.435 22.8753 484.761 22.614C485.097 22.3433 485.345 22.0027 485.503 21.592C485.671 21.172 485.755 20.738 485.755 20.29C485.755 19.8327 485.671 19.3987 485.503 18.988C485.345 18.5773 485.097 18.2413 484.761 17.98C484.435 17.7093 484.024 17.574 483.529 17.574ZM489.068 24V16.58H490.398V17.504H490.454C490.613 17.224 490.846 16.9767 491.154 16.762C491.462 16.5473 491.896 16.44 492.456 16.44C492.615 16.44 492.759 16.4493 492.89 16.468C493.021 16.4773 493.086 16.482 493.086 16.482V17.756C493.086 17.756 493.011 17.7513 492.862 17.742C492.722 17.7233 492.573 17.714 492.414 17.714C491.77 17.714 491.271 17.9007 490.916 18.274C490.571 18.638 490.398 19.2353 490.398 20.066V24H489.068Z" fill="#8B8B8B"/>
<path d="M45.718 188.099C45.212 188.099 44.7647 187.989 44.376 187.769C43.9873 187.542 43.661 187.237 43.397 186.856C43.1403 186.467 42.9423 186.02 42.803 185.514C42.671 185.008 42.605 184.476 42.605 183.919C42.605 183.354 42.671 182.823 42.803 182.324C42.9423 181.818 43.1403 181.371 43.397 180.982C43.661 180.593 43.9873 180.289 44.376 180.069C44.7647 179.849 45.212 179.739 45.718 179.739C46.224 179.739 46.6713 179.849 47.06 180.069C47.4487 180.289 47.7713 180.593 48.028 180.982C48.292 181.371 48.49 181.818 48.622 182.324C48.7613 182.823 48.831 183.354 48.831 183.919C48.831 184.476 48.7613 185.008 48.622 185.514C48.49 186.02 48.292 186.467 48.028 186.856C47.7713 187.237 47.4487 187.542 47.06 187.769C46.6713 187.989 46.224 188.099 45.718 188.099ZM45.718 187.109C46.2973 187.109 46.774 186.841 47.148 186.306C47.5293 185.763 47.72 184.968 47.72 183.919C47.72 182.87 47.5293 182.078 47.148 181.543C46.774 181.008 46.2973 180.74 45.718 180.74C45.1387 180.74 44.6583 181.008 44.277 181.543C43.903 182.078 43.716 182.87 43.716 183.919C43.716 184.96 43.903 185.752 44.277 186.295C44.6583 186.838 45.1387 187.109 45.718 187.109ZM52.4586 179.86V188H51.4026V181.686L49.8736 181.697V181.081L50.1486 180.993C50.5373 180.868 50.8489 180.733 51.0836 180.586C51.3256 180.439 51.5493 180.238 51.7546 179.981L51.8536 179.86H52.4586ZM57.6532 188V183.028H56.6962V182.17H57.6532V181.455C57.6532 181.147 57.7082 180.846 57.8182 180.553C57.9282 180.252 58.1115 180.007 58.3682 179.816C58.6248 179.625 58.9732 179.53 59.4132 179.53C59.6258 179.53 59.7945 179.548 59.9192 179.585C60.0512 179.614 60.1172 179.629 60.1172 179.629V180.454C60.1172 180.454 60.0585 180.443 59.9412 180.421C59.8312 180.392 59.7028 180.377 59.5562 180.377C59.2188 180.377 58.9915 180.48 58.8742 180.685C58.7568 180.89 58.6982 181.147 58.6982 181.455V182.17H60.0512V183.028H58.6982V188H57.6532ZM63.5323 188.11C63.0557 188.11 62.6413 188.026 62.2893 187.857C61.9447 187.681 61.6587 187.446 61.4313 187.153C61.2113 186.86 61.0463 186.537 60.9363 186.185C60.8263 185.826 60.7713 185.459 60.7713 185.085C60.7713 184.718 60.8227 184.355 60.9253 183.996C61.0353 183.637 61.2003 183.31 61.4203 183.017C61.6477 182.724 61.93 182.493 62.2673 182.324C62.612 182.148 63.019 182.06 63.4883 182.06C63.987 182.06 64.427 182.174 64.8083 182.401C65.1897 182.628 65.4903 182.966 65.7103 183.413C65.9303 183.86 66.0403 184.421 66.0403 185.096V185.404H61.8273C61.8493 185.734 61.9263 186.038 62.0583 186.317C62.1977 186.588 62.392 186.808 62.6413 186.977C62.8907 187.138 63.1877 187.219 63.5323 187.219C63.833 187.219 64.075 187.171 64.2583 187.076C64.449 186.973 64.5993 186.856 64.7093 186.724C64.8193 186.592 64.8927 186.478 64.9293 186.383C64.9733 186.28 64.9953 186.229 64.9953 186.229H65.9743C65.9743 186.229 65.956 186.295 65.9193 186.427C65.8827 186.552 65.8167 186.706 65.7213 186.889C65.626 187.072 65.4867 187.259 65.3033 187.45C65.12 187.633 64.8853 187.791 64.5993 187.923C64.3133 188.048 63.9577 188.11 63.5323 188.11ZM61.8383 184.59H65.0173C65.0027 184.209 64.922 183.901 64.7753 183.666C64.6287 183.424 64.4417 183.244 64.2143 183.127C63.987 183.01 63.745 182.951 63.4883 182.951C63.0263 182.951 62.6487 183.101 62.3553 183.402C62.062 183.695 61.8897 184.091 61.8383 184.59ZM70.5683 188.11C70.2016 188.11 69.8936 188.051 69.6443 187.934C69.395 187.817 69.1933 187.677 69.0393 187.516C68.8926 187.355 68.7753 187.208 68.6873 187.076H68.6213V188H67.5763V179.64H68.6213V183.094H68.6873C68.7753 182.955 68.8926 182.804 69.0393 182.643C69.1933 182.482 69.395 182.346 69.6443 182.236C69.8936 182.119 70.2016 182.06 70.5683 182.06C71.0083 182.06 71.3933 182.148 71.7233 182.324C72.0533 182.493 72.3283 182.724 72.5483 183.017C72.7683 183.303 72.9333 183.626 73.0433 183.985C73.1533 184.344 73.2083 184.711 73.2083 185.085C73.2083 185.459 73.1533 185.826 73.0433 186.185C72.9333 186.544 72.7683 186.871 72.5483 187.164C72.3283 187.45 72.0533 187.681 71.7233 187.857C71.3933 188.026 71.0083 188.11 70.5683 188.11ZM70.3923 187.219C70.7883 187.219 71.1146 187.116 71.3713 186.911C71.6353 186.698 71.8296 186.431 71.9543 186.108C72.0863 185.778 72.1523 185.437 72.1523 185.085C72.1523 184.726 72.0863 184.385 71.9543 184.062C71.8296 183.739 71.6353 183.475 71.3713 183.27C71.1146 183.057 70.7883 182.951 70.3923 182.951C70.0036 182.951 69.6773 183.057 69.4133 183.27C69.1566 183.475 68.9623 183.739 68.8303 184.062C68.7056 184.385 68.6433 184.726 68.6433 185.085C68.6433 185.437 68.7056 185.778 68.8303 186.108C68.9623 186.431 69.1566 186.698 69.4133 186.911C69.6773 187.116 70.0036 187.219 70.3923 187.219Z" fill="#8B8B8B"/>
<path d="M134.718 188.099C134.212 188.099 133.765 187.989 133.376 187.769C132.987 187.542 132.661 187.237 132.397 186.856C132.14 186.467 131.942 186.02 131.803 185.514C131.671 185.008 131.605 184.476 131.605 183.919C131.605 183.354 131.671 182.823 131.803 182.324C131.942 181.818 132.14 181.371 132.397 180.982C132.661 180.593 132.987 180.289 133.376 180.069C133.765 179.849 134.212 179.739 134.718 179.739C135.224 179.739 135.671 179.849 136.06 180.069C136.449 180.289 136.771 180.593 137.028 180.982C137.292 181.371 137.49 181.818 137.622 182.324C137.761 182.823 137.831 183.354 137.831 183.919C137.831 184.476 137.761 185.008 137.622 185.514C137.49 186.02 137.292 186.467 137.028 186.856C136.771 187.237 136.449 187.542 136.06 187.769C135.671 187.989 135.224 188.099 134.718 188.099ZM134.718 187.109C135.297 187.109 135.774 186.841 136.148 186.306C136.529 185.763 136.72 184.968 136.72 183.919C136.72 182.87 136.529 182.078 136.148 181.543C135.774 181.008 135.297 180.74 134.718 180.74C134.139 180.74 133.658 181.008 133.277 181.543C132.903 182.078 132.716 182.87 132.716 183.919C132.716 184.96 132.903 185.752 133.277 186.295C133.658 186.838 134.139 187.109 134.718 187.109ZM140.317 188C140.339 187.296 140.431 186.629 140.592 185.998C140.754 185.36 140.955 184.766 141.197 184.216C141.439 183.666 141.692 183.171 141.956 182.731C142.22 182.284 142.47 181.899 142.704 181.576C142.946 181.253 143.144 181 143.298 180.817H138.931V179.86H144.53V180.663C144.53 180.663 144.457 180.747 144.31 180.916C144.164 181.077 143.973 181.312 143.738 181.62C143.511 181.928 143.265 182.302 143.001 182.742C142.745 183.175 142.495 183.666 142.253 184.216C142.019 184.759 141.821 185.349 141.659 185.987C141.498 186.618 141.403 187.289 141.373 188H140.317ZM148.845 188V183.028H147.888V182.17H148.845V181.455C148.845 181.147 148.9 180.846 149.01 180.553C149.12 180.252 149.303 180.007 149.56 179.816C149.816 179.625 150.165 179.53 150.605 179.53C150.817 179.53 150.986 179.548 151.111 179.585C151.243 179.614 151.309 179.629 151.309 179.629V180.454C151.309 180.454 151.25 180.443 151.133 180.421C151.023 180.392 150.894 180.377 150.748 180.377C150.41 180.377 150.183 180.48 150.066 180.685C149.948 180.89 149.89 181.147 149.89 181.455V182.17H151.243V183.028H149.89V188H148.845ZM154.724 188.11C154.247 188.11 153.833 188.026 153.481 187.857C153.136 187.681 152.85 187.446 152.623 187.153C152.403 186.86 152.238 186.537 152.128 186.185C152.018 185.826 151.963 185.459 151.963 185.085C151.963 184.718 152.014 184.355 152.117 183.996C152.227 183.637 152.392 183.31 152.612 183.017C152.839 182.724 153.121 182.493 153.459 182.324C153.803 182.148 154.21 182.06 154.68 182.06C155.178 182.06 155.618 182.174 156 182.401C156.381 182.628 156.682 182.966 156.902 183.413C157.122 183.86 157.232 184.421 157.232 185.096V185.404H153.019C153.041 185.734 153.118 186.038 153.25 186.317C153.389 186.588 153.583 186.808 153.833 186.977C154.082 187.138 154.379 187.219 154.724 187.219C155.024 187.219 155.266 187.171 155.45 187.076C155.64 186.973 155.791 186.856 155.901 186.724C156.011 186.592 156.084 186.478 156.121 186.383C156.165 186.28 156.187 186.229 156.187 186.229H157.166C157.166 186.229 157.147 186.295 157.111 186.427C157.074 186.552 157.008 186.706 156.913 186.889C156.817 187.072 156.678 187.259 156.495 187.45C156.311 187.633 156.077 187.791 155.791 187.923C155.505 188.048 155.149 188.11 154.724 188.11ZM153.03 184.59H156.209C156.194 184.209 156.113 183.901 155.967 183.666C155.82 183.424 155.633 183.244 155.406 183.127C155.178 183.01 154.936 182.951 154.68 182.951C154.218 182.951 153.84 183.101 153.547 183.402C153.253 183.695 153.081 184.091 153.03 184.59ZM161.76 188.11C161.393 188.11 161.085 188.051 160.836 187.934C160.586 187.817 160.385 187.677 160.231 187.516C160.084 187.355 159.967 187.208 159.879 187.076H159.813V188H158.768V179.64H159.813V183.094H159.879C159.967 182.955 160.084 182.804 160.231 182.643C160.385 182.482 160.586 182.346 160.836 182.236C161.085 182.119 161.393 182.06 161.76 182.06C162.2 182.06 162.585 182.148 162.915 182.324C163.245 182.493 163.52 182.724 163.74 183.017C163.96 183.303 164.125 183.626 164.235 183.985C164.345 184.344 164.4 184.711 164.4 185.085C164.4 185.459 164.345 185.826 164.235 186.185C164.125 186.544 163.96 186.871 163.74 187.164C163.52 187.45 163.245 187.681 162.915 187.857C162.585 188.026 162.2 188.11 161.76 188.11ZM161.584 187.219C161.98 187.219 162.306 187.116 162.563 186.911C162.827 186.698 163.021 186.431 163.146 186.108C163.278 185.778 163.344 185.437 163.344 185.085C163.344 184.726 163.278 184.385 163.146 184.062C163.021 183.739 162.827 183.475 162.563 183.27C162.306 183.057 161.98 182.951 161.584 182.951C161.195 182.951 160.869 183.057 160.605 183.27C160.348 183.475 160.154 183.739 160.022 184.062C159.897 184.385 159.835 184.726 159.835 185.085C159.835 185.437 159.897 185.778 160.022 186.108C160.154 186.431 160.348 186.698 160.605 186.911C160.869 187.116 161.195 187.219 161.584 187.219Z" fill="#8B8B8B"/>
<path d="M226.025 179.86V188H224.969V181.686L223.44 181.697V181.081L223.715 180.993C224.104 180.868 224.415 180.733 224.65 180.586C224.892 180.439 225.116 180.238 225.321 179.981L225.42 179.86H226.025ZM231.819 188V186.108L227.837 186.097V185.118L231.577 179.86H232.897V185.173H234.316V186.108H232.897V188H231.819ZM228.948 185.173H231.819V181.125L228.948 185.173ZM239.029 188V183.028H238.072V182.17H239.029V181.455C239.029 181.147 239.084 180.846 239.194 180.553C239.304 180.252 239.487 180.007 239.744 179.816C240.001 179.625 240.349 179.53 240.789 179.53C241.002 179.53 241.17 179.548 241.295 179.585C241.427 179.614 241.493 179.629 241.493 179.629V180.454C241.493 180.454 241.434 180.443 241.317 180.421C241.207 180.392 241.079 180.377 240.932 180.377C240.595 180.377 240.367 180.48 240.25 180.685C240.133 180.89 240.074 181.147 240.074 181.455V182.17H241.427V183.028H240.074V188H239.029ZM244.908 188.11C244.432 188.11 244.017 188.026 243.665 187.857C243.321 187.681 243.035 187.446 242.807 187.153C242.587 186.86 242.422 186.537 242.312 186.185C242.202 185.826 242.147 185.459 242.147 185.085C242.147 184.718 242.199 184.355 242.301 183.996C242.411 183.637 242.576 183.31 242.796 183.017C243.024 182.724 243.306 182.493 243.643 182.324C243.988 182.148 244.395 182.06 244.864 182.06C245.363 182.06 245.803 182.174 246.184 182.401C246.566 182.628 246.866 182.966 247.086 183.413C247.306 183.86 247.416 184.421 247.416 185.096V185.404H243.203C243.225 185.734 243.302 186.038 243.434 186.317C243.574 186.588 243.768 186.808 244.017 186.977C244.267 187.138 244.564 187.219 244.908 187.219C245.209 187.219 245.451 187.171 245.634 187.076C245.825 186.973 245.975 186.856 246.085 186.724C246.195 186.592 246.269 186.478 246.305 186.383C246.349 186.28 246.371 186.229 246.371 186.229H247.35C247.35 186.229 247.332 186.295 247.295 186.427C247.259 186.552 247.193 186.706 247.097 186.889C247.002 187.072 246.863 187.259 246.679 187.45C246.496 187.633 246.261 187.791 245.975 187.923C245.689 188.048 245.334 188.11 244.908 188.11ZM243.214 184.59H246.393C246.379 184.209 246.298 183.901 246.151 183.666C246.005 183.424 245.818 183.244 245.59 183.127C245.363 183.01 245.121 182.951 244.864 182.951C244.402 182.951 244.025 183.101 243.731 183.402C243.438 183.695 243.266 184.091 243.214 184.59ZM251.944 188.11C251.578 188.11 251.27 188.051 251.02 187.934C250.771 187.817 250.569 187.677 250.415 187.516C250.269 187.355 250.151 187.208 250.063 187.076H249.997V188H248.952V179.64H249.997V183.094H250.063C250.151 182.955 250.269 182.804 250.415 182.643C250.569 182.482 250.771 182.346 251.02 182.236C251.27 182.119 251.578 182.06 251.944 182.06C252.384 182.06 252.769 182.148 253.099 182.324C253.429 182.493 253.704 182.724 253.924 183.017C254.144 183.303 254.309 183.626 254.419 183.985C254.529 184.344 254.584 184.711 254.584 185.085C254.584 185.459 254.529 185.826 254.419 186.185C254.309 186.544 254.144 186.871 253.924 187.164C253.704 187.45 253.429 187.681 253.099 187.857C252.769 188.026 252.384 188.11 251.944 188.11ZM251.768 187.219C252.164 187.219 252.491 187.116 252.747 186.911C253.011 186.698 253.206 186.431 253.33 186.108C253.462 185.778 253.528 185.437 253.528 185.085C253.528 184.726 253.462 184.385 253.33 184.062C253.206 183.739 253.011 183.475 252.747 183.27C252.491 183.057 252.164 182.951 251.768 182.951C251.38 182.951 251.053 183.057 250.789 183.27C250.533 183.475 250.338 183.739 250.206 184.062C250.082 184.385 250.019 184.726 250.019 185.085C250.019 185.437 250.082 185.778 250.206 186.108C250.338 186.431 250.533 186.698 250.789 186.911C251.053 187.116 251.38 187.219 251.768 187.219Z" fill="#8B8B8B"/>
<path d="M313.891 188V187.241L315.673 185.591C316.172 185.129 316.608 184.726 316.982 184.381C317.363 184.029 317.66 183.688 317.873 183.358C318.086 183.028 318.192 182.665 318.192 182.269C318.192 181.939 318.111 181.66 317.95 181.433C317.796 181.206 317.594 181.033 317.345 180.916C317.103 180.791 316.85 180.729 316.586 180.729C316.241 180.729 315.959 180.788 315.739 180.905C315.519 181.022 315.35 181.169 315.233 181.345C315.116 181.514 315.031 181.686 314.98 181.862C314.929 182.031 314.899 182.174 314.892 182.291C314.885 182.408 314.881 182.467 314.881 182.467H313.847C313.847 182.467 313.851 182.401 313.858 182.269C313.865 182.137 313.891 181.968 313.935 181.763C313.986 181.558 314.067 181.341 314.177 181.114C314.287 180.879 314.441 180.659 314.639 180.454C314.844 180.249 315.105 180.08 315.42 179.948C315.743 179.816 316.135 179.75 316.597 179.75C317.066 179.75 317.503 179.849 317.906 180.047C318.317 180.238 318.647 180.52 318.896 180.894C319.145 181.261 319.27 181.712 319.27 182.247C319.27 182.738 319.145 183.186 318.896 183.589C318.654 183.985 318.331 184.374 317.928 184.755C317.525 185.136 317.085 185.547 316.608 185.987L315.486 187.021H319.446V188H313.891ZM323.19 179.86V188H322.134V181.686L320.605 181.697V181.081L320.88 180.993C321.269 180.868 321.58 180.733 321.815 180.586C322.057 180.439 322.281 180.238 322.486 179.981L322.585 179.86H323.19ZM328.385 188V183.028H327.428V182.17H328.385V181.455C328.385 181.147 328.44 180.846 328.55 180.553C328.66 180.252 328.843 180.007 329.1 179.816C329.356 179.625 329.705 179.53 330.145 179.53C330.357 179.53 330.526 179.548 330.651 179.585C330.783 179.614 330.849 179.629 330.849 179.629V180.454C330.849 180.454 330.79 180.443 330.673 180.421C330.563 180.392 330.434 180.377 330.288 180.377C329.95 180.377 329.723 180.48 329.606 180.685C329.488 180.89 329.43 181.147 329.43 181.455V182.17H330.783V183.028H329.43V188H328.385ZM334.264 188.11C333.787 188.11 333.373 188.026 333.021 187.857C332.676 187.681 332.39 187.446 332.163 187.153C331.943 186.86 331.778 186.537 331.668 186.185C331.558 185.826 331.503 185.459 331.503 185.085C331.503 184.718 331.554 184.355 331.657 183.996C331.767 183.637 331.932 183.31 332.152 183.017C332.379 182.724 332.661 182.493 332.999 182.324C333.343 182.148 333.75 182.06 334.22 182.06C334.718 182.06 335.158 182.174 335.54 182.401C335.921 182.628 336.222 182.966 336.442 183.413C336.662 183.86 336.772 184.421 336.772 185.096V185.404H332.559C332.581 185.734 332.658 186.038 332.79 186.317C332.929 186.588 333.123 186.808 333.373 186.977C333.622 187.138 333.919 187.219 334.264 187.219C334.564 187.219 334.806 187.171 334.99 187.076C335.18 186.973 335.331 186.856 335.441 186.724C335.551 186.592 335.624 186.478 335.661 186.383C335.705 186.28 335.727 186.229 335.727 186.229H336.706C336.706 186.229 336.687 186.295 336.651 186.427C336.614 186.552 336.548 186.706 336.453 186.889C336.357 187.072 336.218 187.259 336.035 187.45C335.851 187.633 335.617 187.791 335.331 187.923C335.045 188.048 334.689 188.11 334.264 188.11ZM332.57 184.59H335.749C335.734 184.209 335.653 183.901 335.507 183.666C335.36 183.424 335.173 183.244 334.946 183.127C334.718 183.01 334.476 182.951 334.22 182.951C333.758 182.951 333.38 183.101 333.087 183.402C332.793 183.695 332.621 184.091 332.57 184.59ZM341.3 188.11C340.933 188.11 340.625 188.051 340.376 187.934C340.126 187.817 339.925 187.677 339.771 187.516C339.624 187.355 339.507 187.208 339.419 187.076H339.353V188H338.308V179.64H339.353V183.094H339.419C339.507 182.955 339.624 182.804 339.771 182.643C339.925 182.482 340.126 182.346 340.376 182.236C340.625 182.119 340.933 182.06 341.3 182.06C341.74 182.06 342.125 182.148 342.455 182.324C342.785 182.493 343.06 182.724 343.28 183.017C343.5 183.303 343.665 183.626 343.775 183.985C343.885 184.344 343.94 184.711 343.94 185.085C343.94 185.459 343.885 185.826 343.775 186.185C343.665 186.544 343.5 186.871 343.28 187.164C343.06 187.45 342.785 187.681 342.455 187.857C342.125 188.026 341.74 188.11 341.3 188.11ZM341.124 187.219C341.52 187.219 341.846 187.116 342.103 186.911C342.367 186.698 342.561 186.431 342.686 186.108C342.818 185.778 342.884 185.437 342.884 185.085C342.884 184.726 342.818 184.385 342.686 184.062C342.561 183.739 342.367 183.475 342.103 183.27C341.846 183.057 341.52 182.951 341.124 182.951C340.735 182.951 340.409 183.057 340.145 183.27C339.888 183.475 339.694 183.739 339.562 184.062C339.437 184.385 339.375 184.726 339.375 185.085C339.375 185.437 339.437 185.778 339.562 186.108C339.694 186.431 339.888 186.698 340.145 186.911C340.409 187.116 340.735 187.219 341.124 187.219Z" fill="#8B8B8B"/>
<path d="M402.891 188V187.241L404.673 185.591C405.172 185.129 405.608 184.726 405.982 184.381C406.363 184.029 406.66 183.688 406.873 183.358C407.086 183.028 407.192 182.665 407.192 182.269C407.192 181.939 407.111 181.66 406.95 181.433C406.796 181.206 406.594 181.033 406.345 180.916C406.103 180.791 405.85 180.729 405.586 180.729C405.241 180.729 404.959 180.788 404.739 180.905C404.519 181.022 404.35 181.169 404.233 181.345C404.116 181.514 404.031 181.686 403.98 181.862C403.929 182.031 403.899 182.174 403.892 182.291C403.885 182.408 403.881 182.467 403.881 182.467H402.847C402.847 182.467 402.851 182.401 402.858 182.269C402.865 182.137 402.891 181.968 402.935 181.763C402.986 181.558 403.067 181.341 403.177 181.114C403.287 180.879 403.441 180.659 403.639 180.454C403.844 180.249 404.105 180.08 404.42 179.948C404.743 179.816 405.135 179.75 405.597 179.75C406.066 179.75 406.503 179.849 406.906 180.047C407.317 180.238 407.647 180.52 407.896 180.894C408.145 181.261 408.27 181.712 408.27 182.247C408.27 182.738 408.145 183.186 407.896 183.589C407.654 183.985 407.331 184.374 406.928 184.755C406.525 185.136 406.085 185.547 405.608 185.987L404.486 187.021H408.446V188H402.891ZM412.652 188.11C412.08 188.11 411.581 188.007 411.156 187.802C410.738 187.589 410.412 187.307 410.177 186.955C409.942 186.596 409.825 186.192 409.825 185.745C409.825 185.349 409.895 185.023 410.034 184.766C410.173 184.502 410.335 184.293 410.518 184.139C410.709 183.978 410.874 183.864 411.013 183.798C411.152 183.732 411.222 183.699 411.222 183.699V183.644C411.222 183.644 411.163 183.618 411.046 183.567C410.929 183.508 410.789 183.413 410.628 183.281C410.474 183.149 410.338 182.973 410.221 182.753C410.104 182.533 410.045 182.262 410.045 181.939C410.045 181.521 410.151 181.147 410.364 180.817C410.577 180.487 410.877 180.227 411.266 180.036C411.662 179.845 412.124 179.75 412.652 179.75C413.18 179.75 413.638 179.845 414.027 180.036C414.423 180.227 414.727 180.487 414.94 180.817C415.153 181.147 415.259 181.521 415.259 181.939C415.259 182.262 415.2 182.533 415.083 182.753C414.966 182.973 414.826 183.149 414.665 183.281C414.511 183.413 414.375 183.508 414.258 183.567C414.141 183.618 414.082 183.644 414.082 183.644V183.699C414.082 183.699 414.152 183.732 414.291 183.798C414.43 183.864 414.592 183.978 414.775 184.139C414.966 184.293 415.131 184.502 415.27 184.766C415.409 185.023 415.479 185.349 415.479 185.745C415.479 186.192 415.362 186.596 415.127 186.955C414.892 187.307 414.562 187.589 414.137 187.802C413.719 188.007 413.224 188.11 412.652 188.11ZM412.652 183.281C413.004 183.281 413.297 183.215 413.532 183.083C413.767 182.951 413.943 182.782 414.06 182.577C414.177 182.372 414.236 182.163 414.236 181.95C414.236 181.723 414.177 181.506 414.06 181.301C413.943 181.096 413.767 180.931 413.532 180.806C413.297 180.674 413.004 180.608 412.652 180.608C412.307 180.608 412.014 180.674 411.772 180.806C411.537 180.931 411.361 181.096 411.244 181.301C411.127 181.506 411.068 181.723 411.068 181.95C411.068 182.163 411.127 182.372 411.244 182.577C411.361 182.782 411.537 182.951 411.772 183.083C412.014 183.215 412.307 183.281 412.652 183.281ZM412.652 187.241C413.048 187.241 413.378 187.164 413.642 187.01C413.913 186.856 414.115 186.658 414.247 186.416C414.386 186.167 414.456 185.91 414.456 185.646C414.456 185.389 414.39 185.147 414.258 184.92C414.126 184.685 413.924 184.495 413.653 184.348C413.389 184.194 413.055 184.117 412.652 184.117C412.249 184.117 411.911 184.194 411.64 184.348C411.376 184.495 411.178 184.685 411.046 184.92C410.914 185.147 410.848 185.389 410.848 185.646C410.848 185.91 410.914 186.167 411.046 186.416C411.185 186.658 411.387 186.856 411.651 187.01C411.922 187.164 412.256 187.241 412.652 187.241ZM420.124 188V183.028H419.167V182.17H420.124V181.455C420.124 181.147 420.179 180.846 420.289 180.553C420.399 180.252 420.582 180.007 420.839 179.816C421.096 179.625 421.444 179.53 421.884 179.53C422.097 179.53 422.265 179.548 422.39 179.585C422.522 179.614 422.588 179.629 422.588 179.629V180.454C422.588 180.454 422.529 180.443 422.412 180.421C422.302 180.392 422.174 180.377 422.027 180.377C421.69 180.377 421.462 180.48 421.345 180.685C421.228 180.89 421.169 181.147 421.169 181.455V182.17H422.522V183.028H421.169V188H420.124ZM426.003 188.11C425.526 188.11 425.112 188.026 424.76 187.857C424.415 187.681 424.129 187.446 423.902 187.153C423.682 186.86 423.517 186.537 423.407 186.185C423.297 185.826 423.242 185.459 423.242 185.085C423.242 184.718 423.293 184.355 423.396 183.996C423.506 183.637 423.671 183.31 423.891 183.017C424.118 182.724 424.401 182.493 424.738 182.324C425.083 182.148 425.49 182.06 425.959 182.06C426.458 182.06 426.898 182.174 427.279 182.401C427.66 182.628 427.961 182.966 428.181 183.413C428.401 183.86 428.511 184.421 428.511 185.096V185.404H424.298C424.32 185.734 424.397 186.038 424.529 186.317C424.668 186.588 424.863 186.808 425.112 186.977C425.361 187.138 425.658 187.219 426.003 187.219C426.304 187.219 426.546 187.171 426.729 187.076C426.92 186.973 427.07 186.856 427.18 186.724C427.29 186.592 427.363 186.478 427.4 186.383C427.444 186.28 427.466 186.229 427.466 186.229H428.445C428.445 186.229 428.427 186.295 428.39 186.427C428.353 186.552 428.287 186.706 428.192 186.889C428.097 187.072 427.957 187.259 427.774 187.45C427.591 187.633 427.356 187.791 427.07 187.923C426.784 188.048 426.428 188.11 426.003 188.11ZM424.309 184.59H427.488C427.473 184.209 427.393 183.901 427.246 183.666C427.099 183.424 426.912 183.244 426.685 183.127C426.458 183.01 426.216 182.951 425.959 182.951C425.497 182.951 425.119 183.101 424.826 183.402C424.533 183.695 424.36 184.091 424.309 184.59ZM433.039 188.11C432.672 188.11 432.364 188.051 432.115 187.934C431.866 187.817 431.664 187.677 431.51 187.516C431.363 187.355 431.246 187.208 431.158 187.076H431.092V188H430.047V179.64H431.092V183.094H431.158C431.246 182.955 431.363 182.804 431.51 182.643C431.664 182.482 431.866 182.346 432.115 182.236C432.364 182.119 432.672 182.06 433.039 182.06C433.479 182.06 433.864 182.148 434.194 182.324C434.524 182.493 434.799 182.724 435.019 183.017C435.239 183.303 435.404 183.626 435.514 183.985C435.624 184.344 435.679 184.711 435.679 185.085C435.679 185.459 435.624 185.826 435.514 186.185C435.404 186.544 435.239 186.871 435.019 187.164C434.799 187.45 434.524 187.681 434.194 187.857C433.864 188.026 433.479 188.11 433.039 188.11ZM432.863 187.219C433.259 187.219 433.585 187.116 433.842 186.911C434.106 186.698 434.3 186.431 434.425 186.108C434.557 185.778 434.623 185.437 434.623 185.085C434.623 184.726 434.557 184.385 434.425 184.062C434.3 183.739 434.106 183.475 433.842 183.27C433.585 183.057 433.259 182.951 432.863 182.951C432.474 182.951 432.148 183.057 431.884 183.27C431.627 183.475 431.433 183.739 431.301 184.062C431.176 184.385 431.114 184.726 431.114 185.085C431.114 185.437 431.176 185.778 431.301 186.108C431.433 186.431 431.627 186.698 431.884 186.911C432.148 187.116 432.474 187.219 432.863 187.219Z" fill="#8B8B8B"/>
<path d="M462.718 188.099C462.212 188.099 461.765 187.989 461.376 187.769C460.987 187.542 460.661 187.237 460.397 186.856C460.14 186.467 459.942 186.02 459.803 185.514C459.671 185.008 459.605 184.476 459.605 183.919C459.605 183.354 459.671 182.823 459.803 182.324C459.942 181.818 460.14 181.371 460.397 180.982C460.661 180.593 460.987 180.289 461.376 180.069C461.765 179.849 462.212 179.739 462.718 179.739C463.224 179.739 463.671 179.849 464.06 180.069C464.449 180.289 464.771 180.593 465.028 180.982C465.292 181.371 465.49 181.818 465.622 182.324C465.761 182.823 465.831 183.354 465.831 183.919C465.831 184.476 465.761 185.008 465.622 185.514C465.49 186.02 465.292 186.467 465.028 186.856C464.771 187.237 464.449 187.542 464.06 187.769C463.671 187.989 463.224 188.099 462.718 188.099ZM462.718 187.109C463.297 187.109 463.774 186.841 464.148 186.306C464.529 185.763 464.72 184.968 464.72 183.919C464.72 182.87 464.529 182.078 464.148 181.543C463.774 181.008 463.297 180.74 462.718 180.74C462.139 180.74 461.658 181.008 461.277 181.543C460.903 182.078 460.716 182.87 460.716 183.919C460.716 184.96 460.903 185.752 461.277 186.295C461.658 186.838 462.139 187.109 462.718 187.109ZM469.459 179.86V188H468.403V181.686L466.874 181.697V181.081L467.149 180.993C467.537 180.868 467.849 180.733 468.084 180.586C468.326 180.439 468.549 180.238 468.755 179.981L468.854 179.86H469.459ZM473.971 188V182.17H475.016V183.017H475.06C475.119 182.907 475.211 182.779 475.335 182.632C475.46 182.478 475.629 182.346 475.841 182.236C476.061 182.119 476.336 182.06 476.666 182.06C477.099 182.06 477.462 182.166 477.755 182.379C478.056 182.584 478.28 182.863 478.426 183.215H478.437C478.599 182.892 478.826 182.621 479.119 182.401C479.42 182.174 479.809 182.06 480.285 182.06C480.916 182.06 481.4 182.276 481.737 182.709C482.082 183.134 482.254 183.684 482.254 184.359V188H481.209V184.414C481.209 183.981 481.107 183.633 480.901 183.369C480.696 183.098 480.399 182.962 480.01 182.962C479.673 182.962 479.402 183.054 479.196 183.237C478.998 183.42 478.855 183.648 478.767 183.919C478.679 184.19 478.635 184.462 478.635 184.733V188H477.59V184.414C477.59 183.981 477.488 183.633 477.282 183.369C477.084 183.098 476.787 182.962 476.391 182.962C476.054 182.962 475.783 183.054 475.577 183.237C475.379 183.42 475.236 183.651 475.148 183.93C475.06 184.201 475.016 184.469 475.016 184.733V188H473.971ZM486.32 182.06C486.686 182.06 486.994 182.119 487.244 182.236C487.493 182.353 487.695 182.493 487.849 182.654C488.003 182.808 488.12 182.955 488.201 183.094H488.267V182.17H489.312V188H488.267V187.076H488.201C488.12 187.215 488.003 187.366 487.849 187.527C487.695 187.688 487.493 187.828 487.244 187.945C486.994 188.055 486.686 188.11 486.32 188.11C485.88 188.11 485.495 188.026 485.165 187.857C484.835 187.681 484.56 187.45 484.34 187.164C484.12 186.871 483.955 186.544 483.845 186.185C483.735 185.826 483.68 185.459 483.68 185.085C483.68 184.711 483.735 184.344 483.845 183.985C483.955 183.626 484.12 183.303 484.34 183.017C484.56 182.724 484.835 182.493 485.165 182.324C485.495 182.148 485.88 182.06 486.32 182.06ZM486.496 182.951C486.107 182.951 485.781 183.057 485.517 183.27C485.253 183.475 485.055 183.739 484.923 184.062C484.798 184.385 484.736 184.726 484.736 185.085C484.736 185.437 484.798 185.778 484.923 186.108C485.055 186.431 485.253 186.698 485.517 186.911C485.781 187.116 486.107 187.219 486.496 187.219C486.884 187.219 487.207 187.116 487.464 186.911C487.728 186.698 487.922 186.431 488.047 186.108C488.179 185.778 488.245 185.437 488.245 185.085C488.245 184.726 488.179 184.385 488.047 184.062C487.922 183.739 487.728 183.475 487.464 183.27C487.207 183.057 486.884 182.951 486.496 182.951ZM490.847 188V182.17H491.892V182.896H491.936C492.061 182.676 492.244 182.482 492.486 182.313C492.728 182.144 493.069 182.06 493.509 182.06C493.634 182.06 493.747 182.067 493.85 182.082C493.953 182.089 494.004 182.093 494.004 182.093V183.094C494.004 183.094 493.945 183.09 493.828 183.083C493.718 183.068 493.601 183.061 493.476 183.061C492.97 183.061 492.578 183.208 492.299 183.501C492.028 183.787 491.892 184.256 491.892 184.909V188H490.847Z" fill="#8B8B8B"/>
<circle cx="266" cy="20" r="5.57143" stroke="#8B8B8B" stroke-width="0.857143"/>
<line x1="42" y1="170.5" x2="494" y2="170.5" stroke="#666666"/>
<defs>
<filter id="filter0_d_738_16" x="0" y="0" width="515" height="208" filterUnits="userSpaceOnUse" color-interpolation-filters="sRGB">
<feFlood flood-opacity="0" result="BackgroundImageFix"/>
<feColorMatrix in="SourceAlpha" type="matrix" values="0 0 0 0 0 0 0 0 0 0 0 0 0 0 0 0 0 0 127 0" result="hardAlpha"/>
<feMorphology radius="1" operator="dilate" in="SourceAlpha" result="effect1_dropShadow_738_16"/>
<feOffset dx="1" dy="1"/>
<feGaussianBlur stdDeviation="2"/>
<feComposite in2="hardAlpha" operator="out"/>
<feColorMatrix type="matrix" values="0 0 0 0 0 0 0 0 0 0 0 0 0 0 0 0 0 0 0.15 0"/>
<feBlend mode="normal" in2="BackgroundImageFix" result="effect1_dropShadow_738_16"/>
<feBlend mode="normal" in="SourceGraphic" in2="effect1_dropShadow_738_16" result="shape"/>
</filter>
</defs>
</svg>
