<svg width="179" height="51" viewBox="0 0 179 51" fill="none" xmlns="http://www.w3.org/2000/svg">
<g clip-path="url(#clip0_1052_114)">
<mask id="mask0_1052_114" style="mask-type:luminance" maskUnits="userSpaceOnUse" x="0" y="0" width="52" height="51">
<path d="M51.9429 0H0V51H51.9429V0Z" fill="white"/>
</mask>
<g mask="url(#mask0_1052_114)">
<path d="M49.9019 15.5744C48.593 12.5367 46.7215 9.81055 44.338 7.47032C41.9509 5.12655 39.1744 3.28907 36.0841 2.00743C32.8821 0.676223 29.4818 0.00354004 25.9732 0.00354004C22.4647 0.00354004 19.0643 0.676223 15.8623 2.00743C12.7685 3.29261 9.99192 5.13009 7.60843 7.47032C5.22133 9.81409 3.34987 12.5402 2.04454 15.5744C0.685119 18.7183 0 22.0569 0 25.4982C0 29.9981 1.21158 34.4201 3.49771 38.2898C5.71894 42.0427 8.90294 45.2008 12.6999 47.4242C16.6989 49.7644 21.2892 51 25.9696 51C30.8917 51 35.6803 49.644 39.8235 47.0737C43.4618 44.8149 46.5016 41.678 48.6146 37.9995C50.7926 34.2042 51.9429 29.8813 51.9429 25.4982C51.9429 22.0569 51.2577 18.7148 49.9019 15.5708V15.5744ZM47.4391 37.3481C45.5208 40.6902 42.7947 43.558 39.5386 45.6752C39.5999 44.875 39.6287 44.0466 39.6287 43.1898C39.6287 38.1447 34.256 34.9123 26.2401 34.9123C18.2242 34.9123 12.8514 38.1447 12.8514 43.1898C12.8514 44.174 12.8911 45.1193 12.9704 46.0292C9.55561 43.9404 6.69253 41.0407 4.66963 37.6242C2.49888 33.9563 1.35221 29.7645 1.35221 25.4982C1.35221 22.2339 2.00487 19.0688 3.28857 16.0877C4.529 13.2094 6.3031 10.6249 8.5676 8.405C10.8285 6.18514 13.4608 4.44325 16.3924 3.2218C19.4285 1.9614 22.6522 1.32058 25.9768 1.32058C29.3015 1.32058 32.5251 1.9614 35.5613 3.2218C38.4929 4.43971 41.1252 6.1816 43.3861 8.405C45.647 10.6249 47.4211 13.2094 48.6651 16.0877C49.9488 19.0688 50.6015 22.2339 50.6015 25.4982C50.6015 29.6547 49.5125 33.751 47.4463 37.3481H47.4391Z" fill="#043381"/>
<path d="M5.75507 20.4142V23.1049C5.75507 24.4822 6.77914 25.6505 8.1638 25.8629L9.022 25.9939V17.5323L8.1638 17.6633C6.77914 17.8722 5.75507 19.0441 5.75507 20.4213V20.4142Z" fill="#043381"/>
<path d="M43.7792 17.6597L42.921 17.5287V25.9904L43.7792 25.8594C45.1638 25.6505 46.1879 24.4786 46.1879 23.1014V20.4107C46.1879 19.0334 45.1638 17.8651 43.7792 17.6527V17.6597Z" fill="#043381"/>
<path d="M31.8834 9.99825C31.5624 8.61748 30.4013 7.66156 26.2365 7.66156C22.0717 7.66156 20.9467 8.58915 20.6041 9.93452C22.1547 9.77166 23.9324 9.67961 25.9697 9.67961C28.2522 9.67961 30.2102 9.79644 31.8834 9.99825Z" fill="#043381"/>
<path d="M37.5265 16.8773C35.9146 16.0205 32.6477 15.0009 26.2364 15.0009C19.8252 15.0009 16.5582 16.0205 14.9464 16.8773C13.9728 17.3942 13.367 18.3926 13.367 19.483V25.5832C13.367 26.6737 13.9728 27.6721 14.9464 28.189C16.5582 29.0458 19.8252 30.0654 26.2364 30.0654C32.6477 30.0654 35.9182 29.0458 37.5265 28.189C38.5001 27.6721 39.1058 26.6737 39.1058 25.5832V19.483C39.1058 18.3926 38.5001 17.3942 37.5265 16.8773ZM20.6797 22.2269C19.4285 22.2269 18.4116 22.8394 18.4116 21.6073C18.4116 20.3752 19.4249 19.3804 20.6797 19.3804C21.9346 19.3804 22.9479 20.3752 22.9479 21.6073C22.9479 22.8394 21.9346 22.2269 20.6797 22.2269ZM27.5778 26.964C27.2353 27.3003 26.7629 27.5092 26.24 27.5092C25.1943 27.5092 24.3469 26.6772 24.3469 25.6505C24.3469 25.5797 24.3758 25.5124 24.4263 25.4628C24.4768 25.4133 24.5417 25.385 24.6174 25.385H27.8627C28.0105 25.385 28.1331 25.5053 28.1331 25.6505C28.1331 26.1639 27.9204 26.6277 27.5778 26.964ZM32.6152 22.2977C32.3628 22.2623 32.0852 22.2304 31.7931 22.2304C30.5419 22.2304 29.525 22.8429 29.525 21.6109C29.525 20.3788 30.5419 19.3839 31.7931 19.3839C32.096 19.3839 32.3881 19.4441 32.6513 19.5503C33.4771 19.8831 34.0612 20.6797 34.0612 21.6109C34.0612 22.542 33.4626 22.4145 32.6152 22.2977Z" fill="#043381"/>
<path d="M30.87 43.4306C30.0335 43.4306 29.3556 44.0962 29.3556 44.9141C29.3556 45.0592 29.3772 45.1973 29.4169 45.3283L29.1933 45.562C28.007 46.8011 27.5202 46.4718 27.3579 46.3621C27.0694 46.1674 26.9 45.8204 26.9 45.4274V39.4759C26.9468 39.4689 26.9901 39.4653 27.037 39.4547C27.1163 39.437 27.1956 39.4228 27.2714 39.4051C27.2858 39.4016 27.3038 39.3981 27.3182 39.3945C29.9902 38.7714 31.9951 36.2612 31.9951 33.266C31.9951 32.5685 31.8869 31.8817 31.6742 31.2338C31.5083 30.724 29.2762 30.8337 29.2762 30.8337C29.4133 31.0497 29.5286 31.2763 29.626 31.5135C29.8532 32.0623 29.9686 32.6571 29.9686 33.2696C29.9686 35.6381 28.1981 37.5676 26.0237 37.5676C23.8494 37.5676 22.0789 35.6381 22.0789 33.2696C22.0789 32.7102 22.1798 32.1649 22.3673 31.6551C22.4611 31.4037 22.5765 31.1595 22.7135 30.9293C22.7135 30.9293 20.5211 30.7806 20.3733 31.2373C20.1605 31.8888 20.0524 32.5756 20.0524 33.2696C20.0524 36.325 22.1366 38.8741 24.8879 39.4335C24.9131 39.4405 24.942 39.4476 24.9744 39.4512C24.978 39.4512 24.9816 39.4512 24.9888 39.4512C25.0321 39.4582 25.0898 39.4689 25.1547 39.4759V45.431C25.1547 46.3833 25.6054 47.2578 26.3663 47.7712C26.7954 48.058 27.2533 48.2067 27.7329 48.2067C28.6055 48.2067 29.525 47.711 30.4626 46.7303L30.7835 46.394C30.8123 46.394 30.8412 46.3975 30.87 46.3975C31.7066 46.3975 32.3845 45.7319 32.3845 44.9105C32.3845 44.0891 31.7066 43.4271 30.87 43.4271H30.8736L30.87 43.4306ZM30.87 45.7638C30.3941 45.7638 30.0046 45.3849 30.0046 44.9141C30.0046 44.4432 30.3905 44.0643 30.87 44.0643C31.3496 44.0643 31.7355 44.4432 31.7355 44.9141C31.7355 45.3849 31.3496 45.7638 30.87 45.7638Z" fill="#6AF0DA"/>
<path d="M39.0049 12.7881C36.8089 11.6197 32.9002 10.5399 25.9732 10.5399C19.0463 10.5399 15.1375 11.6233 12.9416 12.7881C11.2143 13.7051 10.1362 15.4824 10.1362 17.4119V25.8736C10.1362 27.8031 11.2143 29.5804 12.9416 30.4974C15.1375 31.6657 19.0463 32.7455 25.9732 32.7455C32.9002 32.7455 36.8089 31.6622 39.0049 30.4974C40.7321 29.5804 41.8103 27.8031 41.8103 25.8736V17.4119C41.8103 15.4824 40.7321 13.7051 39.0049 12.7881ZM39.8848 25.6611C39.8848 26.9392 39.1744 28.1146 38.0277 28.7236C36.3294 29.6229 32.9074 30.6992 26.2365 30.6992C19.5656 30.6992 16.1436 29.6229 14.4488 28.7236C13.3057 28.1146 12.5918 26.9428 12.5918 25.6611V19.4052C12.5918 18.1271 13.3021 16.9516 14.4488 16.3427C16.1472 15.4434 19.5692 14.3671 26.2365 14.3671C32.9038 14.3671 36.3294 15.4434 38.0277 16.3427C39.1708 16.9516 39.8848 18.1235 39.8848 19.4052V25.6611Z" fill="#043381"/>
</g>
<path d="M68.3244 33.7687V20.6868H63.3339V17.7943H76.7045V20.6868H71.714V33.7687H68.328H68.3244ZM77.6853 33.7687V22.326H81.0063V23.99H81.1145C81.2479 23.6891 81.4282 23.3917 81.6626 23.1049C81.897 22.8182 82.2179 22.5809 82.629 22.3933C83.0401 22.2057 83.5665 22.1136 84.212 22.1136C84.5329 22.1136 84.7925 22.1349 84.98 22.1773C85.1711 22.2057 85.2649 22.2198 85.2649 22.2198V25.4593C85.2649 25.4593 85.1567 25.4381 84.9368 25.3956C84.7312 25.3531 84.4608 25.3319 84.1218 25.3319C83.0797 25.3319 82.3045 25.6116 81.7924 26.1745C81.2804 26.7197 81.0244 27.6225 81.0244 28.8723V33.7723H77.6817L77.6853 33.7687ZM89.3936 20.7718C88.8059 20.7718 88.3299 20.5912 87.9657 20.2336C87.5979 19.8584 87.4176 19.4193 87.4176 18.9166C87.4176 18.3855 87.6015 17.9394 87.9657 17.5783C88.3335 17.203 88.8095 17.0154 89.3936 17.0154C89.9778 17.0154 90.4213 17.203 90.7999 17.5783C91.1822 17.9394 91.3733 18.3855 91.3733 18.9166C91.3733 19.4193 91.1822 19.8584 90.7999 20.2336C90.4177 20.5948 89.9489 20.7718 89.3936 20.7718ZM87.7205 33.7687V22.326H91.0632V33.7687H87.7205ZM93.9226 33.7687V22.326H97.2653V23.9653H97.3735C97.5069 23.7351 97.6944 23.4767 97.9468 23.1864C98.21 22.8996 98.5562 22.6482 98.9817 22.4323C99.4216 22.2163 99.9769 22.1101 100.651 22.1101C101.56 22.1101 102.299 22.319 102.872 22.7367C103.446 23.1403 103.86 23.6643 104.127 24.3122C104.391 24.946 104.524 25.6151 104.524 26.3196V33.7687H101.181V26.8826C101.181 26.3374 101.026 25.8523 100.72 25.4345C100.428 25.0168 99.9517 24.8079 99.2918 24.8079C98.7942 24.8079 98.3975 24.9247 98.1055 25.1548C97.8134 25.385 97.6006 25.6788 97.4672 26.04C97.3338 26.4011 97.2689 26.7799 97.2689 27.1835V33.7687H93.9262H93.9226ZM109.042 20.7718C108.454 20.7718 107.978 20.5912 107.614 20.2336C107.246 19.8584 107.066 19.4193 107.066 18.9166C107.066 18.3855 107.25 17.9394 107.614 17.5783C107.982 17.203 108.458 17.0154 109.042 17.0154C109.626 17.0154 110.07 17.203 110.448 17.5783C110.831 17.9394 111.022 18.3855 111.022 18.9166C111.022 19.4193 110.831 19.8584 110.448 20.2336C110.066 20.5948 109.597 20.7718 109.042 20.7718ZM107.373 33.7687V22.326H110.715V33.7687H107.373Z" fill="#043381"/>
<path d="M124.926 33.9847C123.87 33.9847 122.968 33.8607 122.222 33.6165C121.49 33.358 120.873 33.0323 120.375 32.6464C119.892 32.2428 119.503 31.825 119.211 31.3931C118.919 30.947 118.699 30.5292 118.551 30.1397C118.417 29.7361 118.331 29.414 118.288 29.1697C118.259 28.9112 118.244 28.7802 118.244 28.7802H121.674C121.674 28.7802 121.702 28.9041 121.76 29.1484C121.832 29.3927 121.98 29.6795 122.2 30.0123C122.42 30.3274 122.759 30.6106 123.213 30.8549C123.668 31.085 124.284 31.2019 125.059 31.2019C126.011 31.2019 126.715 31.0072 127.169 30.6177C127.623 30.2141 127.85 29.7397 127.85 29.1944C127.85 28.7059 127.674 28.3164 127.324 28.0296C126.985 27.7429 126.459 27.5269 125.741 27.3817L123.563 26.9711C122.683 26.8117 121.861 26.5604 121.1 26.2169C120.354 25.87 119.744 25.3956 119.276 24.7937C118.807 24.1741 118.572 23.3846 118.572 22.4181C118.572 21.4515 118.821 20.5912 119.319 19.8689C119.816 19.1361 120.512 18.5731 121.407 18.1837C122.315 17.7801 123.379 17.5783 124.594 17.5783C125.737 17.5783 126.682 17.7447 127.432 18.0739C128.193 18.389 128.795 18.7856 129.235 19.26C129.689 19.7202 130.021 20.1876 130.223 20.662C130.443 21.1364 130.584 21.5329 130.641 21.848C130.713 22.1631 130.75 22.3225 130.75 22.3225H127.407C127.407 22.3225 127.378 22.2233 127.32 22.0215C127.277 21.8197 127.158 21.5896 126.967 21.3311C126.776 21.0727 126.484 20.8426 126.087 20.6408C125.705 20.4389 125.178 20.3398 124.504 20.3398C123.581 20.3398 122.914 20.5416 122.503 20.9452C122.092 21.3347 121.886 21.7595 121.886 22.2198C121.886 22.68 122.092 23.0624 122.503 23.3209C122.914 23.5793 123.448 23.774 124.107 23.905L126.415 24.3582C127.295 24.5175 128.103 24.7831 128.835 25.1583C129.567 25.5336 130.147 26.0364 130.573 26.6701C131.013 27.2897 131.233 28.058 131.233 28.982C131.233 29.9061 130.991 30.7876 130.508 31.5524C130.025 32.2994 129.314 32.8977 128.377 33.3438C127.439 33.7758 126.289 33.9917 124.926 33.9917V33.9847ZM138.253 22.11C139 22.11 139.616 22.2339 140.1 22.4782C140.583 22.7084 140.951 22.9597 141.199 23.2324C141.463 23.505 141.625 23.6926 141.683 23.7953H141.859V22.326H145.202V33.7687H141.859V32.2994H141.683C141.625 32.3985 141.463 32.5862 141.199 32.8623C140.951 33.135 140.583 33.3934 140.1 33.6412C139.616 33.8714 139 33.9882 138.253 33.9882C137.388 33.9882 136.634 33.8218 135.989 33.4925C135.358 33.1456 134.831 32.6924 134.406 32.133C133.98 31.5559 133.66 30.9151 133.44 30.2106C133.234 29.506 133.133 28.7873 133.133 28.0509C133.133 27.3145 133.234 26.5958 133.44 25.8912C133.66 25.1867 133.98 24.5529 134.406 23.99C134.831 23.4129 135.358 22.9597 135.989 22.6305C136.634 22.2835 137.388 22.1136 138.253 22.1136V22.11ZM139.22 24.7654C138.618 24.7654 138.113 24.9318 137.702 25.261C137.305 25.5761 137.006 25.9868 136.8 26.4931C136.609 26.9958 136.515 27.5163 136.515 28.0473C136.515 28.5784 136.609 29.0989 136.8 29.6016C137.006 30.1043 137.305 30.5221 137.702 30.8549C138.113 31.17 138.618 31.3293 139.22 31.3293C139.822 31.3293 140.32 31.17 140.716 30.8549C141.127 30.5221 141.427 30.1079 141.618 29.6016C141.823 29.0989 141.924 28.5784 141.924 28.0473C141.924 27.5163 141.823 26.9958 141.618 26.4931C141.427 25.9904 141.127 25.5797 140.716 25.261C140.32 24.9282 139.822 24.7654 139.22 24.7654ZM148.04 33.7687V17.3588H151.382V33.7687H148.04ZM157.783 33.9847C156.961 33.9847 156.279 33.8112 155.738 33.4678C155.212 33.1208 154.815 32.6605 154.552 32.087C154.289 31.4957 154.155 30.8337 154.155 30.1008V22.3295H157.476V29.4529C157.476 29.9981 157.624 30.4478 157.916 30.7912C158.208 31.124 158.641 31.2868 159.214 31.2868C159.698 31.2868 160.08 31.17 160.358 30.9399C160.65 30.7098 160.862 30.4159 160.996 30.0548C161.129 29.6937 161.194 29.3148 161.194 28.9112V22.326H164.537V33.7687H161.194V32.1507H161.061C160.812 32.5968 160.422 33.0146 159.896 33.404C159.384 33.7935 158.681 33.9882 157.787 33.9882L157.783 33.9847ZM172.051 33.9847C171.186 33.9847 170.432 33.8183 169.787 33.489C169.156 33.142 168.629 32.6889 168.204 32.1295C167.778 31.5524 167.458 30.9116 167.238 30.207C167.032 29.5025 166.931 28.7838 166.931 28.0473C166.931 27.3109 167.032 26.5922 167.238 25.8877C167.458 25.1831 167.778 24.5494 168.204 23.9865C168.629 23.4094 169.156 22.9562 169.787 22.6269C170.432 22.28 171.186 22.11 172.051 22.11C172.798 22.11 173.414 22.2339 173.898 22.4782C174.381 22.7084 174.749 22.9597 174.997 23.2324C175.261 23.505 175.423 23.6926 175.481 23.7953H175.657V17.3623H179V33.7722H175.657V32.303H175.481C175.423 32.4021 175.261 32.5897 174.997 32.8659C174.749 33.1385 174.381 33.3969 173.898 33.6448C173.414 33.8749 172.798 33.9917 172.051 33.9917V33.9847ZM173.021 31.3293C173.624 31.3293 174.121 31.17 174.518 30.8549C174.929 30.5221 175.228 30.1079 175.419 29.6016C175.625 29.0989 175.726 28.5784 175.726 28.0473C175.726 27.5163 175.625 26.9958 175.419 26.4931C175.228 25.9904 174.929 25.5797 174.518 25.261C174.121 24.9282 173.624 24.7654 173.021 24.7654C172.419 24.7654 171.914 24.9318 171.503 25.261C171.107 25.5761 170.807 25.9868 170.602 26.4931C170.411 26.9958 170.317 27.5163 170.317 28.0473C170.317 28.5784 170.411 29.0989 170.602 29.6016C170.807 30.1043 171.107 30.5221 171.503 30.8549C171.914 31.17 172.419 31.3293 173.021 31.3293Z" fill="#16E0BD"/>
</g>
<defs>
<clipPath id="clip0_1052_114">
<rect width="179" height="51" fill="white"/>
</clipPath>
</defs>
</svg>
