<svg width="31" height="30" viewBox="0 0 31 30" fill="none" xmlns="http://www.w3.org/2000/svg">
<path d="M7.7677 22.2748C5.8639 20.371 4.68224 17.7451 4.68953 14.8492C4.68953 12.0483 5.78366 9.40774 7.7677 7.42371C9.75173 5.43968 12.3922 4.34554 15.1932 4.34554C20.9849 4.34554 25.6969 9.05762 25.6969 14.8492C25.6969 20.6409 20.9849 25.3529 15.1932 25.3529C12.2901 25.3529 9.67149 24.1786 7.7677 22.2748ZM22.203 7.83948C20.4086 6.0451 17.9213 4.92908 15.1932 4.92908C12.5454 4.93638 10.0581 5.96486 8.18347 7.83948C6.30885 9.7141 5.28036 12.2014 5.28036 14.8565C5.28036 20.3272 9.72985 24.7767 15.2005 24.7767C20.6712 24.7767 25.1207 20.3272 25.1207 14.8565C25.1207 12.1285 24.0047 9.64116 22.2103 7.84678L22.203 7.83948Z" fill="#8B8B8B" stroke="#8B8B8B" stroke-width="0.928624"/>
<path d="M8.91422 15.0592C8.86316 15.0082 8.82669 14.928 8.82669 14.855C8.82669 14.6945 8.95798 14.5632 9.11846 14.5632L21.1321 14.5559C21.2925 14.5559 21.4238 14.6872 21.4238 14.8477C21.4238 15.0082 21.2925 15.1395 21.1321 15.1395L9.11846 15.1468C9.03092 15.1468 8.96528 15.1103 8.91422 15.0592Z" fill="#8B8B8B" stroke="#8B8B8B" stroke-width="0.928624"/>
<path d="M14.9174 21.0624C14.8663 21.0113 14.8371 20.9384 14.8298 20.8582L14.8371 8.84456C14.8371 8.68409 14.9684 8.55279 15.1289 8.55279C15.2894 8.55279 15.4207 8.68408 15.4207 8.84456L15.4207 20.8655C15.4207 21.0259 15.2894 21.1572 15.1289 21.1572C15.0414 21.1572 14.9757 21.1208 14.9247 21.0697L14.9174 21.0624Z" fill="#8B8B8B" stroke="#8B8B8B" stroke-width="0.928624"/>
</svg>
