<svg width="82" height="82" viewBox="0 0 82 82" fill="none" xmlns="http://www.w3.org/2000/svg">
<g clip-path="url(#clip0_664_78)">
<path d="M38.3352 20.0475C39.3206 20.0475 40.1673 19.2122 40.1673 18.2377C40.1673 17.82 40.5836 17.4024 41.0139 17.4024C41.4442 17.4024 41.8605 17.82 41.8605 18.2377C41.8605 19.2122 42.7072 20.0475 43.6788 20.0475C44.6503 20.0475 45.497 19.2122 45.497 18.2377C45.497 15.8709 43.5261 13.9219 41.1388 13.9219C38.7515 13.9219 36.7807 15.8709 36.7807 18.2377C36.6419 19.2122 37.4885 20.0475 38.3213 20.0475H38.3352Z" fill="#043381"/>
<path d="M45.3443 63.4839C45.3443 62.5094 44.4977 61.6741 43.5261 61.6741C42.5545 61.6741 41.7079 62.5094 41.7079 63.4839C41.7079 63.9016 41.2915 64.3192 40.8612 64.3192C40.431 64.3192 40.0146 63.9016 40.0146 63.4839C40.0146 62.5094 39.168 61.6741 38.1964 61.6741C37.2248 61.6741 36.3782 62.5094 36.3782 63.4839C36.3782 65.8506 38.3491 67.7997 40.7363 67.7997C43.1236 67.7997 45.3721 65.8506 45.3721 63.4839H45.3443Z" fill="#043381"/>
<path d="M56.5867 24.2241C56.8643 23.9456 57.0031 23.9456 57.1419 23.9456C57.9885 23.9456 58.2661 24.9202 57.6971 25.477C56.9892 26.1731 56.9892 27.2869 57.6971 27.983C58.4049 28.6791 59.5292 28.6791 60.2231 27.983C61.9025 26.3124 61.9025 23.528 60.2231 21.8573C58.5437 20.1867 55.7262 20.1867 54.0468 21.8573C53.3389 22.5534 53.3389 23.6672 54.0468 24.3633C54.7546 24.9202 55.865 24.9202 56.5728 24.2241H56.5867Z" fill="#043381"/>
<path d="M25.5522 57.4974C25.2746 57.7759 25.1358 57.7759 24.997 57.7759C24.1503 57.7759 23.8728 56.8013 24.4418 56.2444C25.1497 55.5484 25.1497 54.4346 24.4418 53.7385C23.734 53.0424 22.6236 53.0424 21.9157 53.7385C20.9303 54.5738 20.5139 55.6876 20.5139 56.9405C20.5139 59.3073 22.4848 61.2563 24.8721 61.2563C25.9963 61.2563 27.1206 60.8387 27.9672 60.0034C28.6751 59.3073 28.6751 58.1935 27.9672 57.4974C27.412 56.8013 26.2878 56.8013 25.5799 57.4974H25.5522Z" fill="#043381"/>
<path d="M63.8873 41.7657C62.9019 41.7657 62.0691 42.601 62.0691 43.5755C62.0691 44.55 62.9157 45.3854 63.8873 45.3854C66.2746 45.3854 68.2455 43.4363 68.2455 41.0696C68.2455 38.7029 66.2746 36.7538 63.8873 36.7538C62.9019 36.7538 62.0691 37.5891 62.0691 38.5636C62.0691 39.5382 62.9157 40.3735 63.8873 40.3735C64.3037 40.3735 64.734 40.7911 64.734 41.2088C64.734 41.348 64.3176 41.7657 63.8873 41.7657Z" fill="#043381"/>
<path d="M18.2515 40.095C19.2369 40.095 20.0697 39.2597 20.0697 38.2852C20.0697 37.3107 19.223 36.4753 18.2515 36.4753C15.8642 36.4753 13.8933 38.4244 13.8933 40.7911C13.8933 43.1579 15.8642 45.1069 18.2515 45.1069C19.2369 45.1069 20.0697 44.2716 20.0697 43.2971C20.0697 42.3225 19.223 41.7657 18.2515 41.7657C17.8351 41.7657 17.4048 41.348 17.4048 40.9303C17.4048 40.5127 17.6824 40.095 18.2515 40.095Z" fill="#043381"/>
<path d="M24.289 27.983C24.9969 27.2869 24.9969 26.1731 24.289 25.477C24.0115 25.1986 24.0115 25.0594 24.0115 24.9202C24.0115 24.0848 24.9969 23.8064 25.5521 24.3633C26.2599 25.0594 27.3703 25.0594 28.0781 24.3633C28.786 23.6672 28.786 22.5534 28.0781 21.8573C26.3987 20.1867 23.5812 20.1867 21.9018 21.8573C20.2224 23.528 20.2224 26.3124 21.9018 27.983C22.1794 28.2614 23.5812 28.6791 24.289 27.983Z" fill="#043381"/>
<path d="M57.8497 53.8778C57.1418 54.5739 57.1418 55.6877 57.8497 56.3837C58.4049 56.9406 57.9885 57.9152 57.2945 57.9152C57.1557 57.9152 56.8781 57.9152 56.7393 57.6367C56.0315 56.9406 54.9211 56.9406 54.2133 57.6367C53.5054 58.3328 53.5054 59.4466 54.2133 60.1427C55.8927 61.8133 58.7102 61.8133 60.3896 60.1427C62.069 58.472 62.069 55.6877 60.3896 54.017C59.543 53.1817 58.4187 53.1817 57.8636 53.8778H57.8497Z" fill="#043381"/>
<path d="M74.977 40.6519C74.977 21.9966 59.668 6.96094 41.0001 6.96094C22.3321 6.96094 7.02307 21.9966 7.02307 40.6519C7.02307 59.3073 22.1795 74.2037 41.0001 74.2037C59.8206 74.2037 74.977 59.0288 74.977 40.6519ZM10.6734 40.6519C10.6734 24.0849 24.2892 10.4414 41.1388 10.4414C57.9885 10.4414 71.4655 23.9457 71.4655 40.6519C71.4655 57.3582 57.8497 70.7232 41.1388 70.7232C24.4279 70.7232 10.6734 57.219 10.6734 40.6519Z" fill="#043381"/>
<path d="M41.1388 3.48048C42.1242 3.48048 42.8182 2.64516 42.8182 1.67063C42.8182 0.696095 41.9716 0 41.1388 0C18.5291 0 0.138794 18.2377 0.138794 40.652V66.129C0.138794 67.1036 0.985442 67.9389 1.95701 67.9389C2.92857 67.9389 3.7891 67.1036 3.7891 66.129V40.652C3.6503 20.1868 20.5 3.48048 41.1388 3.48048Z" fill="#043381"/>
<path d="M1.81821 69.6095C0.832769 69.6095 0 70.4448 0 71.4193C0 72.3939 0.846649 73.2292 1.81821 73.2292C2.78978 73.2292 3.63643 72.3939 3.63643 71.5586C3.63643 70.4448 2.78978 69.6095 1.81821 69.6095Z" fill="#043381"/>
<path d="M80.1679 12.8081C79.1824 12.8081 78.3497 13.6434 78.3497 14.618V41.348C78.3497 61.8132 61.6388 78.3803 41 78.3803C40.0145 78.3803 39.3206 79.2156 39.3206 80.1901C39.3206 81.1646 40.1672 82 41.1388 82C63.6097 82 82 63.7623 82 41.4872V14.618C82 13.6434 81.1533 12.8081 80.1818 12.8081H80.1679Z" fill="#043381"/>
<path d="M81.431 10.5806C82.1388 9.88455 82.1388 8.77079 81.431 8.0747C81.1534 7.79626 80.5843 7.51782 80.1679 7.51782C79.1825 7.51782 78.3497 8.35314 78.3497 9.32767C78.3497 9.74533 78.4885 10.163 78.9049 10.5806C79.6128 11.2767 80.7231 11.2767 81.431 10.5806Z" fill="#043381"/>
<path d="M42.1242 43.4363L52.6587 39.9558C53.6442 39.6774 54.0605 38.7028 53.783 37.7283C53.5054 36.7538 52.5199 36.3361 51.5345 36.6145L41.8466 39.8166L32.0199 33.2733C31.1733 32.7164 30.049 32.9949 29.6327 33.691C29.2163 34.387 29.3551 35.64 30.049 36.0577L40.5836 43.0186C41 43.5755 41.569 43.5755 42.1242 43.4363Z" fill="#043381"/>
</g>
<defs>
<clipPath id="clip0_664_78">
<rect width="82" height="82" fill="white"/>
</clipPath>
</defs>
</svg>
