<svg width="19" height="19" viewBox="0 0 19 19" fill="none" xmlns="http://www.w3.org/2000/svg">
<path d="M4.59608 13.7882C3.41762 12.6098 2.68616 10.9843 2.69067 9.19178C2.69067 7.45795 3.36795 5.82346 4.59608 4.59533C5.82421 3.3672 7.45871 2.68992 9.19254 2.68992C12.7776 2.68992 15.6944 5.60673 15.6944 9.19178C15.6944 12.7768 12.7776 15.6936 9.19254 15.6936C7.39549 15.6936 5.77454 14.9667 4.59608 13.7882ZM13.5316 4.85269C12.4209 3.74196 10.8812 3.05113 9.19254 3.05113C7.55352 3.05565 6.01385 3.69229 4.85345 4.85269C3.69304 6.01309 3.0564 7.55277 3.0564 9.1963C3.0564 12.5827 5.81066 15.3369 9.19705 15.3369C12.5834 15.3369 15.3377 12.5827 15.3377 9.1963C15.3377 7.50762 14.6469 5.96794 13.5361 4.85721L13.5316 4.85269Z" fill="#8B8B8B" stroke="#8B8B8B" stroke-width="0.928624"/>
<path d="M5.30541 9.32179C5.2738 9.29018 5.25123 9.24052 5.25123 9.19536C5.25123 9.09603 5.3325 9.01476 5.43183 9.01476L12.8683 9.01024C12.9677 9.01024 13.0489 9.09151 13.0489 9.19085C13.0489 9.29018 12.9677 9.37145 12.8683 9.37145L5.43183 9.37597C5.37765 9.37597 5.33702 9.35339 5.30541 9.32179Z" fill="#8B8B8B" stroke="#8B8B8B" stroke-width="0.928624"/>
<path d="M9.0214 13.0378C8.9898 13.0062 8.97174 12.961 8.96722 12.9114L8.97174 5.47485C8.97174 5.37552 9.05301 5.29425 9.15234 5.29425C9.25168 5.29425 9.33295 5.37552 9.33295 5.47485L9.33295 12.9159C9.33295 13.0152 9.25168 13.0965 9.15234 13.0965C9.09816 13.0965 9.05752 13.0739 9.02592 13.0423L9.0214 13.0378Z" fill="#8B8B8B" stroke="#8B8B8B" stroke-width="0.928624"/>
</svg>
