<svg width="24" height="24" viewBox="0 0 24 24" fill="none" xmlns="http://www.w3.org/2000/svg">
<circle cx="12" cy="12" r="12" fill="#FF0000"/>
<g clip-path="url(#clip0_734_12)">
<path d="M16.3964 21H7.75675C7.62162 21 7.51351 20.9008 7.5045 20.7655L6.22522 5.33567C6.22522 5.26352 6.24324 5.19138 6.28828 5.13727C6.33333 5.08316 6.4054 5.05611 6.47747 5.05611H17.6667C17.7387 5.05611 17.8018 5.08316 17.8559 5.13727C17.9009 5.19138 17.9279 5.26352 17.9189 5.33567L16.6396 20.7745C16.6306 20.9098 16.5135 21.009 16.3874 21.009L16.3964 21ZM7.99099 20.486H16.1622L17.3964 5.56112H6.75675L7.99099 20.486Z" fill="white"/>
<path d="M18.7477 5.57013H5.25225C5.10811 5.57013 5 5.4529 5 5.31763C5 5.18236 5.11712 5.06512 5.25225 5.06512H18.7387C18.8829 5.06512 18.991 5.18236 18.991 5.31763C18.991 5.4529 18.8739 5.57013 18.7387 5.57013H18.7477Z" fill="white"/>
<path d="M12.0721 19.6112C11.9279 19.6112 11.8198 19.494 11.8198 19.3587V7.08518C11.8198 6.94089 11.9369 6.83267 12.0721 6.83267C12.2072 6.83267 12.3243 6.94991 12.3243 7.08518V19.3497C12.3243 19.494 12.2072 19.6022 12.0721 19.6022V19.6112Z" fill="white"/>
<path d="M14.2432 19.5842H14.2252C14.0811 19.5752 13.982 19.4489 13.991 19.3046L15.0631 7.08518C15.0721 6.94089 15.1982 6.84169 15.3423 6.85071C15.4865 6.85973 15.5856 6.98598 15.5766 7.13027L14.5045 19.3497C14.4955 19.485 14.3784 19.5842 14.2522 19.5842H14.2432Z" fill="white"/>
<path d="M9.9009 19.5842C9.76576 19.5842 9.65765 19.485 9.64864 19.3497L8.57657 7.13027C8.56756 6.98598 8.66666 6.86875 8.81081 6.85071C8.94594 6.84169 9.07207 6.94089 9.09009 7.08518L10.1622 19.3046C10.1712 19.4489 10.0721 19.5661 9.92792 19.5842H9.9099H9.9009Z" fill="white"/>
<path d="M14.3514 5.57014C14.2072 5.57014 14.0991 5.45291 14.0991 5.31764V3.69439C14.0991 3.59519 14.018 3.51403 13.9189 3.51403H10.0991C10 3.51403 9.91892 3.59519 9.91892 3.69439V5.30862C9.91892 5.45291 9.8018 5.56112 9.66667 5.56112C9.53153 5.56112 9.41441 5.44389 9.41441 5.30862V3.69439C9.41441 3.30661 9.72973 3 10.1081 3H13.9279C14.3153 3 14.6216 3.31563 14.6216 3.69439V5.30862C14.6216 5.45291 14.5045 5.56112 14.3694 5.56112L14.3514 5.57014Z" fill="white"/>
</g>
<defs>
<clipPath id="clip0_734_12">
<rect width="14" height="18" fill="white" transform="translate(5 3)"/>
</clipPath>
</defs>
</svg>
