<svg width="84" height="29" viewBox="0 0 84 29" fill="none" xmlns="http://www.w3.org/2000/svg">
<rect width="84" height="29" rx="8" fill="#16E0BD"/>
<path d="M18.86 19.12C18.164 19.12 17.552 18.992 17.024 18.736C16.496 18.472 16.056 18.124 15.704 17.692C15.36 17.252 15.1 16.764 14.924 16.228C14.748 15.684 14.66 15.128 14.66 14.56C14.66 13.992 14.748 13.436 14.924 12.892C15.1 12.348 15.36 11.86 15.704 11.428C16.056 10.988 16.496 10.64 17.024 10.384C17.552 10.128 18.164 10 18.86 10C19.436 10 19.928 10.076 20.336 10.228C20.752 10.372 21.096 10.56 21.368 10.792C21.648 11.024 21.872 11.272 22.04 11.536C22.216 11.8 22.344 12.048 22.424 12.28C22.512 12.512 22.568 12.704 22.592 12.856C22.624 13 22.64 13.072 22.64 13.072H21.464C21.464 13.072 21.448 13.008 21.416 12.88C21.384 12.744 21.32 12.58 21.224 12.388C21.128 12.188 20.984 11.988 20.792 11.788C20.6 11.588 20.348 11.424 20.036 11.296C19.724 11.16 19.336 11.092 18.872 11.092C18.368 11.092 17.928 11.192 17.552 11.392C17.176 11.584 16.86 11.848 16.604 12.184C16.356 12.512 16.168 12.884 16.04 13.3C15.92 13.708 15.86 14.128 15.86 14.56C15.86 14.992 15.92 15.416 16.04 15.832C16.168 16.24 16.356 16.612 16.604 16.948C16.86 17.276 17.176 17.54 17.552 17.74C17.928 17.932 18.368 18.028 18.872 18.028C19.336 18.028 19.724 17.96 20.036 17.824C20.348 17.688 20.6 17.524 20.792 17.332C20.984 17.132 21.128 16.936 21.224 16.744C21.32 16.544 21.384 16.376 21.416 16.24C21.448 16.104 21.464 16.036 21.464 16.036H22.64C22.64 16.036 22.624 16.112 22.592 16.264C22.568 16.408 22.512 16.6 22.424 16.84C22.344 17.072 22.216 17.32 22.04 17.584C21.872 17.84 21.648 18.088 21.368 18.328C21.096 18.56 20.752 18.752 20.336 18.904C19.928 19.048 19.436 19.12 18.86 19.12ZM27.1567 19.12C26.4767 19.12 25.9047 18.964 25.4407 18.652C24.9767 18.332 24.6247 17.92 24.3847 17.416C24.1447 16.912 24.0247 16.38 24.0247 15.82C24.0247 15.252 24.1447 14.72 24.3847 14.224C24.6247 13.72 24.9767 13.312 25.4407 13C25.9047 12.68 26.4767 12.52 27.1567 12.52C27.8367 12.52 28.4087 12.68 28.8727 13C29.3367 13.312 29.6887 13.72 29.9287 14.224C30.1687 14.72 30.2887 15.252 30.2887 15.82C30.2887 16.38 30.1687 16.912 29.9287 17.416C29.6887 17.92 29.3367 18.332 28.8727 18.652C28.4087 18.964 27.8367 19.12 27.1567 19.12ZM27.1567 18.124C27.5887 18.124 27.9487 18.016 28.2367 17.8C28.5327 17.576 28.7527 17.288 28.8967 16.936C29.0487 16.584 29.1247 16.212 29.1247 15.82C29.1247 15.42 29.0487 15.048 28.8967 14.704C28.7527 14.352 28.5327 14.068 28.2367 13.852C27.9487 13.628 27.5887 13.516 27.1567 13.516C26.7327 13.516 26.3727 13.628 26.0767 13.852C25.7807 14.068 25.5567 14.352 25.4047 14.704C25.2607 15.048 25.1887 15.42 25.1887 15.82C25.1887 16.212 25.2607 16.584 25.4047 16.936C25.5567 17.288 25.7807 17.576 26.0767 17.8C26.3727 18.016 26.7327 18.124 27.1567 18.124ZM31.8439 19V12.64H32.9839V13.564H33.0559C33.1119 13.468 33.2039 13.336 33.3319 13.168C33.4679 13 33.6599 12.852 33.9079 12.724C34.1559 12.588 34.4679 12.52 34.8439 12.52C35.3079 12.52 35.7039 12.628 36.0319 12.844C36.3599 13.052 36.6079 13.336 36.7759 13.696C36.9519 14.056 37.0399 14.46 37.0399 14.908V19H35.8999V14.98C35.8999 14.556 35.7799 14.204 35.5399 13.924C35.3079 13.644 34.9679 13.504 34.5199 13.504C34.1599 13.504 33.8679 13.596 33.6439 13.78C33.4199 13.956 33.2519 14.192 33.1399 14.488C33.0359 14.776 32.9839 15.084 32.9839 15.412V19H31.8439ZM41.0508 19.12C40.5628 19.12 40.1588 19.052 39.8388 18.916C39.5268 18.78 39.2788 18.612 39.0948 18.412C38.9108 18.204 38.7748 18 38.6868 17.8C38.5988 17.592 38.5428 17.42 38.5188 17.284C38.4948 17.148 38.4828 17.08 38.4828 17.08H39.6348C39.6348 17.08 39.6468 17.136 39.6708 17.248C39.7028 17.352 39.7628 17.476 39.8508 17.62C39.9468 17.756 40.0908 17.88 40.2828 17.992C40.4828 18.096 40.7468 18.148 41.0748 18.148C41.4508 18.148 41.7428 18.06 41.9508 17.884C42.1588 17.7 42.2628 17.476 42.2628 17.212C42.2628 16.98 42.1788 16.796 42.0108 16.66C41.8508 16.524 41.6188 16.42 41.3148 16.348L40.4508 16.144C40.1308 16.064 39.8308 15.956 39.5508 15.82C39.2708 15.684 39.0428 15.5 38.8668 15.268C38.6988 15.028 38.6148 14.732 38.6148 14.38C38.6148 13.836 38.8188 13.392 39.2268 13.048C39.6348 12.696 40.1668 12.52 40.8228 12.52C41.2628 12.52 41.6268 12.584 41.9148 12.712C42.2028 12.832 42.4308 12.984 42.5988 13.168C42.7748 13.352 42.9028 13.536 42.9828 13.72C43.0708 13.904 43.1268 14.06 43.1508 14.188C43.1748 14.308 43.1868 14.368 43.1868 14.368H42.0828C42.0828 14.368 42.0708 14.324 42.0468 14.236C42.0228 14.14 41.9668 14.036 41.8788 13.924C41.7988 13.804 41.6748 13.7 41.5068 13.612C41.3388 13.516 41.1148 13.468 40.8348 13.468C40.4508 13.468 40.1708 13.556 39.9948 13.732C39.8188 13.908 39.7308 14.1 39.7308 14.308C39.7308 14.508 39.8108 14.672 39.9708 14.8C40.1388 14.92 40.3548 15.012 40.6188 15.076L41.4948 15.28C42.0388 15.408 42.4868 15.62 42.8388 15.916C43.1988 16.204 43.3788 16.62 43.3788 17.164C43.3788 17.516 43.2868 17.844 43.1028 18.148C42.9188 18.444 42.6548 18.68 42.3108 18.856C41.9668 19.032 41.5468 19.12 41.0508 19.12ZM46.8926 19.12C46.2606 19.12 45.7566 18.924 45.3806 18.532C45.0046 18.14 44.8166 17.596 44.8166 16.9V12.64H45.9566V16.84C45.9566 17.256 46.0686 17.576 46.2926 17.8C46.5246 18.024 46.8286 18.136 47.2046 18.136C47.5886 18.136 47.8966 18.036 48.1286 17.836C48.3606 17.636 48.5286 17.38 48.6326 17.068C48.7366 16.756 48.7886 16.436 48.7886 16.108V12.64H49.9286V19H48.7886V18.088H48.7166C48.6686 18.184 48.5766 18.316 48.4406 18.484C48.3046 18.644 48.1126 18.792 47.8646 18.928C47.6166 19.056 47.2926 19.12 46.8926 19.12ZM51.7334 19L51.7454 9.88H52.8734V19H51.7334ZM57.372 19.12C56.716 19.12 56.22 18.952 55.884 18.616C55.556 18.28 55.392 17.808 55.392 17.2V13.576H54.252V12.64H55.392V11.044H56.532V12.64H58.08V13.576H56.532V17.2C56.532 17.52 56.62 17.756 56.796 17.908C56.972 18.052 57.228 18.124 57.564 18.124C57.74 18.124 57.908 18.112 58.068 18.088C58.228 18.064 58.308 18.052 58.308 18.052V19.024C58.308 19.024 58.216 19.04 58.032 19.072C57.848 19.104 57.628 19.12 57.372 19.12ZM62.3305 12.52C62.7305 12.52 63.0665 12.584 63.3385 12.712C63.6105 12.84 63.8305 12.992 63.9985 13.168C64.1665 13.336 64.2945 13.496 64.3825 13.648H64.4545V12.64H65.5945V19H64.4545V17.992H64.3825C64.2945 18.144 64.1665 18.308 63.9985 18.484C63.8305 18.66 63.6105 18.812 63.3385 18.94C63.0665 19.06 62.7305 19.12 62.3305 19.12C61.8505 19.12 61.4305 19.028 61.0705 18.844C60.7105 18.652 60.4105 18.4 60.1705 18.088C59.9305 17.768 59.7505 17.412 59.6305 17.02C59.5105 16.628 59.4505 16.228 59.4505 15.82C59.4505 15.412 59.5105 15.012 59.6305 14.62C59.7505 14.228 59.9305 13.876 60.1705 13.564C60.4105 13.244 60.7105 12.992 61.0705 12.808C61.4305 12.616 61.8505 12.52 62.3305 12.52ZM62.5225 13.492C62.0985 13.492 61.7425 13.608 61.4545 13.84C61.1665 14.064 60.9505 14.352 60.8065 14.704C60.6705 15.056 60.6025 15.428 60.6025 15.82C60.6025 16.204 60.6705 16.576 60.8065 16.936C60.9505 17.288 61.1665 17.58 61.4545 17.812C61.7425 18.036 62.0985 18.148 62.5225 18.148C62.9465 18.148 63.2985 18.036 63.5785 17.812C63.8665 17.58 64.0785 17.288 64.2145 16.936C64.3585 16.576 64.4305 16.204 64.4305 15.82C64.4305 15.428 64.3585 15.056 64.2145 14.704C64.0785 14.352 63.8665 14.064 63.5785 13.84C63.2985 13.608 62.9465 13.492 62.5225 13.492ZM67.2697 19V12.64H68.4097V13.432H68.4577C68.5937 13.192 68.7937 12.98 69.0577 12.796C69.3217 12.612 69.6937 12.52 70.1737 12.52C70.3097 12.52 70.4337 12.528 70.5457 12.544C70.6577 12.552 70.7137 12.556 70.7137 12.556V13.648C70.7137 13.648 70.6497 13.644 70.5217 13.636C70.4017 13.62 70.2737 13.612 70.1377 13.612C69.5857 13.612 69.1577 13.772 68.8537 14.092C68.5577 14.404 68.4097 14.916 68.4097 15.628V19H67.2697Z" fill="white"/>
</svg>
