<svg width="23" height="22" viewBox="0 0 23 22" fill="none" xmlns="http://www.w3.org/2000/svg">
<path d="M22 20.7274V3.37585C22 3.22006 21.8688 3.10321 21.7173 3.10321H16.962V1.27264C16.962 1.11685 16.8308 1 16.6793 1C16.5279 1 16.3966 1.12658 16.3966 1.27264V3.10321H6.46202V1.27264C6.46202 1.11685 6.33077 1 6.17933 1C6.02788 1 5.89663 1.12658 5.89663 1.27264V3.10321H1.28269C1.12115 3.10321 1 3.2298 1 3.37585V20.7274C1 20.8832 1.13125 21 1.28269 21H21.7072C21.8688 21 21.9899 20.8734 21.9899 20.7274H22ZM21.4245 20.4547H1.57548V6.38462H21.4245V20.4547ZM21.4245 5.8296H1.57548V3.65823H5.89663V4.86563C5.89663 5.02142 6.02788 5.13827 6.17933 5.13827C6.33077 5.13827 6.46202 5.01168 6.46202 4.86563V3.65823H16.3764V4.86563C16.3764 5.02142 16.5077 5.13827 16.6591 5.13827C16.8106 5.13827 16.9418 5.01168 16.9418 4.86563V3.65823H21.4043V5.8296H21.4245Z" stroke="#414141"/>
</svg>
