<svg width="28" height="28" viewBox="0 0 28 28" fill="none" xmlns="http://www.w3.org/2000/svg">
<g clip-path="url(#clip0_346_964)">
<path d="M15.4973 28H12.5165C11.9369 28 11.4677 27.5308 11.4677 26.9512V25.6816C11.4677 25.0744 11.0813 24.5362 10.5017 24.3292C10.0463 24.1774 9.60473 23.9842 9.16313 23.7772C8.62494 23.515 7.99014 23.6116 7.57615 24.0256L6.65155 24.9502C6.25136 25.3504 5.56136 25.3504 5.17496 24.9502L3.06358 22.8388C2.64958 22.4248 2.64958 21.7624 3.06358 21.3484L4.00197 20.4101C4.41597 19.9961 4.51257 19.3613 4.25037 18.8369C4.04337 18.4091 3.85017 17.9537 3.69837 17.4983C3.50517 16.9187 2.96698 16.5323 2.35978 16.5323H1.04879C0.469197 16.5323 0 16.0631 0 15.4835V12.5027C0 11.9231 0.469197 11.4539 1.04879 11.4539H2.38738C2.98078 11.4539 3.51897 11.0675 3.71217 10.5017C3.86397 10.0601 4.04337 9.61853 4.26417 9.19073C4.52637 8.65254 4.42977 8.01774 4.01577 7.60375L3.04978 6.63775C2.85658 6.44455 2.74618 6.18236 2.74618 5.89256C2.74618 5.60276 2.85658 5.35436 3.04978 5.14736L5.16116 3.03598C5.56136 2.63578 6.25136 2.63578 6.63775 3.03598L7.61755 4.01577C8.03154 4.42977 8.66634 4.52637 9.20453 4.26417C9.63233 4.05717 10.0739 3.87777 10.5155 3.72597C11.0813 3.53277 11.4677 3.00838 11.4677 2.41498V1.04879C11.4677 0.469197 11.9369 0 12.5165 0H15.4973C16.0769 0 16.5461 0.469197 16.5461 1.04879V2.41498C16.5461 3.00838 16.9325 3.53277 17.4983 3.72597C17.9399 3.87777 18.3815 4.05717 18.8093 4.26417C19.3475 4.52637 19.9823 4.42977 20.3963 4.01577L21.376 3.03598C21.79 2.62198 22.4524 2.62198 22.8664 3.03598L24.9778 5.14736C25.171 5.34056 25.2814 5.60276 25.2814 5.89256C25.2814 6.18236 25.171 6.43075 24.9778 6.63775L24.0118 7.60375C23.5978 8.01774 23.5012 8.65254 23.7634 9.19073C23.9704 9.61853 24.1636 10.0601 24.3154 10.5017C24.5086 11.0675 25.0468 11.4539 25.6402 11.4539H26.9788C27.5584 11.4539 28.0276 11.9231 28.0276 12.5027V15.4835C28.0276 16.0631 27.5584 16.5323 26.9788 16.5323H25.6678C25.0606 16.5323 24.5362 16.9187 24.3292 17.4983C24.1774 17.9537 23.9842 18.3953 23.7772 18.8369C23.515 19.3613 23.6116 19.9961 24.0256 20.4101L24.964 21.3484C25.378 21.7624 25.378 22.4248 24.964 22.8388L22.8526 24.9502C22.4386 25.3642 21.7762 25.3642 21.3622 24.9502L20.4377 24.0256C20.0237 23.6116 19.3889 23.515 18.8507 23.7772C18.4229 23.998 17.9675 24.1774 17.5121 24.3292C16.9325 24.5224 16.5461 25.0744 16.5461 25.6816V26.9512C16.5461 27.5308 16.0769 28 15.4973 28ZM8.52834 22.8526C8.85954 22.8526 9.19073 22.9216 9.49433 23.0872C9.89453 23.2804 10.3085 23.4598 10.7363 23.5978C11.6333 23.9014 12.2405 24.7432 12.2405 25.6816V26.9512C12.2405 27.103 12.3647 27.2134 12.5027 27.2134H15.4835C15.6353 27.2134 15.7457 27.0892 15.7457 26.9512V25.6816C15.7457 24.7432 16.3529 23.9014 17.2499 23.5978C17.6777 23.4598 18.0917 23.2804 18.4919 23.0872C19.3199 22.6732 20.3273 22.825 20.9758 23.4874L21.9004 24.412C22.0108 24.5224 22.1764 24.5224 22.273 24.412L24.3844 22.3006C24.3844 22.3006 24.4672 22.1764 24.4672 22.1074C24.4672 22.0384 24.4396 21.9694 24.3844 21.9142L23.446 20.9758C22.7974 20.3273 22.6318 19.3337 23.0458 18.4919C23.239 18.0917 23.4184 17.6777 23.5564 17.2499C23.86 16.3529 24.688 15.7595 25.6264 15.7595H26.9374C27.0892 15.7595 27.1996 15.6353 27.1996 15.4973V12.5165C27.1996 12.3647 27.0754 12.2543 26.9374 12.2543H25.5988C24.6604 12.2543 23.8324 11.6609 23.5288 10.7639C23.3908 10.3499 23.2114 9.93593 23.0182 9.54953C22.6042 8.72154 22.756 7.71414 23.4184 7.06555L24.3844 6.09956C24.3844 6.09956 24.4672 5.97536 24.4672 5.90636C24.4672 5.83736 24.4396 5.76836 24.3844 5.71316L22.273 3.60177C22.1626 3.49137 21.997 3.49137 21.9004 3.60177L20.9207 4.58157C20.2721 5.23016 19.2785 5.39576 18.4367 4.98176C18.0365 4.78857 17.6363 4.62297 17.2223 4.47117C16.3391 4.16757 15.7457 3.33958 15.7457 2.41498V1.04879C15.7457 0.896994 15.6215 0.786594 15.4835 0.786594H12.5027C12.3509 0.786594 12.2405 0.910793 12.2405 1.04879V2.41498C12.2405 3.33958 11.6471 4.16757 10.7639 4.47117C10.3499 4.60917 9.93593 4.77477 9.54953 4.98176C8.72154 5.39576 7.71414 5.23016 7.06555 4.58157L6.08576 3.60177C5.98916 3.50517 5.80976 3.50517 5.71316 3.60177L3.60177 5.71316C3.60177 5.71316 3.51897 5.83736 3.51897 5.90636C3.51897 5.97536 3.54657 6.04436 3.60177 6.09956L4.56777 7.06555C5.21636 7.71414 5.38196 8.72154 4.96796 9.54953C4.77477 9.93593 4.59537 10.3499 4.45737 10.7639C4.15377 11.6471 3.32578 12.2543 2.38738 12.2543H1.04879C0.896994 12.2543 0.786594 12.3785 0.786594 12.5165V15.4973C0.786594 15.6491 0.910793 15.7595 1.04879 15.7595H2.35978C3.29818 15.7595 4.12617 16.3667 4.42977 17.2499C4.56777 17.6777 4.74717 18.0917 4.94036 18.4919C5.35436 19.3199 5.18876 20.3135 4.54017 20.9758L3.60177 21.9142C3.60177 21.9142 3.51897 22.0384 3.51897 22.1074C3.51897 22.1764 3.54657 22.2454 3.60177 22.3006L5.71316 24.412C5.80976 24.5086 5.98916 24.5086 6.08576 24.412L7.01035 23.4874C7.42435 23.0734 7.97634 22.8664 8.52834 22.8664V22.8526Z" fill="#414141"/>
<path d="M14.0061 21.8177C9.70049 21.8177 6.19531 18.3125 6.19531 14.0069C6.19531 9.70134 9.70049 6.19617 14.0061 6.19617C18.3116 6.19617 21.8168 9.70134 21.8168 14.0069C21.8168 18.3125 18.3116 21.8177 14.0061 21.8177ZM14.0061 6.96896C10.1283 6.96896 6.96811 10.1291 6.96811 14.0069C6.96811 17.8847 10.1283 21.0449 14.0061 21.0449C17.8838 21.0449 21.044 17.8847 21.044 14.0069C21.044 10.1291 17.8838 6.96896 14.0061 6.96896Z" fill="#414141"/>
</g>
<defs>
<clipPath id="clip0_346_964">
<rect width="28" height="28" fill="white"/>
</clipPath>
</defs>
</svg>
