<svg width="17" height="17" viewBox="0 0 17 17" fill="none" xmlns="http://www.w3.org/2000/svg">
<path d="M0.78651 16.25H12.5587C12.8004 16.25 13.0131 16.0562 13.0131 15.7955V4.17674C13.0131 3.93498 12.8194 3.72226 12.5587 3.72226H0.78651C0.544752 3.72226 0.332031 3.91604 0.332031 4.17674V15.7955C0.332031 16.0373 0.525811 16.25 0.78651 16.25ZM12.1042 4.63122V15.341H1.24829V4.63122H12.1042Z" fill="#8B8B8B" stroke="#8B8B8B" stroke-width="0.5"/>
<path d="M15.481 13.285H15.5846L15.608 13.2616C15.7962 13.21 15.9428 13.0397 15.9428 12.8233V1.20448C15.9428 0.96272 15.749 0.75 15.4883 0.75H3.7162C3.47444 0.75 3.26172 0.94378 3.26172 1.20448V4.17673C3.26172 4.42434 3.46858 4.63121 3.7162 4.63121C3.95796 4.63121 4.17068 4.43743 4.17068 4.17673V1.66626H15.0266V12.3761H12.5599C12.3123 12.3761 12.1054 12.583 12.1054 12.8306C12.1054 13.0723 12.2992 13.285 12.5599 13.285H15.481Z" fill="#8B8B8B" stroke="#8B8B8B" stroke-width="0.5"/>
</svg>
