<svg width="27" height="28" viewBox="0 0 27 28" fill="none" xmlns="http://www.w3.org/2000/svg">
<g clip-path="url(#clip0_346_952)">
<path d="M26.6298 28H0.370225C0.158668 28 0 27.8241 0 27.6211V14.1286C0 13.912 0.17189 13.7496 0.370225 13.7496C0.56856 13.7496 0.740451 13.9256 0.740451 14.1286V27.2286H26.2463V14.1286C26.2463 13.912 26.4182 13.7496 26.6166 13.7496C26.8149 13.7496 26.9868 13.9256 26.9868 14.1286V27.6211C26.9868 27.8376 26.8149 28 26.6166 28H26.6298Z" fill="#414141"/>
<path d="M13.4991 21.477C13.2876 21.477 13.1289 21.3011 13.1289 21.0981V0.378927C13.1289 0.162397 13.3008 0 13.4991 0C13.6975 0 13.8694 0.17593 13.8694 0.378927V21.0846C13.8694 21.3011 13.6975 21.4635 13.4991 21.4635V21.477Z" fill="#414141"/>
<path d="M13.5008 22.059C13.3818 22.059 13.2628 22.0048 13.1967 21.8966L10.42 17.9043C10.301 17.7284 10.3406 17.4983 10.5125 17.363C10.6844 17.2412 10.9092 17.2818 11.0414 17.4577L13.514 21.0034L15.9866 17.4577C16.1056 17.2818 16.3436 17.2412 16.5155 17.363C16.6873 17.4848 16.727 17.7284 16.608 17.9043L13.8313 21.8966C13.7652 21.9913 13.6462 22.059 13.5272 22.059H13.5008Z" fill="#414141"/>
</g>
<defs>
<clipPath id="clip0_346_952">
<rect width="27" height="28" fill="white"/>
</clipPath>
</defs>
</svg>
