<svg width="25" height="25" viewBox="0 0 25 25" fill="none" xmlns="http://www.w3.org/2000/svg">
<g clip-path="url(#clip0_238_1569)">
<path d="M12.5 25C5.60345 25 0 19.3846 0 12.5C0 5.61542 5.60345 0 12.5 0C19.3966 0 25 5.60345 25 12.5C25 19.3966 19.3966 25 12.5 25ZM12.5 0.682471C5.98659 0.682471 0.682471 5.98659 0.682471 12.5C0.682471 19.0134 5.98659 24.3175 12.5 24.3175C19.0134 24.3175 24.3175 19.0134 24.3175 12.5C24.3175 5.98659 19.0134 0.682471 12.5 0.682471Z" fill="#043381"/>
<path d="M8.6437 17.9119C8.55988 17.9119 8.47607 17.876 8.41621 17.8161L5.62645 15.2059C5.49475 15.0742 5.48278 14.8587 5.61448 14.727C5.74619 14.5953 5.9617 14.5833 6.09341 14.715L8.6437 17.0977L18.5575 7.25575C18.6892 7.12404 18.9047 7.12404 19.0364 7.25575C19.1681 7.38745 19.1681 7.60297 19.0364 7.73467L8.88316 17.8161C8.81132 17.876 8.72751 17.9119 8.6437 17.9119Z" fill="#043381"/>
</g>
<defs>
<clipPath id="clip0_238_1569">
<rect width="25" height="25" fill="white"/>
</clipPath>
</defs>
</svg>
