<svg width="54" height="44" viewBox="0 0 54 44" fill="none" xmlns="http://www.w3.org/2000/svg">
<g clip-path="url(#clip0_284_51)">
<path d="M0 32.1817V0.252258H10.9624C13.5341 0.252258 15.7876 0.705066 17.7229 1.61068C19.6582 2.5163 21.2688 3.73241 22.5547 5.25902C23.8405 6.78563 24.8082 8.49336 25.4576 10.3952C26.107 12.297 26.4318 14.2376 26.4318 16.2234C26.4318 18.2093 26.107 20.1499 25.4576 22.0517C24.8082 23.9535 23.8405 25.6613 22.5547 27.1879C21.2688 28.7145 19.6582 29.9306 17.7229 30.8362C15.7876 31.7418 13.5341 32.1946 10.9624 32.1946H0V32.1817ZM10.7416 4.65096H5.07204V27.7377H10.748C12.5405 27.7377 14.0991 27.4143 15.4239 26.7674C16.7488 26.1205 17.8528 25.2408 18.7165 24.1346C19.5803 23.0285 20.2362 21.793 20.6908 20.4216C21.1389 19.0567 21.3597 17.653 21.3597 16.217C21.3597 14.7809 21.1324 13.3708 20.6908 11.9865C20.2427 10.6086 19.5868 9.36664 18.7165 8.27343C17.8463 7.18022 16.7488 6.30048 15.4239 5.64067C14.0926 4.98087 12.534 4.65096 10.748 4.65096H10.7416Z" fill="#043381"/>
<path d="M47.6231 5.95119C49.273 5.95119 50.6105 4.61897 50.6105 2.9756C50.6105 1.33222 49.273 0 47.6231 0C45.9732 0 44.6357 1.33222 44.6357 2.9756C44.6357 4.61897 45.9732 5.95119 47.6231 5.95119Z" fill="#16E0BD"/>
<path d="M33.3155 5.95119C34.9654 5.95119 36.3029 4.61897 36.3029 2.9756C36.3029 1.33222 34.9654 0 33.3155 0C31.6656 0 30.3281 1.33222 30.3281 2.9756C30.3281 4.61897 31.6656 5.95119 33.3155 5.95119Z" fill="#16E0BD"/>
<path d="M50.7922 40.1123C49.0257 40.1123 47.584 38.6763 47.584 36.9168C47.584 35.1573 49.0257 33.7213 50.7922 33.7213C52.5586 33.7213 54.0003 35.1573 54.0003 36.9168C54.0003 38.6763 52.5586 40.1123 50.7922 40.1123ZM50.7922 35.0926C49.7855 35.0926 48.9608 35.9077 48.9608 36.9168C48.9608 37.9259 49.7791 38.741 50.7922 38.741C51.8053 38.741 52.6236 37.9259 52.6236 36.9168C52.6236 35.9077 51.8053 35.0926 50.7922 35.0926Z" fill="#16E0BD"/>
<path d="M50.6229 40.0929L49.9345 40.8239C47.9538 42.9327 46.0055 44 44.1546 44C43.1415 44 42.1674 43.683 41.2647 43.0621C39.6541 41.9624 38.6929 40.0735 38.6929 38.0294V22.8539C38.6929 22.8539 38.6604 22.8474 38.6475 22.8409C39.18 22.9315 40.7516 23.1579 42.3817 22.8539V38.0294C42.3817 38.8703 42.7454 39.6207 43.3558 40.0347C43.7 40.2676 44.7326 40.9791 47.2459 38.314L47.9343 37.5831L50.6229 40.0929Z" fill="#16E0BD"/>
<path d="M53.1755 11.8636C53.1755 18.3064 48.9282 23.7077 43.2717 25.0532C43.2392 25.0597 43.2067 25.0662 43.1743 25.0791C43.0119 25.1179 42.8431 25.1502 42.6742 25.1826C40.7844 25.5384 38.9595 25.2796 38.336 25.1697C38.323 25.1697 38.3101 25.1697 38.3036 25.1697C38.2386 25.1567 38.1802 25.1438 38.1217 25.1308C32.2963 23.9277 27.8867 18.4422 27.8867 11.87C27.8867 9.3149 28.5556 6.82446 29.8285 4.67039L30.4195 3.66774L34.1147 5.82828L33.5238 6.83093C32.6405 8.33166 32.1729 10.0717 32.1729 11.87C32.1729 16.9674 35.9202 21.1138 40.5311 21.1138C45.142 21.1138 48.8892 16.9674 48.8892 11.87C48.8892 9.98765 48.3827 8.18288 47.4215 6.63687L46.8046 5.64716L50.4479 3.39606L51.0648 4.38577C52.4546 6.60453 53.182 9.192 53.182 11.87L53.1755 11.8636Z" fill="#16E0BD"/>
</g>
<defs>
<clipPath id="clip0_284_51">
<rect width="54" height="44" fill="white"/>
</clipPath>
</defs>
</svg>
