<svg width="190" height="43" viewBox="0 0 190 43" fill="none" xmlns="http://www.w3.org/2000/svg">
<g clip-path="url(#clip0_1339_77)">
<path d="M176.773 14.5212C178.195 14.5212 179.367 14.7443 180.29 15.1906C181.209 15.6368 181.914 16.1208 182.405 16.6351C182.892 17.1494 183.192 17.5011 183.305 17.6902H183.64V14.9259H190V36.4656H183.64V33.7013H183.305C183.192 33.8903 182.892 34.242 182.405 34.7563C181.918 35.2706 181.213 35.7509 180.29 36.2009C179.371 36.6471 178.198 36.8702 176.773 36.8702C175.125 36.8702 173.696 36.5525 172.485 35.9135C171.269 35.2782 170.261 34.4235 169.451 33.3533C168.64 32.2832 168.033 31.0844 167.632 29.7571C167.227 28.4298 167.024 27.076 167.024 25.6919C167.024 24.3079 167.227 22.9541 167.632 21.6268C168.037 20.2994 168.644 19.1007 169.451 18.0305C170.261 16.9603 171.269 16.1057 172.485 15.4704C173.7 14.8351 175.129 14.5137 176.773 14.5137V14.5212ZM178.615 19.5167C177.47 19.5167 176.516 19.823 175.749 20.4318C174.981 21.0406 174.409 21.8196 174.031 22.7688C173.653 23.718 173.466 24.6936 173.466 25.6957C173.466 26.6978 173.653 27.6735 174.031 28.6226C174.409 29.5718 174.977 30.3508 175.749 30.9596C176.516 31.5685 177.47 31.8748 178.615 31.8748C179.76 31.8748 180.715 31.5685 181.482 30.9596C182.249 30.3508 182.822 29.5718 183.199 28.6226C183.577 27.6735 183.764 26.6978 183.764 25.6957C183.764 24.6936 183.577 23.718 183.199 22.7688C182.822 21.8196 182.249 21.0406 181.482 20.4318C180.715 19.823 179.76 19.5167 178.615 19.5167Z" fill="#043381"/>
<path d="M0 36.4655V6.39087H11.7197C14.2319 6.39087 16.4403 6.81818 18.3527 7.66903C20.2651 8.52366 21.8464 9.66569 23.1044 11.1027C24.3586 12.5397 25.3089 14.1506 25.9516 15.9393C26.5942 17.728 26.9136 19.5544 26.9136 21.4263C26.9136 23.2982 26.5942 25.1247 25.9516 26.9133C25.3089 28.702 24.3625 30.313 23.1044 31.7499C21.8503 33.1869 20.2651 34.329 18.3527 35.1836C16.4403 36.0382 14.228 36.4618 11.7197 36.4618H0V36.4655ZM11.4276 11.8779H6.44602V30.8953H11.4276C13.4646 30.8953 15.1472 30.434 16.4714 29.515C17.7957 28.5961 18.7889 27.4012 19.4432 25.9377C20.0976 24.4742 20.4286 22.9578 20.4286 21.3847C20.4286 19.8116 20.1015 18.3028 19.4432 16.8544C18.7889 15.4061 17.7957 14.2111 16.4714 13.2771C15.1472 12.343 13.4646 11.8741 11.4276 11.8741V11.8779Z" fill="#043381"/>
<path d="M40.347 36.8702C37.8621 36.8702 35.7549 36.3483 34.0256 35.3046C32.2963 34.2609 30.9759 32.892 30.0684 31.2017C29.1609 29.5075 28.7091 27.6735 28.7091 25.6957C28.7091 23.718 29.1609 21.8839 30.0684 20.1898C30.9759 18.4956 32.2924 17.1305 34.0256 16.0868C35.7549 15.0431 37.8621 14.5212 40.347 14.5212C42.8319 14.5212 44.9352 15.0431 46.6684 16.0868C48.3977 17.1305 49.7181 18.4994 50.6256 20.1898C51.5331 21.8839 51.9849 23.718 51.9849 25.6957C51.9849 27.6735 51.5292 29.5075 50.6256 31.2017C49.7181 32.8958 48.4016 34.2647 46.6684 35.3046C44.9391 36.3483 42.8319 36.8702 40.347 36.8702ZM40.347 31.8294C41.4609 31.8294 42.4035 31.5458 43.1708 30.9748C43.9381 30.4075 44.5301 29.655 44.9508 28.721C45.3714 27.7869 45.5778 26.7772 45.5778 25.6919C45.5778 24.6066 45.3675 23.5667 44.9508 22.644C44.534 21.7251 43.9381 20.9763 43.1708 20.4091C42.4035 19.8419 41.4609 19.5545 40.347 19.5545C39.2331 19.5545 38.2827 19.8381 37.4998 20.4091C36.717 20.9763 36.125 21.7251 35.7199 22.644C35.3148 23.5667 35.1123 24.5802 35.1123 25.6919C35.1123 26.8037 35.3148 27.7831 35.7199 28.721C36.125 29.655 36.717 30.4075 37.4998 30.9748C38.2788 31.542 39.2292 31.8294 40.347 31.8294Z" fill="#043381"/>
<path d="M65.5859 36.8702C63.6307 36.8702 61.9286 36.5525 60.4797 35.9135C59.0269 35.2782 57.8273 34.4311 56.8808 33.3723C55.9305 32.3172 55.2216 31.1185 54.7465 29.776C54.2713 28.4336 54.0337 27.0722 54.0337 25.6919C54.0337 24.3117 54.2713 22.9541 54.7465 21.6268C55.2216 20.2994 55.9305 19.1007 56.8808 18.0305C57.8273 16.9603 59.0308 16.1057 60.4797 15.4704C61.9286 14.8351 63.6346 14.5137 65.5859 14.5137C67.5372 14.5137 69.2004 14.7935 70.4818 15.3456C71.7632 15.9015 72.7914 16.5935 73.5587 17.4179C74.326 18.2461 74.8908 19.0704 75.253 19.8986C75.6152 20.7268 75.8956 21.6948 76.0904 22.8028H70.1468C69.9521 22.1259 69.7067 21.5625 69.4146 21.1163C69.1225 20.67 68.6823 20.2768 68.0942 19.9364C67.51 19.5961 66.7271 19.4297 65.7495 19.4297C64.5499 19.4297 63.5528 19.7209 62.7582 20.3032C61.9637 20.8856 61.3716 21.6532 60.9783 22.5986C60.5888 23.5478 60.394 24.5764 60.394 25.6882C60.394 26.7999 60.5888 27.8285 60.9783 28.7777C61.3677 29.7268 61.9637 30.4907 62.7582 31.0731C63.5528 31.6554 64.5499 31.9466 65.7495 31.9466C66.7271 31.9466 67.5061 31.7764 68.0942 31.4399C68.6784 31.0995 69.1186 30.71 69.4146 30.26C69.7067 29.8138 69.9521 29.2504 70.1468 28.5735H76.0904C75.8956 29.6852 75.6152 30.6533 75.253 31.4777C74.8908 32.3059 74.326 33.1302 73.5587 33.9546C72.7914 34.7828 71.7671 35.471 70.4818 36.0269C69.1965 36.5828 67.5645 36.8588 65.5859 36.8588V36.8702Z" fill="#043381"/>
<path d="M88.9824 36.8701C87.2531 36.8701 85.8704 36.6205 84.8382 36.1175C83.8061 35.6146 83.0232 34.9793 82.4935 34.2079C81.9638 33.4364 81.6133 32.6158 81.4458 31.7499C81.2783 30.8839 81.1965 30.0822 81.1965 29.3524V19.8418H77.4302V14.9257H81.1965V9.60132H87.5569V14.9257H92.2852V19.8418H87.5569V29.1897C87.5569 30.0822 87.8022 30.7742 88.2891 31.262C88.776 31.7499 89.5939 31.9919 90.739 31.9919C91.2414 31.9919 91.9113 31.9125 92.7487 31.7499V36.5033C91.2414 36.7453 89.9873 36.8701 88.9824 36.8701Z" fill="#043381"/>
<path d="M105.976 36.8702C103.491 36.8702 101.384 36.3483 99.6544 35.3046C97.9251 34.2609 96.6047 32.892 95.7011 31.2017C94.7936 29.5075 94.3418 27.6735 94.3418 25.6957C94.3418 23.718 94.7936 21.8839 95.7011 20.1898C96.6086 18.4956 97.9251 17.1305 99.6544 16.0868C101.384 15.0431 103.491 14.5212 105.976 14.5212C108.461 14.5212 110.564 15.0431 112.297 16.0868C114.027 17.1305 115.347 18.4994 116.254 20.1898C117.162 21.8839 117.614 23.718 117.614 25.6957C117.614 27.6735 117.158 29.5075 116.254 31.2017C115.347 32.8958 114.03 34.2647 112.297 35.3046C110.568 36.3483 108.461 36.8702 105.976 36.8702ZM105.976 31.8294C107.09 31.8294 108.032 31.5458 108.8 30.9748C109.567 30.4075 110.159 29.655 110.58 28.721C111 27.7869 111.207 26.7772 111.207 25.6919C111.207 24.6066 110.996 23.5667 110.58 22.644C110.163 21.7251 109.567 20.9763 108.8 20.4091C108.032 19.8419 107.09 19.5545 105.976 19.5545C104.862 19.5545 103.912 19.8381 103.129 20.4091C102.346 20.9763 101.754 21.7251 101.349 22.644C100.944 23.5667 100.741 24.5802 100.741 25.6919C100.741 26.8037 100.944 27.7831 101.349 28.721C101.754 29.655 102.346 30.4075 103.129 30.9748C103.908 31.542 104.858 31.8294 105.976 31.8294Z" fill="#043381"/>
<path d="M120.165 36.4656V14.9259H126.486V18.0532H126.697C126.946 17.486 127.296 16.9301 127.744 16.3855C128.192 15.8448 128.804 15.3986 129.587 15.0431C130.365 14.6914 131.37 14.5137 132.601 14.5137C133.217 14.5137 133.883 14.5817 134.611 14.7179V20.8137C133.801 20.6511 133.076 20.5717 132.434 20.5717C130.451 20.5717 128.975 21.0936 127.997 22.1373C127.02 23.181 126.533 24.8789 126.533 27.2386V36.4618H120.173L120.165 36.4656Z" fill="#043381"/>
<path d="M165.38 32.9524C163.608 32.9524 162.163 34.3516 162.163 36.076C162.163 36.3785 162.21 36.6735 162.292 36.9495L161.821 37.4411C159.301 40.0466 158.265 39.3546 157.922 39.1239C157.31 38.7155 156.948 37.9819 156.948 37.1613V24.6557C157.045 24.6406 157.143 24.6255 157.24 24.6065C157.408 24.5725 157.575 24.5385 157.739 24.5007C157.77 24.4931 157.805 24.4855 157.836 24.478C163.507 23.1658 167.764 17.8867 167.764 11.5904C167.764 8.97362 167.032 6.44376 165.645 4.27693L165.139 3.48659C165.178 3.30129 165.197 3.10465 165.197 2.90801C165.197 1.30085 163.858 0 162.202 0C160.547 0 159.207 1.30085 159.207 2.90801C159.207 4.28828 160.196 5.43787 161.525 5.74039L162 6.47779C162.966 7.98663 163.472 9.75262 163.472 11.5942C163.472 16.5745 159.713 20.6284 155.094 20.6284C150.475 20.6284 146.716 16.5745 146.716 11.5942C146.716 9.83959 147.184 8.13789 148.068 6.67444L148.648 5.71392C149.918 5.37736 150.853 4.25046 150.853 2.91179C150.853 1.30463 149.513 0.00378155 147.857 0.00378155C146.202 0.00378155 144.862 1.30463 144.862 2.91179C144.862 3.14625 144.893 3.37314 144.948 3.59247L144.368 4.56055C143.094 6.66309 142.424 9.09841 142.424 11.5942C142.424 18.0153 146.849 23.3775 152.687 24.5536C152.745 24.5687 152.804 24.5801 152.866 24.5914C152.874 24.5914 152.886 24.5914 152.897 24.5952C152.991 24.6103 153.112 24.6292 153.252 24.6481V37.1613C153.252 39.1617 154.214 41.0033 155.826 42.0811C156.734 42.6899 157.708 43 158.724 43C160.582 43 162.529 41.9563 164.516 39.8953L165.197 39.192C165.26 39.192 165.318 39.1995 165.38 39.1995C167.153 39.1995 168.598 37.8004 168.598 36.076C168.598 34.3516 167.157 32.9524 165.38 32.9524ZM165.38 37.8571C164.368 37.8571 163.546 37.0592 163.546 36.076C163.546 35.0928 164.368 34.2949 165.38 34.2949C166.393 34.2949 167.215 35.0928 167.215 36.076C167.215 37.0592 166.393 37.8571 165.38 37.8571Z" fill="#043381"/>
<path d="M152.675 25.3098C152.675 25.3098 152.742 25.3249 152.866 25.3476C152.804 25.3363 152.746 25.3249 152.687 25.3098H152.675Z" fill="#043381"/>
</g>
<defs>
<clipPath id="clip0_1339_77">
<rect width="190" height="43" fill="white"/>
</clipPath>
</defs>
</svg>
