<svg width="23" height="22" viewBox="0 0 23 22" fill="none" xmlns="http://www.w3.org/2000/svg">
<path d="M10.87 3.39001C10.87 3.55001 10.74 3.67001 10.59 3.67001H1.57L1.57 18.72H8.65C8.81 18.72 8.93 18.85 8.93 19C8.93 19.15 8.8 19.28 8.65 19.28H1.28C1.12 19.28 1 19.15 1 19L1 3.38001C1 3.22001 1.13 3.10001 1.28 3.10001H10.58C10.74 3.10001 10.86 3.23001 10.86 3.38001L10.87 3.39001Z" fill="black" stroke="black"/>
<path d="M21.9705 3.39001V19C21.9705 19.16 21.8405 19.28 21.6905 19.28H12.7605C12.6005 19.28 12.4805 19.15 12.4805 19C12.4805 18.85 12.6105 18.72 12.7605 18.72H21.4005V3.67001H14.8305C14.6705 3.67001 14.5505 3.54001 14.5505 3.39001C14.5505 3.24001 14.6805 3.11001 14.8305 3.11001H21.6805C21.8405 3.11001 21.9605 3.24001 21.9605 3.39001H21.9705Z" fill="black" stroke="black"/>
<path d="M11.2483 3.38998C11.2483 3.47998 11.2083 3.56998 11.1283 3.61998L8.17829 5.71998C8.04829 5.80998 7.8783 5.77998 7.7783 5.64998C7.6883 5.51998 7.71829 5.34998 7.84829 5.24998L10.4683 3.37998L7.84829 1.50998C7.71829 1.41998 7.6883 1.23998 7.7783 1.10998C7.8683 0.97998 8.04829 0.94998 8.17829 1.03998L11.1283 3.13998C11.1983 3.18998 11.2483 3.27998 11.2483 3.36998V3.38998Z" fill="black" stroke="black"/>
<path d="M15.6606 16.9C15.6606 16.99 15.6206 17.08 15.5406 17.13L12.9206 19L15.5406 20.87C15.6706 20.96 15.7006 21.14 15.6106 21.27C15.5206 21.4 15.3406 21.43 15.2106 21.34L12.2606 19.24C12.1906 19.19 12.1406 19.1 12.1406 19.01C12.1406 18.92 12.1806 18.83 12.2606 18.78L15.2106 16.68C15.3406 16.59 15.5106 16.62 15.6106 16.75C15.6506 16.8 15.6606 16.86 15.6606 16.91V16.9Z" fill="black" stroke="black"/>
</svg>
