<svg width="24" height="24" viewBox="0 0 24 24" fill="none" xmlns="http://www.w3.org/2000/svg">
<path d="M23.2357 12.147C23.2357 5.73052 18.0343 0.529175 11.6178 0.529175C5.20135 0.529175 0 5.73052 0 12.147C0 17.9456 4.24783 22.7528 9.80201 23.6237V15.505H6.85194V12.147H9.80201V9.58764C9.80201 6.67544 11.5369 5.06788 14.191 5.06788C15.4629 5.06788 16.7916 5.29507 16.7916 5.29507V8.15392H15.3269C13.8846 8.15392 13.4337 9.04892 13.4337 9.96802V12.147H16.6557L16.141 15.505H13.4337V23.6237C18.9878 22.7528 23.2357 17.9456 23.2357 12.147Z" fill="#FCFAF9"/>
<path d="M16.1387 15.505L16.6533 12.1471H13.4313V9.96807C13.4313 9.04897 13.8806 8.15397 15.3246 8.15397H16.7893V5.29512C16.7893 5.29512 15.4606 5.06792 14.1886 5.06792C11.5346 5.06792 9.79968 6.67549 9.79968 9.58769V12.1471H6.84961V15.505H9.79968V23.6238C10.3918 23.7167 10.9976 23.7649 11.6155 23.7649C12.2334 23.7649 12.8392 23.7167 13.4313 23.6238V15.505H16.1387Z" fill="#043381"/>
</svg>
