<svg width="28" height="29" viewBox="0 0 28 29" fill="none" xmlns="http://www.w3.org/2000/svg">
<g clip-path="url(#clip0_342_945)">
<path d="M0.37638 15.08H13.5228V17.4H3.61594C3.40086 17.4 3.23956 17.5774 3.23956 17.7821V24.9332C3.23956 25.1515 3.41431 25.3153 3.61594 25.3153H13.5228V28.6042C13.5228 28.8226 13.6976 28.9864 13.8992 28.9864C14.1008 28.9864 14.2756 28.8089 14.2756 28.6042V25.3153H20.5127C20.7278 25.3153 20.8891 25.1379 20.8891 24.9332C20.8891 24.7285 20.7144 24.5511 20.5127 24.5511H4.00576V18.1642H24.0077V22.8861C24.0077 23.1045 24.1824 23.2682 24.3841 23.2682C24.5857 23.2682 24.7604 23.0908 24.7604 22.8861V17.7685C24.7604 17.5501 24.5857 17.3864 24.3841 17.3864H14.289V15.0664H27.6236C27.8387 15.0664 28 14.8889 28 14.6842V7.53318C28 7.31482 27.8253 7.15106 27.6236 7.15106H14.1008V0.382118C14.1008 0.163765 13.9261 0 13.7244 0C13.5228 0 13.3481 0.177412 13.3481 0.382118V7.15106H0.37638C0.161306 7.15106 0 7.32847 0 7.53318V14.6842C0 14.9026 0.174748 15.0664 0.37638 15.0664V15.08ZM0.766203 7.92894H27.2472V14.3158H0.766203V7.92894Z" fill="#414141"/>
</g>
<defs>
<clipPath id="clip0_342_945">
<rect width="28" height="29" fill="white"/>
</clipPath>
</defs>
</svg>
