<svg width="85" height="84" viewBox="0 0 85 84" fill="none" xmlns="http://www.w3.org/2000/svg">
<path d="M20.8961 3.09055V10.4129H3.09091C2.46753 10.4129 2 10.9192 2 11.5034V80.9094C2 81.5326 2.50649 82 3.09091 82H81.9091C82.5325 82 83 81.4937 83 80.9094V11.5034C83 10.8802 82.4935 10.4129 81.9091 10.4129H63.5584V3.09055C63.5584 2.46738 63.0519 2 62.4675 2C61.8831 2 61.3766 2.50633 61.3766 3.09055V10.4129H23.0779V3.09055C23.0779 2.46738 22.5714 2 21.987 2C21.4026 2 20.8961 2.50633 20.8961 3.09055ZM80.8182 79.8189H4.22078V23.5385H80.8182V79.8189ZM23.0779 17.4625V12.6329H61.3377V17.4625C61.3377 18.0857 61.8442 18.5531 62.4286 18.5531C63.013 18.5531 63.5195 18.0467 63.5195 17.4625V12.6329H80.7402V21.3184H4.22078V12.6329H20.8961V17.4625C20.8961 18.0857 21.4026 18.5531 21.987 18.5531C22.5714 18.5531 23.0779 18.0467 23.0779 17.4625Z" fill="white" stroke="white"/>
<path d="M34.5247 54.8017L30.6733 66.5677C30.5177 67.0291 30.6733 67.4905 31.0623 67.7981C31.4513 68.0673 31.9571 68.0673 32.3461 67.7981L42.4611 60.5309L52.5761 67.7981C52.5761 67.7981 53.004 67.9904 53.2374 67.9904C53.4709 67.9904 53.7043 67.9135 53.8988 67.7981C54.2878 67.529 54.4434 67.0291 54.2878 66.5677L50.4364 54.8017L60.5513 47.5345C60.9404 47.2653 61.096 46.7655 60.9404 46.304C60.7848 45.8426 60.3568 45.535 59.89 45.535H47.4019L43.5504 33.769C43.3948 33.3076 42.9668 33 42.5 33C42.0332 33 41.6052 33.3076 41.4496 33.769L37.5981 45.535H25.11C24.6432 45.535 24.2152 45.8426 24.0596 46.304C23.904 46.7655 24.0596 47.2269 24.4487 47.5345L34.5636 54.8017H34.5247ZM38.3373 47.7652C38.8041 47.7652 39.2321 47.4576 39.3877 46.9962L42.4611 37.691L45.5345 46.9962C45.6901 47.4576 46.118 47.7652 46.5849 47.7652H56.5053L48.4912 53.5328C48.1021 53.802 47.9465 54.3018 48.1021 54.7633L51.1755 64.0684L43.1614 58.3007C43.1614 58.3007 42.7334 58.1085 42.5 58.1085C42.2666 58.1085 42.0332 58.1854 41.8386 58.3007L33.8245 64.0684L36.8979 54.7633C37.0535 54.3018 36.8979 53.8404 36.5088 53.5328L28.4947 47.7652H38.4151H38.3373Z" fill="white" stroke="white"/>
</svg>
