<svg width="85" height="84" viewBox="0 0 85 84" fill="none" xmlns="http://www.w3.org/2000/svg">
<g clip-path="url(#clip0_664_270)">
<path d="M83.1546 0H1.83141C0.852796 0 0 0.838602 0 1.81697V82.183C0 83.1614 0.852796 84 1.83141 84H83.1546C84.1472 84 84.986 83.1614 84.986 82.183V1.81697C84.8462 0.838602 83.9934 0 83.1546 0ZM81.3232 6.98835H45.9671C44.9745 6.98835 44.1357 7.82696 44.1357 8.80533C44.1357 9.78369 44.9885 10.6223 45.9671 10.6223H81.3232V13.9767H28.2821V3.49418H81.3092V6.98835H81.3232ZM24.7451 3.49418V13.9767H3.53701V3.49418H24.7451ZM3.53701 80.3661V17.4709H81.3232V80.3661H3.53701Z" fill="white"/>
<path d="M40.7245 10.4826C41.7171 10.4826 42.5559 9.64397 42.5559 8.6656C42.5559 7.68723 41.7031 6.84863 40.7245 6.84863C39.7459 6.84863 38.8791 7.68723 38.8791 8.6656C38.8791 9.22467 39.7319 10.4826 40.7245 10.4826Z" fill="white"/>
<path d="M74.2492 20.9651H10.611C9.61842 20.9651 8.76562 21.8037 8.76562 22.7821V34.9418C8.76562 35.9202 9.61842 36.7588 10.611 36.7588H74.2492C75.2418 36.7588 76.0806 35.9202 76.0806 34.9418V22.6423C76.0806 21.8037 75.2278 20.9651 74.2492 20.9651ZM72.5436 33.2646H12.4424V24.4593H72.5436V33.2646Z" fill="white"/>
<path d="M26.5905 54.2296H19.5165C18.5239 54.2296 17.6711 55.0682 17.6711 56.0466V66.5291C17.6711 67.5075 18.5239 68.3461 19.5165 68.3461H26.5905C27.5831 68.3461 28.4219 67.5075 28.4219 66.5291V55.9068C28.2821 54.9285 27.4293 54.2296 26.5905 54.2296ZM24.7451 64.7121H21.2081V57.7238H24.7451V64.7121Z" fill="white"/>
<path d="M38.8931 50.7355H31.8191C30.8265 50.7355 29.9737 51.5741 29.9737 52.5524V66.5292C29.9737 67.5075 30.8265 68.3461 31.8191 68.3461H38.8931C39.8857 68.3461 40.7385 67.5075 40.7385 66.5292V52.5524C40.7385 51.4343 39.8857 50.7355 38.8931 50.7355ZM37.1875 64.7122H33.6505V54.2297H37.1875V64.7122Z" fill="white"/>
<path d="M51.3355 68.2063C52.3281 68.2063 53.167 67.3677 53.167 66.3894V47.2413C53.167 46.2629 52.3142 45.4243 51.3355 45.4243H44.2615C43.2689 45.4243 42.4301 46.2629 42.4301 47.2413V66.5291C42.4301 67.5075 43.2829 68.3461 44.2615 68.3461H51.3355V68.2063ZM45.9671 48.9185H49.5041V64.7122H45.9671V48.9185Z" fill="white"/>
<path d="M65.4835 43.7471C65.4835 42.7688 64.6307 41.9302 63.6521 41.9302H56.5781C55.5855 41.9302 54.7467 42.7688 54.7467 43.7471V66.5292C54.7467 67.5075 55.5995 68.3462 56.5781 68.3462H63.6521C64.6447 68.3462 65.4835 67.5075 65.4835 66.5292V43.7471ZM61.9465 64.7122H58.4095V45.4244H61.9465V64.7122Z" fill="white"/>
<path d="M38.4737 39.1348C37.9145 38.4359 36.7821 38.2962 35.9293 38.8552L27.8626 45.1447L19.9358 42.0699C19.2228 41.7903 18.5238 41.9301 18.1044 42.4892L11.0304 49.4775C10.3174 50.1764 10.3174 51.2945 11.0304 51.9933C11.7434 52.6922 12.8758 52.6922 13.5748 51.9933L19.796 45.8436L27.5691 48.9185C28.1283 49.198 28.8413 49.0582 29.2607 48.6389L38.1661 41.6506C39.0189 40.9517 39.1587 39.8336 38.4457 39.1348H38.4737Z" fill="white"/>
<path d="M10.611 6.9884H7.07404V10.4826H10.611V6.9884Z" fill="white"/>
<path d="M12.4425 71.7004H8.90546V75.1946H12.4425V71.7004Z" fill="white"/>
<path d="M19.5164 71.7004H15.9794V75.1946H19.5164V71.7004Z" fill="white"/>
<path d="M26.5905 71.7004H23.0535V75.1946H26.5905V71.7004Z" fill="white"/>
<path d="M33.6644 71.7004H30.1274V75.1946H33.6644V71.7004Z" fill="white"/>
<path d="M40.7245 71.7004H37.1875V75.1946H40.7245V71.7004Z" fill="white"/>
<path d="M47.7985 71.7004H44.2615V75.1946H47.7985V71.7004Z" fill="white"/>
<path d="M54.8725 71.7004H51.3355V75.1946H54.8725V71.7004Z" fill="white"/>
<path d="M61.9466 71.7004H58.4095V75.1946H61.9466V71.7004Z" fill="white"/>
<path d="M69.0205 71.7004H65.4835V75.1946H69.0205V71.7004Z" fill="white"/>
<path d="M76.0806 71.7004H72.5436V75.1946H76.0806V71.7004Z" fill="white"/>
<path d="M15.9795 6.9884H12.4424V10.4826H15.9795V6.9884Z" fill="white"/>
<path d="M21.2081 6.9884H17.6711V10.4826H21.2081V6.9884Z" fill="white"/>
</g>
<defs>
<clipPath id="clip0_664_270">
<rect width="85" height="84" fill="white"/>
</clipPath>
</defs>
</svg>
