<svg width="85" height="83" viewBox="0 0 85 83" fill="none" xmlns="http://www.w3.org/2000/svg">
<g clip-path="url(#clip0_664_146)">
<path d="M45.0816 49.2944H39.6497C38.6454 49.2944 37.7967 50.1371 37.7967 51.1202C37.7967 52.1032 38.6595 52.9459 39.6497 52.9459H45.0816C46.0859 52.9459 46.9346 52.1032 46.9346 51.1202C46.9346 50.1371 46.0718 49.2944 45.0816 49.2944Z" fill="white"/>
<path d="M28.8992 10.6734H39.3385C40.3428 10.6734 41.1916 9.83077 41.1916 8.84769C41.1916 7.86461 40.3287 7.02197 39.3385 7.02197H28.8992C27.8948 7.02197 27.0461 7.86461 27.0461 8.84769C27.1876 9.83077 28.0504 10.6734 28.8992 10.6734Z" fill="white"/>
<path d="M28.8992 15.8697H46.4961C47.5004 15.8697 48.3633 15.0271 48.3633 14.044C48.3633 13.0609 47.5004 12.2183 46.4961 12.2183H28.8992C27.8948 12.2183 27.0461 13.0609 27.0461 14.044C27.1876 15.0271 28.0504 15.8697 28.8992 15.8697Z" fill="white"/>
<path d="M28.8992 21.2064H55.8038C56.8081 21.2064 57.6569 20.3637 57.6569 19.3807C57.6569 18.3976 56.794 17.5549 55.8038 17.5549H28.8992C27.8948 17.5549 27.0461 18.3976 27.0461 19.3807C27.1876 20.3637 28.0504 21.2064 28.8992 21.2064Z" fill="white"/>
<path d="M57.5296 24.7174C57.5296 23.7344 56.6667 22.8917 55.6624 22.8917H28.8992C27.8948 22.8917 27.0461 23.7344 27.0461 24.7174C27.0461 25.7005 27.909 26.5432 28.8992 26.5432H55.8038C56.8081 26.4027 57.5154 25.5601 57.5154 24.7174H57.5296Z" fill="white"/>
<path d="M44.7845 10.6734H46.6376C47.6419 10.6734 48.5048 9.83077 48.5048 8.84769C48.5048 7.86461 47.6419 7.02197 46.6376 7.02197H44.7845C43.7802 7.02197 42.9315 7.86461 42.9315 8.84769C42.9315 9.83077 43.7943 10.6734 44.7845 10.6734Z" fill="white"/>
<path d="M80.134 29.4924C80.6998 29.4924 81.2798 29.2115 81.7041 28.6497C85.4244 22.7512 85.5658 15.5888 81.7041 9.69032C81.1383 8.84768 80.134 8.5668 79.2711 9.12856C78.4083 9.69032 78.1253 10.6734 78.7053 11.516C81.8597 16.291 81.7041 22.049 78.7053 26.6836C77.8424 27.9475 78.7053 29.4924 80.134 29.4924Z" fill="white"/>
<path d="M75.1265 25.841C75.6923 25.841 76.4137 25.5601 76.6966 24.9983C78.7053 21.3469 78.9882 17.1337 76.6966 13.3418C76.2723 12.4992 75.1265 12.2183 74.2636 12.6396C73.4007 13.0609 73.1178 14.1845 73.5563 15.0271C75.1265 17.8359 74.985 20.7851 73.5563 23.313C72.8349 24.4366 73.8393 25.841 75.1265 25.841Z" fill="white"/>
<path d="M6.7191 29.2115C7.58197 28.6498 7.86488 27.6667 7.28491 26.8241C4.13048 22.0491 4.28608 16.2911 7.28491 11.6565C7.85073 10.8139 7.56782 9.69039 6.7191 9.26907C5.85622 8.70731 4.71044 8.98819 4.28608 9.83083C0.565826 15.7293 0.424372 22.8917 4.28608 28.7902C4.71044 29.4924 5.85622 29.6329 6.7191 29.2115Z" fill="white"/>
<path d="M11.5852 25.7005C12.448 25.2792 12.7309 24.1557 12.3066 23.313C10.7364 20.5042 10.8779 17.555 12.3066 15.0271C12.7309 14.1845 12.448 13.0609 11.5852 12.6396C10.7223 12.2183 9.5765 12.4992 9.15213 13.3418C7.14348 16.9932 6.86057 21.2064 9.15213 24.9983C9.43504 25.5601 10.7223 26.1218 11.5852 25.7005Z" fill="white"/>
<path d="M83.4299 35.9526C71.2648 33.2843 71.8447 33.4247 71.4062 33.4247H64.8286V1.82572C64.8286 0.84264 63.9657 0 62.9614 0H21.7557C20.7514 0 20.0441 0.84264 20.0441 1.82572V33.4247C12.8865 33.4247 13.325 33.4247 13.028 33.4247L1.44285 35.9526C0.579978 36.0931 0.0141602 36.7953 0.0141602 37.6379V45.2217C0.0141602 46.0643 0.579978 46.7665 1.44285 46.9069L12.0378 49.154C12.7592 51.8223 13.8908 54.4907 15.3337 56.8782L9.60477 65.8663C9.18041 66.5685 9.32186 67.4112 9.88768 68.1134L15.3195 73.4501C15.8854 74.0118 16.8897 74.1523 17.6111 73.731L26.7632 68.1134C29.1962 69.5178 31.9121 70.6413 34.6281 71.3435L36.9196 81.5956C37.0611 82.4382 37.7825 83 38.6312 83H46.3547C47.2175 83 47.9248 82.4382 48.0662 81.5956L50.3578 71.3435C53.0737 70.6413 55.7897 69.5178 58.2227 68.1134L67.3748 73.731C68.0962 74.1523 68.9449 74.0118 69.6664 73.4501L75.0982 68.1134C75.664 67.5516 75.8196 66.5685 75.3811 65.8663L69.6522 56.8782C71.0809 54.4907 72.2267 51.8223 72.9481 49.154L83.543 46.9069C84.4059 46.7665 84.9717 46.0643 84.9717 45.2217V37.6379C84.8303 36.9357 84.1088 36.2335 83.4016 35.9526H83.4299ZM23.6088 3.65144H61.2357V37.9188C61.2357 44.5195 57.6569 50.4179 52.225 53.6481V49.154C52.225 46.3452 50.5134 43.9577 48.2219 42.9746C49.0847 41.8511 49.6505 40.4467 49.6505 38.9019C49.6505 34.9695 46.4961 31.8799 42.4929 31.8799C38.4898 31.8799 35.3353 34.9695 35.3353 38.9019C35.3353 40.4467 35.9012 41.8511 36.764 42.9746C34.331 44.0981 32.7609 46.4856 32.7609 49.154V53.6481C27.4705 50.4179 23.7502 44.5195 23.7502 37.9188V3.65144H23.6088ZM36.1982 55.1929V49.0135C36.1982 47.1878 37.7684 45.643 39.6356 45.643H45.3645C47.2175 45.643 48.8018 47.1878 48.8018 49.0135V55.1929C44.6572 56.5973 40.2155 56.5973 36.2124 55.1929H36.1982ZM42.3515 42.2724C40.3428 42.2724 38.7727 40.7276 38.7727 38.7614C38.7727 36.7953 40.3428 35.2504 42.3515 35.2504C44.3601 35.2504 45.9303 36.7953 45.9303 38.7614C45.9303 40.5871 44.3601 42.2724 42.3515 42.2724ZM81.2798 43.9577L71.1233 46.2047C70.4019 46.3452 69.9775 46.9069 69.8361 47.4687C69.1147 50.5584 67.983 53.5076 66.1158 56.176C65.6915 56.7377 65.6915 57.4399 66.1158 58.0017L71.7033 66.709L68.2659 70.0795L59.3968 64.6024C58.8309 64.1811 58.1095 64.1811 57.5437 64.6024C54.8278 66.2877 51.8148 67.5516 48.6745 68.2538C47.9531 68.3942 47.5287 68.956 47.3873 69.5178L45.0957 79.489H40.2297L37.9381 69.5178C37.7966 68.8156 37.2167 68.3942 36.6509 68.2538C33.4964 67.5516 30.4976 66.4281 27.7817 64.6024C27.2159 64.1811 26.4944 64.1811 25.9145 64.6024L17.0453 70.0795L13.6079 66.709L19.1954 58.0017C19.6198 57.4399 19.6198 56.7377 19.1954 56.176C17.4838 53.5076 16.1966 50.5584 15.4751 47.4687C15.3337 46.7665 14.7537 46.3452 14.1879 46.2047L4.03147 43.9577V39.1827L14.0464 36.9357H20.0583V37.7783C20.0583 49.8562 29.9318 59.687 42.3798 59.687C54.6863 59.687 64.7013 49.8562 64.7013 37.7783V36.9357H71.1375L81.1525 39.1827V43.9577H81.2939H81.2798Z" fill="white"/>
</g>
<defs>
<clipPath id="clip0_664_146">
<rect width="85" height="83" fill="white"/>
</clipPath>
</defs>
</svg>
