<svg width="21" height="22" viewBox="0 0 21 22" fill="none" xmlns="http://www.w3.org/2000/svg">
<g clip-path="url(#clip0_408_528)">
<path d="M17.2931 11H11.4704V13.6959H16.7853C15.7697 16.2864 13.338 18.117 10.5 18.117C6.75363 18.117 3.70688 14.9274 3.70688 11C3.70688 7.07261 6.75363 3.883 10.5 3.883C12.029 3.883 13.4395 4.41553 14.5736 5.31417C14.5736 5.31417 15.4876 5.8245 16.0801 6.81744L19.093 4.89813C19.093 4.89813 17.2931 2.58497 16.7966 2.21886C15.0419 0.832069 12.8641 0.00554361 10.5 0.00554361C4.71118 -3.53996e-06 0 4.93696 0 11C0 17.063 4.71118 22 10.5 22C16.2888 22 21 17.0686 21 11H17.2931Z" fill="#8B8B8B"/>
</g>
<defs>
<clipPath id="clip0_408_528">
<rect width="21" height="22" fill="white"/>
</clipPath>
</defs>
</svg>
