<svg width="977" height="163" viewBox="0 0 977 163" fill="none" xmlns="http://www.w3.org/2000/svg">
<path d="M0.333333 15.4608C0.333333 16.9336 1.52724 18.1275 3 18.1275C4.47276 18.1275 5.66667 16.9336 5.66667 15.4608C5.66667 13.9881 4.47276 12.7941 3 12.7941C1.52724 12.7941 0.333333 13.9881 0.333333 15.4608ZM132.946 99.1975L132.675 99.6178L132.902 99.7642L133.149 99.6542L132.946 99.1975ZM320.953 15.4608L321.27 15.0748L321.032 14.8783L320.749 15.0041L320.953 15.4608ZM499.006 162L498.689 162.386L499 162.642L499.316 162.392L499.006 162ZM628.952 59.3229L629.265 58.9332L628.955 58.6835L628.642 58.9306L628.952 59.3229ZM756.686 162L756.373 162.39L756.672 162.63L756.982 162.404L756.686 162ZM971.333 3C971.333 4.47276 972.527 5.66667 974 5.66667C975.473 5.66667 976.667 4.47276 976.667 3C976.667 1.52724 975.473 0.333333 974 0.333333C972.527 0.333333 971.333 1.52724 971.333 3ZM2.72916 15.8811L132.675 99.6178L133.217 98.7772L3.27084 15.0405L2.72916 15.8811ZM133.149 99.6542L321.156 15.9176L320.749 15.0041L132.742 98.7407L133.149 99.6542ZM320.635 15.8469L498.689 162.386L499.324 161.614L321.27 15.0748L320.635 15.8469ZM499.316 162.392L629.262 59.7152L628.642 58.9306L498.696 161.608L499.316 162.392ZM628.639 59.7126L756.373 162.39L757 161.61L629.265 58.9332L628.639 59.7126ZM756.982 162.404L974.295 3.40352L973.705 2.59648L756.391 161.596L756.982 162.404Z" fill="#043381"/>
</svg>
