<svg width="26" height="26" viewBox="0 0 26 26" fill="none" xmlns="http://www.w3.org/2000/svg">
<g clip-path="url(#clip0_239_1684)">
<path d="M0.35 26H25.6375C25.8375 26 25.9875 25.8327 25.9875 25.6396V4.28614C25.9875 4.0802 25.825 3.92574 25.6375 3.92574H12.4875L9.15 0.115842C9.0875 0.0386139 8.9875 0 8.8875 0H0.3625C0.1625 0 0 0.167327 0 0.360396V7.4396C0 7.4396 0 7.4396 0 7.45248C0 7.46535 0 7.45248 0 7.46535V25.6396C0 25.8455 0.15 26 0.35 26ZM0.7125 0.733663H8.7375L12.0875 4.53069C12.15 4.60792 12.25 4.64653 12.35 4.64653H25.3V7.09208H25.2875H0.725V0.733663H0.7125ZM0.7125 7.82574H25.2875V25.2792H0.7125V7.82574Z" fill="#043381"/>
<path d="M16.3246 15.999H13.3621V12.8327C13.3621 12.6267 13.1996 12.4723 13.0121 12.4723C12.8246 12.4723 12.6621 12.6396 12.6621 12.8327V15.999H9.69961C9.49961 15.999 9.34961 16.1663 9.34961 16.3594C9.34961 16.5525 9.51211 16.7198 9.69961 16.7198H12.6621V19.5772C12.6621 19.7832 12.8246 19.9376 13.0121 19.9376C13.1996 19.9376 13.3621 19.7703 13.3621 19.5772V16.7198H16.3246C16.5246 16.7198 16.6746 16.5525 16.6746 16.3594C16.6746 16.1663 16.5121 15.999 16.3246 15.999Z" fill="#043381"/>
</g>
<defs>
<clipPath id="clip0_239_1684">
<rect width="26" height="26" fill="white"/>
</clipPath>
</defs>
</svg>
