<svg width="24" height="24" viewBox="0 0 24 24" fill="none" xmlns="http://www.w3.org/2000/svg">
<path d="M12.3825 23.5927C18.7988 23.5927 24.0003 18.3912 24.0003 11.9749C24.0003 5.55854 18.7988 0.357056 12.3825 0.357056C5.96614 0.357056 0.764648 5.55854 0.764648 11.9749C0.764648 18.3912 5.96614 23.5927 12.3825 23.5927Z" fill="#FCFAF9"/>
<path d="M12.3821 5.97836C14.3356 5.97836 14.5662 5.98525 15.3373 6.02139C16.0499 6.05409 16.4371 6.17285 16.6953 6.27268C17.0361 6.40521 17.2805 6.56356 17.537 6.82001C17.7934 7.07646 17.9518 7.31915 18.0843 7.66166C18.1841 7.91983 18.3029 8.30709 18.3356 9.01965C18.37 9.79073 18.3786 10.0231 18.3786 11.9749C18.3786 13.9267 18.3717 14.159 18.3356 14.9301C18.3029 15.6427 18.1841 16.0299 18.0843 16.2881C17.9518 16.6289 17.7934 16.8733 17.537 17.1298C17.2805 17.3862 17.0378 17.5446 16.6953 17.6771C16.4371 17.7769 16.0499 17.8957 15.3373 17.9284C14.5662 17.9628 14.3356 17.9714 12.3821 17.9714C10.4286 17.9714 10.1979 17.9645 9.42685 17.9284C8.71429 17.8957 8.32703 17.7769 8.06885 17.6771C7.72806 17.5446 7.48366 17.3862 7.22721 17.1298C6.97075 16.8733 6.81241 16.6306 6.67988 16.2881C6.58005 16.0299 6.46129 15.6427 6.42859 14.9301C6.39416 14.159 6.38556 13.9267 6.38556 11.9749C6.38556 10.0231 6.39244 9.79073 6.42859 9.01965C6.46129 8.30709 6.58005 7.91983 6.67988 7.66166C6.81241 7.32087 6.97075 7.07646 7.22721 6.82001C7.48366 6.56356 7.72634 6.40521 8.06885 6.27268C8.32703 6.17285 8.71429 6.05409 9.42685 6.02139C10.1979 5.98697 10.4303 5.97836 12.3821 5.97836ZM12.3821 4.65995C10.3959 4.65995 10.1463 4.66856 9.36661 4.7047C8.58864 4.74085 8.0568 4.86305 7.59037 5.04549C7.11017 5.2331 6.70225 5.48267 6.29434 5.88886C5.88814 6.29506 5.63685 6.70297 5.45097 7.1849C5.27025 7.64961 5.14632 8.18145 5.11018 8.96113C5.07403 9.74082 5.06543 9.99039 5.06543 11.9766C5.06543 13.9628 5.07403 14.2124 5.11018 14.9921C5.14632 15.77 5.26852 16.3019 5.45097 16.7683C5.63857 17.2485 5.88814 17.6564 6.29434 18.0644C6.70053 18.4705 7.10844 18.7218 7.59037 18.9077C8.05508 19.0884 8.58692 19.2124 9.36661 19.2485C10.1463 19.2847 10.3959 19.2933 12.3821 19.2933C14.3683 19.2933 14.6179 19.2847 15.3976 19.2485C16.1755 19.2124 16.7074 19.0902 17.1738 18.9077C17.654 18.7201 18.0619 18.4705 18.4698 18.0644C18.876 17.6582 19.1273 17.2502 19.3132 16.7683C19.4939 16.3036 19.6178 15.7718 19.654 14.9921C19.6901 14.2124 19.6987 13.9628 19.6987 11.9766C19.6987 9.99039 19.6901 9.74082 19.654 8.96113C19.6178 8.18317 19.4956 7.65133 19.3132 7.1849C19.1256 6.70469 18.876 6.29678 18.4698 5.88886C18.0636 5.48267 17.6557 5.23138 17.1738 5.04549C16.7091 4.86477 16.1772 4.74085 15.3976 4.7047C14.6179 4.66856 14.3683 4.65995 12.3821 4.65995Z" fill="#043381"/>
<path d="M12.3825 8.21927C10.3085 8.21927 8.62695 9.90085 8.62695 11.9748C8.62695 14.0488 10.3085 15.7304 12.3825 15.7304C14.4565 15.7304 16.1381 14.0488 16.1381 11.9748C16.1381 9.90085 14.4565 8.21927 12.3825 8.21927ZM12.3825 14.4137C11.0366 14.4137 9.94364 13.3225 9.94364 11.9748C9.94364 10.6272 11.0349 9.53596 12.3825 9.53596C13.7302 9.53596 14.8214 10.6272 14.8214 11.9748C14.8214 13.3225 13.7302 14.4137 12.3825 14.4137Z" fill="#043381"/>
<path d="M16.288 8.94736C16.7727 8.94736 17.1657 8.55436 17.1657 8.06956C17.1657 7.58477 16.7727 7.19177 16.288 7.19177C15.8032 7.19177 15.4102 7.58477 15.4102 8.06956C15.4102 8.55436 15.8032 8.94736 16.288 8.94736Z" fill="#043381"/>
</svg>
