<svg width="400" height="93" viewBox="0 0 400 93" fill="none" xmlns="http://www.w3.org/2000/svg">
<g clip-path="url(#clip0_664_718)">
<path d="M372.154 31.4063C375.147 31.4063 377.615 31.8888 379.558 32.8539C381.493 33.819 382.977 34.8658 384.01 35.9781C385.035 37.0904 385.667 37.8511 385.905 38.26H386.61V32.2814H400V78.8672H386.61V72.8886H385.905C385.667 73.2976 385.035 74.0582 384.01 75.1705C382.985 76.2828 381.501 77.3215 379.558 78.2947C377.623 79.2598 375.155 79.7424 372.154 79.7424C368.685 79.7424 365.676 79.0554 363.126 77.6732C360.567 76.2991 358.444 74.4507 356.738 72.1362C355.033 69.8216 353.753 67.229 352.909 64.3582C352.056 61.4875 351.63 58.5595 351.63 55.5661C351.63 52.5727 352.056 49.6447 352.909 46.774C353.762 43.9033 355.041 41.3107 356.738 38.9961C358.444 36.6815 360.567 34.8331 363.126 33.4591C365.684 32.0851 368.693 31.3899 372.154 31.3899V31.4063ZM376.032 42.2103C373.621 42.2103 371.612 42.8728 369.997 44.1896C368.382 45.5063 367.176 47.1911 366.381 49.244C365.586 51.2968 365.192 53.4069 365.192 55.5743C365.192 57.7417 365.586 59.8518 366.381 61.9046C367.176 63.9575 368.374 65.6423 369.997 66.9591C371.612 68.2758 373.621 68.9383 376.032 68.9383C378.443 68.9383 380.452 68.2758 382.067 66.9591C383.682 65.6423 384.888 63.9575 385.683 61.9046C386.479 59.8518 386.872 57.7417 386.872 55.5743C386.872 53.4069 386.479 51.2968 385.683 49.244C384.888 47.1911 383.682 45.5063 382.067 44.1896C380.452 42.8728 378.443 42.2103 376.032 42.2103Z" fill="#16E0BD"/>
<path d="M0 78.8672V13.822H24.673C29.9619 13.822 34.6111 14.7462 38.6372 16.5864C42.6633 18.4348 45.9924 20.9048 48.6409 24.0127C51.2812 27.1206 53.2819 30.6047 54.6349 34.4732C55.9879 38.3418 56.6602 42.2921 56.6602 46.3405C56.6602 50.389 55.9879 54.3393 54.6349 58.2078C53.2819 62.0764 51.2894 65.5605 48.6409 68.6684C46.0006 71.7763 42.6633 74.2463 38.6372 76.0947C34.6111 77.943 29.9537 78.859 24.673 78.859H0V78.8672ZM24.0581 25.6893H13.5706V66.82H24.0581C28.3465 66.82 31.8888 65.8222 34.6767 63.8348C37.4646 61.8474 39.5556 59.2629 40.9331 56.0977C42.3107 52.9326 43.0077 49.6529 43.0077 46.2506C43.0077 42.8482 42.3189 39.5849 40.9331 36.4525C39.5556 33.32 37.4646 30.7356 34.6767 28.7154C31.8888 26.6953 28.3465 25.6811 24.0581 25.6811V25.6893Z" fill="#043381"/>
<path d="M84.9413 79.7424C79.7098 79.7424 75.2738 78.6137 71.6331 76.3564C67.9924 74.0991 65.2127 71.1384 63.3021 67.4825C61.3916 63.8184 60.4404 59.8518 60.4404 55.5743C60.4404 51.2968 61.3916 47.3302 63.3021 43.6661C65.2127 40.0021 67.9842 37.0496 71.6331 34.7922C75.2738 32.5349 79.7098 31.4062 84.9413 31.4062C90.1727 31.4062 94.6006 32.5349 98.2495 34.7922C101.89 37.0496 104.67 40.0102 106.58 43.6661C108.491 47.3302 109.442 51.2968 109.442 55.5743C109.442 59.8518 108.483 63.8184 106.58 67.4825C104.67 71.1466 101.898 74.1072 98.2495 76.3564C94.6088 78.6137 90.1727 79.7424 84.9413 79.7424ZM84.9413 68.8402C87.2864 68.8402 89.2707 68.2268 90.8861 66.9918C92.5014 65.765 93.7478 64.1374 94.6334 62.1173C95.5189 60.0971 95.9535 57.9134 95.9535 55.5661C95.9535 53.2188 95.5107 50.9697 94.6334 48.9741C93.756 46.9867 92.5014 45.3673 90.8861 44.1405C89.2707 42.9137 87.2864 42.2921 84.9413 42.2921C82.5961 42.2921 80.5954 42.9055 78.9473 44.1405C77.2991 45.3673 76.0527 46.9867 75.2 48.9741C74.3472 50.9697 73.9208 53.1616 73.9208 55.5661C73.9208 57.9707 74.3472 60.0889 75.2 62.1173C76.0527 64.1374 77.2991 65.765 78.9473 66.9918C80.5872 68.2186 82.5879 68.8402 84.9413 68.8402Z" fill="#043381"/>
<path d="M138.076 79.7424C133.959 79.7424 130.376 79.0554 127.326 77.6732C124.267 76.2991 121.742 74.4671 119.749 72.1771C117.748 69.8952 116.256 67.3026 115.256 64.3991C114.255 61.4957 113.755 58.5514 113.755 55.5661C113.755 52.5809 114.255 49.6447 115.256 46.774C116.256 43.9033 117.748 41.3107 119.749 38.9961C121.742 36.6815 124.275 34.8331 127.326 33.4591C130.376 32.0851 133.968 31.3899 138.076 31.3899C142.184 31.3899 145.685 31.9951 148.383 33.1892C151.08 34.3915 153.245 35.8882 154.86 37.6711C156.476 39.4623 157.665 41.2452 158.427 43.0364C159.19 44.8275 159.78 46.9212 160.19 49.3176H147.677C147.267 47.8536 146.751 46.635 146.136 45.6699C145.521 44.7048 144.594 43.8542 143.356 43.1181C142.126 42.3821 140.478 42.0222 138.42 42.0222C135.894 42.0222 133.795 42.652 132.123 43.9115C130.45 45.171 129.203 46.8313 128.375 48.876C127.555 50.9288 127.145 53.1534 127.145 55.558C127.145 57.9625 127.555 60.1871 128.375 62.2399C129.195 64.2928 130.45 65.9449 132.123 67.2044C133.795 68.4639 135.894 69.0937 138.42 69.0937C140.478 69.0937 142.118 68.7257 143.356 67.9978C144.586 67.2617 145.513 66.4193 146.136 65.446C146.751 64.4809 147.267 63.2623 147.677 61.7983H160.19C159.78 64.2028 159.19 66.2966 158.427 68.0795C157.665 69.8707 156.476 71.6536 154.86 73.4366C153.245 75.2277 151.089 76.7162 148.383 77.9185C145.677 79.1208 142.241 79.7178 138.076 79.7178V79.7424Z" fill="#043381"/>
<path d="M187.331 79.7422C183.691 79.7422 180.78 79.2024 178.607 78.1147C176.434 77.0269 174.786 75.6529 173.671 73.9844C172.555 72.316 171.818 70.5412 171.465 68.6683C171.112 66.7953 170.94 65.0615 170.94 63.483V42.9135H163.011V32.2812H170.94V20.7656H184.33V32.2812H194.285V42.9135H184.33V63.1313C184.33 65.0615 184.847 66.5582 185.872 67.6132C186.897 68.6683 188.619 69.1917 191.03 69.1917C192.087 69.1917 193.498 69.02 195.261 68.6683V78.9489C192.087 79.4723 189.447 79.7422 187.331 79.7422Z" fill="#043381"/>
<path d="M223.107 79.7424C217.875 79.7424 213.439 78.6137 209.799 76.3564C206.158 74.0991 203.378 71.1384 201.476 67.4825C199.565 63.8184 198.614 59.8518 198.614 55.5743C198.614 51.2968 199.565 47.3302 201.476 43.6661C203.387 40.0021 206.158 37.0496 209.799 34.7922C213.439 32.5349 217.875 31.4062 223.107 31.4062C228.338 31.4062 232.766 32.5349 236.415 34.7922C240.056 37.0496 242.835 40.0102 244.746 43.6661C246.657 47.3302 247.608 51.2968 247.608 55.5743C247.608 59.8518 246.648 63.8184 244.746 67.4825C242.835 71.1466 240.064 74.1072 236.415 76.3564C232.774 78.6137 228.338 79.7424 223.107 79.7424ZM223.107 68.8402C225.452 68.8402 227.436 68.2268 229.052 66.9918C230.667 65.765 231.913 64.1374 232.799 62.1173C233.685 60.0971 234.119 57.9134 234.119 55.5661C234.119 53.2188 233.676 50.9697 232.799 48.9741C231.922 46.9867 230.667 45.3673 229.052 44.1405C227.436 42.9137 225.452 42.2921 223.107 42.2921C220.762 42.2921 218.761 42.9055 217.113 44.1405C215.465 45.3673 214.218 46.9867 213.366 48.9741C212.513 50.9697 212.086 53.1616 212.086 55.5661C212.086 57.9707 212.513 60.0889 213.366 62.1173C214.218 64.1374 215.465 65.765 217.113 66.9918C218.753 68.2186 220.754 68.8402 223.107 68.8402Z" fill="#043381"/>
<path d="M252.979 78.8672V32.2814H266.287V39.0452H266.73C267.254 37.8184 267.992 36.6161 268.935 35.4384C269.878 34.2688 271.166 33.3037 272.814 32.5349C274.454 31.7743 276.569 31.3899 279.16 31.3899C280.456 31.3899 281.858 31.5371 283.391 31.8315V45.0156C281.686 44.6639 280.161 44.4922 278.808 44.4922C274.634 44.4922 271.526 45.6208 269.468 47.8782C267.41 50.1355 266.385 53.8077 266.385 58.9112V78.8591H252.995L252.979 78.8672Z" fill="#043381"/>
<path d="M348.169 71.2692C344.438 71.2692 341.396 74.2953 341.396 78.0248C341.396 78.6791 341.495 79.317 341.667 79.9141L340.675 80.9773C335.37 86.6124 333.188 85.1157 332.467 84.6168C331.179 83.7335 330.417 82.1469 330.417 80.3721V53.3251C330.622 53.2924 330.827 53.2597 331.032 53.2188C331.384 53.1452 331.737 53.0716 332.081 52.9898C332.147 52.9734 332.221 52.9571 332.286 52.9407C344.225 50.1027 353.188 38.6853 353.188 25.0677C353.188 19.4081 351.646 13.9365 348.727 9.25011L347.661 7.54076C347.743 7.14001 347.784 6.71471 347.784 6.28942C347.784 2.81347 344.963 0 341.478 0C337.993 0 335.173 2.81347 335.173 6.28942C335.173 9.27465 337.256 11.761 340.052 12.4153L341.052 14.0101C343.086 17.2734 344.151 21.0929 344.151 25.0759C344.151 35.8472 336.239 44.6148 326.514 44.6148C316.789 44.6148 308.876 35.8472 308.876 25.0759C308.876 21.281 309.86 17.6006 311.722 14.4354L312.943 12.358C315.616 11.6301 317.584 9.19286 317.584 6.2976C317.584 2.82165 314.764 0.0081787 311.279 0.0081787C307.794 0.0081787 304.973 2.82165 304.973 6.2976C304.973 6.80468 305.039 7.2954 305.154 7.76977L303.932 9.86351C301.25 14.4109 299.84 19.678 299.84 25.0759C299.84 38.9633 309.155 50.5607 321.446 53.1043C321.569 53.137 321.692 53.1615 321.824 53.1861C321.84 53.1861 321.865 53.1861 321.889 53.1943C322.086 53.227 322.34 53.2679 322.635 53.3088V80.3721C322.635 84.6986 324.661 88.6816 328.055 91.0126C329.966 92.3293 332.016 93 334.156 93C338.067 93 342.167 90.7427 346.349 86.2853L347.784 84.764C347.915 84.764 348.038 84.7804 348.169 84.7804C351.9 84.7804 354.942 81.7543 354.942 78.0248C354.942 74.2953 351.908 71.2692 348.169 71.2692ZM348.169 81.877C346.037 81.877 344.307 80.1513 344.307 78.0248C344.307 75.8983 346.037 74.1726 348.169 74.1726C350.301 74.1726 352.031 75.8983 352.031 78.0248C352.031 80.1513 350.301 81.877 348.169 81.877Z" fill="#16E0BD"/>
<path d="M321.422 54.74C321.422 54.74 321.561 54.7727 321.824 54.8218C321.692 54.7972 321.569 54.7727 321.446 54.74H321.422Z" fill="#16E0BD"/>
</g>
<defs>
<clipPath id="clip0_664_718">
<rect width="400" height="93" fill="white"/>
</clipPath>
</defs>
</svg>
