<svg width="190" height="45" viewBox="0 0 190 45" fill="none" xmlns="http://www.w3.org/2000/svg">
<g clip-path="url(#clip0_664_258)">
<path d="M176.773 15.1966C178.195 15.1966 179.367 15.4301 180.29 15.8971C181.209 16.3641 181.914 16.8706 182.405 17.4088C182.892 17.9471 183.192 18.3151 183.305 18.513H183.64V15.6201H190V38.1616H183.64V35.2687H183.305C183.192 35.4666 182.892 35.8347 182.405 36.3729C181.918 36.9111 181.213 37.4137 180.29 37.8846C179.371 38.3516 178.198 38.5851 176.773 38.5851C175.125 38.5851 173.696 38.2527 172.485 37.5838C171.269 36.919 170.261 36.0246 169.451 34.9047C168.64 33.7847 168.033 32.5302 167.632 31.1411C167.227 29.7521 167.024 28.3353 167.024 26.8869C167.024 25.4385 167.227 24.0217 167.632 22.6327C168.037 21.2436 168.644 19.9891 169.451 18.8691C170.261 17.7492 171.269 16.8548 172.485 16.19C173.7 15.5251 175.129 15.1887 176.773 15.1887V15.1966ZM178.615 20.4244C177.47 20.4244 176.516 20.745 175.749 21.3821C174.981 22.0193 174.409 22.8345 174.031 23.8278C173.653 24.8211 173.466 25.8421 173.466 26.8909C173.466 27.9396 173.653 28.9606 174.031 29.9539C174.409 30.9472 174.977 31.7625 175.749 32.3996C176.516 33.0368 177.47 33.3573 178.615 33.3573C179.76 33.3573 180.715 33.0368 181.482 32.3996C182.249 31.7625 182.822 30.9472 183.199 29.9539C183.577 28.9606 183.764 27.9396 183.764 26.8909C183.764 25.8421 183.577 24.8211 183.199 23.8278C182.822 22.8345 182.249 22.0193 181.482 21.3821C180.715 20.745 179.76 20.4244 178.615 20.4244Z" fill="#16E0BD"/>
<path d="M0 38.1615V6.68799H11.7197C14.2319 6.68799 16.4403 7.13518 18.3527 8.0256C20.2651 8.91998 21.8464 10.1151 23.1044 11.619C24.3586 13.1228 25.3089 14.8086 25.9516 16.6805C26.5942 18.5524 26.9136 20.4638 26.9136 22.4228C26.9136 24.3817 26.5942 26.2931 25.9516 28.165C25.3089 30.0369 24.3625 31.7227 23.1044 33.2265C21.8503 34.7304 20.2651 35.9255 18.3527 36.8199C16.4403 37.7143 14.228 38.1575 11.7197 38.1575H0V38.1615ZM11.4276 12.4302H6.44602V32.3322H11.4276C13.4646 32.3322 15.1472 31.8494 16.4714 30.8877C17.7957 29.9261 18.7889 28.6755 19.4432 27.144C20.0976 25.6124 20.4286 24.0255 20.4286 22.3792C20.4286 20.7329 20.1015 19.1539 19.4432 17.6382C18.7889 16.1225 17.7957 14.872 16.4714 13.8945C15.1472 12.917 13.4646 12.4263 11.4276 12.4263V12.4302Z" fill="#043381"/>
<path d="M40.347 38.585C37.8621 38.585 35.7549 38.0389 34.0256 36.9466C32.2963 35.8543 30.9759 34.4218 30.0684 32.6528C29.1609 30.8799 28.7091 28.9605 28.7091 26.8908C28.7091 24.821 29.1609 22.9017 30.0684 21.1287C30.9759 19.3558 32.2924 17.9272 34.0256 16.8349C35.7549 15.7427 37.8621 15.1965 40.347 15.1965C42.8319 15.1965 44.9352 15.7427 46.6684 16.8349C48.3977 17.9272 49.7181 19.3598 50.6256 21.1287C51.5331 22.9017 51.9849 24.821 51.9849 26.8908C51.9849 28.9605 51.5292 30.8799 50.6256 32.6528C49.7181 34.4257 48.4016 35.8583 46.6684 36.9466C44.9391 38.0389 42.8319 38.585 40.347 38.585ZM40.347 33.3097C41.4609 33.3097 42.4035 33.0129 43.1708 32.4153C43.9381 31.8217 44.5301 31.0342 44.9508 30.0567C45.3714 29.0792 45.5778 28.0226 45.5778 26.8868C45.5778 25.751 45.3675 24.6627 44.9508 23.6971C44.534 22.7354 43.9381 21.9519 43.1708 21.3583C42.4035 20.7646 41.4609 20.4639 40.347 20.4639C39.2331 20.4639 38.2827 20.7607 37.4998 21.3583C36.717 21.9519 36.125 22.7354 35.7199 23.6971C35.3148 24.6627 35.1123 25.7233 35.1123 26.8868C35.1123 28.0503 35.3148 29.0753 35.7199 30.0567C36.125 31.0342 36.717 31.8217 37.4998 32.4153C38.2788 33.009 39.2292 33.3097 40.347 33.3097Z" fill="#043381"/>
<path d="M65.5859 38.5848C63.6307 38.5848 61.9286 38.2524 60.4797 37.5836C59.0269 36.9188 57.8273 36.0323 56.8808 34.9242C55.9305 33.8201 55.2216 32.5656 54.7465 31.1607C54.2713 29.7558 54.0337 28.3311 54.0337 26.8867C54.0337 25.4422 54.2713 24.0215 54.7465 22.6324C55.2216 21.2434 55.9305 19.9888 56.8808 18.8689C57.8273 17.7489 59.0308 16.8546 60.4797 16.1897C61.9286 15.5249 63.6346 15.1885 65.5859 15.1885C67.5372 15.1885 69.2004 15.4813 70.4818 16.0591C71.7632 16.6409 72.7914 17.3651 73.5587 18.2278C74.326 19.0945 74.8908 19.9572 75.253 20.8239C75.6152 21.6905 75.8957 22.7036 76.0904 23.8632H70.1468C69.9521 23.1548 69.7067 22.5651 69.4146 22.0982C69.1225 21.6312 68.6823 21.2196 68.0942 20.8634C67.51 20.5073 66.7271 20.3331 65.7495 20.3331C64.5499 20.3331 63.5528 20.6379 62.7582 21.2473C61.9637 21.8568 61.3716 22.6601 60.9783 23.6495C60.5888 24.6428 60.394 25.7192 60.394 26.8827C60.394 28.0462 60.5888 29.1226 60.9783 30.1159C61.3678 31.1092 61.9637 31.9086 62.7582 32.5181C63.5528 33.1275 64.5499 33.4323 65.7495 33.4323C66.7271 33.4323 67.5061 33.2542 68.0942 32.902C68.6784 32.5458 69.1186 32.1382 69.4146 31.6672C69.7067 31.2003 69.9521 30.6106 70.1468 29.9022H76.0904C75.8957 31.0657 75.6152 32.0788 75.253 32.9415C74.8908 33.8082 74.326 34.6709 73.5587 35.5337C72.7914 36.4003 71.7671 37.1206 70.4818 37.7023C69.1965 38.2841 67.5645 38.573 65.5859 38.573V38.5848Z" fill="#043381"/>
<path d="M88.9824 38.5849C87.2531 38.5849 85.8704 38.3237 84.8382 37.7974C83.8061 37.2711 83.0232 36.6062 82.4935 35.7989C81.9638 34.9916 81.6133 34.1328 81.4458 33.2266C81.2783 32.3203 81.1965 31.4813 81.1965 30.7175V20.7646H77.4302V15.6199H81.1965V10.0479H87.5569V15.6199H92.2852V20.7646H87.5569V30.5474C87.5569 31.4813 87.8022 32.2055 88.2891 32.716C88.776 33.2266 89.5939 33.4798 90.739 33.4798C91.2414 33.4798 91.9113 33.3967 92.7487 33.2266V38.201C91.2414 38.4543 89.9873 38.5849 88.9824 38.5849Z" fill="#043381"/>
<path d="M105.976 38.585C103.491 38.585 101.384 38.0389 99.6544 36.9466C97.9251 35.8543 96.6047 34.4218 95.7011 32.6528C94.7936 30.8799 94.3418 28.9605 94.3418 26.8908C94.3418 24.821 94.7936 22.9017 95.7011 21.1287C96.6086 19.3558 97.9251 17.9272 99.6544 16.8349C101.384 15.7427 103.491 15.1965 105.976 15.1965C108.461 15.1965 110.564 15.7427 112.297 16.8349C114.027 17.9272 115.347 19.3598 116.254 21.1287C117.162 22.9017 117.614 24.821 117.614 26.8908C117.614 28.9605 117.158 30.8799 116.254 32.6528C115.347 34.4257 114.03 35.8583 112.297 36.9466C110.568 38.0389 108.461 38.585 105.976 38.585ZM105.976 33.3097C107.09 33.3097 108.032 33.0129 108.8 32.4153C109.567 31.8217 110.159 31.0342 110.58 30.0567C111 29.0792 111.207 28.0226 111.207 26.8868C111.207 25.751 110.996 24.6627 110.58 23.6971C110.163 22.7354 109.567 21.9519 108.8 21.3583C108.032 20.7646 107.09 20.4639 105.976 20.4639C104.862 20.4639 103.912 20.7607 103.129 21.3583C102.346 21.9519 101.754 22.7354 101.349 23.6971C100.944 24.6627 100.741 25.7233 100.741 26.8868C100.741 28.0503 100.944 29.0753 101.349 30.0567C101.754 31.0342 102.346 31.8217 103.129 32.4153C103.908 33.009 104.858 33.3097 105.976 33.3097Z" fill="#043381"/>
<path d="M120.165 38.1614V15.6198H126.486V18.8926H126.697C126.946 18.299 127.296 17.7173 127.744 17.1474C128.192 16.5815 128.804 16.1145 129.587 15.7425C130.365 15.3745 131.37 15.1885 132.601 15.1885C133.217 15.1885 133.883 15.2597 134.611 15.4022V21.7816C133.801 21.6114 133.076 21.5283 132.434 21.5283C130.451 21.5283 128.975 22.0744 127.997 23.1667C127.02 24.2589 126.533 26.0358 126.533 28.5052V38.1574H120.173L120.165 38.1614Z" fill="#043381"/>
<path d="M165.38 34.4851C163.608 34.4851 162.163 35.9493 162.163 37.7539C162.163 38.0705 162.21 38.3792 162.292 38.6681L161.821 39.1826C159.301 41.9092 158.265 41.185 157.922 40.9436C157.31 40.5162 156.948 39.7485 156.948 38.8897V25.8025C157.045 25.7866 157.143 25.7708 157.24 25.751C157.408 25.7154 157.575 25.6798 157.739 25.6402C157.77 25.6323 157.805 25.6244 157.836 25.6165C163.507 24.2433 167.764 18.7187 167.764 12.1295C167.764 9.39099 167.032 6.74347 165.645 4.47586L165.139 3.64876C165.178 3.45484 165.197 3.24905 165.197 3.04327C165.197 1.36136 163.858 0 162.202 0C160.547 0 159.207 1.36136 159.207 3.04327C159.207 4.48773 160.196 5.69079 161.525 6.00739L162 6.77909C162.966 8.3581 163.472 10.2062 163.472 12.1335C163.472 17.3454 159.713 21.5878 155.094 21.5878C150.475 21.5878 146.716 17.3454 146.716 12.1335C146.716 10.2972 147.184 8.5164 148.068 6.98487L148.648 5.97968C149.918 5.62747 150.853 4.44816 150.853 3.04723C150.853 1.36532 149.513 0.00395744 147.857 0.00395744C146.202 0.00395744 144.862 1.36532 144.862 3.04723C144.862 3.29259 144.893 3.53003 144.948 3.75956L144.368 4.77267C143.094 6.973 142.424 9.52159 142.424 12.1335C142.424 18.8532 146.849 24.4649 152.687 25.6956C152.745 25.7115 152.804 25.7233 152.866 25.7352C152.874 25.7352 152.886 25.7352 152.897 25.7392C152.991 25.755 153.112 25.7748 153.252 25.7946V38.8897C153.252 40.9832 154.214 42.9105 155.826 44.0383C156.734 44.6755 157.708 45 158.724 45C160.582 45 162.529 43.9077 164.516 41.7509L165.197 41.0149C165.26 41.0149 165.318 41.0228 165.38 41.0228C167.153 41.0228 168.598 39.5585 168.598 37.7539C168.598 35.9493 167.157 34.4851 165.38 34.4851ZM165.38 39.6179C164.368 39.6179 163.546 38.7829 163.546 37.7539C163.546 36.725 164.368 35.89 165.38 35.89C166.393 35.89 167.215 36.725 167.215 37.7539C167.215 38.7829 166.393 39.6179 165.38 39.6179Z" fill="#16E0BD"/>
<path d="M152.675 26.4871C152.675 26.4871 152.742 26.5029 152.866 26.5266C152.804 26.5148 152.746 26.5029 152.687 26.4871H152.675Z" fill="#16E0BD"/>
</g>
<defs>
<clipPath id="clip0_664_258">
<rect width="190" height="45" fill="white"/>
</clipPath>
</defs>
</svg>
