<svg width="9" height="9" viewBox="0 0 9 9" fill="none" xmlns="http://www.w3.org/2000/svg">
<path d="M4.5 7.99914C3.60265 7.99914 2.7053 7.65877 2.02456 6.97458C1.36444 6.31446 1 5.43431 1 4.49914C1 3.56397 1.36444 2.68382 2.02456 2.0237C3.38949 0.658767 5.61051 0.658767 6.97544 2.0237C8.34037 3.38863 8.34037 5.60965 6.97544 6.97458C6.29126 7.65877 5.39735 7.99914 4.5 7.99914ZM4.5 1.19511C3.65422 1.19511 2.80501 1.5183 2.16208 2.16122C1.53978 2.78696 1.19597 3.61555 1.19597 4.49914C1.19597 5.38274 1.53978 6.21132 2.16552 6.83706C3.45481 8.12635 5.55206 8.12635 6.84136 6.83706C8.13065 5.54776 8.13065 3.45052 6.84136 2.16122C6.19843 1.5183 5.34921 1.19511 4.50344 1.19511H4.5Z" fill="white" stroke="white" stroke-width="0.5"/>
<path d="M3.06978 6.02909C3.04572 6.02909 3.01821 6.01877 3.00102 6.00158C2.9632 5.96376 2.9632 5.90188 3.00102 5.86406L5.83059 3.03105C5.86841 2.99323 5.93029 2.99323 5.96811 3.03105C6.00593 3.06887 6.00593 3.13076 5.96811 3.16857L3.13855 6.00158C3.11792 6.02221 3.09385 6.02909 3.06978 6.02909Z" fill="white" stroke="white" stroke-width="0.5"/>
<path d="M5.89935 6.02909C5.87528 6.02909 5.85122 6.01877 5.83059 6.00158L3.00102 3.16857C2.9632 3.13076 2.9632 3.06887 3.00102 3.03105C3.03884 2.99323 3.10073 2.99323 3.13855 3.03105L5.97155 5.86406C6.00937 5.90188 6.00937 5.96376 5.97155 6.00158C5.95092 6.02221 5.92686 6.02909 5.90279 6.02909H5.89935Z" fill="white" stroke="white" stroke-width="0.5"/>
</svg>
