<svg width="23" height="23" viewBox="0 0 23 23" fill="none" xmlns="http://www.w3.org/2000/svg">
<path d="M11.5013 22C8.80892 22 6.11654 20.9788 4.07405 18.9259C2.09345 16.9454 1 14.3046 1 11.4987C1 8.69287 2.09345 6.05207 4.07405 4.07147C8.16935 -0.0238242 14.8332 -0.0238242 18.9285 4.07147C23.0238 8.16677 23.0238 14.8307 18.9285 18.9259C16.8757 20.9788 14.1937 22 11.5013 22ZM11.5013 1.58541C8.96365 1.58541 6.41569 2.55508 4.48668 4.4841C2.61955 6.36154 1.58799 8.8476 1.58799 11.4987C1.58799 14.1498 2.61955 16.6359 4.49699 18.5133C8.36535 22.3817 14.6579 22.3817 18.5262 18.5133C22.3946 14.645 22.3946 8.35245 18.5262 4.4841C16.5972 2.55508 14.0492 1.58541 11.5116 1.58541H11.5013Z" fill="#8B8B8B" stroke="#8B8B8B" stroke-width="0.928624"/>
<path d="M7.20938 16.0869C7.13718 16.0869 7.05465 16.056 7.00307 16.0044C6.8896 15.8909 6.8896 15.7052 7.00307 15.5918L15.4928 7.0917C15.6063 6.97822 15.792 6.97822 15.9054 7.0917C16.0189 7.20517 16.0189 7.39085 15.9054 7.50432L7.4157 16.0044C7.3538 16.0663 7.28159 16.0869 7.20938 16.0869Z" fill="#8B8B8B" stroke="#8B8B8B" stroke-width="0.928624"/>
<path d="M15.6991 16.0869C15.6269 16.0869 15.5547 16.056 15.4928 16.0044L7.00307 7.50432C6.8896 7.39085 6.8896 7.20517 7.00307 7.0917C7.11654 6.97822 7.30222 6.97822 7.4157 7.0917L15.9158 15.5918C16.0292 15.7052 16.0292 15.8909 15.9158 16.0044C15.8539 16.0663 15.7817 16.0869 15.7094 16.0869H15.6991Z" fill="#8B8B8B" stroke="#8B8B8B" stroke-width="0.928624"/>
</svg>
