<svg width="22" height="20" viewBox="0 0 22 20" fill="none" xmlns="http://www.w3.org/2000/svg">
<g clip-path="url(#clip0_216_2710)">
<path d="M7.55874 2.03461C5.91075 2.03461 4.37142 2.73336 3.33916 3.94932C3.15082 4.17196 3.18704 4.49393 3.42247 4.67204C3.52388 4.7474 3.64341 4.78508 3.76293 4.78508C3.9223 4.78508 4.08166 4.72 4.1867 4.59326C5.01251 3.62049 6.24035 3.06218 7.55874 3.06218C8.76848 3.06218 9.89128 3.52459 10.7171 4.36035C10.9235 4.56929 11.264 4.57956 11.4849 4.38432C11.7059 4.18909 11.7168 3.86711 11.5103 3.65817C10.4925 2.62717 9.05099 2.03461 7.55512 2.03461H7.55874Z" fill="#666666"/>
<path d="M20.7683 16.8796L16.2807 12.6357C15.9149 12.2898 15.4295 12.1014 14.9116 12.1014C14.5639 12.1014 14.2343 12.1939 13.9409 12.3549L13.3143 11.7623C14.4335 10.5155 15.1108 8.90563 15.1108 7.14506C15.1144 3.20603 11.7243 0 7.55903 0C3.39378 0 0 3.20603 0 7.14848C0 11.0909 3.39015 14.297 7.55903 14.297C9.47504 14.297 11.2208 13.6119 12.5573 12.4987L13.1984 13.105C13.0608 13.3585 12.9811 13.6393 12.9811 13.9305C12.9811 14.4203 13.1839 14.8793 13.5461 15.2252L18.0337 19.4691C18.3995 19.815 18.8849 20.0034 19.4028 20.0034C19.9208 20.0034 20.4061 19.8116 20.7719 19.4691C21.5253 18.7566 21.5253 17.5955 20.7719 16.883L20.7683 16.8796ZM1.08659 7.14848C1.08659 3.77462 3.98778 1.02757 7.55903 1.02757C11.1303 1.02757 14.0315 3.77462 14.0315 7.14848C14.0315 10.5224 11.1267 13.2694 7.55903 13.2694C3.9914 13.2694 1.08659 10.5224 1.08659 7.14848ZM20.0005 18.7395C19.6817 19.0409 19.1239 19.0409 18.8016 18.7395L14.314 14.4956C14.1546 14.3449 14.0641 14.1428 14.0641 13.9305C14.0641 13.7181 14.151 13.516 14.314 13.3653C14.4733 13.2146 14.687 13.129 14.9116 13.129C15.1362 13.129 15.3499 13.2112 15.5128 13.3653L20.0005 17.6092C20.3301 17.9209 20.3301 18.4312 20.0005 18.7429V18.7395Z" fill="#666666"/>
</g>
<defs>
<clipPath id="clip0_216_2710">
<rect width="21.3333" height="20" fill="white"/>
</clipPath>
</defs>
</svg>
