<svg width="82" height="82" viewBox="0 0 82 82" fill="none" xmlns="http://www.w3.org/2000/svg">
<path d="M41.7889 82C41.4763 82 41.0075 81.8433 40.6793 81.6866C31.0681 74.4158 22.879 66.0481 16.2528 56.7246C8.53255 45.5051 3.01587 32.7028 0.0309259 18.8037C-0.125354 17.8636 0.343485 17.0644 1.29679 16.751C9.95469 14.0558 19.4096 10.107 24.4575 0.940187C24.77 0.313396 25.4108 0 26.0359 0H58.3389C58.964 0 59.6048 0.313396 59.9173 0.940187C63.3867 8.21097 70.9507 13.8991 80.7182 16.7353C81.6715 17.0487 82.1403 17.8479 81.984 18.7881C76.1548 45.4894 63.0742 66.6593 43.0704 81.6709C42.6015 81.8276 42.289 81.9843 41.8045 81.9843L41.7889 82ZM3.96918 19.5872C9.48585 43.28 22.2539 62.8672 41.7889 77.8788C60.2299 63.823 72.3572 44.2201 78.0302 19.5872C68.5752 16.5786 61.1676 10.7338 57.2293 3.47869H27.1298C24.4575 7.89757 20.6755 11.533 15.6276 14.5416C11.5331 16.9077 7.59487 18.3337 3.96918 19.6029V19.5872Z" fill="#043381"/>
<path d="M41.7892 70.3103C41.4766 70.3103 41.0078 70.1536 40.6796 69.9969C34.069 65.0922 28.5523 59.0907 23.9733 52.149C18.9255 44.4081 15.3154 35.398 13.0962 25.291C12.94 24.3508 13.4088 23.5516 14.3621 23.2382C19.5662 21.6556 25.2392 19.1328 28.8649 12.4888C29.1774 11.862 29.8025 11.5486 30.4433 11.5486H53.1351C53.7602 11.5486 54.401 11.862 54.7135 12.4888C57.3859 17.8635 61.6524 21.3422 67.7942 23.2382C68.7318 23.5516 69.2163 24.3508 69.06 25.291C66.8565 35.5547 63.3871 44.5648 58.8237 51.9923C54.5729 59.1064 49.2125 65.1079 42.7581 69.8402C42.6019 70.1536 42.2893 70.3103 41.8205 70.3103H41.7892ZM17.0501 26.0745C20.9884 42.9822 29.3337 56.4112 41.7892 66.2048C53.4477 57.038 61.0116 43.9224 65.2624 26.0745C59.4332 24.0217 55.0261 20.3863 52.1818 15.0116H31.6935C27.599 21.4832 21.926 24.4918 17.0345 26.0745H17.0501Z" fill="#043381"/>
<path d="M41.7892 70.3104C40.8359 70.3104 40.0545 69.5269 40.0545 68.571L39.2731 23.5517C39.2731 22.6115 40.0545 21.8124 41.0078 21.8124C41.9611 21.8124 42.7425 22.5959 42.7425 23.5517L43.5239 68.571C43.6802 69.5112 42.8988 70.3104 41.7892 70.3104Z" fill="#043381"/>
<path d="M33.4439 5.0614H30.1307V8.3834H33.4439V5.0614Z" fill="#043381"/>
<path d="M40.2108 5.0614H36.8977V8.3834H40.2108V5.0614Z" fill="#043381"/>
<path d="M46.8371 5.0614H43.5239V8.3834H46.8371V5.0614Z" fill="#043381"/>
<path d="M53.4477 5.0614H50.1346V8.3834H53.4477V5.0614Z" fill="#043381"/>
</svg>
