<svg width="82" height="81" viewBox="0 0 82 81" fill="none" xmlns="http://www.w3.org/2000/svg">
<path d="M73.5163 77.49H46.1875V72.09C49.6053 70.875 50.6995 66.69 48.2409 63.99C49.0649 63.045 49.6053 61.965 49.6053 60.615V56.295C49.6053 54.405 50.5644 52.515 52.0639 51.435L58.4807 55.485C59.1697 55.89 59.9802 55.755 60.6692 55.215L64.6274 51.3C65.1812 50.76 65.3163 49.815 64.8975 49.14L60.8043 42.795C61.7634 41.04 62.574 39.285 62.9928 37.395L70.5038 35.775C71.3279 35.64 71.8682 34.965 71.8682 34.155V28.485C71.8682 27.675 71.3279 27 70.5038 26.865L62.8577 25.11C62.3038 23.22 61.6283 21.465 60.6692 19.71L64.776 13.365C65.1812 12.69 65.0461 11.88 64.5058 11.205L60.5476 7.29C59.9937 6.75 59.0481 6.615 58.3592 7.02L51.9423 11.07C50.3078 10.125 48.3895 9.315 46.4712 8.775L44.8366 1.35C44.7015 0.54 44.0125 0 43.202 0H37.4606C36.6366 0 35.9611 0.54 35.826 1.35L34.1914 8.91C32.2732 9.45 30.5035 10.125 28.7203 11.205L22.3035 7.155C21.6145 6.75 20.804 6.885 20.115 7.425L16.1568 11.34C15.6165 11.88 15.4679 12.825 15.8867 13.5L19.9799 19.845C19.0208 21.6 18.2102 23.355 17.7914 25.245L10.2804 26.865C9.45635 27 8.91599 27.675 8.91599 28.485V34.155C8.91599 34.965 9.45635 35.64 10.2804 35.775L17.7914 37.395C18.3318 39.285 19.0208 41.04 19.9799 42.795L15.8867 49.14C15.4814 49.815 15.6165 50.625 16.1568 51.3L20.115 55.215C20.6554 55.755 21.6145 55.89 22.3035 55.485L28.7203 51.435C30.0847 52.65 30.9087 54.27 30.9087 56.025V60.615C30.9087 61.965 31.4626 63.045 32.2732 63.99C29.8145 66.69 30.9087 70.875 34.3265 72.09V77.49H8.60528C7.64613 77.49 6.82208 78.3 6.82208 79.245C6.82208 80.19 7.64613 81 8.60528 81H73.5163C74.4755 81 75.2995 80.19 75.2995 79.245C75.1644 78.3 74.3404 77.49 73.5163 77.49ZM44.4178 69.12H35.8125C34.8534 69.12 34.0428 68.31 34.0428 67.365C34.0428 66.42 34.8669 65.61 35.8125 65.61H44.4178C45.3769 65.61 46.201 66.42 46.201 67.365C46.201 68.31 45.3769 69.12 44.4178 69.12ZM40.311 28.62C39.3519 28.62 38.5279 29.43 38.5279 30.375V38.205C35.3802 37.395 33.1918 34.695 33.1918 31.455C33.1918 27.54 36.3394 24.435 40.2975 24.435C44.2557 24.435 47.4033 27.54 47.4033 31.455C47.4033 34.695 45.0797 37.53 42.0672 38.205V30.375C42.0672 29.295 41.2432 28.62 40.2975 28.62H40.311ZM29.6524 48.06C29.112 47.655 28.288 47.655 27.7341 48.06L21.5875 51.975L19.399 49.815L23.3572 43.74C23.7624 43.2 23.7624 42.525 23.3572 41.985C22.1278 40.095 21.1687 37.935 20.7634 35.775C20.6283 35.1 20.0745 34.695 19.399 34.56L12.2933 32.67V29.7L19.399 28.08C20.088 27.945 20.6283 27.405 20.7634 26.865C21.3038 24.705 22.1278 22.545 23.3572 20.655C23.7624 20.115 23.7624 19.44 23.3572 18.9L19.399 12.825L21.4524 10.8L27.599 14.715C28.1394 15.12 28.8283 15.12 29.3822 14.715C31.3005 13.5 33.4755 12.555 35.6639 12.15C36.3529 12.015 36.7582 11.475 36.8933 10.8L38.5279 3.645H41.5404L43.175 10.8C43.3101 11.475 43.8639 12.015 44.4043 12.15C46.7278 12.69 48.7812 13.5 50.686 14.715C51.2399 15.12 51.9153 15.12 52.4692 14.715L58.6158 10.8L60.6692 12.825L56.711 18.9C56.3058 19.44 56.3058 20.115 56.711 20.655C57.9404 22.545 58.8995 24.705 59.3048 26.865C59.4399 27.54 59.9937 27.945 60.6692 28.08L67.775 29.7V32.67L60.6692 34.29C59.9802 34.425 59.4399 34.965 59.3048 35.505C58.7644 37.665 57.9404 39.825 56.711 41.715C56.3058 42.255 56.3058 42.93 56.711 43.47L60.6692 49.545L58.6158 51.57L52.4692 47.655C51.9288 47.25 51.2399 47.25 50.686 47.655C50.5509 47.79 50.4158 47.79 50.2807 47.925C47.5519 49.545 45.7687 52.65 45.7687 56.025V60.615C45.7687 61.56 44.9447 62.37 43.999 62.37H41.5404V41.58C46.4577 40.77 50.2807 36.45 50.2807 31.32C50.2807 25.65 45.6336 20.925 39.7572 20.925C33.8807 20.925 29.2336 25.65 29.2336 31.32C29.2336 36.45 33.0567 40.77 37.974 41.58V62.37H35.2451C34.286 62.37 33.462 61.56 33.462 60.615V56.025C34.1509 52.785 32.5028 49.815 29.6389 48.06H29.6524ZM37.5822 77.49V72.36H42.7697V77.49H37.5822Z" fill="#043381"/>
<path d="M78.5822 70.74H56.4408C55.4817 70.74 54.6577 71.55 54.6577 72.495C54.6577 73.44 55.4817 74.25 56.4408 74.25H78.7173C79.6764 74.25 80.487 73.44 80.487 72.495C80.3519 71.55 79.5278 70.74 78.5687 70.74H78.5822Z" fill="#043381"/>
<path d="M25.6942 72.495C25.6942 71.55 24.8702 70.74 23.911 70.74H1.76969C0.810544 70.74 0 71.55 0 72.495C0 73.44 0.824053 74.25 1.76969 74.25H24.0461C24.8702 74.115 25.6807 73.305 25.6807 72.495H25.6942Z" fill="#043381"/>
</svg>
