<svg width="114" height="114" viewBox="0 0 114 114" fill="none" xmlns="http://www.w3.org/2000/svg">
<g clip-path="url(#clip0_832_361)">
<path d="M108.771 34.5763C105.921 27.8335 101.837 21.7802 96.6398 16.5833C91.4398 11.3832 85.3865 7.30232 78.6468 4.45188C71.666 1.49633 64.2524 0 56.61 0C48.9676 0 41.554 1.49633 34.5732 4.44879C27.8304 7.29923 21.7771 11.3832 16.5802 16.5802C11.3801 21.7802 7.29923 27.8335 4.44879 34.5732C1.49633 41.554 0 48.9676 0 56.61C0 66.5989 2.63712 76.4178 7.62694 85.0062C12.4684 93.338 19.4059 100.35 27.6851 105.281C36.4034 110.475 46.4047 113.217 56.61 113.217C67.3378 113.217 77.7781 110.203 86.8055 104.499C94.7385 99.4872 101.364 92.5219 105.964 84.3539C110.713 75.9293 113.22 66.333 113.22 56.6038C113.22 48.9614 111.724 41.5478 108.771 34.567V34.5763ZM103.404 82.9163C99.2244 90.333 93.2824 96.7048 86.181 101.404C86.3109 99.6263 86.3789 97.7868 86.3789 95.8855C86.3789 84.6878 74.6679 77.5091 57.1912 77.5091C39.7145 77.5091 28.0036 84.6878 28.0036 95.8855C28.0036 98.0681 28.0932 100.167 28.2633 102.189C20.8218 97.5488 14.5799 91.1183 10.1713 83.5284C5.44119 75.3883 2.9401 66.0795 2.9401 56.6069C2.9401 49.3602 4.35913 42.3331 7.15702 35.7171C9.85906 29.3268 13.7297 23.5857 18.6608 18.6577C23.5888 13.7266 29.3299 9.85906 35.7202 7.15393C42.3362 4.35604 49.3664 2.93701 56.61 2.93701C63.8536 2.93701 70.8838 4.35604 77.4998 7.15393C83.8901 9.85597 89.6312 13.7266 94.5592 18.6577C99.4903 23.5888 103.358 29.3268 106.063 35.7171C108.861 42.3331 110.28 49.3633 110.28 56.6069C110.28 65.8322 107.902 74.9276 103.401 82.9132L103.404 82.9163Z" fill="#043381"/>
<path d="M12.542 45.3195V51.2894C12.542 54.3439 14.771 56.9439 17.7915 57.4107L19.6619 57.6982V38.9138L17.7915 39.2013C14.771 39.665 12.542 42.265 12.542 45.3226V45.3195Z" fill="#043381"/>
<path d="M95.428 39.2013L93.5576 38.9138V57.6982L95.428 57.4107C98.4485 56.947 100.678 54.3469 100.678 51.2894V45.3195C100.678 42.265 98.4485 39.665 95.428 39.1982V39.2013Z" fill="#043381"/>
<path d="M69.4985 22.1976C68.7967 19.1338 66.2709 17.013 57.1878 17.013C48.1047 17.013 45.6562 19.0689 44.9111 22.0616C48.2871 21.7029 52.164 21.4927 56.6097 21.4927C61.5871 21.4927 65.8504 21.7524 69.4985 22.1976Z" fill="#043381"/>
<path d="M81.7999 37.47C78.2879 35.5718 71.1679 33.3056 57.1878 33.3056C43.2077 33.3056 36.0908 35.5718 32.5788 37.47C30.4549 38.6201 29.1348 40.8367 29.1348 43.2574V56.8017C29.1348 59.2224 30.4549 61.4391 32.5788 62.5891C36.0908 64.4874 43.2107 66.7535 57.1878 66.7535C71.1649 66.7535 78.2879 64.4874 81.7999 62.5891C83.9238 61.4391 85.2439 59.2224 85.2439 56.8017V43.2574C85.2439 40.8367 83.9238 38.6201 81.7999 37.47ZM45.0781 49.3479C42.3482 49.3479 40.1377 50.7051 40.1377 47.9752C40.1377 45.2453 42.3482 43.0348 45.0781 43.0348C47.8079 43.0348 50.0184 45.2453 50.0184 47.9752C50.0184 50.7051 47.8079 49.3479 45.0781 49.3479ZM60.1093 59.8592C59.3612 60.6043 58.3317 61.0681 57.1909 61.0681C54.9124 61.0681 53.0636 59.2193 53.0636 56.9408C53.0636 56.78 53.1286 56.6316 53.2368 56.5234C53.345 56.4152 53.4903 56.3503 53.6541 56.3503H60.7308C61.0554 56.3503 61.3213 56.6162 61.3213 56.9408C61.3213 58.0816 60.8575 59.1111 60.1124 59.8592H60.1093ZM71.0907 49.4994C70.5373 49.4221 69.9313 49.3479 69.3006 49.3479C66.5739 49.3479 64.3603 50.7051 64.3603 47.9752C64.3603 45.2453 66.5739 43.0348 69.3006 43.0348C69.9622 43.0348 70.596 43.1647 71.1741 43.4027C72.9734 44.1416 74.2441 45.91 74.2441 47.9752C74.2441 50.0404 72.9363 49.756 71.0938 49.4963L71.0907 49.4994Z" fill="#043381"/>
<path d="M67.2914 96.4203C65.4705 96.4203 63.9896 97.8981 63.9896 99.716C63.9896 100.037 64.0391 100.344 64.1226 100.637L63.6372 101.157C61.0526 103.908 59.9891 103.179 59.6367 102.934C59.0091 102.505 58.635 101.729 58.635 100.863V87.6495C58.7339 87.6341 58.8329 87.6248 58.9349 87.6031C59.108 87.566 59.2811 87.532 59.4481 87.4918C59.479 87.4826 59.5161 87.4764 59.547 87.4671C65.3685 86.0821 69.74 80.5079 69.74 73.858C69.74 72.306 69.505 70.7849 69.0444 69.3442C68.6857 68.2158 63.8165 68.457 63.8165 68.457C64.1133 68.9361 64.3699 69.4401 64.5801 69.9626C65.0717 71.1775 65.3283 72.5007 65.3283 73.858C65.3283 79.1198 61.47 83.3986 56.7275 83.3986C51.985 83.3986 48.1267 79.1167 48.1267 73.858C48.1267 72.6182 48.3431 71.4032 48.7543 70.2717C48.9583 69.7121 49.2118 69.1711 49.5117 68.661C49.5117 68.661 44.7352 68.3271 44.4106 69.3442C43.95 70.788 43.7119 72.3122 43.7119 73.858C43.7119 80.6409 48.2535 86.3016 54.248 87.5444C54.3068 87.5599 54.3686 87.5722 54.4335 87.5846C54.4428 87.5846 54.4521 87.5846 54.4644 87.5877C54.5572 87.6031 54.687 87.6248 54.8293 87.6464V100.863C54.8293 102.978 55.8155 104.922 57.4726 106.06C58.4062 106.7 59.4048 107.028 60.4498 107.028C62.3542 107.028 64.3575 105.924 66.398 103.747L67.0967 103.002C67.1585 103.005 67.2203 103.012 67.2822 103.012C69.1031 103.012 70.584 101.531 70.584 99.7129C70.584 97.895 69.1031 96.4172 67.2822 96.4172L67.2914 96.4203ZM67.2914 101.599C66.2527 101.599 65.4056 100.755 65.4056 99.716C65.4056 98.6772 66.2496 97.8332 67.2914 97.8332C68.3333 97.8332 69.1742 98.6772 69.1742 99.716C69.1742 100.755 68.3302 101.599 67.2914 101.599Z" fill="#6AF0DA"/>
<path d="M85.0182 28.3931C80.2294 25.8024 71.7151 23.4002 56.6097 23.4002C41.5042 23.4002 32.993 25.8024 28.2011 28.3931C24.4324 30.4305 22.0859 34.3722 22.0859 38.6572V57.4416C22.0859 61.7266 24.4324 65.6684 28.2011 67.7057C32.99 70.2965 41.5042 72.6986 56.6097 72.6986C71.7151 72.6986 80.2263 70.2965 85.0182 67.7057C88.7869 65.6684 91.1334 61.7266 91.1334 57.4416V38.6572C91.1334 34.3722 88.7869 30.4305 85.0182 28.3931ZM86.935 56.9717C86.935 59.8129 85.383 62.416 82.8881 63.767C79.1875 65.7673 71.7275 68.154 57.1878 68.154C42.6481 68.154 35.1881 65.7673 31.4905 63.767C28.9956 62.416 27.4437 59.8129 27.4437 56.9717V43.0843C27.4437 40.2432 28.9956 37.64 31.4905 36.289C35.1912 34.2888 42.6512 31.9021 57.1878 31.9021C71.7244 31.9021 79.1875 34.2888 82.8881 36.289C85.383 37.64 86.935 40.2432 86.935 43.0843V56.9717Z" fill="#043381"/>
</g>
<defs>
<clipPath id="clip0_832_361">
<rect width="113.22" height="113.22" fill="white"/>
</clipPath>
</defs>
</svg>
