<svg width="22" height="22" viewBox="0 0 22 22" fill="none" xmlns="http://www.w3.org/2000/svg">
<path d="M12.23 21.29H10.07C9.65 21.29 9.31 20.95 9.31 20.53V19.61C9.31 19.17 9.03 18.78 8.61 18.63C8.28 18.52 7.96 18.38 7.64 18.23C7.25 18.04 6.79 18.11 6.49 18.41L5.82 19.08C5.53 19.37 5.03 19.37 4.75 19.08L3.22 17.55C2.92 17.25 2.92 16.77 3.22 16.47L3.9 15.79C4.2 15.49 4.27 15.03 4.08 14.65C3.93 14.34 3.79 14.01 3.68 13.68C3.54 13.26 3.15 12.98 2.71 12.98H1.76C1.34 12.98 1 12.64 1 12.22V10.06C1 9.64 1.34 9.3 1.76 9.3H2.73C3.16 9.3 3.55 9.02 3.69 8.61C3.8 8.29 3.93 7.97 4.09 7.66C4.28 7.27 4.21 6.81 3.91 6.51L3.21 5.81C3.07 5.67 2.99 5.48 2.99 5.27C2.99 5.06 3.07 4.88 3.21 4.73L4.74 3.2C5.03 2.91 5.53 2.91 5.81 3.2L6.52 3.91C6.82 4.21 7.28 4.28 7.67 4.09C7.98 3.94 8.3 3.81 8.62 3.7C9.03 3.56 9.31 3.18 9.31 2.75V1.76C9.31 1.34 9.65 1 10.07 1H12.23C12.65 1 12.99 1.34 12.99 1.76V2.75C12.99 3.18 13.27 3.56 13.68 3.7C14 3.81 14.32 3.94 14.63 4.09C15.02 4.28 15.48 4.21 15.78 3.91L16.49 3.2C16.79 2.9 17.27 2.9 17.57 3.2L19.1 4.73C19.24 4.87 19.32 5.06 19.32 5.27C19.32 5.48 19.24 5.66 19.1 5.81L18.4 6.51C18.1 6.81 18.03 7.27 18.22 7.66C18.37 7.97 18.51 8.29 18.62 8.61C18.76 9.02 19.15 9.3 19.58 9.3H20.55C20.97 9.3 21.31 9.64 21.31 10.06V12.22C21.31 12.64 20.97 12.98 20.55 12.98H19.6C19.16 12.98 18.78 13.26 18.63 13.68C18.52 14.01 18.38 14.33 18.23 14.65C18.04 15.03 18.11 15.49 18.41 15.79L19.09 16.47C19.39 16.77 19.39 17.25 19.09 17.55L17.56 19.08C17.26 19.38 16.78 19.38 16.48 19.08L15.81 18.41C15.51 18.11 15.05 18.04 14.66 18.23C14.35 18.39 14.02 18.52 13.69 18.63C13.27 18.77 12.99 19.17 12.99 19.61V20.53C12.99 20.95 12.65 21.29 12.23 21.29ZM7.18 17.56C7.42 17.56 7.66 17.61 7.88 17.73C8.17 17.87 8.47 18 8.78 18.1C9.43 18.32 9.87 18.93 9.87 19.61V20.53C9.87 20.64 9.96 20.72 10.06 20.72H12.22C12.33 20.72 12.41 20.63 12.41 20.53V19.61C12.41 18.93 12.85 18.32 13.5 18.1C13.81 18 14.11 17.87 14.4 17.73C15 17.43 15.73 17.54 16.2 18.02L16.87 18.69C16.95 18.77 17.07 18.77 17.14 18.69L18.67 17.16C18.67 17.16 18.73 17.07 18.73 17.02C18.73 16.97 18.71 16.92 18.67 16.88L17.99 16.2C17.52 15.73 17.4 15.01 17.7 14.4C17.84 14.11 17.97 13.81 18.07 13.5C18.29 12.85 18.89 12.42 19.57 12.42H20.52C20.63 12.42 20.71 12.33 20.71 12.23V10.07C20.71 9.96 20.62 9.88 20.52 9.88H19.55C18.87 9.88 18.27 9.45 18.05 8.8C17.95 8.5 17.82 8.2 17.68 7.92C17.38 7.32 17.49 6.59 17.97 6.12L18.67 5.42C18.67 5.42 18.73 5.33 18.73 5.28C18.73 5.23 18.71 5.18 18.67 5.14L17.14 3.61C17.06 3.53 16.94 3.53 16.87 3.61L16.16 4.32C15.69 4.79 14.97 4.91 14.36 4.61C14.07 4.47 13.78 4.35 13.48 4.24C12.84 4.02 12.41 3.42 12.41 2.75V1.76C12.41 1.65 12.32 1.57 12.22 1.57H10.06C9.95 1.57 9.87 1.66 9.87 1.76V2.75C9.87 3.42 9.44 4.02 8.8 4.24C8.5 4.34 8.2 4.46 7.92 4.61C7.32 4.91 6.59 4.79 6.12 4.32L5.41 3.61C5.34 3.54 5.21 3.54 5.14 3.61L3.61 5.14C3.61 5.14 3.55 5.23 3.55 5.28C3.55 5.33 3.57 5.38 3.61 5.42L4.31 6.12C4.78 6.59 4.9 7.32 4.6 7.92C4.46 8.2 4.33 8.5 4.23 8.8C4.01 9.44 3.41 9.88 2.73 9.88H1.76C1.65 9.88 1.57 9.97 1.57 10.07V12.23C1.57 12.34 1.66 12.42 1.76 12.42H2.71C3.39 12.42 3.99 12.86 4.21 13.5C4.31 13.81 4.44 14.11 4.58 14.4C4.88 15 4.76 15.72 4.29 16.2L3.61 16.88C3.61 16.88 3.55 16.97 3.55 17.02C3.55 17.07 3.57 17.12 3.61 17.16L5.14 18.69C5.21 18.76 5.34 18.76 5.41 18.69L6.08 18.02C6.38 17.72 6.78 17.57 7.18 17.57V17.56Z" fill="#043381" stroke="#043381"/>
<path d="M11.1502 16.81C8.03023 16.81 5.49023 14.27 5.49023 11.15C5.49023 8.03001 8.03023 5.49001 11.1502 5.49001C14.2702 5.49001 16.8102 8.03001 16.8102 11.15C16.8102 14.27 14.2702 16.81 11.1502 16.81ZM11.1502 6.05001C8.34023 6.05001 6.05023 8.34001 6.05023 11.15C6.05023 13.96 8.34023 16.25 11.1502 16.25C13.9602 16.25 16.2502 13.96 16.2502 11.15C16.2502 8.34001 13.9602 6.05001 11.1502 6.05001Z" fill="#043381" stroke="#043381"/>
</svg>
