<svg width="27" height="26" viewBox="0 0 27 26" fill="none" xmlns="http://www.w3.org/2000/svg">
<g clip-path="url(#clip0_239_1662)">
<path d="M27 25.6456V3.08861C27 2.88608 26.8313 2.73418 26.6365 2.73418H20.5226V0.35443C20.5226 0.151899 20.3538 0 20.1591 0C19.9644 0 19.7957 0.164557 19.7957 0.35443V2.73418H7.0226V0.35443C7.0226 0.151899 6.85385 0 6.65913 0C6.46442 0 6.29567 0.164557 6.29567 0.35443V2.73418H0.363462C0.155769 2.73418 0 2.89873 0 3.08861V25.6456C0 25.8481 0.16875 26 0.363462 26H26.6236C26.8313 26 26.987 25.8354 26.987 25.6456H27ZM26.2601 25.2911H0.739904V7H26.2601V25.2911ZM26.2601 6.27848H0.739904V3.4557H6.29567V5.02532C6.29567 5.22785 6.46442 5.37975 6.65913 5.37975C6.85385 5.37975 7.0226 5.21519 7.0226 5.02532V3.4557H19.7697V5.02532C19.7697 5.22785 19.9385 5.37975 20.1332 5.37975C20.3279 5.37975 20.4966 5.21519 20.4966 5.02532V3.4557H26.2341V6.27848H26.2601Z" fill="#043381"/>
</g>
<defs>
<clipPath id="clip0_239_1662">
<rect width="27" height="26" fill="white"/>
</clipPath>
</defs>
</svg>
