<svg width="60" height="59" viewBox="0 0 60 59" fill="none" xmlns="http://www.w3.org/2000/svg">
<g clip-path="url(#clip0_664_470)">
<path d="M27.62 14.4C28.33 14.4 28.94 13.8 28.94 13.1C28.94 12.8 29.24 12.5 29.55 12.5C29.86 12.5 30.16 12.8 30.16 13.1C30.16 13.8 30.77 14.4 31.47 14.4C32.17 14.4 32.78 13.8 32.78 13.1C32.78 11.4 31.36 10 29.64 10C27.92 10 26.5 11.4 26.5 13.1C26.4 13.8 27.01 14.4 27.61 14.4H27.62Z" fill="#414141"/>
<path d="M32.67 45.6C32.67 44.9 32.06 44.3 31.36 44.3C30.66 44.3 30.05 44.9 30.05 45.6C30.05 45.9 29.75 46.2 29.44 46.2C29.13 46.2 28.83 45.9 28.83 45.6C28.83 44.9 28.22 44.3 27.52 44.3C26.82 44.3 26.21 44.9 26.21 45.6C26.21 47.3 27.63 48.7 29.35 48.7C31.07 48.7 32.69 47.3 32.69 45.6H32.67Z" fill="#414141"/>
<path d="M40.77 17.4C40.97 17.2 41.07 17.2 41.17 17.2C41.78 17.2 41.98 17.9 41.57 18.3C41.06 18.8 41.06 19.6 41.57 20.1C42.08 20.6 42.89 20.6 43.39 20.1C44.6 18.9 44.6 16.9 43.39 15.7C42.18 14.5 40.15 14.5 38.94 15.7C38.43 16.2 38.43 17 38.94 17.5C39.45 17.9 40.25 17.9 40.76 17.4H40.77Z" fill="#414141"/>
<path d="M18.41 41.3C18.21 41.5 18.11 41.5 18.01 41.5C17.4 41.5 17.2 40.8 17.61 40.4C18.12 39.9 18.12 39.1 17.61 38.6C17.1 38.1 16.3 38.1 15.79 38.6C15.08 39.2 14.78 40 14.78 40.9C14.78 42.6 16.2 44 17.92 44C18.73 44 19.54 43.7 20.15 43.1C20.66 42.6 20.66 41.8 20.15 41.3C19.75 40.8 18.94 40.8 18.43 41.3H18.41Z" fill="#414141"/>
<path d="M46.03 30C45.32 30 44.72 30.6 44.72 31.3C44.72 32 45.33 32.6 46.03 32.6C47.75 32.6 49.17 31.2 49.17 29.5C49.17 27.8 47.75 26.4 46.03 26.4C45.32 26.4 44.72 27 44.72 27.7C44.72 28.4 45.33 29 46.03 29C46.33 29 46.64 29.3 46.64 29.6C46.64 29.7 46.34 30 46.03 30Z" fill="#414141"/>
<path d="M13.15 28.8C13.86 28.8 14.46 28.2 14.46 27.5C14.46 26.8 13.85 26.2 13.15 26.2C11.43 26.2 10.01 27.6 10.01 29.3C10.01 31 11.43 32.4 13.15 32.4C13.86 32.4 14.46 31.8 14.46 31.1C14.46 30.4 13.85 30 13.15 30C12.85 30 12.54 29.7 12.54 29.4C12.54 29.1 12.74 28.8 13.15 28.8Z" fill="#414141"/>
<path d="M17.5 20.1C18.01 19.6 18.01 18.8 17.5 18.3C17.3 18.1 17.3 18 17.3 17.9C17.3 17.3 18.01 17.1 18.41 17.5C18.92 18 19.72 18 20.23 17.5C20.74 17 20.74 16.2 20.23 15.7C19.02 14.5 16.99 14.5 15.78 15.7C14.57 16.9 14.57 18.9 15.78 20.1C15.98 20.3 16.99 20.6 17.5 20.1Z" fill="#414141"/>
<path d="M41.68 38.7C41.17 39.2 41.17 40 41.68 40.5C42.08 40.9 41.78 41.6 41.28 41.6C41.18 41.6 40.98 41.6 40.88 41.4C40.37 40.9 39.57 40.9 39.06 41.4C38.55 41.9 38.55 42.7 39.06 43.2C40.27 44.4 42.3 44.4 43.51 43.2C44.72 42 44.72 40 43.51 38.8C42.9 38.2 42.09 38.2 41.69 38.7H41.68Z" fill="#414141"/>
<path d="M54.02 29.2C54.02 15.8 42.99 5 29.54 5C16.09 5 5.06 15.8 5.06 29.2C5.06 42.6 15.98 53.3 29.54 53.3C43.1 53.3 54.02 42.4 54.02 29.2ZM7.69 29.2C7.69 17.3 17.5 7.5 29.64 7.5C41.78 7.5 51.49 17.2 51.49 29.2C51.49 41.2 41.68 50.8 29.64 50.8C17.6 50.8 7.69 41.1 7.69 29.2Z" fill="#414141"/>
<path d="M29.64 2.5C30.35 2.5 30.85 1.9 30.85 1.2C30.85 0.5 30.24 0 29.64 0C13.35 0 0.100006 13.1 0.100006 29.2V47.5C0.100006 48.2 0.710006 48.8 1.41001 48.8C2.11001 48.8 2.73001 48.2 2.73001 47.5V29.2C2.63001 14.5 14.77 2.5 29.64 2.5Z" fill="#414141"/>
<path d="M1.31 50C0.6 50 0 50.6 0 51.3C0 52 0.61 52.6 1.31 52.6C2.01 52.6 2.62 52 2.62 51.4C2.62 50.6 2.01 50 1.31 50Z" fill="#414141"/>
<path d="M57.76 9.2C57.05 9.2 56.45 9.8 56.45 10.5V29.7C56.45 44.4 44.41 56.3 29.54 56.3C28.83 56.3 28.33 56.9 28.33 57.6C28.33 58.3 28.94 58.9 29.64 58.9C45.83 58.9 59.08 45.8 59.08 29.8V10.5C59.08 9.8 58.47 9.2 57.77 9.2H57.76Z" fill="#414141"/>
<path d="M58.67 7.59999C59.18 7.09999 59.18 6.29999 58.67 5.79999C58.47 5.59999 58.06 5.39999 57.76 5.39999C57.05 5.39999 56.45 5.99999 56.45 6.69999C56.45 6.99999 56.55 7.29999 56.85 7.59999C57.36 8.09999 58.16 8.09999 58.67 7.59999Z" fill="#414141"/>
<path d="M30.35 31.2L37.94 28.7C38.65 28.5 38.95 27.8 38.75 27.1C38.55 26.4 37.84 26.1 37.13 26.3L30.15 28.6L23.07 23.9C22.46 23.5 21.65 23.7 21.35 24.2C21.05 24.7 21.15 25.6 21.65 25.9L29.24 30.9C29.54 31.3 29.95 31.3 30.35 31.2Z" fill="#414141"/>
</g>
<defs>
<clipPath id="clip0_664_470">
<rect width="59.08" height="58.9" fill="white"/>
</clipPath>
</defs>
</svg>
