<svg width="65" height="69" viewBox="0 0 65 69" fill="none" xmlns="http://www.w3.org/2000/svg">
<g clip-path="url(#clip0_664_522)">
<path d="M0.95 68.24C0.23 67.84 0 67.24 0 66.43C0.02 44.88 0.01 23.34 0.01 1.8C0.01 0.42 0.43 0 1.8 0C16.97 0 32.14 0 47.31 0C48.67 0 49.08 0.42 49.08 1.8C49.08 16.35 49.08 30.89 49.08 45.44C49.08 45.7 49.08 45.96 49.08 46.45C50.52 44.67 52.21 43.66 54.32 43.5C56.45 43.34 58.29 44.03 59.84 45.51C61.82 47.41 63.02 51.25 60.47 54.86C61.03 55.3 61.63 55.68 62.13 56.18C64.11 58.18 64.77 60.59 63.93 63.27C63.1 65.92 61.23 67.53 58.5 68.11C58.37 68.14 58.25 68.19 58.13 68.23H0.95V68.24ZM2.73 32.58V65.51H38C37.93 65.39 37.9 65.33 37.87 65.28C35.04 60.99 36.98 55.77 41.92 54.36C42.16 54.29 42.39 54.12 42.56 53.93C43.74 52.6 44.92 51.27 46.06 49.91C46.26 49.67 46.42 49.29 46.42 48.98C46.44 43.72 46.44 38.45 46.43 33.19C46.43 33 46.4 32.81 46.39 32.59H2.73V32.58ZM2.7 29.84H46.37V2.71H2.7V29.84ZM51.76 65.57C53.56 65.57 55.29 65.57 57.02 65.57C59.62 65.57 61.58 63.69 61.59 61.22C61.6 58.74 59.66 56.85 57.06 56.83C55.49 56.82 53.91 56.83 52.34 56.83C52.15 56.83 51.96 56.86 51.77 56.87V65.58L51.76 65.57ZM49.04 56.88C48.93 56.86 48.85 56.82 48.76 56.82C46.99 56.82 45.21 56.76 43.44 56.83C40.97 56.93 39.15 58.92 39.21 61.32C39.28 63.68 41.2 65.54 43.63 65.56C45.25 65.57 46.87 65.56 48.49 65.56C48.68 65.56 48.87 65.53 49.04 65.52V56.87V56.88ZM45.93 54.11C46.27 54.13 46.49 54.15 46.72 54.15C49.94 54.15 53.16 54.12 56.38 54.18C57.26 54.2 57.81 53.91 58.32 53.23C59.72 51.36 59.51 48.73 57.76 47.21C56 45.68 53.34 45.75 51.75 47.49C49.8 49.62 47.94 51.82 45.93 54.11Z" fill="#414141"/>
<path d="M29.47 39.86C25.74 39.86 22.01 39.86 18.28 39.86C17.32 39.86 16.75 39.31 16.79 38.47C16.82 37.82 17.28 37.32 17.96 37.22C18.16 37.19 18.36 37.2 18.56 37.2C25.89 37.2 33.21 37.2 40.54 37.2C40.8 37.2 41.08 37.21 41.33 37.28C41.97 37.46 42.35 38.06 42.27 38.71C42.19 39.33 41.71 39.79 41.07 39.85C40.87 39.87 40.67 39.85 40.47 39.85C36.81 39.85 33.14 39.85 29.48 39.85L29.47 39.86Z" fill="#414141"/>
<path d="M29.54 44.23C33.16 44.23 36.78 44.23 40.4 44.23C40.64 44.23 40.89 44.22 41.13 44.25C41.73 44.32 42.19 44.8 42.26 45.39C42.34 46.01 41.99 46.6 41.38 46.79C41.13 46.87 40.86 46.89 40.6 46.89C33.21 46.89 25.81 46.89 18.42 46.89C18.26 46.89 18.11 46.89 17.95 46.87C17.22 46.76 16.76 46.2 16.79 45.48C16.82 44.77 17.33 44.24 18.08 44.23C19.54 44.21 21.01 44.22 22.48 44.22C24.83 44.22 27.19 44.22 29.54 44.22V44.23Z" fill="#414141"/>
<path d="M27.36 51.25C30.25 51.25 33.13 51.25 36.02 51.25C36.26 51.25 36.51 51.25 36.75 51.28C37.38 51.38 37.83 51.89 37.86 52.51C37.89 53.15 37.45 53.73 36.8 53.85C36.52 53.9 36.23 53.91 35.94 53.91C30.19 53.91 24.44 53.91 18.68 53.91C18.39 53.91 18.1 53.91 17.82 53.85C17.17 53.72 16.76 53.17 16.79 52.5C16.82 51.87 17.26 51.37 17.9 51.28C18.14 51.25 18.39 51.25 18.63 51.25C21.54 51.25 24.45 51.25 27.36 51.25Z" fill="#414141"/>
<path d="M24.76 60.92C22.63 60.92 20.5 60.92 18.37 60.92C17.37 60.92 16.8 60.44 16.8 59.61C16.8 58.79 17.38 58.26 18.35 58.26C22.64 58.26 26.92 58.26 31.21 58.26C32.17 58.26 32.79 58.8 32.8 59.59C32.8 60.39 32.2 60.92 31.23 60.92C29.08 60.92 26.92 60.92 24.77 60.92H24.76Z" fill="#414141"/>
<path d="M9.29998 60.92C8.91998 60.92 8.54998 60.93 8.16998 60.92C7.42998 60.89 6.88998 60.39 6.82998 59.7C6.76998 59.03 7.25998 58.36 7.96998 58.3C8.86998 58.23 9.78998 58.23 10.69 58.3C11.41 58.35 11.89 59.03 11.83 59.7C11.77 60.39 11.24 60.89 10.49 60.92C10.09 60.94 9.68998 60.92 9.28998 60.92H9.29998Z" fill="#414141"/>
<path d="M9.34 39.86C8.94 39.86 8.54 39.88 8.14 39.86C7.41 39.83 6.87 39.3 6.83 38.61C6.79 37.94 7.29 37.28 8 37.23C8.88 37.17 9.77 37.17 10.65 37.23C11.36 37.28 11.87 37.93 11.83 38.6C11.79 39.29 11.25 39.82 10.53 39.86C10.13 39.88 9.73 39.86 9.33 39.86H9.34Z" fill="#414141"/>
<path d="M9.37001 44.24C9.77001 44.24 10.17 44.22 10.57 44.24C11.29 44.28 11.83 44.84 11.84 45.53C11.85 46.18 11.38 46.81 10.69 46.86C9.79001 46.92 8.87001 46.92 7.97001 46.86C7.29001 46.81 6.81001 46.17 6.83001 45.52C6.85001 44.83 7.39001 44.29 8.11001 44.25C8.53001 44.23 8.95001 44.25 9.37001 44.25V44.24Z" fill="#414141"/>
<path d="M9.32 51.27C9.76 51.27 10.21 51.24 10.65 51.27C11.34 51.33 11.83 51.9 11.84 52.56C11.84 53.2 11.39 53.8 10.73 53.85C9.81 53.91 8.87 53.92 7.95 53.85C7.26 53.8 6.8 53.17 6.83 52.51C6.86 51.87 7.34 51.34 8 51.27C8.44 51.23 8.88 51.27 9.33 51.27H9.32Z" fill="#414141"/>
<path d="M29.12 21.34C29.12 22.63 29.12 23.84 29.12 25.06C29.12 26.59 28.76 26.96 27.25 26.96C25.36 26.96 23.48 26.96 21.59 26.96C20.43 26.96 19.99 26.51 19.99 25.34C19.99 24.04 19.99 22.73 19.99 21.35C18.66 21.35 17.4 21.35 16.15 21.35C14.77 21.35 14.38 20.95 14.37 19.56C14.37 17.65 14.37 15.74 14.37 13.83C14.37 12.67 14.82 12.22 15.98 12.21C17.29 12.2 18.59 12.21 19.98 12.21C19.98 10.93 19.98 9.72 19.98 8.51C19.98 6.95 20.35 6.59 21.9 6.58C23.74 6.58 25.58 6.58 27.43 6.58C28.66 6.58 29.11 7.04 29.11 8.28C29.11 9.56 29.11 10.84 29.11 12.21C30.25 12.21 31.31 12.21 32.36 12.21C32.69 12.21 33.03 12.2 33.36 12.21C34.2 12.26 34.71 12.71 34.72 13.54C34.75 15.69 34.75 17.85 34.72 20C34.71 20.86 34.17 21.32 33.3 21.33C31.95 21.34 30.59 21.33 29.11 21.33L29.12 21.34ZM32.05 14.87C31.8 14.87 31.58 14.87 31.37 14.87C30.28 14.87 29.19 14.87 28.11 14.87C26.94 14.87 26.47 14.38 26.46 13.2C26.46 12.38 26.46 11.56 26.46 10.74C26.46 10.26 26.46 9.78 26.46 9.29H22.73C22.7 9.38 22.67 9.42 22.67 9.46C22.67 10.64 22.67 11.81 22.66 12.99C22.66 14.47 22.25 14.87 20.75 14.88C19.54 14.88 18.32 14.88 17.09 14.88V18.69C18.43 18.69 19.71 18.69 21 18.69C22.16 18.69 22.65 19.19 22.66 20.36C22.66 21 22.66 21.65 22.66 22.29C22.66 22.95 22.66 23.6 22.66 24.25H26.38C26.41 24.17 26.44 24.13 26.44 24.09C26.44 22.91 26.45 21.74 26.46 20.56C26.46 19.12 26.89 18.69 28.31 18.68C29.55 18.68 30.78 18.68 32.05 18.68V14.87Z" fill="#414141"/>
</g>
<defs>
<clipPath id="clip0_664_522">
<rect width="64.28" height="68.24" fill="white"/>
</clipPath>
</defs>
</svg>
