<svg width="67" height="73" viewBox="0 0 67 73" fill="none" xmlns="http://www.w3.org/2000/svg">
<g clip-path="url(#clip0_664_488)">
<path d="M10.79 0C10.96 0.07 11.13 0.15 11.3 0.21C13.17 0.85 14.32 2.53 14.22 4.5C14.13 6.37 12.83 7.93 10.97 8.39C9.12 8.85 7.25 8.03 6.27 6.33C6.19 6.19 6.11 6.04 6.04 5.91C4.41 6.16 2.91 7.8 2.9 9.63C2.87 15.08 2.72 20.54 3.05 25.97C3.44 32.55 9.01 38.35 15.52 39.51C24.35 41.08 32.33 35.54 33.95 26.69C34.08 25.97 34.14 25.24 34.15 24.51C34.17 19.67 34.17 14.83 34.15 10C34.15 8.01 32.95 6.43 31.05 5.88C30.96 6.02 30.86 6.17 30.77 6.33C29.79 8.03 27.92 8.86 26.08 8.41C24.25 7.96 22.91 6.4 22.82 4.6C22.72 2.56 23.83 0.9 25.73 0.23C25.9 0.17 26.07 0.09 26.23 0.02C26.75 0.02 27.27 0.02 27.79 0.02C29.26 0.45 30.42 1.25 31.04 2.72C31.11 2.89 31.38 3.01 31.58 3.07C34.98 4.04 36.99 6.67 37 10.21C37 14.83 37.08 19.46 36.98 24.08C36.82 31.85 33.17 37.46 26.23 40.94C25.74 41.19 25.61 41.46 25.63 41.96C25.73 44.61 24.84 46.83 22.65 48.4C22.03 48.84 21.29 49.15 20.57 49.42C20.14 49.58 19.93 49.72 19.94 50.23C19.97 53.16 19.93 56.08 19.96 59.01C20.03 64.72 24.35 69.32 29.92 69.66C35.57 70 40.41 66 41.2 60.33C41.28 59.75 41.27 59.15 41.27 58.56C41.27 53.27 41.25 47.99 41.27 42.7C41.3 36.74 45.2 31.68 50.95 30.3C52.2 30 52.86 29.57 53.36 28.32C54.62 25.2 58.13 23.6 61.43 24.38C64.66 25.15 66.96 28.18 66.85 31.51C66.74 34.85 64.26 37.7 60.97 38.26C57.44 38.86 54.1 36.83 52.99 33.43C52.93 33.25 52.88 33.07 52.76 32.7C51.83 32.99 50.85 33.17 49.99 33.59C46.18 35.43 44.17 38.52 44.11 42.75C44.04 48.13 44.11 53.51 44.09 58.89C44.06 65.32 39.85 70.66 33.71 72.13C25.53 74.09 17.47 68.03 17.16 59.63C17.04 56.5 17.12 53.35 17.13 50.22C17.13 49.84 17.09 49.6 16.63 49.45C13.3 48.4 11.42 45.86 11.44 42.37C11.44 41.49 11.17 41.1 10.39 40.69C3.73001 37.2 0.230005 31.66 0.0600049 24.14C-0.0499951 19.47 0.0300049 14.8 0.0400049 10.12C0.0400049 6.65 2.09 4 5.45 3.05C5.65 2.99 5.93 2.87 6 2.71C6.62 1.25 7.76 0.44 9.23 0C9.75 0 10.27 0 10.79 0ZM59.75 27.02C57.37 27.02 55.48 28.9 55.49 31.29C55.49 33.63 57.38 35.53 59.71 35.54C62.07 35.56 64.01 33.64 64.02 31.29C64.03 28.93 62.12 27.02 59.75 27.01V27.02ZM14.34 42.16C14.05 43.67 14.8 45.33 16.19 46.2C17.73 47.17 19.32 47.18 20.84 46.2C22.26 45.28 22.84 43.91 22.78 42.15C19.92 42.78 17.12 42.79 14.34 42.16ZM27.02 2.84C26.22 2.86 25.61 3.51 25.64 4.33C25.67 5.11 26.29 5.69 27.08 5.68C27.84 5.67 28.47 5.03 28.48 4.27C28.48 3.49 27.8 2.83 27.02 2.84ZM11.39 4.29C11.41 3.48 10.78 2.83 9.98 2.84C9.23 2.84 8.58001 3.48 8.56001 4.23C8.54 5.01 9.2 5.68 9.99 5.68C10.77 5.68 11.38 5.08 11.39 4.3V4.29Z" fill="#414141"/>
<path d="M59.73 29.87C60.49 29.86 61.14 30.48 61.17 31.23C61.19 32 60.51 32.69 59.74 32.69C58.98 32.69 58.36 32.04 58.36 31.28C58.36 30.5 58.96 29.89 59.74 29.87H59.73Z" fill="#414141"/>
</g>
<defs>
<clipPath id="clip0_664_488">
<rect width="66.85" height="72.5" fill="white"/>
</clipPath>
</defs>
</svg>
