<svg width="59" height="57" viewBox="0 0 59 57" fill="none" xmlns="http://www.w3.org/2000/svg">
<g clip-path="url(#clip0_664_458)">
<path d="M48.8499 28.9C49.1499 27.5 49.2599 26.3 49.2599 25.3C49.2599 16.5 43.4899 8.7 35.0999 6C34.9999 2.7 32.17 0 28.83 0C25.49 0 22.66 2.7 22.56 6C14.16 8.7 8.39995 16.5 8.39995 25.3C8.39995 26.3 8.49995 27.5 8.79995 28.9C9.50995 32.1 8.59995 35.5 6.56995 38.1C5.55995 39.4 4.94995 41 4.94995 42.7C4.94995 46.8 8.28995 50.1 12.44 50.1H21.34C21.95 53.6 25.08 56.4 28.83 56.4C32.58 56.4 35.7099 53.7 36.32 50.1H45.22C49.37 50.1 52.7099 46.8 52.7099 42.7C52.7099 41 52.2099 39.5 51.09 38.1C49.07 35.5 48.26 32.1 48.86 28.9H48.8499ZM28.82 2.6C30.5399 2.6 32.0599 3.8 32.4599 5.4C30.0299 5 27.5 5 25.08 5.4C25.59 3.8 27.1 2.6 28.82 2.6ZM28.82 53.8C26.49 53.8 24.4699 52.2 23.9599 50H33.77C33.16 52.2 31.14 53.8 28.81 53.8H28.82ZM45.2099 47.6H12.43C9.08995 47.6 6.65995 44.4 7.67995 41.2C7.77995 41.2 6.76995 41.2 30.54 41.2C31.25 41.2 31.85 40.6 31.85 39.9C31.85 39.2 31.24 38.7 30.6399 38.7H9.18995C11.21 35.6 11.92 32 11.21 28.4C11.01 27.2 10.81 26.1 10.81 25.3C10.81 17.3 16.27 10.2 24.06 8.1C27.09 7.3 30.43 7.3 33.47 8.1C41.26 10.2 46.72 17.2 46.72 25.3C46.72 26.1 46.6199 27.2 46.32 28.4C45.5099 32.3 46.52 36.4 49.0499 39.6C49.7599 40.5 50.06 41.5 50.06 42.6C50.16 45.4 47.94 47.6 45.2 47.6H45.2099Z" fill="#414141"/>
<path d="M41.97 32.5C42.27 31.1 42.38 29.9 42.38 28.9C42.38 23.6 40.36 18.6 36.61 14.8C36.1 14.3 35.3 14.3 34.79 14.8C34.28 15.3 34.28 16.1 34.79 16.6C38.13 19.9 39.85 24.3 39.85 29C39.85 29.8 39.75 30.9 39.45 32.1C38.64 36 39.65 40.1 42.18 43.3C42.38 43.6 42.79 43.8 43.19 43.8C44.2 43.8 44.81 42.6 44.2 41.8C42.18 39.1 41.37 35.8 41.97 32.5Z" fill="#414141"/>
<path d="M28.5099 14.8C27.9999 15.3 27.9999 16.1 28.5099 16.6C31.8499 19.9 33.5699 24.3 33.5699 29C33.5699 29.7 34.1799 30.3 34.8799 30.3C35.5799 30.3 36.1999 29.7 36.1999 29C36.1999 23.7 34.1799 18.7 30.4299 14.9C29.8199 14.3 29.0099 14.3 28.5099 14.8Z" fill="#414141"/>
<path d="M56.64 6.8C56.24 6.2 55.53 6 54.92 6.4C54.31 6.8 54.11 7.5 54.52 8.1C56.75 11.5 56.64 15.6 54.52 18.9C54.01 19.7 54.62 20.8 55.63 20.8C56.03 20.8 56.44 20.6 56.74 20.2C59.37 16.1 59.37 11 56.64 6.8Z" fill="#414141"/>
<path d="M51.48 8.9C50.87 9.2 50.67 10 50.98 10.6C52.09 12.6 51.99 14.7 50.98 16.5C50.68 17.1 50.88 17.9 51.48 18.2C52.09 18.5 52.9 18.3 53.2 17.7C54.62 15.1 54.82 12.1 53.2 9.4C52.8 8.8 52.09 8.5 51.48 8.9Z" fill="#414141"/>
<path d="M3.73005 6.4C3.12005 6 2.31005 6.2 2.01005 6.8C-0.619947 11 -0.719947 16.1 2.01005 20.3C2.21005 20.7 2.62005 20.9 3.12005 20.9C4.13005 20.9 4.74005 19.8 4.23005 19C2.00005 15.6 2.11005 11.5 4.23005 8.2C4.43005 7.5 4.33005 6.8 3.72005 6.4H3.73005Z" fill="#414141"/>
<path d="M7.16995 18.2C7.77995 17.9 7.97995 17.1 7.67995 16.5C6.56995 14.5 6.66995 12.4 7.67995 10.6C7.97995 10 7.77995 9.20001 7.16995 8.90001C6.55995 8.60001 5.74995 8.80001 5.44995 9.40001C4.02995 12 3.82995 15 5.44995 17.7C5.64995 18.1 6.55995 18.5 7.16995 18.2Z" fill="#414141"/>
</g>
<defs>
<clipPath id="clip0_664_458">
<rect width="58.7" height="56.4" fill="white"/>
</clipPath>
</defs>
</svg>
