<svg width="27" height="20" viewBox="0 0 27 20" fill="none" xmlns="http://www.w3.org/2000/svg">
<path d="M16.3503 19.9997C17.8361 19.9997 19.0447 18.7307 19.0447 17.1706V15.6376L25.9355 19.9084C26.1031 20.0133 26.3094 20.0133 26.477 19.9117C26.6446 19.8102 26.7477 19.6241 26.7477 19.4211V0.5818C26.7477 0.378754 26.6446 0.189245 26.477 0.091106C26.3094 -0.00703273 26.1031 -0.00703274 25.9355 0.0944901L19.0447 4.36522V2.83222C19.0447 1.27215 17.8361 0.00311955 16.3503 0.00311955H2.69443C1.20863 -0.000264549 0 1.26877 0 2.82884V17.1672C0 18.7273 1.20863 19.9964 2.69443 19.9964H16.3503V19.9997ZM25.6744 1.57334V18.4261L12.0766 9.99974L25.6744 1.57334ZM2.69443 18.8661C1.80166 18.8661 1.07648 18.1046 1.07648 17.1672V2.82884C1.07648 1.89144 1.80166 1.13002 2.69443 1.13002H16.3503C17.2431 1.13002 17.9682 1.89144 17.9682 2.82884V5.03188L10.739 9.51243C10.5747 9.61395 10.4748 9.80007 10.4748 9.99974C10.4748 10.1994 10.5747 10.3855 10.739 10.487L17.9682 14.9676V17.1706C17.9682 18.108 17.2431 18.8694 16.3503 18.8694H2.69443V18.8661Z" fill="#04A2FD"/>
</svg>
